<?xml version="1.0" encoding="utf-8" standalone="no"?>
<!DOCTYPE svg PUBLIC "-//W3C//DTD SVG 1.1//EN"
  "http://www.w3.org/Graphics/SVG/1.1/DTD/svg11.dtd">
<svg xmlns:xlink="http://www.w3.org/1999/xlink" width="720pt" height="540pt" viewBox="0 0 720 540" xmlns="http://www.w3.org/2000/svg" version="1.1">
 <metadata>
  <rdf:RDF xmlns:dc="http://purl.org/dc/elements/1.1/" xmlns:cc="http://creativecommons.org/ns#" xmlns:rdf="http://www.w3.org/1999/02/22-rdf-syntax-ns#">
   <cc:Work>
    <dc:type rdf:resource="http://purl.org/dc/dcmitype/StillImage"/>
    <dc:date>2022-01-01T05:00:00+00:00</dc:date>
    <dc:format>image/svg+xml</dc:format>
    <dc:creator>
     <cc:Agent>
      <dc:title>Matplotlib v3.11.0, https://matplotlib.org/</dc:title>
     </cc:Agent>
    </dc:creator>
   </cc:Work>
  </rdf:RDF>
 </metadata>
 <defs>
  <style type="text/css">*{stroke-linejoin: round; stroke-linecap: butt}</style>
 </defs>
 <g id="figure_1">
  <g id="patch_1">
   <path d="M 0 540 
L 720 540 
L 720 0 
L 0 0 
z
" style="fill: #ffffff"/>
  </g>
  <g id="axes_1">
   <g id="line2d_1">
    <path d="M 370.57161 277.747826 
L 424.941077 164.848464 
" clip-path="url(#p4c55c7aed7)" style="fill: none; stroke: #0279ee; stroke-width: 2.2; stroke-linecap: square"/>
   </g>
   <g id="line2d_2">
    <path d="M 349.42839 277.747826 
L 295.058923 164.848464 
" clip-path="url(#p4c55c7aed7)" style="fill: none; stroke: #0279ee; stroke-width: 2.2; stroke-linecap: square"/>
   </g>
   <g id="line2d_3">
    <path d="M 318.091304 290.134614 
L 214.078724 266.394421 
" clip-path="url(#p4c55c7aed7)" style="fill: none; stroke: #0279ee; stroke-width: 2.2; stroke-linecap: square"/>
   </g>
   <g id="line2d_4">
    <path d="M 332.472845 321.652174 
L 242.980223 393.020158 
" clip-path="url(#p4c55c7aed7)" style="fill: none; stroke-dasharray: 2.2,3.63; stroke-dashoffset: 0; stroke: #75a025; stroke-width: 2.2"/>
   </g>
   <g id="line2d_5">
    <path d="M 360 321.652174 
L 360 449.373913 
" clip-path="url(#p4c55c7aed7)" style="fill: none; stroke-dasharray: 2.2,3.63; stroke-dashoffset: 0; stroke: #75a025; stroke-width: 2.2"/>
   </g>
   <g id="line2d_6">
    <path d="M 387.527155 321.652174 
L 477.019777 393.020158 
" clip-path="url(#p4c55c7aed7)" style="fill: none; stroke-dasharray: 2.2,3.63; stroke-dashoffset: 0; stroke: #75a025; stroke-width: 2.2"/>
   </g>
   <g id="line2d_7">
    <path d="M 401.908696 290.134614 
L 505.921276 266.394421 
" clip-path="url(#p4c55c7aed7)" style="fill: none; stroke: #0279ee; stroke-width: 2.2; stroke-linecap: square"/>
   </g>
   <g id="text_1">
    <g id="patch_2">
     <path d="M 390.112003 229.756284 
L 402.622003 229.756284 
Q 403.972003 229.756284 403.972003 228.406284 
L 403.972003 219.959995 
Q 403.972003 218.609995 402.622003 218.609995 
L 390.112003 218.609995 
Q 388.762003 218.609995 388.762003 219.959995 
L 388.762003 228.406284 
Q 388.762003 229.756284 390.112003 229.756284 
z
" style="fill: #ffffff; opacity: 0.9"/>
    </g>
    <text style="font-size: 9px; font-family: 'Liberation Sans', 'Arimo', 'DejaVu Sans'; text-anchor: middle" x="396.367003" y="226.512241" transform="rotate(-0 396.367003 226.512241)">2.3</text>
   </g>
   <g id="text_2">
    <g id="patch_3">
     <path d="M 317.377997 229.756284 
L 329.887997 229.756284 
Q 331.237997 229.756284 331.237997 228.406284 
L 331.237997 219.959995 
Q 331.237997 218.609995 329.887997 218.609995 
L 317.377997 218.609995 
Q 316.027997 218.609995 316.027997 219.959995 
L 316.027997 228.406284 
Q 316.027997 229.756284 317.377997 229.756284 
z
" style="fill: #ffffff; opacity: 0.9"/>
    </g>
    <text style="font-size: 9px; font-family: 'Liberation Sans', 'Arimo', 'DejaVu Sans'; text-anchor: middle" x="323.632997" y="226.512241" transform="rotate(-0 323.632997 226.512241)">2.6</text>
   </g>
   <g id="text_3">
    <g id="patch_4">
     <path d="M 272.029086 286.62202 
L 284.539086 286.62202 
Q 285.889086 286.62202 285.889086 285.27202 
L 285.889086 276.825731 
Q 285.889086 275.475731 284.539086 275.475731 
L 272.029086 275.475731 
Q 270.679086 275.475731 270.679086 276.825731 
L 270.679086 285.27202 
Q 270.679086 286.62202 272.029086 286.62202 
z
" style="fill: #ffffff; opacity: 0.9"/>
    </g>
    <text style="font-size: 9px; font-family: 'Liberation Sans', 'Arimo', 'DejaVu Sans'; text-anchor: middle" x="278.284086" y="283.377977" transform="rotate(-0 278.284086 283.377977)">2.3</text>
   </g>
   <g id="text_4">
    <g id="patch_5">
     <path d="M 288.213925 357.532433 
L 300.723925 357.532433 
Q 302.073925 357.532433 302.073925 356.182433 
L 302.073925 347.736144 
Q 302.073925 346.386144 300.723925 346.386144 
L 288.213925 346.386144 
Q 286.863925 346.386144 286.863925 347.736144 
L 286.863925 356.182433 
Q 286.863925 357.532433 288.213925 357.532433 
z
" style="fill: #ffffff; opacity: 0.9"/>
    </g>
    <text style="font-size: 9px; font-family: 'Liberation Sans', 'Arimo', 'DejaVu Sans'; text-anchor: middle" x="294.468925" y="354.28839" transform="rotate(-0 294.468925 354.28839)">3.6</text>
   </g>
   <g id="text_5">
    <g id="patch_6">
     <path d="M 353.745 389.090536 
L 366.255 389.090536 
Q 367.605 389.090536 367.605 387.740536 
L 367.605 379.294247 
Q 367.605 377.944247 366.255 377.944247 
L 353.745 377.944247 
Q 352.395 377.944247 352.395 379.294247 
L 352.395 387.740536 
Q 352.395 389.090536 353.745 389.090536 
z
" style="fill: #ffffff; opacity: 0.9"/>
    </g>
    <text style="font-size: 9px; font-family: 'Liberation Sans', 'Arimo', 'DejaVu Sans'; text-anchor: middle" x="360" y="385.846493" transform="rotate(-0 360 385.846493)">3.6</text>
   </g>
   <g id="text_6">
    <g id="patch_7">
     <path d="M 419.276075 357.532433 
L 431.786075 357.532433 
Q 433.136075 357.532433 433.136075 356.182433 
L 433.136075 347.736144 
Q 433.136075 346.386144 431.786075 346.386144 
L 419.276075 346.386144 
Q 417.926075 346.386144 417.926075 347.736144 
L 417.926075 356.182433 
Q 417.926075 357.532433 419.276075 357.532433 
z
" style="fill: #ffffff; opacity: 0.9"/>
    </g>
    <text style="font-size: 9px; font-family: 'Liberation Sans', 'Arimo', 'DejaVu Sans'; text-anchor: middle" x="425.531075" y="354.28839" transform="rotate(-0 425.531075 354.28839)">4.0</text>
   </g>
   <g id="text_7">
    <g id="patch_8">
     <path d="M 435.460914 286.62202 
L 447.970914 286.62202 
Q 449.320914 286.62202 449.320914 285.27202 
L 449.320914 276.825731 
Q 449.320914 275.475731 447.970914 275.475731 
L 435.460914 275.475731 
Q 434.110914 275.475731 434.110914 276.825731 
L 434.110914 285.27202 
Q 434.110914 286.62202 435.460914 286.62202 
z
" style="fill: #ffffff; opacity: 0.9"/>
    </g>
    <text style="font-size: 9px; font-family: 'Liberation Sans', 'Arimo', 'DejaVu Sans'; text-anchor: middle" x="441.715914" y="283.377977" transform="rotate(-0 441.715914 283.377977)">3.3</text>
   </g>
   <g id="patch_9">
    <path d="M 322.082609 325.643478 
L 397.917391 325.643478 
Q 405.9 325.643478 405.9 317.66087 
L 405.9 281.73913 
Q 405.9 273.756522 397.917391 273.756522 
L 322.082609 273.756522 
Q 314.1 273.756522 314.1 281.73913 
L 314.1 317.66087 
Q 314.1 325.643478 322.082609 325.643478 
z
" clip-path="url(#p4c55c7aed7)" style="fill: #faf9f3; stroke: #000000; stroke-width: 2.5; stroke-linejoin: miter"/>
   </g>
   <g id="text_8">
    <text style="font-weight: 700; font-size: 16px; font-family: 'Liberation Sans', 'Arimo', 'DejaVu Sans'; text-anchor: middle" x="360" y="299.849321" transform="rotate(-0 360 299.849321)">WT</text>
   </g>
   <g id="text_9">
    <text style="font-style: italic; font-size: 11px; font-family: 'Liberation Sans', 'Arimo', 'DejaVu Sans'; text-anchor: middle; fill: #555555" x="360" y="316.532358" transform="rotate(-0 360 316.532358)">(9S19)</text>
   </g>
   <g id="patch_10">
    <path d="M 433.599887 166.824781 
C 438.892419 166.824781 443.968894 164.722036 447.711279 160.979651 
C 451.453664 157.237266 453.556409 152.160791 453.556409 146.868259 
C 453.556409 141.575728 451.453664 136.499252 447.711279 132.756867 
C 443.968894 129.014482 438.892419 126.911737 433.599887 126.911737 
C 428.307356 126.911737 423.23088 129.014482 419.488495 132.756867 
C 415.746111 136.499252 413.643366 141.575728 413.643366 146.868259 
C 413.643366 152.160791 415.746111 157.237266 419.488495 160.979651 
C 423.23088 164.722036 428.307356 166.824781 433.599887 166.824781 
z
" clip-path="url(#p4c55c7aed7)" style="fill: #3366cc; stroke: #000000; stroke-width: 1.5; stroke-linejoin: miter"/>
   </g>
   <g id="patch_11">
    <path d="M 286.400113 166.824781 
C 291.692644 166.824781 296.76912 164.722036 300.511505 160.979651 
C 304.253889 157.237266 306.356634 152.160791 306.356634 146.868259 
C 306.356634 141.575728 304.253889 136.499252 300.511505 132.756867 
C 296.76912 129.014482 291.692644 126.911737 286.400113 126.911737 
C 281.107581 126.911737 276.031106 129.014482 272.288721 132.756867 
C 268.546336 136.499252 266.443591 141.575728 266.443591 146.868259 
C 266.443591 152.160791 268.546336 157.237266 272.288721 160.979651 
C 276.031106 164.722036 281.107581 166.824781 286.400113 166.824781 
z
" clip-path="url(#p4c55c7aed7)" style="fill: #3366cc; stroke: #000000; stroke-width: 1.5; stroke-linejoin: miter"/>
   </g>
   <g id="patch_12">
    <path d="M 194.622554 281.910199 
C 199.915086 281.910199 204.991561 279.807454 208.733946 276.065069 
C 212.476331 272.322684 214.579076 267.246209 214.579076 261.953677 
C 214.579076 256.661146 212.476331 251.58467 208.733946 247.842285 
C 204.991561 244.099901 199.915086 241.997155 194.622554 241.997155 
C 189.330023 241.997155 184.253547 244.099901 180.511163 247.842285 
C 176.768778 251.58467 174.666033 256.661146 174.666033 261.953677 
C 174.666033 267.246209 176.768778 272.322684 180.511163 276.065069 
C 184.253547 279.807454 189.330023 281.910199 194.622554 281.910199 
z
" clip-path="url(#p4c55c7aed7)" style="fill: #ff9900; stroke: #000000; stroke-width: 1.5; stroke-linejoin: miter"/>
   </g>
   <g id="patch_13">
    <path d="M 227.377586 425.419368 
C 232.670117 425.419368 237.746593 423.316623 241.488978 419.574238 
C 245.231362 415.831853 247.334107 410.755378 247.334107 405.462846 
C 247.334107 400.170315 245.231362 395.093839 241.488978 391.351454 
C 237.746593 387.609069 232.670117 385.506324 227.377586 385.506324 
C 222.085054 385.506324 217.008579 387.609069 213.266194 391.351454 
C 209.523809 395.093839 207.421064 400.170315 207.421064 405.462846 
C 207.421064 410.755378 209.523809 415.831853 213.266194 419.574238 
C 217.008579 423.316623 222.085054 425.419368 227.377586 425.419368 
z
" clip-path="url(#p4c55c7aed7)" style="fill: #dc3912; stroke: #000000; stroke-width: 1.5; stroke-linejoin: miter"/>
   </g>
   <g id="patch_14">
    <path d="M 360 489.286957 
C 365.292531 489.286957 370.369007 487.184211 374.111392 483.441827 
C 377.853777 479.699442 379.956522 474.622966 379.956522 469.330435 
C 379.956522 464.037903 377.853777 458.961428 374.111392 455.219043 
C 370.369007 451.476658 365.292531 449.373913 360 449.373913 
C 354.707469 449.373913 349.630993 451.476658 345.888608 455.219043 
C 342.146223 458.961428 340.043478 464.037903 340.043478 469.330435 
C 340.043478 474.622966 342.146223 479.699442 345.888608 483.441827 
C 349.630993 487.184211 354.707469 489.286957 360 489.286957 
z
" clip-path="url(#p4c55c7aed7)" style="fill: #ff9900; stroke: #000000; stroke-width: 1.5; stroke-linejoin: miter"/>
   </g>
   <g id="patch_15">
    <path d="M 492.622414 425.419368 
C 497.914946 425.419368 502.991421 423.316623 506.733806 419.574238 
C 510.476191 415.831853 512.578936 410.755378 512.578936 405.462846 
C 512.578936 400.170315 510.476191 395.093839 506.733806 391.351454 
C 502.991421 387.609069 497.914946 385.506324 492.622414 385.506324 
C 487.329883 385.506324 482.253407 387.609069 478.511022 391.351454 
C 474.768638 395.093839 472.665893 400.170315 472.665893 405.462846 
C 472.665893 410.755378 474.768638 415.831853 478.511022 419.574238 
C 482.253407 423.316623 487.329883 425.419368 492.622414 425.419368 
z
" clip-path="url(#p4c55c7aed7)" style="fill: #ff9900; stroke: #000000; stroke-width: 1.5; stroke-linejoin: miter"/>
   </g>
   <g id="patch_16">
    <path d="M 525.377446 281.910199 
C 530.669977 281.910199 535.746453 279.807454 539.488837 276.065069 
C 543.231222 272.322684 545.333967 267.246209 545.333967 261.953677 
C 545.333967 256.661146 543.231222 251.58467 539.488837 247.842285 
C 535.746453 244.099901 530.669977 241.997155 525.377446 241.997155 
C 520.084914 241.997155 515.008439 244.099901 511.266054 247.842285 
C 507.523669 251.58467 505.420924 256.661146 505.420924 261.953677 
C 505.420924 267.246209 507.523669 272.322684 511.266054 276.065069 
C 515.008439 279.807454 520.084914 281.910199 525.377446 281.910199 
z
" clip-path="url(#p4c55c7aed7)" style="fill: #3366cc; stroke: #000000; stroke-width: 1.5; stroke-linejoin: miter"/>
   </g>
   <g id="text_10">
    <text style="font-weight: 700; font-size: 11px; font-family: 'Liberation Sans', 'Arimo', 'DejaVu Sans'; text-anchor: middle; fill: #ffffff" x="433.599887" y="145.723635" transform="rotate(-0 433.599887 145.723635)">HIS</text>
   </g>
   <g id="text_11">
    <text style="font-weight: 700; font-size: 9px; font-family: 'Liberation Sans', 'Arimo', 'DejaVu Sans'; text-anchor: middle; fill: #ffffff" x="433.599887" y="155.583448" transform="rotate(-0 433.599887 155.583448)">32</text>
   </g>
   <g id="text_12">
    <text style="font-weight: 700; font-size: 11px; font-family: 'Liberation Sans', 'Arimo', 'DejaVu Sans'; text-anchor: middle; fill: #ffffff" x="286.400113" y="145.723635" transform="rotate(-0 286.400113 145.723635)">LYS</text>
   </g>
   <g id="text_13">
    <text style="font-weight: 700; font-size: 9px; font-family: 'Liberation Sans', 'Arimo', 'DejaVu Sans'; text-anchor: middle; fill: #ffffff" x="286.400113" y="155.583448" transform="rotate(-0 286.400113 155.583448)">36</text>
   </g>
   <g id="text_14">
    <text style="font-weight: 700; font-size: 11px; font-family: 'Liberation Sans', 'Arimo', 'DejaVu Sans'; text-anchor: middle" x="194.622554" y="260.809053" transform="rotate(-0 194.622554 260.809053)">SER</text>
   </g>
   <g id="text_15">
    <text style="font-weight: 700; font-size: 9px; font-family: 'Liberation Sans', 'Arimo', 'DejaVu Sans'; text-anchor: middle" x="194.622554" y="270.668866" transform="rotate(-0 194.622554 270.668866)">64</text>
   </g>
   <g id="text_16">
    <text style="font-weight: 700; font-size: 11px; font-family: 'Liberation Sans', 'Arimo', 'DejaVu Sans'; text-anchor: middle; fill: #ffffff" x="227.377586" y="404.318222" transform="rotate(-0 227.377586 404.318222)">ASP</text>
   </g>
   <g id="text_17">
    <text style="font-weight: 700; font-size: 9px; font-family: 'Liberation Sans', 'Arimo', 'DejaVu Sans'; text-anchor: middle; fill: #ffffff" x="227.377586" y="414.178035" transform="rotate(-0 227.377586 414.178035)">90</text>
   </g>
   <g id="text_18">
    <text style="font-weight: 700; font-size: 11px; font-family: 'Liberation Sans', 'Arimo', 'DejaVu Sans'; text-anchor: middle" x="360" y="468.18581" transform="rotate(-0 360 468.18581)">GLN</text>
   </g>
   <g id="text_19">
    <text style="font-weight: 700; font-size: 9px; font-family: 'Liberation Sans', 'Arimo', 'DejaVu Sans'; text-anchor: middle" x="360" y="478.045623" transform="rotate(-0 360 478.045623)">94</text>
   </g>
   <g id="text_20">
    <text style="font-weight: 700; font-size: 11px; font-family: 'Liberation Sans', 'Arimo', 'DejaVu Sans'; text-anchor: middle" x="492.622414" y="404.318222" transform="rotate(-0 492.622414 404.318222)">ASN</text>
   </g>
   <g id="text_21">
    <text style="font-weight: 700; font-size: 9px; font-family: 'Liberation Sans', 'Arimo', 'DejaVu Sans'; text-anchor: middle" x="492.622414" y="414.178035" transform="rotate(-0 492.622414 414.178035)">315</text>
   </g>
   <g id="text_22">
    <text style="font-weight: 700; font-size: 11px; font-family: 'Liberation Sans', 'Arimo', 'DejaVu Sans'; text-anchor: middle; fill: #ffffff" x="525.377446" y="260.809053" transform="rotate(-0 525.377446 260.809053)">ARG</text>
   </g>
   <g id="text_23">
    <text style="font-weight: 700; font-size: 9px; font-family: 'Liberation Sans', 'Arimo', 'DejaVu Sans'; text-anchor: middle; fill: #ffffff" x="525.377446" y="270.668866" transform="rotate(-0 525.377446 270.668866)">343</text>
   </g>
  </g>
  <g id="text_24">
   <text style="font-weight: 700; font-size: 15px; font-family: 'Liberation Sans', 'Arimo', 'DejaVu Sans'; text-anchor: middle" x="360" y="32.52041" transform="rotate(-0 360 32.52041)">NEG_9S19_WT_HRO761</text>
  </g>
  <g id="text_25">
   <text style="font-style: italic; font-size: 12px; font-family: 'Liberation Sans', 'Arimo', 'DejaVu Sans'; text-anchor: middle; fill: #555555" x="360" y="51.936328" transform="rotate(-0 360 51.936328)">4 H-bond · 3 Hydrophobic  |  7 residues</text>
  </g>
 </g>
 <defs>
  <clipPath id="p4c55c7aed7">
   <rect x="130.5" y="70.2" width="459" height="459"/>
  </clipPath>
 </defs>
</svg>
