<?xml version="1.0" encoding="utf-8" standalone="no"?>
<!DOCTYPE svg PUBLIC "-//W3C//DTD SVG 1.1//EN"
  "http://www.w3.org/Graphics/SVG/1.1/DTD/svg11.dtd">
<svg xmlns:xlink="http://www.w3.org/1999/xlink" width="720pt" height="540pt" viewBox="0 0 720 540" xmlns="http://www.w3.org/2000/svg" version="1.1">
 <metadata>
  <rdf:RDF xmlns:dc="http://purl.org/dc/elements/1.1/" xmlns:cc="http://creativecommons.org/ns#" xmlns:rdf="http://www.w3.org/1999/02/22-rdf-syntax-ns#">
   <cc:Work>
    <dc:type rdf:resource="http://purl.org/dc/dcmitype/StillImage"/>
    <dc:date>2022-01-01T05:00:00+00:00</dc:date>
    <dc:format>image/svg+xml</dc:format>
    <dc:creator>
     <cc:Agent>
      <dc:title>Matplotlib v3.11.0, https://matplotlib.org/</dc:title>
     </cc:Agent>
    </dc:creator>
   </cc:Work>
  </rdf:RDF>
 </metadata>
 <defs>
  <style type="text/css">*{stroke-linejoin: round; stroke-linecap: butt}</style>
 </defs>
 <g id="figure_1">
  <g id="patch_1">
   <path d="M 0 540 
L 720 540 
L 720 0 
L 0 0 
z
" style="fill: #ffffff"/>
  </g>
  <g id="axes_1">
   <g id="line2d_1">
    <path d="M 398.022281 277.747826 
L 489.621411 224.863043 
" clip-path="url(#p1fcd3b2b10)" style="fill: none; stroke-dasharray: 2.2,3.63; stroke-dashoffset: 0; stroke: #75a025; stroke-width: 2.2"/>
   </g>
   <g id="line2d_2">
    <path d="M 321.977719 277.747826 
L 230.378589 224.863043 
" clip-path="url(#p1fcd3b2b10)" style="fill: none; stroke: #0279ee; stroke-width: 2.2; stroke-linecap: square"/>
   </g>
   <g id="line2d_3">
    <path d="M 321.179459 279.130454 
L 229.580328 226.245672 
" clip-path="url(#p1fcd3b2b10)" style="fill: none; stroke-dasharray: 8.14,3.52; stroke-dashoffset: 0; stroke: #8b4513; stroke-width: 2.2"/>
   </g>
   <g id="line2d_4">
    <path d="M 360 321.652174 
L 360 449.373913 
" clip-path="url(#p1fcd3b2b10)" style="fill: none; stroke-dasharray: 2.2,3.63; stroke-dashoffset: 0; stroke: #75a025; stroke-width: 2.2"/>
   </g>
   <g id="text_1">
    <g id="patch_2">
     <path d="M 426.33299 263.364449 
L 438.84299 263.364449 
Q 440.19299 263.364449 440.19299 262.014449 
L 440.19299 253.56816 
Q 440.19299 252.21816 438.84299 252.21816 
L 426.33299 252.21816 
Q 424.98299 252.21816 424.98299 253.56816 
L 424.98299 262.014449 
Q 424.98299 263.364449 426.33299 263.364449 
z
" style="fill: #ffffff; opacity: 0.9"/>
    </g>
    <text style="font-size: 9px; font-family: 'Liberation Sans', 'Arimo', 'DejaVu Sans'; text-anchor: middle" x="432.58799" y="260.120406" transform="rotate(-0 432.58799 260.120406)">3.8</text>
   </g>
   <g id="text_2">
    <g id="patch_3">
     <path d="M 281.15701 263.364449 
L 293.66701 263.364449 
Q 295.01701 263.364449 295.01701 262.014449 
L 295.01701 253.56816 
Q 295.01701 252.21816 293.66701 252.21816 
L 281.15701 252.21816 
Q 279.80701 252.21816 279.80701 253.56816 
L 279.80701 262.014449 
Q 279.80701 263.364449 281.15701 263.364449 
z
" style="fill: #ffffff; opacity: 0.9"/>
    </g>
    <text style="font-size: 9px; font-family: 'Liberation Sans', 'Arimo', 'DejaVu Sans'; text-anchor: middle" x="287.41201" y="260.120406" transform="rotate(-0 287.41201 260.120406)">3.0</text>
   </g>
   <g id="text_3">
    <g id="patch_4">
     <path d="M 353.745 389.090536 
L 366.255 389.090536 
Q 367.605 389.090536 367.605 387.740536 
L 367.605 379.294247 
Q 367.605 377.944247 366.255 377.944247 
L 353.745 377.944247 
Q 352.395 377.944247 352.395 379.294247 
L 352.395 387.740536 
Q 352.395 389.090536 353.745 389.090536 
z
" style="fill: #ffffff; opacity: 0.9"/>
    </g>
    <text style="font-size: 9px; font-family: 'Liberation Sans', 'Arimo', 'DejaVu Sans'; text-anchor: middle" x="360" y="385.846493" transform="rotate(-0 360 385.846493)">3.5</text>
   </g>
   <g id="patch_5">
    <path d="M 322.082609 325.643478 
L 397.917391 325.643478 
Q 405.9 325.643478 405.9 317.66087 
L 405.9 281.73913 
Q 405.9 273.756522 397.917391 273.756522 
L 322.082609 273.756522 
Q 314.1 273.756522 314.1 281.73913 
L 314.1 317.66087 
Q 314.1 325.643478 322.082609 325.643478 
z
" clip-path="url(#p1fcd3b2b10)" style="fill: #faf9f3; stroke: #000000; stroke-width: 2.5; stroke-linejoin: miter"/>
   </g>
   <g id="text_4">
    <text style="font-weight: 700; font-size: 16px; font-family: 'Liberation Sans', 'Arimo', 'DejaVu Sans'; text-anchor: middle" x="360" y="299.849321" transform="rotate(-0 360 299.849321)">VVD-214</text>
   </g>
   <g id="text_5">
    <text style="font-style: italic; font-size: 11px; font-family: 'Liberation Sans', 'Arimo', 'DejaVu Sans'; text-anchor: middle; fill: #555555" x="360" y="316.532358" transform="rotate(-0 360 316.532358)">(9S18)</text>
   </g>
   <g id="patch_6">
    <path d="M 506.904266 234.841304 
C 512.196797 234.841304 517.273273 232.738559 521.015658 228.996174 
C 524.758042 225.25379 526.860788 220.177314 526.860788 214.884783 
C 526.860788 209.592251 524.758042 204.515776 521.015658 200.773391 
C 517.273273 197.031006 512.196797 194.928261 506.904266 194.928261 
C 501.611734 194.928261 496.535259 197.031006 492.792874 200.773391 
C 489.050489 204.515776 486.947744 209.592251 486.947744 214.884783 
C 486.947744 220.177314 489.050489 225.25379 492.792874 228.996174 
C 496.535259 232.738559 501.611734 234.841304 506.904266 234.841304 
z
" clip-path="url(#p1fcd3b2b10)" style="fill: #66aa00; stroke: #000000; stroke-width: 1.5; stroke-linejoin: miter"/>
   </g>
   <g id="patch_7">
    <path d="M 213.095734 234.841304 
C 218.388266 234.841304 223.464741 232.738559 227.207126 228.996174 
C 230.949511 225.25379 233.052256 220.177314 233.052256 214.884783 
C 233.052256 209.592251 230.949511 204.515776 227.207126 200.773391 
C 223.464741 197.031006 218.388266 194.928261 213.095734 194.928261 
C 207.803203 194.928261 202.726727 197.031006 198.984342 200.773391 
C 195.241958 204.515776 193.139212 209.592251 193.139212 214.884783 
C 193.139212 220.177314 195.241958 225.25379 198.984342 228.996174 
C 202.726727 232.738559 207.803203 234.841304 213.095734 234.841304 
z
" clip-path="url(#p1fcd3b2b10)" style="fill: #3366cc; stroke: #000000; stroke-width: 1.5; stroke-linejoin: miter"/>
   </g>
   <g id="patch_8">
    <path d="M 360 489.286957 
C 365.292531 489.286957 370.369007 487.184211 374.111392 483.441827 
C 377.853777 479.699442 379.956522 474.622966 379.956522 469.330435 
C 379.956522 464.037903 377.853777 458.961428 374.111392 455.219043 
C 370.369007 451.476658 365.292531 449.373913 360 449.373913 
C 354.707469 449.373913 349.630993 451.476658 345.888608 455.219043 
C 342.146223 458.961428 340.043478 464.037903 340.043478 469.330435 
C 340.043478 474.622966 342.146223 479.699442 345.888608 483.441827 
C 349.630993 487.184211 354.707469 489.286957 360 489.286957 
z
" clip-path="url(#p1fcd3b2b10)" style="fill: #3366cc; stroke: #000000; stroke-width: 1.5; stroke-linejoin: miter"/>
   </g>
   <g id="text_6">
    <text style="font-weight: 700; font-size: 11px; font-family: 'Liberation Sans', 'Arimo', 'DejaVu Sans'; text-anchor: middle" x="506.904266" y="213.740158" transform="rotate(-0 506.904266 213.740158)">ILE</text>
   </g>
   <g id="text_7">
    <text style="font-weight: 700; font-size: 9px; font-family: 'Liberation Sans', 'Arimo', 'DejaVu Sans'; text-anchor: middle" x="506.904266" y="223.599971" transform="rotate(-0 506.904266 223.599971)">725</text>
   </g>
   <g id="text_8">
    <text style="font-weight: 700; font-size: 11px; font-family: 'Liberation Sans', 'Arimo', 'DejaVu Sans'; text-anchor: middle; fill: #ffffff" x="213.095734" y="213.740158" transform="rotate(-0 213.095734 213.740158)">ARG</text>
   </g>
   <g id="text_9">
    <text style="font-weight: 700; font-size: 9px; font-family: 'Liberation Sans', 'Arimo', 'DejaVu Sans'; text-anchor: middle; fill: #ffffff" x="213.095734" y="223.599971" transform="rotate(-0 213.095734 223.599971)">732</text>
   </g>
   <g id="text_10">
    <text style="font-weight: 700; font-size: 11px; font-family: 'Liberation Sans', 'Arimo', 'DejaVu Sans'; text-anchor: middle; fill: #ffffff" x="360" y="468.18581" transform="rotate(-0 360 468.18581)">ARG</text>
   </g>
   <g id="text_11">
    <text style="font-weight: 700; font-size: 9px; font-family: 'Liberation Sans', 'Arimo', 'DejaVu Sans'; text-anchor: middle; fill: #ffffff" x="360" y="478.045623" transform="rotate(-0 360 478.045623)">857</text>
   </g>
  </g>
  <g id="text_12">
   <text style="font-weight: 700; font-size: 15px; font-family: 'Liberation Sans', 'Arimo', 'DejaVu Sans'; text-anchor: middle" x="360" y="32.52041" transform="rotate(-0 360 32.52041)">WT_9S18_VVD-214  [score=-8.20, reference-wt]</text>
  </g>
  <g id="text_13">
   <text style="font-style: italic; font-size: 12px; font-family: 'Liberation Sans', 'Arimo', 'DejaVu Sans'; text-anchor: middle; fill: #555555" x="360" y="51.936328" transform="rotate(-0 360 51.936328)">1 H-bond · 2 Hydrophobic · 1 Halogen  |  3 residues</text>
  </g>
 </g>
 <defs>
  <clipPath id="p1fcd3b2b10">
   <rect x="130.5" y="70.2" width="459" height="459"/>
  </clipPath>
 </defs>
</svg>
