<?xml version="1.0" encoding="utf-8" standalone="no"?>
<!DOCTYPE svg PUBLIC "-//W3C//DTD SVG 1.1//EN"
  "http://www.w3.org/Graphics/SVG/1.1/DTD/svg11.dtd">
<svg xmlns:xlink="http://www.w3.org/1999/xlink" width="856.3pt" height="370.8pt" viewBox="0 0 856.3 370.8" xmlns="http://www.w3.org/2000/svg" version="1.1">
 <metadata>
  <rdf:RDF xmlns:dc="http://purl.org/dc/elements/1.1/" xmlns:cc="http://creativecommons.org/ns#" xmlns:rdf="http://www.w3.org/1999/02/22-rdf-syntax-ns#">
   <cc:Work>
    <dc:type rdf:resource="http://purl.org/dc/dcmitype/StillImage"/>
    <dc:date>2022-01-01T05:00:00+00:00</dc:date>
    <dc:format>image/svg+xml</dc:format>
    <dc:creator>
     <cc:Agent>
      <dc:title>Matplotlib v3.11.0, https://matplotlib.org/</dc:title>
     </cc:Agent>
    </dc:creator>
   </cc:Work>
  </rdf:RDF>
 </metadata>
 <defs>
  <style type="text/css">*{stroke-linejoin: round; stroke-linecap: butt}</style>
 </defs>
 <g id="figure_1">
  <g id="patch_1">
   <path d="M 0 370.8 
L 856.3 370.8 
L 856.3 0 
L 0 0 
z
" style="fill: #ffffff"/>
  </g>
  <g id="axes_1">
   <g id="patch_2">
    <path d="M 42.423242 347.215234 
L 426.82 347.215234 
L 426.82 63.808711 
L 42.423242 63.808711 
z
" style="fill: #ffffff"/>
   </g>
   <g id="patch_3">
    <path d="M 59.895822 347.215234 
L 96.405691 347.215234 
L 96.405691 284.236007 
L 59.895822 284.236007 
z
" clip-path="url(#p1e71a06d37)" style="fill: #ff9400"/>
   </g>
   <g id="patch_4">
    <path d="M 112.052777 347.215234 
L 148.562645 347.215234 
L 148.562645 221.25678 
L 112.052777 221.25678 
z
" clip-path="url(#p1e71a06d37)" style="fill: #ff9400"/>
   </g>
   <g id="patch_5">
    <path d="M 164.209732 347.215234 
L 200.7196 347.215234 
L 200.7196 221.25678 
L 164.209732 221.25678 
z
" clip-path="url(#p1e71a06d37)" style="fill: #ff9400"/>
   </g>
   <g id="patch_6">
    <path d="M 216.366687 347.215234 
L 252.876555 347.215234 
L 252.876555 221.25678 
L 216.366687 221.25678 
z
" clip-path="url(#p1e71a06d37)" style="fill: #ff9400"/>
   </g>
   <g id="patch_7">
    <path d="M 268.523642 347.215234 
L 305.03351 347.215234 
L 305.03351 221.25678 
L 268.523642 221.25678 
z
" clip-path="url(#p1e71a06d37)" style="fill: #ff9400"/>
   </g>
   <g id="patch_8">
    <path d="M 320.680597 347.215234 
L 357.190465 347.215234 
L 357.190465 347.215234 
L 320.680597 347.215234 
z
" clip-path="url(#p1e71a06d37)" style="fill: #ff9400"/>
   </g>
   <g id="patch_9">
    <path d="M 372.837552 347.215234 
L 409.34742 347.215234 
L 409.34742 347.215234 
L 372.837552 347.215234 
z
" clip-path="url(#p1e71a06d37)" style="fill: #ff9400"/>
   </g>
   <g id="patch_10">
    <path d="M 59.895822 284.236007 
L 96.405691 284.236007 
L 96.405691 158.277552 
L 59.895822 158.277552 
z
" clip-path="url(#p1e71a06d37)" style="fill: #75a025"/>
   </g>
   <g id="patch_11">
    <path d="M 112.052777 221.25678 
L 148.562645 221.25678 
L 148.562645 158.277552 
L 112.052777 158.277552 
z
" clip-path="url(#p1e71a06d37)" style="fill: #75a025"/>
   </g>
   <g id="patch_12">
    <path d="M 164.209732 221.25678 
L 200.7196 221.25678 
L 200.7196 158.277552 
L 164.209732 158.277552 
z
" clip-path="url(#p1e71a06d37)" style="fill: #75a025"/>
   </g>
   <g id="patch_13">
    <path d="M 216.366687 221.25678 
L 252.876555 221.25678 
L 252.876555 158.277552 
L 216.366687 158.277552 
z
" clip-path="url(#p1e71a06d37)" style="fill: #75a025"/>
   </g>
   <g id="patch_14">
    <path d="M 268.523642 221.25678 
L 305.03351 221.25678 
L 305.03351 158.277552 
L 268.523642 158.277552 
z
" clip-path="url(#p1e71a06d37)" style="fill: #75a025"/>
   </g>
   <g id="patch_15">
    <path d="M 320.680597 347.215234 
L 357.190465 347.215234 
L 357.190465 158.277552 
L 320.680597 158.277552 
z
" clip-path="url(#p1e71a06d37)" style="fill: #75a025"/>
   </g>
   <g id="patch_16">
    <path d="M 372.837552 347.215234 
L 409.34742 347.215234 
L 409.34742 158.277552 
L 372.837552 158.277552 
z
" clip-path="url(#p1e71a06d37)" style="fill: #75a025"/>
   </g>
   <g id="patch_17">
    <path d="M 59.895822 158.277552 
L 96.405691 158.277552 
L 96.405691 158.277552 
L 59.895822 158.277552 
z
" clip-path="url(#p1e71a06d37)" style="fill: #0279ee"/>
   </g>
   <g id="patch_18">
    <path d="M 112.052777 158.277552 
L 148.562645 158.277552 
L 148.562645 158.277552 
L 112.052777 158.277552 
z
" clip-path="url(#p1e71a06d37)" style="fill: #0279ee"/>
   </g>
   <g id="patch_19">
    <path d="M 164.209732 158.277552 
L 200.7196 158.277552 
L 200.7196 158.277552 
L 164.209732 158.277552 
z
" clip-path="url(#p1e71a06d37)" style="fill: #0279ee"/>
   </g>
   <g id="patch_20">
    <path d="M 216.366687 158.277552 
L 252.876555 158.277552 
L 252.876555 158.277552 
L 216.366687 158.277552 
z
" clip-path="url(#p1e71a06d37)" style="fill: #0279ee"/>
   </g>
   <g id="patch_21">
    <path d="M 268.523642 158.277552 
L 305.03351 158.277552 
L 305.03351 158.277552 
L 268.523642 158.277552 
z
" clip-path="url(#p1e71a06d37)" style="fill: #0279ee"/>
   </g>
   <g id="patch_22">
    <path d="M 320.680597 158.277552 
L 357.190465 158.277552 
L 357.190465 158.277552 
L 320.680597 158.277552 
z
" clip-path="url(#p1e71a06d37)" style="fill: #0279ee"/>
   </g>
   <g id="patch_23">
    <path d="M 372.837552 158.277552 
L 409.34742 158.277552 
L 409.34742 158.277552 
L 372.837552 158.277552 
z
" clip-path="url(#p1e71a06d37)" style="fill: #0279ee"/>
   </g>
   <g id="matplotlib.axis_1">
    <g id="xtick_1">
     <g id="line2d_1">
      <defs>
       <path id="m4556ac41ce" d="M 0 0 
L 0 3.5 
" style="stroke: #000000; stroke-width: 0.8"/>
      </defs>
      <g>
       <use xlink:href="#m4556ac41ce" x="78.150756" y="347.215234" style="stroke: #000000; stroke-width: 0.8"/>
      </g>
     </g>
     <g id="text_1">
      <text style="font-size: 10px; font-family: 'Liberation Sans', 'Arimo', 'DejaVu Sans'; text-anchor: middle" x="78.150756" y="361.495508" transform="rotate(-0 78.150756 361.495508)">L528S</text>
     </g>
    </g>
    <g id="xtick_2">
     <g id="line2d_2">
      <g>
       <use xlink:href="#m4556ac41ce" x="130.307711" y="347.215234" style="stroke: #000000; stroke-width: 0.8"/>
      </g>
     </g>
     <g id="text_2">
      <text style="font-size: 10px; font-family: 'Liberation Sans', 'Arimo', 'DejaVu Sans'; text-anchor: middle" x="130.307711" y="361.495508" transform="rotate(-0 130.307711 361.495508)">C727A</text>
     </g>
    </g>
    <g id="xtick_3">
     <g id="line2d_3">
      <g>
       <use xlink:href="#m4556ac41ce" x="182.464666" y="347.215234" style="stroke: #000000; stroke-width: 0.8"/>
      </g>
     </g>
     <g id="text_3">
      <text style="font-size: 10px; font-family: 'Liberation Sans', 'Arimo', 'DejaVu Sans'; text-anchor: middle" x="182.464666" y="361.495508" transform="rotate(-0 182.464666 361.495508)">C727S</text>
     </g>
    </g>
    <g id="xtick_4">
     <g id="line2d_4">
      <g>
       <use xlink:href="#m4556ac41ce" x="234.621621" y="347.215234" style="stroke: #000000; stroke-width: 0.8"/>
      </g>
     </g>
     <g id="text_4">
      <text style="font-size: 10px; font-family: 'Liberation Sans', 'Arimo', 'DejaVu Sans'; text-anchor: middle" x="234.621621" y="361.495508" transform="rotate(-0 234.621621 361.495508)">C727R</text>
     </g>
    </g>
    <g id="xtick_5">
     <g id="line2d_5">
      <g>
       <use xlink:href="#m4556ac41ce" x="286.778576" y="347.215234" style="stroke: #000000; stroke-width: 0.8"/>
      </g>
     </g>
     <g id="text_5">
      <text style="font-size: 10px; font-family: 'Liberation Sans', 'Arimo', 'DejaVu Sans'; text-anchor: middle" x="286.778576" y="361.495508" transform="rotate(-0 286.778576 361.495508)">G729D</text>
     </g>
    </g>
    <g id="xtick_6">
     <g id="line2d_6">
      <g>
       <use xlink:href="#m4556ac41ce" x="338.935531" y="347.215234" style="stroke: #000000; stroke-width: 0.8"/>
      </g>
     </g>
     <g id="text_6">
      <text style="font-size: 10px; font-family: 'Liberation Sans', 'Arimo', 'DejaVu Sans'; text-anchor: middle" x="338.935531" y="361.495508" transform="rotate(-0 338.935531 361.495508)">F730L</text>
     </g>
    </g>
    <g id="xtick_7">
     <g id="line2d_7">
      <g>
       <use xlink:href="#m4556ac41ce" x="391.092486" y="347.215234" style="stroke: #000000; stroke-width: 0.8"/>
      </g>
     </g>
     <g id="text_7">
      <text style="font-size: 10px; font-family: 'Liberation Sans', 'Arimo', 'DejaVu Sans'; text-anchor: middle" x="391.092486" y="361.495508" transform="rotate(-0 391.092486 361.495508)">I852F</text>
     </g>
    </g>
   </g>
   <g id="matplotlib.axis_2">
    <g id="ytick_1">
     <g id="line2d_8">
      <defs>
       <path id="m31f2a0c238" d="M 0 0 
L -3.5 0 
" style="stroke: #000000; stroke-width: 0.8"/>
      </defs>
      <g>
       <use xlink:href="#m31f2a0c238" x="42.423242" y="347.215234" style="stroke: #000000; stroke-width: 0.8"/>
      </g>
     </g>
     <g id="text_8">
      <text style="font-size: 10px; font-family: 'Liberation Sans', 'Arimo', 'DejaVu Sans'; text-anchor: end" x="35.423242" y="350.855371" transform="rotate(-0 35.423242 350.855371)">0.0</text>
     </g>
    </g>
    <g id="ytick_2">
     <g id="line2d_9">
      <g>
       <use xlink:href="#m31f2a0c238" x="42.423242" y="315.725621" style="stroke: #000000; stroke-width: 0.8"/>
      </g>
     </g>
     <g id="text_9">
      <text style="font-size: 10px; font-family: 'Liberation Sans', 'Arimo', 'DejaVu Sans'; text-anchor: end" x="35.423242" y="319.365757" transform="rotate(-0 35.423242 319.365757)">0.5</text>
     </g>
    </g>
    <g id="ytick_3">
     <g id="line2d_10">
      <g>
       <use xlink:href="#m31f2a0c238" x="42.423242" y="284.236007" style="stroke: #000000; stroke-width: 0.8"/>
      </g>
     </g>
     <g id="text_10">
      <text style="font-size: 10px; font-family: 'Liberation Sans', 'Arimo', 'DejaVu Sans'; text-anchor: end" x="35.423242" y="287.876144" transform="rotate(-0 35.423242 287.876144)">1.0</text>
     </g>
    </g>
    <g id="ytick_4">
     <g id="line2d_11">
      <g>
       <use xlink:href="#m31f2a0c238" x="42.423242" y="252.746393" style="stroke: #000000; stroke-width: 0.8"/>
      </g>
     </g>
     <g id="text_11">
      <text style="font-size: 10px; font-family: 'Liberation Sans', 'Arimo', 'DejaVu Sans'; text-anchor: end" x="35.423242" y="256.38653" transform="rotate(-0 35.423242 256.38653)">1.5</text>
     </g>
    </g>
    <g id="ytick_5">
     <g id="line2d_12">
      <g>
       <use xlink:href="#m31f2a0c238" x="42.423242" y="221.25678" style="stroke: #000000; stroke-width: 0.8"/>
      </g>
     </g>
     <g id="text_12">
      <text style="font-size: 10px; font-family: 'Liberation Sans', 'Arimo', 'DejaVu Sans'; text-anchor: end" x="35.423242" y="224.896916" transform="rotate(-0 35.423242 224.896916)">2.0</text>
     </g>
    </g>
    <g id="ytick_6">
     <g id="line2d_13">
      <g>
       <use xlink:href="#m31f2a0c238" x="42.423242" y="189.767166" style="stroke: #000000; stroke-width: 0.8"/>
      </g>
     </g>
     <g id="text_13">
      <text style="font-size: 10px; font-family: 'Liberation Sans', 'Arimo', 'DejaVu Sans'; text-anchor: end" x="35.423242" y="193.407303" transform="rotate(-0 35.423242 193.407303)">2.5</text>
     </g>
    </g>
    <g id="ytick_7">
     <g id="line2d_14">
      <g>
       <use xlink:href="#m31f2a0c238" x="42.423242" y="158.277552" style="stroke: #000000; stroke-width: 0.8"/>
      </g>
     </g>
     <g id="text_14">
      <text style="font-size: 10px; font-family: 'Liberation Sans', 'Arimo', 'DejaVu Sans'; text-anchor: end" x="35.423242" y="161.917689" transform="rotate(-0 35.423242 161.917689)">3.0</text>
     </g>
    </g>
    <g id="ytick_8">
     <g id="line2d_15">
      <g>
       <use xlink:href="#m31f2a0c238" x="42.423242" y="126.787938" style="stroke: #000000; stroke-width: 0.8"/>
      </g>
     </g>
     <g id="text_15">
      <text style="font-size: 10px; font-family: 'Liberation Sans', 'Arimo', 'DejaVu Sans'; text-anchor: end" x="35.423242" y="130.428075" transform="rotate(-0 35.423242 130.428075)">3.5</text>
     </g>
    </g>
    <g id="ytick_9">
     <g id="line2d_16">
      <g>
       <use xlink:href="#m31f2a0c238" x="42.423242" y="95.298325" style="stroke: #000000; stroke-width: 0.8"/>
      </g>
     </g>
     <g id="text_16">
      <text style="font-size: 10px; font-family: 'Liberation Sans', 'Arimo', 'DejaVu Sans'; text-anchor: end" x="35.423242" y="98.938461" transform="rotate(-0 35.423242 98.938461)">4.0</text>
     </g>
    </g>
    <g id="ytick_10">
     <g id="line2d_17">
      <g>
       <use xlink:href="#m31f2a0c238" x="42.423242" y="63.808711" style="stroke: #000000; stroke-width: 0.8"/>
      </g>
     </g>
     <g id="text_17">
      <text style="font-size: 10px; font-family: 'Liberation Sans', 'Arimo', 'DejaVu Sans'; text-anchor: end" x="35.423242" y="67.448848" transform="rotate(-0 35.423242 67.448848)">4.5</text>
     </g>
    </g>
    <g id="text_18">
     <text style="font-size: 11px; font-family: 'Liberation Sans', 'Arimo', 'DejaVu Sans'; text-anchor: middle" x="15.208301" y="205.511973" transform="rotate(-90 15.208301 205.511973)">Number of state × mode dockings</text>
    </g>
   </g>
   <g id="patch_24">
    <path d="M 42.423242 347.215234 
L 42.423242 63.808711 
" style="fill: none; stroke: #000000; stroke-width: 0.8; stroke-linejoin: miter; stroke-linecap: square"/>
   </g>
   <g id="patch_25">
    <path d="M 42.423242 347.215234 
L 426.82 347.215234 
" style="fill: none; stroke: #000000; stroke-width: 0.8; stroke-linejoin: miter; stroke-linecap: square"/>
   </g>
   <g id="text_19">
    <text style="font-size: 9px; font-family: 'Liberation Sans', 'Arimo', 'DejaVu Sans'; text-anchor: middle" x="78.150756" y="146.936625" transform="rotate(-0 78.150756 146.936625)">n=3</text>
   </g>
   <g id="text_20">
    <text style="font-size: 9px; font-family: 'Liberation Sans', 'Arimo', 'DejaVu Sans'; text-anchor: middle" x="130.307711" y="146.936625" transform="rotate(-0 130.307711 146.936625)">n=3</text>
   </g>
   <g id="text_21">
    <text style="font-size: 9px; font-family: 'Liberation Sans', 'Arimo', 'DejaVu Sans'; text-anchor: middle" x="182.464666" y="146.936625" transform="rotate(-0 182.464666 146.936625)">n=3</text>
   </g>
   <g id="text_22">
    <text style="font-size: 9px; font-family: 'Liberation Sans', 'Arimo', 'DejaVu Sans'; text-anchor: middle" x="234.621621" y="146.936625" transform="rotate(-0 234.621621 146.936625)">n=3</text>
   </g>
   <g id="text_23">
    <text style="font-size: 9px; font-family: 'Liberation Sans', 'Arimo', 'DejaVu Sans'; text-anchor: middle" x="286.778576" y="146.936625" transform="rotate(-0 286.778576 146.936625)">n=3</text>
   </g>
   <g id="text_24">
    <text style="font-size: 9px; font-family: 'Liberation Sans', 'Arimo', 'DejaVu Sans'; text-anchor: middle" x="338.935531" y="146.936625" transform="rotate(-0 338.935531 146.936625)">n=3</text>
   </g>
   <g id="text_25">
    <text style="font-size: 9px; font-family: 'Liberation Sans', 'Arimo', 'DejaVu Sans'; text-anchor: middle" x="391.092486" y="146.936625" transform="rotate(-0 391.092486 146.936625)">n=3</text>
   </g>
   <g id="text_26">
    <text style="font-weight: 700; font-size: 13px; font-family: 'Liberation Sans', 'Arimo', 'DejaVu Sans'; text-anchor: middle" x="234.621621" y="57.808711" transform="rotate(-0 234.621621 57.808711)">HRO761</text>
   </g>
   <g id="legend_1">
    <g id="patch_26">
     <path d="M 48.723242 109.847578 
L 147.058086 109.847578 
Q 148.858086 109.847578 148.858086 108.047578 
L 148.858086 70.108711 
Q 148.858086 68.308711 147.058086 68.308711 
L 48.723242 68.308711 
Q 46.923242 68.308711 46.923242 70.108711 
L 46.923242 108.047578 
Q 46.923242 109.847578 48.723242 109.847578 
z
" style="fill: #ffffff; opacity: 0.8; stroke: #cccccc; stroke-linejoin: miter"/>
    </g>
    <g id="patch_27">
     <path d="M 50.523242 78.460957 
L 68.523242 78.460957 
L 68.523242 72.160957 
L 50.523242 72.160957 
z
" style="fill: #ff9400"/>
    </g>
    <g id="text_27">
     <text style="font-size: 9px; font-family: 'Liberation Sans', 'Arimo', 'DejaVu Sans'; text-anchor: start" x="75.723242" y="78.460957" transform="rotate(-0 75.723242 78.460957)">Resistance</text>
    </g>
    <g id="patch_28">
     <path d="M 50.523242 91.407246 
L 68.523242 91.407246 
L 68.523242 85.107246 
L 50.523242 85.107246 
z
" style="fill: #75a025"/>
    </g>
    <g id="text_28">
     <text style="font-size: 9px; font-family: 'Liberation Sans', 'Arimo', 'DejaVu Sans'; text-anchor: start" x="75.723242" y="91.407246" transform="rotate(-0 75.723242 91.407246)">Neutral</text>
    </g>
    <g id="patch_29">
     <path d="M 50.523242 104.353535 
L 68.523242 104.353535 
L 68.523242 98.053535 
L 50.523242 98.053535 
z
" style="fill: #0279ee"/>
    </g>
    <g id="text_29">
     <text style="font-size: 9px; font-family: 'Liberation Sans', 'Arimo', 'DejaVu Sans'; text-anchor: start" x="75.723242" y="104.353535" transform="rotate(-0 75.723242 104.353535)">Covalent-blocked</text>
    </g>
   </g>
  </g>
  <g id="axes_2">
   <g id="patch_30">
    <path d="M 464.703242 347.215234 
L 849.1 347.215234 
L 849.1 63.808711 
L 464.703242 63.808711 
z
" style="fill: #ffffff"/>
   </g>
   <g id="patch_31">
    <path d="M 482.175822 347.215234 
L 518.685691 347.215234 
L 518.685691 309.427698 
L 482.175822 309.427698 
z
" clip-path="url(#p02d5ac785d)" style="fill: #ff9400"/>
   </g>
   <g id="patch_32">
    <path d="M 534.332777 347.215234 
L 570.842645 347.215234 
L 570.842645 271.640161 
L 534.332777 271.640161 
z
" clip-path="url(#p02d5ac785d)" style="fill: #ff9400"/>
   </g>
   <g id="patch_33">
    <path d="M 586.489732 347.215234 
L 622.9996 347.215234 
L 622.9996 271.640161 
L 586.489732 271.640161 
z
" clip-path="url(#p02d5ac785d)" style="fill: #ff9400"/>
   </g>
   <g id="patch_34">
    <path d="M 638.646687 347.215234 
L 675.156555 347.215234 
L 675.156555 196.065089 
L 638.646687 196.065089 
z
" clip-path="url(#p02d5ac785d)" style="fill: #ff9400"/>
   </g>
   <g id="patch_35">
    <path d="M 690.803642 347.215234 
L 727.31351 347.215234 
L 727.31351 271.640161 
L 690.803642 271.640161 
z
" clip-path="url(#p02d5ac785d)" style="fill: #ff9400"/>
   </g>
   <g id="patch_36">
    <path d="M 742.960597 347.215234 
L 779.470465 347.215234 
L 779.470465 309.427698 
L 742.960597 309.427698 
z
" clip-path="url(#p02d5ac785d)" style="fill: #ff9400"/>
   </g>
   <g id="patch_37">
    <path d="M 795.117552 347.215234 
L 831.62742 347.215234 
L 831.62742 347.215234 
L 795.117552 347.215234 
z
" clip-path="url(#p02d5ac785d)" style="fill: #ff9400"/>
   </g>
   <g id="patch_38">
    <path d="M 482.175822 309.427698 
L 518.685691 309.427698 
L 518.685691 120.490016 
L 482.175822 120.490016 
z
" clip-path="url(#p02d5ac785d)" style="fill: #75a025"/>
   </g>
   <g id="patch_39">
    <path d="M 534.332777 271.640161 
L 570.842645 271.640161 
L 570.842645 233.852625 
L 534.332777 233.852625 
z
" clip-path="url(#p02d5ac785d)" style="fill: #75a025"/>
   </g>
   <g id="patch_40">
    <path d="M 586.489732 271.640161 
L 622.9996 271.640161 
L 622.9996 233.852625 
L 586.489732 233.852625 
z
" clip-path="url(#p02d5ac785d)" style="fill: #75a025"/>
   </g>
   <g id="patch_41">
    <path d="M 638.646687 196.065089 
L 675.156555 196.065089 
L 675.156555 120.490016 
L 638.646687 120.490016 
z
" clip-path="url(#p02d5ac785d)" style="fill: #75a025"/>
   </g>
   <g id="patch_42">
    <path d="M 690.803642 271.640161 
L 727.31351 271.640161 
L 727.31351 120.490016 
L 690.803642 120.490016 
z
" clip-path="url(#p02d5ac785d)" style="fill: #75a025"/>
   </g>
   <g id="patch_43">
    <path d="M 742.960597 309.427698 
L 779.470465 309.427698 
L 779.470465 120.490016 
L 742.960597 120.490016 
z
" clip-path="url(#p02d5ac785d)" style="fill: #75a025"/>
   </g>
   <g id="patch_44">
    <path d="M 795.117552 347.215234 
L 831.62742 347.215234 
L 831.62742 120.490016 
L 795.117552 120.490016 
z
" clip-path="url(#p02d5ac785d)" style="fill: #75a025"/>
   </g>
   <g id="patch_45">
    <path d="M 482.175822 120.490016 
L 518.685691 120.490016 
L 518.685691 120.490016 
L 482.175822 120.490016 
z
" clip-path="url(#p02d5ac785d)" style="fill: #0279ee"/>
   </g>
   <g id="patch_46">
    <path d="M 534.332777 233.852625 
L 570.842645 233.852625 
L 570.842645 120.490016 
L 534.332777 120.490016 
z
" clip-path="url(#p02d5ac785d)" style="fill: #0279ee"/>
   </g>
   <g id="patch_47">
    <path d="M 586.489732 233.852625 
L 622.9996 233.852625 
L 622.9996 120.490016 
L 586.489732 120.490016 
z
" clip-path="url(#p02d5ac785d)" style="fill: #0279ee"/>
   </g>
   <g id="patch_48">
    <path d="M 638.646687 120.490016 
L 675.156555 120.490016 
L 675.156555 120.490016 
L 638.646687 120.490016 
z
" clip-path="url(#p02d5ac785d)" style="fill: #0279ee"/>
   </g>
   <g id="patch_49">
    <path d="M 690.803642 120.490016 
L 727.31351 120.490016 
L 727.31351 120.490016 
L 690.803642 120.490016 
z
" clip-path="url(#p02d5ac785d)" style="fill: #0279ee"/>
   </g>
   <g id="patch_50">
    <path d="M 742.960597 120.490016 
L 779.470465 120.490016 
L 779.470465 120.490016 
L 742.960597 120.490016 
z
" clip-path="url(#p02d5ac785d)" style="fill: #0279ee"/>
   </g>
   <g id="patch_51">
    <path d="M 795.117552 120.490016 
L 831.62742 120.490016 
L 831.62742 120.490016 
L 795.117552 120.490016 
z
" clip-path="url(#p02d5ac785d)" style="fill: #0279ee"/>
   </g>
   <g id="matplotlib.axis_3">
    <g id="xtick_8">
     <g id="line2d_18">
      <g>
       <use xlink:href="#m4556ac41ce" x="500.430756" y="347.215234" style="stroke: #000000; stroke-width: 0.8"/>
      </g>
     </g>
     <g id="text_30">
      <text style="font-size: 10px; font-family: 'Liberation Sans', 'Arimo', 'DejaVu Sans'; text-anchor: middle" x="500.430756" y="361.495508" transform="rotate(-0 500.430756 361.495508)">L528S</text>
     </g>
    </g>
    <g id="xtick_9">
     <g id="line2d_19">
      <g>
       <use xlink:href="#m4556ac41ce" x="552.587711" y="347.215234" style="stroke: #000000; stroke-width: 0.8"/>
      </g>
     </g>
     <g id="text_31">
      <text style="font-size: 10px; font-family: 'Liberation Sans', 'Arimo', 'DejaVu Sans'; text-anchor: middle" x="552.587711" y="361.495508" transform="rotate(-0 552.587711 361.495508)">C727A</text>
     </g>
    </g>
    <g id="xtick_10">
     <g id="line2d_20">
      <g>
       <use xlink:href="#m4556ac41ce" x="604.744666" y="347.215234" style="stroke: #000000; stroke-width: 0.8"/>
      </g>
     </g>
     <g id="text_32">
      <text style="font-size: 10px; font-family: 'Liberation Sans', 'Arimo', 'DejaVu Sans'; text-anchor: middle" x="604.744666" y="361.495508" transform="rotate(-0 604.744666 361.495508)">C727S</text>
     </g>
    </g>
    <g id="xtick_11">
     <g id="line2d_21">
      <g>
       <use xlink:href="#m4556ac41ce" x="656.901621" y="347.215234" style="stroke: #000000; stroke-width: 0.8"/>
      </g>
     </g>
     <g id="text_33">
      <text style="font-size: 10px; font-family: 'Liberation Sans', 'Arimo', 'DejaVu Sans'; text-anchor: middle" x="656.901621" y="361.495508" transform="rotate(-0 656.901621 361.495508)">C727R</text>
     </g>
    </g>
    <g id="xtick_12">
     <g id="line2d_22">
      <g>
       <use xlink:href="#m4556ac41ce" x="709.058576" y="347.215234" style="stroke: #000000; stroke-width: 0.8"/>
      </g>
     </g>
     <g id="text_34">
      <text style="font-size: 10px; font-family: 'Liberation Sans', 'Arimo', 'DejaVu Sans'; text-anchor: middle" x="709.058576" y="361.495508" transform="rotate(-0 709.058576 361.495508)">G729D</text>
     </g>
    </g>
    <g id="xtick_13">
     <g id="line2d_23">
      <g>
       <use xlink:href="#m4556ac41ce" x="761.215531" y="347.215234" style="stroke: #000000; stroke-width: 0.8"/>
      </g>
     </g>
     <g id="text_35">
      <text style="font-size: 10px; font-family: 'Liberation Sans', 'Arimo', 'DejaVu Sans'; text-anchor: middle" x="761.215531" y="361.495508" transform="rotate(-0 761.215531 361.495508)">F730L</text>
     </g>
    </g>
    <g id="xtick_14">
     <g id="line2d_24">
      <g>
       <use xlink:href="#m4556ac41ce" x="813.372486" y="347.215234" style="stroke: #000000; stroke-width: 0.8"/>
      </g>
     </g>
     <g id="text_36">
      <text style="font-size: 10px; font-family: 'Liberation Sans', 'Arimo', 'DejaVu Sans'; text-anchor: middle" x="813.372486" y="361.495508" transform="rotate(-0 813.372486 361.495508)">I852F</text>
     </g>
    </g>
   </g>
   <g id="matplotlib.axis_4">
    <g id="ytick_11">
     <g id="line2d_25">
      <g>
       <use xlink:href="#m31f2a0c238" x="464.703242" y="347.215234" style="stroke: #000000; stroke-width: 0.8"/>
      </g>
     </g>
     <g id="text_37">
      <text style="font-size: 10px; font-family: 'Liberation Sans', 'Arimo', 'DejaVu Sans'; text-anchor: end" x="457.703242" y="350.855371" transform="rotate(-0 457.703242 350.855371)">0</text>
     </g>
    </g>
    <g id="ytick_12">
     <g id="line2d_26">
      <g>
       <use xlink:href="#m31f2a0c238" x="464.703242" y="309.427698" style="stroke: #000000; stroke-width: 0.8"/>
      </g>
     </g>
     <g id="text_38">
      <text style="font-size: 10px; font-family: 'Liberation Sans', 'Arimo', 'DejaVu Sans'; text-anchor: end" x="457.703242" y="313.067835" transform="rotate(-0 457.703242 313.067835)">1</text>
     </g>
    </g>
    <g id="ytick_13">
     <g id="line2d_27">
      <g>
       <use xlink:href="#m31f2a0c238" x="464.703242" y="271.640161" style="stroke: #000000; stroke-width: 0.8"/>
      </g>
     </g>
     <g id="text_39">
      <text style="font-size: 10px; font-family: 'Liberation Sans', 'Arimo', 'DejaVu Sans'; text-anchor: end" x="457.703242" y="275.280298" transform="rotate(-0 457.703242 275.280298)">2</text>
     </g>
    </g>
    <g id="ytick_14">
     <g id="line2d_28">
      <g>
       <use xlink:href="#m31f2a0c238" x="464.703242" y="233.852625" style="stroke: #000000; stroke-width: 0.8"/>
      </g>
     </g>
     <g id="text_40">
      <text style="font-size: 10px; font-family: 'Liberation Sans', 'Arimo', 'DejaVu Sans'; text-anchor: end" x="457.703242" y="237.492762" transform="rotate(-0 457.703242 237.492762)">3</text>
     </g>
    </g>
    <g id="ytick_15">
     <g id="line2d_29">
      <g>
       <use xlink:href="#m31f2a0c238" x="464.703242" y="196.065089" style="stroke: #000000; stroke-width: 0.8"/>
      </g>
     </g>
     <g id="text_41">
      <text style="font-size: 10px; font-family: 'Liberation Sans', 'Arimo', 'DejaVu Sans'; text-anchor: end" x="457.703242" y="199.705225" transform="rotate(-0 457.703242 199.705225)">4</text>
     </g>
    </g>
    <g id="ytick_16">
     <g id="line2d_30">
      <g>
       <use xlink:href="#m31f2a0c238" x="464.703242" y="158.277552" style="stroke: #000000; stroke-width: 0.8"/>
      </g>
     </g>
     <g id="text_42">
      <text style="font-size: 10px; font-family: 'Liberation Sans', 'Arimo', 'DejaVu Sans'; text-anchor: end" x="457.703242" y="161.917689" transform="rotate(-0 457.703242 161.917689)">5</text>
     </g>
    </g>
    <g id="ytick_17">
     <g id="line2d_31">
      <g>
       <use xlink:href="#m31f2a0c238" x="464.703242" y="120.490016" style="stroke: #000000; stroke-width: 0.8"/>
      </g>
     </g>
     <g id="text_43">
      <text style="font-size: 10px; font-family: 'Liberation Sans', 'Arimo', 'DejaVu Sans'; text-anchor: end" x="457.703242" y="124.130152" transform="rotate(-0 457.703242 124.130152)">6</text>
     </g>
    </g>
    <g id="ytick_18">
     <g id="line2d_32">
      <g>
       <use xlink:href="#m31f2a0c238" x="464.703242" y="82.702479" style="stroke: #000000; stroke-width: 0.8"/>
      </g>
     </g>
     <g id="text_44">
      <text style="font-size: 10px; font-family: 'Liberation Sans', 'Arimo', 'DejaVu Sans'; text-anchor: end" x="457.703242" y="86.342616" transform="rotate(-0 457.703242 86.342616)">7</text>
     </g>
    </g>
    <g id="text_45">
     <text style="font-size: 11px; font-family: 'Liberation Sans', 'Arimo', 'DejaVu Sans'; text-anchor: middle" x="445.827363" y="205.511973" transform="rotate(-90 445.827363 205.511973)">Number of state × mode dockings</text>
    </g>
   </g>
   <g id="patch_52">
    <path d="M 464.703242 347.215234 
L 464.703242 63.808711 
" style="fill: none; stroke: #000000; stroke-width: 0.8; stroke-linejoin: miter; stroke-linecap: square"/>
   </g>
   <g id="patch_53">
    <path d="M 464.703242 347.215234 
L 849.1 347.215234 
" style="fill: none; stroke: #000000; stroke-width: 0.8; stroke-linejoin: miter; stroke-linecap: square"/>
   </g>
   <g id="text_46">
    <text style="font-size: 9px; font-family: 'Liberation Sans', 'Arimo', 'DejaVu Sans'; text-anchor: middle" x="500.430756" y="112.927842" transform="rotate(-0 500.430756 112.927842)">n=6</text>
   </g>
   <g id="text_47">
    <text style="font-size: 9px; font-family: 'Liberation Sans', 'Arimo', 'DejaVu Sans'; text-anchor: middle" x="552.587711" y="112.927842" transform="rotate(-0 552.587711 112.927842)">n=6</text>
   </g>
   <g id="text_48">
    <text style="font-size: 9px; font-family: 'Liberation Sans', 'Arimo', 'DejaVu Sans'; text-anchor: middle" x="604.744666" y="112.927842" transform="rotate(-0 604.744666 112.927842)">n=6</text>
   </g>
   <g id="text_49">
    <text style="font-size: 9px; font-family: 'Liberation Sans', 'Arimo', 'DejaVu Sans'; text-anchor: middle" x="656.901621" y="112.927842" transform="rotate(-0 656.901621 112.927842)">n=6</text>
   </g>
   <g id="text_50">
    <text style="font-size: 9px; font-family: 'Liberation Sans', 'Arimo', 'DejaVu Sans'; text-anchor: middle" x="709.058576" y="112.927842" transform="rotate(-0 709.058576 112.927842)">n=6</text>
   </g>
   <g id="text_51">
    <text style="font-size: 9px; font-family: 'Liberation Sans', 'Arimo', 'DejaVu Sans'; text-anchor: middle" x="761.215531" y="112.927842" transform="rotate(-0 761.215531 112.927842)">n=6</text>
   </g>
   <g id="text_52">
    <text style="font-size: 9px; font-family: 'Liberation Sans', 'Arimo', 'DejaVu Sans'; text-anchor: middle" x="813.372486" y="112.927842" transform="rotate(-0 813.372486 112.927842)">n=6</text>
   </g>
   <g id="text_53">
    <text style="font-weight: 700; font-size: 13px; font-family: 'Liberation Sans', 'Arimo', 'DejaVu Sans'; text-anchor: middle" x="656.901621" y="57.808711" transform="rotate(-0 656.901621 57.808711)">VVD-214</text>
   </g>
  </g>
  <g id="text_54">
   <text style="font-weight: 700; font-size: 13px; font-family: 'Liberation Sans', 'Arimo', 'DejaVu Sans'; text-anchor: middle" x="427.9" y="16.664355" transform="rotate(-0 427.9 16.664355)">Docking verdict summary: which mutations show resistance signals</text>
  </g>
 </g>
 <defs>
  <clipPath id="p1e71a06d37">
   <rect x="42.423242" y="63.808711" width="384.396758" height="283.406523"/>
  </clipPath>
  <clipPath id="p02d5ac785d">
   <rect x="464.703242" y="63.808711" width="384.396758" height="283.406523"/>
  </clipPath>
 </defs>
</svg>
