<?xml version="1.0" encoding="utf-8" standalone="no"?>
<!DOCTYPE svg PUBLIC "-//W3C//DTD SVG 1.1//EN"
  "http://www.w3.org/Graphics/SVG/1.1/DTD/svg11.dtd">
<svg xmlns:xlink="http://www.w3.org/1999/xlink" width="720pt" height="540pt" viewBox="0 0 720 540" xmlns="http://www.w3.org/2000/svg" version="1.1">
 <metadata>
  <rdf:RDF xmlns:dc="http://purl.org/dc/elements/1.1/" xmlns:cc="http://creativecommons.org/ns#" xmlns:rdf="http://www.w3.org/1999/02/22-rdf-syntax-ns#">
   <cc:Work>
    <dc:type rdf:resource="http://purl.org/dc/dcmitype/StillImage"/>
    <dc:date>2022-01-01T05:00:00+00:00</dc:date>
    <dc:format>image/svg+xml</dc:format>
    <dc:creator>
     <cc:Agent>
      <dc:title>Matplotlib v3.11.0, https://matplotlib.org/</dc:title>
     </cc:Agent>
    </dc:creator>
   </cc:Work>
  </rdf:RDF>
 </metadata>
 <defs>
  <style type="text/css">*{stroke-linejoin: round; stroke-linecap: butt}</style>
 </defs>
 <g id="figure_1">
  <g id="patch_1">
   <path d="M 0 540 
L 720 540 
L 720 0 
L 0 0 
z
" style="fill: #ffffff"/>
  </g>
  <g id="axes_1">
   <g id="line2d_1">
    <path d="M 365.882067 277.747826 
L 398.738459 155.126102 
" clip-path="url(#p5e4b79fecd)" style="fill: none; stroke-dasharray: 2.2,3.63; stroke-dashoffset: 0; stroke: #75a025; stroke-width: 2.2"/>
   </g>
   <g id="line2d_2">
    <path d="M 354.117933 277.747826 
L 321.261541 155.126102 
" clip-path="url(#p5e4b79fecd)" style="fill: none; stroke: #0279ee; stroke-width: 2.2; stroke-linecap: square"/>
   </g>
   <g id="line2d_3">
    <path d="M 338.047826 277.747826 
L 254.164561 193.864561 
" clip-path="url(#p5e4b79fecd)" style="fill: none; stroke-dasharray: 2.2,3.63; stroke-dashoffset: 0; stroke: #75a025; stroke-width: 2.2"/>
   </g>
   <g id="line2d_4">
    <path d="M 318.091304 288.470599 
L 215.426102 260.961541 
" clip-path="url(#p5e4b79fecd)" style="fill: none; stroke: #0279ee; stroke-width: 2.2; stroke-linecap: square"/>
   </g>
   <g id="line2d_5">
    <path d="M 317.678094 290.01272 
L 215.012892 262.503662 
" clip-path="url(#p5e4b79fecd)" style="fill: none; stroke-dasharray: 2.2,3.63; stroke-dashoffset: 0; stroke: #75a025; stroke-width: 2.2"/>
   </g>
   <g id="line2d_6">
    <path d="M 317.264884 291.554842 
L 214.599681 264.045784 
" clip-path="url(#p5e4b79fecd)" style="fill: none; stroke-dasharray: 8.14,3.52; stroke-dashoffset: 0; stroke: #fd9bed; stroke-width: 2.2"/>
   </g>
   <g id="line2d_7">
    <path d="M 318.091304 310.929401 
L 215.426102 338.438459 
" clip-path="url(#p5e4b79fecd)" style="fill: none; stroke: #0279ee; stroke-width: 2.2; stroke-linecap: square"/>
   </g>
   <g id="line2d_8">
    <path d="M 338.047826 321.652174 
L 254.164561 405.535439 
" clip-path="url(#p5e4b79fecd)" style="fill: none; stroke: #0279ee; stroke-width: 2.2; stroke-linecap: square"/>
   </g>
   <g id="line2d_9">
    <path d="M 339.176737 322.781085 
L 255.293472 406.66435 
" clip-path="url(#p5e4b79fecd)" style="fill: none; stroke-dasharray: 2.2,3.63; stroke-dashoffset: 0; stroke: #75a025; stroke-width: 2.2"/>
   </g>
   <g id="line2d_10">
    <path d="M 340.305649 323.909997 
L 256.422384 407.793262 
" clip-path="url(#p5e4b79fecd)" style="fill: none; stroke-dasharray: 8.14,3.52; stroke-dashoffset: 0; stroke: #8b4513; stroke-width: 2.2"/>
   </g>
   <g id="line2d_11">
    <path d="M 354.117933 321.652174 
L 321.261541 444.273898 
" clip-path="url(#p5e4b79fecd)" style="fill: none; stroke-dasharray: 2.2,3.63; stroke-dashoffset: 0; stroke: #75a025; stroke-width: 2.2"/>
   </g>
   <g id="line2d_12">
    <path d="M 365.882067 321.652174 
L 398.738459 444.273898 
" clip-path="url(#p5e4b79fecd)" style="fill: none; stroke: #0279ee; stroke-width: 2.2; stroke-linecap: square"/>
   </g>
   <g id="line2d_13">
    <path d="M 381.952174 321.652174 
L 465.835439 405.535439 
" clip-path="url(#p5e4b79fecd)" style="fill: none; stroke: #0279ee; stroke-width: 2.2; stroke-linecap: square"/>
   </g>
   <g id="line2d_14">
    <path d="M 401.908696 310.929401 
L 504.573898 338.438459 
" clip-path="url(#p5e4b79fecd)" style="fill: none; stroke-dasharray: 8.14,3.52; stroke-dashoffset: 0; stroke: #8b4513; stroke-width: 2.2"/>
   </g>
   <g id="line2d_15">
    <path d="M 402.321906 309.38728 
L 504.987108 336.896338 
" clip-path="url(#p5e4b79fecd)" style="fill: none; stroke-dasharray: 8.14,3.52; stroke-dashoffset: 0; stroke: #8b4513; stroke-width: 2.2"/>
   </g>
   <g id="line2d_16">
    <path d="M 401.908696 288.470599 
L 504.573898 260.961541 
" clip-path="url(#p5e4b79fecd)" style="fill: none; stroke-dasharray: 2.2,3.63; stroke-dashoffset: 0; stroke: #75a025; stroke-width: 2.2"/>
   </g>
   <g id="line2d_17">
    <path d="M 381.952174 277.747826 
L 465.835439 193.864561 
" clip-path="url(#p5e4b79fecd)" style="fill: none; stroke-dasharray: 2.2,3.63; stroke-dashoffset: 0; stroke: #75a025; stroke-width: 2.2"/>
   </g>
   <g id="text_1">
    <g id="patch_2">
     <path d="M 375.438537 224.311762 
L 387.948537 224.311762 
Q 389.298537 224.311762 389.298537 222.961762 
L 389.298537 214.515473 
Q 389.298537 213.165473 387.948537 213.165473 
L 375.438537 213.165473 
Q 374.088537 213.165473 374.088537 214.515473 
L 374.088537 222.961762 
Q 374.088537 224.311762 375.438537 224.311762 
z
" style="fill: #ffffff; opacity: 0.9"/>
    </g>
    <text style="font-size: 9px; font-family: 'Liberation Sans', 'Arimo', 'DejaVu Sans'; text-anchor: middle" x="381.693537" y="221.067719" transform="rotate(-0 381.693537 221.067719)">3.6</text>
   </g>
   <g id="text_2">
    <g id="patch_3">
     <path d="M 332.051463 224.311762 
L 344.561463 224.311762 
Q 345.911463 224.311762 345.911463 222.961762 
L 345.911463 214.515473 
Q 345.911463 213.165473 344.561463 213.165473 
L 332.051463 213.165473 
Q 330.701463 213.165473 330.701463 214.515473 
L 330.701463 222.961762 
Q 330.701463 224.311762 332.051463 224.311762 
z
" style="fill: #ffffff; opacity: 0.9"/>
    </g>
    <text style="font-size: 9px; font-family: 'Liberation Sans', 'Arimo', 'DejaVu Sans'; text-anchor: middle" x="338.306463" y="221.067719" transform="rotate(-0 338.306463 221.067719)">3.3</text>
   </g>
   <g id="text_3">
    <g id="patch_4">
     <path d="M 294.477154 246.005299 
L 306.987154 246.005299 
Q 308.337154 246.005299 308.337154 244.655299 
L 308.337154 236.20901 
Q 308.337154 234.85901 306.987154 234.85901 
L 294.477154 234.85901 
Q 293.127154 234.85901 293.127154 236.20901 
L 293.127154 244.655299 
Q 293.127154 246.005299 294.477154 246.005299 
z
" style="fill: #ffffff; opacity: 0.9"/>
    </g>
    <text style="font-size: 9px; font-family: 'Liberation Sans', 'Arimo', 'DejaVu Sans'; text-anchor: middle" x="300.732154" y="242.761256" transform="rotate(-0 300.732154 242.761256)">3.5</text>
   </g>
   <g id="text_4">
    <g id="patch_5">
     <path d="M 272.783617 283.579607 
L 285.293617 283.579607 
Q 286.643617 283.579607 286.643617 282.229607 
L 286.643617 273.783318 
Q 286.643617 272.433318 285.293617 272.433318 
L 272.783617 272.433318 
Q 271.433617 272.433318 271.433617 273.783318 
L 271.433617 282.229607 
Q 271.433617 283.579607 272.783617 283.579607 
z
" style="fill: #ffffff; opacity: 0.9"/>
    </g>
    <text style="font-size: 9px; font-family: 'Liberation Sans', 'Arimo', 'DejaVu Sans'; text-anchor: middle" x="279.038617" y="280.335564" transform="rotate(-0 279.038617 280.335564)">3.6</text>
   </g>
   <g id="text_5">
    <g id="patch_6">
     <path d="M 272.783617 326.966682 
L 285.293617 326.966682 
Q 286.643617 326.966682 286.643617 325.616682 
L 286.643617 317.170393 
Q 286.643617 315.820393 285.293617 315.820393 
L 272.783617 315.820393 
Q 271.433617 315.820393 271.433617 317.170393 
L 271.433617 325.616682 
Q 271.433617 326.966682 272.783617 326.966682 
z
" style="fill: #ffffff; opacity: 0.9"/>
    </g>
    <text style="font-size: 9px; font-family: 'Liberation Sans', 'Arimo', 'DejaVu Sans'; text-anchor: middle" x="279.038617" y="323.722639" transform="rotate(-0 279.038617 323.722639)">2.4</text>
   </g>
   <g id="text_6">
    <g id="patch_7">
     <path d="M 294.477154 364.54099 
L 306.987154 364.54099 
Q 308.337154 364.54099 308.337154 363.19099 
L 308.337154 354.744701 
Q 308.337154 353.394701 306.987154 353.394701 
L 294.477154 353.394701 
Q 293.127154 353.394701 293.127154 354.744701 
L 293.127154 363.19099 
Q 293.127154 364.54099 294.477154 364.54099 
z
" style="fill: #ffffff; opacity: 0.9"/>
    </g>
    <text style="font-size: 9px; font-family: 'Liberation Sans', 'Arimo', 'DejaVu Sans'; text-anchor: middle" x="300.732154" y="361.296947" transform="rotate(-0 300.732154 361.296947)">3.2</text>
   </g>
   <g id="text_7">
    <g id="patch_8">
     <path d="M 332.051463 386.234527 
L 344.561463 386.234527 
Q 345.911463 386.234527 345.911463 384.884527 
L 345.911463 376.438238 
Q 345.911463 375.088238 344.561463 375.088238 
L 332.051463 375.088238 
Q 330.701463 375.088238 330.701463 376.438238 
L 330.701463 384.884527 
Q 330.701463 386.234527 332.051463 386.234527 
z
" style="fill: #ffffff; opacity: 0.9"/>
    </g>
    <text style="font-size: 9px; font-family: 'Liberation Sans', 'Arimo', 'DejaVu Sans'; text-anchor: middle" x="338.306463" y="382.990485" transform="rotate(-0 338.306463 382.990485)">4.0</text>
   </g>
   <g id="text_8">
    <g id="patch_9">
     <path d="M 375.438537 386.234527 
L 387.948537 386.234527 
Q 389.298537 386.234527 389.298537 384.884527 
L 389.298537 376.438238 
Q 389.298537 375.088238 387.948537 375.088238 
L 375.438537 375.088238 
Q 374.088537 375.088238 374.088537 376.438238 
L 374.088537 384.884527 
Q 374.088537 386.234527 375.438537 386.234527 
z
" style="fill: #ffffff; opacity: 0.9"/>
    </g>
    <text style="font-size: 9px; font-family: 'Liberation Sans', 'Arimo', 'DejaVu Sans'; text-anchor: middle" x="381.693537" y="382.990485" transform="rotate(-0 381.693537 382.990485)">2.0</text>
   </g>
   <g id="text_9">
    <g id="patch_10">
     <path d="M 413.012846 364.54099 
L 425.522846 364.54099 
Q 426.872846 364.54099 426.872846 363.19099 
L 426.872846 354.744701 
Q 426.872846 353.394701 425.522846 353.394701 
L 413.012846 353.394701 
Q 411.662846 353.394701 411.662846 354.744701 
L 411.662846 363.19099 
Q 411.662846 364.54099 413.012846 364.54099 
z
" style="fill: #ffffff; opacity: 0.9"/>
    </g>
    <text style="font-size: 9px; font-family: 'Liberation Sans', 'Arimo', 'DejaVu Sans'; text-anchor: middle" x="419.267846" y="361.296947" transform="rotate(-0 419.267846 361.296947)">2.9</text>
   </g>
   <g id="text_10">
    <g id="patch_11">
     <path d="M 434.706383 326.966682 
L 447.216383 326.966682 
Q 448.566383 326.966682 448.566383 325.616682 
L 448.566383 317.170393 
Q 448.566383 315.820393 447.216383 315.820393 
L 434.706383 315.820393 
Q 433.356383 315.820393 433.356383 317.170393 
L 433.356383 325.616682 
Q 433.356383 326.966682 434.706383 326.966682 
z
" style="fill: #ffffff; opacity: 0.9"/>
    </g>
    <text style="font-size: 9px; font-family: 'Liberation Sans', 'Arimo', 'DejaVu Sans'; text-anchor: middle" x="440.961383" y="323.722639" transform="rotate(-0 440.961383 323.722639)">3.6</text>
   </g>
   <g id="text_11">
    <g id="patch_12">
     <path d="M 434.706383 283.579607 
L 447.216383 283.579607 
Q 448.566383 283.579607 448.566383 282.229607 
L 448.566383 273.783318 
Q 448.566383 272.433318 447.216383 272.433318 
L 434.706383 272.433318 
Q 433.356383 272.433318 433.356383 273.783318 
L 433.356383 282.229607 
Q 433.356383 283.579607 434.706383 283.579607 
z
" style="fill: #ffffff; opacity: 0.9"/>
    </g>
    <text style="font-size: 9px; font-family: 'Liberation Sans', 'Arimo', 'DejaVu Sans'; text-anchor: middle" x="440.961383" y="280.335564" transform="rotate(-0 440.961383 280.335564)">3.9</text>
   </g>
   <g id="text_12">
    <g id="patch_13">
     <path d="M 413.012846 246.005299 
L 425.522846 246.005299 
Q 426.872846 246.005299 426.872846 244.655299 
L 426.872846 236.20901 
Q 426.872846 234.85901 425.522846 234.85901 
L 413.012846 234.85901 
Q 411.662846 234.85901 411.662846 236.20901 
L 411.662846 244.655299 
Q 411.662846 246.005299 413.012846 246.005299 
z
" style="fill: #ffffff; opacity: 0.9"/>
    </g>
    <text style="font-size: 9px; font-family: 'Liberation Sans', 'Arimo', 'DejaVu Sans'; text-anchor: middle" x="419.267846" y="242.761256" transform="rotate(-0 419.267846 242.761256)">3.6</text>
   </g>
   <g id="patch_14">
    <path d="M 322.082609 325.643478 
L 397.917391 325.643478 
Q 405.9 325.643478 405.9 317.66087 
L 405.9 281.73913 
Q 405.9 273.756522 397.917391 273.756522 
L 322.082609 273.756522 
Q 314.1 273.756522 314.1 281.73913 
L 314.1 317.66087 
Q 314.1 325.643478 322.082609 325.643478 
z
" clip-path="url(#p5e4b79fecd)" style="fill: #faf9f3; stroke: #000000; stroke-width: 2.5; stroke-linejoin: miter"/>
   </g>
   <g id="text_13">
    <text style="font-weight: 700; font-size: 16px; font-family: 'Liberation Sans', 'Arimo', 'DejaVu Sans'; text-anchor: middle" x="360" y="299.849321" transform="rotate(-0 360 299.849321)">HRO761</text>
   </g>
   <g id="text_14">
    <text style="font-style: italic; font-size: 11px; font-family: 'Liberation Sans', 'Arimo', 'DejaVu Sans'; text-anchor: middle; fill: #555555" x="360" y="316.532358" transform="rotate(-0 360 316.532358)">(9S18)</text>
   </g>
   <g id="patch_15">
    <path d="M 403.903587 155.806104 
C 409.196119 155.806104 414.272594 153.703359 418.014979 149.960974 
C 421.757364 146.218589 423.860109 141.142114 423.860109 135.849582 
C 423.860109 130.557051 421.757364 125.480575 418.014979 121.73819 
C 414.272594 117.995805 409.196119 115.89306 403.903587 115.89306 
C 398.611056 115.89306 393.53458 117.995805 389.792195 121.73819 
C 386.04981 125.480575 383.947065 130.557051 383.947065 135.849582 
C 383.947065 141.142114 386.04981 146.218589 389.792195 149.960974 
C 393.53458 153.703359 398.611056 155.806104 403.903587 155.806104 
z
" clip-path="url(#p5e4b79fecd)" style="fill: #eeeeee; stroke: #000000; stroke-width: 1.5; stroke-linejoin: miter"/>
   </g>
   <g id="patch_16">
    <path d="M 316.096413 155.806104 
C 321.388944 155.806104 326.46542 153.703359 330.207805 149.960974 
C 333.95019 146.218589 336.052935 141.142114 336.052935 135.849582 
C 336.052935 130.557051 333.95019 125.480575 330.207805 121.73819 
C 326.46542 117.995805 321.388944 115.89306 316.096413 115.89306 
C 310.803881 115.89306 305.727406 117.995805 301.985021 121.73819 
C 298.242636 125.480575 296.139891 130.557051 296.139891 135.849582 
C 296.139891 141.142114 298.242636 146.218589 301.985021 149.960974 
C 305.727406 153.703359 310.803881 155.806104 316.096413 155.806104 
z
" clip-path="url(#p5e4b79fecd)" style="fill: #ff9900; stroke: #000000; stroke-width: 1.5; stroke-linejoin: miter"/>
   </g>
   <g id="patch_17">
    <path d="M 240.053169 199.709691 
C 245.345701 199.709691 250.422176 197.606946 254.164561 193.864561 
C 257.906946 190.122176 260.009691 185.045701 260.009691 179.753169 
C 260.009691 174.460638 257.906946 169.384162 254.164561 165.641777 
C 250.422176 161.899393 245.345701 159.796648 240.053169 159.796648 
C 234.760638 159.796648 229.684162 161.899393 225.941777 165.641777 
C 222.199393 169.384162 220.096648 174.460638 220.096648 179.753169 
C 220.096648 185.045701 222.199393 190.122176 225.941777 193.864561 
C 229.684162 197.606946 234.760638 199.709691 240.053169 199.709691 
z
" clip-path="url(#p5e4b79fecd)" style="fill: #663399; stroke: #000000; stroke-width: 1.5; stroke-linejoin: miter"/>
   </g>
   <g id="patch_18">
    <path d="M 196.149582 275.752935 
C 201.442114 275.752935 206.518589 273.65019 210.260974 269.907805 
C 214.003359 266.16542 216.106104 261.088944 216.106104 255.796413 
C 216.106104 250.503881 214.003359 245.427406 210.260974 241.685021 
C 206.518589 237.942636 201.442114 235.839891 196.149582 235.839891 
C 190.857051 235.839891 185.780575 237.942636 182.03819 241.685021 
C 178.295805 245.427406 176.19306 250.503881 176.19306 255.796413 
C 176.19306 261.088944 178.295805 266.16542 182.03819 269.907805 
C 185.780575 273.65019 190.857051 275.752935 196.149582 275.752935 
z
" clip-path="url(#p5e4b79fecd)" style="fill: #3366cc; stroke: #000000; stroke-width: 1.5; stroke-linejoin: miter"/>
   </g>
   <g id="patch_19">
    <path d="M 196.149582 363.560109 
C 201.442114 363.560109 206.518589 361.457364 210.260974 357.714979 
C 214.003359 353.972594 216.106104 348.896119 216.106104 343.603587 
C 216.106104 338.311056 214.003359 333.23458 210.260974 329.492195 
C 206.518589 325.74981 201.442114 323.647065 196.149582 323.647065 
C 190.857051 323.647065 185.780575 325.74981 182.03819 329.492195 
C 178.295805 333.23458 176.19306 338.311056 176.19306 343.603587 
C 176.19306 348.896119 178.295805 353.972594 182.03819 357.714979 
C 185.780575 361.457364 190.857051 363.560109 196.149582 363.560109 
z
" clip-path="url(#p5e4b79fecd)" style="fill: #eeeeee; stroke: #000000; stroke-width: 1.5; stroke-linejoin: miter"/>
   </g>
   <g id="patch_20">
    <path d="M 240.053169 439.603352 
C 245.345701 439.603352 250.422176 437.500607 254.164561 433.758223 
C 257.906946 430.015838 260.009691 424.939362 260.009691 419.646831 
C 260.009691 414.354299 257.906946 409.277824 254.164561 405.535439 
C 250.422176 401.793054 245.345701 399.690309 240.053169 399.690309 
C 234.760638 399.690309 229.684162 401.793054 225.941777 405.535439 
C 222.199393 409.277824 220.096648 414.354299 220.096648 419.646831 
C 220.096648 424.939362 222.199393 430.015838 225.941777 433.758223 
C 229.684162 437.500607 234.760638 439.603352 240.053169 439.603352 
z
" clip-path="url(#p5e4b79fecd)" style="fill: #ffdd00; stroke: #000000; stroke-width: 1.5; stroke-linejoin: miter"/>
   </g>
   <g id="patch_21">
    <path d="M 316.096413 483.50694 
C 321.388944 483.50694 326.46542 481.404195 330.207805 477.66181 
C 333.95019 473.919425 336.052935 468.842949 336.052935 463.550418 
C 336.052935 458.257886 333.95019 453.181411 330.207805 449.439026 
C 326.46542 445.696641 321.388944 443.593896 316.096413 443.593896 
C 310.803881 443.593896 305.727406 445.696641 301.985021 449.439026 
C 298.242636 453.181411 296.139891 458.257886 296.139891 463.550418 
C 296.139891 468.842949 298.242636 473.919425 301.985021 477.66181 
C 305.727406 481.404195 310.803881 483.50694 316.096413 483.50694 
z
" clip-path="url(#p5e4b79fecd)" style="fill: #66aa00; stroke: #000000; stroke-width: 1.5; stroke-linejoin: miter"/>
   </g>
   <g id="patch_22">
    <path d="M 403.903587 483.50694 
C 409.196119 483.50694 414.272594 481.404195 418.014979 477.66181 
C 421.757364 473.919425 423.860109 468.842949 423.860109 463.550418 
C 423.860109 458.257886 421.757364 453.181411 418.014979 449.439026 
C 414.272594 445.696641 409.196119 443.593896 403.903587 443.593896 
C 398.611056 443.593896 393.53458 445.696641 389.792195 449.439026 
C 386.04981 453.181411 383.947065 458.257886 383.947065 463.550418 
C 383.947065 468.842949 386.04981 473.919425 389.792195 477.66181 
C 393.53458 481.404195 398.611056 483.50694 403.903587 483.50694 
z
" clip-path="url(#p5e4b79fecd)" style="fill: #3366cc; stroke: #000000; stroke-width: 1.5; stroke-linejoin: miter"/>
   </g>
   <g id="patch_23">
    <path d="M 479.946831 439.603352 
C 485.239362 439.603352 490.315838 437.500607 494.058223 433.758223 
C 497.800607 430.015838 499.903352 424.939362 499.903352 419.646831 
C 499.903352 414.354299 497.800607 409.277824 494.058223 405.535439 
C 490.315838 401.793054 485.239362 399.690309 479.946831 399.690309 
C 474.654299 399.690309 469.577824 401.793054 465.835439 405.535439 
C 462.093054 409.277824 459.990309 414.354299 459.990309 419.646831 
C 459.990309 424.939362 462.093054 430.015838 465.835439 433.758223 
C 469.577824 437.500607 474.654299 439.603352 479.946831 439.603352 
z
" clip-path="url(#p5e4b79fecd)" style="fill: #3366cc; stroke: #000000; stroke-width: 1.5; stroke-linejoin: miter"/>
   </g>
   <g id="patch_24">
    <path d="M 523.850418 363.560109 
C 529.142949 363.560109 534.219425 361.457364 537.96181 357.714979 
C 541.704195 353.972594 543.80694 348.896119 543.80694 343.603587 
C 543.80694 338.311056 541.704195 333.23458 537.96181 329.492195 
C 534.219425 325.74981 529.142949 323.647065 523.850418 323.647065 
C 518.557886 323.647065 513.481411 325.74981 509.739026 329.492195 
C 505.996641 333.23458 503.893896 338.311056 503.893896 343.603587 
C 503.893896 348.896119 505.996641 353.972594 509.739026 357.714979 
C 513.481411 361.457364 518.557886 363.560109 523.850418 363.560109 
z
" clip-path="url(#p5e4b79fecd)" style="fill: #3366cc; stroke: #000000; stroke-width: 1.5; stroke-linejoin: miter"/>
   </g>
   <g id="patch_25">
    <path d="M 523.850418 275.752935 
C 529.142949 275.752935 534.219425 273.65019 537.96181 269.907805 
C 541.704195 266.16542 543.80694 261.088944 543.80694 255.796413 
C 543.80694 250.503881 541.704195 245.427406 537.96181 241.685021 
C 534.219425 237.942636 529.142949 235.839891 523.850418 235.839891 
C 518.557886 235.839891 513.481411 237.942636 509.739026 241.685021 
C 505.996641 245.427406 503.893896 250.503881 503.893896 255.796413 
C 503.893896 261.088944 505.996641 266.16542 509.739026 269.907805 
C 513.481411 273.65019 518.557886 275.752935 523.850418 275.752935 
z
" clip-path="url(#p5e4b79fecd)" style="fill: #66aa00; stroke: #000000; stroke-width: 1.5; stroke-linejoin: miter"/>
   </g>
   <g id="patch_26">
    <path d="M 479.946831 199.709691 
C 485.239362 199.709691 490.315838 197.606946 494.058223 193.864561 
C 497.800607 190.122176 499.903352 185.045701 499.903352 179.753169 
C 499.903352 174.460638 497.800607 169.384162 494.058223 165.641777 
C 490.315838 161.899393 485.239362 159.796648 479.946831 159.796648 
C 474.654299 159.796648 469.577824 161.899393 465.835439 165.641777 
C 462.093054 169.384162 459.990309 174.460638 459.990309 179.753169 
C 459.990309 185.045701 462.093054 190.122176 465.835439 193.864561 
C 469.577824 197.606946 474.654299 199.709691 479.946831 199.709691 
z
" clip-path="url(#p5e4b79fecd)" style="fill: #66aa00; stroke: #000000; stroke-width: 1.5; stroke-linejoin: miter"/>
   </g>
   <g id="text_15">
    <text style="font-weight: 700; font-size: 11px; font-family: 'Liberation Sans', 'Arimo', 'DejaVu Sans'; text-anchor: middle" x="403.903587" y="134.704957" transform="rotate(-0 403.903587 134.704957)">ALA</text>
   </g>
   <g id="text_16">
    <text style="font-weight: 700; font-size: 9px; font-family: 'Liberation Sans', 'Arimo', 'DejaVu Sans'; text-anchor: middle" x="403.903587" y="144.564771" transform="rotate(-0 403.903587 144.564771)">706</text>
   </g>
   <g id="text_17">
    <text style="font-weight: 700; font-size: 11px; font-family: 'Liberation Sans', 'Arimo', 'DejaVu Sans'; text-anchor: middle" x="316.096413" y="134.704957" transform="rotate(-0 316.096413 134.704957)">SER</text>
   </g>
   <g id="text_18">
    <text style="font-weight: 700; font-size: 9px; font-family: 'Liberation Sans', 'Arimo', 'DejaVu Sans'; text-anchor: middle" x="316.096413" y="144.564771" transform="rotate(-0 316.096413 144.564771)">727</text>
   </g>
   <g id="text_19">
    <text style="font-weight: 700; font-size: 11px; font-family: 'Liberation Sans', 'Arimo', 'DejaVu Sans'; text-anchor: middle; fill: #ffffff" x="240.053169" y="178.608545" transform="rotate(-0 240.053169 178.608545)">PHE</text>
   </g>
   <g id="text_20">
    <text style="font-weight: 700; font-size: 9px; font-family: 'Liberation Sans', 'Arimo', 'DejaVu Sans'; text-anchor: middle; fill: #ffffff" x="240.053169" y="188.468358" transform="rotate(-0 240.053169 188.468358)">730</text>
   </g>
   <g id="text_21">
    <text style="font-weight: 700; font-size: 11px; font-family: 'Liberation Sans', 'Arimo', 'DejaVu Sans'; text-anchor: middle; fill: #ffffff" x="196.149582" y="254.651788" transform="rotate(-0 196.149582 254.651788)">ARG</text>
   </g>
   <g id="text_22">
    <text style="font-weight: 700; font-size: 9px; font-family: 'Liberation Sans', 'Arimo', 'DejaVu Sans'; text-anchor: middle; fill: #ffffff" x="196.149582" y="264.511601" transform="rotate(-0 196.149582 264.511601)">732</text>
   </g>
   <g id="text_23">
    <text style="font-weight: 700; font-size: 11px; font-family: 'Liberation Sans', 'Arimo', 'DejaVu Sans'; text-anchor: middle" x="196.149582" y="342.458962" transform="rotate(-0 196.149582 342.458962)">GLY</text>
   </g>
   <g id="text_24">
    <text style="font-weight: 700; font-size: 9px; font-family: 'Liberation Sans', 'Arimo', 'DejaVu Sans'; text-anchor: middle" x="196.149582" y="352.318776" transform="rotate(-0 196.149582 352.318776)">827</text>
   </g>
   <g id="text_25">
    <text style="font-weight: 700; font-size: 11px; font-family: 'Liberation Sans', 'Arimo', 'DejaVu Sans'; text-anchor: middle" x="240.053169" y="418.502206" transform="rotate(-0 240.053169 418.502206)">TYR</text>
   </g>
   <g id="text_26">
    <text style="font-weight: 700; font-size: 9px; font-family: 'Liberation Sans', 'Arimo', 'DejaVu Sans'; text-anchor: middle" x="240.053169" y="428.362019" transform="rotate(-0 240.053169 428.362019)">849</text>
   </g>
   <g id="text_27">
    <text style="font-weight: 700; font-size: 11px; font-family: 'Liberation Sans', 'Arimo', 'DejaVu Sans'; text-anchor: middle" x="316.096413" y="462.405793" transform="rotate(-0 316.096413 462.405793)">ILE</text>
   </g>
   <g id="text_28">
    <text style="font-weight: 700; font-size: 9px; font-family: 'Liberation Sans', 'Arimo', 'DejaVu Sans'; text-anchor: middle" x="316.096413" y="472.265606" transform="rotate(-0 316.096413 472.265606)">852</text>
   </g>
   <g id="text_29">
    <text style="font-weight: 700; font-size: 11px; font-family: 'Liberation Sans', 'Arimo', 'DejaVu Sans'; text-anchor: middle; fill: #ffffff" x="403.903587" y="462.405793" transform="rotate(-0 403.903587 462.405793)">ARG</text>
   </g>
   <g id="text_30">
    <text style="font-weight: 700; font-size: 9px; font-family: 'Liberation Sans', 'Arimo', 'DejaVu Sans'; text-anchor: middle; fill: #ffffff" x="403.903587" y="472.265606" transform="rotate(-0 403.903587 472.265606)">854</text>
   </g>
   <g id="text_31">
    <text style="font-weight: 700; font-size: 11px; font-family: 'Liberation Sans', 'Arimo', 'DejaVu Sans'; text-anchor: middle; fill: #ffffff" x="479.946831" y="418.502206" transform="rotate(-0 479.946831 418.502206)">ARG</text>
   </g>
   <g id="text_32">
    <text style="font-weight: 700; font-size: 9px; font-family: 'Liberation Sans', 'Arimo', 'DejaVu Sans'; text-anchor: middle; fill: #ffffff" x="479.946831" y="428.362019" transform="rotate(-0 479.946831 428.362019)">857</text>
   </g>
   <g id="text_33">
    <text style="font-weight: 700; font-size: 11px; font-family: 'Liberation Sans', 'Arimo', 'DejaVu Sans'; text-anchor: middle; fill: #ffffff" x="523.850418" y="342.458962" transform="rotate(-0 523.850418 342.458962)">ARG</text>
   </g>
   <g id="text_34">
    <text style="font-weight: 700; font-size: 9px; font-family: 'Liberation Sans', 'Arimo', 'DejaVu Sans'; text-anchor: middle; fill: #ffffff" x="523.850418" y="352.318776" transform="rotate(-0 523.850418 352.318776)">910</text>
   </g>
   <g id="text_35">
    <text style="font-weight: 700; font-size: 11px; font-family: 'Liberation Sans', 'Arimo', 'DejaVu Sans'; text-anchor: middle" x="523.850418" y="254.651788" transform="rotate(-0 523.850418 254.651788)">ILE</text>
   </g>
   <g id="text_36">
    <text style="font-weight: 700; font-size: 9px; font-family: 'Liberation Sans', 'Arimo', 'DejaVu Sans'; text-anchor: middle" x="523.850418" y="264.511601" transform="rotate(-0 523.850418 264.511601)">913</text>
   </g>
   <g id="text_37">
    <text style="font-weight: 700; font-size: 11px; font-family: 'Liberation Sans', 'Arimo', 'DejaVu Sans'; text-anchor: middle" x="479.946831" y="178.608545" transform="rotate(-0 479.946831 178.608545)">LEU</text>
   </g>
   <g id="text_38">
    <text style="font-weight: 700; font-size: 9px; font-family: 'Liberation Sans', 'Arimo', 'DejaVu Sans'; text-anchor: middle" x="479.946831" y="188.468358" transform="rotate(-0 479.946831 188.468358)">914</text>
   </g>
  </g>
  <g id="text_39">
   <text style="font-weight: 700; font-size: 15px; font-family: 'Liberation Sans', 'Arimo', 'DejaVu Sans'; text-anchor: middle" x="360" y="34.828125" transform="rotate(-0 360 34.828125)">C727S_9S18_HRO761  [score=-13.50, ΔS=+0.04, RMSD=1.42Å, resistance]</text>
  </g>
  <g id="text_40">
   <text style="font-style: italic; font-size: 12px; font-family: 'Liberation Sans', 'Arimo', 'DejaVu Sans'; text-anchor: middle; fill: #555555" x="360" y="51.936328" transform="rotate(-0 360 51.936328)">6 H-bond · 7 Hydrophobic · 1 π-cation · 3 Halogen  |  12 residues</text>
  </g>
 </g>
 <defs>
  <clipPath id="p5e4b79fecd">
   <rect x="130.5" y="70.2" width="459" height="459"/>
  </clipPath>
 </defs>
</svg>
