<?xml version="1.0" encoding="utf-8" standalone="no"?>
<!DOCTYPE svg PUBLIC "-//W3C//DTD SVG 1.1//EN"
  "http://www.w3.org/Graphics/SVG/1.1/DTD/svg11.dtd">
<svg xmlns:xlink="http://www.w3.org/1999/xlink" width="720pt" height="756pt" viewBox="0 0 720 756" xmlns="http://www.w3.org/2000/svg" version="1.1">
 <metadata>
  <rdf:RDF xmlns:dc="http://purl.org/dc/elements/1.1/" xmlns:cc="http://creativecommons.org/ns#" xmlns:rdf="http://www.w3.org/1999/02/22-rdf-syntax-ns#">
   <cc:Work>
    <dc:type rdf:resource="http://purl.org/dc/dcmitype/StillImage"/>
    <dc:date>2022-01-01T05:00:00+00:00</dc:date>
    <dc:format>image/svg+xml</dc:format>
    <dc:creator>
     <cc:Agent>
      <dc:title>Matplotlib v3.11.0, https://matplotlib.org/</dc:title>
     </cc:Agent>
    </dc:creator>
   </cc:Work>
  </rdf:RDF>
 </metadata>
 <defs>
  <style type="text/css">*{stroke-linejoin: round; stroke-linecap: butt}</style>
 </defs>
 <g id="figure_1">
  <g id="patch_1">
   <path d="M 0 756 
L 720 756 
L 720 0 
L 0 0 
z
" style="fill: #ffffff"/>
  </g>
  <g id="axes_1">
   <g id="line2d_1">
    <path d="M 205.802712 608.399011 
L 208.448873 602.814442 
L 211.150816 597.267689 
L 213.908539 591.758752 
L 216.722044 586.287631 
L 219.591329 580.854327 
L 222.516395 575.458839 
L 225.497242 570.101167 
L 228.53387 564.781311 
L 231.626279 559.499271 
L 234.774468 554.255048 
L 237.978439 549.048641 
L 241.23819 543.88005 
L 244.553722 538.749275 
L 247.925036 533.656316 
L 251.35213 528.601174 
L 254.835005 523.583848 
L 258.37366 518.604338 
L 261.968097 513.662645 
L 265.618315 508.758767 
L 269.324313 503.892706 
L 273.086092 499.064461 
L 276.903653 494.274032 
L 280.776994 489.521419 
L 284.706116 484.806623 
L 288.691018 480.129643 
L 292.731702 475.490479 
L 296.828167 470.889131 
L 300.980412 466.325599 
L 305.188439 461.799884 
" clip-path="url(#pe3fe8f886c)" style="fill: none; stroke: #75a025; stroke-opacity: 0.4; stroke-width: 4; stroke-linecap: round"/>
   </g>
   <g id="line2d_2">
    <path d="M 350.868607 654.535597 
L 348.098832 648.12999 
L 345.402703 641.705197 
L 342.780221 635.261218 
L 340.231386 628.798053 
L 337.756197 622.315702 
L 335.354654 615.814165 
L 333.026758 609.293442 
L 330.772509 602.753533 
L 328.591905 596.194438 
L 326.484949 589.616158 
L 324.451638 583.018691 
L 322.491975 576.402039 
L 320.605957 569.7662 
L 318.793586 563.111176 
L 317.054862 556.436965 
L 315.389784 549.743569 
L 313.798352 543.030987 
L 312.280567 536.299219 
L 310.836429 529.548265 
L 309.465936 522.778125 
L 308.169091 515.988799 
L 306.945891 509.180288 
L 305.796339 502.35259 
L 304.720432 495.505706 
L 303.718172 488.639637 
L 302.789559 481.754382 
L 301.934592 474.84994 
L 301.153272 467.926313 
L 300.445598 460.9835 
" clip-path="url(#pe3fe8f886c)" style="fill: none; stroke: #75a025; stroke-opacity: 0.4; stroke-width: 4; stroke-linecap: round"/>
   </g>
   <g id="line2d_3">
    <path d="M 115.580701 504.056064 
L 121.749579 496.9855 
L 127.984387 489.993191 
L 134.285127 483.079138 
L 140.651798 476.24334 
L 147.084399 469.485798 
L 153.582931 462.806511 
L 160.147395 456.20548 
L 166.777789 449.682704 
L 173.474114 443.238184 
L 180.23637 436.87192 
L 187.064556 430.583911 
L 193.958674 424.374158 
L 200.918723 418.24266 
L 207.944702 412.189418 
L 215.036612 406.214431 
L 222.194454 400.3177 
L 229.418226 394.499225 
L 236.707929 388.759005 
L 244.063562 383.09704 
L 251.485127 377.513332 
L 258.972623 372.007878 
L 266.526049 366.580681 
L 274.145407 361.231739 
L 281.830695 355.961052 
L 289.581914 350.768621 
L 297.399064 345.654446 
L 305.282145 340.618526 
L 313.231157 335.660862 
L 321.2461 330.781453 
" clip-path="url(#pe3fe8f886c)" style="fill: none; stroke: #75a025; stroke-opacity: 0.4; stroke-width: 4; stroke-linecap: round"/>
   </g>
   <g id="line2d_4">
    <path d="M 88.655297 343.566011 
L 98.543614 342.689743 
L 108.424912 341.921502 
L 118.29919 341.26129 
L 128.166449 340.709106 
L 138.026689 340.26495 
L 147.879909 339.928822 
L 157.72611 339.700722 
L 167.565292 339.580651 
L 177.397454 339.568607 
L 187.222597 339.664592 
L 197.040721 339.868604 
L 206.851826 340.180645 
L 216.655911 340.600714 
L 226.452977 341.128811 
L 236.243023 341.764936 
L 246.026051 342.509089 
L 255.802059 343.36127 
L 265.571047 344.321479 
L 275.333017 345.389717 
L 285.087967 346.565982 
L 294.835898 347.850276 
L 304.576809 349.242597 
L 314.310701 350.742947 
L 324.037574 352.351325 
L 333.757427 354.067731 
L 343.470261 355.892165 
L 353.176076 357.824627 
L 362.874872 359.865118 
L 372.566648 362.013636 
" clip-path="url(#pe3fe8f886c)" style="fill: none; stroke: #75a025; stroke-opacity: 0.4; stroke-width: 4; stroke-linecap: round"/>
   </g>
   <g id="line2d_5">
    <path d="M 145.189206 211.848672 
L 151.206912 214.370837 
L 157.187417 216.953656 
L 163.130721 219.597131 
L 169.036824 222.301262 
L 174.905726 225.066048 
L 180.737427 227.891489 
L 186.531927 230.777586 
L 192.289226 233.724338 
L 198.009324 236.731745 
L 203.692221 239.799808 
L 209.337917 242.928526 
L 214.946412 246.117899 
L 220.517706 249.367928 
L 226.0518 252.678612 
L 231.548692 256.049951 
L 237.008383 259.481946 
L 242.430873 262.974596 
L 247.816162 266.527902 
L 253.16425 270.141863 
L 258.475138 273.816479 
L 263.748824 277.551751 
L 268.985309 281.347678 
L 274.184593 285.20426 
L 279.346677 289.121498 
L 284.471559 293.099391 
L 289.55924 297.137939 
L 294.609721 301.237143 
L 299.623 305.397002 
L 304.599078 309.617517 
" clip-path="url(#pe3fe8f886c)" style="fill: none; stroke: #75a025; stroke-opacity: 0.4; stroke-width: 4; stroke-linecap: round"/>
   </g>
   <g id="line2d_6">
    <path d="M 267.367154 123.942049 
L 268.052512 131.014069 
L 268.812946 138.066928 
L 269.648457 145.100626 
L 270.559044 152.115164 
L 271.544706 159.110541 
L 272.605445 166.086758 
L 273.74126 173.043815 
L 274.952151 179.98171 
L 276.238118 186.900446 
L 277.599162 193.80002 
L 279.035281 200.680434 
L 280.546477 207.541688 
L 282.132748 214.383781 
L 283.794096 221.206714 
L 285.53052 228.010486 
L 287.34202 234.795097 
L 289.228596 241.560548 
L 291.190248 248.306838 
L 293.226976 255.033968 
L 295.33878 261.741938 
L 297.525661 268.430746 
L 299.787617 275.100395 
L 302.12465 281.750882 
L 304.536759 288.382209 
L 307.023944 294.994376 
L 309.586205 301.587382 
L 312.223542 308.161228 
L 314.935955 314.715913 
L 317.723444 321.251437 
" clip-path="url(#pe3fe8f886c)" style="fill: none; stroke: #75a025; stroke-opacity: 0.4; stroke-width: 4; stroke-linecap: round"/>
   </g>
   <g id="patch_2">
    <path d="M 162.749856 479.169571 
Q 236.382476 457.494338 308.416263 436.289754 
" clip-path="url(#pe3fe8f886c)" style="fill: none; stroke: #0279ee; stroke-width: 2; stroke-linecap: round"/>
    <path d="M 299.047529 432.793068 
L 308.416263 436.289754 
L 302.436198 444.304667 
" clip-path="url(#pe3fe8f886c)" style="fill: none; stroke: #0279ee; stroke-width: 2; stroke-linecap: round"/>
   </g>
   <g id="line2d_7">
    <path d="M 161.070537 480.619975 
L 327.684339 437.84046 
" clip-path="url(#pe3fe8f886c)" style="fill: none; stroke-dasharray: 9.6,7.2; stroke-dashoffset: 0; stroke: #fd9bed; stroke-width: 2.4"/>
   </g>
   <g id="patch_3">
    <path d="M 288.992307 362.202562 
Q 215.974678 355.102028 144.61589 348.162805 
" clip-path="url(#pe3fe8f886c)" style="fill: none; stroke: #0279ee; stroke-width: 2; stroke-linecap: round"/>
    <path d="M 151.997605 354.908936 
L 144.61589 348.162805 
L 153.159056 342.965276 
" clip-path="url(#pe3fe8f886c)" style="fill: none; stroke: #0279ee; stroke-width: 2; stroke-linecap: round"/>
   </g>
   <g id="line2d_8">
    <path d="M 141.08807 345.27661 
L 257.628649 345.316305 
" clip-path="url(#pe3fe8f886c)" style="fill: none; stroke: #8b4513; stroke-width: 2.2; stroke-linecap: square"/>
   </g>
   <g id="patch_4">
    <path d="M 579.109778 396.657189 
Q 520.398048 392.67076 463.349156 388.797236 
" clip-path="url(#pe3fe8f886c)" style="fill: none; stroke: #0279ee; stroke-width: 2; stroke-linecap: round"/>
    <path d="M 470.924325 395.325392 
L 463.349156 388.797236 
L 471.737233 383.352957 
" clip-path="url(#pe3fe8f886c)" style="fill: none; stroke: #0279ee; stroke-width: 2; stroke-linecap: round"/>
   </g>
   <g id="patch_5">
    <path d="M 550.935684 273.268986 
Q 496.697479 304.093201 443.908287 334.093925 
" clip-path="url(#pe3fe8f886c)" style="fill: none; stroke: #0279ee; stroke-width: 2; stroke-linecap: round"/>
    <path d="M 453.82812 335.357614 
L 443.908287 334.093925 
L 447.898982 324.924718 
" clip-path="url(#pe3fe8f886c)" style="fill: none; stroke: #0279ee; stroke-width: 2; stroke-linecap: round"/>
   </g>
   <g id="patch_6">
    <path d="M 465.118047 574.606151 
Q 427.938199 506.404284 391.556087 439.665768 
" clip-path="url(#pe3fe8f886c)" style="fill: none; stroke: #0279ee; stroke-width: 2; stroke-linecap: round"/>
    <path d="M 390.117163 449.561701 
L 391.556087 439.665768 
L 400.653284 443.817996 
" clip-path="url(#pe3fe8f886c)" style="fill: none; stroke: #0279ee; stroke-width: 2; stroke-linecap: round"/>
   </g>
   <g id="line2d_9">
    <path d="M 387.66598 158.308713 
L 305.026231 260.747928 
" clip-path="url(#pe3fe8f886c)" style="fill: none; stroke: #8b4513; stroke-width: 2.2; stroke-linecap: square"/>
   </g>
   <g id="line2d_10">
    <path d="M 391.031463 160.61613 
L 323.16073 278.28437 
" clip-path="url(#pe3fe8f886c)" style="fill: none; stroke: #8b4513; stroke-width: 2.2; stroke-linecap: square"/>
   </g>
   <g id="line2d_11">
    <path d="M 367.756447 399.512557 
L 351.102814 390.480428 
" clip-path="url(#pe3fe8f886c)" style="fill: none; stroke: #222222; stroke-width: 2; stroke-linecap: round"/>
   </g>
   <g id="line2d_12">
    <path d="M 368.26121 418.451091 
L 367.756447 399.512557 
" clip-path="url(#pe3fe8f886c)" style="fill: none; stroke: #222222; stroke-width: 2; stroke-linecap: round"/>
   </g>
   <g id="line2d_13">
    <path d="M 384.914843 427.48322 
L 368.26121 418.451091 
" clip-path="url(#pe3fe8f886c)" style="fill: none; stroke: #222222; stroke-width: 2; stroke-linecap: round"/>
   </g>
   <g id="line2d_14">
    <path d="M 352.11234 428.357496 
L 368.26121 418.451091 
" clip-path="url(#pe3fe8f886c)" style="fill: none; stroke: #222222; stroke-width: 2; stroke-linecap: round"/>
   </g>
   <g id="line2d_15">
    <path d="M 348.66853 446.987124 
L 352.11234 428.357496 
" clip-path="url(#pe3fe8f886c)" style="fill: none; stroke: #222222; stroke-width: 2; stroke-linecap: round"/>
   </g>
   <g id="line2d_16">
    <path d="M 329.886506 449.468737 
L 348.66853 446.987124 
" clip-path="url(#pe3fe8f886c)" style="fill: none; stroke: #222222; stroke-width: 2; stroke-linecap: round"/>
   </g>
   <g id="line2d_17">
    <path d="M 321.722386 432.372831 
L 329.886506 449.468737 
" clip-path="url(#pe3fe8f886c)" style="fill: none; stroke: #222222; stroke-width: 2; stroke-linecap: round"/>
   </g>
   <g id="line2d_18">
    <path d="M 335.458707 419.325367 
L 321.722386 432.372831 
" clip-path="url(#pe3fe8f886c)" style="fill: none; stroke: #222222; stroke-width: 2; stroke-linecap: round"/>
   </g>
   <g id="line2d_19">
    <path d="M 335.458707 419.325367 
L 352.11234 428.357496 
" clip-path="url(#pe3fe8f886c)" style="fill: none; stroke: #222222; stroke-width: 2; stroke-linecap: round"/>
   </g>
   <g id="line2d_20">
    <path d="M 334.953944 400.386833 
L 335.458707 419.325367 
" clip-path="url(#pe3fe8f886c)" style="fill: none; stroke: #222222; stroke-width: 2; stroke-linecap: round"/>
   </g>
   <g id="line2d_21">
    <path d="M 334.953944 400.386833 
L 351.102814 390.480428 
" clip-path="url(#pe3fe8f886c)" style="fill: none; stroke: #222222; stroke-width: 2; stroke-linecap: round"/>
   </g>
   <g id="line2d_22">
    <path d="M 383.905317 389.606153 
L 367.756447 399.512557 
" clip-path="url(#pe3fe8f886c)" style="fill: none; stroke: #222222; stroke-width: 2; stroke-linecap: round"/>
   </g>
   <g id="line2d_23">
    <path d="M 400.55895 398.638282 
L 383.905317 389.606153 
" clip-path="url(#pe3fe8f886c)" style="fill: none; stroke: #222222; stroke-width: 2; stroke-linecap: round"/>
   </g>
   <g id="line2d_24">
    <path d="M 416.70782 388.731877 
L 400.55895 398.638282 
" clip-path="url(#pe3fe8f886c)" style="fill: none; stroke: #222222; stroke-width: 2; stroke-linecap: round"/>
   </g>
   <g id="line2d_25">
    <path d="M 416.203057 369.793343 
L 416.70782 388.731877 
" clip-path="url(#pe3fe8f886c)" style="fill: none; stroke: #222222; stroke-width: 2; stroke-linecap: round"/>
   </g>
   <g id="line2d_26">
    <path d="M 432.351926 359.886939 
L 416.203057 369.793343 
" clip-path="url(#pe3fe8f886c)" style="fill: none; stroke: #222222; stroke-width: 2; stroke-linecap: round"/>
   </g>
   <g id="line2d_27">
    <path d="M 431.847163 340.948405 
L 432.351926 359.886939 
" clip-path="url(#pe3fe8f886c)" style="fill: none; stroke: #222222; stroke-width: 2; stroke-linecap: round"/>
   </g>
   <g id="line2d_28">
    <path d="M 399.549424 360.761214 
L 416.203057 369.793343 
" clip-path="url(#pe3fe8f886c)" style="fill: none; stroke: #222222; stroke-width: 2; stroke-linecap: round"/>
   </g>
   <g id="line2d_29">
    <path d="M 383.400554 370.667619 
L 399.549424 360.761214 
" clip-path="url(#pe3fe8f886c)" style="fill: none; stroke: #222222; stroke-width: 2; stroke-linecap: round"/>
   </g>
   <g id="line2d_30">
    <path d="M 383.400554 370.667619 
L 383.905317 389.606153 
" clip-path="url(#pe3fe8f886c)" style="fill: none; stroke: #222222; stroke-width: 2; stroke-linecap: round"/>
   </g>
   <g id="line2d_31">
    <path d="M 449.00556 368.919068 
L 432.351926 359.886939 
" clip-path="url(#pe3fe8f886c)" style="fill: none; stroke: #222222; stroke-width: 2; stroke-linecap: round"/>
   </g>
   <g id="line2d_32">
    <path d="M 449.510323 387.857602 
L 449.00556 368.919068 
" clip-path="url(#pe3fe8f886c)" style="fill: none; stroke: #222222; stroke-width: 2; stroke-linecap: round"/>
   </g>
   <g id="line2d_33">
    <path d="M 466.163956 396.889731 
L 449.510323 387.857602 
" clip-path="url(#pe3fe8f886c)" style="fill: none; stroke: #222222; stroke-width: 2; stroke-linecap: round"/>
   </g>
   <g id="line2d_34">
    <path d="M 482.312826 386.983326 
L 466.163956 396.889731 
" clip-path="url(#pe3fe8f886c)" style="fill: none; stroke: #222222; stroke-width: 2; stroke-linecap: round"/>
   </g>
   <g id="line2d_35">
    <path d="M 481.808063 368.044793 
L 482.312826 386.983326 
" clip-path="url(#pe3fe8f886c)" style="fill: none; stroke: #222222; stroke-width: 2; stroke-linecap: round"/>
   </g>
   <g id="line2d_36">
    <path d="M 497.956932 358.138388 
L 481.808063 368.044793 
" clip-path="url(#pe3fe8f886c)" style="fill: none; stroke: #222222; stroke-width: 2; stroke-linecap: round"/>
   </g>
   <g id="line2d_37">
    <path d="M 465.154429 359.012663 
L 481.808063 368.044793 
" clip-path="url(#pe3fe8f886c)" style="fill: none; stroke: #222222; stroke-width: 2; stroke-linecap: round"/>
   </g>
   <g id="line2d_38">
    <path d="M 465.154429 359.012663 
L 449.00556 368.919068 
" clip-path="url(#pe3fe8f886c)" style="fill: none; stroke: #222222; stroke-width: 2; stroke-linecap: round"/>
   </g>
   <g id="line2d_39">
    <path d="M 464.649666 340.074129 
L 465.154429 359.012663 
" clip-path="url(#pe3fe8f886c)" style="fill: none; stroke: #222222; stroke-width: 2; stroke-linecap: round"/>
   </g>
   <g id="line2d_40">
    <path d="M 320.854376 466.12237 
L 329.886506 449.468737 
" clip-path="url(#pe3fe8f886c)" style="fill: none; stroke: #222222; stroke-width: 2; stroke-linecap: round"/>
   </g>
   <g id="line2d_41">
    <path d="M 301.915843 466.627134 
L 320.854376 466.12237 
" clip-path="url(#pe3fe8f886c)" style="fill: none; stroke: #222222; stroke-width: 2; stroke-linecap: round"/>
   </g>
   <g id="line2d_42">
    <path d="M 292.883713 483.280767 
L 301.915843 466.627134 
" clip-path="url(#pe3fe8f886c)" style="fill: none; stroke: #222222; stroke-width: 2; stroke-linecap: round"/>
   </g>
   <g id="line2d_43">
    <path d="M 302.790118 499.429637 
L 292.883713 483.280767 
" clip-path="url(#pe3fe8f886c)" style="fill: none; stroke: #222222; stroke-width: 2; stroke-linecap: round"/>
   </g>
   <g id="line2d_44">
    <path d="M 321.728652 498.924873 
L 302.790118 499.429637 
" clip-path="url(#pe3fe8f886c)" style="fill: none; stroke: #222222; stroke-width: 2; stroke-linecap: round"/>
   </g>
   <g id="line2d_45">
    <path d="M 330.760781 482.27124 
L 320.854376 466.12237 
" clip-path="url(#pe3fe8f886c)" style="fill: none; stroke: #222222; stroke-width: 2; stroke-linecap: round"/>
   </g>
   <g id="line2d_46">
    <path d="M 330.760781 482.27124 
L 321.728652 498.924873 
" clip-path="url(#pe3fe8f886c)" style="fill: none; stroke: #222222; stroke-width: 2; stroke-linecap: round"/>
   </g>
   <g id="line2d_47">
    <path d="M 350.598051 371.541894 
L 366.746921 361.635489 
" clip-path="url(#pe3fe8f886c)" style="fill: none; stroke: #222222; stroke-width: 2; stroke-linecap: round"/>
   </g>
   <g id="line2d_48">
    <path d="M 350.598051 371.541894 
L 351.102814 390.480428 
" clip-path="url(#pe3fe8f886c)" style="fill: none; stroke: #222222; stroke-width: 2; stroke-linecap: round"/>
   </g>
   <g id="line2d_49">
    <path d="M 318.300311 391.354703 
L 334.953944 400.386833 
" clip-path="url(#pe3fe8f886c)" style="fill: none; stroke: #222222; stroke-width: 2; stroke-linecap: round"/>
   </g>
   <g id="line2d_50">
    <path d="M 317.795548 372.41617 
L 318.300311 391.354703 
" clip-path="url(#pe3fe8f886c)" style="fill: none; stroke: #222222; stroke-width: 2; stroke-linecap: round"/>
   </g>
   <g id="line2d_51">
    <path d="M 333.944418 362.509765 
L 317.795548 372.41617 
" clip-path="url(#pe3fe8f886c)" style="fill: none; stroke: #222222; stroke-width: 2; stroke-linecap: round"/>
   </g>
   <g id="line2d_52">
    <path d="M 301.141915 363.38404 
L 317.795548 372.41617 
" clip-path="url(#pe3fe8f886c)" style="fill: none; stroke: #222222; stroke-width: 2; stroke-linecap: round"/>
   </g>
   <g id="line2d_53">
    <path d="M 300.637152 344.445506 
L 301.141915 363.38404 
" clip-path="url(#pe3fe8f886c)" style="fill: none; stroke: #222222; stroke-width: 2; stroke-linecap: round"/>
   </g>
   <g id="line2d_54">
    <path d="M 316.786021 334.539102 
L 300.637152 344.445506 
" clip-path="url(#pe3fe8f886c)" style="fill: none; stroke: #222222; stroke-width: 2; stroke-linecap: round"/>
   </g>
   <g id="line2d_55">
    <path d="M 316.281258 315.600568 
L 316.786021 334.539102 
" clip-path="url(#pe3fe8f886c)" style="fill: none; stroke: #222222; stroke-width: 2; stroke-linecap: round"/>
   </g>
   <g id="line2d_56">
    <path d="M 299.627625 306.568439 
L 316.281258 315.600568 
" clip-path="url(#pe3fe8f886c)" style="fill: none; stroke: #222222; stroke-width: 2; stroke-linecap: round"/>
   </g>
   <g id="line2d_57">
    <path d="M 283.478755 316.474843 
L 299.627625 306.568439 
" clip-path="url(#pe3fe8f886c)" style="fill: none; stroke: #222222; stroke-width: 2; stroke-linecap: round"/>
   </g>
   <g id="line2d_58">
    <path d="M 283.983518 335.413377 
L 283.478755 316.474843 
" clip-path="url(#pe3fe8f886c)" style="fill: none; stroke: #222222; stroke-width: 2; stroke-linecap: round"/>
   </g>
   <g id="line2d_59">
    <path d="M 283.983518 335.413377 
L 300.637152 344.445506 
" clip-path="url(#pe3fe8f886c)" style="fill: none; stroke: #222222; stroke-width: 2; stroke-linecap: round"/>
   </g>
   <g id="line2d_60">
    <path d="M 267.834649 345.319782 
L 283.983518 335.413377 
" clip-path="url(#pe3fe8f886c)" style="fill: none; stroke: #222222; stroke-width: 2; stroke-linecap: round"/>
   </g>
   <g id="line2d_61">
    <path d="M 299.122862 287.629905 
L 299.627625 306.568439 
" clip-path="url(#pe3fe8f886c)" style="fill: none; stroke: #222222; stroke-width: 2; stroke-linecap: round"/>
   </g>
   <g id="line2d_62">
    <path d="M 298.618099 268.691371 
L 299.122862 287.629905 
" clip-path="url(#pe3fe8f886c)" style="fill: none; stroke: #222222; stroke-width: 2; stroke-linecap: round"/>
   </g>
   <g id="line2d_63">
    <path d="M 318.061396 287.125141 
L 299.122862 287.629905 
" clip-path="url(#pe3fe8f886c)" style="fill: none; stroke: #222222; stroke-width: 2; stroke-linecap: round"/>
   </g>
   <g id="line2d_64">
    <path d="M 280.184328 288.134668 
L 299.122862 287.629905 
" clip-path="url(#pe3fe8f886c)" style="fill: none; stroke: #222222; stroke-width: 2; stroke-linecap: round"/>
   </g>
   <g id="text_1">
    <g id="patch_7">
     <path d="M 380.007968 433.35408 
L 389.821718 433.35408 
L 389.821718 421.612361 
L 380.007968 421.612361 
z
" style="fill: #ffffff"/>
    </g>
    <text style="font-weight: 700; font-size: 12px; font-family: 'Liberation Sans', 'Arimo', 'DejaVu Sans'; text-anchor: middle; fill: #d40000" x="384.914843" y="430.588689" transform="rotate(-0 384.914843 430.588689)">O</text>
   </g>
   <g id="text_2">
    <g id="patch_8">
     <path d="M 347.539215 434.228355 
L 356.685465 434.228355 
L 356.685465 422.486637 
L 347.539215 422.486637 
z
" style="fill: #ffffff"/>
    </g>
    <text style="font-weight: 700; font-size: 12px; font-family: 'Liberation Sans', 'Arimo', 'DejaVu Sans'; text-anchor: middle; fill: #0879c0" x="352.11234" y="431.462965" transform="rotate(-0 352.11234 431.462965)">N</text>
   </g>
   <g id="text_3">
    <g id="patch_9">
     <path d="M 344.095405 452.857983 
L 353.241655 452.857983 
L 353.241655 441.116264 
L 344.095405 441.116264 
z
" style="fill: #ffffff"/>
    </g>
    <text style="font-weight: 700; font-size: 12px; font-family: 'Liberation Sans', 'Arimo', 'DejaVu Sans'; text-anchor: middle; fill: #0879c0" x="348.66853" y="450.092592" transform="rotate(-0 348.66853 450.092592)">N</text>
   </g>
   <g id="text_4">
    <g id="patch_10">
     <path d="M 317.149261 438.243691 
L 326.295511 438.243691 
L 326.295511 426.501972 
L 317.149261 426.501972 
z
" style="fill: #ffffff"/>
    </g>
    <text style="font-weight: 700; font-size: 12px; font-family: 'Liberation Sans', 'Arimo', 'DejaVu Sans'; text-anchor: middle; fill: #0879c0" x="321.722386" y="435.4783" transform="rotate(-0 321.722386 435.4783)">N</text>
   </g>
   <g id="text_5">
    <g id="patch_11">
     <path d="M 330.380819 406.257692 
L 339.527069 406.257692 
L 339.527069 394.515973 
L 330.380819 394.515973 
z
" style="fill: #ffffff"/>
    </g>
    <text style="font-weight: 700; font-size: 12px; font-family: 'Liberation Sans', 'Arimo', 'DejaVu Sans'; text-anchor: middle; fill: #0879c0" x="334.953944" y="403.492301" transform="rotate(-0 334.953944 403.492301)">N</text>
   </g>
   <g id="text_6">
    <g id="patch_12">
     <path d="M 379.332192 395.477012 
L 388.478442 395.477012 
L 388.478442 383.735293 
L 379.332192 383.735293 
z
" style="fill: #ffffff"/>
    </g>
    <text style="font-weight: 700; font-size: 12px; font-family: 'Liberation Sans', 'Arimo', 'DejaVu Sans'; text-anchor: middle; fill: #0879c0" x="383.905317" y="392.711621" transform="rotate(-0 383.905317 392.711621)">N</text>
   </g>
   <g id="text_7">
    <g id="patch_13">
     <path d="M 411.629932 375.664203 
L 420.776182 375.664203 
L 420.776182 363.922484 
L 411.629932 363.922484 
z
" style="fill: #ffffff"/>
    </g>
    <text style="font-weight: 700; font-size: 12px; font-family: 'Liberation Sans', 'Arimo', 'DejaVu Sans'; text-anchor: middle; fill: #0879c0" x="416.203057" y="372.898812" transform="rotate(-0 416.203057 372.898812)">N</text>
   </g>
   <g id="text_8">
    <g id="patch_14">
     <path d="M 426.940288 346.819264 
L 436.754038 346.819264 
L 436.754038 335.077545 
L 426.940288 335.077545 
z
" style="fill: #ffffff"/>
    </g>
    <text style="font-weight: 700; font-size: 12px; font-family: 'Liberation Sans', 'Arimo', 'DejaVu Sans'; text-anchor: middle; fill: #d40000" x="431.847163" y="344.053874" transform="rotate(-0 431.847163 344.053874)">O</text>
   </g>
   <g id="text_9">
    <g id="patch_15">
     <path d="M 444.937198 393.728461 
L 454.083448 393.728461 
L 454.083448 381.986742 
L 444.937198 381.986742 
z
" style="fill: #ffffff"/>
    </g>
    <text style="font-weight: 700; font-size: 12px; font-family: 'Liberation Sans', 'Arimo', 'DejaVu Sans'; text-anchor: middle; fill: #0879c0" x="449.510323" y="390.963071" transform="rotate(-0 449.510323 390.963071)">N</text>
   </g>
   <g id="text_10">
    <g id="patch_16">
     <path d="M 477.739701 392.854186 
L 486.885951 392.854186 
L 486.885951 381.112467 
L 477.739701 381.112467 
z
" style="fill: #ffffff"/>
    </g>
    <text style="font-weight: 700; font-size: 12px; font-family: 'Liberation Sans', 'Arimo', 'DejaVu Sans'; text-anchor: middle; fill: #0879c0" x="482.312826" y="390.088795" transform="rotate(-0 482.312826 390.088795)">N</text>
   </g>
   <g id="text_11">
    <g id="patch_17">
     <path d="M 459.742791 345.944989 
L 469.556541 345.944989 
L 469.556541 334.20327 
L 459.742791 334.20327 
z
" style="fill: #ffffff"/>
    </g>
    <text style="font-weight: 700; font-size: 12px; font-family: 'Liberation Sans', 'Arimo', 'DejaVu Sans'; text-anchor: middle; fill: #d40000" x="464.649666" y="343.179598" transform="rotate(-0 464.649666 343.179598)">O</text>
   </g>
   <g id="text_12">
    <g id="patch_18">
     <path d="M 297.883243 505.300496 
L 307.696993 505.300496 
L 307.696993 493.558777 
L 297.883243 493.558777 
z
" style="fill: #ffffff"/>
    </g>
    <text style="font-weight: 700; font-size: 12px; font-family: 'Liberation Sans', 'Arimo', 'DejaVu Sans'; text-anchor: middle; fill: #d40000" x="302.790118" y="502.535105" transform="rotate(-0 302.790118 502.535105)">O</text>
   </g>
   <g id="text_13">
    <g id="patch_19">
     <path d="M 329.037543 368.380624 
L 338.851293 368.380624 
L 338.851293 356.638905 
L 329.037543 356.638905 
z
" style="fill: #ffffff"/>
    </g>
    <text style="font-weight: 700; font-size: 12px; font-family: 'Liberation Sans', 'Arimo', 'DejaVu Sans'; text-anchor: middle; fill: #d40000" x="333.944418" y="365.615234" transform="rotate(-0 333.944418 365.615234)">O</text>
   </g>
   <g id="text_14">
    <g id="patch_20">
     <path d="M 296.56879 369.2549 
L 305.71504 369.2549 
L 305.71504 357.513181 
L 296.56879 357.513181 
z
" style="fill: #ffffff"/>
    </g>
    <text style="font-weight: 700; font-size: 12px; font-family: 'Liberation Sans', 'Arimo', 'DejaVu Sans'; text-anchor: middle; fill: #0879c0" x="301.141915" y="366.489509" transform="rotate(-0 301.141915 366.489509)">N</text>
   </g>
   <g id="text_15">
    <g id="patch_21">
     <path d="M 261.594649 351.190641 
L 274.074649 351.190641 
L 274.074649 339.448922 
L 261.594649 339.448922 
z
" style="fill: #ffffff"/>
    </g>
    <text style="font-weight: 700; font-size: 12px; font-family: 'Liberation Sans', 'Arimo', 'DejaVu Sans'; text-anchor: middle; fill: #00a040" x="267.834649" y="348.42525" transform="rotate(-0 267.834649 348.42525)">Cl</text>
   </g>
   <g id="text_16">
    <g id="patch_22">
     <path d="M 294.713411 274.56223 
L 302.522786 274.56223 
L 302.522786 262.820511 
L 294.713411 262.820511 
z
" style="fill: #ffffff"/>
    </g>
    <text style="font-weight: 700; font-size: 12px; font-family: 'Liberation Sans', 'Arimo', 'DejaVu Sans'; text-anchor: middle; fill: #00a040" x="298.618099" y="271.796839" transform="rotate(-0 298.618099 271.796839)">F</text>
   </g>
   <g id="text_17">
    <g id="patch_23">
     <path d="M 314.156709 292.996001 
L 321.966084 292.996001 
L 321.966084 281.254282 
L 314.156709 281.254282 
z
" style="fill: #ffffff"/>
    </g>
    <text style="font-weight: 700; font-size: 12px; font-family: 'Liberation Sans', 'Arimo', 'DejaVu Sans'; text-anchor: middle; fill: #00a040" x="318.061396" y="290.23061" transform="rotate(-0 318.061396 290.23061)">F</text>
   </g>
   <g id="text_18">
    <g id="patch_24">
     <path d="M 276.279641 294.005527 
L 284.089016 294.005527 
L 284.089016 282.263808 
L 276.279641 282.263808 
z
" style="fill: #ffffff"/>
    </g>
    <text style="font-weight: 700; font-size: 12px; font-family: 'Liberation Sans', 'Arimo', 'DejaVu Sans'; text-anchor: middle; fill: #00a040" x="280.184328" y="291.240136" transform="rotate(-0 280.184328 291.240136)">F</text>
   </g>
   <g id="patch_25">
    <path d="M 220.529394 611.462387 
C 227.102718 611.462387 233.4077 608.850778 238.055742 604.202736 
C 242.703784 599.554694 245.315394 593.249711 245.315394 586.676387 
C 245.315394 580.103063 242.703784 573.798081 238.055742 569.150039 
C 233.4077 564.501997 227.102718 561.890387 220.529394 561.890387 
C 213.95607 561.890387 207.651087 564.501997 203.003045 569.150039 
C 198.355003 573.798081 195.743394 580.103063 195.743394 586.676387 
C 195.743394 593.249711 198.355003 599.554694 203.003045 604.202736 
C 207.651087 608.850778 213.95607 611.462387 220.529394 611.462387 
z
" clip-path="url(#pe3fe8f886c)" style="fill: #8bc34a; stroke: #222222; stroke-width: 1.2; stroke-linejoin: miter"/>
   </g>
   <g id="patch_26">
    <path d="M 344.252504 653.925245 
C 350.825828 653.925245 357.130811 651.313635 361.778853 646.665593 
C 366.426895 642.017551 369.038504 635.712569 369.038504 629.139245 
C 369.038504 622.565921 366.426895 616.260938 361.778853 611.612896 
C 357.130811 606.964854 350.825828 604.353245 344.252504 604.353245 
C 337.67918 604.353245 331.374198 606.964854 326.726156 611.612896 
C 322.078114 616.260938 319.466504 622.565921 319.466504 629.139245 
C 319.466504 635.712569 322.078114 642.017551 326.726156 646.665593 
C 331.374198 651.313635 337.67918 653.925245 344.252504 653.925245 
z
" clip-path="url(#pe3fe8f886c)" style="fill: #8bc34a; stroke: #222222; stroke-width: 1.2; stroke-linejoin: miter"/>
   </g>
   <g id="patch_27">
    <path d="M 135.651053 511.932645 
C 142.224377 511.932645 148.52936 509.321035 153.177402 504.672993 
C 157.825444 500.024951 160.437053 493.719969 160.437053 487.146645 
C 160.437053 480.57332 157.825444 474.268338 153.177402 469.620296 
C 148.52936 464.972254 142.224377 462.360645 135.651053 462.360645 
C 129.077729 462.360645 122.772747 464.972254 118.124705 469.620296 
C 113.476663 474.268338 110.865053 480.57332 110.865053 487.146645 
C 110.865053 493.719969 113.476663 500.024951 118.124705 504.672993 
C 122.772747 509.321035 129.077729 511.932645 135.651053 511.932645 
z
" clip-path="url(#pe3fe8f886c)" style="fill: #5087c5; stroke: #222222; stroke-width: 1.2; stroke-linejoin: miter"/>
   </g>
   <g id="patch_28">
    <path d="M 114.844071 370.053671 
C 121.417395 370.053671 127.722378 367.442062 132.37042 362.79402 
C 137.018462 358.145978 139.630071 351.840995 139.630071 345.267671 
C 139.630071 338.694347 137.018462 332.389365 132.37042 327.741323 
C 127.722378 323.093281 121.417395 320.481671 114.844071 320.481671 
C 108.270747 320.481671 101.965764 323.093281 97.317722 327.741323 
C 92.66968 332.389365 90.058071 338.694347 90.058071 345.267671 
C 90.058071 351.840995 92.66968 358.145978 97.317722 362.79402 
C 101.965764 367.442062 108.270747 370.053671 114.844071 370.053671 
z
" clip-path="url(#pe3fe8f886c)" style="fill: #f5a623; stroke: #222222; stroke-width: 1.2; stroke-linejoin: miter"/>
   </g>
   <g id="patch_29">
    <path d="M 167.560744 250.355525 
C 174.134068 250.355525 180.439051 247.743916 185.087093 243.095874 
C 189.735135 238.447832 192.346744 232.142849 192.346744 225.569525 
C 192.346744 218.996201 189.735135 212.691219 185.087093 208.043177 
C 180.439051 203.395135 174.134068 200.783525 167.560744 200.783525 
C 160.98742 200.783525 154.682437 203.395135 150.034395 208.043177 
C 145.386353 212.691219 142.774744 218.996201 142.774744 225.569525 
C 142.774744 232.142849 145.386353 238.447832 150.034395 243.095874 
C 154.682437 247.743916 160.98742 250.355525 167.560744 250.355525 
z
" clip-path="url(#pe3fe8f886c)" style="fill: #8bc34a; stroke: #222222; stroke-width: 1.2; stroke-linejoin: miter"/>
   </g>
   <g id="patch_30">
    <path d="M 273.85699 174.156961 
C 280.430314 174.156961 286.735297 171.545352 291.383339 166.89731 
C 296.031381 162.249268 298.64299 155.944285 298.64299 149.370961 
C 298.64299 142.797637 296.031381 136.492654 291.383339 131.844612 
C 286.735297 127.19657 280.430314 124.584961 273.85699 124.584961 
C 267.283666 124.584961 260.978683 127.19657 256.330641 131.844612 
C 251.682599 136.492654 249.07099 142.797637 249.07099 149.370961 
C 249.07099 155.944285 251.682599 162.249268 256.330641 166.89731 
C 260.978683 171.545352 267.283666 174.156961 273.85699 174.156961 
z
" clip-path="url(#pe3fe8f886c)" style="fill: #8bc34a; stroke: #222222; stroke-width: 1.2; stroke-linejoin: miter"/>
   </g>
   <g id="patch_31">
    <path d="M 607.290628 423.356622 
C 613.863952 423.356622 620.168935 420.745013 624.816977 416.096971 
C 629.465019 411.448929 632.076628 405.143946 632.076628 398.570622 
C 632.076628 391.997298 629.465019 385.692315 624.816977 381.044273 
C 620.168935 376.396231 613.863952 373.784622 607.290628 373.784622 
C 600.717304 373.784622 594.412321 376.396231 589.764279 381.044273 
C 585.116237 385.692315 582.504628 391.997298 582.504628 398.570622 
C 582.504628 405.143946 585.116237 411.448929 589.764279 416.096971 
C 594.412321 420.745013 600.717304 423.356622 607.290628 423.356622 
z
" clip-path="url(#pe3fe8f886c)" style="fill: #8bc34a; stroke: #222222; stroke-width: 1.2; stroke-linejoin: miter"/>
   </g>
   <g id="patch_32">
    <path d="M 575.491465 284.099644 
C 582.064789 284.099644 588.369771 281.488035 593.017813 276.839993 
C 597.665855 272.191951 600.277465 265.886968 600.277465 259.313644 
C 600.277465 252.74032 597.665855 246.435338 593.017813 241.787296 
C 588.369771 237.139254 582.064789 234.527644 575.491465 234.527644 
C 568.918141 234.527644 562.613158 237.139254 557.965116 241.787296 
C 553.317074 246.435338 550.705465 252.74032 550.705465 259.313644 
C 550.705465 265.886968 553.317074 272.191951 557.965116 276.839993 
C 562.613158 281.488035 568.918141 284.099644 575.491465 284.099644 
z
" clip-path="url(#pe3fe8f886c)" style="fill: #5087c5; stroke: #222222; stroke-width: 1.2; stroke-linejoin: miter"/>
   </g>
   <g id="patch_33">
    <path d="M 478.636224 624.189588 
C 485.209548 624.189588 491.514531 621.577978 496.162573 616.929936 
C 500.810615 612.281894 503.422224 605.976912 503.422224 599.403588 
C 503.422224 592.830264 500.810615 586.525281 496.162573 581.877239 
C 491.514531 577.229197 485.209548 574.617588 478.636224 574.617588 
C 472.0629 574.617588 465.757918 577.229197 461.109876 581.877239 
C 456.461834 586.525281 453.850224 592.830264 453.850224 599.403588 
C 453.850224 605.976912 456.461834 612.281894 461.109876 616.929936 
C 465.757918 621.577978 472.0629 624.189588 478.636224 624.189588 
z
" clip-path="url(#pe3fe8f886c)" style="fill: #5087c5; stroke: #222222; stroke-width: 1.2; stroke-linejoin: miter"/>
   </g>
   <g id="patch_34">
    <path d="M 404.144035 162.668719 
C 410.717359 162.668719 417.022342 160.057109 421.670384 155.409067 
C 426.318426 150.761025 428.930035 144.456043 428.930035 137.882719 
C 428.930035 131.309395 426.318426 125.004412 421.670384 120.35637 
C 417.022342 115.708328 410.717359 113.096719 404.144035 113.096719 
C 397.570711 113.096719 391.265728 115.708328 386.617686 120.35637 
C 381.969644 125.004412 379.358035 131.309395 379.358035 137.882719 
C 379.358035 144.456043 381.969644 150.761025 386.617686 155.409067 
C 391.265728 160.057109 397.570711 162.668719 404.144035 162.668719 
z
" clip-path="url(#pe3fe8f886c)" style="fill: #5087c5; stroke: #222222; stroke-width: 1.2; stroke-linejoin: miter"/>
   </g>
   <g id="text_19">
    <text style="font-weight: 700; font-size: 8.5px; font-family: 'Liberation Sans', 'Arimo', 'DejaVu Sans'; text-anchor: middle; fill: #222222" x="220.529394" y="588.876094" transform="rotate(-0 220.529394 588.876094)">A706</text>
   </g>
   <g id="text_20">
    <text style="font-weight: 700; font-size: 8.5px; font-family: 'Liberation Sans', 'Arimo', 'DejaVu Sans'; text-anchor: middle; fill: #222222" x="344.252504" y="631.338952" transform="rotate(-0 344.252504 631.338952)">F730</text>
   </g>
   <g id="text_21">
    <text style="font-weight: 700; font-size: 8.5px; font-family: 'Liberation Sans', 'Arimo', 'DejaVu Sans'; text-anchor: middle; fill: #ffffff" x="135.651053" y="489.346352" transform="rotate(-0 135.651053 489.346352)">R732</text>
   </g>
   <g id="text_22">
    <text style="font-weight: 700; font-size: 8.5px; font-family: 'Liberation Sans', 'Arimo', 'DejaVu Sans'; text-anchor: middle; fill: #222222" x="114.844071" y="347.467378" transform="rotate(-0 114.844071 347.467378)">Y849</text>
   </g>
   <g id="text_23">
    <text style="font-weight: 700; font-size: 8.5px; font-family: 'Liberation Sans', 'Arimo', 'DejaVu Sans'; text-anchor: middle; fill: #222222" x="167.560744" y="227.769232" transform="rotate(-0 167.560744 227.769232)">I913</text>
   </g>
   <g id="text_24">
    <text style="font-weight: 700; font-size: 8.5px; font-family: 'Liberation Sans', 'Arimo', 'DejaVu Sans'; text-anchor: middle; fill: #222222" x="273.85699" y="151.570668" transform="rotate(-0 273.85699 151.570668)">L914</text>
   </g>
   <g id="text_25">
    <text style="font-weight: 700; font-size: 8.5px; font-family: 'Liberation Sans', 'Arimo', 'DejaVu Sans'; text-anchor: middle; fill: #222222" x="607.290628" y="400.770329" transform="rotate(-0 607.290628 400.770329)">G827</text>
   </g>
   <g id="text_26">
    <text style="font-weight: 700; font-size: 8.5px; font-family: 'Liberation Sans', 'Arimo', 'DejaVu Sans'; text-anchor: middle; fill: #ffffff" x="575.491465" y="261.513351" transform="rotate(-0 575.491465 261.513351)">R854</text>
   </g>
   <g id="text_27">
    <text style="font-weight: 700; font-size: 8.5px; font-family: 'Liberation Sans', 'Arimo', 'DejaVu Sans'; text-anchor: middle; fill: #ffffff" x="478.636224" y="601.603295" transform="rotate(-0 478.636224 601.603295)">R857</text>
   </g>
   <g id="text_28">
    <text style="font-weight: 700; font-size: 8.5px; font-family: 'Liberation Sans', 'Arimo', 'DejaVu Sans'; text-anchor: middle; fill: #ffffff" x="404.144035" y="140.082426" transform="rotate(-0 404.144035 140.082426)">R910</text>
   </g>
  </g>
  <g id="patch_35">
   <path d="M 104.240391 714.42 
Q 109.43969 714.42 112.514724 714.42 
" style="fill: none; stroke: #0279ee; stroke-width: 1.9; stroke-linecap: round"/>
   <path d="M 107.714724 712.02 
L 112.514724 714.42 
L 107.714724 716.82 
" style="fill: none; stroke: #0279ee; stroke-width: 1.9; stroke-linecap: round"/>
  </g>
  <g id="patch_36">
   <path d="M 92.16 743.148 
C 93.68757 743.148 95.15278 742.510745 96.232935 741.376582 
C 97.31309 740.242419 97.92 738.703948 97.92 737.1 
C 97.92 735.496052 97.31309 733.957581 96.232935 732.823418 
C 95.15278 731.689255 93.68757 731.052 92.16 731.052 
C 90.63243 731.052 89.16722 731.689255 88.087065 732.823418 
C 87.00691 733.957581 86.4 735.496052 86.4 737.1 
C 86.4 738.703948 87.00691 740.242419 88.087065 741.376582 
C 89.16722 742.510745 90.63243 743.148 92.16 743.148 
z
" style="fill: #5087c5; stroke: #222222; stroke-width: 0.8; stroke-linejoin: miter"/>
  </g>
  <g id="patch_37">
   <path d="M 218.88 743.148 
C 220.40757 743.148 221.87278 742.510745 222.952935 741.376582 
C 224.03309 740.242419 224.64 738.703948 224.64 737.1 
C 224.64 735.496052 224.03309 733.957581 222.952935 732.823418 
C 221.87278 731.689255 220.40757 731.052 218.88 731.052 
C 217.35243 731.052 215.88722 731.689255 214.807065 732.823418 
C 213.72691 733.957581 213.12 735.496052 213.12 737.1 
C 213.12 738.703948 213.72691 740.242419 214.807065 741.376582 
C 215.88722 742.510745 217.35243 743.148 218.88 743.148 
z
" style="fill: #d9584c; stroke: #222222; stroke-width: 0.8; stroke-linejoin: miter"/>
  </g>
  <g id="patch_38">
   <path d="M 345.6 743.148 
C 347.12757 743.148 348.59278 742.510745 349.672935 741.376582 
C 350.75309 740.242419 351.36 738.703948 351.36 737.1 
C 351.36 735.496052 350.75309 733.957581 349.672935 732.823418 
C 348.59278 731.689255 347.12757 731.052 345.6 731.052 
C 344.07243 731.052 342.60722 731.689255 341.527065 732.823418 
C 340.44691 733.957581 339.84 735.496052 339.84 737.1 
C 339.84 738.703948 340.44691 740.242419 341.527065 741.376582 
C 342.60722 742.510745 344.07243 743.148 345.6 743.148 
z
" style="fill: #f5a623; stroke: #222222; stroke-width: 0.8; stroke-linejoin: miter"/>
  </g>
  <g id="patch_39">
   <path d="M 472.32 743.148 
C 473.84757 743.148 475.31278 742.510745 476.392935 741.376582 
C 477.47309 740.242419 478.08 738.703948 478.08 737.1 
C 478.08 735.496052 477.47309 733.957581 476.392935 732.823418 
C 475.31278 731.689255 473.84757 731.052 472.32 731.052 
C 470.79243 731.052 469.32722 731.689255 468.247065 732.823418 
C 467.16691 733.957581 466.56 735.496052 466.56 737.1 
C 466.56 738.703948 467.16691 740.242419 468.247065 741.376582 
C 469.32722 742.510745 470.79243 743.148 472.32 743.148 
z
" style="fill: #8bc34a; stroke: #222222; stroke-width: 0.8; stroke-linejoin: miter"/>
  </g>
  <g id="patch_40">
   <path d="M 599.04 743.148 
C 600.56757 743.148 602.03278 742.510745 603.112935 741.376582 
C 604.19309 740.242419 604.8 738.703948 604.8 737.1 
C 604.8 735.496052 604.19309 733.957581 603.112935 732.823418 
C 602.03278 731.689255 600.56757 731.052 599.04 731.052 
C 597.51243 731.052 596.04722 731.689255 594.967065 732.823418 
C 593.88691 733.957581 593.28 735.496052 593.28 737.1 
C 593.28 738.703948 593.88691 740.242419 594.967065 741.376582 
C 596.04722 742.510745 597.51243 743.148 599.04 743.148 
z
" style="fill: #ffffff; stroke: #dc3912; stroke-width: 2.5; stroke-linejoin: miter"/>
  </g>
  <g id="line2d_65">
   <path d="M 260.64 714.42 
L 275.04 714.42 
" style="fill: none; stroke: #75a025; stroke-opacity: 0.4; stroke-width: 4; stroke-linecap: square"/>
  </g>
  <g id="line2d_66">
   <path d="M 419.04 714.42 
L 433.44 714.42 
" style="fill: none; stroke-dasharray: 9.6,7.2; stroke-dashoffset: 0; stroke: #fd9bed; stroke-width: 2.4"/>
  </g>
  <g id="line2d_67">
   <path d="M 577.44 714.42 
L 591.84 714.42 
" style="fill: none; stroke: #8b4513; stroke-width: 2.2; stroke-linecap: square"/>
  </g>
  <g id="text_29">
   <text style="font-weight: 700; font-size: 14px; font-family: 'Liberation Sans', 'Arimo', 'DejaVu Sans'; text-anchor: middle" x="360" y="21.532383" transform="rotate(-0 360 21.532383)">C727A × 9S18 · HRO761 — RESISTANCE</text>
  </g>
  <g id="text_30">
   <text style="font-size: 10.5px; font-family: 'Liberation Sans', 'Arimo', 'DejaVu Sans'; text-anchor: middle" x="360" y="41.66925" transform="rotate(-0 360 41.66925)">ΔS = +0.17  |  RMSD vs WT = 1.41 Å  |  3 lost / 8 retained / 2 gained</text>
  </g>
  <g id="text_31">
   <text style="font-size: 10.5px; font-family: 'Liberation Sans', 'Arimo', 'DejaVu Sans'; text-anchor: middle" x="360" y="61.320287" transform="rotate(-0 360 61.320287)">PLIP: 6 hydrophobic · 5 H-bond · 1 π-cation · 3 halogen</text>
  </g>
  <g id="text_32">
   <text style="font-size: 8.5px; font-family: 'Liberation Sans', 'Arimo', 'DejaVu Sans'; text-anchor: start" x="120.24" y="716.619707" transform="rotate(-0 120.24 716.619707)">H-bond</text>
  </g>
  <g id="text_33">
   <text style="font-size: 8.5px; font-family: 'Liberation Sans', 'Arimo', 'DejaVu Sans'; text-anchor: start" x="278.64" y="716.619707" transform="rotate(-0 278.64 716.619707)">Hydrophobic</text>
  </g>
  <g id="text_34">
   <text style="font-size: 8.5px; font-family: 'Liberation Sans', 'Arimo', 'DejaVu Sans'; text-anchor: start" x="437.04" y="716.619707" transform="rotate(-0 437.04 716.619707)">π-cation</text>
  </g>
  <g id="text_35">
   <text style="font-size: 8.5px; font-family: 'Liberation Sans', 'Arimo', 'DejaVu Sans'; text-anchor: start" x="595.44" y="716.619707" transform="rotate(-0 595.44 716.619707)">Halogen</text>
  </g>
  <g id="text_36">
   <text style="font-size: 8px; font-family: 'Liberation Sans', 'Arimo', 'DejaVu Sans'; text-anchor: start" x="100.8" y="739.170313" transform="rotate(-0 100.8 739.170313)">Basic</text>
  </g>
  <g id="text_37">
   <text style="font-size: 8px; font-family: 'Liberation Sans', 'Arimo', 'DejaVu Sans'; text-anchor: start" x="227.52" y="739.170313" transform="rotate(-0 227.52 739.170313)">Acidic</text>
  </g>
  <g id="text_38">
   <text style="font-size: 8px; font-family: 'Liberation Sans', 'Arimo', 'DejaVu Sans'; text-anchor: start" x="354.24" y="739.170313" transform="rotate(-0 354.24 739.170313)">Polar</text>
  </g>
  <g id="text_39">
   <text style="font-size: 8px; font-family: 'Liberation Sans', 'Arimo', 'DejaVu Sans'; text-anchor: start" x="480.96" y="739.170313" transform="rotate(-0 480.96 739.170313)">Hydrophobic</text>
  </g>
  <g id="text_40">
   <text style="font-size: 8px; font-family: 'Liberation Sans', 'Arimo', 'DejaVu Sans'; text-anchor: start" x="607.68" y="739.170313" transform="rotate(-0 607.68 739.170313)">Mutation site</text>
  </g>
 </g>
 <defs>
  <clipPath id="pe3fe8f886c">
   <rect x="53.82" y="75.6" width="612.36" height="612.36"/>
  </clipPath>
 </defs>
</svg>
