<?xml version="1.0" encoding="utf-8" standalone="no"?>
<!DOCTYPE svg PUBLIC "-//W3C//DTD SVG 1.1//EN"
  "http://www.w3.org/Graphics/SVG/1.1/DTD/svg11.dtd">
<svg xmlns:xlink="http://www.w3.org/1999/xlink" width="720pt" height="756pt" viewBox="0 0 720 756" xmlns="http://www.w3.org/2000/svg" version="1.1">
 <metadata>
  <rdf:RDF xmlns:dc="http://purl.org/dc/elements/1.1/" xmlns:cc="http://creativecommons.org/ns#" xmlns:rdf="http://www.w3.org/1999/02/22-rdf-syntax-ns#">
   <cc:Work>
    <dc:type rdf:resource="http://purl.org/dc/dcmitype/StillImage"/>
    <dc:date>2022-01-01T05:00:00+00:00</dc:date>
    <dc:format>image/svg+xml</dc:format>
    <dc:creator>
     <cc:Agent>
      <dc:title>Matplotlib v3.11.0, https://matplotlib.org/</dc:title>
     </cc:Agent>
    </dc:creator>
   </cc:Work>
  </rdf:RDF>
 </metadata>
 <defs>
  <style type="text/css">*{stroke-linejoin: round; stroke-linecap: butt}</style>
 </defs>
 <g id="figure_1">
  <g id="patch_1">
   <path d="M 0 756 
L 720 756 
L 720 0 
L 0 0 
z
" style="fill: #ffffff"/>
  </g>
  <g id="axes_1">
   <g id="line2d_1">
    <path d="M 84.752318 413.065683 
L 89.799013 411.688242 
L 94.852151 410.367485 
L 99.911731 409.103411 
L 104.977755 407.89602 
L 110.050221 406.745311 
L 115.12913 405.651286 
L 120.214481 404.613944 
L 125.306276 403.633284 
L 130.404513 402.709308 
L 135.509193 401.842014 
L 140.620316 401.031404 
L 145.737882 400.277476 
L 150.861891 399.580232 
L 155.992342 398.93967 
L 161.129236 398.355791 
L 166.272573 397.828596 
L 171.422353 397.358083 
L 176.578575 396.944253 
L 181.741241 396.587107 
L 186.910349 396.286643 
L 192.0859 396.042862 
L 197.267893 395.855764 
L 202.45633 395.725349 
L 207.651209 395.651617 
L 212.852531 395.634568 
L 218.060296 395.674202 
L 223.274504 395.770519 
L 228.495154 395.923519 
L 233.722248 396.133202 
" clip-path="url(#p0151d7b28a)" style="fill: none; stroke: #75a025; stroke-opacity: 0.4; stroke-width: 4; stroke-linecap: round"/>
   </g>
   <g id="line2d_2">
    <path d="M 447.09237 119.057156 
L 442.702746 125.55295 
L 438.390437 132.085237 
L 434.155443 138.654017 
L 429.997765 145.259291 
L 425.917401 151.901058 
L 421.914354 158.579319 
L 417.988621 165.294072 
L 414.140204 172.04532 
L 410.369102 178.83306 
L 406.675315 185.657294 
L 403.058844 192.518021 
L 399.519688 199.415242 
L 396.057847 206.348956 
L 392.673322 213.319163 
L 389.366112 220.325863 
L 386.136217 227.369057 
L 382.983638 234.448745 
L 379.908374 241.564925 
L 376.910425 248.717599 
L 373.989792 255.906767 
L 371.146474 263.132427 
L 368.380471 270.394582 
L 365.691784 277.693229 
L 363.080411 285.02837 
L 360.546355 292.400004 
L 358.089613 299.808131 
L 355.710187 307.252752 
L 353.408076 314.733866 
L 351.18328 322.251474 
" clip-path="url(#p0151d7b28a)" style="fill: none; stroke: #75a025; stroke-opacity: 0.4; stroke-width: 4; stroke-linecap: round"/>
   </g>
   <g id="line2d_3">
    <path d="M 635.190149 372.618822 
L 628.825175 376.172589 
L 622.432498 379.651843 
L 616.012119 383.056582 
L 609.564036 386.386808 
L 603.088251 389.64252 
L 596.584763 392.823719 
L 590.053572 395.930403 
L 583.494678 398.962574 
L 576.908081 401.920231 
L 570.293781 404.803374 
L 563.651779 407.612003 
L 556.982073 410.346119 
L 550.284665 413.00572 
L 543.559554 415.590808 
L 536.80674 418.101382 
L 530.026223 420.537442 
L 523.218003 422.898989 
L 516.38208 425.186021 
L 509.518454 427.39854 
L 502.627126 429.536545 
L 495.708094 431.600036 
L 488.76136 433.589013 
L 481.786923 435.503477 
L 474.784783 437.343427 
L 467.75494 439.108863 
L 460.697394 440.799785 
L 453.612145 442.416193 
L 446.499194 443.958087 
L 439.358539 445.425468 
" clip-path="url(#p0151d7b28a)" style="fill: none; stroke: #75a025; stroke-opacity: 0.4; stroke-width: 4; stroke-linecap: round"/>
   </g>
   <g id="line2d_4">
    <path d="M 528.971961 600.732644 
L 526.841041 594.666908 
L 524.648297 588.634235 
L 522.393729 582.634627 
L 520.077336 576.668084 
L 517.699118 570.734605 
L 515.259077 564.83419 
L 512.75721 558.96684 
L 510.19352 553.132554 
L 507.568005 547.331332 
L 504.880666 541.563175 
L 502.131502 535.828082 
L 499.320514 530.126054 
L 496.447701 524.45709 
L 493.513064 518.82119 
L 490.516603 513.218355 
L 487.458318 507.648584 
L 484.338208 502.111878 
L 481.156273 496.608236 
L 477.912514 491.137658 
L 474.606931 485.700145 
L 471.239524 480.295696 
L 467.810292 474.924312 
L 464.319235 469.585992 
L 460.766355 464.280737 
L 457.151649 459.008545 
L 453.47512 453.769419 
L 449.736766 448.563356 
L 445.936588 443.390358 
L 442.074585 438.250425 
" clip-path="url(#p0151d7b28a)" style="fill: none; stroke: #75a025; stroke-opacity: 0.4; stroke-width: 4; stroke-linecap: round"/>
   </g>
   <g id="line2d_5">
    <path d="M 533.382976 597.83159 
L 530.093046 592.074098 
L 526.746543 586.361648 
L 523.343468 580.69424 
L 519.88382 575.071875 
L 516.367599 569.494551 
L 512.794805 563.96227 
L 509.165439 558.475031 
L 505.4795 553.032834 
L 501.736989 547.635679 
L 497.937904 542.283567 
L 494.082247 536.976497 
L 490.170017 531.714469 
L 486.201215 526.497483 
L 482.17584 521.325539 
L 478.093892 516.198637 
L 473.955371 511.116778 
L 469.760278 506.079961 
L 465.508612 501.088186 
L 461.200373 496.141453 
L 456.835562 491.239762 
L 452.414178 486.383114 
L 447.936221 481.571507 
L 443.401691 476.804943 
L 438.810589 472.083421 
L 434.162914 467.406942 
L 429.458666 462.775504 
L 424.697846 458.189109 
L 419.880453 453.647756 
L 415.006487 449.151445 
" clip-path="url(#p0151d7b28a)" style="fill: none; stroke: #75a025; stroke-opacity: 0.4; stroke-width: 4; stroke-linecap: round"/>
   </g>
   <g id="line2d_6">
    <path d="M 202.304244 154.787401 
L 208.058777 158.843066 
L 213.760022 162.953997 
L 219.407976 167.120194 
L 225.00264 171.341658 
L 230.544015 175.618387 
L 236.0321 179.950382 
L 241.466895 184.337642 
L 246.8484 188.780169 
L 252.176615 193.277962 
L 257.451541 197.831021 
L 262.673177 202.439346 
L 267.841523 207.102936 
L 272.956579 211.821793 
L 278.018345 216.595916 
L 283.026822 221.425304 
L 287.982009 226.309959 
L 292.883906 231.249879 
L 297.732513 236.245065 
L 302.52783 241.295518 
L 307.269858 246.401236 
L 311.958595 251.56222 
L 316.594043 256.77847 
L 321.176202 262.049986 
L 325.70507 267.376768 
L 330.180648 272.758816 
L 334.602937 278.19613 
L 338.971936 283.68871 
L 343.287645 289.236556 
L 347.550065 294.839668 
" clip-path="url(#p0151d7b28a)" style="fill: none; stroke: #75a025; stroke-opacity: 0.4; stroke-width: 4; stroke-linecap: round"/>
   </g>
   <g id="patch_2">
    <path d="M 318.793185 594.97288 
Q 345.90938 525.05215 372.422951 456.685325 
" clip-path="url(#p0151d7b28a)" style="fill: none; stroke: #0279ee; stroke-width: 2; stroke-linecap: round"/>
    <path d="M 363.936292 461.974618 
L 372.422951 456.685325 
L 375.124408 466.31352 
" clip-path="url(#p0151d7b28a)" style="fill: none; stroke: #0279ee; stroke-width: 2; stroke-linecap: round"/>
   </g>
   <g id="patch_3">
    <path d="M 318.793185 594.97288 
Q 345.90938 525.05215 372.422951 456.685325 
" clip-path="url(#p0151d7b28a)" style="fill: none; stroke: #0279ee; stroke-width: 2; stroke-linecap: round"/>
    <path d="M 363.936292 461.974618 
L 372.422951 456.685325 
L 375.124408 466.31352 
" clip-path="url(#p0151d7b28a)" style="fill: none; stroke: #0279ee; stroke-width: 2; stroke-linecap: round"/>
   </g>
   <g id="line2d_7">
    <path d="M 293.924478 431.287473 
L 283.603669 405.101578 
" clip-path="url(#p0151d7b28a)" style="fill: none; stroke: #222222; stroke-width: 2; stroke-linecap: round"/>
   </g>
   <g id="line2d_8">
    <path d="M 321.762533 435.442337 
L 293.924478 431.287473 
" clip-path="url(#p0151d7b28a)" style="fill: none; stroke: #222222; stroke-width: 2; stroke-linecap: round"/>
   </g>
   <g id="line2d_9">
    <path d="M 339.279778 413.411307 
L 321.762533 435.442337 
" clip-path="url(#p0151d7b28a)" style="fill: none; stroke: #222222; stroke-width: 2; stroke-linecap: round"/>
   </g>
   <g id="line2d_10">
    <path d="M 328.958969 387.225412 
L 339.279778 413.411307 
" clip-path="url(#p0151d7b28a)" style="fill: none; stroke: #222222; stroke-width: 2; stroke-linecap: round"/>
   </g>
   <g id="line2d_11">
    <path d="M 301.120915 383.070548 
L 328.958969 387.225412 
" clip-path="url(#p0151d7b28a)" style="fill: none; stroke: #222222; stroke-width: 2; stroke-linecap: round"/>
   </g>
   <g id="line2d_12">
    <path d="M 301.120915 383.070548 
L 283.603669 405.101578 
" clip-path="url(#p0151d7b28a)" style="fill: none; stroke: #222222; stroke-width: 2; stroke-linecap: round"/>
   </g>
   <g id="line2d_13">
    <path d="M 255.765614 400.946713 
L 227.92756 396.791848 
" clip-path="url(#p0151d7b28a)" style="fill: none; stroke: #222222; stroke-width: 2; stroke-linecap: round"/>
   </g>
   <g id="line2d_14">
    <path d="M 255.765614 400.946713 
L 283.603669 405.101578 
" clip-path="url(#p0151d7b28a)" style="fill: none; stroke: #222222; stroke-width: 2; stroke-linecap: round"/>
   </g>
   <g id="line2d_15">
    <path d="M 259.920479 373.108658 
L 255.765614 400.946713 
" clip-path="url(#p0151d7b28a)" style="fill: none; stroke: #222222; stroke-width: 2; stroke-linecap: round"/>
   </g>
   <g id="line2d_16">
    <path d="M 251.61075 428.784768 
L 255.765614 400.946713 
" clip-path="url(#p0151d7b28a)" style="fill: none; stroke: #222222; stroke-width: 2; stroke-linecap: round"/>
   </g>
   <g id="line2d_17">
    <path d="M 367.117833 417.566172 
L 339.279778 413.411307 
" clip-path="url(#p0151d7b28a)" style="fill: none; stroke: #222222; stroke-width: 2; stroke-linecap: round"/>
   </g>
   <g id="line2d_18">
    <path d="M 377.438642 443.752067 
L 367.117833 417.566172 
" clip-path="url(#p0151d7b28a)" style="fill: none; stroke: #222222; stroke-width: 2; stroke-linecap: round"/>
   </g>
   <g id="line2d_19">
    <path d="M 384.635079 395.535142 
L 367.117833 417.566172 
" clip-path="url(#p0151d7b28a)" style="fill: none; stroke: #222222; stroke-width: 2; stroke-linecap: round"/>
   </g>
   <g id="line2d_20">
    <path d="M 412.473133 399.690006 
L 384.635079 395.535142 
" clip-path="url(#p0151d7b28a)" style="fill: none; stroke: #222222; stroke-width: 2; stroke-linecap: round"/>
   </g>
   <g id="line2d_21">
    <path d="M 422.793942 425.875901 
L 412.473133 399.690006 
" clip-path="url(#p0151d7b28a)" style="fill: none; stroke: #222222; stroke-width: 2; stroke-linecap: round"/>
   </g>
   <g id="line2d_22">
    <path d="M 418.639078 453.713956 
L 422.793942 425.875901 
" clip-path="url(#p0151d7b28a)" style="fill: none; stroke: #222222; stroke-width: 2; stroke-linecap: round"/>
   </g>
   <g id="line2d_23">
    <path d="M 444.824973 443.393147 
L 418.639078 453.713956 
" clip-path="url(#p0151d7b28a)" style="fill: none; stroke: #222222; stroke-width: 2; stroke-linecap: round"/>
   </g>
   <g id="line2d_24">
    <path d="M 444.824973 443.393147 
L 422.793942 425.875901 
" clip-path="url(#p0151d7b28a)" style="fill: none; stroke: #222222; stroke-width: 2; stroke-linecap: round"/>
   </g>
   <g id="line2d_25">
    <path d="M 429.990379 377.658976 
L 412.473133 399.690006 
" clip-path="url(#p0151d7b28a)" style="fill: none; stroke: #222222; stroke-width: 2; stroke-linecap: round"/>
   </g>
   <g id="line2d_26">
    <path d="M 457.828434 381.813841 
L 429.990379 377.658976 
" clip-path="url(#p0151d7b28a)" style="fill: none; stroke: #222222; stroke-width: 2; stroke-linecap: round"/>
   </g>
   <g id="line2d_27">
    <path d="M 475.34568 359.782811 
L 457.828434 381.813841 
" clip-path="url(#p0151d7b28a)" style="fill: none; stroke: #222222; stroke-width: 2; stroke-linecap: round"/>
   </g>
   <g id="line2d_28">
    <path d="M 492.862925 337.751781 
L 475.34568 359.782811 
" clip-path="url(#p0151d7b28a)" style="fill: none; stroke: #222222; stroke-width: 2; stroke-linecap: round"/>
   </g>
   <g id="line2d_29">
    <path d="M 453.314649 342.265565 
L 475.34568 359.782811 
" clip-path="url(#p0151d7b28a)" style="fill: none; stroke: #222222; stroke-width: 2; stroke-linecap: round"/>
   </g>
   <g id="line2d_30">
    <path d="M 497.37671 377.300057 
L 475.34568 359.782811 
" clip-path="url(#p0151d7b28a)" style="fill: none; stroke: #222222; stroke-width: 2; stroke-linecap: round"/>
   </g>
   <g id="line2d_31">
    <path d="M 346.476215 365.194382 
L 328.958969 387.225412 
" clip-path="url(#p0151d7b28a)" style="fill: none; stroke: #222222; stroke-width: 2; stroke-linecap: round"/>
   </g>
   <g id="line2d_32">
    <path d="M 336.155406 339.008487 
L 346.476215 365.194382 
" clip-path="url(#p0151d7b28a)" style="fill: none; stroke: #222222; stroke-width: 2; stroke-linecap: round"/>
   </g>
   <g id="line2d_33">
    <path d="M 308.317352 334.853622 
L 336.155406 339.008487 
" clip-path="url(#p0151d7b28a)" style="fill: none; stroke: #222222; stroke-width: 2; stroke-linecap: round"/>
   </g>
   <g id="line2d_34">
    <path d="M 297.996543 308.667728 
L 308.317352 334.853622 
" clip-path="url(#p0151d7b28a)" style="fill: none; stroke: #222222; stroke-width: 2; stroke-linecap: round"/>
   </g>
   <g id="line2d_35">
    <path d="M 315.513788 286.636697 
L 297.996543 308.667728 
" clip-path="url(#p0151d7b28a)" style="fill: none; stroke: #222222; stroke-width: 2; stroke-linecap: round"/>
   </g>
   <g id="line2d_36">
    <path d="M 343.351843 290.791562 
L 315.513788 286.636697 
" clip-path="url(#p0151d7b28a)" style="fill: none; stroke: #222222; stroke-width: 2; stroke-linecap: round"/>
   </g>
   <g id="line2d_37">
    <path d="M 353.672652 316.977457 
L 343.351843 290.791562 
" clip-path="url(#p0151d7b28a)" style="fill: none; stroke: #222222; stroke-width: 2; stroke-linecap: round"/>
   </g>
   <g id="line2d_38">
    <path d="M 353.672652 316.977457 
L 336.155406 339.008487 
" clip-path="url(#p0151d7b28a)" style="fill: none; stroke: #222222; stroke-width: 2; stroke-linecap: round"/>
   </g>
   <g id="text_1">
    <g id="patch_4">
     <path d="M 289.351353 437.158332 
L 298.497603 437.158332 
L 298.497603 425.416613 
L 289.351353 425.416613 
z
" style="fill: #ffffff"/>
    </g>
    <text style="font-weight: 700; font-size: 12px; font-family: 'Liberation Sans', 'Arimo', 'DejaVu Sans'; text-anchor: middle; fill: #0879c0" x="293.924478" y="434.392941" transform="rotate(-0 293.924478 434.392941)">N</text>
   </g>
   <g id="text_2">
    <g id="patch_5">
     <path d="M 296.54779 388.941407 
L 305.69404 388.941407 
L 305.69404 377.199688 
L 296.54779 377.199688 
z
" style="fill: #ffffff"/>
    </g>
    <text style="font-weight: 700; font-size: 12px; font-family: 'Liberation Sans', 'Arimo', 'DejaVu Sans'; text-anchor: middle; fill: #0879c0" x="301.120915" y="386.176016" transform="rotate(-0 301.120915 386.176016)">N</text>
   </g>
   <g id="text_3">
    <g id="patch_6">
     <path d="M 256.015792 378.979518 
L 263.825167 378.979518 
L 263.825167 367.237799 
L 256.015792 367.237799 
z
" style="fill: #ffffff"/>
    </g>
    <text style="font-weight: 700; font-size: 12px; font-family: 'Liberation Sans', 'Arimo', 'DejaVu Sans'; text-anchor: middle; fill: #00a040" x="259.920479" y="376.214127" transform="rotate(-0 259.920479 376.214127)">F</text>
   </g>
   <g id="text_4">
    <g id="patch_7">
     <path d="M 247.706062 434.655627 
L 255.515437 434.655627 
L 255.515437 422.913908 
L 247.706062 422.913908 
z
" style="fill: #ffffff"/>
    </g>
    <text style="font-weight: 700; font-size: 12px; font-family: 'Liberation Sans', 'Arimo', 'DejaVu Sans'; text-anchor: middle; fill: #00a040" x="251.61075" y="431.890236" transform="rotate(-0 251.61075 431.890236)">F</text>
   </g>
   <g id="text_5">
    <g id="patch_8">
     <path d="M 372.531767 449.622926 
L 382.345517 449.622926 
L 382.345517 437.881207 
L 372.531767 437.881207 
z
" style="fill: #ffffff"/>
    </g>
    <text style="font-weight: 700; font-size: 12px; font-family: 'Liberation Sans', 'Arimo', 'DejaVu Sans'; text-anchor: middle; fill: #d40000" x="377.438642" y="446.857536" transform="rotate(-0 377.438642 446.857536)">O</text>
   </g>
   <g id="text_6">
    <g id="patch_9">
     <path d="M 380.061954 401.406001 
L 389.208204 401.406001 
L 389.208204 389.664282 
L 380.061954 389.664282 
z
" style="fill: #ffffff"/>
    </g>
    <text style="font-weight: 700; font-size: 12px; font-family: 'Liberation Sans', 'Arimo', 'DejaVu Sans'; text-anchor: middle; fill: #0879c0" x="384.635079" y="398.64061" transform="rotate(-0 384.635079 398.64061)">N</text>
   </g>
   <g id="text_7">
    <g id="patch_10">
     <path d="M 471.103492 365.65367 
L 479.587867 365.65367 
L 479.587867 353.911951 
L 471.103492 353.911951 
z
" style="fill: #ffffff"/>
    </g>
    <text style="font-weight: 700; font-size: 12px; font-family: 'Liberation Sans', 'Arimo', 'DejaVu Sans'; text-anchor: middle; fill: #b8860b" x="475.34568" y="362.88828" transform="rotate(-0 475.34568 362.88828)">S</text>
   </g>
   <g id="text_8">
    <g id="patch_11">
     <path d="M 448.407774 348.136424 
L 458.221524 348.136424 
L 458.221524 336.394706 
L 448.407774 336.394706 
z
" style="fill: #ffffff"/>
    </g>
    <text style="font-weight: 700; font-size: 12px; font-family: 'Liberation Sans', 'Arimo', 'DejaVu Sans'; text-anchor: middle; fill: #d40000" x="453.314649" y="345.371034" transform="rotate(-0 453.314649 345.371034)">O</text>
   </g>
   <g id="text_9">
    <g id="patch_12">
     <path d="M 492.469835 383.170916 
L 502.283585 383.170916 
L 502.283585 371.429197 
L 492.469835 371.429197 
z
" style="fill: #ffffff"/>
    </g>
    <text style="font-weight: 700; font-size: 12px; font-family: 'Liberation Sans', 'Arimo', 'DejaVu Sans'; text-anchor: middle; fill: #d40000" x="497.37671" y="380.405525" transform="rotate(-0 497.37671 380.405525)">O</text>
   </g>
   <g id="text_10">
    <g id="patch_13">
     <path d="M 341.56934 371.065241 
L 351.38309 371.065241 
L 351.38309 359.323523 
L 341.56934 359.323523 
z
" style="fill: #ffffff"/>
    </g>
    <text style="font-weight: 700; font-size: 12px; font-family: 'Liberation Sans', 'Arimo', 'DejaVu Sans'; text-anchor: middle; fill: #d40000" x="346.476215" y="368.299851" transform="rotate(-0 346.476215 368.299851)">O</text>
   </g>
   <g id="patch_14">
    <path d="M 113.725758 437.474453 
C 121.072414 437.474453 128.11916 434.555595 133.31403 429.360725 
C 138.508901 424.165854 141.427758 417.119109 141.427758 409.772453 
C 141.427758 402.425797 138.508901 395.379051 133.31403 390.184181 
C 128.11916 384.98931 121.072414 382.070453 113.725758 382.070453 
C 106.379102 382.070453 99.332357 384.98931 94.137486 390.184181 
C 88.942616 395.379051 86.023758 402.425797 86.023758 409.772453 
C 86.023758 417.119109 88.942616 424.165854 94.137486 429.360725 
C 99.332357 434.555595 106.379102 437.474453 113.725758 437.474453 
z
" clip-path="url(#p0151d7b28a)" style="fill: #8bc34a; stroke: #222222; stroke-width: 1.2; stroke-linejoin: miter"/>
   </g>
   <g id="patch_15">
    <path d="M 434.645513 173.12924 
C 441.992169 173.12924 449.038914 170.210383 454.233785 165.015512 
C 459.428655 159.820642 462.347513 152.773897 462.347513 145.42724 
C 462.347513 138.080584 459.428655 131.033839 454.233785 125.838968 
C 449.038914 120.644098 441.992169 117.72524 434.645513 117.72524 
C 427.298856 117.72524 420.252111 120.644098 415.057241 125.838968 
C 409.86237 131.033839 406.943513 138.080584 406.943513 145.42724 
C 406.943513 152.773897 409.86237 159.820642 415.057241 165.015512 
C 420.252111 170.210383 427.298856 173.12924 434.645513 173.12924 
z
" clip-path="url(#p0151d7b28a)" style="fill: #8bc34a; stroke: #dc3912; stroke-width: 2.8; stroke-linejoin: miter"/>
   </g>
   <g id="patch_16">
    <path d="M 607.857981 410.482427 
C 615.204637 410.482427 622.251383 407.563569 627.446253 402.368699 
C 632.641124 397.173828 635.559981 390.127083 635.559981 382.780427 
C 635.559981 375.43377 632.641124 368.387025 627.446253 363.192155 
C 622.251383 357.997284 615.204637 355.078427 607.857981 355.078427 
C 600.511325 355.078427 593.464579 357.997284 588.269709 363.192155 
C 583.074838 368.387025 580.155981 375.43377 580.155981 382.780427 
C 580.155981 390.127083 583.074838 397.173828 588.269709 402.368699 
C 593.464579 407.563569 600.511325 410.482427 607.857981 410.482427 
z
" clip-path="url(#p0151d7b28a)" style="fill: #8bc34a; stroke: #222222; stroke-width: 1.2; stroke-linejoin: miter"/>
   </g>
   <g id="patch_17">
    <path d="M 515.220024 602.721033 
C 522.56668 602.721033 529.613425 599.802176 534.808296 594.607305 
C 540.003166 589.412435 542.922024 582.365689 542.922024 575.019033 
C 542.922024 567.672377 540.003166 560.625631 534.808296 555.430761 
C 529.613425 550.235891 522.56668 547.317033 515.220024 547.317033 
C 507.873367 547.317033 500.826622 550.235891 495.631751 555.430761 
C 490.436881 560.625631 487.518024 567.672377 487.518024 575.019033 
C 487.518024 582.365689 490.436881 589.412435 495.631751 594.607305 
C 500.826622 599.802176 507.873367 602.721033 515.220024 602.721033 
z
" clip-path="url(#p0151d7b28a)" style="fill: #f5a623; stroke: #222222; stroke-width: 1.2; stroke-linejoin: miter"/>
   </g>
   <g id="patch_18">
    <path d="M 223.295351 202.72993 
C 230.642008 202.72993 237.688753 199.811072 242.883623 194.616202 
C 248.078494 189.421331 250.997351 182.374586 250.997351 175.02793 
C 250.997351 167.681273 248.078494 160.634528 242.883623 155.439658 
C 237.688753 150.244787 230.642008 147.32593 223.295351 147.32593 
C 215.948695 147.32593 208.90195 150.244787 203.707079 155.439658 
C 198.512209 160.634528 195.593351 167.681273 195.593351 175.02793 
C 195.593351 182.374586 198.512209 189.421331 203.707079 194.616202 
C 208.90195 199.811072 215.948695 202.72993 223.295351 202.72993 
z
" clip-path="url(#p0151d7b28a)" style="fill: #f5a623; stroke: #222222; stroke-width: 1.2; stroke-linejoin: miter"/>
   </g>
   <g id="patch_19">
    <path d="M 307.527521 651.724066 
C 314.874177 651.724066 321.920922 648.805209 327.115793 643.610338 
C 332.310663 638.415468 335.229521 631.368722 335.229521 624.022066 
C 335.229521 616.67541 332.310663 609.628664 327.115793 604.433794 
C 321.920922 599.238923 314.874177 596.320066 307.527521 596.320066 
C 300.180865 596.320066 293.134119 599.238923 287.939249 604.433794 
C 282.744378 609.628664 279.825521 616.67541 279.825521 624.022066 
C 279.825521 631.368722 282.744378 638.415468 287.939249 643.610338 
C 293.134119 648.805209 300.180865 651.724066 307.527521 651.724066 
z
" clip-path="url(#p0151d7b28a)" style="fill: #5087c5; stroke: #222222; stroke-width: 1.2; stroke-linejoin: miter"/>
   </g>
   <g id="text_11">
    <text style="font-weight: 700; font-size: 9.5px; font-family: 'Liberation Sans', 'Arimo', 'DejaVu Sans'; text-anchor: middle; fill: #222222" x="113.725758" y="412.230949" transform="rotate(-0 113.725758 412.230949)">I725</text>
   </g>
   <g id="text_12">
    <text style="font-weight: 700; font-size: 9.5px; font-family: 'Liberation Sans', 'Arimo', 'DejaVu Sans'; text-anchor: middle; fill: #222222" x="434.645513" y="147.885736" transform="rotate(-0 434.645513 147.885736)">A727</text>
   </g>
   <g id="text_13">
    <text style="font-weight: 700; font-size: 9.5px; font-family: 'Liberation Sans', 'Arimo', 'DejaVu Sans'; text-anchor: middle; fill: #222222" x="607.857981" y="385.238923" transform="rotate(-0 607.857981 385.238923)">F730</text>
   </g>
   <g id="text_14">
    <text style="font-weight: 700; font-size: 9.5px; font-family: 'Liberation Sans', 'Arimo', 'DejaVu Sans'; text-anchor: middle; fill: #222222" x="515.220024" y="577.477529" transform="rotate(-0 515.220024 577.477529)">Y849</text>
   </g>
   <g id="text_15">
    <text style="font-weight: 700; font-size: 9.5px; font-family: 'Liberation Sans', 'Arimo', 'DejaVu Sans'; text-anchor: middle; fill: #222222" x="223.295351" y="177.486426" transform="rotate(-0 223.295351 177.486426)">Q850</text>
   </g>
   <g id="text_16">
    <text style="font-weight: 700; font-size: 9.5px; font-family: 'Liberation Sans', 'Arimo', 'DejaVu Sans'; text-anchor: middle; fill: #ffffff" x="307.527521" y="626.480562" transform="rotate(-0 307.527521 626.480562)">R857</text>
   </g>
  </g>
  <g id="patch_20">
   <path d="M 183.440391 714.42 
Q 188.63969 714.42 191.714724 714.42 
" style="fill: none; stroke: #0279ee; stroke-width: 1.9; stroke-linecap: round"/>
   <path d="M 186.914724 712.02 
L 191.714724 714.42 
L 186.914724 716.82 
" style="fill: none; stroke: #0279ee; stroke-width: 1.9; stroke-linecap: round"/>
  </g>
  <g id="patch_21">
   <path d="M 92.16 743.148 
C 93.68757 743.148 95.15278 742.510745 96.232935 741.376582 
C 97.31309 740.242419 97.92 738.703948 97.92 737.1 
C 97.92 735.496052 97.31309 733.957581 96.232935 732.823418 
C 95.15278 731.689255 93.68757 731.052 92.16 731.052 
C 90.63243 731.052 89.16722 731.689255 88.087065 732.823418 
C 87.00691 733.957581 86.4 735.496052 86.4 737.1 
C 86.4 738.703948 87.00691 740.242419 88.087065 741.376582 
C 89.16722 742.510745 90.63243 743.148 92.16 743.148 
z
" style="fill: #5087c5; stroke: #222222; stroke-width: 0.8; stroke-linejoin: miter"/>
  </g>
  <g id="patch_22">
   <path d="M 218.88 743.148 
C 220.40757 743.148 221.87278 742.510745 222.952935 741.376582 
C 224.03309 740.242419 224.64 738.703948 224.64 737.1 
C 224.64 735.496052 224.03309 733.957581 222.952935 732.823418 
C 221.87278 731.689255 220.40757 731.052 218.88 731.052 
C 217.35243 731.052 215.88722 731.689255 214.807065 732.823418 
C 213.72691 733.957581 213.12 735.496052 213.12 737.1 
C 213.12 738.703948 213.72691 740.242419 214.807065 741.376582 
C 215.88722 742.510745 217.35243 743.148 218.88 743.148 
z
" style="fill: #d9584c; stroke: #222222; stroke-width: 0.8; stroke-linejoin: miter"/>
  </g>
  <g id="patch_23">
   <path d="M 345.6 743.148 
C 347.12757 743.148 348.59278 742.510745 349.672935 741.376582 
C 350.75309 740.242419 351.36 738.703948 351.36 737.1 
C 351.36 735.496052 350.75309 733.957581 349.672935 732.823418 
C 348.59278 731.689255 347.12757 731.052 345.6 731.052 
C 344.07243 731.052 342.60722 731.689255 341.527065 732.823418 
C 340.44691 733.957581 339.84 735.496052 339.84 737.1 
C 339.84 738.703948 340.44691 740.242419 341.527065 741.376582 
C 342.60722 742.510745 344.07243 743.148 345.6 743.148 
z
" style="fill: #f5a623; stroke: #222222; stroke-width: 0.8; stroke-linejoin: miter"/>
  </g>
  <g id="patch_24">
   <path d="M 472.32 743.148 
C 473.84757 743.148 475.31278 742.510745 476.392935 741.376582 
C 477.47309 740.242419 478.08 738.703948 478.08 737.1 
C 478.08 735.496052 477.47309 733.957581 476.392935 732.823418 
C 475.31278 731.689255 473.84757 731.052 472.32 731.052 
C 470.79243 731.052 469.32722 731.689255 468.247065 732.823418 
C 467.16691 733.957581 466.56 735.496052 466.56 737.1 
C 466.56 738.703948 467.16691 740.242419 468.247065 741.376582 
C 469.32722 742.510745 470.79243 743.148 472.32 743.148 
z
" style="fill: #8bc34a; stroke: #222222; stroke-width: 0.8; stroke-linejoin: miter"/>
  </g>
  <g id="patch_25">
   <path d="M 599.04 743.148 
C 600.56757 743.148 602.03278 742.510745 603.112935 741.376582 
C 604.19309 740.242419 604.8 738.703948 604.8 737.1 
C 604.8 735.496052 604.19309 733.957581 603.112935 732.823418 
C 602.03278 731.689255 600.56757 731.052 599.04 731.052 
C 597.51243 731.052 596.04722 731.689255 594.967065 732.823418 
C 593.88691 733.957581 593.28 735.496052 593.28 737.1 
C 593.28 738.703948 593.88691 740.242419 594.967065 741.376582 
C 596.04722 742.510745 597.51243 743.148 599.04 743.148 
z
" style="fill: #ffffff; stroke: #dc3912; stroke-width: 2.5; stroke-linejoin: miter"/>
  </g>
  <g id="line2d_39">
   <path d="M 498.24 714.42 
L 512.64 714.42 
" style="fill: none; stroke: #75a025; stroke-opacity: 0.4; stroke-width: 4; stroke-linecap: square"/>
  </g>
  <g id="text_17">
   <text style="font-weight: 700; font-size: 14px; font-family: 'Liberation Sans', 'Arimo', 'DejaVu Sans'; text-anchor: middle" x="360" y="21.532383" transform="rotate(-0 360 21.532383)">C727A × 9MJT · VVD-214 — RESISTANCE</text>
  </g>
  <g id="text_18">
   <text style="font-size: 10.5px; font-family: 'Liberation Sans', 'Arimo', 'DejaVu Sans'; text-anchor: middle" x="360" y="41.66925" transform="rotate(-0 360 41.66925)">ΔS = +0.72  |  RMSD vs WT = 7.56 Å  |  3 lost / 5 retained / 1 gained</text>
  </g>
  <g id="text_19">
   <text style="font-size: 10.5px; font-family: 'Liberation Sans', 'Arimo', 'DejaVu Sans'; text-anchor: middle" x="360" y="61.320287" transform="rotate(-0 360 61.320287)">PLIP: 6 hydrophobic · 2 H-bond</text>
  </g>
  <g id="text_20">
   <text style="font-size: 8.5px; font-family: 'Liberation Sans', 'Arimo', 'DejaVu Sans'; text-anchor: start" x="199.44" y="716.619707" transform="rotate(-0 199.44 716.619707)">H-bond</text>
  </g>
  <g id="text_21">
   <text style="font-size: 8.5px; font-family: 'Liberation Sans', 'Arimo', 'DejaVu Sans'; text-anchor: start" x="516.24" y="716.619707" transform="rotate(-0 516.24 716.619707)">Hydrophobic</text>
  </g>
  <g id="text_22">
   <text style="font-size: 8px; font-family: 'Liberation Sans', 'Arimo', 'DejaVu Sans'; text-anchor: start" x="100.8" y="739.170313" transform="rotate(-0 100.8 739.170313)">Basic</text>
  </g>
  <g id="text_23">
   <text style="font-size: 8px; font-family: 'Liberation Sans', 'Arimo', 'DejaVu Sans'; text-anchor: start" x="227.52" y="739.170313" transform="rotate(-0 227.52 739.170313)">Acidic</text>
  </g>
  <g id="text_24">
   <text style="font-size: 8px; font-family: 'Liberation Sans', 'Arimo', 'DejaVu Sans'; text-anchor: start" x="354.24" y="739.170313" transform="rotate(-0 354.24 739.170313)">Polar</text>
  </g>
  <g id="text_25">
   <text style="font-size: 8px; font-family: 'Liberation Sans', 'Arimo', 'DejaVu Sans'; text-anchor: start" x="480.96" y="739.170313" transform="rotate(-0 480.96 739.170313)">Hydrophobic</text>
  </g>
  <g id="text_26">
   <text style="font-size: 8px; font-family: 'Liberation Sans', 'Arimo', 'DejaVu Sans'; text-anchor: start" x="607.68" y="739.170313" transform="rotate(-0 607.68 739.170313)">Mutation site</text>
  </g>
 </g>
 <defs>
  <clipPath id="p0151d7b28a">
   <rect x="53.82" y="75.6" width="612.36" height="612.36"/>
  </clipPath>
 </defs>
</svg>
