<?xml version="1.0" encoding="utf-8" standalone="no"?>
<!DOCTYPE svg PUBLIC "-//W3C//DTD SVG 1.1//EN"
  "http://www.w3.org/Graphics/SVG/1.1/DTD/svg11.dtd">
<svg xmlns:xlink="http://www.w3.org/1999/xlink" width="720pt" height="756pt" viewBox="0 0 720 756" xmlns="http://www.w3.org/2000/svg" version="1.1">
 <metadata>
  <rdf:RDF xmlns:dc="http://purl.org/dc/elements/1.1/" xmlns:cc="http://creativecommons.org/ns#" xmlns:rdf="http://www.w3.org/1999/02/22-rdf-syntax-ns#">
   <cc:Work>
    <dc:type rdf:resource="http://purl.org/dc/dcmitype/StillImage"/>
    <dc:date>2022-01-01T05:00:00+00:00</dc:date>
    <dc:format>image/svg+xml</dc:format>
    <dc:creator>
     <cc:Agent>
      <dc:title>Matplotlib v3.11.0, https://matplotlib.org/</dc:title>
     </cc:Agent>
    </dc:creator>
   </cc:Work>
  </rdf:RDF>
 </metadata>
 <defs>
  <style type="text/css">*{stroke-linejoin: round; stroke-linecap: butt}</style>
 </defs>
 <g id="figure_1">
  <g id="patch_1">
   <path d="M 0 756 
L 720 756 
L 720 0 
L 0 0 
z
" style="fill: #ffffff"/>
  </g>
  <g id="axes_1">
   <g id="line2d_1">
    <path d="M 336.361452 654.657242 
L 335.212446 648.542743 
L 334.13125 642.426042 
L 333.117865 636.307137 
L 332.172291 630.186029 
L 331.294527 624.062717 
L 330.484575 617.937203 
L 329.742432 611.809486 
L 329.068101 605.679565 
L 328.46158 599.547441 
L 327.92287 593.413115 
L 327.45197 587.276585 
L 327.048882 581.137852 
L 326.713603 574.996916 
L 326.446136 568.853777 
L 326.246479 562.708434 
L 326.114633 556.560889 
L 326.050597 550.411141 
L 326.054373 544.259189 
L 326.125959 538.105034 
L 326.265355 531.948676 
L 326.472562 525.790115 
L 326.74758 519.629351 
L 327.090409 513.466384 
L 327.501048 507.301214 
L 327.979498 501.133841 
L 328.525759 494.964264 
L 329.13983 488.792484 
L 329.821712 482.618502 
L 330.571404 476.442316 
" clip-path="url(#p0c7aed7ce7)" style="fill: none; stroke: #75a025; stroke-opacity: 0.4; stroke-width: 4; stroke-linecap: round"/>
   </g>
   <g id="line2d_2">
    <path d="M 633.595685 385.04077 
L 628.870579 383.320958 
L 624.134804 381.654932 
L 619.388361 380.042694 
L 614.631251 378.484242 
L 609.863472 376.979578 
L 605.085025 375.528701 
L 600.29591 374.131611 
L 595.496128 372.788309 
L 590.685677 371.498793 
L 585.864558 370.263064 
L 581.032771 369.081123 
L 576.190315 367.952969 
L 571.337192 366.878602 
L 566.473401 365.858022 
L 561.598942 364.891229 
L 556.713814 363.978223 
L 551.818019 363.119005 
L 546.911555 362.313574 
L 541.994424 361.561929 
L 537.066624 360.864072 
L 532.128157 360.220002 
L 527.179021 359.629719 
L 522.219217 359.093224 
L 517.248745 358.610515 
L 512.267605 358.181594 
L 507.275798 357.806459 
L 502.273322 357.485112 
L 497.260177 357.217552 
L 492.236365 357.003779 
" clip-path="url(#p0c7aed7ce7)" style="fill: none; stroke: #75a025; stroke-opacity: 0.4; stroke-width: 4; stroke-linecap: round"/>
   </g>
   <g id="line2d_3">
    <path d="M 105.904487 481.10849 
L 112.943487 481.669449 
L 119.976814 482.153613 
L 127.004466 482.560981 
L 134.026446 482.891555 
L 141.042751 483.145333 
L 148.053383 483.322316 
L 155.058341 483.422503 
L 162.057626 483.445896 
L 169.051237 483.392493 
L 176.039174 483.262295 
L 183.021438 483.055302 
L 189.998028 482.771513 
L 196.968945 482.410929 
L 203.934187 481.97355 
L 210.893756 481.459376 
L 217.847652 480.868407 
L 224.795874 480.200642 
L 231.738422 479.456082 
L 238.675296 478.634727 
L 245.606497 477.736576 
L 252.532025 476.76163 
L 259.451878 475.709889 
L 266.366058 474.581353 
L 273.274564 473.376022 
L 280.177397 472.093895 
L 287.074556 470.734973 
L 293.966041 469.299256 
L 300.851853 467.786743 
L 307.731991 466.197435 
" clip-path="url(#p0c7aed7ce7)" style="fill: none; stroke: #75a025; stroke-opacity: 0.4; stroke-width: 4; stroke-linecap: round"/>
   </g>
   <g id="line2d_4">
    <path d="M 197.374822 602.421278 
L 201.850353 598.15521 
L 206.272456 593.848011 
L 210.641131 589.49968 
L 214.956378 585.110218 
L 219.218197 580.679624 
L 223.426589 576.207899 
L 227.581552 571.695042 
L 231.683087 567.141054 
L 235.731195 562.545934 
L 239.725874 557.909683 
L 243.667125 553.2323 
L 247.554949 548.513786 
L 251.389345 543.754141 
L 255.170312 538.953364 
L 258.897852 534.111455 
L 262.571963 529.228415 
L 266.192647 524.304244 
L 269.759903 519.338941 
L 273.273731 514.332507 
L 276.73413 509.284941 
L 280.141102 504.196244 
L 283.494646 499.066415 
L 286.794762 493.895454 
L 290.04145 488.683363 
L 293.23471 483.43014 
L 296.374542 478.135785 
L 299.460947 472.800299 
L 302.493923 467.423681 
L 305.473471 462.005932 
" clip-path="url(#p0c7aed7ce7)" style="fill: none; stroke: #75a025; stroke-opacity: 0.4; stroke-width: 4; stroke-linecap: round"/>
   </g>
   <g id="line2d_5">
    <path d="M 153.690769 201.505151 
L 159.464105 204.442903 
L 165.196168 207.437985 
L 170.886958 210.490397 
L 176.536476 213.600138 
L 182.14472 216.76721 
L 187.711691 219.991611 
L 193.237389 223.273342 
L 198.721814 226.612403 
L 204.164966 230.008793 
L 209.566845 233.462513 
L 214.927451 236.973564 
L 220.246783 240.541944 
L 225.524843 244.167653 
L 230.76163 247.850693 
L 235.957144 251.591062 
L 241.111384 255.388762 
L 246.224352 259.243791 
L 251.296047 263.156149 
L 256.326468 267.125838 
L 261.315617 271.152856 
L 266.263492 275.237205 
L 271.170095 279.378883 
L 276.035424 283.57789 
L 280.85948 287.834228 
L 285.642264 292.147896 
L 290.383774 296.518893 
L 295.084011 300.94722 
L 299.742975 305.432877 
L 304.360667 309.975863 
" clip-path="url(#p0c7aed7ce7)" style="fill: none; stroke: #75a025; stroke-opacity: 0.4; stroke-width: 4; stroke-linecap: round"/>
   </g>
   <g id="line2d_6">
    <path d="M 279.923777 119.827128 
L 280.140775 126.975007 
L 280.434446 134.108647 
L 280.80479 141.228049 
L 281.251808 148.333211 
L 281.775499 155.424133 
L 282.375864 162.500817 
L 283.052902 169.563261 
L 283.806614 176.611467 
L 284.636999 183.645433 
L 285.544057 190.66516 
L 286.527789 197.670648 
L 287.588195 204.661896 
L 288.725273 211.638905 
L 289.939026 218.601676 
L 291.229451 225.550207 
L 292.596551 232.484498 
L 294.040323 239.404551 
L 295.560769 246.310365 
L 297.157889 253.201939 
L 298.831682 260.079274 
L 300.582148 266.94237 
L 302.409288 273.791227 
L 304.313101 280.625844 
L 306.293588 287.446223 
L 308.350748 294.252362 
L 310.484582 301.044262 
L 312.695089 307.821923 
L 314.982269 314.585344 
L 317.346123 321.334527 
" clip-path="url(#p0c7aed7ce7)" style="fill: none; stroke: #75a025; stroke-opacity: 0.4; stroke-width: 4; stroke-linecap: round"/>
   </g>
   <g id="patch_2">
    <path d="M 550.326351 271.651531 
Q 512.25681 302.054399 475.489597 331.417209 
" clip-path="url(#p0c7aed7ce7)" style="fill: none; stroke: #0279ee; stroke-width: 2; stroke-linecap: round"/>
    <path d="M 485.484978 331.113315 
L 475.489597 331.417209 
L 477.996565 321.736553 
" clip-path="url(#p0c7aed7ce7)" style="fill: none; stroke: #0279ee; stroke-width: 2; stroke-linecap: round"/>
   </g>
   <g id="patch_3">
    <path d="M 289.08477 361.461307 
Q 216.885921 349.947876 146.332941 338.696908 
" clip-path="url(#p0c7aed7ce7)" style="fill: none; stroke: #0279ee; stroke-width: 2; stroke-linecap: round"/>
    <path d="M 153.288249 345.881871 
L 146.332941 338.696908 
L 155.177992 334.031603 
" clip-path="url(#p0c7aed7ce7)" style="fill: none; stroke: #0279ee; stroke-width: 2; stroke-linecap: round"/>
   </g>
   <g id="patch_4">
    <path d="M 539.338573 508.920214 
Q 467.5246 471.048353 397.184856 433.953942 
" clip-path="url(#p0c7aed7ce7)" style="fill: none; stroke: #0279ee; stroke-width: 2; stroke-linecap: round"/>
    <path d="M 401.462332 442.992924 
L 397.184856 433.953942 
L 407.059972 432.37848 
" clip-path="url(#p0c7aed7ce7)" style="fill: none; stroke: #0279ee; stroke-width: 2; stroke-linecap: round"/>
   </g>
   <g id="patch_5">
    <path d="M 452.987973 580.742929 
Q 421.42964 509.692562 390.547854 440.165371 
" clip-path="url(#p0c7aed7ce7)" style="fill: none; stroke: #0279ee; stroke-width: 2; stroke-linecap: round"/>
    <path d="M 388.311846 449.912179 
L 390.547854 440.165371 
L 399.278708 445.041045 
" clip-path="url(#p0c7aed7ce7)" style="fill: none; stroke: #0279ee; stroke-width: 2; stroke-linecap: round"/>
   </g>
   <g id="line2d_7">
    <path d="M 367.756447 399.512557 
L 351.102814 390.480428 
" clip-path="url(#p0c7aed7ce7)" style="fill: none; stroke: #222222; stroke-width: 2; stroke-linecap: round"/>
   </g>
   <g id="line2d_8">
    <path d="M 368.26121 418.451091 
L 367.756447 399.512557 
" clip-path="url(#p0c7aed7ce7)" style="fill: none; stroke: #222222; stroke-width: 2; stroke-linecap: round"/>
   </g>
   <g id="line2d_9">
    <path d="M 384.914843 427.48322 
L 368.26121 418.451091 
" clip-path="url(#p0c7aed7ce7)" style="fill: none; stroke: #222222; stroke-width: 2; stroke-linecap: round"/>
   </g>
   <g id="line2d_10">
    <path d="M 352.11234 428.357496 
L 368.26121 418.451091 
" clip-path="url(#p0c7aed7ce7)" style="fill: none; stroke: #222222; stroke-width: 2; stroke-linecap: round"/>
   </g>
   <g id="line2d_11">
    <path d="M 348.66853 446.987124 
L 352.11234 428.357496 
" clip-path="url(#p0c7aed7ce7)" style="fill: none; stroke: #222222; stroke-width: 2; stroke-linecap: round"/>
   </g>
   <g id="line2d_12">
    <path d="M 329.886506 449.468737 
L 348.66853 446.987124 
" clip-path="url(#p0c7aed7ce7)" style="fill: none; stroke: #222222; stroke-width: 2; stroke-linecap: round"/>
   </g>
   <g id="line2d_13">
    <path d="M 321.722386 432.372831 
L 329.886506 449.468737 
" clip-path="url(#p0c7aed7ce7)" style="fill: none; stroke: #222222; stroke-width: 2; stroke-linecap: round"/>
   </g>
   <g id="line2d_14">
    <path d="M 335.458707 419.325367 
L 321.722386 432.372831 
" clip-path="url(#p0c7aed7ce7)" style="fill: none; stroke: #222222; stroke-width: 2; stroke-linecap: round"/>
   </g>
   <g id="line2d_15">
    <path d="M 335.458707 419.325367 
L 352.11234 428.357496 
" clip-path="url(#p0c7aed7ce7)" style="fill: none; stroke: #222222; stroke-width: 2; stroke-linecap: round"/>
   </g>
   <g id="line2d_16">
    <path d="M 334.953944 400.386833 
L 335.458707 419.325367 
" clip-path="url(#p0c7aed7ce7)" style="fill: none; stroke: #222222; stroke-width: 2; stroke-linecap: round"/>
   </g>
   <g id="line2d_17">
    <path d="M 334.953944 400.386833 
L 351.102814 390.480428 
" clip-path="url(#p0c7aed7ce7)" style="fill: none; stroke: #222222; stroke-width: 2; stroke-linecap: round"/>
   </g>
   <g id="line2d_18">
    <path d="M 383.905317 389.606153 
L 367.756447 399.512557 
" clip-path="url(#p0c7aed7ce7)" style="fill: none; stroke: #222222; stroke-width: 2; stroke-linecap: round"/>
   </g>
   <g id="line2d_19">
    <path d="M 400.55895 398.638282 
L 383.905317 389.606153 
" clip-path="url(#p0c7aed7ce7)" style="fill: none; stroke: #222222; stroke-width: 2; stroke-linecap: round"/>
   </g>
   <g id="line2d_20">
    <path d="M 416.70782 388.731877 
L 400.55895 398.638282 
" clip-path="url(#p0c7aed7ce7)" style="fill: none; stroke: #222222; stroke-width: 2; stroke-linecap: round"/>
   </g>
   <g id="line2d_21">
    <path d="M 416.203057 369.793343 
L 416.70782 388.731877 
" clip-path="url(#p0c7aed7ce7)" style="fill: none; stroke: #222222; stroke-width: 2; stroke-linecap: round"/>
   </g>
   <g id="line2d_22">
    <path d="M 432.351926 359.886939 
L 416.203057 369.793343 
" clip-path="url(#p0c7aed7ce7)" style="fill: none; stroke: #222222; stroke-width: 2; stroke-linecap: round"/>
   </g>
   <g id="line2d_23">
    <path d="M 431.847163 340.948405 
L 432.351926 359.886939 
" clip-path="url(#p0c7aed7ce7)" style="fill: none; stroke: #222222; stroke-width: 2; stroke-linecap: round"/>
   </g>
   <g id="line2d_24">
    <path d="M 399.549424 360.761214 
L 416.203057 369.793343 
" clip-path="url(#p0c7aed7ce7)" style="fill: none; stroke: #222222; stroke-width: 2; stroke-linecap: round"/>
   </g>
   <g id="line2d_25">
    <path d="M 383.400554 370.667619 
L 383.905317 389.606153 
" clip-path="url(#p0c7aed7ce7)" style="fill: none; stroke: #222222; stroke-width: 2; stroke-linecap: round"/>
   </g>
   <g id="line2d_26">
    <path d="M 383.400554 370.667619 
L 399.549424 360.761214 
" clip-path="url(#p0c7aed7ce7)" style="fill: none; stroke: #222222; stroke-width: 2; stroke-linecap: round"/>
   </g>
   <g id="line2d_27">
    <path d="M 449.00556 368.919068 
L 432.351926 359.886939 
" clip-path="url(#p0c7aed7ce7)" style="fill: none; stroke: #222222; stroke-width: 2; stroke-linecap: round"/>
   </g>
   <g id="line2d_28">
    <path d="M 449.510323 387.857602 
L 449.00556 368.919068 
" clip-path="url(#p0c7aed7ce7)" style="fill: none; stroke: #222222; stroke-width: 2; stroke-linecap: round"/>
   </g>
   <g id="line2d_29">
    <path d="M 466.163956 396.889731 
L 449.510323 387.857602 
" clip-path="url(#p0c7aed7ce7)" style="fill: none; stroke: #222222; stroke-width: 2; stroke-linecap: round"/>
   </g>
   <g id="line2d_30">
    <path d="M 482.312826 386.983326 
L 466.163956 396.889731 
" clip-path="url(#p0c7aed7ce7)" style="fill: none; stroke: #222222; stroke-width: 2; stroke-linecap: round"/>
   </g>
   <g id="line2d_31">
    <path d="M 481.808063 368.044793 
L 482.312826 386.983326 
" clip-path="url(#p0c7aed7ce7)" style="fill: none; stroke: #222222; stroke-width: 2; stroke-linecap: round"/>
   </g>
   <g id="line2d_32">
    <path d="M 497.956932 358.138388 
L 481.808063 368.044793 
" clip-path="url(#p0c7aed7ce7)" style="fill: none; stroke: #222222; stroke-width: 2; stroke-linecap: round"/>
   </g>
   <g id="line2d_33">
    <path d="M 465.154429 359.012663 
L 481.808063 368.044793 
" clip-path="url(#p0c7aed7ce7)" style="fill: none; stroke: #222222; stroke-width: 2; stroke-linecap: round"/>
   </g>
   <g id="line2d_34">
    <path d="M 465.154429 359.012663 
L 449.00556 368.919068 
" clip-path="url(#p0c7aed7ce7)" style="fill: none; stroke: #222222; stroke-width: 2; stroke-linecap: round"/>
   </g>
   <g id="line2d_35">
    <path d="M 464.649666 340.074129 
L 465.154429 359.012663 
" clip-path="url(#p0c7aed7ce7)" style="fill: none; stroke: #222222; stroke-width: 2; stroke-linecap: round"/>
   </g>
   <g id="line2d_36">
    <path d="M 320.854376 466.12237 
L 329.886506 449.468737 
" clip-path="url(#p0c7aed7ce7)" style="fill: none; stroke: #222222; stroke-width: 2; stroke-linecap: round"/>
   </g>
   <g id="line2d_37">
    <path d="M 301.915843 466.627134 
L 320.854376 466.12237 
" clip-path="url(#p0c7aed7ce7)" style="fill: none; stroke: #222222; stroke-width: 2; stroke-linecap: round"/>
   </g>
   <g id="line2d_38">
    <path d="M 292.883713 483.280767 
L 301.915843 466.627134 
" clip-path="url(#p0c7aed7ce7)" style="fill: none; stroke: #222222; stroke-width: 2; stroke-linecap: round"/>
   </g>
   <g id="line2d_39">
    <path d="M 302.790118 499.429637 
L 292.883713 483.280767 
" clip-path="url(#p0c7aed7ce7)" style="fill: none; stroke: #222222; stroke-width: 2; stroke-linecap: round"/>
   </g>
   <g id="line2d_40">
    <path d="M 321.728652 498.924873 
L 302.790118 499.429637 
" clip-path="url(#p0c7aed7ce7)" style="fill: none; stroke: #222222; stroke-width: 2; stroke-linecap: round"/>
   </g>
   <g id="line2d_41">
    <path d="M 330.760781 482.27124 
L 321.728652 498.924873 
" clip-path="url(#p0c7aed7ce7)" style="fill: none; stroke: #222222; stroke-width: 2; stroke-linecap: round"/>
   </g>
   <g id="line2d_42">
    <path d="M 330.760781 482.27124 
L 320.854376 466.12237 
" clip-path="url(#p0c7aed7ce7)" style="fill: none; stroke: #222222; stroke-width: 2; stroke-linecap: round"/>
   </g>
   <g id="line2d_43">
    <path d="M 350.598051 371.541894 
L 351.102814 390.480428 
" clip-path="url(#p0c7aed7ce7)" style="fill: none; stroke: #222222; stroke-width: 2; stroke-linecap: round"/>
   </g>
   <g id="line2d_44">
    <path d="M 350.598051 371.541894 
L 366.746921 361.635489 
" clip-path="url(#p0c7aed7ce7)" style="fill: none; stroke: #222222; stroke-width: 2; stroke-linecap: round"/>
   </g>
   <g id="line2d_45">
    <path d="M 318.300311 391.354703 
L 334.953944 400.386833 
" clip-path="url(#p0c7aed7ce7)" style="fill: none; stroke: #222222; stroke-width: 2; stroke-linecap: round"/>
   </g>
   <g id="line2d_46">
    <path d="M 317.795548 372.41617 
L 318.300311 391.354703 
" clip-path="url(#p0c7aed7ce7)" style="fill: none; stroke: #222222; stroke-width: 2; stroke-linecap: round"/>
   </g>
   <g id="line2d_47">
    <path d="M 333.944418 362.509765 
L 317.795548 372.41617 
" clip-path="url(#p0c7aed7ce7)" style="fill: none; stroke: #222222; stroke-width: 2; stroke-linecap: round"/>
   </g>
   <g id="line2d_48">
    <path d="M 301.141915 363.38404 
L 317.795548 372.41617 
" clip-path="url(#p0c7aed7ce7)" style="fill: none; stroke: #222222; stroke-width: 2; stroke-linecap: round"/>
   </g>
   <g id="line2d_49">
    <path d="M 300.637152 344.445506 
L 301.141915 363.38404 
" clip-path="url(#p0c7aed7ce7)" style="fill: none; stroke: #222222; stroke-width: 2; stroke-linecap: round"/>
   </g>
   <g id="line2d_50">
    <path d="M 316.786021 334.539102 
L 300.637152 344.445506 
" clip-path="url(#p0c7aed7ce7)" style="fill: none; stroke: #222222; stroke-width: 2; stroke-linecap: round"/>
   </g>
   <g id="line2d_51">
    <path d="M 316.281258 315.600568 
L 316.786021 334.539102 
" clip-path="url(#p0c7aed7ce7)" style="fill: none; stroke: #222222; stroke-width: 2; stroke-linecap: round"/>
   </g>
   <g id="line2d_52">
    <path d="M 299.627625 306.568439 
L 316.281258 315.600568 
" clip-path="url(#p0c7aed7ce7)" style="fill: none; stroke: #222222; stroke-width: 2; stroke-linecap: round"/>
   </g>
   <g id="line2d_53">
    <path d="M 283.478755 316.474843 
L 299.627625 306.568439 
" clip-path="url(#p0c7aed7ce7)" style="fill: none; stroke: #222222; stroke-width: 2; stroke-linecap: round"/>
   </g>
   <g id="line2d_54">
    <path d="M 283.983518 335.413377 
L 283.478755 316.474843 
" clip-path="url(#p0c7aed7ce7)" style="fill: none; stroke: #222222; stroke-width: 2; stroke-linecap: round"/>
   </g>
   <g id="line2d_55">
    <path d="M 283.983518 335.413377 
L 300.637152 344.445506 
" clip-path="url(#p0c7aed7ce7)" style="fill: none; stroke: #222222; stroke-width: 2; stroke-linecap: round"/>
   </g>
   <g id="line2d_56">
    <path d="M 267.834649 345.319782 
L 283.983518 335.413377 
" clip-path="url(#p0c7aed7ce7)" style="fill: none; stroke: #222222; stroke-width: 2; stroke-linecap: round"/>
   </g>
   <g id="line2d_57">
    <path d="M 299.122862 287.629905 
L 299.627625 306.568439 
" clip-path="url(#p0c7aed7ce7)" style="fill: none; stroke: #222222; stroke-width: 2; stroke-linecap: round"/>
   </g>
   <g id="line2d_58">
    <path d="M 298.618099 268.691371 
L 299.122862 287.629905 
" clip-path="url(#p0c7aed7ce7)" style="fill: none; stroke: #222222; stroke-width: 2; stroke-linecap: round"/>
   </g>
   <g id="line2d_59">
    <path d="M 318.061396 287.125141 
L 299.122862 287.629905 
" clip-path="url(#p0c7aed7ce7)" style="fill: none; stroke: #222222; stroke-width: 2; stroke-linecap: round"/>
   </g>
   <g id="line2d_60">
    <path d="M 280.184328 288.134668 
L 299.122862 287.629905 
" clip-path="url(#p0c7aed7ce7)" style="fill: none; stroke: #222222; stroke-width: 2; stroke-linecap: round"/>
   </g>
   <g id="text_1">
    <g id="patch_6">
     <path d="M 380.007968 433.35408 
L 389.821718 433.35408 
L 389.821718 421.612361 
L 380.007968 421.612361 
z
" style="fill: #ffffff"/>
    </g>
    <text style="font-weight: 700; font-size: 12px; font-family: 'Liberation Sans', 'Arimo', 'DejaVu Sans'; text-anchor: middle; fill: #d40000" x="384.914843" y="430.588689" transform="rotate(-0 384.914843 430.588689)">O</text>
   </g>
   <g id="text_2">
    <g id="patch_7">
     <path d="M 347.539215 434.228355 
L 356.685465 434.228355 
L 356.685465 422.486637 
L 347.539215 422.486637 
z
" style="fill: #ffffff"/>
    </g>
    <text style="font-weight: 700; font-size: 12px; font-family: 'Liberation Sans', 'Arimo', 'DejaVu Sans'; text-anchor: middle; fill: #0879c0" x="352.11234" y="431.462965" transform="rotate(-0 352.11234 431.462965)">N</text>
   </g>
   <g id="text_3">
    <g id="patch_8">
     <path d="M 344.095405 452.857983 
L 353.241655 452.857983 
L 353.241655 441.116264 
L 344.095405 441.116264 
z
" style="fill: #ffffff"/>
    </g>
    <text style="font-weight: 700; font-size: 12px; font-family: 'Liberation Sans', 'Arimo', 'DejaVu Sans'; text-anchor: middle; fill: #0879c0" x="348.66853" y="450.092592" transform="rotate(-0 348.66853 450.092592)">N</text>
   </g>
   <g id="text_4">
    <g id="patch_9">
     <path d="M 317.149261 438.243691 
L 326.295511 438.243691 
L 326.295511 426.501972 
L 317.149261 426.501972 
z
" style="fill: #ffffff"/>
    </g>
    <text style="font-weight: 700; font-size: 12px; font-family: 'Liberation Sans', 'Arimo', 'DejaVu Sans'; text-anchor: middle; fill: #0879c0" x="321.722386" y="435.4783" transform="rotate(-0 321.722386 435.4783)">N</text>
   </g>
   <g id="text_5">
    <g id="patch_10">
     <path d="M 330.380819 406.257692 
L 339.527069 406.257692 
L 339.527069 394.515973 
L 330.380819 394.515973 
z
" style="fill: #ffffff"/>
    </g>
    <text style="font-weight: 700; font-size: 12px; font-family: 'Liberation Sans', 'Arimo', 'DejaVu Sans'; text-anchor: middle; fill: #0879c0" x="334.953944" y="403.492301" transform="rotate(-0 334.953944 403.492301)">N</text>
   </g>
   <g id="text_6">
    <g id="patch_11">
     <path d="M 379.332192 395.477012 
L 388.478442 395.477012 
L 388.478442 383.735293 
L 379.332192 383.735293 
z
" style="fill: #ffffff"/>
    </g>
    <text style="font-weight: 700; font-size: 12px; font-family: 'Liberation Sans', 'Arimo', 'DejaVu Sans'; text-anchor: middle; fill: #0879c0" x="383.905317" y="392.711621" transform="rotate(-0 383.905317 392.711621)">N</text>
   </g>
   <g id="text_7">
    <g id="patch_12">
     <path d="M 411.629932 375.664203 
L 420.776182 375.664203 
L 420.776182 363.922484 
L 411.629932 363.922484 
z
" style="fill: #ffffff"/>
    </g>
    <text style="font-weight: 700; font-size: 12px; font-family: 'Liberation Sans', 'Arimo', 'DejaVu Sans'; text-anchor: middle; fill: #0879c0" x="416.203057" y="372.898812" transform="rotate(-0 416.203057 372.898812)">N</text>
   </g>
   <g id="text_8">
    <g id="patch_13">
     <path d="M 426.940288 346.819264 
L 436.754038 346.819264 
L 436.754038 335.077545 
L 426.940288 335.077545 
z
" style="fill: #ffffff"/>
    </g>
    <text style="font-weight: 700; font-size: 12px; font-family: 'Liberation Sans', 'Arimo', 'DejaVu Sans'; text-anchor: middle; fill: #d40000" x="431.847163" y="344.053874" transform="rotate(-0 431.847163 344.053874)">O</text>
   </g>
   <g id="text_9">
    <g id="patch_14">
     <path d="M 444.937198 393.728461 
L 454.083448 393.728461 
L 454.083448 381.986742 
L 444.937198 381.986742 
z
" style="fill: #ffffff"/>
    </g>
    <text style="font-weight: 700; font-size: 12px; font-family: 'Liberation Sans', 'Arimo', 'DejaVu Sans'; text-anchor: middle; fill: #0879c0" x="449.510323" y="390.963071" transform="rotate(-0 449.510323 390.963071)">N</text>
   </g>
   <g id="text_10">
    <g id="patch_15">
     <path d="M 477.739701 392.854186 
L 486.885951 392.854186 
L 486.885951 381.112467 
L 477.739701 381.112467 
z
" style="fill: #ffffff"/>
    </g>
    <text style="font-weight: 700; font-size: 12px; font-family: 'Liberation Sans', 'Arimo', 'DejaVu Sans'; text-anchor: middle; fill: #0879c0" x="482.312826" y="390.088795" transform="rotate(-0 482.312826 390.088795)">N</text>
   </g>
   <g id="text_11">
    <g id="patch_16">
     <path d="M 459.742791 345.944989 
L 469.556541 345.944989 
L 469.556541 334.20327 
L 459.742791 334.20327 
z
" style="fill: #ffffff"/>
    </g>
    <text style="font-weight: 700; font-size: 12px; font-family: 'Liberation Sans', 'Arimo', 'DejaVu Sans'; text-anchor: middle; fill: #d40000" x="464.649666" y="343.179598" transform="rotate(-0 464.649666 343.179598)">O</text>
   </g>
   <g id="text_12">
    <g id="patch_17">
     <path d="M 297.883243 505.300496 
L 307.696993 505.300496 
L 307.696993 493.558777 
L 297.883243 493.558777 
z
" style="fill: #ffffff"/>
    </g>
    <text style="font-weight: 700; font-size: 12px; font-family: 'Liberation Sans', 'Arimo', 'DejaVu Sans'; text-anchor: middle; fill: #d40000" x="302.790118" y="502.535105" transform="rotate(-0 302.790118 502.535105)">O</text>
   </g>
   <g id="text_13">
    <g id="patch_18">
     <path d="M 329.037543 368.380624 
L 338.851293 368.380624 
L 338.851293 356.638905 
L 329.037543 356.638905 
z
" style="fill: #ffffff"/>
    </g>
    <text style="font-weight: 700; font-size: 12px; font-family: 'Liberation Sans', 'Arimo', 'DejaVu Sans'; text-anchor: middle; fill: #d40000" x="333.944418" y="365.615234" transform="rotate(-0 333.944418 365.615234)">O</text>
   </g>
   <g id="text_14">
    <g id="patch_19">
     <path d="M 296.56879 369.2549 
L 305.71504 369.2549 
L 305.71504 357.513181 
L 296.56879 357.513181 
z
" style="fill: #ffffff"/>
    </g>
    <text style="font-weight: 700; font-size: 12px; font-family: 'Liberation Sans', 'Arimo', 'DejaVu Sans'; text-anchor: middle; fill: #0879c0" x="301.141915" y="366.489509" transform="rotate(-0 301.141915 366.489509)">N</text>
   </g>
   <g id="text_15">
    <g id="patch_20">
     <path d="M 261.594649 351.190641 
L 274.074649 351.190641 
L 274.074649 339.448922 
L 261.594649 339.448922 
z
" style="fill: #ffffff"/>
    </g>
    <text style="font-weight: 700; font-size: 12px; font-family: 'Liberation Sans', 'Arimo', 'DejaVu Sans'; text-anchor: middle; fill: #00a040" x="267.834649" y="348.42525" transform="rotate(-0 267.834649 348.42525)">Cl</text>
   </g>
   <g id="text_16">
    <g id="patch_21">
     <path d="M 294.713411 274.56223 
L 302.522786 274.56223 
L 302.522786 262.820511 
L 294.713411 262.820511 
z
" style="fill: #ffffff"/>
    </g>
    <text style="font-weight: 700; font-size: 12px; font-family: 'Liberation Sans', 'Arimo', 'DejaVu Sans'; text-anchor: middle; fill: #00a040" x="298.618099" y="271.796839" transform="rotate(-0 298.618099 271.796839)">F</text>
   </g>
   <g id="text_17">
    <g id="patch_22">
     <path d="M 314.156709 292.996001 
L 321.966084 292.996001 
L 321.966084 281.254282 
L 314.156709 281.254282 
z
" style="fill: #ffffff"/>
    </g>
    <text style="font-weight: 700; font-size: 12px; font-family: 'Liberation Sans', 'Arimo', 'DejaVu Sans'; text-anchor: middle; fill: #00a040" x="318.061396" y="290.23061" transform="rotate(-0 318.061396 290.23061)">F</text>
   </g>
   <g id="text_18">
    <g id="patch_23">
     <path d="M 276.279641 294.005527 
L 284.089016 294.005527 
L 284.089016 282.263808 
L 276.279641 282.263808 
z
" style="fill: #ffffff"/>
    </g>
    <text style="font-weight: 700; font-size: 12px; font-family: 'Liberation Sans', 'Arimo', 'DejaVu Sans'; text-anchor: middle; fill: #00a040" x="280.184328" y="291.240136" transform="rotate(-0 280.184328 291.240136)">F</text>
   </g>
   <g id="patch_24">
    <path d="M 335.509257 653.213082 
C 342.082581 653.213082 348.387564 650.601473 353.035606 645.953431 
C 357.683648 641.305389 360.295257 635.000406 360.295257 628.427082 
C 360.295257 621.853758 357.683648 615.548775 353.035606 610.900733 
C 348.387564 606.252691 342.082581 603.641082 335.509257 603.641082 
C 328.935933 603.641082 322.63095 606.252691 317.982908 610.900733 
C 313.334866 615.548775 310.723257 621.853758 310.723257 628.427082 
C 310.723257 635.000406 313.334866 641.305389 317.982908 645.953431 
C 322.63095 650.601473 328.935933 653.213082 335.509257 653.213082 
z
" clip-path="url(#p0c7aed7ce7)" style="fill: #d9584c; stroke: #222222; stroke-width: 1.2; stroke-linejoin: miter"/>
   </g>
   <g id="patch_25">
    <path d="M 607.853133 404.721032 
C 614.426457 404.721032 620.73144 402.109423 625.379482 397.461381 
C 630.027524 392.813339 632.639133 386.508356 632.639133 379.935032 
C 632.639133 373.361708 630.027524 367.056725 625.379482 362.408683 
C 620.73144 357.760641 614.426457 355.149032 607.853133 355.149032 
C 601.279809 355.149032 594.974827 357.760641 590.326785 362.408683 
C 585.678743 367.056725 583.067133 373.361708 583.067133 379.935032 
C 583.067133 386.508356 585.678743 392.813339 590.326785 397.461381 
C 594.974827 402.109423 601.279809 404.721032 607.853133 404.721032 
z
" clip-path="url(#p0c7aed7ce7)" style="fill: #5087c5; stroke: #222222; stroke-width: 1.2; stroke-linejoin: miter"/>
   </g>
   <g id="patch_26">
    <path d="M 132.077155 503.960848 
C 138.650479 503.960848 144.955462 501.349239 149.603504 496.701197 
C 154.251546 492.053155 156.863155 485.748172 156.863155 479.174848 
C 156.863155 472.601524 154.251546 466.296541 149.603504 461.648499 
C 144.955462 457.000457 138.650479 454.388848 132.077155 454.388848 
C 125.503831 454.388848 119.198848 457.000457 114.550806 461.648499 
C 109.902764 466.296541 107.291155 472.601524 107.291155 479.174848 
C 107.291155 485.748172 109.902764 492.053155 114.550806 496.701197 
C 119.198848 501.349239 125.503831 503.960848 132.077155 503.960848 
z
" clip-path="url(#p0c7aed7ce7)" style="fill: #5087c5; stroke: #222222; stroke-width: 1.2; stroke-linejoin: miter"/>
   </g>
   <g id="patch_27">
    <path d="M 213.38415 606.411871 
C 219.957474 606.411871 226.262457 603.800262 230.910499 599.15222 
C 235.558541 594.504178 238.17015 588.199195 238.17015 581.625871 
C 238.17015 575.052547 235.558541 568.747565 230.910499 564.099523 
C 226.262457 559.451481 219.957474 556.839871 213.38415 556.839871 
C 206.810826 556.839871 200.505844 559.451481 195.857802 564.099523 
C 191.20976 568.747565 188.59815 575.052547 188.59815 581.625871 
C 188.59815 588.199195 191.20976 594.504178 195.857802 599.15222 
C 200.505844 603.800262 206.810826 606.411871 213.38415 606.411871 
z
" clip-path="url(#p0c7aed7ce7)" style="fill: #8bc34a; stroke: #222222; stroke-width: 1.2; stroke-linejoin: miter"/>
   </g>
   <g id="patch_28">
    <path d="M 174.989454 241.624563 
C 181.562778 241.624563 187.867761 239.012954 192.515803 234.364912 
C 197.163845 229.71687 199.775454 223.411887 199.775454 216.838563 
C 199.775454 210.265239 197.163845 203.960256 192.515803 199.312214 
C 187.867761 194.664172 181.562778 192.052563 174.989454 192.052563 
C 168.41613 192.052563 162.111148 194.664172 157.463106 199.312214 
C 152.815064 203.960256 150.203454 210.265239 150.203454 216.838563 
C 150.203454 223.411887 152.815064 229.71687 157.463106 234.364912 
C 162.111148 239.012954 168.41613 241.624563 174.989454 241.624563 
z
" clip-path="url(#p0c7aed7ce7)" style="fill: #d9584c; stroke: #222222; stroke-width: 1.2; stroke-linejoin: miter"/>
   </g>
   <g id="patch_29">
    <path d="M 284.71567 170.415943 
C 291.288994 170.415943 297.593977 167.804334 302.242019 163.156292 
C 306.890061 158.50825 309.50167 152.203267 309.50167 145.629943 
C 309.50167 139.056619 306.890061 132.751637 302.242019 128.103595 
C 297.593977 123.455553 291.288994 120.843943 284.71567 120.843943 
C 278.142346 120.843943 271.837364 123.455553 267.189322 128.103595 
C 262.54128 132.751637 259.92967 139.056619 259.92967 145.629943 
C 259.92967 152.203267 262.54128 158.50825 267.189322 163.156292 
C 271.837364 167.804334 278.142346 170.415943 284.71567 170.415943 
z
" clip-path="url(#p0c7aed7ce7)" style="fill: #5087c5; stroke: #222222; stroke-width: 1.2; stroke-linejoin: miter"/>
   </g>
   <g id="patch_30">
    <path d="M 572.398443 278.810449 
C 578.971767 278.810449 585.27675 276.198839 589.924792 271.550797 
C 594.572834 266.902755 597.184443 260.597773 597.184443 254.024449 
C 597.184443 247.451125 594.572834 241.146142 589.924792 236.4981 
C 585.27675 231.850058 578.971767 229.238449 572.398443 229.238449 
C 565.825119 229.238449 559.520137 231.850058 554.872095 236.4981 
C 550.224053 241.146142 547.612443 247.451125 547.612443 254.024449 
C 547.612443 260.597773 550.224053 266.902755 554.872095 271.550797 
C 559.520137 276.198839 565.825119 278.810449 572.398443 278.810449 
z
" clip-path="url(#p0c7aed7ce7)" style="fill: #f5a623; stroke: #222222; stroke-width: 1.2; stroke-linejoin: miter"/>
   </g>
   <g id="patch_31">
    <path d="M 116.791625 358.772003 
C 123.364949 358.772003 129.669932 356.160394 134.317974 351.512352 
C 138.966016 346.86431 141.577625 340.559327 141.577625 333.986003 
C 141.577625 327.412679 138.966016 321.107697 134.317974 316.459655 
C 129.669932 311.811613 123.364949 309.200003 116.791625 309.200003 
C 110.218301 309.200003 103.913319 311.811613 99.265277 316.459655 
C 94.617235 321.107697 92.005625 327.412679 92.005625 333.986003 
C 92.005625 340.559327 94.617235 346.86431 99.265277 351.512352 
C 103.913319 356.160394 110.218301 358.772003 116.791625 358.772003 
z
" clip-path="url(#p0c7aed7ce7)" style="fill: #f5a623; stroke: #dc3912; stroke-width: 2.8; stroke-linejoin: miter"/>
   </g>
   <g id="patch_32">
    <path d="M 564.319599 546.880223 
C 570.892923 546.880223 577.197905 544.268614 581.845947 539.620572 
C 586.493989 534.97253 589.105599 528.667547 589.105599 522.094223 
C 589.105599 515.520899 586.493989 509.215916 581.845947 504.567874 
C 577.197905 499.919832 570.892923 497.308223 564.319599 497.308223 
C 557.746275 497.308223 551.441292 499.919832 546.79325 504.567874 
C 542.145208 509.215916 539.533599 515.520899 539.533599 522.094223 
C 539.533599 528.667547 542.145208 534.97253 546.79325 539.620572 
C 551.441292 544.268614 557.746275 546.880223 564.319599 546.880223 
z
" clip-path="url(#p0c7aed7ce7)" style="fill: #5087c5; stroke: #222222; stroke-width: 1.2; stroke-linejoin: miter"/>
   </g>
   <g id="patch_33">
    <path d="M 464.453188 631.341691 
C 471.026512 631.341691 477.331494 628.730082 481.979536 624.08204 
C 486.627578 619.433998 489.239188 613.129015 489.239188 606.555691 
C 489.239188 599.982367 486.627578 593.677384 481.979536 589.029342 
C 477.331494 584.3813 471.026512 581.769691 464.453188 581.769691 
C 457.879863 581.769691 451.574881 584.3813 446.926839 589.029342 
C 442.278797 593.677384 439.667188 599.982367 439.667188 606.555691 
C 439.667188 613.129015 442.278797 619.433998 446.926839 624.08204 
C 451.574881 628.730082 457.879863 631.341691 464.453188 631.341691 
z
" clip-path="url(#p0c7aed7ce7)" style="fill: #5087c5; stroke: #222222; stroke-width: 1.2; stroke-linejoin: miter"/>
   </g>
   <g id="text_19">
    <text style="font-weight: 700; font-size: 8.5px; font-family: 'Liberation Sans', 'Arimo', 'DejaVu Sans'; text-anchor: middle; fill: #ffffff" x="335.509257" y="630.626789" transform="rotate(-0 335.509257 630.626789)">E846</text>
   </g>
   <g id="text_20">
    <text style="font-weight: 700; font-size: 8.5px; font-family: 'Liberation Sans', 'Arimo', 'DejaVu Sans'; text-anchor: middle; fill: #ffffff" x="607.853133" y="382.134739" transform="rotate(-0 607.853133 382.134739)">K887</text>
   </g>
   <g id="text_21">
    <text style="font-weight: 700; font-size: 8.5px; font-family: 'Liberation Sans', 'Arimo', 'DejaVu Sans'; text-anchor: middle; fill: #ffffff" x="132.077155" y="481.374555" transform="rotate(-0 132.077155 481.374555)">H916</text>
   </g>
   <g id="text_22">
    <text style="font-weight: 700; font-size: 8.5px; font-family: 'Liberation Sans', 'Arimo', 'DejaVu Sans'; text-anchor: middle; fill: #222222" x="213.38415" y="583.825578" transform="rotate(-0 213.38415 583.825578)">F917</text>
   </g>
   <g id="text_23">
    <text style="font-weight: 700; font-size: 8.5px; font-family: 'Liberation Sans', 'Arimo', 'DejaVu Sans'; text-anchor: middle; fill: #ffffff" x="174.989454" y="219.03827" transform="rotate(-0 174.989454 219.03827)">D919</text>
   </g>
   <g id="text_24">
    <text style="font-weight: 700; font-size: 8.5px; font-family: 'Liberation Sans', 'Arimo', 'DejaVu Sans'; text-anchor: middle; fill: #ffffff" x="284.71567" y="147.82965" transform="rotate(-0 284.71567 147.82965)">K920</text>
   </g>
   <g id="text_25">
    <text style="font-weight: 700; font-size: 8.5px; font-family: 'Liberation Sans', 'Arimo', 'DejaVu Sans'; text-anchor: middle; fill: #222222" x="572.398443" y="256.224156" transform="rotate(-0 572.398443 256.224156)">S708</text>
   </g>
   <g id="text_26">
    <text style="font-weight: 700; font-size: 8.5px; font-family: 'Liberation Sans', 'Arimo', 'DejaVu Sans'; text-anchor: middle; fill: #222222" x="116.791625" y="336.18571" transform="rotate(-0 116.791625 336.18571)">S727</text>
   </g>
   <g id="text_27">
    <text style="font-weight: 700; font-size: 8.5px; font-family: 'Liberation Sans', 'Arimo', 'DejaVu Sans'; text-anchor: middle; fill: #ffffff" x="564.319599" y="524.29393" transform="rotate(-0 564.319599 524.29393)">K894</text>
   </g>
   <g id="text_28">
    <text style="font-weight: 700; font-size: 8.5px; font-family: 'Liberation Sans', 'Arimo', 'DejaVu Sans'; text-anchor: middle; fill: #ffffff" x="464.453188" y="608.755398" transform="rotate(-0 464.453188 608.755398)">K898</text>
   </g>
  </g>
  <g id="patch_34">
   <path d="M 183.440391 714.42 
Q 188.63969 714.42 191.714724 714.42 
" style="fill: none; stroke: #0279ee; stroke-width: 1.9; stroke-linecap: round"/>
   <path d="M 186.914724 712.02 
L 191.714724 714.42 
L 186.914724 716.82 
" style="fill: none; stroke: #0279ee; stroke-width: 1.9; stroke-linecap: round"/>
  </g>
  <g id="patch_35">
   <path d="M 92.16 743.148 
C 93.68757 743.148 95.15278 742.510745 96.232935 741.376582 
C 97.31309 740.242419 97.92 738.703948 97.92 737.1 
C 97.92 735.496052 97.31309 733.957581 96.232935 732.823418 
C 95.15278 731.689255 93.68757 731.052 92.16 731.052 
C 90.63243 731.052 89.16722 731.689255 88.087065 732.823418 
C 87.00691 733.957581 86.4 735.496052 86.4 737.1 
C 86.4 738.703948 87.00691 740.242419 88.087065 741.376582 
C 89.16722 742.510745 90.63243 743.148 92.16 743.148 
z
" style="fill: #5087c5; stroke: #222222; stroke-width: 0.8; stroke-linejoin: miter"/>
  </g>
  <g id="patch_36">
   <path d="M 218.88 743.148 
C 220.40757 743.148 221.87278 742.510745 222.952935 741.376582 
C 224.03309 740.242419 224.64 738.703948 224.64 737.1 
C 224.64 735.496052 224.03309 733.957581 222.952935 732.823418 
C 221.87278 731.689255 220.40757 731.052 218.88 731.052 
C 217.35243 731.052 215.88722 731.689255 214.807065 732.823418 
C 213.72691 733.957581 213.12 735.496052 213.12 737.1 
C 213.12 738.703948 213.72691 740.242419 214.807065 741.376582 
C 215.88722 742.510745 217.35243 743.148 218.88 743.148 
z
" style="fill: #d9584c; stroke: #222222; stroke-width: 0.8; stroke-linejoin: miter"/>
  </g>
  <g id="patch_37">
   <path d="M 345.6 743.148 
C 347.12757 743.148 348.59278 742.510745 349.672935 741.376582 
C 350.75309 740.242419 351.36 738.703948 351.36 737.1 
C 351.36 735.496052 350.75309 733.957581 349.672935 732.823418 
C 348.59278 731.689255 347.12757 731.052 345.6 731.052 
C 344.07243 731.052 342.60722 731.689255 341.527065 732.823418 
C 340.44691 733.957581 339.84 735.496052 339.84 737.1 
C 339.84 738.703948 340.44691 740.242419 341.527065 741.376582 
C 342.60722 742.510745 344.07243 743.148 345.6 743.148 
z
" style="fill: #f5a623; stroke: #222222; stroke-width: 0.8; stroke-linejoin: miter"/>
  </g>
  <g id="patch_38">
   <path d="M 472.32 743.148 
C 473.84757 743.148 475.31278 742.510745 476.392935 741.376582 
C 477.47309 740.242419 478.08 738.703948 478.08 737.1 
C 478.08 735.496052 477.47309 733.957581 476.392935 732.823418 
C 475.31278 731.689255 473.84757 731.052 472.32 731.052 
C 470.79243 731.052 469.32722 731.689255 468.247065 732.823418 
C 467.16691 733.957581 466.56 735.496052 466.56 737.1 
C 466.56 738.703948 467.16691 740.242419 468.247065 741.376582 
C 469.32722 742.510745 470.79243 743.148 472.32 743.148 
z
" style="fill: #8bc34a; stroke: #222222; stroke-width: 0.8; stroke-linejoin: miter"/>
  </g>
  <g id="patch_39">
   <path d="M 599.04 743.148 
C 600.56757 743.148 602.03278 742.510745 603.112935 741.376582 
C 604.19309 740.242419 604.8 738.703948 604.8 737.1 
C 604.8 735.496052 604.19309 733.957581 603.112935 732.823418 
C 602.03278 731.689255 600.56757 731.052 599.04 731.052 
C 597.51243 731.052 596.04722 731.689255 594.967065 732.823418 
C 593.88691 733.957581 593.28 735.496052 593.28 737.1 
C 593.28 738.703948 593.88691 740.242419 594.967065 741.376582 
C 596.04722 742.510745 597.51243 743.148 599.04 743.148 
z
" style="fill: #ffffff; stroke: #dc3912; stroke-width: 2.5; stroke-linejoin: miter"/>
  </g>
  <g id="line2d_61">
   <path d="M 498.24 714.42 
L 512.64 714.42 
" style="fill: none; stroke: #75a025; stroke-opacity: 0.4; stroke-width: 4; stroke-linecap: square"/>
  </g>
  <g id="text_29">
   <text style="font-weight: 700; font-size: 14px; font-family: 'Liberation Sans', 'Arimo', 'DejaVu Sans'; text-anchor: middle" x="360" y="21.532383" transform="rotate(-0 360 21.532383)">C727S × 7GQU · HRO761 — NEUTRAL</text>
  </g>
  <g id="text_30">
   <text style="font-size: 10.5px; font-family: 'Liberation Sans', 'Arimo', 'DejaVu Sans'; text-anchor: middle" x="360" y="41.66925" transform="rotate(-0 360 41.66925)">ΔS = -0.34  |  RMSD vs WT = 0.45 Å  |  0 lost / 8 retained / 2 gained</text>
  </g>
  <g id="text_31">
   <text style="font-size: 10.5px; font-family: 'Liberation Sans', 'Arimo', 'DejaVu Sans'; text-anchor: middle" x="360" y="61.320287" transform="rotate(-0 360 61.320287)">PLIP: 6 hydrophobic · 4 H-bond</text>
  </g>
  <g id="text_32">
   <text style="font-size: 8.5px; font-family: 'Liberation Sans', 'Arimo', 'DejaVu Sans'; text-anchor: start" x="199.44" y="716.619707" transform="rotate(-0 199.44 716.619707)">H-bond</text>
  </g>
  <g id="text_33">
   <text style="font-size: 8.5px; font-family: 'Liberation Sans', 'Arimo', 'DejaVu Sans'; text-anchor: start" x="516.24" y="716.619707" transform="rotate(-0 516.24 716.619707)">Hydrophobic</text>
  </g>
  <g id="text_34">
   <text style="font-size: 8px; font-family: 'Liberation Sans', 'Arimo', 'DejaVu Sans'; text-anchor: start" x="100.8" y="739.170313" transform="rotate(-0 100.8 739.170313)">Basic</text>
  </g>
  <g id="text_35">
   <text style="font-size: 8px; font-family: 'Liberation Sans', 'Arimo', 'DejaVu Sans'; text-anchor: start" x="227.52" y="739.170313" transform="rotate(-0 227.52 739.170313)">Acidic</text>
  </g>
  <g id="text_36">
   <text style="font-size: 8px; font-family: 'Liberation Sans', 'Arimo', 'DejaVu Sans'; text-anchor: start" x="354.24" y="739.170313" transform="rotate(-0 354.24 739.170313)">Polar</text>
  </g>
  <g id="text_37">
   <text style="font-size: 8px; font-family: 'Liberation Sans', 'Arimo', 'DejaVu Sans'; text-anchor: start" x="480.96" y="739.170313" transform="rotate(-0 480.96 739.170313)">Hydrophobic</text>
  </g>
  <g id="text_38">
   <text style="font-size: 8px; font-family: 'Liberation Sans', 'Arimo', 'DejaVu Sans'; text-anchor: start" x="607.68" y="739.170313" transform="rotate(-0 607.68 739.170313)">Mutation site</text>
  </g>
 </g>
 <defs>
  <clipPath id="p0c7aed7ce7">
   <rect x="53.82" y="75.6" width="612.36" height="612.36"/>
  </clipPath>
 </defs>
</svg>
