<?xml version="1.0" encoding="utf-8" standalone="no"?>
<!DOCTYPE svg PUBLIC "-//W3C//DTD SVG 1.1//EN"
  "http://www.w3.org/Graphics/SVG/1.1/DTD/svg11.dtd">
<svg xmlns:xlink="http://www.w3.org/1999/xlink" width="720pt" height="756pt" viewBox="0 0 720 756" xmlns="http://www.w3.org/2000/svg" version="1.1">
 <metadata>
  <rdf:RDF xmlns:dc="http://purl.org/dc/elements/1.1/" xmlns:cc="http://creativecommons.org/ns#" xmlns:rdf="http://www.w3.org/1999/02/22-rdf-syntax-ns#">
   <cc:Work>
    <dc:type rdf:resource="http://purl.org/dc/dcmitype/StillImage"/>
    <dc:date>2022-01-01T05:00:00+00:00</dc:date>
    <dc:format>image/svg+xml</dc:format>
    <dc:creator>
     <cc:Agent>
      <dc:title>Matplotlib v3.11.0, https://matplotlib.org/</dc:title>
     </cc:Agent>
    </dc:creator>
   </cc:Work>
  </rdf:RDF>
 </metadata>
 <defs>
  <style type="text/css">*{stroke-linejoin: round; stroke-linecap: butt}</style>
 </defs>
 <g id="figure_1">
  <g id="patch_1">
   <path d="M 0 756 
L 720 756 
L 720 0 
L 0 0 
z
" style="fill: #ffffff"/>
  </g>
  <g id="axes_1">
   <g id="line2d_1">
    <path d="M 159.459837 571.073268 
L 166.032651 568.858675 
L 172.570654 566.576932 
L 179.073848 564.228038 
L 185.542231 561.811995 
L 191.975803 559.328802 
L 198.374565 556.778458 
L 204.738517 554.160965 
L 211.067658 551.476322 
L 217.361989 548.724528 
L 223.62151 545.905585 
L 229.84622 543.019492 
L 236.036119 540.066249 
L 242.191209 537.045855 
L 248.311487 533.958312 
L 254.396956 530.803619 
L 260.447614 527.581775 
L 266.463462 524.292782 
L 272.444499 520.936639 
L 278.390726 517.513346 
L 284.302142 514.022902 
L 290.178748 510.465309 
L 296.020543 506.840566 
L 301.827529 503.148673 
L 307.599703 499.389629 
L 313.337068 495.563436 
L 319.039622 491.670093 
L 324.707365 487.7096 
L 330.340298 483.681957 
L 335.938421 479.587163 
" clip-path="url(#p559120fe03)" style="fill: none; stroke: #75a025; stroke-opacity: 0.4; stroke-width: 4; stroke-linecap: round"/>
   </g>
   <g id="line2d_2">
    <path d="M 85.758816 404.371095 
L 93.723224 407.833938 
L 101.711692 411.205182 
L 109.72422 414.484826 
L 117.760809 417.67287 
L 125.821457 420.769314 
L 133.906165 423.774158 
L 142.014934 426.687402 
L 150.147762 429.509046 
L 158.304651 432.23909 
L 166.4856 434.877534 
L 174.690609 437.424378 
L 182.919677 439.879622 
L 191.172806 442.243267 
L 199.449995 444.515311 
L 207.751245 446.695755 
L 216.076554 448.784599 
L 224.425923 450.781843 
L 232.799352 452.687487 
L 241.196842 454.501531 
L 249.618391 456.223975 
L 258.064001 457.854819 
L 266.53367 459.394063 
L 275.0274 460.841708 
L 283.54519 462.197752 
L 292.087039 463.462196 
L 300.652949 464.63504 
L 309.242919 465.716284 
L 317.856949 466.705929 
L 326.495039 467.603973 
" clip-path="url(#p559120fe03)" style="fill: none; stroke: #75a025; stroke-opacity: 0.4; stroke-width: 4; stroke-linecap: round"/>
   </g>
   <g id="line2d_3">
    <path d="M 496.928933 146.110514 
L 498.125894 153.617294 
L 499.239959 161.124477 
L 500.271129 168.632061 
L 501.219403 176.140047 
L 502.084781 183.648435 
L 502.867264 191.157225 
L 503.566852 198.666416 
L 504.183544 206.17601 
L 504.71734 213.686006 
L 505.168241 221.196403 
L 505.536246 228.707203 
L 505.821356 236.218404 
L 506.023571 243.730007 
L 506.142889 251.242012 
L 506.179313 258.75442 
L 506.13284 266.267229 
L 506.003473 273.780439 
L 505.791209 281.294052 
L 505.49605 288.808067 
L 505.117996 296.322484 
L 504.657046 303.837302 
L 504.113201 311.352523 
L 503.48646 318.868145 
L 502.776823 326.384169 
L 501.984291 333.900595 
L 501.108864 341.417424 
L 500.150541 348.934654 
L 499.109322 356.452286 
L 497.985208 363.970319 
" clip-path="url(#p559120fe03)" style="fill: none; stroke: #75a025; stroke-opacity: 0.4; stroke-width: 4; stroke-linecap: round"/>
   </g>
   <g id="patch_2">
    <path d="M 339.698347 597.903751 
Q 360.741501 518.592309 381.357238 440.891797 
" clip-path="url(#p559120fe03)" style="fill: none; stroke: #0279ee; stroke-width: 2; stroke-linecap: round"/>
    <path d="M 373.506294 447.085557 
L 381.357238 440.891797 
L 385.104984 450.162957 
" clip-path="url(#p559120fe03)" style="fill: none; stroke: #0279ee; stroke-width: 2; stroke-linecap: round"/>
   </g>
   <g id="patch_3">
    <path d="M 473.459757 566.405734 
Q 432.468694 502.092819 392.373428 439.185365 
" clip-path="url(#p559120fe03)" style="fill: none; stroke: #0279ee; stroke-width: 2; stroke-linecap: round"/>
    <path d="M 391.613595 449.156456 
L 392.373428 439.185365 
L 401.732922 442.70671 
" clip-path="url(#p559120fe03)" style="fill: none; stroke: #0279ee; stroke-width: 2; stroke-linecap: round"/>
   </g>
   <g id="patch_4">
    <path d="M 565.525813 451.780958 
Q 512.86491 422.765336 461.663757 394.554021 
" clip-path="url(#p559120fe03)" style="fill: none; stroke: #0279ee; stroke-width: 2; stroke-linecap: round"/>
    <path d="M 465.775048 403.669792 
L 461.663757 394.554021 
L 471.566059 393.159597 
" clip-path="url(#p559120fe03)" style="fill: none; stroke: #0279ee; stroke-width: 2; stroke-linecap: round"/>
   </g>
   <g id="patch_5">
    <path d="M 355.993465 161.37078 
Q 407.150769 245.507548 457.442191 328.220227 
" clip-path="url(#p559120fe03)" style="fill: none; stroke: #0279ee; stroke-width: 2; stroke-linecap: round"/>
    <path d="M 458.412675 318.267431 
L 457.442191 328.220227 
L 448.159242 324.50178 
" clip-path="url(#p559120fe03)" style="fill: none; stroke: #0279ee; stroke-width: 2; stroke-linecap: round"/>
   </g>
   <g id="patch_6">
    <path d="M 458.307171 329.642832 
Q 407.149867 245.506064 356.858445 162.793385 
" clip-path="url(#p559120fe03)" style="fill: none; stroke: #0279ee; stroke-width: 2; stroke-linecap: round"/>
    <path d="M 355.887961 172.746182 
L 356.858445 162.793385 
L 366.141395 166.511832 
" clip-path="url(#p559120fe03)" style="fill: none; stroke: #0279ee; stroke-width: 2; stroke-linecap: round"/>
   </g>
   <g id="line2d_4">
    <path d="M 570.111971 318.814123 
L 474.540565 372.922912 
" clip-path="url(#p559120fe03)" style="fill: none; stroke-dasharray: 9.6,7.2; stroke-dashoffset: 0; stroke: #fd9bed; stroke-width: 2.4"/>
   </g>
   <g id="line2d_5">
    <path d="M 367.756447 399.512557 
L 351.102814 390.480428 
" clip-path="url(#p559120fe03)" style="fill: none; stroke: #222222; stroke-width: 2; stroke-linecap: round"/>
   </g>
   <g id="line2d_6">
    <path d="M 368.26121 418.451091 
L 367.756447 399.512557 
" clip-path="url(#p559120fe03)" style="fill: none; stroke: #222222; stroke-width: 2; stroke-linecap: round"/>
   </g>
   <g id="line2d_7">
    <path d="M 384.914843 427.48322 
L 368.26121 418.451091 
" clip-path="url(#p559120fe03)" style="fill: none; stroke: #222222; stroke-width: 2; stroke-linecap: round"/>
   </g>
   <g id="line2d_8">
    <path d="M 352.11234 428.357496 
L 368.26121 418.451091 
" clip-path="url(#p559120fe03)" style="fill: none; stroke: #222222; stroke-width: 2; stroke-linecap: round"/>
   </g>
   <g id="line2d_9">
    <path d="M 348.66853 446.987124 
L 352.11234 428.357496 
" clip-path="url(#p559120fe03)" style="fill: none; stroke: #222222; stroke-width: 2; stroke-linecap: round"/>
   </g>
   <g id="line2d_10">
    <path d="M 329.886506 449.468737 
L 348.66853 446.987124 
" clip-path="url(#p559120fe03)" style="fill: none; stroke: #222222; stroke-width: 2; stroke-linecap: round"/>
   </g>
   <g id="line2d_11">
    <path d="M 321.722386 432.372831 
L 329.886506 449.468737 
" clip-path="url(#p559120fe03)" style="fill: none; stroke: #222222; stroke-width: 2; stroke-linecap: round"/>
   </g>
   <g id="line2d_12">
    <path d="M 335.458707 419.325367 
L 321.722386 432.372831 
" clip-path="url(#p559120fe03)" style="fill: none; stroke: #222222; stroke-width: 2; stroke-linecap: round"/>
   </g>
   <g id="line2d_13">
    <path d="M 335.458707 419.325367 
L 352.11234 428.357496 
" clip-path="url(#p559120fe03)" style="fill: none; stroke: #222222; stroke-width: 2; stroke-linecap: round"/>
   </g>
   <g id="line2d_14">
    <path d="M 334.953944 400.386833 
L 351.102814 390.480428 
" clip-path="url(#p559120fe03)" style="fill: none; stroke: #222222; stroke-width: 2; stroke-linecap: round"/>
   </g>
   <g id="line2d_15">
    <path d="M 334.953944 400.386833 
L 335.458707 419.325367 
" clip-path="url(#p559120fe03)" style="fill: none; stroke: #222222; stroke-width: 2; stroke-linecap: round"/>
   </g>
   <g id="line2d_16">
    <path d="M 383.905317 389.606153 
L 367.756447 399.512557 
" clip-path="url(#p559120fe03)" style="fill: none; stroke: #222222; stroke-width: 2; stroke-linecap: round"/>
   </g>
   <g id="line2d_17">
    <path d="M 400.55895 398.638282 
L 383.905317 389.606153 
" clip-path="url(#p559120fe03)" style="fill: none; stroke: #222222; stroke-width: 2; stroke-linecap: round"/>
   </g>
   <g id="line2d_18">
    <path d="M 416.70782 388.731877 
L 400.55895 398.638282 
" clip-path="url(#p559120fe03)" style="fill: none; stroke: #222222; stroke-width: 2; stroke-linecap: round"/>
   </g>
   <g id="line2d_19">
    <path d="M 416.203057 369.793343 
L 416.70782 388.731877 
" clip-path="url(#p559120fe03)" style="fill: none; stroke: #222222; stroke-width: 2; stroke-linecap: round"/>
   </g>
   <g id="line2d_20">
    <path d="M 432.351926 359.886939 
L 416.203057 369.793343 
" clip-path="url(#p559120fe03)" style="fill: none; stroke: #222222; stroke-width: 2; stroke-linecap: round"/>
   </g>
   <g id="line2d_21">
    <path d="M 431.847163 340.948405 
L 432.351926 359.886939 
" clip-path="url(#p559120fe03)" style="fill: none; stroke: #222222; stroke-width: 2; stroke-linecap: round"/>
   </g>
   <g id="line2d_22">
    <path d="M 399.549424 360.761214 
L 416.203057 369.793343 
" clip-path="url(#p559120fe03)" style="fill: none; stroke: #222222; stroke-width: 2; stroke-linecap: round"/>
   </g>
   <g id="line2d_23">
    <path d="M 383.400554 370.667619 
L 399.549424 360.761214 
" clip-path="url(#p559120fe03)" style="fill: none; stroke: #222222; stroke-width: 2; stroke-linecap: round"/>
   </g>
   <g id="line2d_24">
    <path d="M 383.400554 370.667619 
L 383.905317 389.606153 
" clip-path="url(#p559120fe03)" style="fill: none; stroke: #222222; stroke-width: 2; stroke-linecap: round"/>
   </g>
   <g id="line2d_25">
    <path d="M 449.00556 368.919068 
L 432.351926 359.886939 
" clip-path="url(#p559120fe03)" style="fill: none; stroke: #222222; stroke-width: 2; stroke-linecap: round"/>
   </g>
   <g id="line2d_26">
    <path d="M 449.510323 387.857602 
L 449.00556 368.919068 
" clip-path="url(#p559120fe03)" style="fill: none; stroke: #222222; stroke-width: 2; stroke-linecap: round"/>
   </g>
   <g id="line2d_27">
    <path d="M 466.163956 396.889731 
L 449.510323 387.857602 
" clip-path="url(#p559120fe03)" style="fill: none; stroke: #222222; stroke-width: 2; stroke-linecap: round"/>
   </g>
   <g id="line2d_28">
    <path d="M 482.312826 386.983326 
L 466.163956 396.889731 
" clip-path="url(#p559120fe03)" style="fill: none; stroke: #222222; stroke-width: 2; stroke-linecap: round"/>
   </g>
   <g id="line2d_29">
    <path d="M 481.808063 368.044793 
L 482.312826 386.983326 
" clip-path="url(#p559120fe03)" style="fill: none; stroke: #222222; stroke-width: 2; stroke-linecap: round"/>
   </g>
   <g id="line2d_30">
    <path d="M 497.956932 358.138388 
L 481.808063 368.044793 
" clip-path="url(#p559120fe03)" style="fill: none; stroke: #222222; stroke-width: 2; stroke-linecap: round"/>
   </g>
   <g id="line2d_31">
    <path d="M 465.154429 359.012663 
L 481.808063 368.044793 
" clip-path="url(#p559120fe03)" style="fill: none; stroke: #222222; stroke-width: 2; stroke-linecap: round"/>
   </g>
   <g id="line2d_32">
    <path d="M 465.154429 359.012663 
L 449.00556 368.919068 
" clip-path="url(#p559120fe03)" style="fill: none; stroke: #222222; stroke-width: 2; stroke-linecap: round"/>
   </g>
   <g id="line2d_33">
    <path d="M 464.649666 340.074129 
L 465.154429 359.012663 
" clip-path="url(#p559120fe03)" style="fill: none; stroke: #222222; stroke-width: 2; stroke-linecap: round"/>
   </g>
   <g id="line2d_34">
    <path d="M 320.854376 466.12237 
L 329.886506 449.468737 
" clip-path="url(#p559120fe03)" style="fill: none; stroke: #222222; stroke-width: 2; stroke-linecap: round"/>
   </g>
   <g id="line2d_35">
    <path d="M 301.915843 466.627134 
L 320.854376 466.12237 
" clip-path="url(#p559120fe03)" style="fill: none; stroke: #222222; stroke-width: 2; stroke-linecap: round"/>
   </g>
   <g id="line2d_36">
    <path d="M 292.883713 483.280767 
L 301.915843 466.627134 
" clip-path="url(#p559120fe03)" style="fill: none; stroke: #222222; stroke-width: 2; stroke-linecap: round"/>
   </g>
   <g id="line2d_37">
    <path d="M 302.790118 499.429637 
L 292.883713 483.280767 
" clip-path="url(#p559120fe03)" style="fill: none; stroke: #222222; stroke-width: 2; stroke-linecap: round"/>
   </g>
   <g id="line2d_38">
    <path d="M 321.728652 498.924873 
L 302.790118 499.429637 
" clip-path="url(#p559120fe03)" style="fill: none; stroke: #222222; stroke-width: 2; stroke-linecap: round"/>
   </g>
   <g id="line2d_39">
    <path d="M 330.760781 482.27124 
L 320.854376 466.12237 
" clip-path="url(#p559120fe03)" style="fill: none; stroke: #222222; stroke-width: 2; stroke-linecap: round"/>
   </g>
   <g id="line2d_40">
    <path d="M 330.760781 482.27124 
L 321.728652 498.924873 
" clip-path="url(#p559120fe03)" style="fill: none; stroke: #222222; stroke-width: 2; stroke-linecap: round"/>
   </g>
   <g id="line2d_41">
    <path d="M 350.598051 371.541894 
L 366.746921 361.635489 
" clip-path="url(#p559120fe03)" style="fill: none; stroke: #222222; stroke-width: 2; stroke-linecap: round"/>
   </g>
   <g id="line2d_42">
    <path d="M 350.598051 371.541894 
L 351.102814 390.480428 
" clip-path="url(#p559120fe03)" style="fill: none; stroke: #222222; stroke-width: 2; stroke-linecap: round"/>
   </g>
   <g id="line2d_43">
    <path d="M 318.300311 391.354703 
L 334.953944 400.386833 
" clip-path="url(#p559120fe03)" style="fill: none; stroke: #222222; stroke-width: 2; stroke-linecap: round"/>
   </g>
   <g id="line2d_44">
    <path d="M 317.795548 372.41617 
L 318.300311 391.354703 
" clip-path="url(#p559120fe03)" style="fill: none; stroke: #222222; stroke-width: 2; stroke-linecap: round"/>
   </g>
   <g id="line2d_45">
    <path d="M 333.944418 362.509765 
L 317.795548 372.41617 
" clip-path="url(#p559120fe03)" style="fill: none; stroke: #222222; stroke-width: 2; stroke-linecap: round"/>
   </g>
   <g id="line2d_46">
    <path d="M 301.141915 363.38404 
L 317.795548 372.41617 
" clip-path="url(#p559120fe03)" style="fill: none; stroke: #222222; stroke-width: 2; stroke-linecap: round"/>
   </g>
   <g id="line2d_47">
    <path d="M 300.637152 344.445506 
L 301.141915 363.38404 
" clip-path="url(#p559120fe03)" style="fill: none; stroke: #222222; stroke-width: 2; stroke-linecap: round"/>
   </g>
   <g id="line2d_48">
    <path d="M 316.786021 334.539102 
L 300.637152 344.445506 
" clip-path="url(#p559120fe03)" style="fill: none; stroke: #222222; stroke-width: 2; stroke-linecap: round"/>
   </g>
   <g id="line2d_49">
    <path d="M 316.281258 315.600568 
L 316.786021 334.539102 
" clip-path="url(#p559120fe03)" style="fill: none; stroke: #222222; stroke-width: 2; stroke-linecap: round"/>
   </g>
   <g id="line2d_50">
    <path d="M 299.627625 306.568439 
L 316.281258 315.600568 
" clip-path="url(#p559120fe03)" style="fill: none; stroke: #222222; stroke-width: 2; stroke-linecap: round"/>
   </g>
   <g id="line2d_51">
    <path d="M 283.478755 316.474843 
L 299.627625 306.568439 
" clip-path="url(#p559120fe03)" style="fill: none; stroke: #222222; stroke-width: 2; stroke-linecap: round"/>
   </g>
   <g id="line2d_52">
    <path d="M 283.983518 335.413377 
L 283.478755 316.474843 
" clip-path="url(#p559120fe03)" style="fill: none; stroke: #222222; stroke-width: 2; stroke-linecap: round"/>
   </g>
   <g id="line2d_53">
    <path d="M 283.983518 335.413377 
L 300.637152 344.445506 
" clip-path="url(#p559120fe03)" style="fill: none; stroke: #222222; stroke-width: 2; stroke-linecap: round"/>
   </g>
   <g id="line2d_54">
    <path d="M 267.834649 345.319782 
L 283.983518 335.413377 
" clip-path="url(#p559120fe03)" style="fill: none; stroke: #222222; stroke-width: 2; stroke-linecap: round"/>
   </g>
   <g id="line2d_55">
    <path d="M 299.122862 287.629905 
L 299.627625 306.568439 
" clip-path="url(#p559120fe03)" style="fill: none; stroke: #222222; stroke-width: 2; stroke-linecap: round"/>
   </g>
   <g id="line2d_56">
    <path d="M 298.618099 268.691371 
L 299.122862 287.629905 
" clip-path="url(#p559120fe03)" style="fill: none; stroke: #222222; stroke-width: 2; stroke-linecap: round"/>
   </g>
   <g id="line2d_57">
    <path d="M 318.061396 287.125141 
L 299.122862 287.629905 
" clip-path="url(#p559120fe03)" style="fill: none; stroke: #222222; stroke-width: 2; stroke-linecap: round"/>
   </g>
   <g id="line2d_58">
    <path d="M 280.184328 288.134668 
L 299.122862 287.629905 
" clip-path="url(#p559120fe03)" style="fill: none; stroke: #222222; stroke-width: 2; stroke-linecap: round"/>
   </g>
   <g id="text_1">
    <g id="patch_7">
     <path d="M 380.007968 433.35408 
L 389.821718 433.35408 
L 389.821718 421.612361 
L 380.007968 421.612361 
z
" style="fill: #ffffff"/>
    </g>
    <text style="font-weight: 700; font-size: 12px; font-family: 'Liberation Sans', 'Arimo', 'DejaVu Sans'; text-anchor: middle; fill: #d40000" x="384.914843" y="430.588689" transform="rotate(-0 384.914843 430.588689)">O</text>
   </g>
   <g id="text_2">
    <g id="patch_8">
     <path d="M 347.539215 434.228355 
L 356.685465 434.228355 
L 356.685465 422.486637 
L 347.539215 422.486637 
z
" style="fill: #ffffff"/>
    </g>
    <text style="font-weight: 700; font-size: 12px; font-family: 'Liberation Sans', 'Arimo', 'DejaVu Sans'; text-anchor: middle; fill: #0879c0" x="352.11234" y="431.462965" transform="rotate(-0 352.11234 431.462965)">N</text>
   </g>
   <g id="text_3">
    <g id="patch_9">
     <path d="M 344.095405 452.857983 
L 353.241655 452.857983 
L 353.241655 441.116264 
L 344.095405 441.116264 
z
" style="fill: #ffffff"/>
    </g>
    <text style="font-weight: 700; font-size: 12px; font-family: 'Liberation Sans', 'Arimo', 'DejaVu Sans'; text-anchor: middle; fill: #0879c0" x="348.66853" y="450.092592" transform="rotate(-0 348.66853 450.092592)">N</text>
   </g>
   <g id="text_4">
    <g id="patch_10">
     <path d="M 317.149261 438.243691 
L 326.295511 438.243691 
L 326.295511 426.501972 
L 317.149261 426.501972 
z
" style="fill: #ffffff"/>
    </g>
    <text style="font-weight: 700; font-size: 12px; font-family: 'Liberation Sans', 'Arimo', 'DejaVu Sans'; text-anchor: middle; fill: #0879c0" x="321.722386" y="435.4783" transform="rotate(-0 321.722386 435.4783)">N</text>
   </g>
   <g id="text_5">
    <g id="patch_11">
     <path d="M 330.380819 406.257692 
L 339.527069 406.257692 
L 339.527069 394.515973 
L 330.380819 394.515973 
z
" style="fill: #ffffff"/>
    </g>
    <text style="font-weight: 700; font-size: 12px; font-family: 'Liberation Sans', 'Arimo', 'DejaVu Sans'; text-anchor: middle; fill: #0879c0" x="334.953944" y="403.492301" transform="rotate(-0 334.953944 403.492301)">N</text>
   </g>
   <g id="text_6">
    <g id="patch_12">
     <path d="M 379.332192 395.477012 
L 388.478442 395.477012 
L 388.478442 383.735293 
L 379.332192 383.735293 
z
" style="fill: #ffffff"/>
    </g>
    <text style="font-weight: 700; font-size: 12px; font-family: 'Liberation Sans', 'Arimo', 'DejaVu Sans'; text-anchor: middle; fill: #0879c0" x="383.905317" y="392.711621" transform="rotate(-0 383.905317 392.711621)">N</text>
   </g>
   <g id="text_7">
    <g id="patch_13">
     <path d="M 411.629932 375.664203 
L 420.776182 375.664203 
L 420.776182 363.922484 
L 411.629932 363.922484 
z
" style="fill: #ffffff"/>
    </g>
    <text style="font-weight: 700; font-size: 12px; font-family: 'Liberation Sans', 'Arimo', 'DejaVu Sans'; text-anchor: middle; fill: #0879c0" x="416.203057" y="372.898812" transform="rotate(-0 416.203057 372.898812)">N</text>
   </g>
   <g id="text_8">
    <g id="patch_14">
     <path d="M 426.940288 346.819264 
L 436.754038 346.819264 
L 436.754038 335.077545 
L 426.940288 335.077545 
z
" style="fill: #ffffff"/>
    </g>
    <text style="font-weight: 700; font-size: 12px; font-family: 'Liberation Sans', 'Arimo', 'DejaVu Sans'; text-anchor: middle; fill: #d40000" x="431.847163" y="344.053874" transform="rotate(-0 431.847163 344.053874)">O</text>
   </g>
   <g id="text_9">
    <g id="patch_15">
     <path d="M 444.937198 393.728461 
L 454.083448 393.728461 
L 454.083448 381.986742 
L 444.937198 381.986742 
z
" style="fill: #ffffff"/>
    </g>
    <text style="font-weight: 700; font-size: 12px; font-family: 'Liberation Sans', 'Arimo', 'DejaVu Sans'; text-anchor: middle; fill: #0879c0" x="449.510323" y="390.963071" transform="rotate(-0 449.510323 390.963071)">N</text>
   </g>
   <g id="text_10">
    <g id="patch_16">
     <path d="M 477.739701 392.854186 
L 486.885951 392.854186 
L 486.885951 381.112467 
L 477.739701 381.112467 
z
" style="fill: #ffffff"/>
    </g>
    <text style="font-weight: 700; font-size: 12px; font-family: 'Liberation Sans', 'Arimo', 'DejaVu Sans'; text-anchor: middle; fill: #0879c0" x="482.312826" y="390.088795" transform="rotate(-0 482.312826 390.088795)">N</text>
   </g>
   <g id="text_11">
    <g id="patch_17">
     <path d="M 459.742791 345.944989 
L 469.556541 345.944989 
L 469.556541 334.20327 
L 459.742791 334.20327 
z
" style="fill: #ffffff"/>
    </g>
    <text style="font-weight: 700; font-size: 12px; font-family: 'Liberation Sans', 'Arimo', 'DejaVu Sans'; text-anchor: middle; fill: #d40000" x="464.649666" y="343.179598" transform="rotate(-0 464.649666 343.179598)">O</text>
   </g>
   <g id="text_12">
    <g id="patch_18">
     <path d="M 297.883243 505.300496 
L 307.696993 505.300496 
L 307.696993 493.558777 
L 297.883243 493.558777 
z
" style="fill: #ffffff"/>
    </g>
    <text style="font-weight: 700; font-size: 12px; font-family: 'Liberation Sans', 'Arimo', 'DejaVu Sans'; text-anchor: middle; fill: #d40000" x="302.790118" y="502.535105" transform="rotate(-0 302.790118 502.535105)">O</text>
   </g>
   <g id="text_13">
    <g id="patch_19">
     <path d="M 329.037543 368.380624 
L 338.851293 368.380624 
L 338.851293 356.638905 
L 329.037543 356.638905 
z
" style="fill: #ffffff"/>
    </g>
    <text style="font-weight: 700; font-size: 12px; font-family: 'Liberation Sans', 'Arimo', 'DejaVu Sans'; text-anchor: middle; fill: #d40000" x="333.944418" y="365.615234" transform="rotate(-0 333.944418 365.615234)">O</text>
   </g>
   <g id="text_14">
    <g id="patch_20">
     <path d="M 296.56879 369.2549 
L 305.71504 369.2549 
L 305.71504 357.513181 
L 296.56879 357.513181 
z
" style="fill: #ffffff"/>
    </g>
    <text style="font-weight: 700; font-size: 12px; font-family: 'Liberation Sans', 'Arimo', 'DejaVu Sans'; text-anchor: middle; fill: #0879c0" x="301.141915" y="366.489509" transform="rotate(-0 301.141915 366.489509)">N</text>
   </g>
   <g id="text_15">
    <g id="patch_21">
     <path d="M 261.594649 351.190641 
L 274.074649 351.190641 
L 274.074649 339.448922 
L 261.594649 339.448922 
z
" style="fill: #ffffff"/>
    </g>
    <text style="font-weight: 700; font-size: 12px; font-family: 'Liberation Sans', 'Arimo', 'DejaVu Sans'; text-anchor: middle; fill: #00a040" x="267.834649" y="348.42525" transform="rotate(-0 267.834649 348.42525)">Cl</text>
   </g>
   <g id="text_16">
    <g id="patch_22">
     <path d="M 294.713411 274.56223 
L 302.522786 274.56223 
L 302.522786 262.820511 
L 294.713411 262.820511 
z
" style="fill: #ffffff"/>
    </g>
    <text style="font-weight: 700; font-size: 12px; font-family: 'Liberation Sans', 'Arimo', 'DejaVu Sans'; text-anchor: middle; fill: #00a040" x="298.618099" y="271.796839" transform="rotate(-0 298.618099 271.796839)">F</text>
   </g>
   <g id="text_17">
    <g id="patch_23">
     <path d="M 314.156709 292.996001 
L 321.966084 292.996001 
L 321.966084 281.254282 
L 314.156709 281.254282 
z
" style="fill: #ffffff"/>
    </g>
    <text style="font-weight: 700; font-size: 12px; font-family: 'Liberation Sans', 'Arimo', 'DejaVu Sans'; text-anchor: middle; fill: #00a040" x="318.061396" y="290.23061" transform="rotate(-0 318.061396 290.23061)">F</text>
   </g>
   <g id="text_18">
    <g id="patch_24">
     <path d="M 276.279641 294.005527 
L 284.089016 294.005527 
L 284.089016 282.263808 
L 276.279641 282.263808 
z
" style="fill: #ffffff"/>
    </g>
    <text style="font-weight: 700; font-size: 12px; font-family: 'Liberation Sans', 'Arimo', 'DejaVu Sans'; text-anchor: middle; fill: #00a040" x="280.184328" y="291.240136" transform="rotate(-0 280.184328 291.240136)">F</text>
   </g>
   <g id="patch_25">
    <path d="M 185.348036 585.354883 
C 192.694692 585.354883 199.741438 582.436026 204.936308 577.241155 
C 210.131179 572.046285 213.050036 564.99954 213.050036 557.652883 
C 213.050036 550.306227 210.131179 543.259482 204.936308 538.064611 
C 199.741438 532.869741 192.694692 529.950883 185.348036 529.950883 
C 178.00138 529.950883 170.954634 532.869741 165.759764 538.064611 
C 160.564893 543.259482 157.646036 550.306227 157.646036 557.652883 
C 157.646036 564.99954 160.564893 572.046285 165.759764 577.241155 
C 170.954634 582.436026 178.00138 585.354883 185.348036 585.354883 
z
" clip-path="url(#p559120fe03)" style="fill: #8bc34a; stroke: #222222; stroke-width: 1.2; stroke-linejoin: miter"/>
   </g>
   <g id="patch_26">
    <path d="M 113.962131 439.481106 
C 121.308787 439.481106 128.355532 436.562249 133.550403 431.367378 
C 138.745273 426.172508 141.664131 419.125763 141.664131 411.779106 
C 141.664131 404.43245 138.745273 397.385705 133.550403 392.190834 
C 128.355532 386.995964 121.308787 384.077106 113.962131 384.077106 
C 106.615474 384.077106 99.568729 386.995964 94.373858 392.190834 
C 89.178988 397.385705 86.260131 404.43245 86.260131 411.779106 
C 86.260131 419.125763 89.178988 426.172508 94.373858 431.367378 
C 99.568729 436.562249 106.615474 439.481106 113.962131 439.481106 
z
" clip-path="url(#p559120fe03)" style="fill: #f5a623; stroke: #222222; stroke-width: 1.2; stroke-linejoin: miter"/>
   </g>
   <g id="patch_27">
    <path d="M 497.070311 202.972171 
C 504.416968 202.972171 511.463713 200.053314 516.658584 194.858443 
C 521.853454 189.663573 524.772311 182.616828 524.772311 175.270171 
C 524.772311 167.923515 521.853454 160.87677 516.658584 155.681899 
C 511.463713 150.487029 504.416968 147.568171 497.070311 147.568171 
C 489.723655 147.568171 482.67691 150.487029 477.482039 155.681899 
C 472.287169 160.87677 469.368311 167.923515 469.368311 175.270171 
C 469.368311 182.616828 472.287169 189.663573 477.482039 194.858443 
C 482.67691 200.053314 489.723655 202.972171 497.070311 202.972171 
z
" clip-path="url(#p559120fe03)" style="fill: #8bc34a; stroke: #222222; stroke-width: 1.2; stroke-linejoin: miter"/>
   </g>
   <g id="patch_28">
    <path d="M 331.707814 655.721988 
C 339.054471 655.721988 346.101216 652.803131 351.296086 647.60826 
C 356.490957 642.41339 359.409814 635.366645 359.409814 628.019988 
C 359.409814 620.673332 356.490957 613.626587 351.296086 608.431716 
C 346.101216 603.236846 339.054471 600.317988 331.707814 600.317988 
C 324.361158 600.317988 317.314413 603.236846 312.119542 608.431716 
C 306.924672 613.626587 304.005814 620.673332 304.005814 628.019988 
C 304.005814 635.366645 306.924672 642.41339 312.119542 647.60826 
C 317.314413 652.803131 324.361158 655.721988 331.707814 655.721988 
z
" clip-path="url(#p559120fe03)" style="fill: #8bc34a; stroke: #222222; stroke-width: 1.2; stroke-linejoin: miter"/>
   </g>
   <g id="patch_29">
    <path d="M 490.208466 620.385615 
C 497.555122 620.385615 504.601868 617.466758 509.796738 612.271887 
C 514.991608 607.077017 517.910466 600.030272 517.910466 592.683615 
C 517.910466 585.336959 514.991608 578.290214 509.796738 573.095343 
C 504.601868 567.900473 497.555122 564.981615 490.208466 564.981615 
C 482.86181 564.981615 475.815064 567.900473 470.620194 573.095343 
C 465.425323 578.290214 462.506466 585.336959 462.506466 592.683615 
C 462.506466 600.030272 465.425323 607.077017 470.620194 612.271887 
C 475.815064 617.466758 482.86181 620.385615 490.208466 620.385615 
z
" clip-path="url(#p559120fe03)" style="fill: #f5a623; stroke: #222222; stroke-width: 1.2; stroke-linejoin: miter"/>
   </g>
   <g id="patch_30">
    <path d="M 592.815823 494.519476 
C 600.162479 494.519476 607.209224 491.600619 612.404095 486.405748 
C 617.598965 481.210878 620.517823 474.164133 620.517823 466.817476 
C 620.517823 459.47082 617.598965 452.424075 612.404095 447.229204 
C 607.209224 442.034334 600.162479 439.115476 592.815823 439.115476 
C 585.469166 439.115476 578.422421 442.034334 573.22755 447.229204 
C 568.03268 452.424075 565.113823 459.47082 565.113823 466.817476 
C 565.113823 474.164133 568.03268 481.210878 573.22755 486.405748 
C 578.422421 491.600619 585.469166 494.519476 592.815823 494.519476 
z
" clip-path="url(#p559120fe03)" style="fill: #f5a623; stroke: #222222; stroke-width: 1.2; stroke-linejoin: miter"/>
   </g>
   <g id="patch_31">
    <path d="M 339.803815 162.446185 
C 347.150472 162.446185 354.197217 159.527328 359.392087 154.332457 
C 364.586958 149.137587 367.505815 142.090842 367.505815 134.744185 
C 367.505815 127.397529 364.586958 120.350784 359.392087 115.155913 
C 354.197217 109.961043 347.150472 107.042185 339.803815 107.042185 
C 332.457159 107.042185 325.410414 109.961043 320.215543 115.155913 
C 315.020673 120.350784 312.101815 127.397529 312.101815 134.744185 
C 312.101815 142.090842 315.020673 149.137587 320.215543 154.332457 
C 325.410414 159.527328 332.457159 162.446185 339.803815 162.446185 
z
" clip-path="url(#p559120fe03)" style="fill: #5087c5; stroke: #222222; stroke-width: 1.2; stroke-linejoin: miter"/>
   </g>
   <g id="patch_32">
    <path d="M 595.487321 332.149593 
C 602.833978 332.149593 609.880723 329.230736 615.075593 324.035865 
C 620.270464 318.840995 623.189321 311.79425 623.189321 304.447593 
C 623.189321 297.100937 620.270464 290.054192 615.075593 284.859321 
C 609.880723 279.664451 602.833978 276.745593 595.487321 276.745593 
C 588.140665 276.745593 581.09392 279.664451 575.899049 284.859321 
C 570.704179 290.054192 567.785321 297.100937 567.785321 304.447593 
C 567.785321 311.79425 570.704179 318.840995 575.899049 324.035865 
C 581.09392 329.230736 588.140665 332.149593 595.487321 332.149593 
z
" clip-path="url(#p559120fe03)" style="fill: #5087c5; stroke: #222222; stroke-width: 1.2; stroke-linejoin: miter"/>
   </g>
   <g id="text_19">
    <text style="font-weight: 700; font-size: 9.5px; font-family: 'Liberation Sans', 'Arimo', 'DejaVu Sans'; text-anchor: middle; fill: #222222" x="185.348036" y="560.111379" transform="rotate(-0 185.348036 560.111379)">A704</text>
   </g>
   <g id="text_20">
    <text style="font-weight: 700; font-size: 9.5px; font-family: 'Liberation Sans', 'Arimo', 'DejaVu Sans'; text-anchor: middle; fill: #222222" x="113.962131" y="414.237602" transform="rotate(-0 113.962131 414.237602)">T705</text>
   </g>
   <g id="text_21">
    <text style="font-weight: 700; font-size: 9.5px; font-family: 'Liberation Sans', 'Arimo', 'DejaVu Sans'; text-anchor: middle; fill: #222222" x="497.070311" y="177.728667" transform="rotate(-0 497.070311 177.728667)">I828</text>
   </g>
   <g id="text_22">
    <text style="font-weight: 700; font-size: 9.5px; font-family: 'Liberation Sans', 'Arimo', 'DejaVu Sans'; text-anchor: middle; fill: #222222" x="331.707814" y="630.478484" transform="rotate(-0 331.707814 630.478484)">A706</text>
   </g>
   <g id="text_23">
    <text style="font-weight: 700; font-size: 9.5px; font-family: 'Liberation Sans', 'Arimo', 'DejaVu Sans'; text-anchor: middle; fill: #222222" x="490.208466" y="595.142112" transform="rotate(-0 490.208466 595.142112)">S707</text>
   </g>
   <g id="text_24">
    <text style="font-weight: 700; font-size: 9.5px; font-family: 'Liberation Sans', 'Arimo', 'DejaVu Sans'; text-anchor: middle; fill: #222222" x="592.815823" y="469.275972" transform="rotate(-0 592.815823 469.275972)">S708</text>
   </g>
   <g id="text_25">
    <text style="font-weight: 700; font-size: 9.5px; font-family: 'Liberation Sans', 'Arimo', 'DejaVu Sans'; text-anchor: middle; fill: #ffffff" x="339.803815" y="137.202681" transform="rotate(-0 339.803815 137.202681)">K830</text>
   </g>
   <g id="text_26">
    <text style="font-weight: 700; font-size: 9.5px; font-family: 'Liberation Sans', 'Arimo', 'DejaVu Sans'; text-anchor: middle; fill: #ffffff" x="595.487321" y="306.906089" transform="rotate(-0 595.487321 306.906089)">R857</text>
   </g>
  </g>
  <g id="patch_33">
   <path d="M 130.640391 714.42 
Q 135.83969 714.42 138.914724 714.42 
" style="fill: none; stroke: #0279ee; stroke-width: 1.9; stroke-linecap: round"/>
   <path d="M 134.114724 712.02 
L 138.914724 714.42 
L 134.114724 716.82 
" style="fill: none; stroke: #0279ee; stroke-width: 1.9; stroke-linecap: round"/>
  </g>
  <g id="patch_34">
   <path d="M 92.16 743.148 
C 93.68757 743.148 95.15278 742.510745 96.232935 741.376582 
C 97.31309 740.242419 97.92 738.703948 97.92 737.1 
C 97.92 735.496052 97.31309 733.957581 96.232935 732.823418 
C 95.15278 731.689255 93.68757 731.052 92.16 731.052 
C 90.63243 731.052 89.16722 731.689255 88.087065 732.823418 
C 87.00691 733.957581 86.4 735.496052 86.4 737.1 
C 86.4 738.703948 87.00691 740.242419 88.087065 741.376582 
C 89.16722 742.510745 90.63243 743.148 92.16 743.148 
z
" style="fill: #5087c5; stroke: #222222; stroke-width: 0.8; stroke-linejoin: miter"/>
  </g>
  <g id="patch_35">
   <path d="M 218.88 743.148 
C 220.40757 743.148 221.87278 742.510745 222.952935 741.376582 
C 224.03309 740.242419 224.64 738.703948 224.64 737.1 
C 224.64 735.496052 224.03309 733.957581 222.952935 732.823418 
C 221.87278 731.689255 220.40757 731.052 218.88 731.052 
C 217.35243 731.052 215.88722 731.689255 214.807065 732.823418 
C 213.72691 733.957581 213.12 735.496052 213.12 737.1 
C 213.12 738.703948 213.72691 740.242419 214.807065 741.376582 
C 215.88722 742.510745 217.35243 743.148 218.88 743.148 
z
" style="fill: #d9584c; stroke: #222222; stroke-width: 0.8; stroke-linejoin: miter"/>
  </g>
  <g id="patch_36">
   <path d="M 345.6 743.148 
C 347.12757 743.148 348.59278 742.510745 349.672935 741.376582 
C 350.75309 740.242419 351.36 738.703948 351.36 737.1 
C 351.36 735.496052 350.75309 733.957581 349.672935 732.823418 
C 348.59278 731.689255 347.12757 731.052 345.6 731.052 
C 344.07243 731.052 342.60722 731.689255 341.527065 732.823418 
C 340.44691 733.957581 339.84 735.496052 339.84 737.1 
C 339.84 738.703948 340.44691 740.242419 341.527065 741.376582 
C 342.60722 742.510745 344.07243 743.148 345.6 743.148 
z
" style="fill: #f5a623; stroke: #222222; stroke-width: 0.8; stroke-linejoin: miter"/>
  </g>
  <g id="patch_37">
   <path d="M 472.32 743.148 
C 473.84757 743.148 475.31278 742.510745 476.392935 741.376582 
C 477.47309 740.242419 478.08 738.703948 478.08 737.1 
C 478.08 735.496052 477.47309 733.957581 476.392935 732.823418 
C 475.31278 731.689255 473.84757 731.052 472.32 731.052 
C 470.79243 731.052 469.32722 731.689255 468.247065 732.823418 
C 467.16691 733.957581 466.56 735.496052 466.56 737.1 
C 466.56 738.703948 467.16691 740.242419 468.247065 741.376582 
C 469.32722 742.510745 470.79243 743.148 472.32 743.148 
z
" style="fill: #8bc34a; stroke: #222222; stroke-width: 0.8; stroke-linejoin: miter"/>
  </g>
  <g id="patch_38">
   <path d="M 599.04 743.148 
C 600.56757 743.148 602.03278 742.510745 603.112935 741.376582 
C 604.19309 740.242419 604.8 738.703948 604.8 737.1 
C 604.8 735.496052 604.19309 733.957581 603.112935 732.823418 
C 602.03278 731.689255 600.56757 731.052 599.04 731.052 
C 597.51243 731.052 596.04722 731.689255 594.967065 732.823418 
C 593.88691 733.957581 593.28 735.496052 593.28 737.1 
C 593.28 738.703948 593.88691 740.242419 594.967065 741.376582 
C 596.04722 742.510745 597.51243 743.148 599.04 743.148 
z
" style="fill: #ffffff; stroke: #dc3912; stroke-width: 2.5; stroke-linejoin: miter"/>
  </g>
  <g id="line2d_59">
   <path d="M 339.84 714.42 
L 354.24 714.42 
" style="fill: none; stroke: #75a025; stroke-opacity: 0.4; stroke-width: 4; stroke-linecap: square"/>
  </g>
  <g id="line2d_60">
   <path d="M 551.04 714.42 
L 565.44 714.42 
" style="fill: none; stroke-dasharray: 9.6,7.2; stroke-dashoffset: 0; stroke: #fd9bed; stroke-width: 2.4"/>
  </g>
  <g id="text_27">
   <text style="font-weight: 700; font-size: 14px; font-family: 'Liberation Sans', 'Arimo', 'DejaVu Sans'; text-anchor: middle" x="360" y="21.532383" transform="rotate(-0 360 21.532383)">C727R × 9MJT · HRO761 — NEUTRAL</text>
  </g>
  <g id="text_28">
   <text style="font-size: 10.5px; font-family: 'Liberation Sans', 'Arimo', 'DejaVu Sans'; text-anchor: middle" x="360" y="41.66925" transform="rotate(-0 360 41.66925)">ΔS = +0.04  |  RMSD vs WT = 0.14 Å  |  0 lost / 8 retained / 0 gained</text>
  </g>
  <g id="text_29">
   <text style="font-size: 10.5px; font-family: 'Liberation Sans', 'Arimo', 'DejaVu Sans'; text-anchor: middle" x="360" y="61.320287" transform="rotate(-0 360 61.320287)">PLIP: 3 hydrophobic · 5 H-bond · 1 π-cation</text>
  </g>
  <g id="text_30">
   <text style="font-size: 8.5px; font-family: 'Liberation Sans', 'Arimo', 'DejaVu Sans'; text-anchor: start" x="146.64" y="716.619707" transform="rotate(-0 146.64 716.619707)">H-bond</text>
  </g>
  <g id="text_31">
   <text style="font-size: 8.5px; font-family: 'Liberation Sans', 'Arimo', 'DejaVu Sans'; text-anchor: start" x="357.84" y="716.619707" transform="rotate(-0 357.84 716.619707)">Hydrophobic</text>
  </g>
  <g id="text_32">
   <text style="font-size: 8.5px; font-family: 'Liberation Sans', 'Arimo', 'DejaVu Sans'; text-anchor: start" x="569.04" y="716.619707" transform="rotate(-0 569.04 716.619707)">π-cation</text>
  </g>
  <g id="text_33">
   <text style="font-size: 8px; font-family: 'Liberation Sans', 'Arimo', 'DejaVu Sans'; text-anchor: start" x="100.8" y="739.170313" transform="rotate(-0 100.8 739.170313)">Basic</text>
  </g>
  <g id="text_34">
   <text style="font-size: 8px; font-family: 'Liberation Sans', 'Arimo', 'DejaVu Sans'; text-anchor: start" x="227.52" y="739.170313" transform="rotate(-0 227.52 739.170313)">Acidic</text>
  </g>
  <g id="text_35">
   <text style="font-size: 8px; font-family: 'Liberation Sans', 'Arimo', 'DejaVu Sans'; text-anchor: start" x="354.24" y="739.170313" transform="rotate(-0 354.24 739.170313)">Polar</text>
  </g>
  <g id="text_36">
   <text style="font-size: 8px; font-family: 'Liberation Sans', 'Arimo', 'DejaVu Sans'; text-anchor: start" x="480.96" y="739.170313" transform="rotate(-0 480.96 739.170313)">Hydrophobic</text>
  </g>
  <g id="text_37">
   <text style="font-size: 8px; font-family: 'Liberation Sans', 'Arimo', 'DejaVu Sans'; text-anchor: start" x="607.68" y="739.170313" transform="rotate(-0 607.68 739.170313)">Mutation site</text>
  </g>
 </g>
 <defs>
  <clipPath id="p559120fe03">
   <rect x="53.82" y="75.6" width="612.36" height="612.36"/>
  </clipPath>
 </defs>
</svg>
