<?xml version="1.0" encoding="utf-8" standalone="no"?>
<!DOCTYPE svg PUBLIC "-//W3C//DTD SVG 1.1//EN"
  "http://www.w3.org/Graphics/SVG/1.1/DTD/svg11.dtd">
<svg xmlns:xlink="http://www.w3.org/1999/xlink" width="720pt" height="756pt" viewBox="0 0 720 756" xmlns="http://www.w3.org/2000/svg" version="1.1">
 <metadata>
  <rdf:RDF xmlns:dc="http://purl.org/dc/elements/1.1/" xmlns:cc="http://creativecommons.org/ns#" xmlns:rdf="http://www.w3.org/1999/02/22-rdf-syntax-ns#">
   <cc:Work>
    <dc:type rdf:resource="http://purl.org/dc/dcmitype/StillImage"/>
    <dc:date>2022-01-01T05:00:00+00:00</dc:date>
    <dc:format>image/svg+xml</dc:format>
    <dc:creator>
     <cc:Agent>
      <dc:title>Matplotlib v3.11.0, https://matplotlib.org/</dc:title>
     </cc:Agent>
    </dc:creator>
   </cc:Work>
  </rdf:RDF>
 </metadata>
 <defs>
  <style type="text/css">*{stroke-linejoin: round; stroke-linecap: butt}</style>
 </defs>
 <g id="figure_1">
  <g id="patch_1">
   <path d="M 0 756 
L 720 756 
L 720 0 
L 0 0 
z
" style="fill: #ffffff"/>
  </g>
  <g id="axes_1">
   <g id="line2d_1">
    <path d="M 343.944223 105.807795 
L 341.815673 113.089985 
L 339.76915 120.38299 
L 337.804652 127.686812 
L 335.92218 135.001449 
L 334.121735 142.326901 
L 332.403315 149.66317 
L 330.766922 157.010255 
L 329.212555 164.368155 
L 327.740213 171.736871 
L 326.349898 179.116403 
L 325.041609 186.506751 
L 323.815346 193.907915 
L 322.671109 201.319894 
L 321.608898 208.74269 
L 320.628713 216.176301 
L 319.730554 223.620728 
L 318.914421 231.075971 
L 318.180314 238.542029 
L 317.528233 246.018904 
L 316.958179 253.506594 
L 316.47015 261.0051 
L 316.064147 268.514422 
L 315.740171 276.03456 
L 315.49822 283.565514 
L 315.338296 291.107283 
L 315.260397 298.659869 
L 315.264525 306.22327 
L 315.350679 313.797487 
L 315.518859 321.38252 
" clip-path="url(#p643257ca65)" style="fill: none; stroke: #75a025; stroke-opacity: 0.4; stroke-width: 4; stroke-linecap: round"/>
   </g>
   <g id="line2d_2">
    <path d="M 623.889041 297.727546 
L 614.478975 298.579829 
L 605.093761 299.532108 
L 595.733399 300.584384 
L 586.397889 301.736655 
L 577.087231 302.988923 
L 567.801426 304.341186 
L 558.540473 305.793445 
L 549.304372 307.345701 
L 540.093123 308.997952 
L 530.906726 310.750199 
L 521.745182 312.602442 
L 512.608489 314.554682 
L 503.496649 316.606917 
L 494.409661 318.759148 
L 485.347525 321.011375 
L 476.310241 323.363598 
L 467.29781 325.815818 
L 458.31023 328.368033 
L 449.347503 331.020244 
L 440.409628 333.772451 
L 431.496605 336.624654 
L 422.608434 339.576853 
L 413.745116 342.629048 
L 404.906649 345.781239 
L 396.093035 349.033426 
L 387.304273 352.385609 
L 378.540363 355.837788 
L 369.801305 359.389963 
L 361.087099 363.042134 
" clip-path="url(#p643257ca65)" style="fill: none; stroke: #75a025; stroke-opacity: 0.4; stroke-width: 4; stroke-linecap: round"/>
   </g>
   <g id="line2d_3">
    <path d="M 514.082811 151.575158 
L 507.74236 158.180563 
L 501.483653 164.843303 
L 495.30669 171.56338 
L 489.211472 178.340791 
L 483.197999 185.175538 
L 477.26627 192.067621 
L 471.416286 199.017039 
L 465.648046 206.023793 
L 459.961551 213.087882 
L 454.356801 220.209306 
L 448.833795 227.388066 
L 443.392533 234.624161 
L 438.033017 241.917592 
L 432.755244 249.268359 
L 427.559217 256.676461 
L 422.444934 264.141898 
L 417.412395 271.664671 
L 412.461601 279.244779 
L 407.592552 286.882223 
L 402.805247 294.577002 
L 398.099687 302.329117 
L 393.475871 310.138567 
L 388.9338 318.005353 
L 384.473474 325.929474 
L 380.094892 333.910931 
L 375.798055 341.949723 
L 371.582962 350.04585 
L 367.449614 358.199314 
L 363.39801 366.410112 
" clip-path="url(#p643257ca65)" style="fill: none; stroke: #75a025; stroke-opacity: 0.4; stroke-width: 4; stroke-linecap: round"/>
   </g>
   <g id="line2d_4">
    <path d="M 86.00098 344.654576 
L 94.10475 343.036533 
L 102.212466 341.508521 
L 110.324128 340.070539 
L 118.439736 338.722588 
L 126.559291 337.464667 
L 134.682791 336.296777 
L 142.810238 335.218917 
L 150.941631 334.231088 
L 159.07697 333.33329 
L 167.216254 332.525522 
L 175.359486 331.807784 
L 183.506663 331.180077 
L 191.657786 330.642401 
L 199.812855 330.194755 
L 207.971871 329.837139 
L 216.134832 329.569554 
L 224.30174 329.392 
L 232.472594 329.304476 
L 240.647393 329.306982 
L 248.826139 329.399519 
L 257.008831 329.582087 
L 265.19547 329.854685 
L 273.386054 330.217314 
L 281.580584 330.669973 
L 289.779061 331.212662 
L 297.981483 331.845383 
L 306.187852 332.568133 
L 314.398167 333.380914 
L 322.612427 334.283726 
" clip-path="url(#p643257ca65)" style="fill: none; stroke: #75a025; stroke-opacity: 0.4; stroke-width: 4; stroke-linecap: round"/>
   </g>
   <g id="line2d_5">
    <path d="M 171.579673 178.709028 
L 177.57672 183.434915 
L 183.512851 188.217566 
L 189.388065 193.05698 
L 195.202363 197.953158 
L 200.955744 202.9061 
L 206.648208 207.915806 
L 212.279755 212.982275 
L 217.850385 218.105508 
L 223.360099 223.285505 
L 228.808896 228.522265 
L 234.196777 233.81579 
L 239.52374 239.166078 
L 244.789787 244.573129 
L 249.994917 250.036945 
L 255.139131 255.557524 
L 260.222427 261.134867 
L 265.244807 266.768974 
L 270.20627 272.459844 
L 275.106817 278.207478 
L 279.946446 284.011876 
L 284.725159 289.873038 
L 289.442956 295.790963 
L 294.099835 301.765652 
L 298.695798 307.797105 
L 303.230844 313.885321 
L 307.704973 320.030302 
L 312.118186 326.232046 
L 316.470481 332.490553 
L 320.761861 338.805825 
" clip-path="url(#p643257ca65)" style="fill: none; stroke: #75a025; stroke-opacity: 0.4; stroke-width: 4; stroke-linecap: round"/>
   </g>
   <g id="patch_2">
    <path d="M 405.208883 598.574644 
Q 358.384181 553.246668 312.756975 509.077909 
" clip-path="url(#p643257ca65)" style="fill: none; stroke: #0279ee; stroke-width: 2; stroke-linecap: round"/>
    <path d="M 314.331766 518.953132 
L 312.756975 509.077909 
L 322.678131 510.331171 
" clip-path="url(#p643257ca65)" style="fill: none; stroke: #0279ee; stroke-width: 2; stroke-linecap: round"/>
   </g>
   <g id="patch_3">
    <path d="M 292.019453 371.496276 
Q 229.609972 426.994502 168.445944 481.385198 
" clip-path="url(#p643257ca65)" style="fill: none; stroke: #0279ee; stroke-width: 2; stroke-linecap: round"/>
    <path d="M 178.411229 480.55268 
L 168.445944 481.385198 
L 170.437007 471.585419 
" clip-path="url(#p643257ca65)" style="fill: none; stroke: #0279ee; stroke-width: 2; stroke-linecap: round"/>
   </g>
   <g id="patch_4">
    <path d="M 172.863946 491.667676 
Q 241.623047 464.278835 308.833797 437.506749 
" clip-path="url(#p643257ca65)" style="fill: none; stroke: #0279ee; stroke-width: 2; stroke-linecap: round"/>
    <path d="M 299.181393 434.893111 
L 308.833797 437.506749 
L 303.622031 446.041237 
" clip-path="url(#p643257ca65)" style="fill: none; stroke: #0279ee; stroke-width: 2; stroke-linecap: round"/>
   </g>
   <g id="patch_5">
    <path d="M 274.824976 581.183965 
Q 296.439564 512.598272 317.553195 445.602176 
" clip-path="url(#p643257ca65)" style="fill: none; stroke: #0279ee; stroke-width: 2; stroke-linecap: round"/>
    <path d="M 309.426051 451.428797 
L 317.553195 445.602176 
L 320.871152 455.035689 
" clip-path="url(#p643257ca65)" style="fill: none; stroke: #0279ee; stroke-width: 2; stroke-linecap: round"/>
   </g>
   <g id="patch_6">
    <path d="M 274.824976 581.183965 
Q 296.439564 512.598272 317.553195 445.602176 
" clip-path="url(#p643257ca65)" style="fill: none; stroke: #0279ee; stroke-width: 2; stroke-linecap: round"/>
    <path d="M 309.426051 451.428797 
L 317.553195 445.602176 
L 320.871152 455.035689 
" clip-path="url(#p643257ca65)" style="fill: none; stroke: #0279ee; stroke-width: 2; stroke-linecap: round"/>
   </g>
   <g id="line2d_6">
    <path d="M 276.536552 583.92738 
L 333.692747 444.743271 
" clip-path="url(#p643257ca65)" style="fill: none; stroke-dasharray: 9.6,7.2; stroke-dashoffset: 0; stroke: #fd9bed; stroke-width: 2.4"/>
   </g>
   <g id="line2d_7">
    <path d="M 367.756447 399.512557 
L 351.102814 390.480428 
" clip-path="url(#p643257ca65)" style="fill: none; stroke: #222222; stroke-width: 2; stroke-linecap: round"/>
   </g>
   <g id="line2d_8">
    <path d="M 368.26121 418.451091 
L 367.756447 399.512557 
" clip-path="url(#p643257ca65)" style="fill: none; stroke: #222222; stroke-width: 2; stroke-linecap: round"/>
   </g>
   <g id="line2d_9">
    <path d="M 384.914843 427.48322 
L 368.26121 418.451091 
" clip-path="url(#p643257ca65)" style="fill: none; stroke: #222222; stroke-width: 2; stroke-linecap: round"/>
   </g>
   <g id="line2d_10">
    <path d="M 352.11234 428.357496 
L 368.26121 418.451091 
" clip-path="url(#p643257ca65)" style="fill: none; stroke: #222222; stroke-width: 2; stroke-linecap: round"/>
   </g>
   <g id="line2d_11">
    <path d="M 348.66853 446.987124 
L 352.11234 428.357496 
" clip-path="url(#p643257ca65)" style="fill: none; stroke: #222222; stroke-width: 2; stroke-linecap: round"/>
   </g>
   <g id="line2d_12">
    <path d="M 329.886506 449.468737 
L 348.66853 446.987124 
" clip-path="url(#p643257ca65)" style="fill: none; stroke: #222222; stroke-width: 2; stroke-linecap: round"/>
   </g>
   <g id="line2d_13">
    <path d="M 321.722386 432.372831 
L 329.886506 449.468737 
" clip-path="url(#p643257ca65)" style="fill: none; stroke: #222222; stroke-width: 2; stroke-linecap: round"/>
   </g>
   <g id="line2d_14">
    <path d="M 335.458707 419.325367 
L 321.722386 432.372831 
" clip-path="url(#p643257ca65)" style="fill: none; stroke: #222222; stroke-width: 2; stroke-linecap: round"/>
   </g>
   <g id="line2d_15">
    <path d="M 335.458707 419.325367 
L 352.11234 428.357496 
" clip-path="url(#p643257ca65)" style="fill: none; stroke: #222222; stroke-width: 2; stroke-linecap: round"/>
   </g>
   <g id="line2d_16">
    <path d="M 334.953944 400.386833 
L 351.102814 390.480428 
" clip-path="url(#p643257ca65)" style="fill: none; stroke: #222222; stroke-width: 2; stroke-linecap: round"/>
   </g>
   <g id="line2d_17">
    <path d="M 334.953944 400.386833 
L 335.458707 419.325367 
" clip-path="url(#p643257ca65)" style="fill: none; stroke: #222222; stroke-width: 2; stroke-linecap: round"/>
   </g>
   <g id="line2d_18">
    <path d="M 383.905317 389.606153 
L 367.756447 399.512557 
" clip-path="url(#p643257ca65)" style="fill: none; stroke: #222222; stroke-width: 2; stroke-linecap: round"/>
   </g>
   <g id="line2d_19">
    <path d="M 400.55895 398.638282 
L 383.905317 389.606153 
" clip-path="url(#p643257ca65)" style="fill: none; stroke: #222222; stroke-width: 2; stroke-linecap: round"/>
   </g>
   <g id="line2d_20">
    <path d="M 416.70782 388.731877 
L 400.55895 398.638282 
" clip-path="url(#p643257ca65)" style="fill: none; stroke: #222222; stroke-width: 2; stroke-linecap: round"/>
   </g>
   <g id="line2d_21">
    <path d="M 416.203057 369.793343 
L 416.70782 388.731877 
" clip-path="url(#p643257ca65)" style="fill: none; stroke: #222222; stroke-width: 2; stroke-linecap: round"/>
   </g>
   <g id="line2d_22">
    <path d="M 432.351926 359.886939 
L 416.203057 369.793343 
" clip-path="url(#p643257ca65)" style="fill: none; stroke: #222222; stroke-width: 2; stroke-linecap: round"/>
   </g>
   <g id="line2d_23">
    <path d="M 431.847163 340.948405 
L 432.351926 359.886939 
" clip-path="url(#p643257ca65)" style="fill: none; stroke: #222222; stroke-width: 2; stroke-linecap: round"/>
   </g>
   <g id="line2d_24">
    <path d="M 399.549424 360.761214 
L 416.203057 369.793343 
" clip-path="url(#p643257ca65)" style="fill: none; stroke: #222222; stroke-width: 2; stroke-linecap: round"/>
   </g>
   <g id="line2d_25">
    <path d="M 383.400554 370.667619 
L 399.549424 360.761214 
" clip-path="url(#p643257ca65)" style="fill: none; stroke: #222222; stroke-width: 2; stroke-linecap: round"/>
   </g>
   <g id="line2d_26">
    <path d="M 383.400554 370.667619 
L 383.905317 389.606153 
" clip-path="url(#p643257ca65)" style="fill: none; stroke: #222222; stroke-width: 2; stroke-linecap: round"/>
   </g>
   <g id="line2d_27">
    <path d="M 449.00556 368.919068 
L 432.351926 359.886939 
" clip-path="url(#p643257ca65)" style="fill: none; stroke: #222222; stroke-width: 2; stroke-linecap: round"/>
   </g>
   <g id="line2d_28">
    <path d="M 449.510323 387.857602 
L 449.00556 368.919068 
" clip-path="url(#p643257ca65)" style="fill: none; stroke: #222222; stroke-width: 2; stroke-linecap: round"/>
   </g>
   <g id="line2d_29">
    <path d="M 466.163956 396.889731 
L 449.510323 387.857602 
" clip-path="url(#p643257ca65)" style="fill: none; stroke: #222222; stroke-width: 2; stroke-linecap: round"/>
   </g>
   <g id="line2d_30">
    <path d="M 482.312826 386.983326 
L 466.163956 396.889731 
" clip-path="url(#p643257ca65)" style="fill: none; stroke: #222222; stroke-width: 2; stroke-linecap: round"/>
   </g>
   <g id="line2d_31">
    <path d="M 481.808063 368.044793 
L 482.312826 386.983326 
" clip-path="url(#p643257ca65)" style="fill: none; stroke: #222222; stroke-width: 2; stroke-linecap: round"/>
   </g>
   <g id="line2d_32">
    <path d="M 497.956932 358.138388 
L 481.808063 368.044793 
" clip-path="url(#p643257ca65)" style="fill: none; stroke: #222222; stroke-width: 2; stroke-linecap: round"/>
   </g>
   <g id="line2d_33">
    <path d="M 465.154429 359.012663 
L 449.00556 368.919068 
" clip-path="url(#p643257ca65)" style="fill: none; stroke: #222222; stroke-width: 2; stroke-linecap: round"/>
   </g>
   <g id="line2d_34">
    <path d="M 465.154429 359.012663 
L 481.808063 368.044793 
" clip-path="url(#p643257ca65)" style="fill: none; stroke: #222222; stroke-width: 2; stroke-linecap: round"/>
   </g>
   <g id="line2d_35">
    <path d="M 464.649666 340.074129 
L 465.154429 359.012663 
" clip-path="url(#p643257ca65)" style="fill: none; stroke: #222222; stroke-width: 2; stroke-linecap: round"/>
   </g>
   <g id="line2d_36">
    <path d="M 320.854376 466.12237 
L 329.886506 449.468737 
" clip-path="url(#p643257ca65)" style="fill: none; stroke: #222222; stroke-width: 2; stroke-linecap: round"/>
   </g>
   <g id="line2d_37">
    <path d="M 301.915843 466.627134 
L 320.854376 466.12237 
" clip-path="url(#p643257ca65)" style="fill: none; stroke: #222222; stroke-width: 2; stroke-linecap: round"/>
   </g>
   <g id="line2d_38">
    <path d="M 292.883713 483.280767 
L 301.915843 466.627134 
" clip-path="url(#p643257ca65)" style="fill: none; stroke: #222222; stroke-width: 2; stroke-linecap: round"/>
   </g>
   <g id="line2d_39">
    <path d="M 302.790118 499.429637 
L 292.883713 483.280767 
" clip-path="url(#p643257ca65)" style="fill: none; stroke: #222222; stroke-width: 2; stroke-linecap: round"/>
   </g>
   <g id="line2d_40">
    <path d="M 321.728652 498.924873 
L 302.790118 499.429637 
" clip-path="url(#p643257ca65)" style="fill: none; stroke: #222222; stroke-width: 2; stroke-linecap: round"/>
   </g>
   <g id="line2d_41">
    <path d="M 330.760781 482.27124 
L 321.728652 498.924873 
" clip-path="url(#p643257ca65)" style="fill: none; stroke: #222222; stroke-width: 2; stroke-linecap: round"/>
   </g>
   <g id="line2d_42">
    <path d="M 330.760781 482.27124 
L 320.854376 466.12237 
" clip-path="url(#p643257ca65)" style="fill: none; stroke: #222222; stroke-width: 2; stroke-linecap: round"/>
   </g>
   <g id="line2d_43">
    <path d="M 350.598051 371.541894 
L 366.746921 361.635489 
" clip-path="url(#p643257ca65)" style="fill: none; stroke: #222222; stroke-width: 2; stroke-linecap: round"/>
   </g>
   <g id="line2d_44">
    <path d="M 350.598051 371.541894 
L 351.102814 390.480428 
" clip-path="url(#p643257ca65)" style="fill: none; stroke: #222222; stroke-width: 2; stroke-linecap: round"/>
   </g>
   <g id="line2d_45">
    <path d="M 318.300311 391.354703 
L 334.953944 400.386833 
" clip-path="url(#p643257ca65)" style="fill: none; stroke: #222222; stroke-width: 2; stroke-linecap: round"/>
   </g>
   <g id="line2d_46">
    <path d="M 317.795548 372.41617 
L 318.300311 391.354703 
" clip-path="url(#p643257ca65)" style="fill: none; stroke: #222222; stroke-width: 2; stroke-linecap: round"/>
   </g>
   <g id="line2d_47">
    <path d="M 333.944418 362.509765 
L 317.795548 372.41617 
" clip-path="url(#p643257ca65)" style="fill: none; stroke: #222222; stroke-width: 2; stroke-linecap: round"/>
   </g>
   <g id="line2d_48">
    <path d="M 301.141915 363.38404 
L 317.795548 372.41617 
" clip-path="url(#p643257ca65)" style="fill: none; stroke: #222222; stroke-width: 2; stroke-linecap: round"/>
   </g>
   <g id="line2d_49">
    <path d="M 300.637152 344.445506 
L 301.141915 363.38404 
" clip-path="url(#p643257ca65)" style="fill: none; stroke: #222222; stroke-width: 2; stroke-linecap: round"/>
   </g>
   <g id="line2d_50">
    <path d="M 316.786021 334.539102 
L 300.637152 344.445506 
" clip-path="url(#p643257ca65)" style="fill: none; stroke: #222222; stroke-width: 2; stroke-linecap: round"/>
   </g>
   <g id="line2d_51">
    <path d="M 316.281258 315.600568 
L 316.786021 334.539102 
" clip-path="url(#p643257ca65)" style="fill: none; stroke: #222222; stroke-width: 2; stroke-linecap: round"/>
   </g>
   <g id="line2d_52">
    <path d="M 299.627625 306.568439 
L 316.281258 315.600568 
" clip-path="url(#p643257ca65)" style="fill: none; stroke: #222222; stroke-width: 2; stroke-linecap: round"/>
   </g>
   <g id="line2d_53">
    <path d="M 283.478755 316.474843 
L 299.627625 306.568439 
" clip-path="url(#p643257ca65)" style="fill: none; stroke: #222222; stroke-width: 2; stroke-linecap: round"/>
   </g>
   <g id="line2d_54">
    <path d="M 283.983518 335.413377 
L 283.478755 316.474843 
" clip-path="url(#p643257ca65)" style="fill: none; stroke: #222222; stroke-width: 2; stroke-linecap: round"/>
   </g>
   <g id="line2d_55">
    <path d="M 283.983518 335.413377 
L 300.637152 344.445506 
" clip-path="url(#p643257ca65)" style="fill: none; stroke: #222222; stroke-width: 2; stroke-linecap: round"/>
   </g>
   <g id="line2d_56">
    <path d="M 267.834649 345.319782 
L 283.983518 335.413377 
" clip-path="url(#p643257ca65)" style="fill: none; stroke: #222222; stroke-width: 2; stroke-linecap: round"/>
   </g>
   <g id="line2d_57">
    <path d="M 299.122862 287.629905 
L 299.627625 306.568439 
" clip-path="url(#p643257ca65)" style="fill: none; stroke: #222222; stroke-width: 2; stroke-linecap: round"/>
   </g>
   <g id="line2d_58">
    <path d="M 298.618099 268.691371 
L 299.122862 287.629905 
" clip-path="url(#p643257ca65)" style="fill: none; stroke: #222222; stroke-width: 2; stroke-linecap: round"/>
   </g>
   <g id="line2d_59">
    <path d="M 318.061396 287.125141 
L 299.122862 287.629905 
" clip-path="url(#p643257ca65)" style="fill: none; stroke: #222222; stroke-width: 2; stroke-linecap: round"/>
   </g>
   <g id="line2d_60">
    <path d="M 280.184328 288.134668 
L 299.122862 287.629905 
" clip-path="url(#p643257ca65)" style="fill: none; stroke: #222222; stroke-width: 2; stroke-linecap: round"/>
   </g>
   <g id="text_1">
    <g id="patch_7">
     <path d="M 380.007968 433.35408 
L 389.821718 433.35408 
L 389.821718 421.612361 
L 380.007968 421.612361 
z
" style="fill: #ffffff"/>
    </g>
    <text style="font-weight: 700; font-size: 12px; font-family: 'Liberation Sans', 'Arimo', 'DejaVu Sans'; text-anchor: middle; fill: #d40000" x="384.914843" y="430.588689" transform="rotate(-0 384.914843 430.588689)">O</text>
   </g>
   <g id="text_2">
    <g id="patch_8">
     <path d="M 347.539215 434.228355 
L 356.685465 434.228355 
L 356.685465 422.486637 
L 347.539215 422.486637 
z
" style="fill: #ffffff"/>
    </g>
    <text style="font-weight: 700; font-size: 12px; font-family: 'Liberation Sans', 'Arimo', 'DejaVu Sans'; text-anchor: middle; fill: #0879c0" x="352.11234" y="431.462965" transform="rotate(-0 352.11234 431.462965)">N</text>
   </g>
   <g id="text_3">
    <g id="patch_9">
     <path d="M 344.095405 452.857983 
L 353.241655 452.857983 
L 353.241655 441.116264 
L 344.095405 441.116264 
z
" style="fill: #ffffff"/>
    </g>
    <text style="font-weight: 700; font-size: 12px; font-family: 'Liberation Sans', 'Arimo', 'DejaVu Sans'; text-anchor: middle; fill: #0879c0" x="348.66853" y="450.092592" transform="rotate(-0 348.66853 450.092592)">N</text>
   </g>
   <g id="text_4">
    <g id="patch_10">
     <path d="M 317.149261 438.243691 
L 326.295511 438.243691 
L 326.295511 426.501972 
L 317.149261 426.501972 
z
" style="fill: #ffffff"/>
    </g>
    <text style="font-weight: 700; font-size: 12px; font-family: 'Liberation Sans', 'Arimo', 'DejaVu Sans'; text-anchor: middle; fill: #0879c0" x="321.722386" y="435.4783" transform="rotate(-0 321.722386 435.4783)">N</text>
   </g>
   <g id="text_5">
    <g id="patch_11">
     <path d="M 330.380819 406.257692 
L 339.527069 406.257692 
L 339.527069 394.515973 
L 330.380819 394.515973 
z
" style="fill: #ffffff"/>
    </g>
    <text style="font-weight: 700; font-size: 12px; font-family: 'Liberation Sans', 'Arimo', 'DejaVu Sans'; text-anchor: middle; fill: #0879c0" x="334.953944" y="403.492301" transform="rotate(-0 334.953944 403.492301)">N</text>
   </g>
   <g id="text_6">
    <g id="patch_12">
     <path d="M 379.332192 395.477012 
L 388.478442 395.477012 
L 388.478442 383.735293 
L 379.332192 383.735293 
z
" style="fill: #ffffff"/>
    </g>
    <text style="font-weight: 700; font-size: 12px; font-family: 'Liberation Sans', 'Arimo', 'DejaVu Sans'; text-anchor: middle; fill: #0879c0" x="383.905317" y="392.711621" transform="rotate(-0 383.905317 392.711621)">N</text>
   </g>
   <g id="text_7">
    <g id="patch_13">
     <path d="M 411.629932 375.664203 
L 420.776182 375.664203 
L 420.776182 363.922484 
L 411.629932 363.922484 
z
" style="fill: #ffffff"/>
    </g>
    <text style="font-weight: 700; font-size: 12px; font-family: 'Liberation Sans', 'Arimo', 'DejaVu Sans'; text-anchor: middle; fill: #0879c0" x="416.203057" y="372.898812" transform="rotate(-0 416.203057 372.898812)">N</text>
   </g>
   <g id="text_8">
    <g id="patch_14">
     <path d="M 426.940288 346.819264 
L 436.754038 346.819264 
L 436.754038 335.077545 
L 426.940288 335.077545 
z
" style="fill: #ffffff"/>
    </g>
    <text style="font-weight: 700; font-size: 12px; font-family: 'Liberation Sans', 'Arimo', 'DejaVu Sans'; text-anchor: middle; fill: #d40000" x="431.847163" y="344.053874" transform="rotate(-0 431.847163 344.053874)">O</text>
   </g>
   <g id="text_9">
    <g id="patch_15">
     <path d="M 444.937198 393.728461 
L 454.083448 393.728461 
L 454.083448 381.986742 
L 444.937198 381.986742 
z
" style="fill: #ffffff"/>
    </g>
    <text style="font-weight: 700; font-size: 12px; font-family: 'Liberation Sans', 'Arimo', 'DejaVu Sans'; text-anchor: middle; fill: #0879c0" x="449.510323" y="390.963071" transform="rotate(-0 449.510323 390.963071)">N</text>
   </g>
   <g id="text_10">
    <g id="patch_16">
     <path d="M 477.739701 392.854186 
L 486.885951 392.854186 
L 486.885951 381.112467 
L 477.739701 381.112467 
z
" style="fill: #ffffff"/>
    </g>
    <text style="font-weight: 700; font-size: 12px; font-family: 'Liberation Sans', 'Arimo', 'DejaVu Sans'; text-anchor: middle; fill: #0879c0" x="482.312826" y="390.088795" transform="rotate(-0 482.312826 390.088795)">N</text>
   </g>
   <g id="text_11">
    <g id="patch_17">
     <path d="M 459.742791 345.944989 
L 469.556541 345.944989 
L 469.556541 334.20327 
L 459.742791 334.20327 
z
" style="fill: #ffffff"/>
    </g>
    <text style="font-weight: 700; font-size: 12px; font-family: 'Liberation Sans', 'Arimo', 'DejaVu Sans'; text-anchor: middle; fill: #d40000" x="464.649666" y="343.179598" transform="rotate(-0 464.649666 343.179598)">O</text>
   </g>
   <g id="text_12">
    <g id="patch_18">
     <path d="M 297.883243 505.300496 
L 307.696993 505.300496 
L 307.696993 493.558777 
L 297.883243 493.558777 
z
" style="fill: #ffffff"/>
    </g>
    <text style="font-weight: 700; font-size: 12px; font-family: 'Liberation Sans', 'Arimo', 'DejaVu Sans'; text-anchor: middle; fill: #d40000" x="302.790118" y="502.535105" transform="rotate(-0 302.790118 502.535105)">O</text>
   </g>
   <g id="text_13">
    <g id="patch_19">
     <path d="M 329.037543 368.380624 
L 338.851293 368.380624 
L 338.851293 356.638905 
L 329.037543 356.638905 
z
" style="fill: #ffffff"/>
    </g>
    <text style="font-weight: 700; font-size: 12px; font-family: 'Liberation Sans', 'Arimo', 'DejaVu Sans'; text-anchor: middle; fill: #d40000" x="333.944418" y="365.615234" transform="rotate(-0 333.944418 365.615234)">O</text>
   </g>
   <g id="text_14">
    <g id="patch_20">
     <path d="M 296.56879 369.2549 
L 305.71504 369.2549 
L 305.71504 357.513181 
L 296.56879 357.513181 
z
" style="fill: #ffffff"/>
    </g>
    <text style="font-weight: 700; font-size: 12px; font-family: 'Liberation Sans', 'Arimo', 'DejaVu Sans'; text-anchor: middle; fill: #0879c0" x="301.141915" y="366.489509" transform="rotate(-0 301.141915 366.489509)">N</text>
   </g>
   <g id="text_15">
    <g id="patch_21">
     <path d="M 261.594649 351.190641 
L 274.074649 351.190641 
L 274.074649 339.448922 
L 261.594649 339.448922 
z
" style="fill: #ffffff"/>
    </g>
    <text style="font-weight: 700; font-size: 12px; font-family: 'Liberation Sans', 'Arimo', 'DejaVu Sans'; text-anchor: middle; fill: #00a040" x="267.834649" y="348.42525" transform="rotate(-0 267.834649 348.42525)">Cl</text>
   </g>
   <g id="text_16">
    <g id="patch_22">
     <path d="M 294.713411 274.56223 
L 302.522786 274.56223 
L 302.522786 262.820511 
L 294.713411 262.820511 
z
" style="fill: #ffffff"/>
    </g>
    <text style="font-weight: 700; font-size: 12px; font-family: 'Liberation Sans', 'Arimo', 'DejaVu Sans'; text-anchor: middle; fill: #00a040" x="298.618099" y="271.796839" transform="rotate(-0 298.618099 271.796839)">F</text>
   </g>
   <g id="text_17">
    <g id="patch_23">
     <path d="M 314.156709 292.996001 
L 321.966084 292.996001 
L 321.966084 281.254282 
L 314.156709 281.254282 
z
" style="fill: #ffffff"/>
    </g>
    <text style="font-weight: 700; font-size: 12px; font-family: 'Liberation Sans', 'Arimo', 'DejaVu Sans'; text-anchor: middle; fill: #00a040" x="318.061396" y="290.23061" transform="rotate(-0 318.061396 290.23061)">F</text>
   </g>
   <g id="text_18">
    <g id="patch_24">
     <path d="M 276.279641 294.005527 
L 284.089016 294.005527 
L 284.089016 282.263808 
L 276.279641 282.263808 
z
" style="fill: #ffffff"/>
    </g>
    <text style="font-weight: 700; font-size: 12px; font-family: 'Liberation Sans', 'Arimo', 'DejaVu Sans'; text-anchor: middle; fill: #00a040" x="280.184328" y="291.240136" transform="rotate(-0 280.184328 291.240136)">F</text>
   </g>
   <g id="patch_25">
    <path d="M 340.132225 162.419556 
C 347.478881 162.419556 354.525626 159.500699 359.720497 154.305828 
C 364.915367 149.110958 367.834225 142.064213 367.834225 134.717556 
C 367.834225 127.3709 364.915367 120.324155 359.720497 115.129284 
C 354.525626 109.934414 347.478881 107.015556 340.132225 107.015556 
C 332.785568 107.015556 325.738823 109.934414 320.543953 115.129284 
C 315.349082 120.324155 312.430225 127.3709 312.430225 134.717556 
C 312.430225 142.064213 315.349082 149.110958 320.543953 154.305828 
C 325.738823 159.500699 332.785568 162.419556 340.132225 162.419556 
z
" clip-path="url(#p643257ca65)" style="fill: #8bc34a; stroke: #222222; stroke-width: 1.2; stroke-linejoin: miter"/>
   </g>
   <g id="patch_26">
    <path d="M 595.589935 332.462768 
C 602.936591 332.462768 609.983337 329.54391 615.178207 324.34904 
C 620.373078 319.154169 623.291935 312.107424 623.291935 304.760768 
C 623.291935 297.414112 620.373078 290.367366 615.178207 285.172496 
C 609.983337 279.977625 602.936591 277.058768 595.589935 277.058768 
C 588.243279 277.058768 581.196533 279.977625 576.001663 285.172496 
C 570.806792 290.367366 567.887935 297.414112 567.887935 304.760768 
C 567.887935 312.107424 570.806792 319.154169 576.001663 324.34904 
C 581.196533 329.54391 588.243279 332.462768 595.589935 332.462768 
z
" clip-path="url(#p643257ca65)" style="fill: #8bc34a; stroke: #222222; stroke-width: 1.2; stroke-linejoin: miter"/>
   </g>
   <g id="patch_27">
    <path d="M 497.338258 203.150271 
C 504.684914 203.150271 511.73166 200.231413 516.92653 195.036543 
C 522.121401 189.841672 525.040258 182.794927 525.040258 175.448271 
C 525.040258 168.101615 522.121401 161.054869 516.92653 155.859999 
C 511.73166 150.665128 504.684914 147.746271 497.338258 147.746271 
C 489.991602 147.746271 482.944857 150.665128 477.749986 155.859999 
C 472.555116 161.054869 469.636258 168.101615 469.636258 175.448271 
C 469.636258 182.794927 472.555116 189.841672 477.749986 195.036543 
C 482.944857 200.231413 489.991602 203.150271 497.338258 203.150271 
z
" clip-path="url(#p643257ca65)" style="fill: #5087c5; stroke: #222222; stroke-width: 1.2; stroke-linejoin: miter"/>
   </g>
   <g id="patch_28">
    <path d="M 115.13301 371.079698 
C 122.479666 371.079698 129.526412 368.16084 134.721282 362.96597 
C 139.916153 357.771099 142.83501 350.724354 142.83501 343.377698 
C 142.83501 336.031042 139.916153 328.984296 134.721282 323.789426 
C 129.526412 318.594555 122.479666 315.675698 115.13301 315.675698 
C 107.786354 315.675698 100.739608 318.594555 95.544738 323.789426 
C 90.349867 328.984296 87.43101 336.031042 87.43101 343.377698 
C 87.43101 350.724354 90.349867 357.771099 95.544738 362.96597 
C 100.739608 368.16084 107.786354 371.079698 115.13301 371.079698 
z
" clip-path="url(#p643257ca65)" style="fill: #f5a623; stroke: #222222; stroke-width: 1.2; stroke-linejoin: miter"/>
   </g>
   <g id="patch_29">
    <path d="M 191.458868 227.744644 
C 198.805525 227.744644 205.85227 224.825787 211.04714 219.630916 
C 216.242011 214.436046 219.160868 207.3893 219.160868 200.042644 
C 219.160868 192.695988 216.242011 185.649243 211.04714 180.454372 
C 205.85227 175.259502 198.805525 172.340644 191.458868 172.340644 
C 184.112212 172.340644 177.065467 175.259502 171.870596 180.454372 
C 166.675726 185.649243 163.756868 192.695988 163.756868 200.042644 
C 163.756868 207.3893 166.675726 214.436046 171.870596 219.630916 
C 177.065467 224.825787 184.112212 227.744644 191.458868 227.744644 
z
" clip-path="url(#p643257ca65)" style="fill: #f5a623; stroke: #222222; stroke-width: 1.2; stroke-linejoin: miter"/>
   </g>
   <g id="patch_30">
    <path d="M 427.594737 647.946948 
C 434.941393 647.946948 441.988138 645.02809 447.183009 639.83322 
C 452.377879 634.638349 455.296737 627.591604 455.296737 620.244948 
C 455.296737 612.898291 452.377879 605.851546 447.183009 600.656675 
C 441.988138 595.461805 434.941393 592.542948 427.594737 592.542948 
C 420.24808 592.542948 413.201335 595.461805 408.006465 600.656675 
C 402.811594 605.851546 399.892737 612.898291 399.892737 620.244948 
C 399.892737 627.591604 402.811594 634.638349 408.006465 639.83322 
C 413.201335 645.02809 420.24808 647.946948 427.594737 647.946948 
z
" clip-path="url(#p643257ca65)" style="fill: #5087c5; stroke: #222222; stroke-width: 1.2; stroke-linejoin: miter"/>
   </g>
   <g id="patch_31">
    <path d="M 143.916328 530.900393 
C 151.262984 530.900393 158.309729 527.981536 163.5046 522.786665 
C 168.69947 517.591795 171.618328 510.545049 171.618328 503.198393 
C 171.618328 495.851737 168.69947 488.804991 163.5046 483.610121 
C 158.309729 478.415251 151.262984 475.496393 143.916328 475.496393 
C 136.569671 475.496393 129.522926 478.415251 124.328056 483.610121 
C 119.133185 488.804991 116.214328 495.851737 116.214328 503.198393 
C 116.214328 510.545049 119.133185 517.591795 124.328056 522.786665 
C 129.522926 527.981536 136.569671 530.900393 143.916328 530.900393 
z
" clip-path="url(#p643257ca65)" style="fill: #f5a623; stroke: #dc3912; stroke-width: 2.8; stroke-linejoin: miter"/>
   </g>
   <g id="patch_32">
    <path d="M 265.459562 638.603551 
C 272.806218 638.603551 279.852964 635.684694 285.047834 630.489823 
C 290.242705 625.294953 293.161562 618.248207 293.161562 610.901551 
C 293.161562 603.554895 290.242705 596.50815 285.047834 591.313279 
C 279.852964 586.118409 272.806218 583.199551 265.459562 583.199551 
C 258.112906 583.199551 251.066161 586.118409 245.87129 591.313279 
C 240.67642 596.50815 237.757562 603.554895 237.757562 610.901551 
C 237.757562 618.248207 240.67642 625.294953 245.87129 630.489823 
C 251.066161 635.684694 258.112906 638.603551 265.459562 638.603551 
z
" clip-path="url(#p643257ca65)" style="fill: #5087c5; stroke: #222222; stroke-width: 1.2; stroke-linejoin: miter"/>
   </g>
   <g id="text_19">
    <text style="font-weight: 700; font-size: 9.5px; font-family: 'Liberation Sans', 'Arimo', 'DejaVu Sans'; text-anchor: middle; fill: #222222" x="340.132225" y="137.176052" transform="rotate(-0 340.132225 137.176052)">V552</text>
   </g>
   <g id="text_20">
    <text style="font-weight: 700; font-size: 9.5px; font-family: 'Liberation Sans', 'Arimo', 'DejaVu Sans'; text-anchor: middle; fill: #222222" x="595.589935" y="307.219264" transform="rotate(-0 595.589935 307.219264)">F730</text>
   </g>
   <g id="text_21">
    <text style="font-weight: 700; font-size: 9.5px; font-family: 'Liberation Sans', 'Arimo', 'DejaVu Sans'; text-anchor: middle; fill: #ffffff" x="497.338258" y="177.906767" transform="rotate(-0 497.338258 177.906767)">R732</text>
   </g>
   <g id="text_22">
    <text style="font-weight: 700; font-size: 9.5px; font-family: 'Liberation Sans', 'Arimo', 'DejaVu Sans'; text-anchor: middle; fill: #222222" x="115.13301" y="345.836194" transform="rotate(-0 115.13301 345.836194)">Y849</text>
   </g>
   <g id="text_23">
    <text style="font-weight: 700; font-size: 9.5px; font-family: 'Liberation Sans', 'Arimo', 'DejaVu Sans'; text-anchor: middle; fill: #222222" x="191.458868" y="202.50114" transform="rotate(-0 191.458868 202.50114)">Q850</text>
   </g>
   <g id="text_24">
    <text style="font-weight: 700; font-size: 9.5px; font-family: 'Liberation Sans', 'Arimo', 'DejaVu Sans'; text-anchor: middle; fill: #ffffff" x="427.594737" y="622.703444" transform="rotate(-0 427.594737 622.703444)">R711</text>
   </g>
   <g id="text_25">
    <text style="font-weight: 700; font-size: 9.5px; font-family: 'Liberation Sans', 'Arimo', 'DejaVu Sans'; text-anchor: middle; fill: #222222" x="143.916328" y="505.656889" transform="rotate(-0 143.916328 505.656889)">S727</text>
   </g>
   <g id="text_26">
    <text style="font-weight: 700; font-size: 9.5px; font-family: 'Liberation Sans', 'Arimo', 'DejaVu Sans'; text-anchor: middle; fill: #ffffff" x="265.459562" y="613.360047" transform="rotate(-0 265.459562 613.360047)">R857</text>
   </g>
  </g>
  <g id="patch_33">
   <path d="M 130.640391 714.42 
Q 135.83969 714.42 138.914724 714.42 
" style="fill: none; stroke: #0279ee; stroke-width: 1.9; stroke-linecap: round"/>
   <path d="M 134.114724 712.02 
L 138.914724 714.42 
L 134.114724 716.82 
" style="fill: none; stroke: #0279ee; stroke-width: 1.9; stroke-linecap: round"/>
  </g>
  <g id="patch_34">
   <path d="M 92.16 743.148 
C 93.68757 743.148 95.15278 742.510745 96.232935 741.376582 
C 97.31309 740.242419 97.92 738.703948 97.92 737.1 
C 97.92 735.496052 97.31309 733.957581 96.232935 732.823418 
C 95.15278 731.689255 93.68757 731.052 92.16 731.052 
C 90.63243 731.052 89.16722 731.689255 88.087065 732.823418 
C 87.00691 733.957581 86.4 735.496052 86.4 737.1 
C 86.4 738.703948 87.00691 740.242419 88.087065 741.376582 
C 89.16722 742.510745 90.63243 743.148 92.16 743.148 
z
" style="fill: #5087c5; stroke: #222222; stroke-width: 0.8; stroke-linejoin: miter"/>
  </g>
  <g id="patch_35">
   <path d="M 218.88 743.148 
C 220.40757 743.148 221.87278 742.510745 222.952935 741.376582 
C 224.03309 740.242419 224.64 738.703948 224.64 737.1 
C 224.64 735.496052 224.03309 733.957581 222.952935 732.823418 
C 221.87278 731.689255 220.40757 731.052 218.88 731.052 
C 217.35243 731.052 215.88722 731.689255 214.807065 732.823418 
C 213.72691 733.957581 213.12 735.496052 213.12 737.1 
C 213.12 738.703948 213.72691 740.242419 214.807065 741.376582 
C 215.88722 742.510745 217.35243 743.148 218.88 743.148 
z
" style="fill: #d9584c; stroke: #222222; stroke-width: 0.8; stroke-linejoin: miter"/>
  </g>
  <g id="patch_36">
   <path d="M 345.6 743.148 
C 347.12757 743.148 348.59278 742.510745 349.672935 741.376582 
C 350.75309 740.242419 351.36 738.703948 351.36 737.1 
C 351.36 735.496052 350.75309 733.957581 349.672935 732.823418 
C 348.59278 731.689255 347.12757 731.052 345.6 731.052 
C 344.07243 731.052 342.60722 731.689255 341.527065 732.823418 
C 340.44691 733.957581 339.84 735.496052 339.84 737.1 
C 339.84 738.703948 340.44691 740.242419 341.527065 741.376582 
C 342.60722 742.510745 344.07243 743.148 345.6 743.148 
z
" style="fill: #f5a623; stroke: #222222; stroke-width: 0.8; stroke-linejoin: miter"/>
  </g>
  <g id="patch_37">
   <path d="M 472.32 743.148 
C 473.84757 743.148 475.31278 742.510745 476.392935 741.376582 
C 477.47309 740.242419 478.08 738.703948 478.08 737.1 
C 478.08 735.496052 477.47309 733.957581 476.392935 732.823418 
C 475.31278 731.689255 473.84757 731.052 472.32 731.052 
C 470.79243 731.052 469.32722 731.689255 468.247065 732.823418 
C 467.16691 733.957581 466.56 735.496052 466.56 737.1 
C 466.56 738.703948 467.16691 740.242419 468.247065 741.376582 
C 469.32722 742.510745 470.79243 743.148 472.32 743.148 
z
" style="fill: #8bc34a; stroke: #222222; stroke-width: 0.8; stroke-linejoin: miter"/>
  </g>
  <g id="patch_38">
   <path d="M 599.04 743.148 
C 600.56757 743.148 602.03278 742.510745 603.112935 741.376582 
C 604.19309 740.242419 604.8 738.703948 604.8 737.1 
C 604.8 735.496052 604.19309 733.957581 603.112935 732.823418 
C 602.03278 731.689255 600.56757 731.052 599.04 731.052 
C 597.51243 731.052 596.04722 731.689255 594.967065 732.823418 
C 593.88691 733.957581 593.28 735.496052 593.28 737.1 
C 593.28 738.703948 593.88691 740.242419 594.967065 741.376582 
C 596.04722 742.510745 597.51243 743.148 599.04 743.148 
z
" style="fill: #ffffff; stroke: #dc3912; stroke-width: 2.5; stroke-linejoin: miter"/>
  </g>
  <g id="line2d_61">
   <path d="M 339.84 714.42 
L 354.24 714.42 
" style="fill: none; stroke: #75a025; stroke-opacity: 0.4; stroke-width: 4; stroke-linecap: square"/>
  </g>
  <g id="line2d_62">
   <path d="M 551.04 714.42 
L 565.44 714.42 
" style="fill: none; stroke-dasharray: 9.6,7.2; stroke-dashoffset: 0; stroke: #fd9bed; stroke-width: 2.4"/>
  </g>
  <g id="text_27">
   <text style="font-weight: 700; font-size: 14px; font-family: 'Liberation Sans', 'Arimo', 'DejaVu Sans'; text-anchor: middle" x="360" y="21.532383" transform="rotate(-0 360 21.532383)">C727S × 9MJT · HRO761 — RESISTANCE</text>
  </g>
  <g id="text_28">
   <text style="font-size: 10.5px; font-family: 'Liberation Sans', 'Arimo', 'DejaVu Sans'; text-anchor: middle" x="360" y="41.66925" transform="rotate(-0 360 41.66925)">ΔS = -0.46  |  RMSD vs WT = 11.79 Å  |  7 lost / 1 retained / 7 gained</text>
  </g>
  <g id="text_29">
   <text style="font-size: 10.5px; font-family: 'Liberation Sans', 'Arimo', 'DejaVu Sans'; text-anchor: middle" x="360" y="61.320287" transform="rotate(-0 360 61.320287)">PLIP: 5 hydrophobic · 5 H-bond · 1 π-cation</text>
  </g>
  <g id="text_30">
   <text style="font-size: 8.5px; font-family: 'Liberation Sans', 'Arimo', 'DejaVu Sans'; text-anchor: start" x="146.64" y="716.619707" transform="rotate(-0 146.64 716.619707)">H-bond</text>
  </g>
  <g id="text_31">
   <text style="font-size: 8.5px; font-family: 'Liberation Sans', 'Arimo', 'DejaVu Sans'; text-anchor: start" x="357.84" y="716.619707" transform="rotate(-0 357.84 716.619707)">Hydrophobic</text>
  </g>
  <g id="text_32">
   <text style="font-size: 8.5px; font-family: 'Liberation Sans', 'Arimo', 'DejaVu Sans'; text-anchor: start" x="569.04" y="716.619707" transform="rotate(-0 569.04 716.619707)">π-cation</text>
  </g>
  <g id="text_33">
   <text style="font-size: 8px; font-family: 'Liberation Sans', 'Arimo', 'DejaVu Sans'; text-anchor: start" x="100.8" y="739.170313" transform="rotate(-0 100.8 739.170313)">Basic</text>
  </g>
  <g id="text_34">
   <text style="font-size: 8px; font-family: 'Liberation Sans', 'Arimo', 'DejaVu Sans'; text-anchor: start" x="227.52" y="739.170313" transform="rotate(-0 227.52 739.170313)">Acidic</text>
  </g>
  <g id="text_35">
   <text style="font-size: 8px; font-family: 'Liberation Sans', 'Arimo', 'DejaVu Sans'; text-anchor: start" x="354.24" y="739.170313" transform="rotate(-0 354.24 739.170313)">Polar</text>
  </g>
  <g id="text_36">
   <text style="font-size: 8px; font-family: 'Liberation Sans', 'Arimo', 'DejaVu Sans'; text-anchor: start" x="480.96" y="739.170313" transform="rotate(-0 480.96 739.170313)">Hydrophobic</text>
  </g>
  <g id="text_37">
   <text style="font-size: 8px; font-family: 'Liberation Sans', 'Arimo', 'DejaVu Sans'; text-anchor: start" x="607.68" y="739.170313" transform="rotate(-0 607.68 739.170313)">Mutation site</text>
  </g>
 </g>
 <defs>
  <clipPath id="p643257ca65">
   <rect x="53.82" y="75.6" width="612.36" height="612.36"/>
  </clipPath>
 </defs>
</svg>
