<?xml version="1.0" encoding="utf-8" standalone="no"?>
<!DOCTYPE svg PUBLIC "-//W3C//DTD SVG 1.1//EN"
  "http://www.w3.org/Graphics/SVG/1.1/DTD/svg11.dtd">
<svg xmlns:xlink="http://www.w3.org/1999/xlink" width="720pt" height="756pt" viewBox="0 0 720 756" xmlns="http://www.w3.org/2000/svg" version="1.1">
 <metadata>
  <rdf:RDF xmlns:dc="http://purl.org/dc/elements/1.1/" xmlns:cc="http://creativecommons.org/ns#" xmlns:rdf="http://www.w3.org/1999/02/22-rdf-syntax-ns#">
   <cc:Work>
    <dc:type rdf:resource="http://purl.org/dc/dcmitype/StillImage"/>
    <dc:date>2022-01-01T05:00:00+00:00</dc:date>
    <dc:format>image/svg+xml</dc:format>
    <dc:creator>
     <cc:Agent>
      <dc:title>Matplotlib v3.11.0, https://matplotlib.org/</dc:title>
     </cc:Agent>
    </dc:creator>
   </cc:Work>
  </rdf:RDF>
 </metadata>
 <defs>
  <style type="text/css">*{stroke-linejoin: round; stroke-linecap: butt}</style>
 </defs>
 <g id="figure_1">
  <g id="patch_1">
   <path d="M 0 756 
L 720 756 
L 720 0 
L 0 0 
z
" style="fill: #ffffff"/>
  </g>
  <g id="axes_1">
   <g id="line2d_1">
    <path d="M 625.254337 460.931083 
L 618.79189 456.911997 
L 612.296887 452.969249 
L 605.769328 449.102841 
L 599.209214 445.312771 
L 592.616544 441.59904 
L 585.991319 437.961649 
L 579.333539 434.400596 
L 572.643203 430.915883 
L 565.920311 427.507509 
L 559.164864 424.175473 
L 552.376862 420.919777 
L 545.556304 417.740419 
L 538.703191 414.637401 
L 531.817522 411.610722 
L 524.899297 408.660382 
L 517.948518 405.78638 
L 510.965182 402.988718 
L 503.949292 400.267395 
L 496.900845 397.622411 
L 489.819843 395.053766 
L 482.706286 392.561459 
L 475.560174 390.145492 
L 468.381505 387.805864 
L 461.170282 385.542575 
L 453.926503 383.355625 
L 446.650168 381.245014 
L 439.341278 379.210742 
L 431.999832 377.252809 
L 424.625831 375.371216 
" clip-path="url(#pa199eb56a9)" style="fill: none; stroke: #75a025; stroke-opacity: 0.4; stroke-width: 4; stroke-linecap: round"/>
   </g>
   <g id="line2d_2">
    <path d="M 627.331517 453.378186 
L 619.928543 453.523392 
L 612.536329 453.588572 
L 605.154876 453.573727 
L 597.784183 453.478855 
L 590.42425 453.303958 
L 583.075077 453.049036 
L 575.736665 452.714087 
L 568.409013 452.299113 
L 561.092122 451.804114 
L 553.785991 451.229088 
L 546.49062 450.574037 
L 539.206009 449.83896 
L 531.932159 449.023857 
L 524.669069 448.128729 
L 517.416739 447.153575 
L 510.17517 446.098395 
L 502.944361 444.96319 
L 495.724312 443.747959 
L 488.515024 442.452702 
L 481.316496 441.07742 
L 474.128728 439.622111 
L 466.951721 438.086777 
L 459.785474 436.471418 
L 452.629987 434.776032 
L 445.485261 433.000621 
L 438.351295 431.145185 
L 431.228089 429.209722 
L 424.115644 427.194234 
L 417.013959 425.09872 
" clip-path="url(#pa199eb56a9)" style="fill: none; stroke: #75a025; stroke-opacity: 0.4; stroke-width: 4; stroke-linecap: round"/>
   </g>
   <g id="line2d_3">
    <path d="M 172.794515 581.313751 
L 173.740514 574.455653 
L 174.758849 567.619169 
L 175.849521 560.804298 
L 177.01253 554.01104 
L 178.247875 547.239396 
L 179.555557 540.489365 
L 180.935575 533.760948 
L 182.387931 527.054144 
L 183.912623 520.368953 
L 185.509651 513.705376 
L 187.179016 507.063411 
L 188.920718 500.443061 
L 190.734757 493.844324 
L 192.621132 487.2672 
L 194.579844 480.711689 
L 196.610893 474.177792 
L 198.714278 467.665508 
L 200.89 461.174838 
L 203.138059 454.705781 
L 205.458454 448.258337 
L 207.851186 441.832507 
L 210.316254 435.42829 
L 212.85366 429.045686 
L 215.463402 422.684696 
L 218.14548 416.345319 
L 220.899895 410.027556 
L 223.726647 403.731406 
L 226.625736 397.456869 
L 229.597161 391.203946 
" clip-path="url(#pa199eb56a9)" style="fill: none; stroke: #75a025; stroke-opacity: 0.4; stroke-width: 4; stroke-linecap: round"/>
   </g>
   <g id="line2d_4">
    <path d="M 87.050553 339.855294 
L 91.779891 342.673234 
L 96.531724 345.435512 
L 101.306053 348.142129 
L 106.102878 350.793086 
L 110.922199 353.388381 
L 115.764016 355.928015 
L 120.628328 358.411989 
L 125.515136 360.840301 
L 130.42444 363.212952 
L 135.35624 365.529943 
L 140.310536 367.791272 
L 145.287328 369.99694 
L 150.286615 372.146947 
L 155.308399 374.241294 
L 160.352678 376.279979 
L 165.419453 378.263003 
L 170.508723 380.190366 
L 175.62049 382.062069 
L 180.754753 383.87811 
L 185.911511 385.63849 
L 191.090765 387.343209 
L 196.292515 388.992267 
L 201.516761 390.585664 
L 206.763503 392.123401 
L 212.03274 393.605476 
L 217.324473 395.03189 
L 222.638703 396.402643 
L 227.975428 397.717735 
L 233.334649 398.977166 
" clip-path="url(#pa199eb56a9)" style="fill: none; stroke: #75a025; stroke-opacity: 0.4; stroke-width: 4; stroke-linecap: round"/>
   </g>
   <g id="patch_2">
    <path d="M 202.287335 530.484925 
Q 243.964595 485.369179 284.510921 441.477673 
" clip-path="url(#pa199eb56a9)" style="fill: none; stroke: #0279ee; stroke-width: 2; stroke-linecap: round"/>
    <path d="M 274.675169 443.28266 
L 284.510921 441.477673 
L 283.489697 451.425392 
" clip-path="url(#pa199eb56a9)" style="fill: none; stroke: #0279ee; stroke-width: 2; stroke-linecap: round"/>
   </g>
   <g id="line2d_5">
    <path d="M 139.450132 365.168207 
L 242.733303 423.749554 
" clip-path="url(#pa199eb56a9)" style="fill: none; stroke: #8b4513; stroke-width: 2.2; stroke-linecap: square"/>
   </g>
   <g id="patch_3">
    <path d="M 418.698333 590.377494 
Q 399.72155 522.939302 381.196225 457.105467 
" clip-path="url(#pa199eb56a9)" style="fill: none; stroke: #0279ee; stroke-width: 2; stroke-linecap: round"/>
    <path d="M 377.587538 466.431633 
L 381.196225 457.105467 
L 389.138912 463.181132 
" clip-path="url(#pa199eb56a9)" style="fill: none; stroke: #0279ee; stroke-width: 2; stroke-linecap: round"/>
   </g>
   <g id="line2d_6">
    <path d="M 293.924478 431.287473 
L 283.603669 405.101578 
" clip-path="url(#pa199eb56a9)" style="fill: none; stroke: #222222; stroke-width: 2; stroke-linecap: round"/>
   </g>
   <g id="line2d_7">
    <path d="M 321.762533 435.442337 
L 293.924478 431.287473 
" clip-path="url(#pa199eb56a9)" style="fill: none; stroke: #222222; stroke-width: 2; stroke-linecap: round"/>
   </g>
   <g id="line2d_8">
    <path d="M 339.279778 413.411307 
L 321.762533 435.442337 
" clip-path="url(#pa199eb56a9)" style="fill: none; stroke: #222222; stroke-width: 2; stroke-linecap: round"/>
   </g>
   <g id="line2d_9">
    <path d="M 328.958969 387.225412 
L 339.279778 413.411307 
" clip-path="url(#pa199eb56a9)" style="fill: none; stroke: #222222; stroke-width: 2; stroke-linecap: round"/>
   </g>
   <g id="line2d_10">
    <path d="M 301.120915 383.070548 
L 328.958969 387.225412 
" clip-path="url(#pa199eb56a9)" style="fill: none; stroke: #222222; stroke-width: 2; stroke-linecap: round"/>
   </g>
   <g id="line2d_11">
    <path d="M 301.120915 383.070548 
L 283.603669 405.101578 
" clip-path="url(#pa199eb56a9)" style="fill: none; stroke: #222222; stroke-width: 2; stroke-linecap: round"/>
   </g>
   <g id="line2d_12">
    <path d="M 255.765614 400.946713 
L 283.603669 405.101578 
" clip-path="url(#pa199eb56a9)" style="fill: none; stroke: #222222; stroke-width: 2; stroke-linecap: round"/>
   </g>
   <g id="line2d_13">
    <path d="M 255.765614 400.946713 
L 227.92756 396.791848 
" clip-path="url(#pa199eb56a9)" style="fill: none; stroke: #222222; stroke-width: 2; stroke-linecap: round"/>
   </g>
   <g id="line2d_14">
    <path d="M 259.920479 373.108658 
L 255.765614 400.946713 
" clip-path="url(#pa199eb56a9)" style="fill: none; stroke: #222222; stroke-width: 2; stroke-linecap: round"/>
   </g>
   <g id="line2d_15">
    <path d="M 251.61075 428.784768 
L 255.765614 400.946713 
" clip-path="url(#pa199eb56a9)" style="fill: none; stroke: #222222; stroke-width: 2; stroke-linecap: round"/>
   </g>
   <g id="line2d_16">
    <path d="M 367.117833 417.566172 
L 339.279778 413.411307 
" clip-path="url(#pa199eb56a9)" style="fill: none; stroke: #222222; stroke-width: 2; stroke-linecap: round"/>
   </g>
   <g id="line2d_17">
    <path d="M 377.438642 443.752067 
L 367.117833 417.566172 
" clip-path="url(#pa199eb56a9)" style="fill: none; stroke: #222222; stroke-width: 2; stroke-linecap: round"/>
   </g>
   <g id="line2d_18">
    <path d="M 384.635079 395.535142 
L 367.117833 417.566172 
" clip-path="url(#pa199eb56a9)" style="fill: none; stroke: #222222; stroke-width: 2; stroke-linecap: round"/>
   </g>
   <g id="line2d_19">
    <path d="M 412.473133 399.690006 
L 384.635079 395.535142 
" clip-path="url(#pa199eb56a9)" style="fill: none; stroke: #222222; stroke-width: 2; stroke-linecap: round"/>
   </g>
   <g id="line2d_20">
    <path d="M 422.793942 425.875901 
L 412.473133 399.690006 
" clip-path="url(#pa199eb56a9)" style="fill: none; stroke: #222222; stroke-width: 2; stroke-linecap: round"/>
   </g>
   <g id="line2d_21">
    <path d="M 418.639078 453.713956 
L 422.793942 425.875901 
" clip-path="url(#pa199eb56a9)" style="fill: none; stroke: #222222; stroke-width: 2; stroke-linecap: round"/>
   </g>
   <g id="line2d_22">
    <path d="M 444.824973 443.393147 
L 418.639078 453.713956 
" clip-path="url(#pa199eb56a9)" style="fill: none; stroke: #222222; stroke-width: 2; stroke-linecap: round"/>
   </g>
   <g id="line2d_23">
    <path d="M 444.824973 443.393147 
L 422.793942 425.875901 
" clip-path="url(#pa199eb56a9)" style="fill: none; stroke: #222222; stroke-width: 2; stroke-linecap: round"/>
   </g>
   <g id="line2d_24">
    <path d="M 429.990379 377.658976 
L 412.473133 399.690006 
" clip-path="url(#pa199eb56a9)" style="fill: none; stroke: #222222; stroke-width: 2; stroke-linecap: round"/>
   </g>
   <g id="line2d_25">
    <path d="M 457.828434 381.813841 
L 429.990379 377.658976 
" clip-path="url(#pa199eb56a9)" style="fill: none; stroke: #222222; stroke-width: 2; stroke-linecap: round"/>
   </g>
   <g id="line2d_26">
    <path d="M 475.34568 359.782811 
L 457.828434 381.813841 
" clip-path="url(#pa199eb56a9)" style="fill: none; stroke: #222222; stroke-width: 2; stroke-linecap: round"/>
   </g>
   <g id="line2d_27">
    <path d="M 492.862925 337.751781 
L 475.34568 359.782811 
" clip-path="url(#pa199eb56a9)" style="fill: none; stroke: #222222; stroke-width: 2; stroke-linecap: round"/>
   </g>
   <g id="line2d_28">
    <path d="M 453.314649 342.265565 
L 475.34568 359.782811 
" clip-path="url(#pa199eb56a9)" style="fill: none; stroke: #222222; stroke-width: 2; stroke-linecap: round"/>
   </g>
   <g id="line2d_29">
    <path d="M 497.37671 377.300057 
L 475.34568 359.782811 
" clip-path="url(#pa199eb56a9)" style="fill: none; stroke: #222222; stroke-width: 2; stroke-linecap: round"/>
   </g>
   <g id="line2d_30">
    <path d="M 346.476215 365.194382 
L 328.958969 387.225412 
" clip-path="url(#pa199eb56a9)" style="fill: none; stroke: #222222; stroke-width: 2; stroke-linecap: round"/>
   </g>
   <g id="line2d_31">
    <path d="M 336.155406 339.008487 
L 346.476215 365.194382 
" clip-path="url(#pa199eb56a9)" style="fill: none; stroke: #222222; stroke-width: 2; stroke-linecap: round"/>
   </g>
   <g id="line2d_32">
    <path d="M 308.317352 334.853622 
L 336.155406 339.008487 
" clip-path="url(#pa199eb56a9)" style="fill: none; stroke: #222222; stroke-width: 2; stroke-linecap: round"/>
   </g>
   <g id="line2d_33">
    <path d="M 297.996543 308.667728 
L 308.317352 334.853622 
" clip-path="url(#pa199eb56a9)" style="fill: none; stroke: #222222; stroke-width: 2; stroke-linecap: round"/>
   </g>
   <g id="line2d_34">
    <path d="M 315.513788 286.636697 
L 297.996543 308.667728 
" clip-path="url(#pa199eb56a9)" style="fill: none; stroke: #222222; stroke-width: 2; stroke-linecap: round"/>
   </g>
   <g id="line2d_35">
    <path d="M 343.351843 290.791562 
L 315.513788 286.636697 
" clip-path="url(#pa199eb56a9)" style="fill: none; stroke: #222222; stroke-width: 2; stroke-linecap: round"/>
   </g>
   <g id="line2d_36">
    <path d="M 353.672652 316.977457 
L 343.351843 290.791562 
" clip-path="url(#pa199eb56a9)" style="fill: none; stroke: #222222; stroke-width: 2; stroke-linecap: round"/>
   </g>
   <g id="line2d_37">
    <path d="M 353.672652 316.977457 
L 336.155406 339.008487 
" clip-path="url(#pa199eb56a9)" style="fill: none; stroke: #222222; stroke-width: 2; stroke-linecap: round"/>
   </g>
   <g id="text_1">
    <g id="patch_4">
     <path d="M 289.351353 437.158332 
L 298.497603 437.158332 
L 298.497603 425.416613 
L 289.351353 425.416613 
z
" style="fill: #ffffff"/>
    </g>
    <text style="font-weight: 700; font-size: 12px; font-family: 'Liberation Sans', 'Arimo', 'DejaVu Sans'; text-anchor: middle; fill: #0879c0" x="293.924478" y="434.392941" transform="rotate(-0 293.924478 434.392941)">N</text>
   </g>
   <g id="text_2">
    <g id="patch_5">
     <path d="M 296.54779 388.941407 
L 305.69404 388.941407 
L 305.69404 377.199688 
L 296.54779 377.199688 
z
" style="fill: #ffffff"/>
    </g>
    <text style="font-weight: 700; font-size: 12px; font-family: 'Liberation Sans', 'Arimo', 'DejaVu Sans'; text-anchor: middle; fill: #0879c0" x="301.120915" y="386.176016" transform="rotate(-0 301.120915 386.176016)">N</text>
   </g>
   <g id="text_3">
    <g id="patch_6">
     <path d="M 256.015792 378.979518 
L 263.825167 378.979518 
L 263.825167 367.237799 
L 256.015792 367.237799 
z
" style="fill: #ffffff"/>
    </g>
    <text style="font-weight: 700; font-size: 12px; font-family: 'Liberation Sans', 'Arimo', 'DejaVu Sans'; text-anchor: middle; fill: #00a040" x="259.920479" y="376.214127" transform="rotate(-0 259.920479 376.214127)">F</text>
   </g>
   <g id="text_4">
    <g id="patch_7">
     <path d="M 247.706062 434.655627 
L 255.515437 434.655627 
L 255.515437 422.913908 
L 247.706062 422.913908 
z
" style="fill: #ffffff"/>
    </g>
    <text style="font-weight: 700; font-size: 12px; font-family: 'Liberation Sans', 'Arimo', 'DejaVu Sans'; text-anchor: middle; fill: #00a040" x="251.61075" y="431.890236" transform="rotate(-0 251.61075 431.890236)">F</text>
   </g>
   <g id="text_5">
    <g id="patch_8">
     <path d="M 372.531767 449.622926 
L 382.345517 449.622926 
L 382.345517 437.881207 
L 372.531767 437.881207 
z
" style="fill: #ffffff"/>
    </g>
    <text style="font-weight: 700; font-size: 12px; font-family: 'Liberation Sans', 'Arimo', 'DejaVu Sans'; text-anchor: middle; fill: #d40000" x="377.438642" y="446.857536" transform="rotate(-0 377.438642 446.857536)">O</text>
   </g>
   <g id="text_6">
    <g id="patch_9">
     <path d="M 380.061954 401.406001 
L 389.208204 401.406001 
L 389.208204 389.664282 
L 380.061954 389.664282 
z
" style="fill: #ffffff"/>
    </g>
    <text style="font-weight: 700; font-size: 12px; font-family: 'Liberation Sans', 'Arimo', 'DejaVu Sans'; text-anchor: middle; fill: #0879c0" x="384.635079" y="398.64061" transform="rotate(-0 384.635079 398.64061)">N</text>
   </g>
   <g id="text_7">
    <g id="patch_10">
     <path d="M 471.103492 365.65367 
L 479.587867 365.65367 
L 479.587867 353.911951 
L 471.103492 353.911951 
z
" style="fill: #ffffff"/>
    </g>
    <text style="font-weight: 700; font-size: 12px; font-family: 'Liberation Sans', 'Arimo', 'DejaVu Sans'; text-anchor: middle; fill: #b8860b" x="475.34568" y="362.88828" transform="rotate(-0 475.34568 362.88828)">S</text>
   </g>
   <g id="text_8">
    <g id="patch_11">
     <path d="M 448.407774 348.136424 
L 458.221524 348.136424 
L 458.221524 336.394706 
L 448.407774 336.394706 
z
" style="fill: #ffffff"/>
    </g>
    <text style="font-weight: 700; font-size: 12px; font-family: 'Liberation Sans', 'Arimo', 'DejaVu Sans'; text-anchor: middle; fill: #d40000" x="453.314649" y="345.371034" transform="rotate(-0 453.314649 345.371034)">O</text>
   </g>
   <g id="text_9">
    <g id="patch_12">
     <path d="M 492.469835 383.170916 
L 502.283585 383.170916 
L 502.283585 371.429197 
L 492.469835 371.429197 
z
" style="fill: #ffffff"/>
    </g>
    <text style="font-weight: 700; font-size: 12px; font-family: 'Liberation Sans', 'Arimo', 'DejaVu Sans'; text-anchor: middle; fill: #d40000" x="497.37671" y="380.405525" transform="rotate(-0 497.37671 380.405525)">O</text>
   </g>
   <g id="text_10">
    <g id="patch_13">
     <path d="M 341.56934 371.065241 
L 351.38309 371.065241 
L 351.38309 359.323523 
L 341.56934 359.323523 
z
" style="fill: #ffffff"/>
    </g>
    <text style="font-weight: 700; font-size: 12px; font-family: 'Liberation Sans', 'Arimo', 'DejaVu Sans'; text-anchor: middle; fill: #d40000" x="346.476215" y="368.299851" transform="rotate(-0 346.476215 368.299851)">O</text>
   </g>
   <g id="patch_14">
    <path d="M 598.431598 477.19428 
C 605.778254 477.19428 612.824999 474.275422 618.01987 469.080552 
C 623.21474 463.885681 626.133598 456.838936 626.133598 449.49228 
C 626.133598 442.145624 623.21474 435.098878 618.01987 429.904008 
C 612.824999 424.709137 605.778254 421.79028 598.431598 421.79028 
C 591.084941 421.79028 584.038196 424.709137 578.843326 429.904008 
C 573.648455 435.098878 570.729598 442.145624 570.729598 449.49228 
C 570.729598 456.838936 573.648455 463.885681 578.843326 469.080552 
C 584.038196 474.275422 591.084941 477.19428 598.431598 477.19428 
z
" clip-path="url(#pa199eb56a9)" style="fill: #8bc34a; stroke: #222222; stroke-width: 1.2; stroke-linejoin: miter"/>
   </g>
   <g id="patch_15">
    <path d="M 181.142524 581.076239 
C 188.48918 581.076239 195.535925 578.157381 200.730796 572.962511 
C 205.925666 567.76764 208.844524 560.720895 208.844524 553.374239 
C 208.844524 546.027582 205.925666 538.980837 200.730796 533.785967 
C 195.535925 528.591096 188.48918 525.672239 181.142524 525.672239 
C 173.795867 525.672239 166.749122 528.591096 161.554252 533.785967 
C 156.359381 538.980837 153.440524 546.027582 153.440524 553.374239 
C 153.440524 560.720895 156.359381 567.76764 161.554252 572.962511 
C 166.749122 578.157381 173.795867 581.076239 181.142524 581.076239 
z
" clip-path="url(#pa199eb56a9)" style="fill: #5087c5; stroke: #dc3912; stroke-width: 2.8; stroke-linejoin: miter"/>
   </g>
   <g id="patch_16">
    <path d="M 114.085998 378.483883 
C 121.432654 378.483883 128.4794 375.565025 133.67427 370.370155 
C 138.869141 365.175284 141.787998 358.128539 141.787998 350.781883 
C 141.787998 343.435226 138.869141 336.388481 133.67427 331.193611 
C 128.4794 325.99874 121.432654 323.079883 114.085998 323.079883 
C 106.739342 323.079883 99.692597 325.99874 94.497726 331.193611 
C 89.302856 336.388481 86.383998 343.435226 86.383998 350.781883 
C 86.383998 358.128539 89.302856 365.175284 94.497726 370.370155 
C 99.692597 375.565025 106.739342 378.483883 114.085998 378.483883 
z
" clip-path="url(#pa199eb56a9)" style="fill: #f5a623; stroke: #222222; stroke-width: 1.2; stroke-linejoin: miter"/>
   </g>
   <g id="patch_17">
    <path d="M 427.139102 648.075631 
C 434.485758 648.075631 441.532503 645.156773 446.727374 639.961903 
C 451.922244 634.767032 454.841102 627.720287 454.841102 620.373631 
C 454.841102 613.026974 451.922244 605.980229 446.727374 600.785359 
C 441.532503 595.590488 434.485758 592.671631 427.139102 592.671631 
C 419.792445 592.671631 412.7457 595.590488 407.55083 600.785359 
C 402.355959 605.980229 399.437102 613.026974 399.437102 620.373631 
C 399.437102 627.720287 402.355959 634.767032 407.55083 639.961903 
C 412.7457 645.156773 419.792445 648.075631 427.139102 648.075631 
z
" clip-path="url(#pa199eb56a9)" style="fill: #5087c5; stroke: #222222; stroke-width: 1.2; stroke-linejoin: miter"/>
   </g>
   <g id="text_11">
    <text style="font-weight: 700; font-size: 9.5px; font-family: 'Liberation Sans', 'Arimo', 'DejaVu Sans'; text-anchor: middle; fill: #222222" x="598.431598" y="451.950776" transform="rotate(-0 598.431598 451.950776)">I725</text>
   </g>
   <g id="text_12">
    <text style="font-weight: 700; font-size: 9.5px; font-family: 'Liberation Sans', 'Arimo', 'DejaVu Sans'; text-anchor: middle; fill: #ffffff" x="181.142524" y="555.832735" transform="rotate(-0 181.142524 555.832735)">R727</text>
   </g>
   <g id="text_13">
    <text style="font-weight: 700; font-size: 9.5px; font-family: 'Liberation Sans', 'Arimo', 'DejaVu Sans'; text-anchor: middle; fill: #222222" x="114.085998" y="353.240379" transform="rotate(-0 114.085998 353.240379)">Y849</text>
   </g>
   <g id="text_14">
    <text style="font-weight: 700; font-size: 9.5px; font-family: 'Liberation Sans', 'Arimo', 'DejaVu Sans'; text-anchor: middle; fill: #ffffff" x="427.139102" y="622.832127" transform="rotate(-0 427.139102 622.832127)">R857</text>
   </g>
  </g>
  <g id="patch_18">
   <path d="M 130.640391 714.42 
Q 135.83969 714.42 138.914724 714.42 
" style="fill: none; stroke: #0279ee; stroke-width: 1.9; stroke-linecap: round"/>
   <path d="M 134.114724 712.02 
L 138.914724 714.42 
L 134.114724 716.82 
" style="fill: none; stroke: #0279ee; stroke-width: 1.9; stroke-linecap: round"/>
  </g>
  <g id="patch_19">
   <path d="M 92.16 743.148 
C 93.68757 743.148 95.15278 742.510745 96.232935 741.376582 
C 97.31309 740.242419 97.92 738.703948 97.92 737.1 
C 97.92 735.496052 97.31309 733.957581 96.232935 732.823418 
C 95.15278 731.689255 93.68757 731.052 92.16 731.052 
C 90.63243 731.052 89.16722 731.689255 88.087065 732.823418 
C 87.00691 733.957581 86.4 735.496052 86.4 737.1 
C 86.4 738.703948 87.00691 740.242419 88.087065 741.376582 
C 89.16722 742.510745 90.63243 743.148 92.16 743.148 
z
" style="fill: #5087c5; stroke: #222222; stroke-width: 0.8; stroke-linejoin: miter"/>
  </g>
  <g id="patch_20">
   <path d="M 218.88 743.148 
C 220.40757 743.148 221.87278 742.510745 222.952935 741.376582 
C 224.03309 740.242419 224.64 738.703948 224.64 737.1 
C 224.64 735.496052 224.03309 733.957581 222.952935 732.823418 
C 221.87278 731.689255 220.40757 731.052 218.88 731.052 
C 217.35243 731.052 215.88722 731.689255 214.807065 732.823418 
C 213.72691 733.957581 213.12 735.496052 213.12 737.1 
C 213.12 738.703948 213.72691 740.242419 214.807065 741.376582 
C 215.88722 742.510745 217.35243 743.148 218.88 743.148 
z
" style="fill: #d9584c; stroke: #222222; stroke-width: 0.8; stroke-linejoin: miter"/>
  </g>
  <g id="patch_21">
   <path d="M 345.6 743.148 
C 347.12757 743.148 348.59278 742.510745 349.672935 741.376582 
C 350.75309 740.242419 351.36 738.703948 351.36 737.1 
C 351.36 735.496052 350.75309 733.957581 349.672935 732.823418 
C 348.59278 731.689255 347.12757 731.052 345.6 731.052 
C 344.07243 731.052 342.60722 731.689255 341.527065 732.823418 
C 340.44691 733.957581 339.84 735.496052 339.84 737.1 
C 339.84 738.703948 340.44691 740.242419 341.527065 741.376582 
C 342.60722 742.510745 344.07243 743.148 345.6 743.148 
z
" style="fill: #f5a623; stroke: #222222; stroke-width: 0.8; stroke-linejoin: miter"/>
  </g>
  <g id="patch_22">
   <path d="M 472.32 743.148 
C 473.84757 743.148 475.31278 742.510745 476.392935 741.376582 
C 477.47309 740.242419 478.08 738.703948 478.08 737.1 
C 478.08 735.496052 477.47309 733.957581 476.392935 732.823418 
C 475.31278 731.689255 473.84757 731.052 472.32 731.052 
C 470.79243 731.052 469.32722 731.689255 468.247065 732.823418 
C 467.16691 733.957581 466.56 735.496052 466.56 737.1 
C 466.56 738.703948 467.16691 740.242419 468.247065 741.376582 
C 469.32722 742.510745 470.79243 743.148 472.32 743.148 
z
" style="fill: #8bc34a; stroke: #222222; stroke-width: 0.8; stroke-linejoin: miter"/>
  </g>
  <g id="patch_23">
   <path d="M 599.04 743.148 
C 600.56757 743.148 602.03278 742.510745 603.112935 741.376582 
C 604.19309 740.242419 604.8 738.703948 604.8 737.1 
C 604.8 735.496052 604.19309 733.957581 603.112935 732.823418 
C 602.03278 731.689255 600.56757 731.052 599.04 731.052 
C 597.51243 731.052 596.04722 731.689255 594.967065 732.823418 
C 593.88691 733.957581 593.28 735.496052 593.28 737.1 
C 593.28 738.703948 593.88691 740.242419 594.967065 741.376582 
C 596.04722 742.510745 597.51243 743.148 599.04 743.148 
z
" style="fill: #ffffff; stroke: #dc3912; stroke-width: 2.5; stroke-linejoin: miter"/>
  </g>
  <g id="line2d_38">
   <path d="M 339.84 714.42 
L 354.24 714.42 
" style="fill: none; stroke: #75a025; stroke-opacity: 0.4; stroke-width: 4; stroke-linecap: square"/>
  </g>
  <g id="line2d_39">
   <path d="M 551.04 714.42 
L 565.44 714.42 
" style="fill: none; stroke: #8b4513; stroke-width: 2.2; stroke-linecap: square"/>
  </g>
  <g id="text_15">
   <text style="font-weight: 700; font-size: 14px; font-family: 'Liberation Sans', 'Arimo', 'DejaVu Sans'; text-anchor: middle" x="360" y="21.532383" transform="rotate(-0 360 21.532383)">C727R × 9S18 · VVD-214 — RESISTANCE</text>
  </g>
  <g id="text_16">
   <text style="font-size: 10.5px; font-family: 'Liberation Sans', 'Arimo', 'DejaVu Sans'; text-anchor: middle" x="360" y="41.66925" transform="rotate(-0 360 41.66925)">ΔS = +0.52  |  RMSD vs WT = 5.89 Å  |  1 lost / 2 retained / 2 gained</text>
  </g>
  <g id="text_17">
   <text style="font-size: 10.5px; font-family: 'Liberation Sans', 'Arimo', 'DejaVu Sans'; text-anchor: middle" x="360" y="61.320287" transform="rotate(-0 360 61.320287)">PLIP: 4 hydrophobic · 2 H-bond · 1 halogen</text>
  </g>
  <g id="text_18">
   <text style="font-size: 8.5px; font-family: 'Liberation Sans', 'Arimo', 'DejaVu Sans'; text-anchor: start" x="146.64" y="716.619707" transform="rotate(-0 146.64 716.619707)">H-bond</text>
  </g>
  <g id="text_19">
   <text style="font-size: 8.5px; font-family: 'Liberation Sans', 'Arimo', 'DejaVu Sans'; text-anchor: start" x="357.84" y="716.619707" transform="rotate(-0 357.84 716.619707)">Hydrophobic</text>
  </g>
  <g id="text_20">
   <text style="font-size: 8.5px; font-family: 'Liberation Sans', 'Arimo', 'DejaVu Sans'; text-anchor: start" x="569.04" y="716.619707" transform="rotate(-0 569.04 716.619707)">Halogen</text>
  </g>
  <g id="text_21">
   <text style="font-size: 8px; font-family: 'Liberation Sans', 'Arimo', 'DejaVu Sans'; text-anchor: start" x="100.8" y="739.170313" transform="rotate(-0 100.8 739.170313)">Basic</text>
  </g>
  <g id="text_22">
   <text style="font-size: 8px; font-family: 'Liberation Sans', 'Arimo', 'DejaVu Sans'; text-anchor: start" x="227.52" y="739.170313" transform="rotate(-0 227.52 739.170313)">Acidic</text>
  </g>
  <g id="text_23">
   <text style="font-size: 8px; font-family: 'Liberation Sans', 'Arimo', 'DejaVu Sans'; text-anchor: start" x="354.24" y="739.170313" transform="rotate(-0 354.24 739.170313)">Polar</text>
  </g>
  <g id="text_24">
   <text style="font-size: 8px; font-family: 'Liberation Sans', 'Arimo', 'DejaVu Sans'; text-anchor: start" x="480.96" y="739.170313" transform="rotate(-0 480.96 739.170313)">Hydrophobic</text>
  </g>
  <g id="text_25">
   <text style="font-size: 8px; font-family: 'Liberation Sans', 'Arimo', 'DejaVu Sans'; text-anchor: start" x="607.68" y="739.170313" transform="rotate(-0 607.68 739.170313)">Mutation site</text>
  </g>
 </g>
 <defs>
  <clipPath id="pa199eb56a9">
   <rect x="53.82" y="75.6" width="612.36" height="612.36"/>
  </clipPath>
 </defs>
</svg>
