<?xml version="1.0" encoding="utf-8" standalone="no"?>
<!DOCTYPE svg PUBLIC "-//W3C//DTD SVG 1.1//EN"
  "http://www.w3.org/Graphics/SVG/1.1/DTD/svg11.dtd">
<svg xmlns:xlink="http://www.w3.org/1999/xlink" width="720pt" height="756pt" viewBox="0 0 720 756" xmlns="http://www.w3.org/2000/svg" version="1.1">
 <metadata>
  <rdf:RDF xmlns:dc="http://purl.org/dc/elements/1.1/" xmlns:cc="http://creativecommons.org/ns#" xmlns:rdf="http://www.w3.org/1999/02/22-rdf-syntax-ns#">
   <cc:Work>
    <dc:type rdf:resource="http://purl.org/dc/dcmitype/StillImage"/>
    <dc:date>2022-01-01T05:00:00+00:00</dc:date>
    <dc:format>image/svg+xml</dc:format>
    <dc:creator>
     <cc:Agent>
      <dc:title>Matplotlib v3.11.0, https://matplotlib.org/</dc:title>
     </cc:Agent>
    </dc:creator>
   </cc:Work>
  </rdf:RDF>
 </metadata>
 <defs>
  <style type="text/css">*{stroke-linejoin: round; stroke-linecap: butt}</style>
 </defs>
 <g id="figure_1">
  <g id="patch_1">
   <path d="M 0 756 
L 720 756 
L 720 0 
L 0 0 
z
" style="fill: #ffffff"/>
  </g>
  <g id="axes_1">
   <g id="line2d_1">
    <path d="M 90.638315 442.900064 
L 98.027208 437.843875 
L 105.458292 432.875737 
L 112.931565 427.995649 
L 120.447029 423.203611 
L 128.004682 418.499624 
L 135.604526 413.883686 
L 143.24656 409.3558 
L 150.930785 404.915963 
L 158.657199 400.564176 
L 166.425804 396.30044 
L 174.236599 392.124754 
L 182.089584 388.037119 
L 189.984759 384.037534 
L 197.922124 380.125999 
L 205.90168 376.302514 
L 213.923425 372.567079 
L 221.987361 368.919695 
L 230.093487 365.360361 
L 238.241804 361.889077 
L 246.43231 358.505844 
L 254.665007 355.210661 
L 262.939894 352.003528 
L 271.25697 348.884445 
L 279.616238 345.853413 
L 288.017695 342.910431 
L 296.461342 340.055499 
L 304.94718 337.288617 
L 313.475208 334.609786 
L 322.045426 332.019005 
" clip-path="url(#pe62f97a9b4)" style="fill: none; stroke: #75a025; stroke-opacity: 0.4; stroke-width: 4; stroke-linecap: round"/>
   </g>
   <g id="line2d_2">
    <path d="M 88.600296 423.412563 
L 96.825194 426.809845 
L 105.073013 430.112828 
L 113.343751 433.321512 
L 121.637409 436.435899 
L 129.953986 439.455987 
L 138.293484 442.381777 
L 146.655901 445.213269 
L 155.041238 447.950463 
L 163.449495 450.593359 
L 171.880672 453.141956 
L 180.334768 455.596255 
L 188.811785 457.956256 
L 197.311721 460.221958 
L 205.834577 462.393363 
L 214.380352 464.470469 
L 222.949048 466.453277 
L 231.540663 468.341787 
L 240.155198 470.135998 
L 248.792653 471.835912 
L 257.453027 473.441527 
L 266.136322 474.952844 
L 274.842536 476.369863 
L 283.57167 477.692583 
L 292.323724 478.921005 
L 301.098697 480.055129 
L 309.896591 481.094955 
L 318.717404 482.040483 
L 327.561137 482.891712 
L 336.42779 483.648644 
" clip-path="url(#pe62f97a9b4)" style="fill: none; stroke: #75a025; stroke-opacity: 0.4; stroke-width: 4; stroke-linecap: round"/>
   </g>
   <g id="line2d_3">
    <path d="M 124.788741 235.66086 
L 130.884608 237.665785 
L 136.948719 239.73307 
L 142.981072 241.862713 
L 148.981669 244.054716 
L 154.95051 246.309077 
L 160.887593 248.625797 
L 166.79292 251.004876 
L 172.66649 253.446313 
L 178.508304 255.95011 
L 184.318361 258.516266 
L 190.096661 261.14478 
L 195.843204 263.835653 
L 201.557991 266.588885 
L 207.241021 269.404477 
L 212.892295 272.282426 
L 218.511811 275.222735 
L 224.099571 278.225403 
L 229.655575 281.290429 
L 235.179821 284.417815 
L 240.672311 287.607559 
L 246.133045 290.859662 
L 251.562021 294.174125 
L 256.959241 297.550945 
L 262.324704 300.990125 
L 267.658411 304.491664 
L 272.96036 308.055562 
L 278.230554 311.681818 
L 283.46899 315.370433 
L 288.67567 319.121408 
" clip-path="url(#pe62f97a9b4)" style="fill: none; stroke: #75a025; stroke-opacity: 0.4; stroke-width: 4; stroke-linecap: round"/>
   </g>
   <g id="patch_2">
    <path d="M 148.014138 432.537622 
Q 242.253161 439.323952 334.829822 445.990572 
" clip-path="url(#pe62f97a9b4)" style="fill: none; stroke: #0279ee; stroke-width: 2; stroke-linecap: round"/>
    <path d="M 327.28144 439.431462 
L 334.829822 445.990572 
L 326.419529 451.400468 
" clip-path="url(#pe62f97a9b4)" style="fill: none; stroke: #0279ee; stroke-width: 2; stroke-linecap: round"/>
   </g>
   <g id="patch_3">
    <path d="M 529.881904 516.622967 
Q 462.595792 475.248969 396.72942 434.747963 
" clip-path="url(#pe62f97a9b4)" style="fill: none; stroke: #0279ee; stroke-width: 2; stroke-linecap: round"/>
    <path d="M 400.401396 444.049393 
L 396.72942 434.747963 
L 406.686946 433.827267 
" clip-path="url(#pe62f97a9b4)" style="fill: none; stroke: #0279ee; stroke-width: 2; stroke-linecap: round"/>
   </g>
   <g id="patch_4">
    <path d="M 529.881904 516.622967 
Q 462.595792 475.248969 396.72942 434.747963 
" clip-path="url(#pe62f97a9b4)" style="fill: none; stroke: #0279ee; stroke-width: 2; stroke-linecap: round"/>
    <path d="M 400.401396 444.049393 
L 396.72942 434.747963 
L 406.686946 433.827267 
" clip-path="url(#pe62f97a9b4)" style="fill: none; stroke: #0279ee; stroke-width: 2; stroke-linecap: round"/>
   </g>
   <g id="patch_5">
    <path d="M 235.37301 559.06352 
Q 275.111632 500.759528 313.911586 443.832736 
" clip-path="url(#pe62f97a9b4)" style="fill: none; stroke: #0279ee; stroke-width: 2; stroke-linecap: round"/>
    <path d="M 304.448061 447.064097 
L 313.911586 443.832736 
L 314.363905 453.822501 
" clip-path="url(#pe62f97a9b4)" style="fill: none; stroke: #0279ee; stroke-width: 2; stroke-linecap: round"/>
   </g>
   <g id="patch_6">
    <path d="M 378.925643 601.781952 
Q 344.501013 555.503417 311.071119 510.562148 
" clip-path="url(#pe62f97a9b4)" style="fill: none; stroke: #0279ee; stroke-width: 2; stroke-linecap: round"/>
    <path d="M 311.03169 520.56207 
L 311.071119 510.562148 
L 320.660004 513.399978 
" clip-path="url(#pe62f97a9b4)" style="fill: none; stroke: #0279ee; stroke-width: 2; stroke-linecap: round"/>
   </g>
   <g id="patch_7">
    <path d="M 475.986206 335.556196 
Q 518.643697 318.555971 559.752943 302.172767 
" clip-path="url(#pe62f97a9b4)" style="fill: none; stroke: #0279ee; stroke-width: 2; stroke-linecap: round"/>
    <path d="M 550.100093 299.560778 
L 559.752943 302.172767 
L 554.542636 310.708146 
" clip-path="url(#pe62f97a9b4)" style="fill: none; stroke: #0279ee; stroke-width: 2; stroke-linecap: round"/>
   </g>
   <g id="line2d_4">
    <path d="M 300.520636 170.304381 
L 300.157919 315.301004 
" clip-path="url(#pe62f97a9b4)" style="fill: none; stroke-dasharray: 9.6,7.2; stroke-dashoffset: 0; stroke: #fd9bed; stroke-width: 2.4"/>
   </g>
   <g id="line2d_5">
    <path d="M 367.756447 399.512557 
L 351.102814 390.480428 
" clip-path="url(#pe62f97a9b4)" style="fill: none; stroke: #222222; stroke-width: 2; stroke-linecap: round"/>
   </g>
   <g id="line2d_6">
    <path d="M 368.26121 418.451091 
L 367.756447 399.512557 
" clip-path="url(#pe62f97a9b4)" style="fill: none; stroke: #222222; stroke-width: 2; stroke-linecap: round"/>
   </g>
   <g id="line2d_7">
    <path d="M 384.914843 427.48322 
L 368.26121 418.451091 
" clip-path="url(#pe62f97a9b4)" style="fill: none; stroke: #222222; stroke-width: 2; stroke-linecap: round"/>
   </g>
   <g id="line2d_8">
    <path d="M 352.11234 428.357496 
L 368.26121 418.451091 
" clip-path="url(#pe62f97a9b4)" style="fill: none; stroke: #222222; stroke-width: 2; stroke-linecap: round"/>
   </g>
   <g id="line2d_9">
    <path d="M 348.66853 446.987124 
L 352.11234 428.357496 
" clip-path="url(#pe62f97a9b4)" style="fill: none; stroke: #222222; stroke-width: 2; stroke-linecap: round"/>
   </g>
   <g id="line2d_10">
    <path d="M 329.886506 449.468737 
L 348.66853 446.987124 
" clip-path="url(#pe62f97a9b4)" style="fill: none; stroke: #222222; stroke-width: 2; stroke-linecap: round"/>
   </g>
   <g id="line2d_11">
    <path d="M 321.722386 432.372831 
L 329.886506 449.468737 
" clip-path="url(#pe62f97a9b4)" style="fill: none; stroke: #222222; stroke-width: 2; stroke-linecap: round"/>
   </g>
   <g id="line2d_12">
    <path d="M 335.458707 419.325367 
L 321.722386 432.372831 
" clip-path="url(#pe62f97a9b4)" style="fill: none; stroke: #222222; stroke-width: 2; stroke-linecap: round"/>
   </g>
   <g id="line2d_13">
    <path d="M 335.458707 419.325367 
L 352.11234 428.357496 
" clip-path="url(#pe62f97a9b4)" style="fill: none; stroke: #222222; stroke-width: 2; stroke-linecap: round"/>
   </g>
   <g id="line2d_14">
    <path d="M 334.953944 400.386833 
L 351.102814 390.480428 
" clip-path="url(#pe62f97a9b4)" style="fill: none; stroke: #222222; stroke-width: 2; stroke-linecap: round"/>
   </g>
   <g id="line2d_15">
    <path d="M 334.953944 400.386833 
L 335.458707 419.325367 
" clip-path="url(#pe62f97a9b4)" style="fill: none; stroke: #222222; stroke-width: 2; stroke-linecap: round"/>
   </g>
   <g id="line2d_16">
    <path d="M 383.905317 389.606153 
L 367.756447 399.512557 
" clip-path="url(#pe62f97a9b4)" style="fill: none; stroke: #222222; stroke-width: 2; stroke-linecap: round"/>
   </g>
   <g id="line2d_17">
    <path d="M 400.55895 398.638282 
L 383.905317 389.606153 
" clip-path="url(#pe62f97a9b4)" style="fill: none; stroke: #222222; stroke-width: 2; stroke-linecap: round"/>
   </g>
   <g id="line2d_18">
    <path d="M 416.70782 388.731877 
L 400.55895 398.638282 
" clip-path="url(#pe62f97a9b4)" style="fill: none; stroke: #222222; stroke-width: 2; stroke-linecap: round"/>
   </g>
   <g id="line2d_19">
    <path d="M 416.203057 369.793343 
L 416.70782 388.731877 
" clip-path="url(#pe62f97a9b4)" style="fill: none; stroke: #222222; stroke-width: 2; stroke-linecap: round"/>
   </g>
   <g id="line2d_20">
    <path d="M 432.351926 359.886939 
L 416.203057 369.793343 
" clip-path="url(#pe62f97a9b4)" style="fill: none; stroke: #222222; stroke-width: 2; stroke-linecap: round"/>
   </g>
   <g id="line2d_21">
    <path d="M 431.847163 340.948405 
L 432.351926 359.886939 
" clip-path="url(#pe62f97a9b4)" style="fill: none; stroke: #222222; stroke-width: 2; stroke-linecap: round"/>
   </g>
   <g id="line2d_22">
    <path d="M 399.549424 360.761214 
L 416.203057 369.793343 
" clip-path="url(#pe62f97a9b4)" style="fill: none; stroke: #222222; stroke-width: 2; stroke-linecap: round"/>
   </g>
   <g id="line2d_23">
    <path d="M 383.400554 370.667619 
L 399.549424 360.761214 
" clip-path="url(#pe62f97a9b4)" style="fill: none; stroke: #222222; stroke-width: 2; stroke-linecap: round"/>
   </g>
   <g id="line2d_24">
    <path d="M 383.400554 370.667619 
L 383.905317 389.606153 
" clip-path="url(#pe62f97a9b4)" style="fill: none; stroke: #222222; stroke-width: 2; stroke-linecap: round"/>
   </g>
   <g id="line2d_25">
    <path d="M 449.00556 368.919068 
L 432.351926 359.886939 
" clip-path="url(#pe62f97a9b4)" style="fill: none; stroke: #222222; stroke-width: 2; stroke-linecap: round"/>
   </g>
   <g id="line2d_26">
    <path d="M 449.510323 387.857602 
L 449.00556 368.919068 
" clip-path="url(#pe62f97a9b4)" style="fill: none; stroke: #222222; stroke-width: 2; stroke-linecap: round"/>
   </g>
   <g id="line2d_27">
    <path d="M 466.163956 396.889731 
L 449.510323 387.857602 
" clip-path="url(#pe62f97a9b4)" style="fill: none; stroke: #222222; stroke-width: 2; stroke-linecap: round"/>
   </g>
   <g id="line2d_28">
    <path d="M 482.312826 386.983326 
L 466.163956 396.889731 
" clip-path="url(#pe62f97a9b4)" style="fill: none; stroke: #222222; stroke-width: 2; stroke-linecap: round"/>
   </g>
   <g id="line2d_29">
    <path d="M 481.808063 368.044793 
L 482.312826 386.983326 
" clip-path="url(#pe62f97a9b4)" style="fill: none; stroke: #222222; stroke-width: 2; stroke-linecap: round"/>
   </g>
   <g id="line2d_30">
    <path d="M 497.956932 358.138388 
L 481.808063 368.044793 
" clip-path="url(#pe62f97a9b4)" style="fill: none; stroke: #222222; stroke-width: 2; stroke-linecap: round"/>
   </g>
   <g id="line2d_31">
    <path d="M 465.154429 359.012663 
L 481.808063 368.044793 
" clip-path="url(#pe62f97a9b4)" style="fill: none; stroke: #222222; stroke-width: 2; stroke-linecap: round"/>
   </g>
   <g id="line2d_32">
    <path d="M 465.154429 359.012663 
L 449.00556 368.919068 
" clip-path="url(#pe62f97a9b4)" style="fill: none; stroke: #222222; stroke-width: 2; stroke-linecap: round"/>
   </g>
   <g id="line2d_33">
    <path d="M 464.649666 340.074129 
L 465.154429 359.012663 
" clip-path="url(#pe62f97a9b4)" style="fill: none; stroke: #222222; stroke-width: 2; stroke-linecap: round"/>
   </g>
   <g id="line2d_34">
    <path d="M 320.854376 466.12237 
L 329.886506 449.468737 
" clip-path="url(#pe62f97a9b4)" style="fill: none; stroke: #222222; stroke-width: 2; stroke-linecap: round"/>
   </g>
   <g id="line2d_35">
    <path d="M 301.915843 466.627134 
L 320.854376 466.12237 
" clip-path="url(#pe62f97a9b4)" style="fill: none; stroke: #222222; stroke-width: 2; stroke-linecap: round"/>
   </g>
   <g id="line2d_36">
    <path d="M 292.883713 483.280767 
L 301.915843 466.627134 
" clip-path="url(#pe62f97a9b4)" style="fill: none; stroke: #222222; stroke-width: 2; stroke-linecap: round"/>
   </g>
   <g id="line2d_37">
    <path d="M 302.790118 499.429637 
L 292.883713 483.280767 
" clip-path="url(#pe62f97a9b4)" style="fill: none; stroke: #222222; stroke-width: 2; stroke-linecap: round"/>
   </g>
   <g id="line2d_38">
    <path d="M 321.728652 498.924873 
L 302.790118 499.429637 
" clip-path="url(#pe62f97a9b4)" style="fill: none; stroke: #222222; stroke-width: 2; stroke-linecap: round"/>
   </g>
   <g id="line2d_39">
    <path d="M 330.760781 482.27124 
L 320.854376 466.12237 
" clip-path="url(#pe62f97a9b4)" style="fill: none; stroke: #222222; stroke-width: 2; stroke-linecap: round"/>
   </g>
   <g id="line2d_40">
    <path d="M 330.760781 482.27124 
L 321.728652 498.924873 
" clip-path="url(#pe62f97a9b4)" style="fill: none; stroke: #222222; stroke-width: 2; stroke-linecap: round"/>
   </g>
   <g id="line2d_41">
    <path d="M 350.598051 371.541894 
L 366.746921 361.635489 
" clip-path="url(#pe62f97a9b4)" style="fill: none; stroke: #222222; stroke-width: 2; stroke-linecap: round"/>
   </g>
   <g id="line2d_42">
    <path d="M 350.598051 371.541894 
L 351.102814 390.480428 
" clip-path="url(#pe62f97a9b4)" style="fill: none; stroke: #222222; stroke-width: 2; stroke-linecap: round"/>
   </g>
   <g id="line2d_43">
    <path d="M 318.300311 391.354703 
L 334.953944 400.386833 
" clip-path="url(#pe62f97a9b4)" style="fill: none; stroke: #222222; stroke-width: 2; stroke-linecap: round"/>
   </g>
   <g id="line2d_44">
    <path d="M 317.795548 372.41617 
L 318.300311 391.354703 
" clip-path="url(#pe62f97a9b4)" style="fill: none; stroke: #222222; stroke-width: 2; stroke-linecap: round"/>
   </g>
   <g id="line2d_45">
    <path d="M 333.944418 362.509765 
L 317.795548 372.41617 
" clip-path="url(#pe62f97a9b4)" style="fill: none; stroke: #222222; stroke-width: 2; stroke-linecap: round"/>
   </g>
   <g id="line2d_46">
    <path d="M 301.141915 363.38404 
L 317.795548 372.41617 
" clip-path="url(#pe62f97a9b4)" style="fill: none; stroke: #222222; stroke-width: 2; stroke-linecap: round"/>
   </g>
   <g id="line2d_47">
    <path d="M 300.637152 344.445506 
L 301.141915 363.38404 
" clip-path="url(#pe62f97a9b4)" style="fill: none; stroke: #222222; stroke-width: 2; stroke-linecap: round"/>
   </g>
   <g id="line2d_48">
    <path d="M 316.786021 334.539102 
L 300.637152 344.445506 
" clip-path="url(#pe62f97a9b4)" style="fill: none; stroke: #222222; stroke-width: 2; stroke-linecap: round"/>
   </g>
   <g id="line2d_49">
    <path d="M 316.281258 315.600568 
L 316.786021 334.539102 
" clip-path="url(#pe62f97a9b4)" style="fill: none; stroke: #222222; stroke-width: 2; stroke-linecap: round"/>
   </g>
   <g id="line2d_50">
    <path d="M 299.627625 306.568439 
L 316.281258 315.600568 
" clip-path="url(#pe62f97a9b4)" style="fill: none; stroke: #222222; stroke-width: 2; stroke-linecap: round"/>
   </g>
   <g id="line2d_51">
    <path d="M 283.478755 316.474843 
L 299.627625 306.568439 
" clip-path="url(#pe62f97a9b4)" style="fill: none; stroke: #222222; stroke-width: 2; stroke-linecap: round"/>
   </g>
   <g id="line2d_52">
    <path d="M 283.983518 335.413377 
L 283.478755 316.474843 
" clip-path="url(#pe62f97a9b4)" style="fill: none; stroke: #222222; stroke-width: 2; stroke-linecap: round"/>
   </g>
   <g id="line2d_53">
    <path d="M 283.983518 335.413377 
L 300.637152 344.445506 
" clip-path="url(#pe62f97a9b4)" style="fill: none; stroke: #222222; stroke-width: 2; stroke-linecap: round"/>
   </g>
   <g id="line2d_54">
    <path d="M 267.834649 345.319782 
L 283.983518 335.413377 
" clip-path="url(#pe62f97a9b4)" style="fill: none; stroke: #222222; stroke-width: 2; stroke-linecap: round"/>
   </g>
   <g id="line2d_55">
    <path d="M 299.122862 287.629905 
L 299.627625 306.568439 
" clip-path="url(#pe62f97a9b4)" style="fill: none; stroke: #222222; stroke-width: 2; stroke-linecap: round"/>
   </g>
   <g id="line2d_56">
    <path d="M 298.618099 268.691371 
L 299.122862 287.629905 
" clip-path="url(#pe62f97a9b4)" style="fill: none; stroke: #222222; stroke-width: 2; stroke-linecap: round"/>
   </g>
   <g id="line2d_57">
    <path d="M 318.061396 287.125141 
L 299.122862 287.629905 
" clip-path="url(#pe62f97a9b4)" style="fill: none; stroke: #222222; stroke-width: 2; stroke-linecap: round"/>
   </g>
   <g id="line2d_58">
    <path d="M 280.184328 288.134668 
L 299.122862 287.629905 
" clip-path="url(#pe62f97a9b4)" style="fill: none; stroke: #222222; stroke-width: 2; stroke-linecap: round"/>
   </g>
   <g id="text_1">
    <g id="patch_8">
     <path d="M 380.007968 433.35408 
L 389.821718 433.35408 
L 389.821718 421.612361 
L 380.007968 421.612361 
z
" style="fill: #ffffff"/>
    </g>
    <text style="font-weight: 700; font-size: 12px; font-family: 'Liberation Sans', 'Arimo', 'DejaVu Sans'; text-anchor: middle; fill: #d40000" x="384.914843" y="430.588689" transform="rotate(-0 384.914843 430.588689)">O</text>
   </g>
   <g id="text_2">
    <g id="patch_9">
     <path d="M 347.539215 434.228355 
L 356.685465 434.228355 
L 356.685465 422.486637 
L 347.539215 422.486637 
z
" style="fill: #ffffff"/>
    </g>
    <text style="font-weight: 700; font-size: 12px; font-family: 'Liberation Sans', 'Arimo', 'DejaVu Sans'; text-anchor: middle; fill: #0879c0" x="352.11234" y="431.462965" transform="rotate(-0 352.11234 431.462965)">N</text>
   </g>
   <g id="text_3">
    <g id="patch_10">
     <path d="M 344.095405 452.857983 
L 353.241655 452.857983 
L 353.241655 441.116264 
L 344.095405 441.116264 
z
" style="fill: #ffffff"/>
    </g>
    <text style="font-weight: 700; font-size: 12px; font-family: 'Liberation Sans', 'Arimo', 'DejaVu Sans'; text-anchor: middle; fill: #0879c0" x="348.66853" y="450.092592" transform="rotate(-0 348.66853 450.092592)">N</text>
   </g>
   <g id="text_4">
    <g id="patch_11">
     <path d="M 317.149261 438.243691 
L 326.295511 438.243691 
L 326.295511 426.501972 
L 317.149261 426.501972 
z
" style="fill: #ffffff"/>
    </g>
    <text style="font-weight: 700; font-size: 12px; font-family: 'Liberation Sans', 'Arimo', 'DejaVu Sans'; text-anchor: middle; fill: #0879c0" x="321.722386" y="435.4783" transform="rotate(-0 321.722386 435.4783)">N</text>
   </g>
   <g id="text_5">
    <g id="patch_12">
     <path d="M 330.380819 406.257692 
L 339.527069 406.257692 
L 339.527069 394.515973 
L 330.380819 394.515973 
z
" style="fill: #ffffff"/>
    </g>
    <text style="font-weight: 700; font-size: 12px; font-family: 'Liberation Sans', 'Arimo', 'DejaVu Sans'; text-anchor: middle; fill: #0879c0" x="334.953944" y="403.492301" transform="rotate(-0 334.953944 403.492301)">N</text>
   </g>
   <g id="text_6">
    <g id="patch_13">
     <path d="M 379.332192 395.477012 
L 388.478442 395.477012 
L 388.478442 383.735293 
L 379.332192 383.735293 
z
" style="fill: #ffffff"/>
    </g>
    <text style="font-weight: 700; font-size: 12px; font-family: 'Liberation Sans', 'Arimo', 'DejaVu Sans'; text-anchor: middle; fill: #0879c0" x="383.905317" y="392.711621" transform="rotate(-0 383.905317 392.711621)">N</text>
   </g>
   <g id="text_7">
    <g id="patch_14">
     <path d="M 411.629932 375.664203 
L 420.776182 375.664203 
L 420.776182 363.922484 
L 411.629932 363.922484 
z
" style="fill: #ffffff"/>
    </g>
    <text style="font-weight: 700; font-size: 12px; font-family: 'Liberation Sans', 'Arimo', 'DejaVu Sans'; text-anchor: middle; fill: #0879c0" x="416.203057" y="372.898812" transform="rotate(-0 416.203057 372.898812)">N</text>
   </g>
   <g id="text_8">
    <g id="patch_15">
     <path d="M 426.940288 346.819264 
L 436.754038 346.819264 
L 436.754038 335.077545 
L 426.940288 335.077545 
z
" style="fill: #ffffff"/>
    </g>
    <text style="font-weight: 700; font-size: 12px; font-family: 'Liberation Sans', 'Arimo', 'DejaVu Sans'; text-anchor: middle; fill: #d40000" x="431.847163" y="344.053874" transform="rotate(-0 431.847163 344.053874)">O</text>
   </g>
   <g id="text_9">
    <g id="patch_16">
     <path d="M 444.937198 393.728461 
L 454.083448 393.728461 
L 454.083448 381.986742 
L 444.937198 381.986742 
z
" style="fill: #ffffff"/>
    </g>
    <text style="font-weight: 700; font-size: 12px; font-family: 'Liberation Sans', 'Arimo', 'DejaVu Sans'; text-anchor: middle; fill: #0879c0" x="449.510323" y="390.963071" transform="rotate(-0 449.510323 390.963071)">N</text>
   </g>
   <g id="text_10">
    <g id="patch_17">
     <path d="M 477.739701 392.854186 
L 486.885951 392.854186 
L 486.885951 381.112467 
L 477.739701 381.112467 
z
" style="fill: #ffffff"/>
    </g>
    <text style="font-weight: 700; font-size: 12px; font-family: 'Liberation Sans', 'Arimo', 'DejaVu Sans'; text-anchor: middle; fill: #0879c0" x="482.312826" y="390.088795" transform="rotate(-0 482.312826 390.088795)">N</text>
   </g>
   <g id="text_11">
    <g id="patch_18">
     <path d="M 459.742791 345.944989 
L 469.556541 345.944989 
L 469.556541 334.20327 
L 459.742791 334.20327 
z
" style="fill: #ffffff"/>
    </g>
    <text style="font-weight: 700; font-size: 12px; font-family: 'Liberation Sans', 'Arimo', 'DejaVu Sans'; text-anchor: middle; fill: #d40000" x="464.649666" y="343.179598" transform="rotate(-0 464.649666 343.179598)">O</text>
   </g>
   <g id="text_12">
    <g id="patch_19">
     <path d="M 297.883243 505.300496 
L 307.696993 505.300496 
L 307.696993 493.558777 
L 297.883243 493.558777 
z
" style="fill: #ffffff"/>
    </g>
    <text style="font-weight: 700; font-size: 12px; font-family: 'Liberation Sans', 'Arimo', 'DejaVu Sans'; text-anchor: middle; fill: #d40000" x="302.790118" y="502.535105" transform="rotate(-0 302.790118 502.535105)">O</text>
   </g>
   <g id="text_13">
    <g id="patch_20">
     <path d="M 329.037543 368.380624 
L 338.851293 368.380624 
L 338.851293 356.638905 
L 329.037543 356.638905 
z
" style="fill: #ffffff"/>
    </g>
    <text style="font-weight: 700; font-size: 12px; font-family: 'Liberation Sans', 'Arimo', 'DejaVu Sans'; text-anchor: middle; fill: #d40000" x="333.944418" y="365.615234" transform="rotate(-0 333.944418 365.615234)">O</text>
   </g>
   <g id="text_14">
    <g id="patch_21">
     <path d="M 296.56879 369.2549 
L 305.71504 369.2549 
L 305.71504 357.513181 
L 296.56879 357.513181 
z
" style="fill: #ffffff"/>
    </g>
    <text style="font-weight: 700; font-size: 12px; font-family: 'Liberation Sans', 'Arimo', 'DejaVu Sans'; text-anchor: middle; fill: #0879c0" x="301.141915" y="366.489509" transform="rotate(-0 301.141915 366.489509)">N</text>
   </g>
   <g id="text_15">
    <g id="patch_22">
     <path d="M 261.594649 351.190641 
L 274.074649 351.190641 
L 274.074649 339.448922 
L 261.594649 339.448922 
z
" style="fill: #ffffff"/>
    </g>
    <text style="font-weight: 700; font-size: 12px; font-family: 'Liberation Sans', 'Arimo', 'DejaVu Sans'; text-anchor: middle; fill: #00a040" x="267.834649" y="348.42525" transform="rotate(-0 267.834649 348.42525)">Cl</text>
   </g>
   <g id="text_16">
    <g id="patch_23">
     <path d="M 294.713411 274.56223 
L 302.522786 274.56223 
L 302.522786 262.820511 
L 294.713411 262.820511 
z
" style="fill: #ffffff"/>
    </g>
    <text style="font-weight: 700; font-size: 12px; font-family: 'Liberation Sans', 'Arimo', 'DejaVu Sans'; text-anchor: middle; fill: #00a040" x="298.618099" y="271.796839" transform="rotate(-0 298.618099 271.796839)">F</text>
   </g>
   <g id="text_17">
    <g id="patch_24">
     <path d="M 314.156709 292.996001 
L 321.966084 292.996001 
L 321.966084 281.254282 
L 314.156709 281.254282 
z
" style="fill: #ffffff"/>
    </g>
    <text style="font-weight: 700; font-size: 12px; font-family: 'Liberation Sans', 'Arimo', 'DejaVu Sans'; text-anchor: middle; fill: #00a040" x="318.061396" y="290.23061" transform="rotate(-0 318.061396 290.23061)">F</text>
   </g>
   <g id="text_18">
    <g id="patch_25">
     <path d="M 276.279641 294.005527 
L 284.089016 294.005527 
L 284.089016 282.263808 
L 276.279641 282.263808 
z
" style="fill: #ffffff"/>
    </g>
    <text style="font-weight: 700; font-size: 12px; font-family: 'Liberation Sans', 'Arimo', 'DejaVu Sans'; text-anchor: middle; fill: #00a040" x="280.184328" y="291.240136" transform="rotate(-0 280.184328 291.240136)">F</text>
   </g>
   <g id="patch_26">
    <path d="M 116.935338 458.001579 
C 124.281994 458.001579 131.328739 455.082722 136.52361 449.887851 
C 141.71848 444.692981 144.637338 437.646236 144.637338 430.299579 
C 144.637338 422.952923 141.71848 415.906178 136.52361 410.711307 
C 131.328739 405.516437 124.281994 402.597579 116.935338 402.597579 
C 109.588681 402.597579 102.541936 405.516437 97.347066 410.711307 
C 92.152195 415.906178 89.233338 422.952923 89.233338 430.299579 
C 89.233338 437.646236 92.152195 444.692981 97.347066 449.887851 
C 102.541936 455.082722 109.588681 458.001579 116.935338 458.001579 
z
" clip-path="url(#pe62f97a9b4)" style="fill: #8bc34a; stroke: #222222; stroke-width: 1.2; stroke-linejoin: miter"/>
   </g>
   <g id="patch_27">
    <path d="M 150.773314 276.595682 
C 158.11997 276.595682 165.166715 273.676825 170.361586 268.481954 
C 175.556456 263.287084 178.475314 256.240339 178.475314 248.893682 
C 178.475314 241.547026 175.556456 234.500281 170.361586 229.30541 
C 165.166715 224.11054 158.11997 221.191682 150.773314 221.191682 
C 143.426658 221.191682 136.379912 224.11054 131.185042 229.30541 
C 125.990171 234.500281 123.071314 241.547026 123.071314 248.893682 
C 123.071314 256.240339 125.990171 263.287084 131.185042 268.481954 
C 136.379912 273.676825 143.426658 276.595682 150.773314 276.595682 
z
" clip-path="url(#pe62f97a9b4)" style="fill: #5087c5; stroke: #dc3912; stroke-width: 2.8; stroke-linejoin: miter"/>
   </g>
   <g id="patch_28">
    <path d="M 556.427031 560.647475 
C 563.773688 560.647475 570.820433 557.728618 576.015303 552.533747 
C 581.210174 547.338877 584.129031 540.292132 584.129031 532.945475 
C 584.129031 525.598819 581.210174 518.552074 576.015303 513.357203 
C 570.820433 508.162333 563.773688 505.243475 556.427031 505.243475 
C 549.080375 505.243475 542.03363 508.162333 536.838759 513.357203 
C 531.643889 518.552074 528.725031 525.598819 528.725031 532.945475 
C 528.725031 540.292132 531.643889 547.338877 536.838759 552.533747 
C 542.03363 557.728618 549.080375 560.647475 556.427031 560.647475 
z
" clip-path="url(#pe62f97a9b4)" style="fill: #5087c5; stroke: #222222; stroke-width: 1.2; stroke-linejoin: miter"/>
   </g>
   <g id="patch_29">
    <path d="M 217.825254 612.511361 
C 225.17191 612.511361 232.218656 609.592503 237.413526 604.397633 
C 242.608397 599.202762 245.527254 592.156017 245.527254 584.809361 
C 245.527254 577.462704 242.608397 570.415959 237.413526 565.221089 
C 232.218656 560.026218 225.17191 557.107361 217.825254 557.107361 
C 210.478598 557.107361 203.431853 560.026218 198.236982 565.221089 
C 193.042112 570.415959 190.123254 577.462704 190.123254 584.809361 
C 190.123254 592.156017 193.042112 599.202762 198.236982 604.397633 
C 203.431853 609.592503 210.478598 612.511361 217.825254 612.511361 
z
" clip-path="url(#pe62f97a9b4)" style="fill: #8bc34a; stroke: #222222; stroke-width: 1.2; stroke-linejoin: miter"/>
   </g>
   <g id="patch_30">
    <path d="M 397.523054 654.485265 
C 404.869711 654.485265 411.916456 651.566408 417.111326 646.371537 
C 422.306197 641.176667 425.225054 634.129922 425.225054 626.783265 
C 425.225054 619.436609 422.306197 612.389864 417.111326 607.194993 
C 411.916456 602.000123 404.869711 599.081265 397.523054 599.081265 
C 390.176398 599.081265 383.129653 602.000123 377.934782 607.194993 
C 372.739912 612.389864 369.821054 619.436609 369.821054 626.783265 
C 369.821054 634.129922 372.739912 641.176667 377.934782 646.371537 
C 383.129653 651.566408 390.176398 654.485265 397.523054 654.485265 
z
" clip-path="url(#pe62f97a9b4)" style="fill: #f5a623; stroke: #222222; stroke-width: 1.2; stroke-linejoin: miter"/>
   </g>
   <g id="patch_31">
    <path d="M 590.248882 317.721267 
C 597.595538 317.721267 604.642283 314.80241 609.837154 309.607539 
C 615.032024 304.412669 617.950882 297.365923 617.950882 290.019267 
C 617.950882 282.672611 615.032024 275.625866 609.837154 270.430995 
C 604.642283 265.236125 597.595538 262.317267 590.248882 262.317267 
C 582.902225 262.317267 575.85548 265.236125 570.66061 270.430995 
C 565.465739 275.625866 562.546882 282.672611 562.546882 290.019267 
C 562.546882 297.365923 565.465739 304.412669 570.66061 309.607539 
C 575.85548 314.80241 582.902225 317.721267 590.248882 317.721267 
z
" clip-path="url(#pe62f97a9b4)" style="fill: #d9584c; stroke: #222222; stroke-width: 1.2; stroke-linejoin: miter"/>
   </g>
   <g id="patch_32">
    <path d="M 300.593581 168.846473 
C 307.940238 168.846473 314.986983 165.927615 320.181853 160.732745 
C 325.376724 155.537874 328.295581 148.491129 328.295581 141.144473 
C 328.295581 133.797816 325.376724 126.751071 320.181853 121.556201 
C 314.986983 116.36133 307.940238 113.442473 300.593581 113.442473 
C 293.246925 113.442473 286.20018 116.36133 281.005309 121.556201 
C 275.810439 126.751071 272.891581 133.797816 272.891581 141.144473 
C 272.891581 148.491129 275.810439 155.537874 281.005309 160.732745 
C 286.20018 165.927615 293.246925 168.846473 300.593581 168.846473 
z
" clip-path="url(#pe62f97a9b4)" style="fill: #5087c5; stroke: #222222; stroke-width: 1.2; stroke-linejoin: miter"/>
   </g>
   <g id="text_19">
    <text style="font-weight: 700; font-size: 9.5px; font-family: 'Liberation Sans', 'Arimo', 'DejaVu Sans'; text-anchor: middle; fill: #222222" x="116.935338" y="432.758075" transform="rotate(-0 116.935338 432.758075)">I725</text>
   </g>
   <g id="text_20">
    <text style="font-weight: 700; font-size: 9.5px; font-family: 'Liberation Sans', 'Arimo', 'DejaVu Sans'; text-anchor: middle; fill: #ffffff" x="150.773314" y="251.352179" transform="rotate(-0 150.773314 251.352179)">R727</text>
   </g>
   <g id="text_21">
    <text style="font-weight: 700; font-size: 9.5px; font-family: 'Liberation Sans', 'Arimo', 'DejaVu Sans'; text-anchor: middle; fill: #ffffff" x="556.427031" y="535.403971" transform="rotate(-0 556.427031 535.403971)">R565</text>
   </g>
   <g id="text_22">
    <text style="font-weight: 700; font-size: 9.5px; font-family: 'Liberation Sans', 'Arimo', 'DejaVu Sans'; text-anchor: middle; fill: #222222" x="217.825254" y="587.267857" transform="rotate(-0 217.825254 587.267857)">G827</text>
   </g>
   <g id="text_23">
    <text style="font-weight: 700; font-size: 9.5px; font-family: 'Liberation Sans', 'Arimo', 'DejaVu Sans'; text-anchor: middle; fill: #222222" x="397.523054" y="629.241761" transform="rotate(-0 397.523054 629.241761)">N829</text>
   </g>
   <g id="text_24">
    <text style="font-weight: 700; font-size: 9.5px; font-family: 'Liberation Sans', 'Arimo', 'DejaVu Sans'; text-anchor: middle; fill: #ffffff" x="590.248882" y="292.477763" transform="rotate(-0 590.248882 292.477763)">E846</text>
   </g>
   <g id="text_25">
    <text style="font-weight: 700; font-size: 9.5px; font-family: 'Liberation Sans', 'Arimo', 'DejaVu Sans'; text-anchor: middle; fill: #ffffff" x="300.593581" y="143.602969" transform="rotate(-0 300.593581 143.602969)">R857</text>
   </g>
  </g>
  <g id="patch_33">
   <path d="M 130.640391 714.42 
Q 135.83969 714.42 138.914724 714.42 
" style="fill: none; stroke: #0279ee; stroke-width: 1.9; stroke-linecap: round"/>
   <path d="M 134.114724 712.02 
L 138.914724 714.42 
L 134.114724 716.82 
" style="fill: none; stroke: #0279ee; stroke-width: 1.9; stroke-linecap: round"/>
  </g>
  <g id="patch_34">
   <path d="M 92.16 743.148 
C 93.68757 743.148 95.15278 742.510745 96.232935 741.376582 
C 97.31309 740.242419 97.92 738.703948 97.92 737.1 
C 97.92 735.496052 97.31309 733.957581 96.232935 732.823418 
C 95.15278 731.689255 93.68757 731.052 92.16 731.052 
C 90.63243 731.052 89.16722 731.689255 88.087065 732.823418 
C 87.00691 733.957581 86.4 735.496052 86.4 737.1 
C 86.4 738.703948 87.00691 740.242419 88.087065 741.376582 
C 89.16722 742.510745 90.63243 743.148 92.16 743.148 
z
" style="fill: #5087c5; stroke: #222222; stroke-width: 0.8; stroke-linejoin: miter"/>
  </g>
  <g id="patch_35">
   <path d="M 218.88 743.148 
C 220.40757 743.148 221.87278 742.510745 222.952935 741.376582 
C 224.03309 740.242419 224.64 738.703948 224.64 737.1 
C 224.64 735.496052 224.03309 733.957581 222.952935 732.823418 
C 221.87278 731.689255 220.40757 731.052 218.88 731.052 
C 217.35243 731.052 215.88722 731.689255 214.807065 732.823418 
C 213.72691 733.957581 213.12 735.496052 213.12 737.1 
C 213.12 738.703948 213.72691 740.242419 214.807065 741.376582 
C 215.88722 742.510745 217.35243 743.148 218.88 743.148 
z
" style="fill: #d9584c; stroke: #222222; stroke-width: 0.8; stroke-linejoin: miter"/>
  </g>
  <g id="patch_36">
   <path d="M 345.6 743.148 
C 347.12757 743.148 348.59278 742.510745 349.672935 741.376582 
C 350.75309 740.242419 351.36 738.703948 351.36 737.1 
C 351.36 735.496052 350.75309 733.957581 349.672935 732.823418 
C 348.59278 731.689255 347.12757 731.052 345.6 731.052 
C 344.07243 731.052 342.60722 731.689255 341.527065 732.823418 
C 340.44691 733.957581 339.84 735.496052 339.84 737.1 
C 339.84 738.703948 340.44691 740.242419 341.527065 741.376582 
C 342.60722 742.510745 344.07243 743.148 345.6 743.148 
z
" style="fill: #f5a623; stroke: #222222; stroke-width: 0.8; stroke-linejoin: miter"/>
  </g>
  <g id="patch_37">
   <path d="M 472.32 743.148 
C 473.84757 743.148 475.31278 742.510745 476.392935 741.376582 
C 477.47309 740.242419 478.08 738.703948 478.08 737.1 
C 478.08 735.496052 477.47309 733.957581 476.392935 732.823418 
C 475.31278 731.689255 473.84757 731.052 472.32 731.052 
C 470.79243 731.052 469.32722 731.689255 468.247065 732.823418 
C 467.16691 733.957581 466.56 735.496052 466.56 737.1 
C 466.56 738.703948 467.16691 740.242419 468.247065 741.376582 
C 469.32722 742.510745 470.79243 743.148 472.32 743.148 
z
" style="fill: #8bc34a; stroke: #222222; stroke-width: 0.8; stroke-linejoin: miter"/>
  </g>
  <g id="patch_38">
   <path d="M 599.04 743.148 
C 600.56757 743.148 602.03278 742.510745 603.112935 741.376582 
C 604.19309 740.242419 604.8 738.703948 604.8 737.1 
C 604.8 735.496052 604.19309 733.957581 603.112935 732.823418 
C 602.03278 731.689255 600.56757 731.052 599.04 731.052 
C 597.51243 731.052 596.04722 731.689255 594.967065 732.823418 
C 593.88691 733.957581 593.28 735.496052 593.28 737.1 
C 593.28 738.703948 593.88691 740.242419 594.967065 741.376582 
C 596.04722 742.510745 597.51243 743.148 599.04 743.148 
z
" style="fill: #ffffff; stroke: #dc3912; stroke-width: 2.5; stroke-linejoin: miter"/>
  </g>
  <g id="line2d_59">
   <path d="M 339.84 714.42 
L 354.24 714.42 
" style="fill: none; stroke: #75a025; stroke-opacity: 0.4; stroke-width: 4; stroke-linecap: square"/>
  </g>
  <g id="line2d_60">
   <path d="M 551.04 714.42 
L 565.44 714.42 
" style="fill: none; stroke-dasharray: 9.6,7.2; stroke-dashoffset: 0; stroke: #fd9bed; stroke-width: 2.4"/>
  </g>
  <g id="text_26">
   <text style="font-weight: 700; font-size: 14px; font-family: 'Liberation Sans', 'Arimo', 'DejaVu Sans'; text-anchor: middle" x="360" y="21.532383" transform="rotate(-0 360 21.532383)">C727R × 9S18 · HRO761 — RESISTANCE</text>
  </g>
  <g id="text_27">
   <text style="font-size: 10.5px; font-family: 'Liberation Sans', 'Arimo', 'DejaVu Sans'; text-anchor: middle" x="360" y="41.66925" transform="rotate(-0 360 41.66925)">ΔS = +6.21  |  RMSD vs WT = 11.12 Å  |  9 lost / 2 retained / 5 gained</text>
  </g>
  <g id="text_28">
   <text style="font-size: 10.5px; font-family: 'Liberation Sans', 'Arimo', 'DejaVu Sans'; text-anchor: middle" x="360" y="61.320287" transform="rotate(-0 360 61.320287)">PLIP: 3 hydrophobic · 6 H-bond · 1 π-cation</text>
  </g>
  <g id="text_29">
   <text style="font-size: 8.5px; font-family: 'Liberation Sans', 'Arimo', 'DejaVu Sans'; text-anchor: start" x="146.64" y="716.619707" transform="rotate(-0 146.64 716.619707)">H-bond</text>
  </g>
  <g id="text_30">
   <text style="font-size: 8.5px; font-family: 'Liberation Sans', 'Arimo', 'DejaVu Sans'; text-anchor: start" x="357.84" y="716.619707" transform="rotate(-0 357.84 716.619707)">Hydrophobic</text>
  </g>
  <g id="text_31">
   <text style="font-size: 8.5px; font-family: 'Liberation Sans', 'Arimo', 'DejaVu Sans'; text-anchor: start" x="569.04" y="716.619707" transform="rotate(-0 569.04 716.619707)">π-cation</text>
  </g>
  <g id="text_32">
   <text style="font-size: 8px; font-family: 'Liberation Sans', 'Arimo', 'DejaVu Sans'; text-anchor: start" x="100.8" y="739.170313" transform="rotate(-0 100.8 739.170313)">Basic</text>
  </g>
  <g id="text_33">
   <text style="font-size: 8px; font-family: 'Liberation Sans', 'Arimo', 'DejaVu Sans'; text-anchor: start" x="227.52" y="739.170313" transform="rotate(-0 227.52 739.170313)">Acidic</text>
  </g>
  <g id="text_34">
   <text style="font-size: 8px; font-family: 'Liberation Sans', 'Arimo', 'DejaVu Sans'; text-anchor: start" x="354.24" y="739.170313" transform="rotate(-0 354.24 739.170313)">Polar</text>
  </g>
  <g id="text_35">
   <text style="font-size: 8px; font-family: 'Liberation Sans', 'Arimo', 'DejaVu Sans'; text-anchor: start" x="480.96" y="739.170313" transform="rotate(-0 480.96 739.170313)">Hydrophobic</text>
  </g>
  <g id="text_36">
   <text style="font-size: 8px; font-family: 'Liberation Sans', 'Arimo', 'DejaVu Sans'; text-anchor: start" x="607.68" y="739.170313" transform="rotate(-0 607.68 739.170313)">Mutation site</text>
  </g>
 </g>
 <defs>
  <clipPath id="pe62f97a9b4">
   <rect x="53.82" y="75.6" width="612.36" height="612.36"/>
  </clipPath>
 </defs>
</svg>
