<?xml version="1.0" encoding="utf-8" standalone="no"?>
<!DOCTYPE svg PUBLIC "-//W3C//DTD SVG 1.1//EN"
  "http://www.w3.org/Graphics/SVG/1.1/DTD/svg11.dtd">
<svg xmlns:xlink="http://www.w3.org/1999/xlink" width="720pt" height="756pt" viewBox="0 0 720 756" xmlns="http://www.w3.org/2000/svg" version="1.1">
 <metadata>
  <rdf:RDF xmlns:dc="http://purl.org/dc/elements/1.1/" xmlns:cc="http://creativecommons.org/ns#" xmlns:rdf="http://www.w3.org/1999/02/22-rdf-syntax-ns#">
   <cc:Work>
    <dc:type rdf:resource="http://purl.org/dc/dcmitype/StillImage"/>
    <dc:date>2022-01-01T05:00:00+00:00</dc:date>
    <dc:format>image/svg+xml</dc:format>
    <dc:creator>
     <cc:Agent>
      <dc:title>Matplotlib v3.11.0, https://matplotlib.org/</dc:title>
     </cc:Agent>
    </dc:creator>
   </cc:Work>
  </rdf:RDF>
 </metadata>
 <defs>
  <style type="text/css">*{stroke-linejoin: round; stroke-linecap: butt}</style>
 </defs>
 <g id="figure_1">
  <g id="patch_1">
   <path d="M 0 756 
L 720 756 
L 720 0 
L 0 0 
z
" style="fill: #ffffff"/>
  </g>
  <g id="axes_1">
   <g id="line2d_1">
    <path d="M 282.141465 646.9443 
L 281.367427 635.840117 
L 280.714351 624.74608 
L 280.182236 613.662188 
L 279.771083 602.588441 
L 279.480892 591.52484 
L 279.311662 580.471385 
L 279.263394 569.428074 
L 279.336087 558.394909 
L 279.529742 547.37189 
L 279.844359 536.359016 
L 280.279937 525.356287 
L 280.836477 514.363703 
L 281.513979 503.381265 
L 282.312442 492.408973 
L 283.231867 481.446825 
L 284.272254 470.494823 
L 285.433602 459.552967 
L 286.715911 448.621256 
L 288.119183 437.69969 
L 289.643416 426.78827 
L 291.28861 415.886995 
L 293.054767 404.995865 
L 294.941884 394.114881 
L 296.949964 383.244042 
L 299.079005 372.383348 
L 301.329008 361.5328 
L 303.699972 350.692397 
L 306.191898 339.86214 
L 308.804786 329.042028 
" clip-path="url(#p3d0edfca93)" style="fill: none; stroke: #75a025; stroke-opacity: 0.4; stroke-width: 4; stroke-linecap: round"/>
   </g>
   <g id="line2d_2">
    <path d="M 266.135055 640.472604 
L 272.539937 634.708921 
L 278.872038 628.885806 
L 285.131359 623.00326 
L 291.317899 617.061283 
L 297.43166 611.059875 
L 303.472639 604.999035 
L 309.440839 598.878764 
L 315.336258 592.699062 
L 321.158897 586.459929 
L 326.908755 580.161364 
L 332.585833 573.803368 
L 338.190131 567.385941 
L 343.721648 560.909083 
L 349.180385 554.372793 
L 354.566341 547.777072 
L 359.879517 541.12192 
L 365.119913 534.407337 
L 370.287529 527.633323 
L 375.382364 520.799877 
L 380.404418 513.907 
L 385.353693 506.954692 
L 390.230186 499.942952 
L 395.0339 492.871781 
L 399.764833 485.741179 
L 404.422986 478.551146 
L 409.008359 471.301681 
L 413.520951 463.992786 
L 417.960762 456.624459 
L 422.327794 449.196701 
" clip-path="url(#p3d0edfca93)" style="fill: none; stroke: #75a025; stroke-opacity: 0.4; stroke-width: 4; stroke-linecap: round"/>
   </g>
   <g id="line2d_3">
    <path d="M 584.133742 544.58094 
L 578.609997 541.740752 
L 573.126058 538.845762 
L 567.681924 535.89597 
L 562.277597 532.891376 
L 556.913075 529.831979 
L 551.58836 526.71778 
L 546.303451 523.548779 
L 541.058348 520.324975 
L 535.85305 517.046369 
L 530.687559 513.712961 
L 525.561874 510.32475 
L 520.475994 506.881737 
L 515.429921 503.383922 
L 510.423654 499.831304 
L 505.457193 496.223884 
L 500.530538 492.561662 
L 495.643688 488.844637 
L 490.796645 485.07281 
L 485.989408 481.246181 
L 481.221977 477.364749 
L 476.494352 473.428515 
L 471.806533 469.437479 
L 467.15852 465.39164 
L 462.550313 461.290999 
L 457.981912 457.135556 
L 453.453317 452.92531 
L 448.964527 448.660262 
L 444.515544 444.340412 
L 440.106367 439.965759 
" clip-path="url(#p3d0edfca93)" style="fill: none; stroke: #75a025; stroke-opacity: 0.4; stroke-width: 4; stroke-linecap: round"/>
   </g>
   <g id="line2d_4">
    <path d="M 118.263919 246.677531 
L 125.4827 248.762129 
L 132.666996 250.921054 
L 139.816807 253.154308 
L 146.932133 255.46189 
L 154.012974 257.8438 
L 161.05933 260.300038 
L 168.071201 262.830605 
L 175.048588 265.4355 
L 181.99149 268.114723 
L 188.899906 270.868274 
L 195.773838 273.696153 
L 202.613285 276.59836 
L 209.418247 279.574896 
L 216.188724 282.62576 
L 222.924717 285.750952 
L 229.626224 288.950472 
L 236.293247 292.224321 
L 242.925785 295.572497 
L 249.523837 298.995002 
L 256.087405 302.491835 
L 262.616488 306.062996 
L 269.111087 309.708486 
L 275.5712 313.428303 
L 281.996828 317.222449 
L 288.387972 321.090923 
L 294.744631 325.033725 
L 301.066804 329.050856 
L 307.354493 333.142314 
L 313.607697 337.308101 
" clip-path="url(#p3d0edfca93)" style="fill: none; stroke: #75a025; stroke-opacity: 0.4; stroke-width: 4; stroke-linecap: round"/>
   </g>
   <g id="line2d_5">
    <path d="M 329.70168 109.691446 
L 324.566373 119.228476 
L 319.542398 128.804973 
L 314.629756 138.420936 
L 309.828448 148.076365 
L 305.138472 157.771261 
L 300.55983 167.505624 
L 296.092521 177.279452 
L 291.736545 187.092748 
L 287.491901 196.945509 
L 283.358591 206.837737 
L 279.336614 216.769432 
L 275.425971 226.740593 
L 271.62666 236.75122 
L 267.938682 246.801314 
L 264.362037 256.890874 
L 260.896726 267.019901 
L 257.542747 277.188394 
L 254.300102 287.396353 
L 251.16879 297.643779 
L 248.14881 307.930671 
L 245.240164 318.25703 
L 242.442851 328.622855 
L 239.756871 339.028147 
L 237.182224 349.472905 
L 234.71891 359.957129 
L 232.36693 370.48082 
L 230.126282 381.043978 
L 227.996967 391.646601 
L 225.978986 402.288691 
" clip-path="url(#p3d0edfca93)" style="fill: none; stroke: #75a025; stroke-opacity: 0.4; stroke-width: 4; stroke-linecap: round"/>
   </g>
   <g id="line2d_6">
    <path d="M 325.305288 166.17312 
L 329.864929 302.47606 
" clip-path="url(#p3d0edfca93)" style="fill: none; stroke-dasharray: 7.2,5.4; stroke-dashoffset: 0; stroke: #ff9400; stroke-width: 1.8"/>
   </g>
   <g id="line2d_7">
    <path d="M 316.562178 166.465597 
L 321.12182 302.768536 
" clip-path="url(#p3d0edfca93)" style="fill: none; stroke-dasharray: 7.2,5.4; stroke-dashoffset: 0; stroke: #ff9400; stroke-width: 1.8"/>
   </g>
   <g id="patch_2">
    <path d="M 159.315253 464.337252 
Q 220.691755 449.267855 280.449664 434.595861 
" clip-path="url(#p3d0edfca93)" style="fill: none; stroke: #0279ee; stroke-width: 2; stroke-linecap: round"/>
    <path d="M 271.249757 430.676458 
L 280.449664 434.595861 
L 274.111063 442.330339 
" clip-path="url(#p3d0edfca93)" style="fill: none; stroke: #0279ee; stroke-width: 2; stroke-linecap: round"/>
   </g>
   <g id="line2d_8">
    <path d="M 293.924478 431.287473 
L 283.603669 405.101578 
" clip-path="url(#p3d0edfca93)" style="fill: none; stroke: #222222; stroke-width: 2; stroke-linecap: round"/>
   </g>
   <g id="line2d_9">
    <path d="M 321.762533 435.442337 
L 293.924478 431.287473 
" clip-path="url(#p3d0edfca93)" style="fill: none; stroke: #222222; stroke-width: 2; stroke-linecap: round"/>
   </g>
   <g id="line2d_10">
    <path d="M 339.279778 413.411307 
L 321.762533 435.442337 
" clip-path="url(#p3d0edfca93)" style="fill: none; stroke: #222222; stroke-width: 2; stroke-linecap: round"/>
   </g>
   <g id="line2d_11">
    <path d="M 328.958969 387.225412 
L 339.279778 413.411307 
" clip-path="url(#p3d0edfca93)" style="fill: none; stroke: #222222; stroke-width: 2; stroke-linecap: round"/>
   </g>
   <g id="line2d_12">
    <path d="M 301.120915 383.070548 
L 328.958969 387.225412 
" clip-path="url(#p3d0edfca93)" style="fill: none; stroke: #222222; stroke-width: 2; stroke-linecap: round"/>
   </g>
   <g id="line2d_13">
    <path d="M 301.120915 383.070548 
L 283.603669 405.101578 
" clip-path="url(#p3d0edfca93)" style="fill: none; stroke: #222222; stroke-width: 2; stroke-linecap: round"/>
   </g>
   <g id="line2d_14">
    <path d="M 255.765614 400.946713 
L 227.92756 396.791848 
" clip-path="url(#p3d0edfca93)" style="fill: none; stroke: #222222; stroke-width: 2; stroke-linecap: round"/>
   </g>
   <g id="line2d_15">
    <path d="M 255.765614 400.946713 
L 283.603669 405.101578 
" clip-path="url(#p3d0edfca93)" style="fill: none; stroke: #222222; stroke-width: 2; stroke-linecap: round"/>
   </g>
   <g id="line2d_16">
    <path d="M 259.920479 373.108658 
L 255.765614 400.946713 
" clip-path="url(#p3d0edfca93)" style="fill: none; stroke: #222222; stroke-width: 2; stroke-linecap: round"/>
   </g>
   <g id="line2d_17">
    <path d="M 251.61075 428.784768 
L 255.765614 400.946713 
" clip-path="url(#p3d0edfca93)" style="fill: none; stroke: #222222; stroke-width: 2; stroke-linecap: round"/>
   </g>
   <g id="line2d_18">
    <path d="M 367.117833 417.566172 
L 339.279778 413.411307 
" clip-path="url(#p3d0edfca93)" style="fill: none; stroke: #222222; stroke-width: 2; stroke-linecap: round"/>
   </g>
   <g id="line2d_19">
    <path d="M 377.438642 443.752067 
L 367.117833 417.566172 
" clip-path="url(#p3d0edfca93)" style="fill: none; stroke: #222222; stroke-width: 2; stroke-linecap: round"/>
   </g>
   <g id="line2d_20">
    <path d="M 384.635079 395.535142 
L 367.117833 417.566172 
" clip-path="url(#p3d0edfca93)" style="fill: none; stroke: #222222; stroke-width: 2; stroke-linecap: round"/>
   </g>
   <g id="line2d_21">
    <path d="M 412.473133 399.690006 
L 384.635079 395.535142 
" clip-path="url(#p3d0edfca93)" style="fill: none; stroke: #222222; stroke-width: 2; stroke-linecap: round"/>
   </g>
   <g id="line2d_22">
    <path d="M 422.793942 425.875901 
L 412.473133 399.690006 
" clip-path="url(#p3d0edfca93)" style="fill: none; stroke: #222222; stroke-width: 2; stroke-linecap: round"/>
   </g>
   <g id="line2d_23">
    <path d="M 418.639078 453.713956 
L 422.793942 425.875901 
" clip-path="url(#p3d0edfca93)" style="fill: none; stroke: #222222; stroke-width: 2; stroke-linecap: round"/>
   </g>
   <g id="line2d_24">
    <path d="M 444.824973 443.393147 
L 418.639078 453.713956 
" clip-path="url(#p3d0edfca93)" style="fill: none; stroke: #222222; stroke-width: 2; stroke-linecap: round"/>
   </g>
   <g id="line2d_25">
    <path d="M 444.824973 443.393147 
L 422.793942 425.875901 
" clip-path="url(#p3d0edfca93)" style="fill: none; stroke: #222222; stroke-width: 2; stroke-linecap: round"/>
   </g>
   <g id="line2d_26">
    <path d="M 429.990379 377.658976 
L 412.473133 399.690006 
" clip-path="url(#p3d0edfca93)" style="fill: none; stroke: #222222; stroke-width: 2; stroke-linecap: round"/>
   </g>
   <g id="line2d_27">
    <path d="M 457.828434 381.813841 
L 429.990379 377.658976 
" clip-path="url(#p3d0edfca93)" style="fill: none; stroke: #222222; stroke-width: 2; stroke-linecap: round"/>
   </g>
   <g id="line2d_28">
    <path d="M 475.34568 359.782811 
L 457.828434 381.813841 
" clip-path="url(#p3d0edfca93)" style="fill: none; stroke: #222222; stroke-width: 2; stroke-linecap: round"/>
   </g>
   <g id="line2d_29">
    <path d="M 492.862925 337.751781 
L 475.34568 359.782811 
" clip-path="url(#p3d0edfca93)" style="fill: none; stroke: #222222; stroke-width: 2; stroke-linecap: round"/>
   </g>
   <g id="line2d_30">
    <path d="M 453.314649 342.265565 
L 475.34568 359.782811 
" clip-path="url(#p3d0edfca93)" style="fill: none; stroke: #222222; stroke-width: 2; stroke-linecap: round"/>
   </g>
   <g id="line2d_31">
    <path d="M 497.37671 377.300057 
L 475.34568 359.782811 
" clip-path="url(#p3d0edfca93)" style="fill: none; stroke: #222222; stroke-width: 2; stroke-linecap: round"/>
   </g>
   <g id="line2d_32">
    <path d="M 346.476215 365.194382 
L 328.958969 387.225412 
" clip-path="url(#p3d0edfca93)" style="fill: none; stroke: #222222; stroke-width: 2; stroke-linecap: round"/>
   </g>
   <g id="line2d_33">
    <path d="M 336.155406 339.008487 
L 346.476215 365.194382 
" clip-path="url(#p3d0edfca93)" style="fill: none; stroke: #222222; stroke-width: 2; stroke-linecap: round"/>
   </g>
   <g id="line2d_34">
    <path d="M 308.317352 334.853622 
L 336.155406 339.008487 
" clip-path="url(#p3d0edfca93)" style="fill: none; stroke: #222222; stroke-width: 2; stroke-linecap: round"/>
   </g>
   <g id="line2d_35">
    <path d="M 297.996543 308.667728 
L 308.317352 334.853622 
" clip-path="url(#p3d0edfca93)" style="fill: none; stroke: #222222; stroke-width: 2; stroke-linecap: round"/>
   </g>
   <g id="line2d_36">
    <path d="M 315.513788 286.636697 
L 297.996543 308.667728 
" clip-path="url(#p3d0edfca93)" style="fill: none; stroke: #222222; stroke-width: 2; stroke-linecap: round"/>
   </g>
   <g id="line2d_37">
    <path d="M 343.351843 290.791562 
L 315.513788 286.636697 
" clip-path="url(#p3d0edfca93)" style="fill: none; stroke: #222222; stroke-width: 2; stroke-linecap: round"/>
   </g>
   <g id="line2d_38">
    <path d="M 353.672652 316.977457 
L 343.351843 290.791562 
" clip-path="url(#p3d0edfca93)" style="fill: none; stroke: #222222; stroke-width: 2; stroke-linecap: round"/>
   </g>
   <g id="line2d_39">
    <path d="M 353.672652 316.977457 
L 336.155406 339.008487 
" clip-path="url(#p3d0edfca93)" style="fill: none; stroke: #222222; stroke-width: 2; stroke-linecap: round"/>
   </g>
   <g id="text_1">
    <g id="patch_3">
     <path d="M 289.351353 437.158332 
L 298.497603 437.158332 
L 298.497603 425.416613 
L 289.351353 425.416613 
z
" style="fill: #ffffff"/>
    </g>
    <text style="font-weight: 700; font-size: 12px; font-family: 'Liberation Sans', 'Arimo', 'DejaVu Sans'; text-anchor: middle; fill: #0879c0" x="293.924478" y="434.392941" transform="rotate(-0 293.924478 434.392941)">N</text>
   </g>
   <g id="text_2">
    <g id="patch_4">
     <path d="M 296.54779 388.941407 
L 305.69404 388.941407 
L 305.69404 377.199688 
L 296.54779 377.199688 
z
" style="fill: #ffffff"/>
    </g>
    <text style="font-weight: 700; font-size: 12px; font-family: 'Liberation Sans', 'Arimo', 'DejaVu Sans'; text-anchor: middle; fill: #0879c0" x="301.120915" y="386.176016" transform="rotate(-0 301.120915 386.176016)">N</text>
   </g>
   <g id="text_3">
    <g id="patch_5">
     <path d="M 256.015792 378.979518 
L 263.825167 378.979518 
L 263.825167 367.237799 
L 256.015792 367.237799 
z
" style="fill: #ffffff"/>
    </g>
    <text style="font-weight: 700; font-size: 12px; font-family: 'Liberation Sans', 'Arimo', 'DejaVu Sans'; text-anchor: middle; fill: #00a040" x="259.920479" y="376.214127" transform="rotate(-0 259.920479 376.214127)">F</text>
   </g>
   <g id="text_4">
    <g id="patch_6">
     <path d="M 247.706062 434.655627 
L 255.515437 434.655627 
L 255.515437 422.913908 
L 247.706062 422.913908 
z
" style="fill: #ffffff"/>
    </g>
    <text style="font-weight: 700; font-size: 12px; font-family: 'Liberation Sans', 'Arimo', 'DejaVu Sans'; text-anchor: middle; fill: #00a040" x="251.61075" y="431.890236" transform="rotate(-0 251.61075 431.890236)">F</text>
   </g>
   <g id="text_5">
    <g id="patch_7">
     <path d="M 372.531767 449.622926 
L 382.345517 449.622926 
L 382.345517 437.881207 
L 372.531767 437.881207 
z
" style="fill: #ffffff"/>
    </g>
    <text style="font-weight: 700; font-size: 12px; font-family: 'Liberation Sans', 'Arimo', 'DejaVu Sans'; text-anchor: middle; fill: #d40000" x="377.438642" y="446.857536" transform="rotate(-0 377.438642 446.857536)">O</text>
   </g>
   <g id="text_6">
    <g id="patch_8">
     <path d="M 380.061954 401.406001 
L 389.208204 401.406001 
L 389.208204 389.664282 
L 380.061954 389.664282 
z
" style="fill: #ffffff"/>
    </g>
    <text style="font-weight: 700; font-size: 12px; font-family: 'Liberation Sans', 'Arimo', 'DejaVu Sans'; text-anchor: middle; fill: #0879c0" x="384.635079" y="398.64061" transform="rotate(-0 384.635079 398.64061)">N</text>
   </g>
   <g id="text_7">
    <g id="patch_9">
     <path d="M 471.103492 365.65367 
L 479.587867 365.65367 
L 479.587867 353.911951 
L 471.103492 353.911951 
z
" style="fill: #ffffff"/>
    </g>
    <text style="font-weight: 700; font-size: 12px; font-family: 'Liberation Sans', 'Arimo', 'DejaVu Sans'; text-anchor: middle; fill: #b8860b" x="475.34568" y="362.88828" transform="rotate(-0 475.34568 362.88828)">S</text>
   </g>
   <g id="text_8">
    <g id="patch_10">
     <path d="M 448.407774 348.136424 
L 458.221524 348.136424 
L 458.221524 336.394706 
L 448.407774 336.394706 
z
" style="fill: #ffffff"/>
    </g>
    <text style="font-weight: 700; font-size: 12px; font-family: 'Liberation Sans', 'Arimo', 'DejaVu Sans'; text-anchor: middle; fill: #d40000" x="453.314649" y="345.371034" transform="rotate(-0 453.314649 345.371034)">O</text>
   </g>
   <g id="text_9">
    <g id="patch_11">
     <path d="M 492.469835 383.170916 
L 502.283585 383.170916 
L 502.283585 371.429197 
L 492.469835 371.429197 
z
" style="fill: #ffffff"/>
    </g>
    <text style="font-weight: 700; font-size: 12px; font-family: 'Liberation Sans', 'Arimo', 'DejaVu Sans'; text-anchor: middle; fill: #d40000" x="497.37671" y="380.405525" transform="rotate(-0 497.37671 380.405525)">O</text>
   </g>
   <g id="text_10">
    <g id="patch_12">
     <path d="M 341.56934 371.065241 
L 351.38309 371.065241 
L 351.38309 359.323523 
L 341.56934 359.323523 
z
" style="fill: #ffffff"/>
    </g>
    <text style="font-weight: 700; font-size: 12px; font-family: 'Liberation Sans', 'Arimo', 'DejaVu Sans'; text-anchor: middle; fill: #d40000" x="346.476215" y="368.299851" transform="rotate(-0 346.476215 368.299851)">O</text>
   </g>
   <g id="patch_13">
    <path d="M 284.578636 645.588326 
C 291.925292 645.588326 298.972037 642.669469 304.166908 637.474598 
C 309.361778 632.279728 312.280636 625.232983 312.280636 617.886326 
C 312.280636 610.53967 309.361778 603.492925 304.166908 598.298054 
C 298.972037 593.103184 291.925292 590.184326 284.578636 590.184326 
C 277.231979 590.184326 270.185234 593.103184 264.990363 598.298054 
C 259.795493 603.492925 256.876636 610.53967 256.876636 617.886326 
C 256.876636 625.232983 259.795493 632.279728 264.990363 637.474598 
C 270.185234 642.669469 277.231979 645.588326 284.578636 645.588326 
z
" clip-path="url(#p3d0edfca93)" style="fill: #8bc34a; stroke: #222222; stroke-width: 1.2; stroke-linejoin: miter"/>
   </g>
   <g id="patch_14">
    <path d="M 560.540717 555.145999 
C 567.887373 555.145999 574.934118 552.227141 580.128989 547.032271 
C 585.323859 541.8374 588.242717 534.790655 588.242717 527.443999 
C 588.242717 520.097342 585.323859 513.050597 580.128989 507.855727 
C 574.934118 502.660856 567.887373 499.741999 560.540717 499.741999 
C 553.194061 499.741999 546.147315 502.660856 540.952445 507.855727 
C 535.757574 513.050597 532.838717 520.097342 532.838717 527.443999 
C 532.838717 534.790655 535.757574 541.8374 540.952445 547.032271 
C 546.147315 552.227141 553.194061 555.145999 560.540717 555.145999 
z
" clip-path="url(#p3d0edfca93)" style="fill: #8bc34a; stroke: #222222; stroke-width: 1.2; stroke-linejoin: miter"/>
   </g>
   <g id="patch_15">
    <path d="M 144.715649 286.651923 
C 152.062305 286.651923 159.109051 283.733065 164.303921 278.538195 
C 169.498792 273.343324 172.417649 266.296579 172.417649 258.949923 
C 172.417649 251.603267 169.498792 244.556521 164.303921 239.361651 
C 159.109051 234.16678 152.062305 231.247923 144.715649 231.247923 
C 137.368993 231.247923 130.322248 234.16678 125.127377 239.361651 
C 119.932507 244.556521 117.013649 251.603267 117.013649 258.949923 
C 117.013649 266.296579 119.932507 273.343324 125.127377 278.538195 
C 130.322248 283.733065 137.368993 286.651923 144.715649 286.651923 
z
" clip-path="url(#p3d0edfca93)" style="fill: #5087c5; stroke: #dc3912; stroke-width: 2.8; stroke-linejoin: miter"/>
   </g>
   <g id="patch_16">
    <path d="M 319.95881 164.877661 
C 327.305467 164.877661 334.352212 161.958803 339.547083 156.763933 
C 344.741953 151.569062 347.66081 144.522317 347.66081 137.175661 
C 347.66081 129.829005 344.741953 122.782259 339.547083 117.587389 
C 334.352212 112.392518 327.305467 109.473661 319.95881 109.473661 
C 312.612154 109.473661 305.565409 112.392518 300.370538 117.587389 
C 295.175668 122.782259 292.25681 129.829005 292.25681 137.175661 
C 292.25681 144.522317 295.175668 151.569062 300.370538 156.763933 
C 305.565409 161.958803 312.612154 164.877661 319.95881 164.877661 
z
" clip-path="url(#p3d0edfca93)" style="fill: #f5a623; stroke: #222222; stroke-width: 1.2; stroke-linejoin: miter"/>
   </g>
   <g id="patch_17">
    <path d="M 129.052331 499.469521 
C 136.398988 499.469521 143.445733 496.550664 148.640604 491.355793 
C 153.835474 486.160923 156.754331 479.114178 156.754331 471.767521 
C 156.754331 464.420865 153.835474 457.37412 148.640604 452.179249 
C 143.445733 446.984379 136.398988 444.065521 129.052331 444.065521 
C 121.705675 444.065521 114.65893 446.984379 109.464059 452.179249 
C 104.269189 457.37412 101.350331 464.420865 101.350331 471.767521 
C 101.350331 479.114178 104.269189 486.160923 109.464059 491.355793 
C 114.65893 496.550664 121.705675 499.469521 129.052331 499.469521 
z
" clip-path="url(#p3d0edfca93)" style="fill: #5087c5; stroke: #222222; stroke-width: 1.2; stroke-linejoin: miter"/>
   </g>
   <g id="text_11">
    <text style="font-weight: 700; font-size: 9.5px; font-family: 'Liberation Sans', 'Arimo', 'DejaVu Sans'; text-anchor: middle; fill: #222222" x="284.578636" y="620.344823" transform="rotate(-0 284.578636 620.344823)">V570</text>
   </g>
   <g id="text_12">
    <text style="font-weight: 700; font-size: 9.5px; font-family: 'Liberation Sans', 'Arimo', 'DejaVu Sans'; text-anchor: middle; fill: #222222" x="560.540717" y="529.902495" transform="rotate(-0 560.540717 529.902495)">I725</text>
   </g>
   <g id="text_13">
    <text style="font-weight: 700; font-size: 9.5px; font-family: 'Liberation Sans', 'Arimo', 'DejaVu Sans'; text-anchor: middle; fill: #ffffff" x="144.715649" y="261.408419" transform="rotate(-0 144.715649 261.408419)">R727</text>
   </g>
   <g id="text_14">
    <text style="font-weight: 700; font-size: 9.5px; font-family: 'Liberation Sans', 'Arimo', 'DejaVu Sans'; text-anchor: middle; fill: #222222" x="319.95881" y="139.634157" transform="rotate(-0 319.95881 139.634157)">Y849</text>
   </g>
   <g id="text_15">
    <text style="font-weight: 700; font-size: 9.5px; font-family: 'Liberation Sans', 'Arimo', 'DejaVu Sans'; text-anchor: middle; fill: #ffffff" x="129.052331" y="474.226017" transform="rotate(-0 129.052331 474.226017)">K898</text>
   </g>
  </g>
  <g id="patch_18">
   <path d="M 130.640391 714.42 
Q 135.83969 714.42 138.914724 714.42 
" style="fill: none; stroke: #0279ee; stroke-width: 1.9; stroke-linecap: round"/>
   <path d="M 134.114724 712.02 
L 138.914724 714.42 
L 134.114724 716.82 
" style="fill: none; stroke: #0279ee; stroke-width: 1.9; stroke-linecap: round"/>
  </g>
  <g id="patch_19">
   <path d="M 92.16 743.148 
C 93.68757 743.148 95.15278 742.510745 96.232935 741.376582 
C 97.31309 740.242419 97.92 738.703948 97.92 737.1 
C 97.92 735.496052 97.31309 733.957581 96.232935 732.823418 
C 95.15278 731.689255 93.68757 731.052 92.16 731.052 
C 90.63243 731.052 89.16722 731.689255 88.087065 732.823418 
C 87.00691 733.957581 86.4 735.496052 86.4 737.1 
C 86.4 738.703948 87.00691 740.242419 88.087065 741.376582 
C 89.16722 742.510745 90.63243 743.148 92.16 743.148 
z
" style="fill: #5087c5; stroke: #222222; stroke-width: 0.8; stroke-linejoin: miter"/>
  </g>
  <g id="patch_20">
   <path d="M 218.88 743.148 
C 220.40757 743.148 221.87278 742.510745 222.952935 741.376582 
C 224.03309 740.242419 224.64 738.703948 224.64 737.1 
C 224.64 735.496052 224.03309 733.957581 222.952935 732.823418 
C 221.87278 731.689255 220.40757 731.052 218.88 731.052 
C 217.35243 731.052 215.88722 731.689255 214.807065 732.823418 
C 213.72691 733.957581 213.12 735.496052 213.12 737.1 
C 213.12 738.703948 213.72691 740.242419 214.807065 741.376582 
C 215.88722 742.510745 217.35243 743.148 218.88 743.148 
z
" style="fill: #d9584c; stroke: #222222; stroke-width: 0.8; stroke-linejoin: miter"/>
  </g>
  <g id="patch_21">
   <path d="M 345.6 743.148 
C 347.12757 743.148 348.59278 742.510745 349.672935 741.376582 
C 350.75309 740.242419 351.36 738.703948 351.36 737.1 
C 351.36 735.496052 350.75309 733.957581 349.672935 732.823418 
C 348.59278 731.689255 347.12757 731.052 345.6 731.052 
C 344.07243 731.052 342.60722 731.689255 341.527065 732.823418 
C 340.44691 733.957581 339.84 735.496052 339.84 737.1 
C 339.84 738.703948 340.44691 740.242419 341.527065 741.376582 
C 342.60722 742.510745 344.07243 743.148 345.6 743.148 
z
" style="fill: #f5a623; stroke: #222222; stroke-width: 0.8; stroke-linejoin: miter"/>
  </g>
  <g id="patch_22">
   <path d="M 472.32 743.148 
C 473.84757 743.148 475.31278 742.510745 476.392935 741.376582 
C 477.47309 740.242419 478.08 738.703948 478.08 737.1 
C 478.08 735.496052 477.47309 733.957581 476.392935 732.823418 
C 475.31278 731.689255 473.84757 731.052 472.32 731.052 
C 470.79243 731.052 469.32722 731.689255 468.247065 732.823418 
C 467.16691 733.957581 466.56 735.496052 466.56 737.1 
C 466.56 738.703948 467.16691 740.242419 468.247065 741.376582 
C 469.32722 742.510745 470.79243 743.148 472.32 743.148 
z
" style="fill: #8bc34a; stroke: #222222; stroke-width: 0.8; stroke-linejoin: miter"/>
  </g>
  <g id="patch_23">
   <path d="M 599.04 743.148 
C 600.56757 743.148 602.03278 742.510745 603.112935 741.376582 
C 604.19309 740.242419 604.8 738.703948 604.8 737.1 
C 604.8 735.496052 604.19309 733.957581 603.112935 732.823418 
C 602.03278 731.689255 600.56757 731.052 599.04 731.052 
C 597.51243 731.052 596.04722 731.689255 594.967065 732.823418 
C 593.88691 733.957581 593.28 735.496052 593.28 737.1 
C 593.28 738.703948 593.88691 740.242419 594.967065 741.376582 
C 596.04722 742.510745 597.51243 743.148 599.04 743.148 
z
" style="fill: #ffffff; stroke: #dc3912; stroke-width: 2.5; stroke-linejoin: miter"/>
  </g>
  <g id="line2d_40">
   <path d="M 339.84 714.42 
L 354.24 714.42 
" style="fill: none; stroke: #75a025; stroke-opacity: 0.4; stroke-width: 4; stroke-linecap: square"/>
  </g>
  <g id="line2d_41">
   <path d="M 551.04 710.64 
L 565.44 710.64 
" style="fill: none; stroke-dasharray: 7.2,5.4; stroke-dashoffset: 0; stroke: #ff9400; stroke-width: 1.8"/>
  </g>
  <g id="line2d_42">
   <path d="M 551.04 718.2 
L 565.44 718.2 
" style="fill: none; stroke-dasharray: 7.2,5.4; stroke-dashoffset: 0; stroke: #ff9400; stroke-width: 1.8"/>
  </g>
  <g id="text_16">
   <text style="font-weight: 700; font-size: 14px; font-family: 'Liberation Sans', 'Arimo', 'DejaVu Sans'; text-anchor: middle" x="360" y="21.532383" transform="rotate(-0 360 21.532383)">C727R × 7GQU · VVD-214 — NEUTRAL</text>
  </g>
  <g id="text_17">
   <text style="font-size: 10.5px; font-family: 'Liberation Sans', 'Arimo', 'DejaVu Sans'; text-anchor: middle" x="360" y="41.66925" transform="rotate(-0 360 41.66925)">ΔS = -0.52  |  RMSD vs WT = 1.13 Å  |  1 lost / 3 retained / 2 gained</text>
  </g>
  <g id="text_18">
   <text style="font-size: 10.5px; font-family: 'Liberation Sans', 'Arimo', 'DejaVu Sans'; text-anchor: middle" x="360" y="61.320287" transform="rotate(-0 360 61.320287)">PLIP: 5 hydrophobic · 1 H-bond · 1 π-stack</text>
  </g>
  <g id="text_19">
   <text style="font-size: 8.5px; font-family: 'Liberation Sans', 'Arimo', 'DejaVu Sans'; text-anchor: start" x="146.64" y="716.619707" transform="rotate(-0 146.64 716.619707)">H-bond</text>
  </g>
  <g id="text_20">
   <text style="font-size: 8.5px; font-family: 'Liberation Sans', 'Arimo', 'DejaVu Sans'; text-anchor: start" x="357.84" y="716.619707" transform="rotate(-0 357.84 716.619707)">Hydrophobic</text>
  </g>
  <g id="text_21">
   <text style="font-size: 8.5px; font-family: 'Liberation Sans', 'Arimo', 'DejaVu Sans'; text-anchor: start" x="569.04" y="716.619707" transform="rotate(-0 569.04 716.619707)">π-stack</text>
  </g>
  <g id="text_22">
   <text style="font-size: 8px; font-family: 'Liberation Sans', 'Arimo', 'DejaVu Sans'; text-anchor: start" x="100.8" y="739.170313" transform="rotate(-0 100.8 739.170313)">Basic</text>
  </g>
  <g id="text_23">
   <text style="font-size: 8px; font-family: 'Liberation Sans', 'Arimo', 'DejaVu Sans'; text-anchor: start" x="227.52" y="739.170313" transform="rotate(-0 227.52 739.170313)">Acidic</text>
  </g>
  <g id="text_24">
   <text style="font-size: 8px; font-family: 'Liberation Sans', 'Arimo', 'DejaVu Sans'; text-anchor: start" x="354.24" y="739.170313" transform="rotate(-0 354.24 739.170313)">Polar</text>
  </g>
  <g id="text_25">
   <text style="font-size: 8px; font-family: 'Liberation Sans', 'Arimo', 'DejaVu Sans'; text-anchor: start" x="480.96" y="739.170313" transform="rotate(-0 480.96 739.170313)">Hydrophobic</text>
  </g>
  <g id="text_26">
   <text style="font-size: 8px; font-family: 'Liberation Sans', 'Arimo', 'DejaVu Sans'; text-anchor: start" x="607.68" y="739.170313" transform="rotate(-0 607.68 739.170313)">Mutation site</text>
  </g>
 </g>
 <defs>
  <clipPath id="p3d0edfca93">
   <rect x="53.82" y="75.6" width="612.36" height="612.36"/>
  </clipPath>
 </defs>
</svg>
