<?xml version="1.0" encoding="utf-8" standalone="no"?>
<!DOCTYPE svg PUBLIC "-//W3C//DTD SVG 1.1//EN"
  "http://www.w3.org/Graphics/SVG/1.1/DTD/svg11.dtd">
<svg xmlns:xlink="http://www.w3.org/1999/xlink" width="720pt" height="756pt" viewBox="0 0 720 756" xmlns="http://www.w3.org/2000/svg" version="1.1">
 <metadata>
  <rdf:RDF xmlns:dc="http://purl.org/dc/elements/1.1/" xmlns:cc="http://creativecommons.org/ns#" xmlns:rdf="http://www.w3.org/1999/02/22-rdf-syntax-ns#">
   <cc:Work>
    <dc:type rdf:resource="http://purl.org/dc/dcmitype/StillImage"/>
    <dc:date>2022-01-01T05:00:00+00:00</dc:date>
    <dc:format>image/svg+xml</dc:format>
    <dc:creator>
     <cc:Agent>
      <dc:title>Matplotlib v3.11.0, https://matplotlib.org/</dc:title>
     </cc:Agent>
    </dc:creator>
   </cc:Work>
  </rdf:RDF>
 </metadata>
 <defs>
  <style type="text/css">*{stroke-linejoin: round; stroke-linecap: butt}</style>
 </defs>
 <g id="figure_1">
  <g id="patch_1">
   <path d="M 0 756 
L 720 756 
L 720 0 
L 0 0 
z
" style="fill: #ffffff"/>
  </g>
  <g id="axes_1">
   <g id="line2d_1">
    <path d="M 468.534737 128.019265 
L 463.203774 133.105727 
L 457.936505 138.241174 
L 452.732929 143.425606 
L 447.593047 148.659023 
L 442.516859 153.941424 
L 437.504365 159.272811 
L 432.555565 164.653182 
L 427.670458 170.082538 
L 422.849045 175.560879 
L 418.091326 181.088205 
L 413.397301 186.664515 
L 408.766969 192.28981 
L 404.200331 197.964091 
L 399.697388 203.687356 
L 395.258137 209.459605 
L 390.882581 215.28084 
L 386.570719 221.151059 
L 382.32255 227.070264 
L 378.138075 233.038453 
L 374.017294 239.055627 
L 369.960206 245.121786 
L 365.966813 251.236929 
L 362.037113 257.401058 
L 358.171107 263.614171 
L 354.368795 269.876269 
L 350.630176 276.187352 
L 346.955252 282.54742 
L 343.344021 288.956472 
L 339.796484 295.41451 
" clip-path="url(#p63f16f3c2c)" style="fill: none; stroke: #75a025; stroke-opacity: 0.4; stroke-width: 4; stroke-linecap: round"/>
   </g>
   <g id="line2d_2">
    <path d="M 239.141353 136.956888 
L 237.330823 146.056555 
L 235.621376 155.160585 
L 234.013014 164.268978 
L 232.505736 173.381732 
L 231.099542 182.49885 
L 229.794432 191.62033 
L 228.590406 200.746172 
L 227.487464 209.876377 
L 226.485606 219.010945 
L 225.584832 228.149875 
L 224.785142 237.293167 
L 224.086537 246.440822 
L 223.489015 255.59284 
L 222.992577 264.74922 
L 222.597224 273.909963 
L 222.302954 283.075068 
L 222.109769 292.244536 
L 222.017667 301.418366 
L 222.02665 310.596559 
L 222.136717 319.779114 
L 222.347868 328.966032 
L 222.660102 338.157312 
L 223.073421 347.352955 
L 223.587824 356.55296 
L 224.203311 365.757328 
L 224.919882 374.966058 
L 225.737537 384.179151 
L 226.656277 393.396607 
L 227.6761 402.618425 
" clip-path="url(#p63f16f3c2c)" style="fill: none; stroke: #75a025; stroke-opacity: 0.4; stroke-width: 4; stroke-linecap: round"/>
   </g>
   <g id="line2d_3">
    <path d="M 86.385292 341.838817 
L 94.200939 340.37834 
L 102.019312 339.004526 
L 109.840414 337.717375 
L 117.664243 336.516887 
L 125.4908 335.403061 
L 133.320084 334.375899 
L 141.152096 333.4354 
L 148.986836 332.581564 
L 156.824304 331.814391 
L 164.664499 331.13388 
L 172.507422 330.540033 
L 180.353072 330.032849 
L 188.20145 329.612328 
L 196.052556 329.278469 
L 203.90639 329.031274 
L 211.762951 328.870742 
L 219.62224 328.796873 
L 227.484257 328.809666 
L 235.349001 328.909123 
L 243.216473 329.095243 
L 251.086672 329.368025 
L 258.959599 329.727471 
L 266.835254 330.17358 
L 274.713637 330.706351 
L 282.594747 331.325786 
L 290.478585 332.031883 
L 298.365151 332.824644 
L 306.254444 333.704068 
L 314.146465 334.670154 
" clip-path="url(#p63f16f3c2c)" style="fill: none; stroke: #75a025; stroke-opacity: 0.4; stroke-width: 4; stroke-linecap: round"/>
   </g>
   <g id="line2d_4">
    <path d="M 256.627255 188.852237 
L 324.339244 301.819946 
" clip-path="url(#p63f16f3c2c)" style="fill: none; stroke-dasharray: 7.2,5.4; stroke-dashoffset: 0; stroke: #ff9400; stroke-width: 1.8"/>
   </g>
   <g id="line2d_5">
    <path d="M 249.123896 193.349693 
L 316.835886 306.317402 
" clip-path="url(#p63f16f3c2c)" style="fill: none; stroke-dasharray: 7.2,5.4; stroke-dashoffset: 0; stroke: #ff9400; stroke-width: 1.8"/>
   </g>
   <g id="patch_2">
    <path d="M 395.292225 401.485623 
Q 472.248617 444.454678 547.749813 486.611217 
" clip-path="url(#p63f16f3c2c)" style="fill: none; stroke: #0279ee; stroke-width: 2; stroke-linecap: round"/>
    <path d="M 543.689936 477.472432 
L 547.749813 486.611217 
L 537.839814 487.949839 
" clip-path="url(#p63f16f3c2c)" style="fill: none; stroke: #0279ee; stroke-width: 2; stroke-linecap: round"/>
   </g>
   <g id="patch_3">
    <path d="M 196.866207 524.463214 
Q 240.992821 482.101755 283.917122 440.894514 
" clip-path="url(#p63f16f3c2c)" style="fill: none; stroke: #0279ee; stroke-width: 2; stroke-linecap: round"/>
    <path d="M 273.990831 442.106434 
L 283.917122 440.894514 
L 282.301204 450.763091 
" clip-path="url(#p63f16f3c2c)" style="fill: none; stroke: #0279ee; stroke-width: 2; stroke-linecap: round"/>
   </g>
   <g id="line2d_6">
    <path d="M 293.924478 431.287473 
L 283.603669 405.101578 
" clip-path="url(#p63f16f3c2c)" style="fill: none; stroke: #222222; stroke-width: 2; stroke-linecap: round"/>
   </g>
   <g id="line2d_7">
    <path d="M 321.762533 435.442337 
L 293.924478 431.287473 
" clip-path="url(#p63f16f3c2c)" style="fill: none; stroke: #222222; stroke-width: 2; stroke-linecap: round"/>
   </g>
   <g id="line2d_8">
    <path d="M 339.279778 413.411307 
L 321.762533 435.442337 
" clip-path="url(#p63f16f3c2c)" style="fill: none; stroke: #222222; stroke-width: 2; stroke-linecap: round"/>
   </g>
   <g id="line2d_9">
    <path d="M 328.958969 387.225412 
L 339.279778 413.411307 
" clip-path="url(#p63f16f3c2c)" style="fill: none; stroke: #222222; stroke-width: 2; stroke-linecap: round"/>
   </g>
   <g id="line2d_10">
    <path d="M 301.120915 383.070548 
L 283.603669 405.101578 
" clip-path="url(#p63f16f3c2c)" style="fill: none; stroke: #222222; stroke-width: 2; stroke-linecap: round"/>
   </g>
   <g id="line2d_11">
    <path d="M 301.120915 383.070548 
L 328.958969 387.225412 
" clip-path="url(#p63f16f3c2c)" style="fill: none; stroke: #222222; stroke-width: 2; stroke-linecap: round"/>
   </g>
   <g id="line2d_12">
    <path d="M 255.765614 400.946713 
L 227.92756 396.791848 
" clip-path="url(#p63f16f3c2c)" style="fill: none; stroke: #222222; stroke-width: 2; stroke-linecap: round"/>
   </g>
   <g id="line2d_13">
    <path d="M 255.765614 400.946713 
L 283.603669 405.101578 
" clip-path="url(#p63f16f3c2c)" style="fill: none; stroke: #222222; stroke-width: 2; stroke-linecap: round"/>
   </g>
   <g id="line2d_14">
    <path d="M 259.920479 373.108658 
L 255.765614 400.946713 
" clip-path="url(#p63f16f3c2c)" style="fill: none; stroke: #222222; stroke-width: 2; stroke-linecap: round"/>
   </g>
   <g id="line2d_15">
    <path d="M 251.61075 428.784768 
L 255.765614 400.946713 
" clip-path="url(#p63f16f3c2c)" style="fill: none; stroke: #222222; stroke-width: 2; stroke-linecap: round"/>
   </g>
   <g id="line2d_16">
    <path d="M 367.117833 417.566172 
L 339.279778 413.411307 
" clip-path="url(#p63f16f3c2c)" style="fill: none; stroke: #222222; stroke-width: 2; stroke-linecap: round"/>
   </g>
   <g id="line2d_17">
    <path d="M 377.438642 443.752067 
L 367.117833 417.566172 
" clip-path="url(#p63f16f3c2c)" style="fill: none; stroke: #222222; stroke-width: 2; stroke-linecap: round"/>
   </g>
   <g id="line2d_18">
    <path d="M 384.635079 395.535142 
L 367.117833 417.566172 
" clip-path="url(#p63f16f3c2c)" style="fill: none; stroke: #222222; stroke-width: 2; stroke-linecap: round"/>
   </g>
   <g id="line2d_19">
    <path d="M 412.473133 399.690006 
L 384.635079 395.535142 
" clip-path="url(#p63f16f3c2c)" style="fill: none; stroke: #222222; stroke-width: 2; stroke-linecap: round"/>
   </g>
   <g id="line2d_20">
    <path d="M 422.793942 425.875901 
L 412.473133 399.690006 
" clip-path="url(#p63f16f3c2c)" style="fill: none; stroke: #222222; stroke-width: 2; stroke-linecap: round"/>
   </g>
   <g id="line2d_21">
    <path d="M 418.639078 453.713956 
L 422.793942 425.875901 
" clip-path="url(#p63f16f3c2c)" style="fill: none; stroke: #222222; stroke-width: 2; stroke-linecap: round"/>
   </g>
   <g id="line2d_22">
    <path d="M 444.824973 443.393147 
L 418.639078 453.713956 
" clip-path="url(#p63f16f3c2c)" style="fill: none; stroke: #222222; stroke-width: 2; stroke-linecap: round"/>
   </g>
   <g id="line2d_23">
    <path d="M 444.824973 443.393147 
L 422.793942 425.875901 
" clip-path="url(#p63f16f3c2c)" style="fill: none; stroke: #222222; stroke-width: 2; stroke-linecap: round"/>
   </g>
   <g id="line2d_24">
    <path d="M 429.990379 377.658976 
L 412.473133 399.690006 
" clip-path="url(#p63f16f3c2c)" style="fill: none; stroke: #222222; stroke-width: 2; stroke-linecap: round"/>
   </g>
   <g id="line2d_25">
    <path d="M 457.828434 381.813841 
L 429.990379 377.658976 
" clip-path="url(#p63f16f3c2c)" style="fill: none; stroke: #222222; stroke-width: 2; stroke-linecap: round"/>
   </g>
   <g id="line2d_26">
    <path d="M 475.34568 359.782811 
L 457.828434 381.813841 
" clip-path="url(#p63f16f3c2c)" style="fill: none; stroke: #222222; stroke-width: 2; stroke-linecap: round"/>
   </g>
   <g id="line2d_27">
    <path d="M 492.862925 337.751781 
L 475.34568 359.782811 
" clip-path="url(#p63f16f3c2c)" style="fill: none; stroke: #222222; stroke-width: 2; stroke-linecap: round"/>
   </g>
   <g id="line2d_28">
    <path d="M 453.314649 342.265565 
L 475.34568 359.782811 
" clip-path="url(#p63f16f3c2c)" style="fill: none; stroke: #222222; stroke-width: 2; stroke-linecap: round"/>
   </g>
   <g id="line2d_29">
    <path d="M 497.37671 377.300057 
L 475.34568 359.782811 
" clip-path="url(#p63f16f3c2c)" style="fill: none; stroke: #222222; stroke-width: 2; stroke-linecap: round"/>
   </g>
   <g id="line2d_30">
    <path d="M 346.476215 365.194382 
L 328.958969 387.225412 
" clip-path="url(#p63f16f3c2c)" style="fill: none; stroke: #222222; stroke-width: 2; stroke-linecap: round"/>
   </g>
   <g id="line2d_31">
    <path d="M 336.155406 339.008487 
L 346.476215 365.194382 
" clip-path="url(#p63f16f3c2c)" style="fill: none; stroke: #222222; stroke-width: 2; stroke-linecap: round"/>
   </g>
   <g id="line2d_32">
    <path d="M 308.317352 334.853622 
L 336.155406 339.008487 
" clip-path="url(#p63f16f3c2c)" style="fill: none; stroke: #222222; stroke-width: 2; stroke-linecap: round"/>
   </g>
   <g id="line2d_33">
    <path d="M 297.996543 308.667728 
L 308.317352 334.853622 
" clip-path="url(#p63f16f3c2c)" style="fill: none; stroke: #222222; stroke-width: 2; stroke-linecap: round"/>
   </g>
   <g id="line2d_34">
    <path d="M 315.513788 286.636697 
L 297.996543 308.667728 
" clip-path="url(#p63f16f3c2c)" style="fill: none; stroke: #222222; stroke-width: 2; stroke-linecap: round"/>
   </g>
   <g id="line2d_35">
    <path d="M 343.351843 290.791562 
L 315.513788 286.636697 
" clip-path="url(#p63f16f3c2c)" style="fill: none; stroke: #222222; stroke-width: 2; stroke-linecap: round"/>
   </g>
   <g id="line2d_36">
    <path d="M 353.672652 316.977457 
L 343.351843 290.791562 
" clip-path="url(#p63f16f3c2c)" style="fill: none; stroke: #222222; stroke-width: 2; stroke-linecap: round"/>
   </g>
   <g id="line2d_37">
    <path d="M 353.672652 316.977457 
L 336.155406 339.008487 
" clip-path="url(#p63f16f3c2c)" style="fill: none; stroke: #222222; stroke-width: 2; stroke-linecap: round"/>
   </g>
   <g id="text_1">
    <g id="patch_4">
     <path d="M 289.351353 437.158332 
L 298.497603 437.158332 
L 298.497603 425.416613 
L 289.351353 425.416613 
z
" style="fill: #ffffff"/>
    </g>
    <text style="font-weight: 700; font-size: 12px; font-family: 'Liberation Sans', 'Arimo', 'DejaVu Sans'; text-anchor: middle; fill: #0879c0" x="293.924478" y="434.392941" transform="rotate(-0 293.924478 434.392941)">N</text>
   </g>
   <g id="text_2">
    <g id="patch_5">
     <path d="M 296.54779 388.941407 
L 305.69404 388.941407 
L 305.69404 377.199688 
L 296.54779 377.199688 
z
" style="fill: #ffffff"/>
    </g>
    <text style="font-weight: 700; font-size: 12px; font-family: 'Liberation Sans', 'Arimo', 'DejaVu Sans'; text-anchor: middle; fill: #0879c0" x="301.120915" y="386.176016" transform="rotate(-0 301.120915 386.176016)">N</text>
   </g>
   <g id="text_3">
    <g id="patch_6">
     <path d="M 256.015792 378.979518 
L 263.825167 378.979518 
L 263.825167 367.237799 
L 256.015792 367.237799 
z
" style="fill: #ffffff"/>
    </g>
    <text style="font-weight: 700; font-size: 12px; font-family: 'Liberation Sans', 'Arimo', 'DejaVu Sans'; text-anchor: middle; fill: #00a040" x="259.920479" y="376.214127" transform="rotate(-0 259.920479 376.214127)">F</text>
   </g>
   <g id="text_4">
    <g id="patch_7">
     <path d="M 247.706062 434.655627 
L 255.515437 434.655627 
L 255.515437 422.913908 
L 247.706062 422.913908 
z
" style="fill: #ffffff"/>
    </g>
    <text style="font-weight: 700; font-size: 12px; font-family: 'Liberation Sans', 'Arimo', 'DejaVu Sans'; text-anchor: middle; fill: #00a040" x="251.61075" y="431.890236" transform="rotate(-0 251.61075 431.890236)">F</text>
   </g>
   <g id="text_5">
    <g id="patch_8">
     <path d="M 372.531767 449.622926 
L 382.345517 449.622926 
L 382.345517 437.881207 
L 372.531767 437.881207 
z
" style="fill: #ffffff"/>
    </g>
    <text style="font-weight: 700; font-size: 12px; font-family: 'Liberation Sans', 'Arimo', 'DejaVu Sans'; text-anchor: middle; fill: #d40000" x="377.438642" y="446.857536" transform="rotate(-0 377.438642 446.857536)">O</text>
   </g>
   <g id="text_6">
    <g id="patch_9">
     <path d="M 380.061954 401.406001 
L 389.208204 401.406001 
L 389.208204 389.664282 
L 380.061954 389.664282 
z
" style="fill: #ffffff"/>
    </g>
    <text style="font-weight: 700; font-size: 12px; font-family: 'Liberation Sans', 'Arimo', 'DejaVu Sans'; text-anchor: middle; fill: #0879c0" x="384.635079" y="398.64061" transform="rotate(-0 384.635079 398.64061)">N</text>
   </g>
   <g id="text_7">
    <g id="patch_10">
     <path d="M 471.103492 365.65367 
L 479.587867 365.65367 
L 479.587867 353.911951 
L 471.103492 353.911951 
z
" style="fill: #ffffff"/>
    </g>
    <text style="font-weight: 700; font-size: 12px; font-family: 'Liberation Sans', 'Arimo', 'DejaVu Sans'; text-anchor: middle; fill: #b8860b" x="475.34568" y="362.88828" transform="rotate(-0 475.34568 362.88828)">S</text>
   </g>
   <g id="text_8">
    <g id="patch_11">
     <path d="M 448.407774 348.136424 
L 458.221524 348.136424 
L 458.221524 336.394706 
L 448.407774 336.394706 
z
" style="fill: #ffffff"/>
    </g>
    <text style="font-weight: 700; font-size: 12px; font-family: 'Liberation Sans', 'Arimo', 'DejaVu Sans'; text-anchor: middle; fill: #d40000" x="453.314649" y="345.371034" transform="rotate(-0 453.314649 345.371034)">O</text>
   </g>
   <g id="text_9">
    <g id="patch_12">
     <path d="M 492.469835 383.170916 
L 502.283585 383.170916 
L 502.283585 371.429197 
L 492.469835 371.429197 
z
" style="fill: #ffffff"/>
    </g>
    <text style="font-weight: 700; font-size: 12px; font-family: 'Liberation Sans', 'Arimo', 'DejaVu Sans'; text-anchor: middle; fill: #d40000" x="497.37671" y="380.405525" transform="rotate(-0 497.37671 380.405525)">O</text>
   </g>
   <g id="text_10">
    <g id="patch_13">
     <path d="M 341.56934 371.065241 
L 351.38309 371.065241 
L 351.38309 359.323523 
L 341.56934 359.323523 
z
" style="fill: #ffffff"/>
    </g>
    <text style="font-weight: 700; font-size: 12px; font-family: 'Liberation Sans', 'Arimo', 'DejaVu Sans'; text-anchor: middle; fill: #d40000" x="346.476215" y="368.299851" transform="rotate(-0 346.476215 368.299851)">O</text>
   </g>
   <g id="patch_14">
    <path d="M 450.757942 178.836004 
C 458.104598 178.836004 465.151343 175.917146 470.346214 170.722276 
C 475.541084 165.527405 478.459942 158.48066 478.459942 151.134004 
C 478.459942 143.787347 475.541084 136.740602 470.346214 131.545732 
C 465.151343 126.350861 458.104598 123.432004 450.757942 123.432004 
C 443.411285 123.432004 436.36454 126.350861 431.16967 131.545732 
C 425.974799 136.740602 423.055942 143.787347 423.055942 151.134004 
C 423.055942 158.48066 425.974799 165.527405 431.16967 170.722276 
C 436.36454 175.917146 443.411285 178.836004 450.757942 178.836004 
z
" clip-path="url(#p63f16f3c2c)" style="fill: #8bc34a; stroke: #222222; stroke-width: 1.2; stroke-linejoin: miter"/>
   </g>
   <g id="patch_15">
    <path d="M 237.884054 193.79177 
C 245.230711 193.79177 252.277456 190.872912 257.472326 185.678042 
C 262.667197 180.483171 265.586054 173.436426 265.586054 166.08977 
C 265.586054 158.743113 262.667197 151.696368 257.472326 146.501498 
C 252.277456 141.306627 245.230711 138.38777 237.884054 138.38777 
C 230.537398 138.38777 223.490653 141.306627 218.295782 146.501498 
C 213.100912 151.696368 210.182054 158.743113 210.182054 166.08977 
C 210.182054 173.436426 213.100912 180.483171 218.295782 185.678042 
C 223.490653 190.872912 230.537398 193.79177 237.884054 193.79177 
z
" clip-path="url(#p63f16f3c2c)" style="fill: #f5a623; stroke: #222222; stroke-width: 1.2; stroke-linejoin: miter"/>
   </g>
   <g id="patch_16">
    <path d="M 115.53086 368.623476 
C 122.877516 368.623476 129.924261 365.704618 135.119132 360.509748 
C 140.314002 355.314877 143.23286 348.268132 143.23286 340.921476 
C 143.23286 333.57482 140.314002 326.528074 135.119132 321.333204 
C 129.924261 316.138333 122.877516 313.219476 115.53086 313.219476 
C 108.184203 313.219476 101.137458 316.138333 95.942588 321.333204 
C 90.747717 326.528074 87.82886 333.57482 87.82886 340.921476 
C 87.82886 348.268132 90.747717 355.314877 95.942588 360.509748 
C 101.137458 365.704618 108.184203 368.623476 115.53086 368.623476 
z
" clip-path="url(#p63f16f3c2c)" style="fill: #8bc34a; stroke: #222222; stroke-width: 1.2; stroke-linejoin: miter"/>
   </g>
   <g id="patch_17">
    <path d="M 576.410852 530.316278 
C 583.757508 530.316278 590.804254 527.39742 595.999124 522.20255 
C 601.193995 517.007679 604.112852 509.960934 604.112852 502.614278 
C 604.112852 495.267621 601.193995 488.220876 595.999124 483.026006 
C 590.804254 477.831135 583.757508 474.912278 576.410852 474.912278 
C 569.064196 474.912278 562.017451 477.831135 556.82258 483.026006 
C 551.62771 488.220876 548.708852 495.267621 548.708852 502.614278 
C 548.708852 509.960934 551.62771 517.007679 556.82258 522.20255 
C 562.017451 527.39742 569.064196 530.316278 576.410852 530.316278 
z
" clip-path="url(#p63f16f3c2c)" style="fill: #f5a623; stroke: #dc3912; stroke-width: 2.8; stroke-linejoin: miter"/>
   </g>
   <g id="patch_18">
    <path d="M 174.387011 573.745197 
C 181.733667 573.745197 188.780412 570.826339 193.975283 565.631469 
C 199.170153 560.436598 202.089011 553.389853 202.089011 546.043197 
C 202.089011 538.69654 199.170153 531.649795 193.975283 526.454924 
C 188.780412 521.260054 181.733667 518.341197 174.387011 518.341197 
C 167.040354 518.341197 159.993609 521.260054 154.798738 526.454924 
C 149.603868 531.649795 146.685011 538.69654 146.685011 546.043197 
C 146.685011 553.389853 149.603868 560.436598 154.798738 565.631469 
C 159.993609 570.826339 167.040354 573.745197 174.387011 573.745197 
z
" clip-path="url(#p63f16f3c2c)" style="fill: #5087c5; stroke: #222222; stroke-width: 1.2; stroke-linejoin: miter"/>
   </g>
   <g id="text_11">
    <text style="font-weight: 700; font-size: 9.5px; font-family: 'Liberation Sans', 'Arimo', 'DejaVu Sans'; text-anchor: middle; fill: #222222" x="450.757942" y="153.5925" transform="rotate(-0 450.757942 153.5925)">V570</text>
   </g>
   <g id="text_12">
    <text style="font-weight: 700; font-size: 9.5px; font-family: 'Liberation Sans', 'Arimo', 'DejaVu Sans'; text-anchor: middle; fill: #222222" x="237.884054" y="168.548266" transform="rotate(-0 237.884054 168.548266)">Y849</text>
   </g>
   <g id="text_13">
    <text style="font-weight: 700; font-size: 9.5px; font-family: 'Liberation Sans', 'Arimo', 'DejaVu Sans'; text-anchor: middle; fill: #222222" x="115.53086" y="343.379972" transform="rotate(-0 115.53086 343.379972)">F917</text>
   </g>
   <g id="text_14">
    <text style="font-weight: 700; font-size: 9.5px; font-family: 'Liberation Sans', 'Arimo', 'DejaVu Sans'; text-anchor: middle; fill: #222222" x="576.410852" y="505.072774" transform="rotate(-0 576.410852 505.072774)">S727</text>
   </g>
   <g id="text_15">
    <text style="font-weight: 700; font-size: 9.5px; font-family: 'Liberation Sans', 'Arimo', 'DejaVu Sans'; text-anchor: middle; fill: #ffffff" x="174.387011" y="548.501693" transform="rotate(-0 174.387011 548.501693)">K898</text>
   </g>
  </g>
  <g id="patch_19">
   <path d="M 130.640391 714.42 
Q 135.83969 714.42 138.914724 714.42 
" style="fill: none; stroke: #0279ee; stroke-width: 1.9; stroke-linecap: round"/>
   <path d="M 134.114724 712.02 
L 138.914724 714.42 
L 134.114724 716.82 
" style="fill: none; stroke: #0279ee; stroke-width: 1.9; stroke-linecap: round"/>
  </g>
  <g id="patch_20">
   <path d="M 92.16 743.148 
C 93.68757 743.148 95.15278 742.510745 96.232935 741.376582 
C 97.31309 740.242419 97.92 738.703948 97.92 737.1 
C 97.92 735.496052 97.31309 733.957581 96.232935 732.823418 
C 95.15278 731.689255 93.68757 731.052 92.16 731.052 
C 90.63243 731.052 89.16722 731.689255 88.087065 732.823418 
C 87.00691 733.957581 86.4 735.496052 86.4 737.1 
C 86.4 738.703948 87.00691 740.242419 88.087065 741.376582 
C 89.16722 742.510745 90.63243 743.148 92.16 743.148 
z
" style="fill: #5087c5; stroke: #222222; stroke-width: 0.8; stroke-linejoin: miter"/>
  </g>
  <g id="patch_21">
   <path d="M 218.88 743.148 
C 220.40757 743.148 221.87278 742.510745 222.952935 741.376582 
C 224.03309 740.242419 224.64 738.703948 224.64 737.1 
C 224.64 735.496052 224.03309 733.957581 222.952935 732.823418 
C 221.87278 731.689255 220.40757 731.052 218.88 731.052 
C 217.35243 731.052 215.88722 731.689255 214.807065 732.823418 
C 213.72691 733.957581 213.12 735.496052 213.12 737.1 
C 213.12 738.703948 213.72691 740.242419 214.807065 741.376582 
C 215.88722 742.510745 217.35243 743.148 218.88 743.148 
z
" style="fill: #d9584c; stroke: #222222; stroke-width: 0.8; stroke-linejoin: miter"/>
  </g>
  <g id="patch_22">
   <path d="M 345.6 743.148 
C 347.12757 743.148 348.59278 742.510745 349.672935 741.376582 
C 350.75309 740.242419 351.36 738.703948 351.36 737.1 
C 351.36 735.496052 350.75309 733.957581 349.672935 732.823418 
C 348.59278 731.689255 347.12757 731.052 345.6 731.052 
C 344.07243 731.052 342.60722 731.689255 341.527065 732.823418 
C 340.44691 733.957581 339.84 735.496052 339.84 737.1 
C 339.84 738.703948 340.44691 740.242419 341.527065 741.376582 
C 342.60722 742.510745 344.07243 743.148 345.6 743.148 
z
" style="fill: #f5a623; stroke: #222222; stroke-width: 0.8; stroke-linejoin: miter"/>
  </g>
  <g id="patch_23">
   <path d="M 472.32 743.148 
C 473.84757 743.148 475.31278 742.510745 476.392935 741.376582 
C 477.47309 740.242419 478.08 738.703948 478.08 737.1 
C 478.08 735.496052 477.47309 733.957581 476.392935 732.823418 
C 475.31278 731.689255 473.84757 731.052 472.32 731.052 
C 470.79243 731.052 469.32722 731.689255 468.247065 732.823418 
C 467.16691 733.957581 466.56 735.496052 466.56 737.1 
C 466.56 738.703948 467.16691 740.242419 468.247065 741.376582 
C 469.32722 742.510745 470.79243 743.148 472.32 743.148 
z
" style="fill: #8bc34a; stroke: #222222; stroke-width: 0.8; stroke-linejoin: miter"/>
  </g>
  <g id="patch_24">
   <path d="M 599.04 743.148 
C 600.56757 743.148 602.03278 742.510745 603.112935 741.376582 
C 604.19309 740.242419 604.8 738.703948 604.8 737.1 
C 604.8 735.496052 604.19309 733.957581 603.112935 732.823418 
C 602.03278 731.689255 600.56757 731.052 599.04 731.052 
C 597.51243 731.052 596.04722 731.689255 594.967065 732.823418 
C 593.88691 733.957581 593.28 735.496052 593.28 737.1 
C 593.28 738.703948 593.88691 740.242419 594.967065 741.376582 
C 596.04722 742.510745 597.51243 743.148 599.04 743.148 
z
" style="fill: #ffffff; stroke: #dc3912; stroke-width: 2.5; stroke-linejoin: miter"/>
  </g>
  <g id="line2d_38">
   <path d="M 339.84 714.42 
L 354.24 714.42 
" style="fill: none; stroke: #75a025; stroke-opacity: 0.4; stroke-width: 4; stroke-linecap: square"/>
  </g>
  <g id="line2d_39">
   <path d="M 551.04 710.64 
L 565.44 710.64 
" style="fill: none; stroke-dasharray: 7.2,5.4; stroke-dashoffset: 0; stroke: #ff9400; stroke-width: 1.8"/>
  </g>
  <g id="line2d_40">
   <path d="M 551.04 718.2 
L 565.44 718.2 
" style="fill: none; stroke-dasharray: 7.2,5.4; stroke-dashoffset: 0; stroke: #ff9400; stroke-width: 1.8"/>
  </g>
  <g id="text_16">
   <text style="font-weight: 700; font-size: 14px; font-family: 'Liberation Sans', 'Arimo', 'DejaVu Sans'; text-anchor: middle" x="360" y="21.532383" transform="rotate(-0 360 21.532383)">C727S × 7GQU · VVD-214 — NEUTRAL</text>
  </g>
  <g id="text_17">
   <text style="font-size: 10.5px; font-family: 'Liberation Sans', 'Arimo', 'DejaVu Sans'; text-anchor: middle" x="360" y="41.66925" transform="rotate(-0 360 41.66925)">ΔS = -0.06  |  RMSD vs WT = 0.23 Å  |  0 lost / 4 retained / 1 gained</text>
  </g>
  <g id="text_18">
   <text style="font-size: 10.5px; font-family: 'Liberation Sans', 'Arimo', 'DejaVu Sans'; text-anchor: middle" x="360" y="61.320287" transform="rotate(-0 360 61.320287)">PLIP: 3 hydrophobic · 2 H-bond · 1 π-stack</text>
  </g>
  <g id="text_19">
   <text style="font-size: 8.5px; font-family: 'Liberation Sans', 'Arimo', 'DejaVu Sans'; text-anchor: start" x="146.64" y="716.619707" transform="rotate(-0 146.64 716.619707)">H-bond</text>
  </g>
  <g id="text_20">
   <text style="font-size: 8.5px; font-family: 'Liberation Sans', 'Arimo', 'DejaVu Sans'; text-anchor: start" x="357.84" y="716.619707" transform="rotate(-0 357.84 716.619707)">Hydrophobic</text>
  </g>
  <g id="text_21">
   <text style="font-size: 8.5px; font-family: 'Liberation Sans', 'Arimo', 'DejaVu Sans'; text-anchor: start" x="569.04" y="716.619707" transform="rotate(-0 569.04 716.619707)">π-stack</text>
  </g>
  <g id="text_22">
   <text style="font-size: 8px; font-family: 'Liberation Sans', 'Arimo', 'DejaVu Sans'; text-anchor: start" x="100.8" y="739.170313" transform="rotate(-0 100.8 739.170313)">Basic</text>
  </g>
  <g id="text_23">
   <text style="font-size: 8px; font-family: 'Liberation Sans', 'Arimo', 'DejaVu Sans'; text-anchor: start" x="227.52" y="739.170313" transform="rotate(-0 227.52 739.170313)">Acidic</text>
  </g>
  <g id="text_24">
   <text style="font-size: 8px; font-family: 'Liberation Sans', 'Arimo', 'DejaVu Sans'; text-anchor: start" x="354.24" y="739.170313" transform="rotate(-0 354.24 739.170313)">Polar</text>
  </g>
  <g id="text_25">
   <text style="font-size: 8px; font-family: 'Liberation Sans', 'Arimo', 'DejaVu Sans'; text-anchor: start" x="480.96" y="739.170313" transform="rotate(-0 480.96 739.170313)">Hydrophobic</text>
  </g>
  <g id="text_26">
   <text style="font-size: 8px; font-family: 'Liberation Sans', 'Arimo', 'DejaVu Sans'; text-anchor: start" x="607.68" y="739.170313" transform="rotate(-0 607.68 739.170313)">Mutation site</text>
  </g>
 </g>
 <defs>
  <clipPath id="p63f16f3c2c">
   <rect x="53.82" y="75.6" width="612.36" height="612.36"/>
  </clipPath>
 </defs>
</svg>
