<?xml version="1.0" encoding="utf-8" standalone="no"?>
<!DOCTYPE svg PUBLIC "-//W3C//DTD SVG 1.1//EN"
  "http://www.w3.org/Graphics/SVG/1.1/DTD/svg11.dtd">
<svg xmlns:xlink="http://www.w3.org/1999/xlink" width="720pt" height="756pt" viewBox="0 0 720 756" xmlns="http://www.w3.org/2000/svg" version="1.1">
 <metadata>
  <rdf:RDF xmlns:dc="http://purl.org/dc/elements/1.1/" xmlns:cc="http://creativecommons.org/ns#" xmlns:rdf="http://www.w3.org/1999/02/22-rdf-syntax-ns#">
   <cc:Work>
    <dc:type rdf:resource="http://purl.org/dc/dcmitype/StillImage"/>
    <dc:date>2022-01-01T05:00:00+00:00</dc:date>
    <dc:format>image/svg+xml</dc:format>
    <dc:creator>
     <cc:Agent>
      <dc:title>Matplotlib v3.11.0, https://matplotlib.org/</dc:title>
     </cc:Agent>
    </dc:creator>
   </cc:Work>
  </rdf:RDF>
 </metadata>
 <defs>
  <style type="text/css">*{stroke-linejoin: round; stroke-linecap: butt}</style>
 </defs>
 <g id="figure_1">
  <g id="patch_1">
   <path d="M 0 756 
L 720 756 
L 720 0 
L 0 0 
z
" style="fill: #ffffff"/>
  </g>
  <g id="axes_1">
   <g id="line2d_1">
    <path d="M 505.963005 147.856383 
L 497.459124 153.388509 
L 489.029024 159.003073 
L 480.672702 164.700076 
L 472.390161 170.479517 
L 464.181398 176.341396 
L 456.046415 182.285714 
L 447.985212 188.312469 
L 439.997787 194.421664 
L 432.084143 200.613296 
L 424.244278 206.887366 
L 416.478192 213.243875 
L 408.785885 219.682822 
L 401.167359 226.204208 
L 393.622611 232.808032 
L 386.151643 239.494293 
L 378.754455 246.262994 
L 371.431045 253.114132 
L 364.181416 260.047709 
L 357.005565 267.063724 
L 349.903495 274.162177 
L 342.875203 281.343069 
L 335.920691 288.606399 
L 329.039959 295.952167 
L 322.233006 303.380373 
L 315.499832 310.891018 
L 308.840438 318.4841 
L 302.254823 326.159622 
L 295.742988 333.917581 
L 289.304932 341.757979 
" clip-path="url(#p24d5246068)" style="fill: none; stroke: #75a025; stroke-opacity: 0.4; stroke-width: 4; stroke-linecap: round"/>
   </g>
   <g id="line2d_2">
    <path d="M 488.54115 138.462703 
L 488.59299 148.769564 
L 488.533664 159.059824 
L 488.363171 169.333484 
L 488.081512 179.590541 
L 487.688687 189.830998 
L 487.184696 200.054853 
L 486.569538 210.262107 
L 485.843214 220.45276 
L 485.005724 230.626812 
L 484.057068 240.784262 
L 482.997245 250.925111 
L 481.826256 261.049359 
L 480.5441 271.157006 
L 479.150779 281.248051 
L 477.646291 291.322495 
L 476.030636 301.380338 
L 474.303816 311.42158 
L 472.465829 321.44622 
L 470.516676 331.45426 
L 468.456357 341.445697 
L 466.284871 351.420534 
L 464.002219 361.37877 
L 461.608401 371.320404 
L 459.103417 381.245437 
L 456.487266 391.153868 
L 453.759949 401.045699 
L 450.921466 410.920928 
L 447.971816 420.779556 
L 444.911 430.621583 
" clip-path="url(#p24d5246068)" style="fill: none; stroke: #75a025; stroke-opacity: 0.4; stroke-width: 4; stroke-linecap: round"/>
   </g>
   <g id="line2d_3">
    <path d="M 535.247498 596.251767 
L 532.063925 590.044754 
L 528.818758 583.882385 
L 525.511996 577.76466 
L 522.143639 571.69158 
L 518.713688 565.663145 
L 515.222143 559.679353 
L 511.669003 553.740206 
L 508.054269 547.845704 
L 504.377941 541.995846 
L 500.640018 536.190632 
L 496.840501 530.430062 
L 492.979389 524.714137 
L 489.056683 519.042856 
L 485.072383 513.41622 
L 481.026488 507.834227 
L 476.918999 502.29688 
L 472.749915 496.804176 
L 468.519237 491.356117 
L 464.226965 485.952703 
L 459.873098 480.593932 
L 455.457637 475.279806 
L 450.980581 470.010325 
L 446.441931 464.785487 
L 441.841687 459.605295 
L 437.179848 454.469746 
L 432.456415 449.378842 
L 427.671388 444.332582 
L 422.824766 439.330966 
L 417.916549 434.373995 
" clip-path="url(#p24d5246068)" style="fill: none; stroke: #75a025; stroke-opacity: 0.4; stroke-width: 4; stroke-linecap: round"/>
   </g>
   <g id="line2d_4">
    <path d="M 636.59031 374.118819 
L 629.166248 376.595878 
L 621.72785 378.988801 
L 614.275116 381.29759 
L 606.808047 383.522243 
L 599.326642 385.66276 
L 591.830902 387.719143 
L 584.320826 389.69139 
L 576.796415 391.579502 
L 569.257667 393.383479 
L 561.704585 395.10332 
L 554.137166 396.739026 
L 546.555412 398.290597 
L 538.959323 399.758032 
L 531.348898 401.141332 
L 523.724137 402.440497 
L 516.08504 403.655527 
L 508.431608 404.786421 
L 500.763841 405.83318 
L 493.081737 406.795804 
L 485.385298 407.674292 
L 477.674524 408.468645 
L 469.949414 409.178863 
L 462.209968 409.804945 
L 454.456187 410.346893 
L 446.68807 410.804705 
L 438.905617 411.178381 
L 431.108829 411.467923 
L 423.297705 411.673329 
L 415.472246 411.794599 
" clip-path="url(#p24d5246068)" style="fill: none; stroke: #75a025; stroke-opacity: 0.4; stroke-width: 4; stroke-linecap: round"/>
   </g>
   <g id="line2d_5">
    <path d="M 636.757698 382.803304 
L 624.970422 379.369188 
L 613.16576 376.067824 
L 601.343712 372.899212 
L 589.504278 369.863353 
L 577.647459 366.960246 
L 565.773253 364.189891 
L 553.881662 361.552288 
L 541.972686 359.047438 
L 530.046323 356.67534 
L 518.102575 354.435994 
L 506.141441 352.329401 
L 494.162921 350.35556 
L 482.167016 348.514471 
L 470.153724 346.806135 
L 458.123047 345.230551 
L 446.074985 343.787719 
L 434.009536 342.477639 
L 421.926702 341.300312 
L 409.826482 340.255737 
L 397.708876 339.343914 
L 385.573884 338.564844 
L 373.421507 337.918526 
L 361.251744 337.40496 
L 349.064595 337.024147 
L 336.86006 336.776085 
L 324.63814 336.660777 
L 312.398834 336.67822 
L 300.142142 336.828416 
L 287.868065 337.111364 
" clip-path="url(#p24d5246068)" style="fill: none; stroke: #75a025; stroke-opacity: 0.4; stroke-width: 4; stroke-linecap: round"/>
   </g>
   <g id="line2d_6">
    <path d="M 90.373142 323.389529 
L 97.037758 321.997698 
L 103.706277 320.680011 
L 110.378701 319.436468 
L 117.055029 318.267068 
L 123.735261 317.171812 
L 130.419398 316.1507 
L 137.107438 315.203731 
L 143.799383 314.330907 
L 150.495232 313.532226 
L 157.194986 312.807688 
L 163.898643 312.157295 
L 170.606205 311.581045 
L 177.317671 311.078939 
L 184.033041 310.650976 
L 190.752315 310.297158 
L 197.475494 310.017483 
L 204.202576 309.811951 
L 210.933563 309.680564 
L 217.668454 309.62332 
L 224.40725 309.64022 
L 231.149949 309.731263 
L 237.896553 309.896451 
L 244.647061 310.135782 
L 251.401473 310.449257 
L 258.159789 310.836875 
L 264.92201 311.298637 
L 271.688135 311.834543 
L 278.458164 312.444593 
L 285.232097 313.128786 
" clip-path="url(#p24d5246068)" style="fill: none; stroke: #75a025; stroke-opacity: 0.4; stroke-width: 4; stroke-linecap: round"/>
   </g>
   <g id="line2d_7">
    <path d="M 97.441856 302.775771 
L 101.332038 307.354973 
L 105.265096 311.884625 
L 109.241028 316.364728 
L 113.259835 320.795281 
L 117.321516 325.176285 
L 121.426072 329.507739 
L 125.573502 333.789643 
L 129.763807 338.021998 
L 133.996986 342.204804 
L 138.27304 346.33806 
L 142.591969 350.421766 
L 146.953772 354.455923 
L 151.35845 358.440531 
L 155.806002 362.375588 
L 160.296429 366.261097 
L 164.829731 370.097055 
L 169.405907 373.883465 
L 174.024958 377.620324 
L 178.686883 381.307634 
L 183.391683 384.945395 
L 188.139357 388.533606 
L 192.929906 392.072268 
L 197.76333 395.561379 
L 202.639628 399.000942 
L 207.5588 402.390955 
L 212.520848 405.731418 
L 217.525769 409.022332 
L 222.573566 412.263696 
L 227.664237 415.455511 
" clip-path="url(#p24d5246068)" style="fill: none; stroke: #75a025; stroke-opacity: 0.4; stroke-width: 4; stroke-linecap: round"/>
   </g>
   <g id="patch_2">
    <path d="M 390.899619 386.101118 
Q 483.801211 383.067396 575.037024 380.088071 
" clip-path="url(#p24d5246068)" style="fill: none; stroke: #0279ee; stroke-width: 2; stroke-linecap: round"/>
    <path d="M 566.845459 374.35237 
L 575.037024 380.088071 
L 567.237113 386.345977 
" clip-path="url(#p24d5246068)" style="fill: none; stroke: #0279ee; stroke-width: 2; stroke-linecap: round"/>
   </g>
   <g id="patch_3">
    <path d="M 192.412025 519.16455 
Q 238.514987 481.370462 283.329028 444.633 
" clip-path="url(#p24d5246068)" style="fill: none; stroke: #0279ee; stroke-width: 2; stroke-linecap: round"/>
    <path d="M 273.33835 445.06469 
L 283.329028 444.633 
L 280.946061 454.344924 
" clip-path="url(#p24d5246068)" style="fill: none; stroke: #0279ee; stroke-width: 2; stroke-linecap: round"/>
   </g>
   <g id="line2d_8">
    <path d="M 322.339713 435.719331 
L 336.378243 411.168337 
" clip-path="url(#p24d5246068)" style="fill: none; stroke: #222222; stroke-width: 2; stroke-linecap: round"/>
   </g>
   <g id="line2d_9">
    <path d="M 322.135723 386.735118 
L 336.378243 411.168337 
" clip-path="url(#p24d5246068)" style="fill: none; stroke: #222222; stroke-width: 2; stroke-linecap: round"/>
   </g>
   <g id="line2d_10">
    <path d="M 294.058665 435.837104 
L 322.339713 435.719331 
" clip-path="url(#p24d5246068)" style="fill: none; stroke: #222222; stroke-width: 2; stroke-linecap: round"/>
   </g>
   <g id="line2d_11">
    <path d="M 293.854675 386.852891 
L 322.135723 386.735118 
" clip-path="url(#p24d5246068)" style="fill: none; stroke: #222222; stroke-width: 2; stroke-linecap: round"/>
   </g>
   <g id="line2d_12">
    <path d="M 279.816145 411.403885 
L 293.854675 386.852891 
" clip-path="url(#p24d5246068)" style="fill: none; stroke: #222222; stroke-width: 2; stroke-linecap: round"/>
   </g>
   <g id="line2d_13">
    <path d="M 279.816145 411.403885 
L 294.058665 435.837104 
" clip-path="url(#p24d5246068)" style="fill: none; stroke: #222222; stroke-width: 2; stroke-linecap: round"/>
   </g>
   <g id="line2d_14">
    <path d="M 364.659291 411.050564 
L 378.697821 386.49957 
" clip-path="url(#p24d5246068)" style="fill: none; stroke: #222222; stroke-width: 2; stroke-linecap: round"/>
   </g>
   <g id="line2d_15">
    <path d="M 364.659291 411.050564 
L 336.378243 411.168337 
" clip-path="url(#p24d5246068)" style="fill: none; stroke: #222222; stroke-width: 2; stroke-linecap: round"/>
   </g>
   <g id="line2d_16">
    <path d="M 378.901811 435.483784 
L 364.659291 411.050564 
" clip-path="url(#p24d5246068)" style="fill: none; stroke: #222222; stroke-width: 2; stroke-linecap: round"/>
   </g>
   <g id="line2d_17">
    <path d="M 406.978869 386.381797 
L 378.697821 386.49957 
" clip-path="url(#p24d5246068)" style="fill: none; stroke: #222222; stroke-width: 2; stroke-linecap: round"/>
   </g>
   <g id="line2d_18">
    <path d="M 421.221389 410.815017 
L 406.978869 386.381797 
" clip-path="url(#p24d5246068)" style="fill: none; stroke: #222222; stroke-width: 2; stroke-linecap: round"/>
   </g>
   <g id="line2d_19">
    <path d="M 421.339162 439.096065 
L 421.221389 410.815017 
" clip-path="url(#p24d5246068)" style="fill: none; stroke: #222222; stroke-width: 2; stroke-linecap: round"/>
   </g>
   <g id="line2d_20">
    <path d="M 445.772382 424.853546 
L 421.339162 439.096065 
" clip-path="url(#p24d5246068)" style="fill: none; stroke: #222222; stroke-width: 2; stroke-linecap: round"/>
   </g>
   <g id="line2d_21">
    <path d="M 445.772382 424.853546 
L 421.221389 410.815017 
" clip-path="url(#p24d5246068)" style="fill: none; stroke: #222222; stroke-width: 2; stroke-linecap: round"/>
   </g>
   <g id="line2d_22">
    <path d="M 421.017399 361.830804 
L 406.978869 386.381797 
" clip-path="url(#p24d5246068)" style="fill: none; stroke: #222222; stroke-width: 2; stroke-linecap: round"/>
   </g>
   <g id="line2d_23">
    <path d="M 449.298447 361.71303 
L 421.017399 361.830804 
" clip-path="url(#p24d5246068)" style="fill: none; stroke: #222222; stroke-width: 2; stroke-linecap: round"/>
   </g>
   <g id="line2d_24">
    <path d="M 463.540967 386.14625 
L 449.298447 361.71303 
" clip-path="url(#p24d5246068)" style="fill: none; stroke: #222222; stroke-width: 2; stroke-linecap: round"/>
   </g>
   <g id="line2d_25">
    <path d="M 439.107747 400.388769 
L 463.540967 386.14625 
" clip-path="url(#p24d5246068)" style="fill: none; stroke: #222222; stroke-width: 2; stroke-linecap: round"/>
   </g>
   <g id="line2d_26">
    <path d="M 487.974186 371.90373 
L 463.540967 386.14625 
" clip-path="url(#p24d5246068)" style="fill: none; stroke: #222222; stroke-width: 2; stroke-linecap: round"/>
   </g>
   <g id="line2d_27">
    <path d="M 477.783486 410.579469 
L 463.540967 386.14625 
" clip-path="url(#p24d5246068)" style="fill: none; stroke: #222222; stroke-width: 2; stroke-linecap: round"/>
   </g>
   <g id="line2d_28">
    <path d="M 463.336977 337.162037 
L 449.298447 361.71303 
" clip-path="url(#p24d5246068)" style="fill: none; stroke: #222222; stroke-width: 2; stroke-linecap: round"/>
   </g>
   <g id="line2d_29">
    <path d="M 491.618025 337.044263 
L 463.336977 337.162037 
" clip-path="url(#p24d5246068)" style="fill: none; stroke: #222222; stroke-width: 2; stroke-linecap: round"/>
   </g>
   <g id="line2d_30">
    <path d="M 251.535097 411.521658 
L 279.816145 411.403885 
" clip-path="url(#p24d5246068)" style="fill: none; stroke: #222222; stroke-width: 2; stroke-linecap: round"/>
   </g>
   <g id="line2d_31">
    <path d="M 223.254048 411.639432 
L 251.535097 411.521658 
" clip-path="url(#p24d5246068)" style="fill: none; stroke: #222222; stroke-width: 2; stroke-linecap: round"/>
   </g>
   <g id="line2d_32">
    <path d="M 251.417323 383.24061 
L 251.535097 411.521658 
" clip-path="url(#p24d5246068)" style="fill: none; stroke: #222222; stroke-width: 2; stroke-linecap: round"/>
   </g>
   <g id="line2d_33">
    <path d="M 251.65287 439.802707 
L 251.535097 411.521658 
" clip-path="url(#p24d5246068)" style="fill: none; stroke: #222222; stroke-width: 2; stroke-linecap: round"/>
   </g>
   <g id="line2d_34">
    <path d="M 336.174253 362.184124 
L 322.135723 386.735118 
" clip-path="url(#p24d5246068)" style="fill: none; stroke: #222222; stroke-width: 2; stroke-linecap: round"/>
   </g>
   <g id="line2d_35">
    <path d="M 321.931734 337.750905 
L 336.174253 362.184124 
" clip-path="url(#p24d5246068)" style="fill: none; stroke: #222222; stroke-width: 2; stroke-linecap: round"/>
   </g>
   <g id="line2d_36">
    <path d="M 293.650685 337.868678 
L 321.931734 337.750905 
" clip-path="url(#p24d5246068)" style="fill: none; stroke: #222222; stroke-width: 2; stroke-linecap: round"/>
   </g>
   <g id="line2d_37">
    <path d="M 335.970263 313.199911 
L 321.931734 337.750905 
" clip-path="url(#p24d5246068)" style="fill: none; stroke: #222222; stroke-width: 2; stroke-linecap: round"/>
   </g>
   <g id="line2d_38">
    <path d="M 279.408166 313.435458 
L 293.650685 337.868678 
" clip-path="url(#p24d5246068)" style="fill: none; stroke: #222222; stroke-width: 2; stroke-linecap: round"/>
   </g>
   <g id="line2d_39">
    <path d="M 321.727744 288.766691 
L 335.970263 313.199911 
" clip-path="url(#p24d5246068)" style="fill: none; stroke: #222222; stroke-width: 2; stroke-linecap: round"/>
   </g>
   <g id="line2d_40">
    <path d="M 293.446695 288.884465 
L 321.727744 288.766691 
" clip-path="url(#p24d5246068)" style="fill: none; stroke: #222222; stroke-width: 2; stroke-linecap: round"/>
   </g>
   <g id="line2d_41">
    <path d="M 293.446695 288.884465 
L 279.408166 313.435458 
" clip-path="url(#p24d5246068)" style="fill: none; stroke: #222222; stroke-width: 2; stroke-linecap: round"/>
   </g>
   <g id="text_1">
    <g id="patch_4">
     <path d="M 289.48554 441.707964 
L 298.63179 441.707964 
L 298.63179 429.966245 
L 289.48554 429.966245 
z
" style="fill: #ffffff"/>
    </g>
    <text style="font-weight: 700; font-size: 12px; font-family: 'Liberation Sans', 'Arimo', 'DejaVu Sans'; text-anchor: middle; fill: #0879c0" x="294.058665" y="438.942573" transform="rotate(-0 294.058665 438.942573)">N</text>
   </g>
   <g id="text_2">
    <g id="patch_5">
     <path d="M 289.28155 392.723751 
L 298.4278 392.723751 
L 298.4278 380.982032 
L 289.28155 380.982032 
z
" style="fill: #ffffff"/>
    </g>
    <text style="font-weight: 700; font-size: 12px; font-family: 'Liberation Sans', 'Arimo', 'DejaVu Sans'; text-anchor: middle; fill: #0879c0" x="293.854675" y="389.95836" transform="rotate(-0 293.854675 389.95836)">N</text>
   </g>
   <g id="text_3">
    <g id="patch_6">
     <path d="M 374.124696 392.37043 
L 383.270946 392.37043 
L 383.270946 380.628711 
L 374.124696 380.628711 
z
" style="fill: #ffffff"/>
    </g>
    <text style="font-weight: 700; font-size: 12px; font-family: 'Liberation Sans', 'Arimo', 'DejaVu Sans'; text-anchor: middle; fill: #0879c0" x="378.697821" y="389.605039" transform="rotate(-0 378.697821 389.605039)">N</text>
   </g>
   <g id="text_4">
    <g id="patch_7">
     <path d="M 373.994936 441.354643 
L 383.808686 441.354643 
L 383.808686 429.612924 
L 373.994936 429.612924 
z
" style="fill: #ffffff"/>
    </g>
    <text style="font-weight: 700; font-size: 12px; font-family: 'Liberation Sans', 'Arimo', 'DejaVu Sans'; text-anchor: middle; fill: #d40000" x="378.901811" y="438.589252" transform="rotate(-0 378.901811 438.589252)">O</text>
   </g>
   <g id="text_5">
    <g id="patch_8">
     <path d="M 459.298779 392.017109 
L 467.783154 392.017109 
L 467.783154 380.27539 
L 459.298779 380.27539 
z
" style="fill: #ffffff"/>
    </g>
    <text style="font-weight: 700; font-size: 12px; font-family: 'Liberation Sans', 'Arimo', 'DejaVu Sans'; text-anchor: middle; fill: #b8860b" x="463.540967" y="389.251718" transform="rotate(-0 463.540967 389.251718)">S</text>
   </g>
   <g id="text_6">
    <g id="patch_9">
     <path d="M 434.200872 406.259628 
L 444.014622 406.259628 
L 444.014622 394.51791 
L 434.200872 394.51791 
z
" style="fill: #ffffff"/>
    </g>
    <text style="font-weight: 700; font-size: 12px; font-family: 'Liberation Sans', 'Arimo', 'DejaVu Sans'; text-anchor: middle; fill: #d40000" x="439.107747" y="403.494238" transform="rotate(-0 439.107747 403.494238)">O</text>
   </g>
   <g id="text_7">
    <g id="patch_10">
     <path d="M 483.067311 377.77459 
L 492.881061 377.77459 
L 492.881061 366.032871 
L 483.067311 366.032871 
z
" style="fill: #ffffff"/>
    </g>
    <text style="font-weight: 700; font-size: 12px; font-family: 'Liberation Sans', 'Arimo', 'DejaVu Sans'; text-anchor: middle; fill: #d40000" x="487.974186" y="375.009199" transform="rotate(-0 487.974186 375.009199)">O</text>
   </g>
   <g id="text_8">
    <g id="patch_11">
     <path d="M 459.094789 343.032896 
L 467.579164 343.032896 
L 467.579164 331.291177 
L 459.094789 331.291177 
z
" style="fill: #ffffff"/>
    </g>
    <text style="font-weight: 700; font-size: 12px; font-family: 'Liberation Sans', 'Arimo', 'DejaVu Sans'; text-anchor: middle; fill: #b8860b" x="463.336977" y="340.267505" transform="rotate(-0 463.336977 340.267505)">S</text>
   </g>
   <g id="text_9">
    <g id="patch_12">
     <path d="M 247.512636 389.111469 
L 255.322011 389.111469 
L 255.322011 377.36975 
L 247.512636 377.36975 
z
" style="fill: #ffffff"/>
    </g>
    <text style="font-weight: 700; font-size: 12px; font-family: 'Liberation Sans', 'Arimo', 'DejaVu Sans'; text-anchor: middle; fill: #00a040" x="251.417323" y="386.346078" transform="rotate(-0 251.417323 386.346078)">F</text>
   </g>
   <g id="text_10">
    <g id="patch_13">
     <path d="M 247.748183 445.673566 
L 255.557558 445.673566 
L 255.557558 433.931847 
L 247.748183 433.931847 
z
" style="fill: #ffffff"/>
    </g>
    <text style="font-weight: 700; font-size: 12px; font-family: 'Liberation Sans', 'Arimo', 'DejaVu Sans'; text-anchor: middle; fill: #00a040" x="251.65287" y="442.908176" transform="rotate(-0 251.65287 442.908176)">F</text>
   </g>
   <g id="text_11">
    <g id="patch_14">
     <path d="M 331.267378 368.054984 
L 341.081128 368.054984 
L 341.081128 356.313265 
L 331.267378 356.313265 
z
" style="fill: #ffffff"/>
    </g>
    <text style="font-weight: 700; font-size: 12px; font-family: 'Liberation Sans', 'Arimo', 'DejaVu Sans'; text-anchor: middle; fill: #d40000" x="336.174253" y="365.289593" transform="rotate(-0 336.174253 365.289593)">O</text>
   </g>
   <g id="patch_15">
    <path d="M 484.234242 195.004885 
C 491.580898 195.004885 498.627643 192.086028 503.822514 186.891157 
C 509.017384 181.696287 511.936242 174.649542 511.936242 167.302885 
C 511.936242 159.956229 509.017384 152.909484 503.822514 147.714613 
C 498.627643 142.519743 491.580898 139.600885 484.234242 139.600885 
C 476.887586 139.600885 469.84084 142.519743 464.64597 147.714613 
C 459.451099 152.909484 456.532242 159.956229 456.532242 167.302885 
C 456.532242 174.649542 459.451099 181.696287 464.64597 186.891157 
C 469.84084 192.086028 476.887586 195.004885 484.234242 195.004885 
z
" clip-path="url(#p24d5246068)" style="fill: #8bc34a; stroke: #222222; stroke-width: 1.2; stroke-linejoin: miter"/>
   </g>
   <g id="patch_16">
    <path d="M 518.134434 600.343417 
C 525.48109 600.343417 532.527835 597.424559 537.722706 592.229689 
C 542.917576 587.034818 545.836434 579.988073 545.836434 572.641417 
C 545.836434 565.294761 542.917576 558.248015 537.722706 553.053145 
C 532.527835 547.858274 525.48109 544.939417 518.134434 544.939417 
C 510.787778 544.939417 503.741032 547.858274 498.546162 553.053145 
C 493.351291 558.248015 490.432434 565.294761 490.432434 572.641417 
C 490.432434 579.988073 493.351291 587.034818 498.546162 592.229689 
C 503.741032 597.424559 510.787778 600.343417 518.134434 600.343417 
z
" clip-path="url(#p24d5246068)" style="fill: #8bc34a; stroke: #222222; stroke-width: 1.2; stroke-linejoin: miter"/>
   </g>
   <g id="patch_17">
    <path d="M 607.844596 406.718732 
C 615.191253 406.718732 622.237998 403.799875 627.432868 398.605004 
C 632.627739 393.410134 635.546596 386.363389 635.546596 379.016732 
C 635.546596 371.670076 632.627739 364.623331 627.432868 359.42846 
C 622.237998 354.23359 615.191253 351.314732 607.844596 351.314732 
C 600.49794 351.314732 593.451195 354.23359 588.256324 359.42846 
C 583.061454 364.623331 580.142596 371.670076 580.142596 379.016732 
C 580.142596 386.363389 583.061454 393.410134 588.256324 398.605004 
C 593.451195 403.799875 600.49794 406.718732 607.844596 406.718732 
z
" clip-path="url(#p24d5246068)" style="fill: #5087c5; stroke: #dc3912; stroke-width: 2.8; stroke-linejoin: miter"/>
   </g>
   <g id="patch_18">
    <path d="M 119.492799 349.558167 
C 126.839455 349.558167 133.8862 346.639309 139.081071 341.444439 
C 144.275941 336.249568 147.194799 329.202823 147.194799 321.856167 
C 147.194799 314.50951 144.275941 307.462765 139.081071 302.267895 
C 133.8862 297.073024 126.839455 294.154167 119.492799 294.154167 
C 112.146143 294.154167 105.099397 297.073024 99.904527 302.267895 
C 94.709656 307.462765 91.790799 314.50951 91.790799 321.856167 
C 91.790799 329.202823 94.709656 336.249568 99.904527 341.444439 
C 105.099397 346.639309 112.146143 349.558167 119.492799 349.558167 
z
" clip-path="url(#p24d5246068)" style="fill: #f5a623; stroke: #222222; stroke-width: 1.2; stroke-linejoin: miter"/>
   </g>
   <g id="patch_19">
    <path d="M 168.316766 566.619257 
C 175.663423 566.619257 182.710168 563.7004 187.905038 558.505529 
C 193.099909 553.310659 196.018766 546.263913 196.018766 538.917257 
C 196.018766 531.570601 193.099909 524.523856 187.905038 519.328985 
C 182.710168 514.134115 175.663423 511.215257 168.316766 511.215257 
C 160.97011 511.215257 153.923365 514.134115 148.728494 519.328985 
C 143.533624 524.523856 140.614766 531.570601 140.614766 538.917257 
C 140.614766 546.263913 143.533624 553.310659 148.728494 558.505529 
C 153.923365 563.7004 160.97011 566.619257 168.316766 566.619257 
z
" clip-path="url(#p24d5246068)" style="fill: #5087c5; stroke: #222222; stroke-width: 1.2; stroke-linejoin: miter"/>
   </g>
   <g id="text_12">
    <text style="font-weight: 700; font-size: 9.5px; font-family: 'Liberation Sans', 'Arimo', 'DejaVu Sans'; text-anchor: middle; fill: #222222" x="484.234242" y="169.761381" transform="rotate(-0 484.234242 169.761381)">V570</text>
   </g>
   <g id="text_13">
    <text style="font-weight: 700; font-size: 9.5px; font-family: 'Liberation Sans', 'Arimo', 'DejaVu Sans'; text-anchor: middle; fill: #222222" x="518.134434" y="575.099913" transform="rotate(-0 518.134434 575.099913)">I725</text>
   </g>
   <g id="text_14">
    <text style="font-weight: 700; font-size: 9.5px; font-family: 'Liberation Sans', 'Arimo', 'DejaVu Sans'; text-anchor: middle; fill: #ffffff" x="607.844596" y="381.475228" transform="rotate(-0 607.844596 381.475228)">R727</text>
   </g>
   <g id="text_15">
    <text style="font-weight: 700; font-size: 9.5px; font-family: 'Liberation Sans', 'Arimo', 'DejaVu Sans'; text-anchor: middle; fill: #222222" x="119.492799" y="324.314663" transform="rotate(-0 119.492799 324.314663)">Y849</text>
   </g>
   <g id="text_16">
    <text style="font-weight: 700; font-size: 9.5px; font-family: 'Liberation Sans', 'Arimo', 'DejaVu Sans'; text-anchor: middle; fill: #ffffff" x="168.316766" y="541.375753" transform="rotate(-0 168.316766 541.375753)">K898</text>
   </g>
  </g>
  <g id="patch_20">
   <path d="M 183.440391 714.42 
Q 188.63969 714.42 191.714724 714.42 
" style="fill: none; stroke: #0279ee; stroke-width: 1.9; stroke-linecap: round"/>
   <path d="M 186.914724 712.02 
L 191.714724 714.42 
L 186.914724 716.82 
" style="fill: none; stroke: #0279ee; stroke-width: 1.9; stroke-linecap: round"/>
  </g>
  <g id="patch_21">
   <path d="M 92.16 743.148 
C 93.68757 743.148 95.15278 742.510745 96.232935 741.376582 
C 97.31309 740.242419 97.92 738.703948 97.92 737.1 
C 97.92 735.496052 97.31309 733.957581 96.232935 732.823418 
C 95.15278 731.689255 93.68757 731.052 92.16 731.052 
C 90.63243 731.052 89.16722 731.689255 88.087065 732.823418 
C 87.00691 733.957581 86.4 735.496052 86.4 737.1 
C 86.4 738.703948 87.00691 740.242419 88.087065 741.376582 
C 89.16722 742.510745 90.63243 743.148 92.16 743.148 
z
" style="fill: #5087c5; stroke: #222222; stroke-width: 0.8; stroke-linejoin: miter"/>
  </g>
  <g id="patch_22">
   <path d="M 218.88 743.148 
C 220.40757 743.148 221.87278 742.510745 222.952935 741.376582 
C 224.03309 740.242419 224.64 738.703948 224.64 737.1 
C 224.64 735.496052 224.03309 733.957581 222.952935 732.823418 
C 221.87278 731.689255 220.40757 731.052 218.88 731.052 
C 217.35243 731.052 215.88722 731.689255 214.807065 732.823418 
C 213.72691 733.957581 213.12 735.496052 213.12 737.1 
C 213.12 738.703948 213.72691 740.242419 214.807065 741.376582 
C 215.88722 742.510745 217.35243 743.148 218.88 743.148 
z
" style="fill: #d9584c; stroke: #222222; stroke-width: 0.8; stroke-linejoin: miter"/>
  </g>
  <g id="patch_23">
   <path d="M 345.6 743.148 
C 347.12757 743.148 348.59278 742.510745 349.672935 741.376582 
C 350.75309 740.242419 351.36 738.703948 351.36 737.1 
C 351.36 735.496052 350.75309 733.957581 349.672935 732.823418 
C 348.59278 731.689255 347.12757 731.052 345.6 731.052 
C 344.07243 731.052 342.60722 731.689255 341.527065 732.823418 
C 340.44691 733.957581 339.84 735.496052 339.84 737.1 
C 339.84 738.703948 340.44691 740.242419 341.527065 741.376582 
C 342.60722 742.510745 344.07243 743.148 345.6 743.148 
z
" style="fill: #f5a623; stroke: #222222; stroke-width: 0.8; stroke-linejoin: miter"/>
  </g>
  <g id="patch_24">
   <path d="M 472.32 743.148 
C 473.84757 743.148 475.31278 742.510745 476.392935 741.376582 
C 477.47309 740.242419 478.08 738.703948 478.08 737.1 
C 478.08 735.496052 477.47309 733.957581 476.392935 732.823418 
C 475.31278 731.689255 473.84757 731.052 472.32 731.052 
C 470.79243 731.052 469.32722 731.689255 468.247065 732.823418 
C 467.16691 733.957581 466.56 735.496052 466.56 737.1 
C 466.56 738.703948 467.16691 740.242419 468.247065 741.376582 
C 469.32722 742.510745 470.79243 743.148 472.32 743.148 
z
" style="fill: #8bc34a; stroke: #222222; stroke-width: 0.8; stroke-linejoin: miter"/>
  </g>
  <g id="patch_25">
   <path d="M 599.04 743.148 
C 600.56757 743.148 602.03278 742.510745 603.112935 741.376582 
C 604.19309 740.242419 604.8 738.703948 604.8 737.1 
C 604.8 735.496052 604.19309 733.957581 603.112935 732.823418 
C 602.03278 731.689255 600.56757 731.052 599.04 731.052 
C 597.51243 731.052 596.04722 731.689255 594.967065 732.823418 
C 593.88691 733.957581 593.28 735.496052 593.28 737.1 
C 593.28 738.703948 593.88691 740.242419 594.967065 741.376582 
C 596.04722 742.510745 597.51243 743.148 599.04 743.148 
z
" style="fill: #ffffff; stroke: #dc3912; stroke-width: 2.5; stroke-linejoin: miter"/>
  </g>
  <g id="line2d_42">
   <path d="M 498.24 714.42 
L 512.64 714.42 
" style="fill: none; stroke: #75a025; stroke-opacity: 0.4; stroke-width: 4; stroke-linecap: square"/>
  </g>
  <g id="text_17">
   <text style="font-weight: 700; font-size: 14px; font-family: 'Liberation Sans', 'Arimo', 'DejaVu Sans'; text-anchor: middle" x="360" y="21.532383" transform="rotate(-0 360 21.532383)">C727R × 7GQU · VVD-214_cov — NEUTRAL</text>
  </g>
  <g id="text_18">
   <text style="font-size: 10.5px; font-family: 'Liberation Sans', 'Arimo', 'DejaVu Sans'; text-anchor: middle" x="360" y="41.66925" transform="rotate(-0 360 41.66925)">ΔS = -0.28  |  RMSD vs WT = 1.86 Å  |  2 lost / 3 retained / 2 gained</text>
  </g>
  <g id="text_19">
   <text style="font-size: 10.5px; font-family: 'Liberation Sans', 'Arimo', 'DejaVu Sans'; text-anchor: middle" x="360" y="61.320287" transform="rotate(-0 360 61.320287)">PLIP: 7 hydrophobic · 2 H-bond</text>
  </g>
  <g id="text_20">
   <text style="font-size: 8.5px; font-family: 'Liberation Sans', 'Arimo', 'DejaVu Sans'; text-anchor: start" x="199.44" y="716.619707" transform="rotate(-0 199.44 716.619707)">H-bond</text>
  </g>
  <g id="text_21">
   <text style="font-size: 8.5px; font-family: 'Liberation Sans', 'Arimo', 'DejaVu Sans'; text-anchor: start" x="516.24" y="716.619707" transform="rotate(-0 516.24 716.619707)">Hydrophobic</text>
  </g>
  <g id="text_22">
   <text style="font-size: 8px; font-family: 'Liberation Sans', 'Arimo', 'DejaVu Sans'; text-anchor: start" x="100.8" y="739.170313" transform="rotate(-0 100.8 739.170313)">Basic</text>
  </g>
  <g id="text_23">
   <text style="font-size: 8px; font-family: 'Liberation Sans', 'Arimo', 'DejaVu Sans'; text-anchor: start" x="227.52" y="739.170313" transform="rotate(-0 227.52 739.170313)">Acidic</text>
  </g>
  <g id="text_24">
   <text style="font-size: 8px; font-family: 'Liberation Sans', 'Arimo', 'DejaVu Sans'; text-anchor: start" x="354.24" y="739.170313" transform="rotate(-0 354.24 739.170313)">Polar</text>
  </g>
  <g id="text_25">
   <text style="font-size: 8px; font-family: 'Liberation Sans', 'Arimo', 'DejaVu Sans'; text-anchor: start" x="480.96" y="739.170313" transform="rotate(-0 480.96 739.170313)">Hydrophobic</text>
  </g>
  <g id="text_26">
   <text style="font-size: 8px; font-family: 'Liberation Sans', 'Arimo', 'DejaVu Sans'; text-anchor: start" x="607.68" y="739.170313" transform="rotate(-0 607.68 739.170313)">Mutation site</text>
  </g>
 </g>
 <defs>
  <clipPath id="p24d5246068">
   <rect x="53.82" y="75.6" width="612.36" height="612.36"/>
  </clipPath>
 </defs>
</svg>
