<?xml version="1.0" encoding="utf-8" standalone="no"?>
<!DOCTYPE svg PUBLIC "-//W3C//DTD SVG 1.1//EN"
  "http://www.w3.org/Graphics/SVG/1.1/DTD/svg11.dtd">
<svg xmlns:xlink="http://www.w3.org/1999/xlink" width="720pt" height="756pt" viewBox="0 0 720 756" xmlns="http://www.w3.org/2000/svg" version="1.1">
 <metadata>
  <rdf:RDF xmlns:dc="http://purl.org/dc/elements/1.1/" xmlns:cc="http://creativecommons.org/ns#" xmlns:rdf="http://www.w3.org/1999/02/22-rdf-syntax-ns#">
   <cc:Work>
    <dc:type rdf:resource="http://purl.org/dc/dcmitype/StillImage"/>
    <dc:date>2022-01-01T05:00:00+00:00</dc:date>
    <dc:format>image/svg+xml</dc:format>
    <dc:creator>
     <cc:Agent>
      <dc:title>Matplotlib v3.11.0, https://matplotlib.org/</dc:title>
     </cc:Agent>
    </dc:creator>
   </cc:Work>
  </rdf:RDF>
 </metadata>
 <defs>
  <style type="text/css">*{stroke-linejoin: round; stroke-linecap: butt}</style>
 </defs>
 <g id="figure_1">
  <g id="patch_1">
   <path d="M 0 756 
L 720 756 
L 720 0 
L 0 0 
z
" style="fill: #ffffff"/>
  </g>
  <g id="axes_1">
   <g id="line2d_1">
    <path d="M 288.940751 114.793243 
L 288.198602 121.729144 
L 287.532438 128.661496 
L 286.942261 135.590299 
L 286.428069 142.515552 
L 285.989863 149.437256 
L 285.627643 156.355411 
L 285.341409 163.270017 
L 285.13116 170.181073 
L 284.996897 177.08858 
L 284.93862 183.992538 
L 284.956329 190.892946 
L 285.050024 197.789806 
L 285.219704 204.683116 
L 285.46537 211.572876 
L 285.787022 218.459088 
L 286.18466 225.34175 
L 286.658283 232.220863 
L 287.207893 239.096427 
L 287.833488 245.968441 
L 288.535068 252.836906 
L 289.312635 259.701822 
L 290.166187 266.563189 
L 291.095726 273.421006 
L 292.10125 280.275274 
L 293.182759 287.125993 
L 294.340255 293.973163 
L 295.573736 300.816783 
L 296.883203 307.656854 
L 298.268656 314.493376 
" clip-path="url(#pd53a3920ae)" style="fill: none; stroke: #75a025; stroke-opacity: 0.4; stroke-width: 4; stroke-linecap: round"/>
   </g>
   <g id="line2d_2">
    <path d="M 539.487627 592.785376 
L 534.424245 588.502148 
L 529.415455 584.171481 
L 524.461256 579.793376 
L 519.561649 575.367833 
L 514.716633 570.894852 
L 509.926209 566.374432 
L 505.190377 561.806574 
L 500.509136 557.191277 
L 495.882487 552.528542 
L 491.310429 547.818369 
L 486.792963 543.060758 
L 482.330089 538.255708 
L 477.921806 533.403219 
L 473.568115 528.503293 
L 469.269015 523.555928 
L 465.024508 518.561125 
L 460.834591 513.518883 
L 456.699267 508.429203 
L 452.618534 503.292085 
L 448.592392 498.107529 
L 444.620842 492.875534 
L 440.703884 487.5961 
L 436.841518 482.269229 
L 433.033743 476.894919 
L 429.280559 471.473171 
L 425.581967 466.003984 
L 421.937967 460.487359 
L 418.348559 454.923296 
L 414.813742 449.311794 
" clip-path="url(#pd53a3920ae)" style="fill: none; stroke: #75a025; stroke-opacity: 0.4; stroke-width: 4; stroke-linecap: round"/>
   </g>
   <g id="line2d_3">
    <path d="M 123.060377 521.703812 
L 126.116594 516.663879 
L 129.222039 511.665275 
L 132.376713 506.708 
L 135.580615 501.792053 
L 138.833745 496.917435 
L 142.136104 492.084146 
L 145.487692 487.292185 
L 148.888508 482.541553 
L 152.338552 477.83225 
L 155.837825 473.164276 
L 159.386327 468.537631 
L 162.984056 463.952314 
L 166.631015 459.408326 
L 170.327202 454.905666 
L 174.072617 450.444335 
L 177.867261 446.024333 
L 181.711133 441.64566 
L 185.604234 437.308316 
L 189.546563 433.0123 
L 193.538121 428.757613 
L 197.578907 424.544254 
L 201.668922 420.372225 
L 205.808165 416.241524 
L 209.996636 412.152151 
L 214.234336 408.104108 
L 218.521265 404.097393 
L 222.857422 400.132007 
L 227.242808 396.20795 
L 231.677422 392.325221 
" clip-path="url(#pd53a3920ae)" style="fill: none; stroke: #75a025; stroke-opacity: 0.4; stroke-width: 4; stroke-linecap: round"/>
   </g>
   <g id="line2d_4">
    <path d="M 103.175334 278.515871 
L 110.751458 279.389062 
L 118.305558 280.342448 
L 125.837633 281.376031 
L 133.347685 282.48981 
L 140.835713 283.683785 
L 148.301716 284.957957 
L 155.745696 286.312325 
L 163.167651 287.746889 
L 170.567582 289.261649 
L 177.945489 290.856605 
L 185.301371 292.531758 
L 192.63523 294.287107 
L 199.947064 296.122653 
L 207.236875 298.038394 
L 214.504661 300.034332 
L 221.750423 302.110467 
L 228.974161 304.266797 
L 236.175874 306.503324 
L 243.355564 308.820047 
L 250.513229 311.216966 
L 257.648871 313.694081 
L 264.762488 316.251393 
L 271.854081 318.888901 
L 278.92365 321.606605 
L 285.971194 324.404506 
L 292.996715 327.282602 
L 300.000211 330.240895 
L 306.981684 333.279385 
L 313.941132 336.39807 
" clip-path="url(#pd53a3920ae)" style="fill: none; stroke: #75a025; stroke-opacity: 0.4; stroke-width: 4; stroke-linecap: round"/>
   </g>
   <g id="patch_2">
    <path d="M 310.838567 594.349638 
Q 303.011364 518.890612 295.356118 445.089358 
" clip-path="url(#pd53a3920ae)" style="fill: none; stroke: #0279ee; stroke-width: 2; stroke-linecap: round"/>
    <path d="M 290.213533 453.66571 
L 295.356118 445.089358 
L 302.149492 452.427618 
" clip-path="url(#pd53a3920ae)" style="fill: none; stroke: #0279ee; stroke-width: 2; stroke-linecap: round"/>
   </g>
   <g id="line2d_5">
    <path d="M 480.545912 199.177261 
L 336.589226 310.059936 
" clip-path="url(#pd53a3920ae)" style="fill: none; stroke-dasharray: 7.2,5.4; stroke-dashoffset: 0; stroke: #ff9400; stroke-width: 1.8"/>
   </g>
   <g id="line2d_6">
    <path d="M 475.207724 192.246802 
L 331.251039 303.129477 
" clip-path="url(#pd53a3920ae)" style="fill: none; stroke-dasharray: 7.2,5.4; stroke-dashoffset: 0; stroke: #ff9400; stroke-width: 1.8"/>
   </g>
   <g id="line2d_7">
    <path d="M 293.924478 431.287473 
L 283.603669 405.101578 
" clip-path="url(#pd53a3920ae)" style="fill: none; stroke: #222222; stroke-width: 2; stroke-linecap: round"/>
   </g>
   <g id="line2d_8">
    <path d="M 321.762533 435.442337 
L 293.924478 431.287473 
" clip-path="url(#pd53a3920ae)" style="fill: none; stroke: #222222; stroke-width: 2; stroke-linecap: round"/>
   </g>
   <g id="line2d_9">
    <path d="M 339.279778 413.411307 
L 321.762533 435.442337 
" clip-path="url(#pd53a3920ae)" style="fill: none; stroke: #222222; stroke-width: 2; stroke-linecap: round"/>
   </g>
   <g id="line2d_10">
    <path d="M 328.958969 387.225412 
L 339.279778 413.411307 
" clip-path="url(#pd53a3920ae)" style="fill: none; stroke: #222222; stroke-width: 2; stroke-linecap: round"/>
   </g>
   <g id="line2d_11">
    <path d="M 301.120915 383.070548 
L 328.958969 387.225412 
" clip-path="url(#pd53a3920ae)" style="fill: none; stroke: #222222; stroke-width: 2; stroke-linecap: round"/>
   </g>
   <g id="line2d_12">
    <path d="M 301.120915 383.070548 
L 283.603669 405.101578 
" clip-path="url(#pd53a3920ae)" style="fill: none; stroke: #222222; stroke-width: 2; stroke-linecap: round"/>
   </g>
   <g id="line2d_13">
    <path d="M 255.765614 400.946713 
L 227.92756 396.791848 
" clip-path="url(#pd53a3920ae)" style="fill: none; stroke: #222222; stroke-width: 2; stroke-linecap: round"/>
   </g>
   <g id="line2d_14">
    <path d="M 255.765614 400.946713 
L 283.603669 405.101578 
" clip-path="url(#pd53a3920ae)" style="fill: none; stroke: #222222; stroke-width: 2; stroke-linecap: round"/>
   </g>
   <g id="line2d_15">
    <path d="M 259.920479 373.108658 
L 255.765614 400.946713 
" clip-path="url(#pd53a3920ae)" style="fill: none; stroke: #222222; stroke-width: 2; stroke-linecap: round"/>
   </g>
   <g id="line2d_16">
    <path d="M 251.61075 428.784768 
L 255.765614 400.946713 
" clip-path="url(#pd53a3920ae)" style="fill: none; stroke: #222222; stroke-width: 2; stroke-linecap: round"/>
   </g>
   <g id="line2d_17">
    <path d="M 367.117833 417.566172 
L 339.279778 413.411307 
" clip-path="url(#pd53a3920ae)" style="fill: none; stroke: #222222; stroke-width: 2; stroke-linecap: round"/>
   </g>
   <g id="line2d_18">
    <path d="M 377.438642 443.752067 
L 367.117833 417.566172 
" clip-path="url(#pd53a3920ae)" style="fill: none; stroke: #222222; stroke-width: 2; stroke-linecap: round"/>
   </g>
   <g id="line2d_19">
    <path d="M 384.635079 395.535142 
L 367.117833 417.566172 
" clip-path="url(#pd53a3920ae)" style="fill: none; stroke: #222222; stroke-width: 2; stroke-linecap: round"/>
   </g>
   <g id="line2d_20">
    <path d="M 412.473133 399.690006 
L 384.635079 395.535142 
" clip-path="url(#pd53a3920ae)" style="fill: none; stroke: #222222; stroke-width: 2; stroke-linecap: round"/>
   </g>
   <g id="line2d_21">
    <path d="M 422.793942 425.875901 
L 412.473133 399.690006 
" clip-path="url(#pd53a3920ae)" style="fill: none; stroke: #222222; stroke-width: 2; stroke-linecap: round"/>
   </g>
   <g id="line2d_22">
    <path d="M 418.639078 453.713956 
L 422.793942 425.875901 
" clip-path="url(#pd53a3920ae)" style="fill: none; stroke: #222222; stroke-width: 2; stroke-linecap: round"/>
   </g>
   <g id="line2d_23">
    <path d="M 444.824973 443.393147 
L 418.639078 453.713956 
" clip-path="url(#pd53a3920ae)" style="fill: none; stroke: #222222; stroke-width: 2; stroke-linecap: round"/>
   </g>
   <g id="line2d_24">
    <path d="M 444.824973 443.393147 
L 422.793942 425.875901 
" clip-path="url(#pd53a3920ae)" style="fill: none; stroke: #222222; stroke-width: 2; stroke-linecap: round"/>
   </g>
   <g id="line2d_25">
    <path d="M 429.990379 377.658976 
L 412.473133 399.690006 
" clip-path="url(#pd53a3920ae)" style="fill: none; stroke: #222222; stroke-width: 2; stroke-linecap: round"/>
   </g>
   <g id="line2d_26">
    <path d="M 457.828434 381.813841 
L 429.990379 377.658976 
" clip-path="url(#pd53a3920ae)" style="fill: none; stroke: #222222; stroke-width: 2; stroke-linecap: round"/>
   </g>
   <g id="line2d_27">
    <path d="M 475.34568 359.782811 
L 457.828434 381.813841 
" clip-path="url(#pd53a3920ae)" style="fill: none; stroke: #222222; stroke-width: 2; stroke-linecap: round"/>
   </g>
   <g id="line2d_28">
    <path d="M 492.862925 337.751781 
L 475.34568 359.782811 
" clip-path="url(#pd53a3920ae)" style="fill: none; stroke: #222222; stroke-width: 2; stroke-linecap: round"/>
   </g>
   <g id="line2d_29">
    <path d="M 453.314649 342.265565 
L 475.34568 359.782811 
" clip-path="url(#pd53a3920ae)" style="fill: none; stroke: #222222; stroke-width: 2; stroke-linecap: round"/>
   </g>
   <g id="line2d_30">
    <path d="M 497.37671 377.300057 
L 475.34568 359.782811 
" clip-path="url(#pd53a3920ae)" style="fill: none; stroke: #222222; stroke-width: 2; stroke-linecap: round"/>
   </g>
   <g id="line2d_31">
    <path d="M 346.476215 365.194382 
L 328.958969 387.225412 
" clip-path="url(#pd53a3920ae)" style="fill: none; stroke: #222222; stroke-width: 2; stroke-linecap: round"/>
   </g>
   <g id="line2d_32">
    <path d="M 336.155406 339.008487 
L 346.476215 365.194382 
" clip-path="url(#pd53a3920ae)" style="fill: none; stroke: #222222; stroke-width: 2; stroke-linecap: round"/>
   </g>
   <g id="line2d_33">
    <path d="M 308.317352 334.853622 
L 336.155406 339.008487 
" clip-path="url(#pd53a3920ae)" style="fill: none; stroke: #222222; stroke-width: 2; stroke-linecap: round"/>
   </g>
   <g id="line2d_34">
    <path d="M 297.996543 308.667728 
L 308.317352 334.853622 
" clip-path="url(#pd53a3920ae)" style="fill: none; stroke: #222222; stroke-width: 2; stroke-linecap: round"/>
   </g>
   <g id="line2d_35">
    <path d="M 315.513788 286.636697 
L 297.996543 308.667728 
" clip-path="url(#pd53a3920ae)" style="fill: none; stroke: #222222; stroke-width: 2; stroke-linecap: round"/>
   </g>
   <g id="line2d_36">
    <path d="M 343.351843 290.791562 
L 315.513788 286.636697 
" clip-path="url(#pd53a3920ae)" style="fill: none; stroke: #222222; stroke-width: 2; stroke-linecap: round"/>
   </g>
   <g id="line2d_37">
    <path d="M 353.672652 316.977457 
L 343.351843 290.791562 
" clip-path="url(#pd53a3920ae)" style="fill: none; stroke: #222222; stroke-width: 2; stroke-linecap: round"/>
   </g>
   <g id="line2d_38">
    <path d="M 353.672652 316.977457 
L 336.155406 339.008487 
" clip-path="url(#pd53a3920ae)" style="fill: none; stroke: #222222; stroke-width: 2; stroke-linecap: round"/>
   </g>
   <g id="text_1">
    <g id="patch_3">
     <path d="M 289.351353 437.158332 
L 298.497603 437.158332 
L 298.497603 425.416613 
L 289.351353 425.416613 
z
" style="fill: #ffffff"/>
    </g>
    <text style="font-weight: 700; font-size: 12px; font-family: 'Liberation Sans', 'Arimo', 'DejaVu Sans'; text-anchor: middle; fill: #0879c0" x="293.924478" y="434.392941" transform="rotate(-0 293.924478 434.392941)">N</text>
   </g>
   <g id="text_2">
    <g id="patch_4">
     <path d="M 296.54779 388.941407 
L 305.69404 388.941407 
L 305.69404 377.199688 
L 296.54779 377.199688 
z
" style="fill: #ffffff"/>
    </g>
    <text style="font-weight: 700; font-size: 12px; font-family: 'Liberation Sans', 'Arimo', 'DejaVu Sans'; text-anchor: middle; fill: #0879c0" x="301.120915" y="386.176016" transform="rotate(-0 301.120915 386.176016)">N</text>
   </g>
   <g id="text_3">
    <g id="patch_5">
     <path d="M 256.015792 378.979518 
L 263.825167 378.979518 
L 263.825167 367.237799 
L 256.015792 367.237799 
z
" style="fill: #ffffff"/>
    </g>
    <text style="font-weight: 700; font-size: 12px; font-family: 'Liberation Sans', 'Arimo', 'DejaVu Sans'; text-anchor: middle; fill: #00a040" x="259.920479" y="376.214127" transform="rotate(-0 259.920479 376.214127)">F</text>
   </g>
   <g id="text_4">
    <g id="patch_6">
     <path d="M 247.706062 434.655627 
L 255.515437 434.655627 
L 255.515437 422.913908 
L 247.706062 422.913908 
z
" style="fill: #ffffff"/>
    </g>
    <text style="font-weight: 700; font-size: 12px; font-family: 'Liberation Sans', 'Arimo', 'DejaVu Sans'; text-anchor: middle; fill: #00a040" x="251.61075" y="431.890236" transform="rotate(-0 251.61075 431.890236)">F</text>
   </g>
   <g id="text_5">
    <g id="patch_7">
     <path d="M 372.531767 449.622926 
L 382.345517 449.622926 
L 382.345517 437.881207 
L 372.531767 437.881207 
z
" style="fill: #ffffff"/>
    </g>
    <text style="font-weight: 700; font-size: 12px; font-family: 'Liberation Sans', 'Arimo', 'DejaVu Sans'; text-anchor: middle; fill: #d40000" x="377.438642" y="446.857536" transform="rotate(-0 377.438642 446.857536)">O</text>
   </g>
   <g id="text_6">
    <g id="patch_8">
     <path d="M 380.061954 401.406001 
L 389.208204 401.406001 
L 389.208204 389.664282 
L 380.061954 389.664282 
z
" style="fill: #ffffff"/>
    </g>
    <text style="font-weight: 700; font-size: 12px; font-family: 'Liberation Sans', 'Arimo', 'DejaVu Sans'; text-anchor: middle; fill: #0879c0" x="384.635079" y="398.64061" transform="rotate(-0 384.635079 398.64061)">N</text>
   </g>
   <g id="text_7">
    <g id="patch_9">
     <path d="M 471.103492 365.65367 
L 479.587867 365.65367 
L 479.587867 353.911951 
L 471.103492 353.911951 
z
" style="fill: #ffffff"/>
    </g>
    <text style="font-weight: 700; font-size: 12px; font-family: 'Liberation Sans', 'Arimo', 'DejaVu Sans'; text-anchor: middle; fill: #b8860b" x="475.34568" y="362.88828" transform="rotate(-0 475.34568 362.88828)">S</text>
   </g>
   <g id="text_8">
    <g id="patch_10">
     <path d="M 448.407774 348.136424 
L 458.221524 348.136424 
L 458.221524 336.394706 
L 448.407774 336.394706 
z
" style="fill: #ffffff"/>
    </g>
    <text style="font-weight: 700; font-size: 12px; font-family: 'Liberation Sans', 'Arimo', 'DejaVu Sans'; text-anchor: middle; fill: #d40000" x="453.314649" y="345.371034" transform="rotate(-0 453.314649 345.371034)">O</text>
   </g>
   <g id="text_9">
    <g id="patch_11">
     <path d="M 492.469835 383.170916 
L 502.283585 383.170916 
L 502.283585 371.429197 
L 492.469835 371.429197 
z
" style="fill: #ffffff"/>
    </g>
    <text style="font-weight: 700; font-size: 12px; font-family: 'Liberation Sans', 'Arimo', 'DejaVu Sans'; text-anchor: middle; fill: #d40000" x="497.37671" y="380.405525" transform="rotate(-0 497.37671 380.405525)">O</text>
   </g>
   <g id="text_10">
    <g id="patch_12">
     <path d="M 341.56934 371.065241 
L 351.38309 371.065241 
L 351.38309 359.323523 
L 341.56934 359.323523 
z
" style="fill: #ffffff"/>
    </g>
    <text style="font-weight: 700; font-size: 12px; font-family: 'Liberation Sans', 'Arimo', 'DejaVu Sans'; text-anchor: middle; fill: #d40000" x="346.476215" y="368.299851" transform="rotate(-0 346.476215 368.299851)">O</text>
   </g>
   <g id="patch_13">
    <path d="M 290.301318 171.623485 
C 297.647974 171.623485 304.69472 168.704627 309.88959 163.509757 
C 315.08446 158.314886 318.003318 151.268141 318.003318 143.921485 
C 318.003318 136.574828 315.08446 129.528083 309.88959 124.333213 
C 304.69472 119.138342 297.647974 116.219485 290.301318 116.219485 
C 282.954662 116.219485 275.907916 119.138342 270.713046 124.333213 
C 265.518175 129.528083 262.599318 136.574828 262.599318 143.921485 
C 262.599318 151.268141 265.518175 158.314886 270.713046 163.509757 
C 275.907916 168.704627 282.954662 171.623485 290.301318 171.623485 
z
" clip-path="url(#pd53a3920ae)" style="fill: #8bc34a; stroke: #222222; stroke-width: 1.2; stroke-linejoin: miter"/>
   </g>
   <g id="patch_14">
    <path d="M 520.360948 598.476566 
C 527.707604 598.476566 534.75435 595.557708 539.94922 590.362838 
C 545.144091 585.167968 548.062948 578.121222 548.062948 570.774566 
C 548.062948 563.42791 545.144091 556.381164 539.94922 551.186294 
C 534.75435 545.991423 527.707604 543.072566 520.360948 543.072566 
C 513.014292 543.072566 505.967546 545.991423 500.772676 551.186294 
C 495.577805 556.381164 492.658948 563.42791 492.658948 570.774566 
C 492.658948 578.121222 495.577805 585.167968 500.772676 590.362838 
C 505.967546 595.557708 513.014292 598.476566 520.360948 598.476566 
z
" clip-path="url(#pd53a3920ae)" style="fill: #8bc34a; stroke: #222222; stroke-width: 1.2; stroke-linejoin: miter"/>
   </g>
   <g id="patch_15">
    <path d="M 141.809687 527.072675 
C 149.156343 527.072675 156.203089 524.153818 161.397959 518.958947 
C 166.59283 513.764077 169.511687 506.717332 169.511687 499.370675 
C 169.511687 492.024019 166.59283 484.977274 161.397959 479.782403 
C 156.203089 474.587533 149.156343 471.668675 141.809687 471.668675 
C 134.463031 471.668675 127.416285 474.587533 122.221415 479.782403 
C 117.026544 484.977274 114.107687 492.024019 114.107687 499.370675 
C 114.107687 506.717332 117.026544 513.764077 122.221415 518.958947 
C 127.416285 524.153818 134.463031 527.072675 141.809687 527.072675 
z
" clip-path="url(#pd53a3920ae)" style="fill: #5087c5; stroke: #222222; stroke-width: 1.2; stroke-linejoin: miter"/>
   </g>
   <g id="patch_16">
    <path d="M 131.294235 313.94011 
C 138.640891 313.94011 145.687637 311.021253 150.882507 305.826382 
C 156.077378 300.631512 158.996235 293.584767 158.996235 286.23811 
C 158.996235 278.891454 156.077378 271.844709 150.882507 266.649838 
C 145.687637 261.454968 138.640891 258.53611 131.294235 258.53611 
C 123.947579 258.53611 116.900833 261.454968 111.705963 266.649838 
C 106.511093 271.844709 103.592235 278.891454 103.592235 286.23811 
C 103.592235 293.584767 106.511093 300.631512 111.705963 305.826382 
C 116.900833 311.021253 123.947579 313.94011 131.294235 313.94011 
z
" clip-path="url(#pd53a3920ae)" style="fill: #8bc34a; stroke: #222222; stroke-width: 1.2; stroke-linejoin: miter"/>
   </g>
   <g id="patch_17">
    <path d="M 314.053564 653.046169 
C 321.40022 653.046169 328.446965 650.127312 333.641836 644.932441 
C 338.836706 639.737571 341.755564 632.690826 341.755564 625.344169 
C 341.755564 617.997513 338.836706 610.950768 333.641836 605.755897 
C 328.446965 600.561027 321.40022 597.642169 314.053564 597.642169 
C 306.706908 597.642169 299.660162 600.561027 294.465292 605.755897 
C 289.270421 610.950768 286.351564 617.997513 286.351564 625.344169 
C 286.351564 632.690826 289.270421 639.737571 294.465292 644.932441 
C 299.660162 650.127312 306.706908 653.046169 314.053564 653.046169 
z
" clip-path="url(#pd53a3920ae)" style="fill: #5087c5; stroke: #222222; stroke-width: 1.2; stroke-linejoin: miter"/>
   </g>
   <g id="patch_18">
    <path d="M 500.978346 205.620073 
C 508.325003 205.620073 515.371748 202.701215 520.566619 197.506345 
C 525.761489 192.311474 528.680346 185.264729 528.680346 177.918073 
C 528.680346 170.571416 525.761489 163.524671 520.566619 158.329801 
C 515.371748 153.13493 508.325003 150.216073 500.978346 150.216073 
C 493.63169 150.216073 486.584945 153.13493 481.390074 158.329801 
C 476.195204 163.524671 473.276346 170.571416 473.276346 177.918073 
C 473.276346 185.264729 476.195204 192.311474 481.390074 197.506345 
C 486.584945 202.701215 493.63169 205.620073 500.978346 205.620073 
z
" clip-path="url(#pd53a3920ae)" style="fill: #f5a623; stroke: #222222; stroke-width: 1.2; stroke-linejoin: miter"/>
   </g>
   <g id="text_11">
    <text style="font-weight: 700; font-size: 9.5px; font-family: 'Liberation Sans', 'Arimo', 'DejaVu Sans'; text-anchor: middle; fill: #222222" x="290.301318" y="146.379981" transform="rotate(-0 290.301318 146.379981)">V570</text>
   </g>
   <g id="text_12">
    <text style="font-weight: 700; font-size: 9.5px; font-family: 'Liberation Sans', 'Arimo', 'DejaVu Sans'; text-anchor: middle; fill: #222222" x="520.360948" y="573.233062" transform="rotate(-0 520.360948 573.233062)">A706</text>
   </g>
   <g id="text_13">
    <text style="font-weight: 700; font-size: 9.5px; font-family: 'Liberation Sans', 'Arimo', 'DejaVu Sans'; text-anchor: middle; fill: #ffffff" x="141.809687" y="501.829171" transform="rotate(-0 141.809687 501.829171)">H916</text>
   </g>
   <g id="text_14">
    <text style="font-weight: 700; font-size: 9.5px; font-family: 'Liberation Sans', 'Arimo', 'DejaVu Sans'; text-anchor: middle; fill: #222222" x="131.294235" y="288.696606" transform="rotate(-0 131.294235 288.696606)">F917</text>
   </g>
   <g id="text_15">
    <text style="font-weight: 700; font-size: 9.5px; font-family: 'Liberation Sans', 'Arimo', 'DejaVu Sans'; text-anchor: middle; fill: #ffffff" x="314.053564" y="627.802665" transform="rotate(-0 314.053564 627.802665)">K898</text>
   </g>
   <g id="text_16">
    <text style="font-weight: 700; font-size: 9.5px; font-family: 'Liberation Sans', 'Arimo', 'DejaVu Sans'; text-anchor: middle; fill: #222222" x="500.978346" y="180.376569" transform="rotate(-0 500.978346 180.376569)">Y849</text>
   </g>
  </g>
  <g id="patch_19">
   <path d="M 130.640391 714.42 
Q 135.83969 714.42 138.914724 714.42 
" style="fill: none; stroke: #0279ee; stroke-width: 1.9; stroke-linecap: round"/>
   <path d="M 134.114724 712.02 
L 138.914724 714.42 
L 134.114724 716.82 
" style="fill: none; stroke: #0279ee; stroke-width: 1.9; stroke-linecap: round"/>
  </g>
  <g id="patch_20">
   <path d="M 92.16 743.148 
C 93.68757 743.148 95.15278 742.510745 96.232935 741.376582 
C 97.31309 740.242419 97.92 738.703948 97.92 737.1 
C 97.92 735.496052 97.31309 733.957581 96.232935 732.823418 
C 95.15278 731.689255 93.68757 731.052 92.16 731.052 
C 90.63243 731.052 89.16722 731.689255 88.087065 732.823418 
C 87.00691 733.957581 86.4 735.496052 86.4 737.1 
C 86.4 738.703948 87.00691 740.242419 88.087065 741.376582 
C 89.16722 742.510745 90.63243 743.148 92.16 743.148 
z
" style="fill: #5087c5; stroke: #222222; stroke-width: 0.8; stroke-linejoin: miter"/>
  </g>
  <g id="patch_21">
   <path d="M 218.88 743.148 
C 220.40757 743.148 221.87278 742.510745 222.952935 741.376582 
C 224.03309 740.242419 224.64 738.703948 224.64 737.1 
C 224.64 735.496052 224.03309 733.957581 222.952935 732.823418 
C 221.87278 731.689255 220.40757 731.052 218.88 731.052 
C 217.35243 731.052 215.88722 731.689255 214.807065 732.823418 
C 213.72691 733.957581 213.12 735.496052 213.12 737.1 
C 213.12 738.703948 213.72691 740.242419 214.807065 741.376582 
C 215.88722 742.510745 217.35243 743.148 218.88 743.148 
z
" style="fill: #d9584c; stroke: #222222; stroke-width: 0.8; stroke-linejoin: miter"/>
  </g>
  <g id="patch_22">
   <path d="M 345.6 743.148 
C 347.12757 743.148 348.59278 742.510745 349.672935 741.376582 
C 350.75309 740.242419 351.36 738.703948 351.36 737.1 
C 351.36 735.496052 350.75309 733.957581 349.672935 732.823418 
C 348.59278 731.689255 347.12757 731.052 345.6 731.052 
C 344.07243 731.052 342.60722 731.689255 341.527065 732.823418 
C 340.44691 733.957581 339.84 735.496052 339.84 737.1 
C 339.84 738.703948 340.44691 740.242419 341.527065 741.376582 
C 342.60722 742.510745 344.07243 743.148 345.6 743.148 
z
" style="fill: #f5a623; stroke: #222222; stroke-width: 0.8; stroke-linejoin: miter"/>
  </g>
  <g id="patch_23">
   <path d="M 472.32 743.148 
C 473.84757 743.148 475.31278 742.510745 476.392935 741.376582 
C 477.47309 740.242419 478.08 738.703948 478.08 737.1 
C 478.08 735.496052 477.47309 733.957581 476.392935 732.823418 
C 475.31278 731.689255 473.84757 731.052 472.32 731.052 
C 470.79243 731.052 469.32722 731.689255 468.247065 732.823418 
C 467.16691 733.957581 466.56 735.496052 466.56 737.1 
C 466.56 738.703948 467.16691 740.242419 468.247065 741.376582 
C 469.32722 742.510745 470.79243 743.148 472.32 743.148 
z
" style="fill: #8bc34a; stroke: #222222; stroke-width: 0.8; stroke-linejoin: miter"/>
  </g>
  <g id="patch_24">
   <path d="M 599.04 743.148 
C 600.56757 743.148 602.03278 742.510745 603.112935 741.376582 
C 604.19309 740.242419 604.8 738.703948 604.8 737.1 
C 604.8 735.496052 604.19309 733.957581 603.112935 732.823418 
C 602.03278 731.689255 600.56757 731.052 599.04 731.052 
C 597.51243 731.052 596.04722 731.689255 594.967065 732.823418 
C 593.88691 733.957581 593.28 735.496052 593.28 737.1 
C 593.28 738.703948 593.88691 740.242419 594.967065 741.376582 
C 596.04722 742.510745 597.51243 743.148 599.04 743.148 
z
" style="fill: #ffffff; stroke: #dc3912; stroke-width: 2.5; stroke-linejoin: miter"/>
  </g>
  <g id="line2d_39">
   <path d="M 339.84 714.42 
L 354.24 714.42 
" style="fill: none; stroke: #75a025; stroke-opacity: 0.4; stroke-width: 4; stroke-linecap: square"/>
  </g>
  <g id="line2d_40">
   <path d="M 551.04 710.64 
L 565.44 710.64 
" style="fill: none; stroke-dasharray: 7.2,5.4; stroke-dashoffset: 0; stroke: #ff9400; stroke-width: 1.8"/>
  </g>
  <g id="line2d_41">
   <path d="M 551.04 718.2 
L 565.44 718.2 
" style="fill: none; stroke-dasharray: 7.2,5.4; stroke-dashoffset: 0; stroke: #ff9400; stroke-width: 1.8"/>
  </g>
  <g id="text_17">
   <text style="font-weight: 700; font-size: 14px; font-family: 'Liberation Sans', 'Arimo', 'DejaVu Sans'; text-anchor: middle" x="360" y="21.532383" transform="rotate(-0 360 21.532383)">F730L × 7GQU · VVD-214 — NEUTRAL</text>
  </g>
  <g id="text_18">
   <text style="font-size: 10.5px; font-family: 'Liberation Sans', 'Arimo', 'DejaVu Sans'; text-anchor: middle" x="360" y="41.66925" transform="rotate(-0 360 41.66925)">ΔS = +0.01  |  RMSD vs WT = 0.73 Å  |  0 lost / 4 retained / 2 gained</text>
  </g>
  <g id="text_19">
   <text style="font-size: 10.5px; font-family: 'Liberation Sans', 'Arimo', 'DejaVu Sans'; text-anchor: middle" x="360" y="61.320287" transform="rotate(-0 360 61.320287)">PLIP: 4 hydrophobic · 1 H-bond · 1 π-stack</text>
  </g>
  <g id="text_20">
   <text style="font-size: 8.5px; font-family: 'Liberation Sans', 'Arimo', 'DejaVu Sans'; text-anchor: start" x="146.64" y="716.619707" transform="rotate(-0 146.64 716.619707)">H-bond</text>
  </g>
  <g id="text_21">
   <text style="font-size: 8.5px; font-family: 'Liberation Sans', 'Arimo', 'DejaVu Sans'; text-anchor: start" x="357.84" y="716.619707" transform="rotate(-0 357.84 716.619707)">Hydrophobic</text>
  </g>
  <g id="text_22">
   <text style="font-size: 8.5px; font-family: 'Liberation Sans', 'Arimo', 'DejaVu Sans'; text-anchor: start" x="569.04" y="716.619707" transform="rotate(-0 569.04 716.619707)">π-stack</text>
  </g>
  <g id="text_23">
   <text style="font-size: 8px; font-family: 'Liberation Sans', 'Arimo', 'DejaVu Sans'; text-anchor: start" x="100.8" y="739.170313" transform="rotate(-0 100.8 739.170313)">Basic</text>
  </g>
  <g id="text_24">
   <text style="font-size: 8px; font-family: 'Liberation Sans', 'Arimo', 'DejaVu Sans'; text-anchor: start" x="227.52" y="739.170313" transform="rotate(-0 227.52 739.170313)">Acidic</text>
  </g>
  <g id="text_25">
   <text style="font-size: 8px; font-family: 'Liberation Sans', 'Arimo', 'DejaVu Sans'; text-anchor: start" x="354.24" y="739.170313" transform="rotate(-0 354.24 739.170313)">Polar</text>
  </g>
  <g id="text_26">
   <text style="font-size: 8px; font-family: 'Liberation Sans', 'Arimo', 'DejaVu Sans'; text-anchor: start" x="480.96" y="739.170313" transform="rotate(-0 480.96 739.170313)">Hydrophobic</text>
  </g>
  <g id="text_27">
   <text style="font-size: 8px; font-family: 'Liberation Sans', 'Arimo', 'DejaVu Sans'; text-anchor: start" x="607.68" y="739.170313" transform="rotate(-0 607.68 739.170313)">Mutation site</text>
  </g>
 </g>
 <defs>
  <clipPath id="pd53a3920ae">
   <rect x="53.82" y="75.6" width="612.36" height="612.36"/>
  </clipPath>
 </defs>
</svg>
