<?xml version="1.0" encoding="utf-8" standalone="no"?>
<!DOCTYPE svg PUBLIC "-//W3C//DTD SVG 1.1//EN"
  "http://www.w3.org/Graphics/SVG/1.1/DTD/svg11.dtd">
<svg xmlns:xlink="http://www.w3.org/1999/xlink" width="720pt" height="756pt" viewBox="0 0 720 756" xmlns="http://www.w3.org/2000/svg" version="1.1">
 <metadata>
  <rdf:RDF xmlns:dc="http://purl.org/dc/elements/1.1/" xmlns:cc="http://creativecommons.org/ns#" xmlns:rdf="http://www.w3.org/1999/02/22-rdf-syntax-ns#">
   <cc:Work>
    <dc:type rdf:resource="http://purl.org/dc/dcmitype/StillImage"/>
    <dc:date>2022-01-01T05:00:00+00:00</dc:date>
    <dc:format>image/svg+xml</dc:format>
    <dc:creator>
     <cc:Agent>
      <dc:title>Matplotlib v3.11.0, https://matplotlib.org/</dc:title>
     </cc:Agent>
    </dc:creator>
   </cc:Work>
  </rdf:RDF>
 </metadata>
 <defs>
  <style type="text/css">*{stroke-linejoin: round; stroke-linecap: butt}</style>
 </defs>
 <g id="figure_1">
  <g id="patch_1">
   <path d="M 0 756 
L 720 756 
L 720 0 
L 0 0 
z
" style="fill: #ffffff"/>
  </g>
  <g id="axes_1">
   <g id="line2d_1">
    <path d="M 159.183954 570.773281 
L 165.764815 568.570894 
L 172.310984 566.301251 
L 178.822461 563.964351 
L 185.299245 561.560193 
L 191.741338 559.088779 
L 198.148738 556.550107 
L 204.521446 553.944178 
L 210.859461 551.270993 
L 217.162784 548.53055 
L 223.431415 545.72285 
L 229.665354 542.847894 
L 235.864601 539.90568 
L 242.029155 536.896209 
L 248.159017 533.819481 
L 254.254187 530.675496 
L 260.314665 527.464254 
L 266.34045 524.185755 
L 272.331543 520.839999 
L 278.287944 517.426986 
L 284.209652 513.946716 
L 290.096669 510.399188 
L 295.948993 506.784404 
L 301.766625 503.102363 
L 307.549564 499.353064 
L 313.297811 495.536509 
L 319.011367 491.652697 
L 324.690229 487.701627 
L 330.3344 483.6833 
L 335.943878 479.597717 
" clip-path="url(#pa7f16a77e4)" style="fill: none; stroke: #75a025; stroke-opacity: 0.4; stroke-width: 4; stroke-linecap: round"/>
   </g>
   <g id="line2d_2">
    <path d="M 85.727943 403.980131 
L 93.691209 407.456905 
L 101.678687 410.842068 
L 109.690378 414.13562 
L 117.72628 417.337562 
L 125.786395 420.447892 
L 133.870722 423.466612 
L 141.979261 426.39372 
L 150.112012 429.229218 
L 158.268975 431.973105 
L 166.45015 434.625381 
L 174.655537 437.186046 
L 182.885136 439.655101 
L 191.138948 442.032544 
L 199.416971 444.318376 
L 207.719207 446.512598 
L 216.045655 448.615209 
L 224.396315 450.626209 
L 232.771187 452.545598 
L 241.170271 454.373376 
L 249.593567 456.109543 
L 258.041075 457.7541 
L 266.512796 459.307045 
L 275.008728 460.76838 
L 283.528873 462.138104 
L 292.073229 463.416217 
L 300.641798 464.602719 
L 309.234579 465.69761 
L 317.851572 466.70089 
L 326.492777 467.612559 
" clip-path="url(#pa7f16a77e4)" style="fill: none; stroke: #75a025; stroke-opacity: 0.4; stroke-width: 4; stroke-linecap: round"/>
   </g>
   <g id="line2d_3">
    <path d="M 497.267565 146.304536 
L 498.451494 153.806481 
L 499.552602 161.308695 
L 500.570889 168.811178 
L 501.506353 176.313931 
L 502.358996 183.816954 
L 503.128817 191.320246 
L 503.815817 198.823808 
L 504.419995 206.32764 
L 504.941351 213.83174 
L 505.379885 221.336111 
L 505.735598 228.840751 
L 506.008489 236.34566 
L 506.198558 243.850839 
L 506.305805 251.356287 
L 506.330231 258.862005 
L 506.271835 266.367993 
L 506.130617 273.87425 
L 505.906578 281.380776 
L 505.599717 288.887572 
L 505.210034 296.394638 
L 504.737529 303.901973 
L 504.182203 311.409578 
L 503.544055 318.917452 
L 502.823085 326.425596 
L 502.019294 333.934009 
L 501.132681 341.442692 
L 500.163246 348.951644 
L 499.11099 356.460866 
L 497.975911 363.970357 
" clip-path="url(#pa7f16a77e4)" style="fill: none; stroke: #75a025; stroke-opacity: 0.4; stroke-width: 4; stroke-linecap: round"/>
   </g>
   <g id="patch_2">
    <path d="M 339.400534 597.876302 
Q 360.582656 518.576251 381.334668 440.886412 
" clip-path="url(#pa7f16a77e4)" style="fill: none; stroke: #0279ee; stroke-width: 2; stroke-linecap: round"/>
    <path d="M 373.473378 447.067037 
L 381.334668 440.886412 
L 385.066906 450.163826 
" clip-path="url(#pa7f16a77e4)" style="fill: none; stroke: #0279ee; stroke-width: 2; stroke-linecap: round"/>
   </g>
   <g id="patch_3">
    <path d="M 473.208331 566.559862 
Q 432.333743 502.175721 392.352436 439.198643 
" clip-path="url(#pa7f16a77e4)" style="fill: none; stroke: #0279ee; stroke-width: 2; stroke-linecap: round"/>
    <path d="M 391.574758 449.168358 
L 392.352436 439.198643 
L 401.705613 442.736735 
" clip-path="url(#pa7f16a77e4)" style="fill: none; stroke: #0279ee; stroke-width: 2; stroke-linecap: round"/>
   </g>
   <g id="patch_4">
    <path d="M 565.436402 452.052131 
Q 512.811067 422.910641 461.643774 394.576549 
" clip-path="url(#pa7f16a77e4)" style="fill: none; stroke: #0279ee; stroke-width: 2; stroke-linecap: round"/>
    <path d="M 465.73575 403.701007 
L 461.643774 394.576549 
L 471.549007 393.203101 
" clip-path="url(#pa7f16a77e4)" style="fill: none; stroke: #0279ee; stroke-width: 2; stroke-linecap: round"/>
   </g>
   <g id="patch_5">
    <path d="M 356.307562 161.362214 
Q 407.315034 245.499799 457.458484 328.212167 
" clip-path="url(#pa7f16a77e4)" style="fill: none; stroke: #0279ee; stroke-width: 2; stroke-linecap: round"/>
    <path d="M 458.44196 318.260646 
L 457.458484 328.212167 
L 448.180397 324.481604 
" clip-path="url(#pa7f16a77e4)" style="fill: none; stroke: #0279ee; stroke-width: 2; stroke-linecap: round"/>
   </g>
   <g id="patch_6">
    <path d="M 458.321607 329.635901 
Q 407.314134 245.498316 357.170684 162.785948 
" clip-path="url(#pa7f16a77e4)" style="fill: none; stroke: #0279ee; stroke-width: 2; stroke-linecap: round"/>
    <path d="M 356.187208 172.737469 
L 357.170684 162.785948 
L 366.448771 166.516511 
" clip-path="url(#pa7f16a77e4)" style="fill: none; stroke: #0279ee; stroke-width: 2; stroke-linecap: round"/>
   </g>
   <g id="patch_7">
    <path d="M 570.377779 323.080491 
Q 531.285286 351.447294 493.541738 378.835257 
" clip-path="url(#pa7f16a77e4)" style="fill: none; stroke: #0279ee; stroke-width: 2; stroke-linecap: round"/>
    <path d="M 503.540493 378.993032 
L 493.541738 378.835257 
L 496.492853 369.280629 
" clip-path="url(#pa7f16a77e4)" style="fill: none; stroke: #0279ee; stroke-width: 2; stroke-linecap: round"/>
   </g>
   <g id="line2d_4">
    <path d="M 570.188115 319.088911 
L 474.552137 372.943406 
" clip-path="url(#pa7f16a77e4)" style="fill: none; stroke-dasharray: 9.6,7.2; stroke-dashoffset: 0; stroke: #fd9bed; stroke-width: 2.4"/>
   </g>
   <g id="line2d_5">
    <path d="M 367.756447 399.512557 
L 351.102814 390.480428 
" clip-path="url(#pa7f16a77e4)" style="fill: none; stroke: #222222; stroke-width: 2; stroke-linecap: round"/>
   </g>
   <g id="line2d_6">
    <path d="M 368.26121 418.451091 
L 367.756447 399.512557 
" clip-path="url(#pa7f16a77e4)" style="fill: none; stroke: #222222; stroke-width: 2; stroke-linecap: round"/>
   </g>
   <g id="line2d_7">
    <path d="M 384.914843 427.48322 
L 368.26121 418.451091 
" clip-path="url(#pa7f16a77e4)" style="fill: none; stroke: #222222; stroke-width: 2; stroke-linecap: round"/>
   </g>
   <g id="line2d_8">
    <path d="M 352.11234 428.357496 
L 368.26121 418.451091 
" clip-path="url(#pa7f16a77e4)" style="fill: none; stroke: #222222; stroke-width: 2; stroke-linecap: round"/>
   </g>
   <g id="line2d_9">
    <path d="M 348.66853 446.987124 
L 352.11234 428.357496 
" clip-path="url(#pa7f16a77e4)" style="fill: none; stroke: #222222; stroke-width: 2; stroke-linecap: round"/>
   </g>
   <g id="line2d_10">
    <path d="M 329.886506 449.468737 
L 348.66853 446.987124 
" clip-path="url(#pa7f16a77e4)" style="fill: none; stroke: #222222; stroke-width: 2; stroke-linecap: round"/>
   </g>
   <g id="line2d_11">
    <path d="M 321.722386 432.372831 
L 329.886506 449.468737 
" clip-path="url(#pa7f16a77e4)" style="fill: none; stroke: #222222; stroke-width: 2; stroke-linecap: round"/>
   </g>
   <g id="line2d_12">
    <path d="M 335.458707 419.325367 
L 321.722386 432.372831 
" clip-path="url(#pa7f16a77e4)" style="fill: none; stroke: #222222; stroke-width: 2; stroke-linecap: round"/>
   </g>
   <g id="line2d_13">
    <path d="M 335.458707 419.325367 
L 352.11234 428.357496 
" clip-path="url(#pa7f16a77e4)" style="fill: none; stroke: #222222; stroke-width: 2; stroke-linecap: round"/>
   </g>
   <g id="line2d_14">
    <path d="M 334.953944 400.386833 
L 351.102814 390.480428 
" clip-path="url(#pa7f16a77e4)" style="fill: none; stroke: #222222; stroke-width: 2; stroke-linecap: round"/>
   </g>
   <g id="line2d_15">
    <path d="M 334.953944 400.386833 
L 335.458707 419.325367 
" clip-path="url(#pa7f16a77e4)" style="fill: none; stroke: #222222; stroke-width: 2; stroke-linecap: round"/>
   </g>
   <g id="line2d_16">
    <path d="M 383.905317 389.606153 
L 367.756447 399.512557 
" clip-path="url(#pa7f16a77e4)" style="fill: none; stroke: #222222; stroke-width: 2; stroke-linecap: round"/>
   </g>
   <g id="line2d_17">
    <path d="M 400.55895 398.638282 
L 383.905317 389.606153 
" clip-path="url(#pa7f16a77e4)" style="fill: none; stroke: #222222; stroke-width: 2; stroke-linecap: round"/>
   </g>
   <g id="line2d_18">
    <path d="M 416.70782 388.731877 
L 400.55895 398.638282 
" clip-path="url(#pa7f16a77e4)" style="fill: none; stroke: #222222; stroke-width: 2; stroke-linecap: round"/>
   </g>
   <g id="line2d_19">
    <path d="M 416.203057 369.793343 
L 416.70782 388.731877 
" clip-path="url(#pa7f16a77e4)" style="fill: none; stroke: #222222; stroke-width: 2; stroke-linecap: round"/>
   </g>
   <g id="line2d_20">
    <path d="M 432.351926 359.886939 
L 416.203057 369.793343 
" clip-path="url(#pa7f16a77e4)" style="fill: none; stroke: #222222; stroke-width: 2; stroke-linecap: round"/>
   </g>
   <g id="line2d_21">
    <path d="M 431.847163 340.948405 
L 432.351926 359.886939 
" clip-path="url(#pa7f16a77e4)" style="fill: none; stroke: #222222; stroke-width: 2; stroke-linecap: round"/>
   </g>
   <g id="line2d_22">
    <path d="M 399.549424 360.761214 
L 416.203057 369.793343 
" clip-path="url(#pa7f16a77e4)" style="fill: none; stroke: #222222; stroke-width: 2; stroke-linecap: round"/>
   </g>
   <g id="line2d_23">
    <path d="M 383.400554 370.667619 
L 399.549424 360.761214 
" clip-path="url(#pa7f16a77e4)" style="fill: none; stroke: #222222; stroke-width: 2; stroke-linecap: round"/>
   </g>
   <g id="line2d_24">
    <path d="M 383.400554 370.667619 
L 383.905317 389.606153 
" clip-path="url(#pa7f16a77e4)" style="fill: none; stroke: #222222; stroke-width: 2; stroke-linecap: round"/>
   </g>
   <g id="line2d_25">
    <path d="M 449.00556 368.919068 
L 432.351926 359.886939 
" clip-path="url(#pa7f16a77e4)" style="fill: none; stroke: #222222; stroke-width: 2; stroke-linecap: round"/>
   </g>
   <g id="line2d_26">
    <path d="M 449.510323 387.857602 
L 449.00556 368.919068 
" clip-path="url(#pa7f16a77e4)" style="fill: none; stroke: #222222; stroke-width: 2; stroke-linecap: round"/>
   </g>
   <g id="line2d_27">
    <path d="M 466.163956 396.889731 
L 449.510323 387.857602 
" clip-path="url(#pa7f16a77e4)" style="fill: none; stroke: #222222; stroke-width: 2; stroke-linecap: round"/>
   </g>
   <g id="line2d_28">
    <path d="M 482.312826 386.983326 
L 466.163956 396.889731 
" clip-path="url(#pa7f16a77e4)" style="fill: none; stroke: #222222; stroke-width: 2; stroke-linecap: round"/>
   </g>
   <g id="line2d_29">
    <path d="M 481.808063 368.044793 
L 482.312826 386.983326 
" clip-path="url(#pa7f16a77e4)" style="fill: none; stroke: #222222; stroke-width: 2; stroke-linecap: round"/>
   </g>
   <g id="line2d_30">
    <path d="M 497.956932 358.138388 
L 481.808063 368.044793 
" clip-path="url(#pa7f16a77e4)" style="fill: none; stroke: #222222; stroke-width: 2; stroke-linecap: round"/>
   </g>
   <g id="line2d_31">
    <path d="M 465.154429 359.012663 
L 481.808063 368.044793 
" clip-path="url(#pa7f16a77e4)" style="fill: none; stroke: #222222; stroke-width: 2; stroke-linecap: round"/>
   </g>
   <g id="line2d_32">
    <path d="M 465.154429 359.012663 
L 449.00556 368.919068 
" clip-path="url(#pa7f16a77e4)" style="fill: none; stroke: #222222; stroke-width: 2; stroke-linecap: round"/>
   </g>
   <g id="line2d_33">
    <path d="M 464.649666 340.074129 
L 465.154429 359.012663 
" clip-path="url(#pa7f16a77e4)" style="fill: none; stroke: #222222; stroke-width: 2; stroke-linecap: round"/>
   </g>
   <g id="line2d_34">
    <path d="M 320.854376 466.12237 
L 329.886506 449.468737 
" clip-path="url(#pa7f16a77e4)" style="fill: none; stroke: #222222; stroke-width: 2; stroke-linecap: round"/>
   </g>
   <g id="line2d_35">
    <path d="M 301.915843 466.627134 
L 320.854376 466.12237 
" clip-path="url(#pa7f16a77e4)" style="fill: none; stroke: #222222; stroke-width: 2; stroke-linecap: round"/>
   </g>
   <g id="line2d_36">
    <path d="M 292.883713 483.280767 
L 301.915843 466.627134 
" clip-path="url(#pa7f16a77e4)" style="fill: none; stroke: #222222; stroke-width: 2; stroke-linecap: round"/>
   </g>
   <g id="line2d_37">
    <path d="M 302.790118 499.429637 
L 292.883713 483.280767 
" clip-path="url(#pa7f16a77e4)" style="fill: none; stroke: #222222; stroke-width: 2; stroke-linecap: round"/>
   </g>
   <g id="line2d_38">
    <path d="M 321.728652 498.924873 
L 302.790118 499.429637 
" clip-path="url(#pa7f16a77e4)" style="fill: none; stroke: #222222; stroke-width: 2; stroke-linecap: round"/>
   </g>
   <g id="line2d_39">
    <path d="M 330.760781 482.27124 
L 320.854376 466.12237 
" clip-path="url(#pa7f16a77e4)" style="fill: none; stroke: #222222; stroke-width: 2; stroke-linecap: round"/>
   </g>
   <g id="line2d_40">
    <path d="M 330.760781 482.27124 
L 321.728652 498.924873 
" clip-path="url(#pa7f16a77e4)" style="fill: none; stroke: #222222; stroke-width: 2; stroke-linecap: round"/>
   </g>
   <g id="line2d_41">
    <path d="M 350.598051 371.541894 
L 366.746921 361.635489 
" clip-path="url(#pa7f16a77e4)" style="fill: none; stroke: #222222; stroke-width: 2; stroke-linecap: round"/>
   </g>
   <g id="line2d_42">
    <path d="M 350.598051 371.541894 
L 351.102814 390.480428 
" clip-path="url(#pa7f16a77e4)" style="fill: none; stroke: #222222; stroke-width: 2; stroke-linecap: round"/>
   </g>
   <g id="line2d_43">
    <path d="M 318.300311 391.354703 
L 334.953944 400.386833 
" clip-path="url(#pa7f16a77e4)" style="fill: none; stroke: #222222; stroke-width: 2; stroke-linecap: round"/>
   </g>
   <g id="line2d_44">
    <path d="M 317.795548 372.41617 
L 318.300311 391.354703 
" clip-path="url(#pa7f16a77e4)" style="fill: none; stroke: #222222; stroke-width: 2; stroke-linecap: round"/>
   </g>
   <g id="line2d_45">
    <path d="M 333.944418 362.509765 
L 317.795548 372.41617 
" clip-path="url(#pa7f16a77e4)" style="fill: none; stroke: #222222; stroke-width: 2; stroke-linecap: round"/>
   </g>
   <g id="line2d_46">
    <path d="M 301.141915 363.38404 
L 317.795548 372.41617 
" clip-path="url(#pa7f16a77e4)" style="fill: none; stroke: #222222; stroke-width: 2; stroke-linecap: round"/>
   </g>
   <g id="line2d_47">
    <path d="M 300.637152 344.445506 
L 301.141915 363.38404 
" clip-path="url(#pa7f16a77e4)" style="fill: none; stroke: #222222; stroke-width: 2; stroke-linecap: round"/>
   </g>
   <g id="line2d_48">
    <path d="M 316.786021 334.539102 
L 300.637152 344.445506 
" clip-path="url(#pa7f16a77e4)" style="fill: none; stroke: #222222; stroke-width: 2; stroke-linecap: round"/>
   </g>
   <g id="line2d_49">
    <path d="M 316.281258 315.600568 
L 316.786021 334.539102 
" clip-path="url(#pa7f16a77e4)" style="fill: none; stroke: #222222; stroke-width: 2; stroke-linecap: round"/>
   </g>
   <g id="line2d_50">
    <path d="M 299.627625 306.568439 
L 316.281258 315.600568 
" clip-path="url(#pa7f16a77e4)" style="fill: none; stroke: #222222; stroke-width: 2; stroke-linecap: round"/>
   </g>
   <g id="line2d_51">
    <path d="M 283.478755 316.474843 
L 299.627625 306.568439 
" clip-path="url(#pa7f16a77e4)" style="fill: none; stroke: #222222; stroke-width: 2; stroke-linecap: round"/>
   </g>
   <g id="line2d_52">
    <path d="M 283.983518 335.413377 
L 283.478755 316.474843 
" clip-path="url(#pa7f16a77e4)" style="fill: none; stroke: #222222; stroke-width: 2; stroke-linecap: round"/>
   </g>
   <g id="line2d_53">
    <path d="M 283.983518 335.413377 
L 300.637152 344.445506 
" clip-path="url(#pa7f16a77e4)" style="fill: none; stroke: #222222; stroke-width: 2; stroke-linecap: round"/>
   </g>
   <g id="line2d_54">
    <path d="M 267.834649 345.319782 
L 283.983518 335.413377 
" clip-path="url(#pa7f16a77e4)" style="fill: none; stroke: #222222; stroke-width: 2; stroke-linecap: round"/>
   </g>
   <g id="line2d_55">
    <path d="M 299.122862 287.629905 
L 299.627625 306.568439 
" clip-path="url(#pa7f16a77e4)" style="fill: none; stroke: #222222; stroke-width: 2; stroke-linecap: round"/>
   </g>
   <g id="line2d_56">
    <path d="M 298.618099 268.691371 
L 299.122862 287.629905 
" clip-path="url(#pa7f16a77e4)" style="fill: none; stroke: #222222; stroke-width: 2; stroke-linecap: round"/>
   </g>
   <g id="line2d_57">
    <path d="M 318.061396 287.125141 
L 299.122862 287.629905 
" clip-path="url(#pa7f16a77e4)" style="fill: none; stroke: #222222; stroke-width: 2; stroke-linecap: round"/>
   </g>
   <g id="line2d_58">
    <path d="M 280.184328 288.134668 
L 299.122862 287.629905 
" clip-path="url(#pa7f16a77e4)" style="fill: none; stroke: #222222; stroke-width: 2; stroke-linecap: round"/>
   </g>
   <g id="text_1">
    <g id="patch_8">
     <path d="M 380.007968 433.35408 
L 389.821718 433.35408 
L 389.821718 421.612361 
L 380.007968 421.612361 
z
" style="fill: #ffffff"/>
    </g>
    <text style="font-weight: 700; font-size: 12px; font-family: 'Liberation Sans', 'Arimo', 'DejaVu Sans'; text-anchor: middle; fill: #d40000" x="384.914843" y="430.588689" transform="rotate(-0 384.914843 430.588689)">O</text>
   </g>
   <g id="text_2">
    <g id="patch_9">
     <path d="M 347.539215 434.228355 
L 356.685465 434.228355 
L 356.685465 422.486637 
L 347.539215 422.486637 
z
" style="fill: #ffffff"/>
    </g>
    <text style="font-weight: 700; font-size: 12px; font-family: 'Liberation Sans', 'Arimo', 'DejaVu Sans'; text-anchor: middle; fill: #0879c0" x="352.11234" y="431.462965" transform="rotate(-0 352.11234 431.462965)">N</text>
   </g>
   <g id="text_3">
    <g id="patch_10">
     <path d="M 344.095405 452.857983 
L 353.241655 452.857983 
L 353.241655 441.116264 
L 344.095405 441.116264 
z
" style="fill: #ffffff"/>
    </g>
    <text style="font-weight: 700; font-size: 12px; font-family: 'Liberation Sans', 'Arimo', 'DejaVu Sans'; text-anchor: middle; fill: #0879c0" x="348.66853" y="450.092592" transform="rotate(-0 348.66853 450.092592)">N</text>
   </g>
   <g id="text_4">
    <g id="patch_11">
     <path d="M 317.149261 438.243691 
L 326.295511 438.243691 
L 326.295511 426.501972 
L 317.149261 426.501972 
z
" style="fill: #ffffff"/>
    </g>
    <text style="font-weight: 700; font-size: 12px; font-family: 'Liberation Sans', 'Arimo', 'DejaVu Sans'; text-anchor: middle; fill: #0879c0" x="321.722386" y="435.4783" transform="rotate(-0 321.722386 435.4783)">N</text>
   </g>
   <g id="text_5">
    <g id="patch_12">
     <path d="M 330.380819 406.257692 
L 339.527069 406.257692 
L 339.527069 394.515973 
L 330.380819 394.515973 
z
" style="fill: #ffffff"/>
    </g>
    <text style="font-weight: 700; font-size: 12px; font-family: 'Liberation Sans', 'Arimo', 'DejaVu Sans'; text-anchor: middle; fill: #0879c0" x="334.953944" y="403.492301" transform="rotate(-0 334.953944 403.492301)">N</text>
   </g>
   <g id="text_6">
    <g id="patch_13">
     <path d="M 379.332192 395.477012 
L 388.478442 395.477012 
L 388.478442 383.735293 
L 379.332192 383.735293 
z
" style="fill: #ffffff"/>
    </g>
    <text style="font-weight: 700; font-size: 12px; font-family: 'Liberation Sans', 'Arimo', 'DejaVu Sans'; text-anchor: middle; fill: #0879c0" x="383.905317" y="392.711621" transform="rotate(-0 383.905317 392.711621)">N</text>
   </g>
   <g id="text_7">
    <g id="patch_14">
     <path d="M 411.629932 375.664203 
L 420.776182 375.664203 
L 420.776182 363.922484 
L 411.629932 363.922484 
z
" style="fill: #ffffff"/>
    </g>
    <text style="font-weight: 700; font-size: 12px; font-family: 'Liberation Sans', 'Arimo', 'DejaVu Sans'; text-anchor: middle; fill: #0879c0" x="416.203057" y="372.898812" transform="rotate(-0 416.203057 372.898812)">N</text>
   </g>
   <g id="text_8">
    <g id="patch_15">
     <path d="M 426.940288 346.819264 
L 436.754038 346.819264 
L 436.754038 335.077545 
L 426.940288 335.077545 
z
" style="fill: #ffffff"/>
    </g>
    <text style="font-weight: 700; font-size: 12px; font-family: 'Liberation Sans', 'Arimo', 'DejaVu Sans'; text-anchor: middle; fill: #d40000" x="431.847163" y="344.053874" transform="rotate(-0 431.847163 344.053874)">O</text>
   </g>
   <g id="text_9">
    <g id="patch_16">
     <path d="M 444.937198 393.728461 
L 454.083448 393.728461 
L 454.083448 381.986742 
L 444.937198 381.986742 
z
" style="fill: #ffffff"/>
    </g>
    <text style="font-weight: 700; font-size: 12px; font-family: 'Liberation Sans', 'Arimo', 'DejaVu Sans'; text-anchor: middle; fill: #0879c0" x="449.510323" y="390.963071" transform="rotate(-0 449.510323 390.963071)">N</text>
   </g>
   <g id="text_10">
    <g id="patch_17">
     <path d="M 477.739701 392.854186 
L 486.885951 392.854186 
L 486.885951 381.112467 
L 477.739701 381.112467 
z
" style="fill: #ffffff"/>
    </g>
    <text style="font-weight: 700; font-size: 12px; font-family: 'Liberation Sans', 'Arimo', 'DejaVu Sans'; text-anchor: middle; fill: #0879c0" x="482.312826" y="390.088795" transform="rotate(-0 482.312826 390.088795)">N</text>
   </g>
   <g id="text_11">
    <g id="patch_18">
     <path d="M 459.742791 345.944989 
L 469.556541 345.944989 
L 469.556541 334.20327 
L 459.742791 334.20327 
z
" style="fill: #ffffff"/>
    </g>
    <text style="font-weight: 700; font-size: 12px; font-family: 'Liberation Sans', 'Arimo', 'DejaVu Sans'; text-anchor: middle; fill: #d40000" x="464.649666" y="343.179598" transform="rotate(-0 464.649666 343.179598)">O</text>
   </g>
   <g id="text_12">
    <g id="patch_19">
     <path d="M 297.883243 505.300496 
L 307.696993 505.300496 
L 307.696993 493.558777 
L 297.883243 493.558777 
z
" style="fill: #ffffff"/>
    </g>
    <text style="font-weight: 700; font-size: 12px; font-family: 'Liberation Sans', 'Arimo', 'DejaVu Sans'; text-anchor: middle; fill: #d40000" x="302.790118" y="502.535105" transform="rotate(-0 302.790118 502.535105)">O</text>
   </g>
   <g id="text_13">
    <g id="patch_20">
     <path d="M 329.037543 368.380624 
L 338.851293 368.380624 
L 338.851293 356.638905 
L 329.037543 356.638905 
z
" style="fill: #ffffff"/>
    </g>
    <text style="font-weight: 700; font-size: 12px; font-family: 'Liberation Sans', 'Arimo', 'DejaVu Sans'; text-anchor: middle; fill: #d40000" x="333.944418" y="365.615234" transform="rotate(-0 333.944418 365.615234)">O</text>
   </g>
   <g id="text_14">
    <g id="patch_21">
     <path d="M 296.56879 369.2549 
L 305.71504 369.2549 
L 305.71504 357.513181 
L 296.56879 357.513181 
z
" style="fill: #ffffff"/>
    </g>
    <text style="font-weight: 700; font-size: 12px; font-family: 'Liberation Sans', 'Arimo', 'DejaVu Sans'; text-anchor: middle; fill: #0879c0" x="301.141915" y="366.489509" transform="rotate(-0 301.141915 366.489509)">N</text>
   </g>
   <g id="text_15">
    <g id="patch_22">
     <path d="M 261.594649 351.190641 
L 274.074649 351.190641 
L 274.074649 339.448922 
L 261.594649 339.448922 
z
" style="fill: #ffffff"/>
    </g>
    <text style="font-weight: 700; font-size: 12px; font-family: 'Liberation Sans', 'Arimo', 'DejaVu Sans'; text-anchor: middle; fill: #00a040" x="267.834649" y="348.42525" transform="rotate(-0 267.834649 348.42525)">Cl</text>
   </g>
   <g id="text_16">
    <g id="patch_23">
     <path d="M 294.713411 274.56223 
L 302.522786 274.56223 
L 302.522786 262.820511 
L 294.713411 262.820511 
z
" style="fill: #ffffff"/>
    </g>
    <text style="font-weight: 700; font-size: 12px; font-family: 'Liberation Sans', 'Arimo', 'DejaVu Sans'; text-anchor: middle; fill: #00a040" x="298.618099" y="271.796839" transform="rotate(-0 298.618099 271.796839)">F</text>
   </g>
   <g id="text_17">
    <g id="patch_24">
     <path d="M 314.156709 292.996001 
L 321.966084 292.996001 
L 321.966084 281.254282 
L 314.156709 281.254282 
z
" style="fill: #ffffff"/>
    </g>
    <text style="font-weight: 700; font-size: 12px; font-family: 'Liberation Sans', 'Arimo', 'DejaVu Sans'; text-anchor: middle; fill: #00a040" x="318.061396" y="290.23061" transform="rotate(-0 318.061396 290.23061)">F</text>
   </g>
   <g id="text_18">
    <g id="patch_25">
     <path d="M 276.279641 294.005527 
L 284.089016 294.005527 
L 284.089016 282.263808 
L 276.279641 282.263808 
z
" style="fill: #ffffff"/>
    </g>
    <text style="font-weight: 700; font-size: 12px; font-family: 'Liberation Sans', 'Arimo', 'DejaVu Sans'; text-anchor: middle; fill: #00a040" x="280.184328" y="291.240136" transform="rotate(-0 280.184328 291.240136)">F</text>
   </g>
   <g id="patch_26">
    <path d="M 185.09944 585.107663 
C 192.446096 585.107663 199.492841 582.188806 204.687712 576.993935 
C 209.882582 571.799065 212.80144 564.75232 212.80144 557.405663 
C 212.80144 550.059007 209.882582 543.012262 204.687712 537.817391 
C 199.492841 532.622521 192.446096 529.703663 185.09944 529.703663 
C 177.752783 529.703663 170.706038 532.622521 165.511168 537.817391 
C 160.316297 543.012262 157.39744 550.059007 157.39744 557.405663 
C 157.39744 564.75232 160.316297 571.799065 165.511168 576.993935 
C 170.706038 582.188806 177.752783 585.107663 185.09944 585.107663 
z
" clip-path="url(#pa7f16a77e4)" style="fill: #8bc34a; stroke: #222222; stroke-width: 1.2; stroke-linejoin: miter"/>
   </g>
   <g id="patch_27">
    <path d="M 113.919945 439.133076 
C 121.266602 439.133076 128.313347 436.214219 133.508217 431.019348 
C 138.703088 425.824478 141.621945 418.777733 141.621945 411.431076 
C 141.621945 404.08442 138.703088 397.037675 133.508217 391.842804 
C 128.313347 386.647934 121.266602 383.729076 113.919945 383.729076 
C 106.573289 383.729076 99.526544 386.647934 94.331673 391.842804 
C 89.136803 397.037675 86.217945 404.08442 86.217945 411.431076 
C 86.217945 418.777733 89.136803 425.824478 94.331673 431.019348 
C 99.526544 436.214219 106.573289 439.133076 113.919945 439.133076 
z
" clip-path="url(#pa7f16a77e4)" style="fill: #f5a623; stroke: #222222; stroke-width: 1.2; stroke-linejoin: miter"/>
   </g>
   <g id="patch_28">
    <path d="M 497.362459 203.166381 
C 504.709115 203.166381 511.755861 200.247524 516.950731 195.052654 
C 522.145602 189.857783 525.064459 182.811038 525.064459 175.464381 
C 525.064459 168.117725 522.145602 161.07098 516.950731 155.876109 
C 511.755861 150.681239 504.709115 147.762381 497.362459 147.762381 
C 490.015803 147.762381 482.969057 150.681239 477.774187 155.876109 
C 472.579317 161.07098 469.660459 168.117725 469.660459 175.464381 
C 469.660459 182.811038 472.579317 189.857783 477.774187 195.052654 
C 482.969057 200.247524 490.015803 203.166381 497.362459 203.166381 
z
" clip-path="url(#pa7f16a77e4)" style="fill: #8bc34a; stroke: #222222; stroke-width: 1.2; stroke-linejoin: miter"/>
   </g>
   <g id="patch_29">
    <path d="M 331.359503 655.681719 
C 338.706159 655.681719 345.752904 652.762861 350.947775 647.567991 
C 356.142645 642.37312 359.061503 635.326375 359.061503 627.979719 
C 359.061503 620.633062 356.142645 613.586317 350.947775 608.391447 
C 345.752904 603.196576 338.706159 600.277719 331.359503 600.277719 
C 324.012846 600.277719 316.966101 603.196576 311.77123 608.391447 
C 306.57636 613.586317 303.657503 620.633062 303.657503 627.979719 
C 303.657503 635.326375 306.57636 642.37312 311.77123 647.567991 
C 316.966101 652.762861 324.012846 655.681719 331.359503 655.681719 
z
" clip-path="url(#pa7f16a77e4)" style="fill: #8bc34a; stroke: #222222; stroke-width: 1.2; stroke-linejoin: miter"/>
   </g>
   <g id="patch_30">
    <path d="M 489.909944 620.569626 
C 497.256601 620.569626 504.303346 617.650769 509.498216 612.455898 
C 514.693087 607.261028 517.611944 600.214283 517.611944 592.867626 
C 517.611944 585.52097 514.693087 578.474225 509.498216 573.279354 
C 504.303346 568.084484 497.256601 565.165626 489.909944 565.165626 
C 482.563288 565.165626 475.516543 568.084484 470.321672 573.279354 
C 465.126802 578.474225 462.207944 585.52097 462.207944 592.867626 
C 462.207944 600.214283 465.126802 607.261028 470.321672 612.455898 
C 475.516543 617.650769 482.563288 620.569626 489.909944 620.569626 
z
" clip-path="url(#pa7f16a77e4)" style="fill: #f5a623; stroke: #222222; stroke-width: 1.2; stroke-linejoin: miter"/>
   </g>
   <g id="patch_31">
    <path d="M 592.695259 494.848832 
C 600.041915 494.848832 607.088661 491.929974 612.283531 486.735104 
C 617.478402 481.540233 620.397259 474.493488 620.397259 467.146832 
C 620.397259 459.800175 617.478402 452.75343 612.283531 447.55856 
C 607.088661 442.363689 600.041915 439.444832 592.695259 439.444832 
C 585.348603 439.444832 578.301858 442.363689 573.106987 447.55856 
C 567.912117 452.75343 564.993259 459.800175 564.993259 467.146832 
C 564.993259 474.493488 567.912117 481.540233 573.106987 486.735104 
C 578.301858 491.929974 585.348603 494.848832 592.695259 494.848832 
z
" clip-path="url(#pa7f16a77e4)" style="fill: #f5a623; stroke: #222222; stroke-width: 1.2; stroke-linejoin: miter"/>
   </g>
   <g id="patch_32">
    <path d="M 340.153498 162.417846 
C 347.500155 162.417846 354.5469 159.498989 359.74177 154.304118 
C 364.936641 149.109248 367.855498 142.062503 367.855498 134.715846 
C 367.855498 127.36919 364.936641 120.322445 359.74177 115.127574 
C 354.5469 109.932704 347.500155 107.013846 340.153498 107.013846 
C 332.806842 107.013846 325.760097 109.932704 320.565226 115.127574 
C 315.370356 120.322445 312.451498 127.36919 312.451498 134.715846 
C 312.451498 142.062503 315.370356 149.109248 320.565226 154.304118 
C 325.760097 159.498989 332.806842 162.417846 340.153498 162.417846 
z
" clip-path="url(#pa7f16a77e4)" style="fill: #5087c5; stroke: #222222; stroke-width: 1.2; stroke-linejoin: miter"/>
   </g>
   <g id="patch_33">
    <path d="M 595.596527 332.482935 
C 602.943184 332.482935 609.989929 329.564078 615.184799 324.369207 
C 620.37967 319.174337 623.298527 312.127592 623.298527 304.780935 
C 623.298527 297.434279 620.37967 290.387534 615.184799 285.192663 
C 609.989929 279.997793 602.943184 277.078935 595.596527 277.078935 
C 588.249871 277.078935 581.203126 279.997793 576.008255 285.192663 
C 570.813385 290.387534 567.894527 297.434279 567.894527 304.780935 
C 567.894527 312.127592 570.813385 319.174337 576.008255 324.369207 
C 581.203126 329.564078 588.249871 332.482935 595.596527 332.482935 
z
" clip-path="url(#pa7f16a77e4)" style="fill: #5087c5; stroke: #222222; stroke-width: 1.2; stroke-linejoin: miter"/>
   </g>
   <g id="text_19">
    <text style="font-weight: 700; font-size: 9.5px; font-family: 'Liberation Sans', 'Arimo', 'DejaVu Sans'; text-anchor: middle; fill: #222222" x="185.09944" y="559.864159" transform="rotate(-0 185.09944 559.864159)">A704</text>
   </g>
   <g id="text_20">
    <text style="font-weight: 700; font-size: 9.5px; font-family: 'Liberation Sans', 'Arimo', 'DejaVu Sans'; text-anchor: middle; fill: #222222" x="113.919945" y="413.889572" transform="rotate(-0 113.919945 413.889572)">T705</text>
   </g>
   <g id="text_21">
    <text style="font-weight: 700; font-size: 9.5px; font-family: 'Liberation Sans', 'Arimo', 'DejaVu Sans'; text-anchor: middle; fill: #222222" x="497.362459" y="177.922878" transform="rotate(-0 497.362459 177.922878)">I828</text>
   </g>
   <g id="text_22">
    <text style="font-weight: 700; font-size: 9.5px; font-family: 'Liberation Sans', 'Arimo', 'DejaVu Sans'; text-anchor: middle; fill: #222222" x="331.359503" y="630.438215" transform="rotate(-0 331.359503 630.438215)">A706</text>
   </g>
   <g id="text_23">
    <text style="font-weight: 700; font-size: 9.5px; font-family: 'Liberation Sans', 'Arimo', 'DejaVu Sans'; text-anchor: middle; fill: #222222" x="489.909944" y="595.326122" transform="rotate(-0 489.909944 595.326122)">S707</text>
   </g>
   <g id="text_24">
    <text style="font-weight: 700; font-size: 9.5px; font-family: 'Liberation Sans', 'Arimo', 'DejaVu Sans'; text-anchor: middle; fill: #222222" x="592.695259" y="469.605328" transform="rotate(-0 592.695259 469.605328)">S708</text>
   </g>
   <g id="text_25">
    <text style="font-weight: 700; font-size: 9.5px; font-family: 'Liberation Sans', 'Arimo', 'DejaVu Sans'; text-anchor: middle; fill: #ffffff" x="340.153498" y="137.174343" transform="rotate(-0 340.153498 137.174343)">K830</text>
   </g>
   <g id="text_26">
    <text style="font-weight: 700; font-size: 9.5px; font-family: 'Liberation Sans', 'Arimo', 'DejaVu Sans'; text-anchor: middle; fill: #ffffff" x="595.596527" y="307.239432" transform="rotate(-0 595.596527 307.239432)">R857</text>
   </g>
  </g>
  <g id="patch_34">
   <path d="M 130.640391 714.42 
Q 135.83969 714.42 138.914724 714.42 
" style="fill: none; stroke: #0279ee; stroke-width: 1.9; stroke-linecap: round"/>
   <path d="M 134.114724 712.02 
L 138.914724 714.42 
L 134.114724 716.82 
" style="fill: none; stroke: #0279ee; stroke-width: 1.9; stroke-linecap: round"/>
  </g>
  <g id="patch_35">
   <path d="M 92.16 743.148 
C 93.68757 743.148 95.15278 742.510745 96.232935 741.376582 
C 97.31309 740.242419 97.92 738.703948 97.92 737.1 
C 97.92 735.496052 97.31309 733.957581 96.232935 732.823418 
C 95.15278 731.689255 93.68757 731.052 92.16 731.052 
C 90.63243 731.052 89.16722 731.689255 88.087065 732.823418 
C 87.00691 733.957581 86.4 735.496052 86.4 737.1 
C 86.4 738.703948 87.00691 740.242419 88.087065 741.376582 
C 89.16722 742.510745 90.63243 743.148 92.16 743.148 
z
" style="fill: #5087c5; stroke: #222222; stroke-width: 0.8; stroke-linejoin: miter"/>
  </g>
  <g id="patch_36">
   <path d="M 218.88 743.148 
C 220.40757 743.148 221.87278 742.510745 222.952935 741.376582 
C 224.03309 740.242419 224.64 738.703948 224.64 737.1 
C 224.64 735.496052 224.03309 733.957581 222.952935 732.823418 
C 221.87278 731.689255 220.40757 731.052 218.88 731.052 
C 217.35243 731.052 215.88722 731.689255 214.807065 732.823418 
C 213.72691 733.957581 213.12 735.496052 213.12 737.1 
C 213.12 738.703948 213.72691 740.242419 214.807065 741.376582 
C 215.88722 742.510745 217.35243 743.148 218.88 743.148 
z
" style="fill: #d9584c; stroke: #222222; stroke-width: 0.8; stroke-linejoin: miter"/>
  </g>
  <g id="patch_37">
   <path d="M 345.6 743.148 
C 347.12757 743.148 348.59278 742.510745 349.672935 741.376582 
C 350.75309 740.242419 351.36 738.703948 351.36 737.1 
C 351.36 735.496052 350.75309 733.957581 349.672935 732.823418 
C 348.59278 731.689255 347.12757 731.052 345.6 731.052 
C 344.07243 731.052 342.60722 731.689255 341.527065 732.823418 
C 340.44691 733.957581 339.84 735.496052 339.84 737.1 
C 339.84 738.703948 340.44691 740.242419 341.527065 741.376582 
C 342.60722 742.510745 344.07243 743.148 345.6 743.148 
z
" style="fill: #f5a623; stroke: #222222; stroke-width: 0.8; stroke-linejoin: miter"/>
  </g>
  <g id="patch_38">
   <path d="M 472.32 743.148 
C 473.84757 743.148 475.31278 742.510745 476.392935 741.376582 
C 477.47309 740.242419 478.08 738.703948 478.08 737.1 
C 478.08 735.496052 477.47309 733.957581 476.392935 732.823418 
C 475.31278 731.689255 473.84757 731.052 472.32 731.052 
C 470.79243 731.052 469.32722 731.689255 468.247065 732.823418 
C 467.16691 733.957581 466.56 735.496052 466.56 737.1 
C 466.56 738.703948 467.16691 740.242419 468.247065 741.376582 
C 469.32722 742.510745 470.79243 743.148 472.32 743.148 
z
" style="fill: #8bc34a; stroke: #222222; stroke-width: 0.8; stroke-linejoin: miter"/>
  </g>
  <g id="patch_39">
   <path d="M 599.04 743.148 
C 600.56757 743.148 602.03278 742.510745 603.112935 741.376582 
C 604.19309 740.242419 604.8 738.703948 604.8 737.1 
C 604.8 735.496052 604.19309 733.957581 603.112935 732.823418 
C 602.03278 731.689255 600.56757 731.052 599.04 731.052 
C 597.51243 731.052 596.04722 731.689255 594.967065 732.823418 
C 593.88691 733.957581 593.28 735.496052 593.28 737.1 
C 593.28 738.703948 593.88691 740.242419 594.967065 741.376582 
C 596.04722 742.510745 597.51243 743.148 599.04 743.148 
z
" style="fill: #ffffff; stroke: #dc3912; stroke-width: 2.5; stroke-linejoin: miter"/>
  </g>
  <g id="line2d_59">
   <path d="M 339.84 714.42 
L 354.24 714.42 
" style="fill: none; stroke: #75a025; stroke-opacity: 0.4; stroke-width: 4; stroke-linecap: square"/>
  </g>
  <g id="line2d_60">
   <path d="M 551.04 714.42 
L 565.44 714.42 
" style="fill: none; stroke-dasharray: 9.6,7.2; stroke-dashoffset: 0; stroke: #fd9bed; stroke-width: 2.4"/>
  </g>
  <g id="text_27">
   <text style="font-weight: 700; font-size: 14px; font-family: 'Liberation Sans', 'Arimo', 'DejaVu Sans'; text-anchor: middle" x="360" y="21.532383" transform="rotate(-0 360 21.532383)">F730L × 9MJT · HRO761 — NEUTRAL</text>
  </g>
  <g id="text_28">
   <text style="font-size: 10.5px; font-family: 'Liberation Sans', 'Arimo', 'DejaVu Sans'; text-anchor: middle" x="360" y="41.66925" transform="rotate(-0 360 41.66925)">ΔS = +0.08  |  RMSD vs WT = 0.13 Å  |  0 lost / 8 retained / 0 gained</text>
  </g>
  <g id="text_29">
   <text style="font-size: 10.5px; font-family: 'Liberation Sans', 'Arimo', 'DejaVu Sans'; text-anchor: middle" x="360" y="61.320287" transform="rotate(-0 360 61.320287)">PLIP: 3 hydrophobic · 6 H-bond · 1 π-cation</text>
  </g>
  <g id="text_30">
   <text style="font-size: 8.5px; font-family: 'Liberation Sans', 'Arimo', 'DejaVu Sans'; text-anchor: start" x="146.64" y="716.619707" transform="rotate(-0 146.64 716.619707)">H-bond</text>
  </g>
  <g id="text_31">
   <text style="font-size: 8.5px; font-family: 'Liberation Sans', 'Arimo', 'DejaVu Sans'; text-anchor: start" x="357.84" y="716.619707" transform="rotate(-0 357.84 716.619707)">Hydrophobic</text>
  </g>
  <g id="text_32">
   <text style="font-size: 8.5px; font-family: 'Liberation Sans', 'Arimo', 'DejaVu Sans'; text-anchor: start" x="569.04" y="716.619707" transform="rotate(-0 569.04 716.619707)">π-cation</text>
  </g>
  <g id="text_33">
   <text style="font-size: 8px; font-family: 'Liberation Sans', 'Arimo', 'DejaVu Sans'; text-anchor: start" x="100.8" y="739.170313" transform="rotate(-0 100.8 739.170313)">Basic</text>
  </g>
  <g id="text_34">
   <text style="font-size: 8px; font-family: 'Liberation Sans', 'Arimo', 'DejaVu Sans'; text-anchor: start" x="227.52" y="739.170313" transform="rotate(-0 227.52 739.170313)">Acidic</text>
  </g>
  <g id="text_35">
   <text style="font-size: 8px; font-family: 'Liberation Sans', 'Arimo', 'DejaVu Sans'; text-anchor: start" x="354.24" y="739.170313" transform="rotate(-0 354.24 739.170313)">Polar</text>
  </g>
  <g id="text_36">
   <text style="font-size: 8px; font-family: 'Liberation Sans', 'Arimo', 'DejaVu Sans'; text-anchor: start" x="480.96" y="739.170313" transform="rotate(-0 480.96 739.170313)">Hydrophobic</text>
  </g>
  <g id="text_37">
   <text style="font-size: 8px; font-family: 'Liberation Sans', 'Arimo', 'DejaVu Sans'; text-anchor: start" x="607.68" y="739.170313" transform="rotate(-0 607.68 739.170313)">Mutation site</text>
  </g>
 </g>
 <defs>
  <clipPath id="pa7f16a77e4">
   <rect x="53.82" y="75.6" width="612.36" height="612.36"/>
  </clipPath>
 </defs>
</svg>
