<?xml version="1.0" encoding="utf-8" standalone="no"?>
<!DOCTYPE svg PUBLIC "-//W3C//DTD SVG 1.1//EN"
  "http://www.w3.org/Graphics/SVG/1.1/DTD/svg11.dtd">
<svg xmlns:xlink="http://www.w3.org/1999/xlink" width="720pt" height="756pt" viewBox="0 0 720 756" xmlns="http://www.w3.org/2000/svg" version="1.1">
 <metadata>
  <rdf:RDF xmlns:dc="http://purl.org/dc/elements/1.1/" xmlns:cc="http://creativecommons.org/ns#" xmlns:rdf="http://www.w3.org/1999/02/22-rdf-syntax-ns#">
   <cc:Work>
    <dc:type rdf:resource="http://purl.org/dc/dcmitype/StillImage"/>
    <dc:date>2022-01-01T05:00:00+00:00</dc:date>
    <dc:format>image/svg+xml</dc:format>
    <dc:creator>
     <cc:Agent>
      <dc:title>Matplotlib v3.11.0, https://matplotlib.org/</dc:title>
     </cc:Agent>
    </dc:creator>
   </cc:Work>
  </rdf:RDF>
 </metadata>
 <defs>
  <style type="text/css">*{stroke-linejoin: round; stroke-linecap: butt}</style>
 </defs>
 <g id="figure_1">
  <g id="patch_1">
   <path d="M 0 756 
L 720 756 
L 720 0 
L 0 0 
z
" style="fill: #ffffff"/>
  </g>
  <g id="axes_1">
   <g id="line2d_1">
    <path d="M 553.069571 184.818189 
L 550.254969 192.570733 
L 547.361502 200.280035 
L 544.38917 207.946097 
L 541.337972 215.568917 
L 538.207909 223.148497 
L 534.998981 230.684835 
L 531.711187 238.177933 
L 528.344528 245.627789 
L 524.899004 253.034405 
L 521.374614 260.397779 
L 517.771359 267.717913 
L 514.089239 274.994805 
L 510.328253 282.228456 
L 506.488403 289.418867 
L 502.569686 296.566036 
L 498.572105 303.669965 
L 494.495658 310.730652 
L 490.340346 317.748099 
L 486.106168 324.722304 
L 481.793126 331.653268 
L 477.401218 338.540992 
L 472.930444 345.385474 
L 468.380805 352.186716 
L 463.752301 358.944716 
L 459.044932 365.659475 
L 454.258697 372.330994 
L 449.393597 378.959271 
L 444.449632 385.544307 
L 439.426801 392.086103 
" clip-path="url(#pdb6b285968)" style="fill: none; stroke: #75a025; stroke-opacity: 0.4; stroke-width: 4; stroke-linecap: round"/>
   </g>
   <g id="line2d_2">
    <path d="M 635.037084 412.73583 
L 628.431558 413.830612 
L 621.82523 414.852382 
L 615.2181 415.801139 
L 608.61017 416.676885 
L 602.001438 417.479617 
L 595.391905 418.209338 
L 588.781571 418.866046 
L 582.170436 419.449742 
L 575.5585 419.960425 
L 568.945762 420.398097 
L 562.332223 420.762755 
L 555.717883 421.054402 
L 549.102742 421.273036 
L 542.486799 421.418658 
L 535.870056 421.491267 
L 529.252511 421.490864 
L 522.634165 421.417449 
L 516.015017 421.271021 
L 509.395069 421.051581 
L 502.774319 420.759129 
L 496.152768 420.393664 
L 489.530416 419.955187 
L 482.907262 419.443698 
L 476.283308 418.859196 
L 469.658552 418.201682 
L 463.032995 417.471156 
L 456.406637 416.667617 
L 449.779478 415.791066 
L 443.151517 414.841503 
" clip-path="url(#pdb6b285968)" style="fill: none; stroke: #75a025; stroke-opacity: 0.4; stroke-width: 4; stroke-linecap: round"/>
   </g>
   <g id="line2d_3">
    <path d="M 508.412531 615.504633 
L 502.024748 609.508629 
L 495.71222 603.453766 
L 489.474947 597.340043 
L 483.312931 591.167459 
L 477.22617 584.936015 
L 471.214664 578.645711 
L 465.278415 572.296547 
L 459.417421 565.888522 
L 453.631682 559.421638 
L 447.9212 552.895893 
L 442.285973 546.311288 
L 436.726002 539.667823 
L 431.241286 532.965497 
L 425.831826 526.204312 
L 420.497622 519.384266 
L 415.238673 512.50536 
L 410.054981 505.567594 
L 404.946543 498.570968 
L 399.913362 491.515481 
L 394.955436 484.401135 
L 390.072766 477.227928 
L 385.265351 469.995861 
L 380.533193 462.704933 
L 375.87629 455.355146 
L 371.294642 447.946498 
L 366.78825 440.478991 
L 362.357114 432.952623 
L 358.001234 425.367395 
L 353.720609 417.723306 
" clip-path="url(#pdb6b285968)" style="fill: none; stroke: #75a025; stroke-opacity: 0.4; stroke-width: 4; stroke-linecap: round"/>
   </g>
   <g id="line2d_4">
    <path d="M 499.302185 620.318879 
L 495.467704 612.614241 
L 491.722643 604.881105 
L 488.067 597.119471 
L 484.500777 589.32934 
L 481.023973 581.510711 
L 477.636588 573.663583 
L 474.338622 565.787959 
L 471.130075 557.883836 
L 468.010947 549.951215 
L 464.981238 541.990097 
L 462.040949 534.000481 
L 459.190078 525.982367 
L 456.428627 517.935755 
L 453.756595 509.860646 
L 451.173982 501.757038 
L 448.680788 493.624933 
L 446.277013 485.46433 
L 443.962657 477.27523 
L 441.737721 469.057631 
L 439.602203 460.811535 
L 437.556105 452.536941 
L 435.599426 444.233849 
L 433.732166 435.902259 
L 431.954325 427.542172 
L 430.265903 419.153586 
L 428.6669 410.736503 
L 427.157316 402.290922 
L 425.737152 393.816843 
L 424.406406 385.314267 
" clip-path="url(#pdb6b285968)" style="fill: none; stroke: #75a025; stroke-opacity: 0.4; stroke-width: 4; stroke-linecap: round"/>
   </g>
   <g id="line2d_5">
    <path d="M 267.306015 642.794395 
L 269.282489 634.514331 
L 271.344909 626.269355 
L 273.493275 618.059464 
L 275.727587 609.88466 
L 278.047845 601.744943 
L 280.454049 593.640312 
L 282.946199 585.570768 
L 285.524295 577.53631 
L 288.188336 569.536939 
L 290.938324 561.572655 
L 293.774258 553.643457 
L 296.696137 545.749345 
L 299.703963 537.89032 
L 302.797734 530.066382 
L 305.977452 522.27753 
L 309.243115 514.523764 
L 312.594725 506.805086 
L 316.03228 499.121493 
L 319.555781 491.472988 
L 323.165228 483.859568 
L 326.860621 476.281236 
L 330.64196 468.73799 
L 334.509246 461.22983 
L 338.462477 453.756757 
L 342.501654 446.31877 
L 346.626776 438.91587 
L 350.837845 431.548057 
L 355.13486 424.21533 
L 359.517821 416.91769 
" clip-path="url(#pdb6b285968)" style="fill: none; stroke: #75a025; stroke-opacity: 0.4; stroke-width: 4; stroke-linecap: round"/>
   </g>
   <g id="line2d_6">
    <path d="M 133.834954 227.80954 
L 137.754106 232.829171 
L 141.612634 237.882682 
L 145.41054 242.970073 
L 149.147823 248.091346 
L 152.824483 253.246498 
L 156.440519 258.435532 
L 159.995933 263.658446 
L 163.490724 268.91524 
L 166.924891 274.205916 
L 170.298436 279.530471 
L 173.611358 284.888908 
L 176.863657 290.281225 
L 180.055332 295.707423 
L 183.186385 301.167501 
L 186.256815 306.66146 
L 189.266622 312.189299 
L 192.215805 317.751019 
L 195.104366 323.34662 
L 197.932304 328.976101 
L 200.699619 334.639463 
L 203.406311 340.336705 
L 206.052379 346.067828 
L 208.637825 351.832832 
L 211.162648 357.631716 
L 213.626848 363.464481 
L 216.030425 369.331127 
L 218.373379 375.231653 
L 220.655709 381.16606 
L 222.877417 387.134347 
" clip-path="url(#pdb6b285968)" style="fill: none; stroke: #75a025; stroke-opacity: 0.4; stroke-width: 4; stroke-linecap: round"/>
   </g>
   <g id="line2d_7">
    <path d="M 577.545292 406.162641 
L 475.705062 381.386324 
" clip-path="url(#pdb6b285968)" style="fill: none; stroke: #8b4513; stroke-width: 2.2; stroke-linecap: square"/>
   </g>
   <g id="patch_2">
    <path d="M 168.239948 277.004057 
Q 200.534556 314.997485 231.749747 351.721017 
" clip-path="url(#pdb6b285968)" style="fill: none; stroke: #0279ee; stroke-width: 2; stroke-linecap: round"/>
    <path d="M 231.140166 341.739613 
L 231.749747 351.721017 
L 221.996917 349.511422 
" clip-path="url(#pdb6b285968)" style="fill: none; stroke: #0279ee; stroke-width: 2; stroke-linecap: round"/>
   </g>
   <g id="patch_3">
    <path d="M 156.066094 455.059917 
Q 207.437691 436.596298 257.24085 418.696395 
" clip-path="url(#pdb6b285968)" style="fill: none; stroke: #0279ee; stroke-width: 2; stroke-linecap: round"/>
    <path d="M 247.682961 415.755858 
L 257.24085 418.696395 
L 251.741725 427.048618 
" clip-path="url(#pdb6b285968)" style="fill: none; stroke: #0279ee; stroke-width: 2; stroke-linecap: round"/>
   </g>
   <g id="line2d_8">
    <path d="M 340.846046 380.948376 
L 352.248979 392.901681 
" clip-path="url(#pdb6b285968)" style="fill: none; stroke: #222222; stroke-width: 2; stroke-linecap: round"/>
   </g>
   <g id="line2d_9">
    <path d="M 337.470166 384.168819 
L 348.873099 396.122124 
" clip-path="url(#pdb6b285968)" style="fill: none; stroke-dasharray: 3,2; stroke-dashoffset: 0; stroke: #222222"/>
   </g>
   <g id="line2d_10">
    <path d="M 346.046968 367.363404 
L 341.396569 383.215286 
" clip-path="url(#pdb6b285968)" style="fill: none; stroke: #222222; stroke-width: 2; stroke-linecap: round"/>
   </g>
   <g id="line2d_11">
    <path d="M 341.570043 366.050027 
L 336.919643 381.901909 
" clip-path="url(#pdb6b285968)" style="fill: none; stroke-dasharray: 3,2; stroke-dashoffset: 0; stroke: #222222"/>
   </g>
   <g id="line2d_12">
    <path d="M 334.937483 352.338078 
L 346.340416 364.291383 
" clip-path="url(#pdb6b285968)" style="fill: none; stroke: #222222; stroke-width: 2; stroke-linecap: round"/>
   </g>
   <g id="line2d_13">
    <path d="M 329.873662 357.168743 
L 341.276595 369.122048 
" clip-path="url(#pdb6b285968)" style="fill: none; stroke: #222222; stroke-width: 2; stroke-linecap: round"/>
   </g>
   <g id="line2d_14">
    <path d="M 360.41236 365.075048 
L 344.359028 368.973625 
" clip-path="url(#pdb6b285968)" style="fill: none; stroke: #222222; stroke-width: 2; stroke-linecap: round"/>
   </g>
   <g id="line2d_15">
    <path d="M 359.311315 360.541228 
L 343.257983 364.439805 
" clip-path="url(#pdb6b285968)" style="fill: none; stroke-dasharray: 3,2; stroke-dashoffset: 0; stroke: #222222"/>
   </g>
   <g id="line2d_16">
    <path d="M 369.75942 349.377271 
L 361.914852 363.915879 
" clip-path="url(#pdb6b285968)" style="fill: none; stroke: #222222; stroke-width: 2; stroke-linecap: round"/>
   </g>
   <g id="line2d_17">
    <path d="M 365.653392 347.16179 
L 357.808824 361.700397 
" clip-path="url(#pdb6b285968)" style="fill: none; stroke-dasharray: 3,2; stroke-dashoffset: 0; stroke: #222222"/>
   </g>
   <g id="line2d_18">
    <path d="M 383.538441 353.532324 
L 367.287298 350.564373 
" clip-path="url(#pdb6b285968)" style="fill: none; stroke: #222222; stroke-width: 2; stroke-linecap: round"/>
   </g>
   <g id="line2d_19">
    <path d="M 384.376657 348.942638 
L 368.125514 345.974687 
" clip-path="url(#pdb6b285968)" style="fill: none; stroke-dasharray: 3,2; stroke-dashoffset: 0; stroke: #222222"/>
   </g>
   <g id="line2d_20">
    <path d="M 383.844702 367.920934 
L 381.645512 351.548032 
" clip-path="url(#pdb6b285968)" style="fill: none; stroke: #222222; stroke-width: 2; stroke-linecap: round"/>
   </g>
   <g id="line2d_21">
    <path d="M 388.468776 367.299834 
L 386.269586 350.926931 
" clip-path="url(#pdb6b285968)" style="fill: none; stroke-dasharray: 3,2; stroke-dashoffset: 0; stroke: #222222"/>
   </g>
   <g id="line2d_22">
    <path d="M 370.254961 372.658531 
L 385.146929 365.507472 
" clip-path="url(#pdb6b285968)" style="fill: none; stroke: #222222; stroke-width: 2; stroke-linecap: round"/>
   </g>
   <g id="line2d_23">
    <path d="M 372.27458 376.864356 
L 387.166548 369.713296 
" clip-path="url(#pdb6b285968)" style="fill: none; stroke-dasharray: 3,2; stroke-dashoffset: 0; stroke: #222222"/>
   </g>
   <g id="line2d_24">
    <path d="M 369.57683 376.371665 
L 358.173897 364.41836 
" clip-path="url(#pdb6b285968)" style="fill: none; stroke: #222222; stroke-width: 2; stroke-linecap: round"/>
   </g>
   <g id="line2d_25">
    <path d="M 372.952711 373.151222 
L 361.549778 361.197917 
" clip-path="url(#pdb6b285968)" style="fill: none; stroke-dasharray: 3,2; stroke-dashoffset: 0; stroke: #222222"/>
   </g>
   <g id="line2d_26">
    <path d="M 364.375908 389.956637 
L 369.026307 374.104755 
" clip-path="url(#pdb6b285968)" style="fill: none; stroke: #222222; stroke-width: 2; stroke-linecap: round"/>
   </g>
   <g id="line2d_27">
    <path d="M 368.852834 391.270013 
L 373.503233 375.418131 
" clip-path="url(#pdb6b285968)" style="fill: none; stroke-dasharray: 3,2; stroke-dashoffset: 0; stroke: #222222"/>
   </g>
   <g id="line2d_28">
    <path d="M 367.164894 392.880235 
L 351.111562 396.778812 
" clip-path="url(#pdb6b285968)" style="fill: none; stroke: #222222; stroke-width: 2; stroke-linecap: round"/>
   </g>
   <g id="line2d_29">
    <path d="M 366.063848 388.346415 
L 350.010516 392.244992 
" clip-path="url(#pdb6b285968)" style="fill: none; stroke-dasharray: 3,2; stroke-dashoffset: 0; stroke: #222222"/>
   </g>
   <g id="line2d_30">
    <path d="M 323.104774 386.457174 
L 339.158106 382.558597 
" clip-path="url(#pdb6b285968)" style="fill: none; stroke: #222222; stroke-width: 2; stroke-linecap: round"/>
   </g>
   <g id="line2d_31">
    <path d="M 311.701841 374.503869 
L 323.104774 386.457174 
" clip-path="url(#pdb6b285968)" style="fill: none; stroke: #222222; stroke-width: 2; stroke-linecap: round"/>
   </g>
   <g id="line2d_32">
    <path d="M 295.648509 378.402446 
L 311.701841 374.503869 
" clip-path="url(#pdb6b285968)" style="fill: none; stroke: #222222; stroke-width: 2; stroke-linecap: round"/>
   </g>
   <g id="line2d_33">
    <path d="M 290.99811 394.254328 
L 295.648509 378.402446 
" clip-path="url(#pdb6b285968)" style="fill: none; stroke: #222222; stroke-width: 2; stroke-linecap: round"/>
   </g>
   <g id="line2d_34">
    <path d="M 274.944778 398.152905 
L 290.99811 394.254328 
" clip-path="url(#pdb6b285968)" style="fill: none; stroke: #222222; stroke-width: 2; stroke-linecap: round"/>
   </g>
   <g id="line2d_35">
    <path d="M 266.936684 413.019755 
L 271.587083 397.167873 
" clip-path="url(#pdb6b285968)" style="fill: none; stroke: #222222; stroke-width: 2; stroke-linecap: round"/>
   </g>
   <g id="line2d_36">
    <path d="M 273.652073 414.98982 
L 278.302472 399.137938 
" clip-path="url(#pdb6b285968)" style="fill: none; stroke: #222222; stroke-width: 2; stroke-linecap: round"/>
   </g>
   <g id="line2d_37">
    <path d="M 302.401043 406.207633 
L 290.99811 394.254328 
" clip-path="url(#pdb6b285968)" style="fill: none; stroke: #222222; stroke-width: 2; stroke-linecap: round"/>
   </g>
   <g id="line2d_38">
    <path d="M 318.454375 402.309056 
L 302.401043 406.207633 
" clip-path="url(#pdb6b285968)" style="fill: none; stroke: #222222; stroke-width: 2; stroke-linecap: round"/>
   </g>
   <g id="line2d_39">
    <path d="M 318.454375 402.309056 
L 323.104774 386.457174 
" clip-path="url(#pdb6b285968)" style="fill: none; stroke: #222222; stroke-width: 2; stroke-linecap: round"/>
   </g>
   <g id="line2d_40">
    <path d="M 263.541845 386.1996 
L 274.944778 398.152905 
" clip-path="url(#pdb6b285968)" style="fill: none; stroke: #222222; stroke-width: 2; stroke-linecap: round"/>
   </g>
   <g id="line2d_41">
    <path d="M 270.430707 371.004407 
L 265.780308 386.856289 
" clip-path="url(#pdb6b285968)" style="fill: none; stroke: #222222; stroke-width: 2; stroke-linecap: round"/>
   </g>
   <g id="line2d_42">
    <path d="M 265.953781 369.69103 
L 261.303382 385.542912 
" clip-path="url(#pdb6b285968)" style="fill: none; stroke-dasharray: 3,2; stroke-dashoffset: 0; stroke: #222222"/>
   </g>
   <g id="line2d_43">
    <path d="M 258.477252 356.784192 
L 269.880185 368.737497 
" clip-path="url(#pdb6b285968)" style="fill: none; stroke: #222222; stroke-width: 2; stroke-linecap: round"/>
   </g>
   <g id="line2d_44">
    <path d="M 255.101371 360.004635 
L 266.504304 371.95794 
" clip-path="url(#pdb6b285968)" style="fill: none; stroke-dasharray: 3,2; stroke-dashoffset: 0; stroke: #222222"/>
   </g>
   <g id="line2d_45">
    <path d="M 240.185457 360.026081 
L 256.238789 356.127504 
" clip-path="url(#pdb6b285968)" style="fill: none; stroke: #222222; stroke-width: 2; stroke-linecap: round"/>
   </g>
   <g id="line2d_46">
    <path d="M 241.286502 364.559901 
L 257.339834 360.661323 
" clip-path="url(#pdb6b285968)" style="fill: none; stroke-dasharray: 3,2; stroke-dashoffset: 0; stroke: #222222"/>
   </g>
   <g id="line2d_47">
    <path d="M 233.847117 377.488184 
L 238.497516 361.636302 
" clip-path="url(#pdb6b285968)" style="fill: none; stroke: #222222; stroke-width: 2; stroke-linecap: round"/>
   </g>
   <g id="line2d_48">
    <path d="M 238.324043 378.801561 
L 242.974442 362.949679 
" clip-path="url(#pdb6b285968)" style="fill: none; stroke-dasharray: 3,2; stroke-dashoffset: 0; stroke: #222222"/>
   </g>
   <g id="line2d_49">
    <path d="M 220.032248 382.04345 
L 236.08558 378.144873 
" clip-path="url(#pdb6b285968)" style="fill: none; stroke: #222222; stroke-width: 2; stroke-linecap: round"/>
   </g>
   <g id="line2d_50">
    <path d="M 245.800573 391.708399 
L 234.39764 379.755094 
" clip-path="url(#pdb6b285968)" style="fill: none; stroke: #222222; stroke-width: 2; stroke-linecap: round"/>
   </g>
   <g id="line2d_51">
    <path d="M 249.176453 388.487956 
L 237.77352 376.534651 
" clip-path="url(#pdb6b285968)" style="fill: none; stroke-dasharray: 3,2; stroke-dashoffset: 0; stroke: #222222"/>
   </g>
   <g id="line2d_52">
    <path d="M 246.93799 387.831267 
L 262.991322 383.93269 
" clip-path="url(#pdb6b285968)" style="fill: none; stroke: #222222; stroke-width: 2; stroke-linecap: round"/>
   </g>
   <g id="line2d_53">
    <path d="M 248.039035 392.365087 
L 264.092368 388.46651 
" clip-path="url(#pdb6b285968)" style="fill: none; stroke-dasharray: 3,2; stroke-dashoffset: 0; stroke: #222222"/>
   </g>
   <g id="line2d_54">
    <path d="M 242.838114 405.950059 
L 247.488513 390.098177 
" clip-path="url(#pdb6b285968)" style="fill: none; stroke: #222222; stroke-width: 2; stroke-linecap: round"/>
   </g>
   <g id="line2d_55">
    <path d="M 395.910854 339.834549 
L 383.957549 351.237481 
" clip-path="url(#pdb6b285968)" style="fill: none; stroke: #222222; stroke-width: 2; stroke-linecap: round"/>
   </g>
   <g id="line2d_56">
    <path d="M 410.777703 347.842642 
L 394.925821 343.192243 
" clip-path="url(#pdb6b285968)" style="fill: none; stroke: #222222; stroke-width: 2; stroke-linecap: round"/>
   </g>
   <g id="line2d_57">
    <path d="M 412.747768 341.127254 
L 396.895886 336.476854 
" clip-path="url(#pdb6b285968)" style="fill: none; stroke: #222222; stroke-width: 2; stroke-linecap: round"/>
   </g>
   <g id="line2d_58">
    <path d="M 423.716041 333.082015 
L 411.762736 344.484948 
" clip-path="url(#pdb6b285968)" style="fill: none; stroke: #222222; stroke-width: 2; stroke-linecap: round"/>
   </g>
   <g id="line2d_59">
    <path d="M 419.817464 317.028683 
L 423.716041 333.082015 
" clip-path="url(#pdb6b285968)" style="fill: none; stroke: #222222; stroke-width: 2; stroke-linecap: round"/>
   </g>
   <g id="line2d_60">
    <path d="M 403.965582 312.378284 
L 419.817464 317.028683 
" clip-path="url(#pdb6b285968)" style="fill: none; stroke: #222222; stroke-width: 2; stroke-linecap: round"/>
   </g>
   <g id="line2d_61">
    <path d="M 392.012277 323.781216 
L 403.965582 312.378284 
" clip-path="url(#pdb6b285968)" style="fill: none; stroke: #222222; stroke-width: 2; stroke-linecap: round"/>
   </g>
   <g id="line2d_62">
    <path d="M 392.012277 323.781216 
L 395.910854 339.834549 
" clip-path="url(#pdb6b285968)" style="fill: none; stroke: #222222; stroke-width: 2; stroke-linecap: round"/>
   </g>
   <g id="line2d_63">
    <path d="M 345.91064 410.363784 
L 350.561039 394.511902 
" clip-path="url(#pdb6b285968)" style="fill: none; stroke: #222222; stroke-width: 2; stroke-linecap: round"/>
   </g>
   <g id="line2d_64">
    <path d="M 345.91064 410.363784 
L 357.313572 422.317089 
" clip-path="url(#pdb6b285968)" style="fill: none; stroke: #222222; stroke-width: 2; stroke-linecap: round"/>
   </g>
   <g id="line2d_65">
    <path d="M 378.017304 402.56663 
L 366.614371 390.613325 
" clip-path="url(#pdb6b285968)" style="fill: none; stroke: #222222; stroke-width: 2; stroke-linecap: round"/>
   </g>
   <g id="line2d_66">
    <path d="M 394.070636 398.668053 
L 378.017304 402.56663 
" clip-path="url(#pdb6b285968)" style="fill: none; stroke: #222222; stroke-width: 2; stroke-linecap: round"/>
   </g>
   <g id="line2d_67">
    <path d="M 402.07873 383.801204 
L 397.42833 399.653085 
" clip-path="url(#pdb6b285968)" style="fill: none; stroke: #222222; stroke-width: 2; stroke-linecap: round"/>
   </g>
   <g id="line2d_68">
    <path d="M 395.363341 381.831138 
L 390.712942 397.68302 
" clip-path="url(#pdb6b285968)" style="fill: none; stroke: #222222; stroke-width: 2; stroke-linecap: round"/>
   </g>
   <g id="line2d_69">
    <path d="M 405.473569 410.621358 
L 394.070636 398.668053 
" clip-path="url(#pdb6b285968)" style="fill: none; stroke: #222222; stroke-width: 2; stroke-linecap: round"/>
   </g>
   <g id="line2d_70">
    <path d="M 421.526901 406.722781 
L 405.473569 410.621358 
" clip-path="url(#pdb6b285968)" style="fill: none; stroke: #222222; stroke-width: 2; stroke-linecap: round"/>
   </g>
   <g id="line2d_71">
    <path d="M 428.415763 391.527587 
L 423.765364 407.379469 
" clip-path="url(#pdb6b285968)" style="fill: none; stroke: #222222; stroke-width: 2; stroke-linecap: round"/>
   </g>
   <g id="line2d_72">
    <path d="M 423.938837 390.214211 
L 419.288438 406.066092 
" clip-path="url(#pdb6b285968)" style="fill: none; stroke-dasharray: 3,2; stroke-dashoffset: 0; stroke: #222222"/>
   </g>
   <g id="line2d_73">
    <path d="M 442.781155 389.239232 
L 426.727823 393.137809 
" clip-path="url(#pdb6b285968)" style="fill: none; stroke: #222222; stroke-width: 2; stroke-linecap: round"/>
   </g>
   <g id="line2d_74">
    <path d="M 441.68011 384.705412 
L 425.626778 388.603989 
" clip-path="url(#pdb6b285968)" style="fill: none; stroke-dasharray: 3,2; stroke-dashoffset: 0; stroke: #222222"/>
   </g>
   <g id="line2d_75">
    <path d="M 451.945625 400.535848 
L 440.542692 388.582543 
" clip-path="url(#pdb6b285968)" style="fill: none; stroke: #222222; stroke-width: 2; stroke-linecap: round"/>
   </g>
   <g id="line2d_76">
    <path d="M 455.321505 397.315405 
L 443.918573 385.3621 
" clip-path="url(#pdb6b285968)" style="fill: none; stroke-dasharray: 3,2; stroke-dashoffset: 0; stroke: #222222"/>
   </g>
   <g id="line2d_77">
    <path d="M 446.744703 414.12082 
L 451.395102 398.268938 
" clip-path="url(#pdb6b285968)" style="fill: none; stroke: #222222; stroke-width: 2; stroke-linecap: round"/>
   </g>
   <g id="line2d_78">
    <path d="M 451.221629 415.434197 
L 455.872028 399.582315 
" clip-path="url(#pdb6b285968)" style="fill: none; stroke-dasharray: 3,2; stroke-dashoffset: 0; stroke: #222222"/>
   </g>
   <g id="line2d_79">
    <path d="M 432.379311 416.409176 
L 448.432643 412.510599 
" clip-path="url(#pdb6b285968)" style="fill: none; stroke: #222222; stroke-width: 2; stroke-linecap: round"/>
   </g>
   <g id="line2d_80">
    <path d="M 433.480356 420.942996 
L 449.533688 417.044419 
" clip-path="url(#pdb6b285968)" style="fill: none; stroke-dasharray: 3,2; stroke-dashoffset: 0; stroke: #222222"/>
   </g>
   <g id="line2d_81">
    <path d="M 431.241893 420.286307 
L 419.838961 408.333002 
" clip-path="url(#pdb6b285968)" style="fill: none; stroke: #222222; stroke-width: 2; stroke-linecap: round"/>
   </g>
   <g id="line2d_82">
    <path d="M 434.617774 417.065864 
L 423.214841 405.112559 
" clip-path="url(#pdb6b285968)" style="fill: none; stroke-dasharray: 3,2; stroke-dashoffset: 0; stroke: #222222"/>
   </g>
   <g id="line2d_83">
    <path d="M 428.279434 434.527968 
L 432.929834 418.676086 
" clip-path="url(#pdb6b285968)" style="fill: none; stroke: #222222; stroke-width: 2; stroke-linecap: round"/>
   </g>
   <g id="line2d_84">
    <path d="M 469.686897 395.02705 
L 453.633565 398.925627 
" clip-path="url(#pdb6b285968)" style="fill: none; stroke: #222222; stroke-width: 2; stroke-linecap: round"/>
   </g>
   <g id="line2d_85">
    <path d="M 485.740229 391.128473 
L 469.686897 395.02705 
" clip-path="url(#pdb6b285968)" style="fill: none; stroke: #222222; stroke-width: 2; stroke-linecap: round"/>
   </g>
   <g id="line2d_86">
    <path d="M 465.78832 378.973718 
L 469.686897 395.02705 
" clip-path="url(#pdb6b285968)" style="fill: none; stroke: #222222; stroke-width: 2; stroke-linecap: round"/>
   </g>
   <g id="line2d_87">
    <path d="M 473.585474 411.080382 
L 469.686897 395.02705 
" clip-path="url(#pdb6b285968)" style="fill: none; stroke: #222222; stroke-width: 2; stroke-linecap: round"/>
   </g>
   <g id="text_1">
    <g id="patch_4">
     <path d="M 327.064635 360.99341 
L 337.74651 360.99341 
L 337.74651 348.51341 
L 327.064635 348.51341 
z
" style="fill: #ffffff"/>
    </g>
    <!-- O -->
    <g style="fill: #d40000" transform="translate(327.304635 357.870598) scale(0.12 -0.12)">
     <defs>
      <path id="DejaVuSans-Bold-32" d="M 2719 3878 
Q 2169 3878 1866 3472 
Q 1563 3066 1563 2328 
Q 1563 1594 1866 1187 
Q 2169 781 2719 781 
Q 3272 781 3575 1187 
Q 3878 1594 3878 2328 
Q 3878 3066 3575 3472 
Q 3272 3878 2719 3878 
z
M 2719 4750 
Q 3844 4750 4481 4106 
Q 5119 3463 5119 2328 
Q 5119 1197 4481 553 
Q 3844 -91 2719 -91 
Q 1597 -91 958 553 
Q 319 1197 319 2328 
Q 319 3463 958 4106 
Q 1597 4750 2719 4750 
z
" transform="scale(0.015625)"/>
     </defs>
     <use xlink:href="#DejaVuSans-Bold-32"/>
    </g>
   </g>
   <g id="text_2">
    <g id="patch_5">
     <path d="M 354.600588 369.048138 
L 365.123088 369.048138 
L 365.123088 356.568138 
L 354.600588 356.568138 
z
" style="fill: #ffffff"/>
    </g>
    <!-- N -->
    <g style="fill: #0879c0" transform="translate(354.840588 365.925326) scale(0.12 -0.12)">
     <defs>
      <path id="DejaVuSans-Bold-31" d="M 588 4666 
L 1931 4666 
L 3628 1466 
L 3628 4666 
L 4769 4666 
L 4769 0 
L 3425 0 
L 1728 3200 
L 1728 0 
L 588 0 
L 588 4666 
z
" transform="scale(0.015625)"/>
     </defs>
     <use xlink:href="#DejaVuSans-Bold-31"/>
    </g>
   </g>
   <g id="text_3">
    <g id="patch_6">
     <path d="M 362.445156 354.50953 
L 372.967656 354.50953 
L 372.967656 342.02953 
L 362.445156 342.02953 
z
" style="fill: #ffffff"/>
    </g>
    <!-- N -->
    <g style="fill: #0879c0" transform="translate(362.685156 351.386718) scale(0.12 -0.12)">
     <use xlink:href="#DejaVuSans-Bold-31"/>
    </g>
   </g>
   <g id="text_4">
    <g id="patch_7">
     <path d="M 380.895489 373.850384 
L 391.417989 373.850384 
L 391.417989 361.370384 
L 380.895489 361.370384 
z
" style="fill: #ffffff"/>
    </g>
    <!-- N -->
    <g style="fill: #0879c0" transform="translate(381.135489 370.727571) scale(0.12 -0.12)">
     <use xlink:href="#DejaVuSans-Bold-31"/>
    </g>
   </g>
   <g id="text_5">
    <g id="patch_8">
     <path d="M 361.353121 396.853325 
L 371.875621 396.853325 
L 371.875621 384.373325 
L 361.353121 384.373325 
z
" style="fill: #ffffff"/>
    </g>
    <!-- N -->
    <g style="fill: #0879c0" transform="translate(361.593121 393.730513) scale(0.12 -0.12)">
     <use xlink:href="#DejaVuSans-Bold-31"/>
    </g>
   </g>
   <g id="text_6">
    <g id="patch_9">
     <path d="M 317.843524 392.697174 
L 328.366024 392.697174 
L 328.366024 380.217174 
L 317.843524 380.217174 
z
" style="fill: #ffffff"/>
    </g>
    <!-- N -->
    <g style="fill: #0879c0" transform="translate(318.083524 389.574362) scale(0.12 -0.12)">
     <use xlink:href="#DejaVuSans-Bold-31"/>
    </g>
   </g>
   <g id="text_7">
    <g id="patch_10">
     <path d="M 285.73686 400.494328 
L 296.25936 400.494328 
L 296.25936 388.014328 
L 285.73686 388.014328 
z
" style="fill: #ffffff"/>
    </g>
    <!-- N -->
    <g style="fill: #0879c0" transform="translate(285.97686 397.371516) scale(0.12 -0.12)">
     <use xlink:href="#DejaVuSans-Bold-31"/>
    </g>
   </g>
   <g id="text_8">
    <g id="patch_11">
     <path d="M 264.953441 420.244787 
L 275.635316 420.244787 
L 275.635316 407.764787 
L 264.953441 407.764787 
z
" style="fill: #ffffff"/>
    </g>
    <!-- O -->
    <g style="fill: #d40000" transform="translate(265.193441 417.121975) scale(0.12 -0.12)">
     <use xlink:href="#DejaVuSans-Bold-32"/>
    </g>
   </g>
   <g id="text_9">
    <g id="patch_12">
     <path d="M 262.930994 376.587718 
L 273.453494 376.587718 
L 273.453494 364.107718 
L 262.930994 364.107718 
z
" style="fill: #ffffff"/>
    </g>
    <!-- N -->
    <g style="fill: #0879c0" transform="translate(263.170994 373.464906) scale(0.12 -0.12)">
     <use xlink:href="#DejaVuSans-Bold-31"/>
    </g>
   </g>
   <g id="text_10">
    <g id="patch_13">
     <path d="M 235.474729 368.532991 
L 245.997229 368.532991 
L 245.997229 356.052991 
L 235.474729 356.052991 
z
" style="fill: #ffffff"/>
    </g>
    <!-- N -->
    <g style="fill: #0879c0" transform="translate(235.714729 365.410178) scale(0.12 -0.12)">
     <use xlink:href="#DejaVuSans-Bold-31"/>
    </g>
   </g>
   <g id="text_11">
    <g id="patch_14">
     <path d="M 237.497176 412.190059 
L 248.179051 412.190059 
L 248.179051 399.710059 
L 237.497176 399.710059 
z
" style="fill: #ffffff"/>
    </g>
    <!-- O -->
    <g style="fill: #d40000" transform="translate(237.737176 409.067247) scale(0.12 -0.12)">
     <use xlink:href="#DejaVuSans-Bold-32"/>
    </g>
   </g>
   <g id="text_12">
    <g id="patch_15">
     <path d="M 414.476526 323.268683 
L 425.158401 323.268683 
L 425.158401 310.788683 
L 414.476526 310.788683 
z
" style="fill: #ffffff"/>
    </g>
    <!-- O -->
    <g style="fill: #d40000" transform="translate(414.716526 320.14587) scale(0.12 -0.12)">
     <use xlink:href="#DejaVuSans-Bold-32"/>
    </g>
   </g>
   <g id="text_13">
    <g id="patch_16">
     <path d="M 393.380098 389.056171 
L 404.061973 389.056171 
L 404.061973 376.576171 
L 393.380098 376.576171 
z
" style="fill: #ffffff"/>
    </g>
    <!-- O -->
    <g style="fill: #d40000" transform="translate(393.620098 385.933358) scale(0.12 -0.12)">
     <use xlink:href="#DejaVuSans-Bold-32"/>
    </g>
   </g>
   <g id="text_14">
    <g id="patch_17">
     <path d="M 400.212319 416.861358 
L 410.734819 416.861358 
L 410.734819 404.381358 
L 400.212319 404.381358 
z
" style="fill: #ffffff"/>
    </g>
    <!-- N -->
    <g style="fill: #0879c0" transform="translate(400.452319 413.738545) scale(0.12 -0.12)">
     <use xlink:href="#DejaVuSans-Bold-31"/>
    </g>
   </g>
   <g id="text_15">
    <g id="patch_18">
     <path d="M 421.579122 440.768436 
L 434.979747 440.768436 
L 434.979747 428.287499 
L 421.579122 428.287499 
z
" style="fill: #ffffff"/>
    </g>
    <!-- Cl -->
    <g style="fill: #00a040" transform="translate(421.819122 437.645624) scale(0.12 -0.12)">
     <defs>
      <path id="DejaVuSans-Bold-26" d="M 4288 256 
Q 3956 84 3597 -3 
Q 3238 -91 2847 -91 
Q 1681 -91 1000 561 
Q 319 1213 319 2328 
Q 319 3447 1000 4098 
Q 1681 4750 2847 4750 
Q 3238 4750 3597 4662 
Q 3956 4575 4288 4403 
L 4288 3438 
Q 3953 3666 3628 3772 
Q 3303 3878 2944 3878 
Q 2300 3878 1931 3465 
Q 1563 3053 1563 2328 
Q 1563 1606 1931 1193 
Q 2300 781 2944 781 
Q 3303 781 3628 887 
Q 3953 994 4288 1222 
L 4288 256 
z
" transform="scale(0.015625)"/>
      <path id="DejaVuSans-Bold-4f" d="M 538 4863 
L 1656 4863 
L 1656 0 
L 538 0 
L 538 4863 
z
" transform="scale(0.015625)"/>
     </defs>
     <use xlink:href="#DejaVuSans-Bold-26"/>
     <use xlink:href="#DejaVuSans-Bold-4f" transform="translate(73.390625 0)"/>
    </g>
   </g>
   <g id="text_16">
    <g id="patch_19">
     <path d="M 481.401479 397.368473 
L 490.078979 397.368473 
L 490.078979 384.888473 
L 481.401479 384.888473 
z
" style="fill: #ffffff"/>
    </g>
    <!-- F -->
    <g style="fill: #00a040" transform="translate(481.641479 394.24566) scale(0.12 -0.12)">
     <defs>
      <path id="DejaVuSans-Bold-29" d="M 588 4666 
L 3834 4666 
L 3834 3756 
L 1791 3756 
L 1791 2888 
L 3713 2888 
L 3713 1978 
L 1791 1978 
L 1791 0 
L 588 0 
L 588 4666 
z
" transform="scale(0.015625)"/>
     </defs>
     <use xlink:href="#DejaVuSans-Bold-29"/>
    </g>
   </g>
   <g id="text_17">
    <g id="patch_20">
     <path d="M 461.44957 385.213718 
L 470.12707 385.213718 
L 470.12707 372.733718 
L 461.44957 372.733718 
z
" style="fill: #ffffff"/>
    </g>
    <!-- F -->
    <g style="fill: #00a040" transform="translate(461.68957 382.090905) scale(0.12 -0.12)">
     <use xlink:href="#DejaVuSans-Bold-29"/>
    </g>
   </g>
   <g id="text_18">
    <g id="patch_21">
     <path d="M 469.246724 417.320382 
L 477.924224 417.320382 
L 477.924224 404.840382 
L 469.246724 404.840382 
z
" style="fill: #ffffff"/>
    </g>
    <!-- F -->
    <g style="fill: #00a040" transform="translate(469.486724 414.197569) scale(0.12 -0.12)">
     <use xlink:href="#DejaVuSans-Bold-29"/>
    </g>
   </g>
   <g id="patch_22">
    <path d="M 539.050415 238.089094 
C 546.397072 238.089094 553.443817 235.170236 558.638688 229.975366 
C 563.833558 224.780495 566.752415 217.73375 566.752415 210.387094 
C 566.752415 203.040437 563.833558 195.993692 558.638688 190.798822 
C 553.443817 185.603951 546.397072 182.685094 539.050415 182.685094 
C 531.703759 182.685094 524.657014 185.603951 519.462143 190.798822 
C 514.267273 195.993692 511.348415 203.040437 511.348415 210.387094 
C 511.348415 217.73375 514.267273 224.780495 519.462143 229.975366 
C 524.657014 235.170236 531.703759 238.089094 539.050415 238.089094 
z
" clip-path="url(#pdb6b285968)" style="fill: #8bc34a; stroke: #222222; stroke-width: 1.2; stroke-linejoin: miter"/>
   </g>
   <g id="patch_23">
    <path d="M 605.87884 440.7578 
C 613.225496 440.7578 620.272241 437.838943 625.467112 432.644072 
C 630.661982 427.449202 633.58084 420.402457 633.58084 413.0558 
C 633.58084 405.709144 630.661982 398.662399 625.467112 393.467528 
C 620.272241 388.272658 613.225496 385.3538 605.87884 385.3538 
C 598.532184 385.3538 591.485438 388.272658 586.290568 393.467528 
C 581.095697 398.662399 578.17684 405.709144 578.17684 413.0558 
C 578.17684 420.402457 581.095697 427.449202 586.290568 432.644072 
C 591.485438 437.838943 598.532184 440.7578 605.87884 440.7578 
z
" clip-path="url(#pdb6b285968)" style="fill: #d9584c; stroke: #222222; stroke-width: 1.2; stroke-linejoin: miter"/>
   </g>
   <g id="patch_24">
    <path d="M 490.447715 620.23772 
C 497.794371 620.23772 504.841116 617.318862 510.035987 612.123992 
C 515.230857 606.929121 518.149715 599.882376 518.149715 592.53572 
C 518.149715 585.189063 515.230857 578.142318 510.035987 572.947448 
C 504.841116 567.752577 497.794371 564.83372 490.447715 564.83372 
C 483.101058 564.83372 476.054313 567.752577 470.859442 572.947448 
C 465.664572 578.142318 462.745715 585.189063 462.745715 592.53572 
C 462.745715 599.882376 465.664572 606.929121 470.859442 612.123992 
C 476.054313 617.318862 483.101058 620.23772 490.447715 620.23772 
z
" clip-path="url(#pdb6b285968)" style="fill: #8bc34a; stroke: #222222; stroke-width: 1.2; stroke-linejoin: miter"/>
   </g>
   <g id="patch_25">
    <path d="M 278.327257 643.499398 
C 285.673913 643.499398 292.720659 640.580541 297.915529 635.38567 
C 303.1104 630.1908 306.029257 623.144054 306.029257 615.797398 
C 306.029257 608.450742 303.1104 601.403997 297.915529 596.209126 
C 292.720659 591.014256 285.673913 588.095398 278.327257 588.095398 
C 270.980601 588.095398 263.933856 591.014256 258.738985 596.209126 
C 253.544115 601.403997 250.625257 608.450742 250.625257 615.797398 
C 250.625257 623.144054 253.544115 630.1908 258.738985 635.38567 
C 263.933856 640.580541 270.980601 643.499398 278.327257 643.499398 
z
" clip-path="url(#pdb6b285968)" style="fill: #5087c5; stroke: #222222; stroke-width: 1.2; stroke-linejoin: miter"/>
   </g>
   <g id="patch_26">
    <path d="M 148.0608 280.966027 
C 155.407457 280.966027 162.454202 278.04717 167.649072 272.852299 
C 172.843943 267.657429 175.7628 260.610683 175.7628 253.264027 
C 175.7628 245.917371 172.843943 238.870626 167.649072 233.675755 
C 162.454202 228.480885 155.407457 225.562027 148.0608 225.562027 
C 140.714144 225.562027 133.667399 228.480885 128.472528 233.675755 
C 123.277658 238.870626 120.3588 245.917371 120.3588 253.264027 
C 120.3588 260.610683 123.277658 267.657429 128.472528 272.852299 
C 133.667399 278.04717 140.714144 280.966027 148.0608 280.966027 
z
" clip-path="url(#pdb6b285968)" style="fill: #f5a623; stroke: #222222; stroke-width: 1.2; stroke-linejoin: miter"/>
   </g>
   <g id="patch_27">
    <path d="M 126.742765 493.301103 
C 134.089421 493.301103 141.136167 490.382245 146.331037 485.187375 
C 151.525908 479.992504 154.444765 472.945759 154.444765 465.599103 
C 154.444765 458.252446 151.525908 451.205701 146.331037 446.010831 
C 141.136167 440.81596 134.089421 437.897103 126.742765 437.897103 
C 119.396109 437.897103 112.349364 440.81596 107.154493 446.010831 
C 101.959623 451.205701 99.040765 458.252446 99.040765 465.599103 
C 99.040765 472.945759 101.959623 479.992504 107.154493 485.187375 
C 112.349364 490.382245 119.396109 493.301103 126.742765 493.301103 
z
" clip-path="url(#pdb6b285968)" style="fill: #5087c5; stroke: #222222; stroke-width: 1.2; stroke-linejoin: miter"/>
   </g>
   <g id="text_19">
    <!-- V570 -->
    <g style="fill: #222222" transform="translate(525.459478 212.854867) scale(0.095 -0.095)">
     <defs>
      <path id="DejaVuSans-Bold-39" d="M 31 4666 
L 1241 4666 
L 2478 1222 
L 3713 4666 
L 4922 4666 
L 3194 0 
L 1759 0 
L 31 4666 
z
" transform="scale(0.015625)"/>
      <path id="DejaVuSans-Bold-18" d="M 678 4666 
L 3669 4666 
L 3669 3781 
L 1638 3781 
L 1638 3059 
Q 1775 3097 1914 3117 
Q 2053 3138 2203 3138 
Q 3056 3138 3531 2711 
Q 4006 2284 4006 1522 
Q 4006 766 3489 337 
Q 2972 -91 2053 -91 
Q 1656 -91 1267 -14 
Q 878 63 494 219 
L 494 1166 
Q 875 947 1217 837 
Q 1559 728 1863 728 
Q 2300 728 2551 942 
Q 2803 1156 2803 1522 
Q 2803 1891 2551 2103 
Q 2300 2316 1863 2316 
Q 1603 2316 1309 2248 
Q 1016 2181 678 2041 
L 678 4666 
z
" transform="scale(0.015625)"/>
      <path id="DejaVuSans-Bold-1a" d="M 428 4666 
L 3944 4666 
L 3944 3988 
L 2125 0 
L 953 0 
L 2675 3781 
L 428 3781 
L 428 4666 
z
" transform="scale(0.015625)"/>
      <path id="DejaVuSans-Bold-13" d="M 2944 2338 
Q 2944 3213 2780 3570 
Q 2616 3928 2228 3928 
Q 1841 3928 1675 3570 
Q 1509 3213 1509 2338 
Q 1509 1453 1675 1090 
Q 1841 728 2228 728 
Q 2613 728 2778 1090 
Q 2944 1453 2944 2338 
z
M 4147 2328 
Q 4147 1169 3647 539 
Q 3147 -91 2228 -91 
Q 1306 -91 806 539 
Q 306 1169 306 2328 
Q 306 3491 806 4120 
Q 1306 4750 2228 4750 
Q 3147 4750 3647 4120 
Q 4147 3491 4147 2328 
z
" transform="scale(0.015625)"/>
     </defs>
     <use xlink:href="#DejaVuSans-Bold-39"/>
     <use xlink:href="#DejaVuSans-Bold-18" transform="translate(77.390625 0)"/>
     <use xlink:href="#DejaVuSans-Bold-1a" transform="translate(146.96875 0)"/>
     <use xlink:href="#DejaVuSans-Bold-13" transform="translate(216.546875 0)"/>
    </g>
   </g>
   <g id="text_20">
    <!-- E846 -->
    <g style="fill: #ffffff" transform="translate(592.719113 415.523574) scale(0.095 -0.095)">
     <defs>
      <path id="DejaVuSans-Bold-28" d="M 588 4666 
L 3834 4666 
L 3834 3756 
L 1791 3756 
L 1791 2888 
L 3713 2888 
L 3713 1978 
L 1791 1978 
L 1791 909 
L 3903 909 
L 3903 0 
L 588 0 
L 588 4666 
z
" transform="scale(0.015625)"/>
      <path id="DejaVuSans-Bold-1b" d="M 2228 2088 
Q 1891 2088 1709 1903 
Q 1528 1719 1528 1375 
Q 1528 1031 1709 848 
Q 1891 666 2228 666 
Q 2563 666 2741 848 
Q 2919 1031 2919 1375 
Q 2919 1722 2741 1905 
Q 2563 2088 2228 2088 
z
M 1350 2484 
Q 925 2613 709 2878 
Q 494 3144 494 3541 
Q 494 4131 934 4440 
Q 1375 4750 2228 4750 
Q 3075 4750 3515 4442 
Q 3956 4134 3956 3541 
Q 3956 3144 3739 2878 
Q 3522 2613 3097 2484 
Q 3572 2353 3814 2058 
Q 4056 1763 4056 1313 
Q 4056 619 3595 264 
Q 3134 -91 2228 -91 
Q 1319 -91 855 264 
Q 391 619 391 1313 
Q 391 1763 633 2058 
Q 875 2353 1350 2484 
z
M 1631 3419 
Q 1631 3141 1786 2991 
Q 1941 2841 2228 2841 
Q 2509 2841 2662 2991 
Q 2816 3141 2816 3419 
Q 2816 3697 2662 3845 
Q 2509 3994 2228 3994 
Q 1941 3994 1786 3844 
Q 1631 3694 1631 3419 
z
" transform="scale(0.015625)"/>
      <path id="DejaVuSans-Bold-17" d="M 2356 3675 
L 1038 1722 
L 2356 1722 
L 2356 3675 
z
M 2156 4666 
L 3494 4666 
L 3494 1722 
L 4159 1722 
L 4159 850 
L 3494 850 
L 3494 0 
L 2356 0 
L 2356 850 
L 288 850 
L 288 1881 
L 2156 4666 
z
" transform="scale(0.015625)"/>
      <path id="DejaVuSans-Bold-19" d="M 2316 2303 
Q 2000 2303 1842 2098 
Q 1684 1894 1684 1484 
Q 1684 1075 1842 870 
Q 2000 666 2316 666 
Q 2634 666 2792 870 
Q 2950 1075 2950 1484 
Q 2950 1894 2792 2098 
Q 2634 2303 2316 2303 
z
M 3803 4544 
L 3803 3681 
Q 3506 3822 3243 3889 
Q 2981 3956 2731 3956 
Q 2194 3956 1894 3657 
Q 1594 3359 1544 2772 
Q 1750 2925 1990 3001 
Q 2231 3078 2516 3078 
Q 3231 3078 3670 2659 
Q 4109 2241 4109 1563 
Q 4109 813 3618 361 
Q 3128 -91 2303 -91 
Q 1394 -91 895 523 
Q 397 1138 397 2266 
Q 397 3422 980 4083 
Q 1563 4744 2578 4744 
Q 2900 4744 3203 4694 
Q 3506 4644 3803 4544 
z
" transform="scale(0.015625)"/>
     </defs>
     <use xlink:href="#DejaVuSans-Bold-28"/>
     <use xlink:href="#DejaVuSans-Bold-1b" transform="translate(68.3125 0)"/>
     <use xlink:href="#DejaVuSans-Bold-17" transform="translate(137.890625 0)"/>
     <use xlink:href="#DejaVuSans-Bold-19" transform="translate(207.46875 0)"/>
    </g>
   </g>
   <g id="text_21">
    <!-- F917 -->
    <g style="fill: #222222" transform="translate(477.287988 595.003493) scale(0.095 -0.095)">
     <defs>
      <path id="DejaVuSans-Bold-1c" d="M 641 103 
L 641 966 
Q 928 831 1190 764 
Q 1453 697 1709 697 
Q 2247 697 2547 995 
Q 2847 1294 2900 1881 
Q 2688 1725 2447 1647 
Q 2206 1569 1925 1569 
Q 1209 1569 770 1986 
Q 331 2403 331 3084 
Q 331 3838 820 4291 
Q 1309 4744 2131 4744 
Q 3044 4744 3544 4128 
Q 4044 3513 4044 2388 
Q 4044 1231 3459 570 
Q 2875 -91 1856 -91 
Q 1528 -91 1228 -42 
Q 928 6 641 103 
z
M 2125 2350 
Q 2441 2350 2600 2554 
Q 2759 2759 2759 3169 
Q 2759 3575 2600 3781 
Q 2441 3988 2125 3988 
Q 1809 3988 1650 3781 
Q 1491 3575 1491 3169 
Q 1491 2759 1650 2554 
Q 1809 2350 2125 2350 
z
" transform="scale(0.015625)"/>
      <path id="DejaVuSans-Bold-14" d="M 750 831 
L 1813 831 
L 1813 3847 
L 722 3622 
L 722 4441 
L 1806 4666 
L 2950 4666 
L 2950 831 
L 4013 831 
L 4013 0 
L 750 0 
L 750 831 
z
" transform="scale(0.015625)"/>
     </defs>
     <use xlink:href="#DejaVuSans-Bold-29"/>
     <use xlink:href="#DejaVuSans-Bold-1c" transform="translate(68.3125 0)"/>
     <use xlink:href="#DejaVuSans-Bold-14" transform="translate(137.890625 0)"/>
     <use xlink:href="#DejaVuSans-Bold-1a" transform="translate(207.46875 0)"/>
    </g>
   </g>
   <g id="text_22">
    <!-- K920 -->
    <g style="fill: #ffffff" transform="translate(264.731866 618.265172) scale(0.095 -0.095)">
     <defs>
      <path id="DejaVuSans-Bold-2e" d="M 588 4666 
L 1791 4666 
L 1791 2963 
L 3525 4666 
L 4922 4666 
L 2675 2456 
L 5153 0 
L 3647 0 
L 1791 1838 
L 1791 0 
L 588 0 
L 588 4666 
z
" transform="scale(0.015625)"/>
      <path id="DejaVuSans-Bold-15" d="M 1844 884 
L 3897 884 
L 3897 0 
L 506 0 
L 506 884 
L 2209 2388 
Q 2438 2594 2547 2791 
Q 2656 2988 2656 3200 
Q 2656 3528 2436 3728 
Q 2216 3928 1850 3928 
Q 1569 3928 1234 3808 
Q 900 3688 519 3450 
L 519 4475 
Q 925 4609 1322 4679 
Q 1719 4750 2100 4750 
Q 2938 4750 3402 4381 
Q 3866 4013 3866 3353 
Q 3866 2972 3669 2642 
Q 3472 2313 2841 1759 
L 1844 884 
z
" transform="scale(0.015625)"/>
     </defs>
     <use xlink:href="#DejaVuSans-Bold-2e"/>
     <use xlink:href="#DejaVuSans-Bold-1c" transform="translate(77.484375 0)"/>
     <use xlink:href="#DejaVuSans-Bold-15" transform="translate(147.0625 0)"/>
     <use xlink:href="#DejaVuSans-Bold-13" transform="translate(216.640625 0)"/>
    </g>
   </g>
   <g id="text_23">
    <!-- Q921 -->
    <g style="fill: #222222" transform="translate(134.107675 255.731801) scale(0.095 -0.095)">
     <defs>
      <path id="DejaVuSans-Bold-34" d="M 2847 -84 
L 2753 -84 
Q 1600 -84 959 553 
Q 319 1191 319 2328 
Q 319 3463 958 4106 
Q 1597 4750 2719 4750 
Q 3853 4750 4486 4112 
Q 5119 3475 5119 2328 
Q 5119 1541 4783 972 
Q 4447 403 3816 116 
L 4756 -934 
L 3609 -934 
L 2847 -84 
z
M 2719 3878 
Q 2169 3878 1866 3472 
Q 1563 3066 1563 2328 
Q 1563 1578 1859 1179 
Q 2156 781 2719 781 
Q 3272 781 3575 1187 
Q 3878 1594 3878 2328 
Q 3878 3066 3575 3472 
Q 3272 3878 2719 3878 
z
" transform="scale(0.015625)"/>
     </defs>
     <use xlink:href="#DejaVuSans-Bold-34"/>
     <use xlink:href="#DejaVuSans-Bold-1c" transform="translate(85.015625 0)"/>
     <use xlink:href="#DejaVuSans-Bold-15" transform="translate(154.59375 0)"/>
     <use xlink:href="#DejaVuSans-Bold-14" transform="translate(224.171875 0)"/>
    </g>
   </g>
   <g id="text_24">
    <!-- K555 -->
    <g style="fill: #ffffff" transform="translate(113.147375 468.066876) scale(0.095 -0.095)">
     <use xlink:href="#DejaVuSans-Bold-2e"/>
     <use xlink:href="#DejaVuSans-Bold-18" transform="translate(77.484375 0)"/>
     <use xlink:href="#DejaVuSans-Bold-18" transform="translate(147.0625 0)"/>
     <use xlink:href="#DejaVuSans-Bold-18" transform="translate(216.640625 0)"/>
    </g>
   </g>
  </g>
  <g id="patch_28">
   <path d="M 130.640391 714.42 
Q 135.83969 714.42 138.914724 714.42 
" style="fill: none; stroke: #0279ee; stroke-width: 1.9; stroke-linecap: round"/>
   <path d="M 134.114724 712.02 
L 138.914724 714.42 
L 134.114724 716.82 
" style="fill: none; stroke: #0279ee; stroke-width: 1.9; stroke-linecap: round"/>
  </g>
  <g id="patch_29">
   <path d="M 92.16 743.148 
C 93.68757 743.148 95.15278 742.510745 96.232935 741.376582 
C 97.31309 740.242419 97.92 738.703948 97.92 737.1 
C 97.92 735.496052 97.31309 733.957581 96.232935 732.823418 
C 95.15278 731.689255 93.68757 731.052 92.16 731.052 
C 90.63243 731.052 89.16722 731.689255 88.087065 732.823418 
C 87.00691 733.957581 86.4 735.496052 86.4 737.1 
C 86.4 738.703948 87.00691 740.242419 88.087065 741.376582 
C 89.16722 742.510745 90.63243 743.148 92.16 743.148 
z
" style="fill: #5087c5; stroke: #222222; stroke-width: 0.8; stroke-linejoin: miter"/>
  </g>
  <g id="patch_30">
   <path d="M 218.88 743.148 
C 220.40757 743.148 221.87278 742.510745 222.952935 741.376582 
C 224.03309 740.242419 224.64 738.703948 224.64 737.1 
C 224.64 735.496052 224.03309 733.957581 222.952935 732.823418 
C 221.87278 731.689255 220.40757 731.052 218.88 731.052 
C 217.35243 731.052 215.88722 731.689255 214.807065 732.823418 
C 213.72691 733.957581 213.12 735.496052 213.12 737.1 
C 213.12 738.703948 213.72691 740.242419 214.807065 741.376582 
C 215.88722 742.510745 217.35243 743.148 218.88 743.148 
z
" style="fill: #d9584c; stroke: #222222; stroke-width: 0.8; stroke-linejoin: miter"/>
  </g>
  <g id="patch_31">
   <path d="M 345.6 743.148 
C 347.12757 743.148 348.59278 742.510745 349.672935 741.376582 
C 350.75309 740.242419 351.36 738.703948 351.36 737.1 
C 351.36 735.496052 350.75309 733.957581 349.672935 732.823418 
C 348.59278 731.689255 347.12757 731.052 345.6 731.052 
C 344.07243 731.052 342.60722 731.689255 341.527065 732.823418 
C 340.44691 733.957581 339.84 735.496052 339.84 737.1 
C 339.84 738.703948 340.44691 740.242419 341.527065 741.376582 
C 342.60722 742.510745 344.07243 743.148 345.6 743.148 
z
" style="fill: #f5a623; stroke: #222222; stroke-width: 0.8; stroke-linejoin: miter"/>
  </g>
  <g id="patch_32">
   <path d="M 472.32 743.148 
C 473.84757 743.148 475.31278 742.510745 476.392935 741.376582 
C 477.47309 740.242419 478.08 738.703948 478.08 737.1 
C 478.08 735.496052 477.47309 733.957581 476.392935 732.823418 
C 475.31278 731.689255 473.84757 731.052 472.32 731.052 
C 470.79243 731.052 469.32722 731.689255 468.247065 732.823418 
C 467.16691 733.957581 466.56 735.496052 466.56 737.1 
C 466.56 738.703948 467.16691 740.242419 468.247065 741.376582 
C 469.32722 742.510745 470.79243 743.148 472.32 743.148 
z
" style="fill: #8bc34a; stroke: #222222; stroke-width: 0.8; stroke-linejoin: miter"/>
  </g>
  <g id="patch_33">
   <path d="M 599.04 743.148 
C 600.56757 743.148 602.03278 742.510745 603.112935 741.376582 
C 604.19309 740.242419 604.8 738.703948 604.8 737.1 
C 604.8 735.496052 604.19309 733.957581 603.112935 732.823418 
C 602.03278 731.689255 600.56757 731.052 599.04 731.052 
C 597.51243 731.052 596.04722 731.689255 594.967065 732.823418 
C 593.88691 733.957581 593.28 735.496052 593.28 737.1 
C 593.28 738.703948 593.88691 740.242419 594.967065 741.376582 
C 596.04722 742.510745 597.51243 743.148 599.04 743.148 
z
" style="fill: #ffffff; stroke: #dc3912; stroke-width: 2.5; stroke-linejoin: miter"/>
  </g>
  <g id="line2d_88">
   <path d="M 339.84 714.42 
L 354.24 714.42 
" style="fill: none; stroke: #75a025; stroke-opacity: 0.4; stroke-width: 4; stroke-linecap: square"/>
  </g>
  <g id="line2d_89">
   <path d="M 551.04 714.42 
L 565.44 714.42 
" style="fill: none; stroke: #8b4513; stroke-width: 2.2; stroke-linecap: square"/>
  </g>
  <g id="text_25">
   <!-- G729D × 7GQU · HRO761 — RESISTANCE -->
   <g transform="translate(201.339531 21.976719) scale(0.14 -0.14)">
    <defs>
     <path id="DejaVuSans-Bold-2a" d="M 4781 347 
Q 4331 128 3847 18 
Q 3363 -91 2847 -91 
Q 1681 -91 1000 561 
Q 319 1213 319 2328 
Q 319 3456 1012 4103 
Q 1706 4750 2913 4750 
Q 3378 4750 3804 4662 
Q 4231 4575 4609 4403 
L 4609 3438 
Q 4219 3659 3833 3768 
Q 3447 3878 3059 3878 
Q 2341 3878 1952 3476 
Q 1563 3075 1563 2328 
Q 1563 1588 1938 1184 
Q 2313 781 3003 781 
Q 3191 781 3352 804 
Q 3513 828 3641 878 
L 3641 1784 
L 2906 1784 
L 2906 2591 
L 4781 2591 
L 4781 347 
z
" transform="scale(0.015625)"/>
     <path id="DejaVuSans-Bold-27" d="M 1791 3756 
L 1791 909 
L 2222 909 
Q 2959 909 3348 1275 
Q 3738 1641 3738 2338 
Q 3738 3031 3350 3393 
Q 2963 3756 2222 3756 
L 1791 3756 
z
M 588 4666 
L 1856 4666 
Q 2919 4666 3439 4514 
Q 3959 4363 4331 4000 
Q 4659 3684 4818 3271 
Q 4978 2859 4978 2338 
Q 4978 1809 4818 1395 
Q 4659 981 4331 666 
Q 3956 303 3431 151 
Q 2906 0 1856 0 
L 588 0 
L 588 4666 
z
" transform="scale(0.015625)"/>
     <path id="DejaVuSans-Bold-3" transform="scale(0.015625)"/>
     <path id="DejaVuSans-Bold-99" d="M 4563 3359 
L 3206 2003 
L 4563 653 
L 4038 128 
L 2681 1478 
L 1325 128 
L 800 653 
L 2156 2003 
L 800 3359 
L 1325 3884 
L 2681 2528 
L 4038 3884 
L 4563 3359 
z
" transform="scale(0.015625)"/>
     <path id="DejaVuSans-Bold-38" d="M 588 4666 
L 1791 4666 
L 1791 1869 
Q 1791 1291 1980 1042 
Q 2169 794 2597 794 
Q 3028 794 3217 1042 
Q 3406 1291 3406 1869 
L 3406 4666 
L 4609 4666 
L 4609 1869 
Q 4609 878 4112 393 
Q 3616 -91 2597 -91 
Q 1581 -91 1084 393 
Q 588 878 588 1869 
L 588 4666 
z
" transform="scale(0.015625)"/>
     <path id="DejaVuSans-Bold-79" d="M 653 2828 
L 1778 2828 
L 1778 1619 
L 653 1619 
L 653 2828 
z
" transform="scale(0.015625)"/>
     <path id="DejaVuSans-Bold-2b" d="M 588 4666 
L 1791 4666 
L 1791 2888 
L 3566 2888 
L 3566 4666 
L 4769 4666 
L 4769 0 
L 3566 0 
L 3566 1978 
L 1791 1978 
L 1791 0 
L 588 0 
L 588 4666 
z
" transform="scale(0.015625)"/>
     <path id="DejaVuSans-Bold-35" d="M 2297 2597 
Q 2675 2597 2839 2737 
Q 3003 2878 3003 3200 
Q 3003 3519 2839 3656 
Q 2675 3794 2297 3794 
L 1791 3794 
L 1791 2597 
L 2297 2597 
z
M 1791 1766 
L 1791 0 
L 588 0 
L 588 4666 
L 2425 4666 
Q 3347 4666 3776 4356 
Q 4206 4047 4206 3378 
Q 4206 2916 3982 2619 
Q 3759 2322 3309 2181 
Q 3556 2125 3751 1926 
Q 3947 1728 4147 1325 
L 4800 0 
L 3519 0 
L 2950 1159 
Q 2778 1509 2601 1637 
Q 2425 1766 2131 1766 
L 1791 1766 
z
" transform="scale(0.015625)"/>
     <path id="DejaVuSans-Bold-af6" d="M 344 2156 
L 6056 2156 
L 6056 1350 
L 344 1350 
L 344 2156 
z
" transform="scale(0.015625)"/>
     <path id="DejaVuSans-Bold-36" d="M 3834 4519 
L 3834 3531 
Q 3450 3703 3084 3790 
Q 2719 3878 2394 3878 
Q 1963 3878 1756 3759 
Q 1550 3641 1550 3391 
Q 1550 3203 1689 3098 
Q 1828 2994 2194 2919 
L 2706 2816 
Q 3484 2659 3812 2340 
Q 4141 2022 4141 1434 
Q 4141 663 3683 286 
Q 3225 -91 2284 -91 
Q 1841 -91 1394 -6 
Q 947 78 500 244 
L 500 1259 
Q 947 1022 1364 901 
Q 1781 781 2169 781 
Q 2563 781 2772 912 
Q 2981 1044 2981 1288 
Q 2981 1506 2839 1625 
Q 2697 1744 2272 1838 
L 1806 1941 
Q 1106 2091 782 2419 
Q 459 2747 459 3303 
Q 459 4000 909 4375 
Q 1359 4750 2203 4750 
Q 2588 4750 2994 4692 
Q 3400 4634 3834 4519 
z
" transform="scale(0.015625)"/>
     <path id="DejaVuSans-Bold-2c" d="M 588 4666 
L 1791 4666 
L 1791 0 
L 588 0 
L 588 4666 
z
" transform="scale(0.015625)"/>
     <path id="DejaVuSans-Bold-37" d="M 31 4666 
L 4331 4666 
L 4331 3756 
L 2784 3756 
L 2784 0 
L 1581 0 
L 1581 3756 
L 31 3756 
L 31 4666 
z
" transform="scale(0.015625)"/>
     <path id="DejaVuSans-Bold-24" d="M 3419 850 
L 1538 850 
L 1241 0 
L 31 0 
L 1759 4666 
L 3194 4666 
L 4922 0 
L 3713 0 
L 3419 850 
z
M 1838 1716 
L 3116 1716 
L 2478 3572 
L 1838 1716 
z
" transform="scale(0.015625)"/>
    </defs>
    <use xlink:href="#DejaVuSans-Bold-2a"/>
    <use xlink:href="#DejaVuSans-Bold-1a" transform="translate(82.078125 0)"/>
    <use xlink:href="#DejaVuSans-Bold-15" transform="translate(151.65625 0)"/>
    <use xlink:href="#DejaVuSans-Bold-1c" transform="translate(221.234375 0)"/>
    <use xlink:href="#DejaVuSans-Bold-27" transform="translate(290.8125 0)"/>
    <use xlink:href="#DejaVuSans-Bold-3" transform="translate(373.828125 0)"/>
    <use xlink:href="#DejaVuSans-Bold-99" transform="translate(408.640625 0)"/>
    <use xlink:href="#DejaVuSans-Bold-3" transform="translate(492.4375 0)"/>
    <use xlink:href="#DejaVuSans-Bold-1a" transform="translate(527.25 0)"/>
    <use xlink:href="#DejaVuSans-Bold-2a" transform="translate(596.828125 0)"/>
    <use xlink:href="#DejaVuSans-Bold-34" transform="translate(678.90625 0)"/>
    <use xlink:href="#DejaVuSans-Bold-38" transform="translate(763.921875 0)"/>
    <use xlink:href="#DejaVuSans-Bold-3" transform="translate(845.125 0)"/>
    <use xlink:href="#DejaVuSans-Bold-79" transform="translate(879.9375 0)"/>
    <use xlink:href="#DejaVuSans-Bold-3" transform="translate(917.921875 0)"/>
    <use xlink:href="#DejaVuSans-Bold-2b" transform="translate(952.734375 0)"/>
    <use xlink:href="#DejaVuSans-Bold-35" transform="translate(1036.421875 0)"/>
    <use xlink:href="#DejaVuSans-Bold-32" transform="translate(1113.421875 0)"/>
    <use xlink:href="#DejaVuSans-Bold-1a" transform="translate(1198.4375 0)"/>
    <use xlink:href="#DejaVuSans-Bold-19" transform="translate(1268.015625 0)"/>
    <use xlink:href="#DejaVuSans-Bold-14" transform="translate(1337.59375 0)"/>
    <use xlink:href="#DejaVuSans-Bold-3" transform="translate(1407.171875 0)"/>
    <use xlink:href="#DejaVuSans-Bold-af6" transform="translate(1441.984375 0)"/>
    <use xlink:href="#DejaVuSans-Bold-3" transform="translate(1541.984375 0)"/>
    <use xlink:href="#DejaVuSans-Bold-35" transform="translate(1576.796875 0)"/>
    <use xlink:href="#DejaVuSans-Bold-28" transform="translate(1653.796875 0)"/>
    <use xlink:href="#DejaVuSans-Bold-36" transform="translate(1722.109375 0)"/>
    <use xlink:href="#DejaVuSans-Bold-2c" transform="translate(1794.125 0)"/>
    <use xlink:href="#DejaVuSans-Bold-36" transform="translate(1831.328125 0)"/>
    <use xlink:href="#DejaVuSans-Bold-37" transform="translate(1903.34375 0)"/>
    <use xlink:href="#DejaVuSans-Bold-24" transform="translate(1963.796875 0)"/>
    <use xlink:href="#DejaVuSans-Bold-31" transform="translate(2041.1875 0)"/>
    <use xlink:href="#DejaVuSans-Bold-26" transform="translate(2124.875 0)"/>
    <use xlink:href="#DejaVuSans-Bold-28" transform="translate(2198.265625 0)"/>
   </g>
  </g>
  <g id="text_26">
   <!-- ΔS = -0.78  |  RMSD vs WT = 12.49 Å  |  6 lost / 2 retained / 4 gained -->
   <g transform="translate(179.21625 42.254953) scale(0.105 -0.105)">
    <defs>
     <path id="DejaVuSans-329" d="M 2188 4044 
L 906 525 
L 3472 525 
L 2188 4044 
z
M 50 0 
L 1831 4666 
L 2547 4666 
L 4325 0 
L 50 0 
z
" transform="scale(0.015625)"/>
     <path id="DejaVuSans-36" d="M 3425 4513 
L 3425 3897 
Q 3066 4069 2747 4153 
Q 2428 4238 2131 4238 
Q 1616 4238 1336 4038 
Q 1056 3838 1056 3469 
Q 1056 3159 1242 3001 
Q 1428 2844 1947 2747 
L 2328 2669 
Q 3034 2534 3370 2195 
Q 3706 1856 3706 1288 
Q 3706 609 3251 259 
Q 2797 -91 1919 -91 
Q 1588 -91 1214 -16 
Q 841 59 441 206 
L 441 856 
Q 825 641 1194 531 
Q 1563 422 1919 422 
Q 2459 422 2753 634 
Q 3047 847 3047 1241 
Q 3047 1584 2836 1778 
Q 2625 1972 2144 2069 
L 1759 2144 
Q 1053 2284 737 2584 
Q 422 2884 422 3419 
Q 422 4038 858 4394 
Q 1294 4750 2059 4750 
Q 2388 4750 2728 4690 
Q 3069 4631 3425 4513 
z
" transform="scale(0.015625)"/>
     <path id="DejaVuSans-3" transform="scale(0.015625)"/>
     <path id="DejaVuSans-20" d="M 678 2906 
L 4684 2906 
L 4684 2381 
L 678 2381 
L 678 2906 
z
M 678 1631 
L 4684 1631 
L 4684 1100 
L 678 1100 
L 678 1631 
z
" transform="scale(0.015625)"/>
     <path id="DejaVuSans-10" d="M 313 2009 
L 1997 2009 
L 1997 1497 
L 313 1497 
L 313 2009 
z
" transform="scale(0.015625)"/>
     <path id="DejaVuSans-13" d="M 2034 4250 
Q 1547 4250 1301 3770 
Q 1056 3291 1056 2328 
Q 1056 1369 1301 889 
Q 1547 409 2034 409 
Q 2525 409 2770 889 
Q 3016 1369 3016 2328 
Q 3016 3291 2770 3770 
Q 2525 4250 2034 4250 
z
M 2034 4750 
Q 2819 4750 3233 4129 
Q 3647 3509 3647 2328 
Q 3647 1150 3233 529 
Q 2819 -91 2034 -91 
Q 1250 -91 836 529 
Q 422 1150 422 2328 
Q 422 3509 836 4129 
Q 1250 4750 2034 4750 
z
" transform="scale(0.015625)"/>
     <path id="DejaVuSans-11" d="M 684 794 
L 1344 794 
L 1344 0 
L 684 0 
L 684 794 
z
" transform="scale(0.015625)"/>
     <path id="DejaVuSans-1a" d="M 525 4666 
L 3525 4666 
L 3525 4397 
L 1831 0 
L 1172 0 
L 2766 4134 
L 525 4134 
L 525 4666 
z
" transform="scale(0.015625)"/>
     <path id="DejaVuSans-1b" d="M 2034 2216 
Q 1584 2216 1326 1975 
Q 1069 1734 1069 1313 
Q 1069 891 1326 650 
Q 1584 409 2034 409 
Q 2484 409 2743 651 
Q 3003 894 3003 1313 
Q 3003 1734 2745 1975 
Q 2488 2216 2034 2216 
z
M 1403 2484 
Q 997 2584 770 2862 
Q 544 3141 544 3541 
Q 544 4100 942 4425 
Q 1341 4750 2034 4750 
Q 2731 4750 3128 4425 
Q 3525 4100 3525 3541 
Q 3525 3141 3298 2862 
Q 3072 2584 2669 2484 
Q 3125 2378 3379 2068 
Q 3634 1759 3634 1313 
Q 3634 634 3220 271 
Q 2806 -91 2034 -91 
Q 1263 -91 848 271 
Q 434 634 434 1313 
Q 434 1759 690 2068 
Q 947 2378 1403 2484 
z
M 1172 3481 
Q 1172 3119 1398 2916 
Q 1625 2713 2034 2713 
Q 2441 2713 2670 2916 
Q 2900 3119 2900 3481 
Q 2900 3844 2670 4047 
Q 2441 4250 2034 4250 
Q 1625 4250 1398 4047 
Q 1172 3844 1172 3481 
z
" transform="scale(0.015625)"/>
     <path id="DejaVuSans-5f" d="M 1344 4891 
L 1344 -1509 
L 813 -1509 
L 813 4891 
L 1344 4891 
z
" transform="scale(0.015625)"/>
     <path id="DejaVuSans-35" d="M 2841 2188 
Q 3044 2119 3236 1894 
Q 3428 1669 3622 1275 
L 4263 0 
L 3584 0 
L 2988 1197 
Q 2756 1666 2539 1819 
Q 2322 1972 1947 1972 
L 1259 1972 
L 1259 0 
L 628 0 
L 628 4666 
L 2053 4666 
Q 2853 4666 3247 4331 
Q 3641 3997 3641 3322 
Q 3641 2881 3436 2590 
Q 3231 2300 2841 2188 
z
M 1259 4147 
L 1259 2491 
L 2053 2491 
Q 2509 2491 2742 2702 
Q 2975 2913 2975 3322 
Q 2975 3731 2742 3939 
Q 2509 4147 2053 4147 
L 1259 4147 
z
" transform="scale(0.015625)"/>
     <path id="DejaVuSans-30" d="M 628 4666 
L 1569 4666 
L 2759 1491 
L 3956 4666 
L 4897 4666 
L 4897 0 
L 4281 0 
L 4281 4097 
L 3078 897 
L 2444 897 
L 1241 4097 
L 1241 0 
L 628 0 
L 628 4666 
z
" transform="scale(0.015625)"/>
     <path id="DejaVuSans-27" d="M 1259 4147 
L 1259 519 
L 2022 519 
Q 2988 519 3436 956 
Q 3884 1394 3884 2338 
Q 3884 3275 3436 3711 
Q 2988 4147 2022 4147 
L 1259 4147 
z
M 628 4666 
L 1925 4666 
Q 3281 4666 3915 4102 
Q 4550 3538 4550 2338 
Q 4550 1131 3912 565 
Q 3275 0 1925 0 
L 628 0 
L 628 4666 
z
" transform="scale(0.015625)"/>
     <path id="DejaVuSans-59" d="M 191 3500 
L 800 3500 
L 1894 563 
L 2988 3500 
L 3597 3500 
L 2284 0 
L 1503 0 
L 191 3500 
z
" transform="scale(0.015625)"/>
     <path id="DejaVuSans-56" d="M 2834 3397 
L 2834 2853 
Q 2591 2978 2328 3040 
Q 2066 3103 1784 3103 
Q 1356 3103 1142 2972 
Q 928 2841 928 2578 
Q 928 2378 1081 2264 
Q 1234 2150 1697 2047 
L 1894 2003 
Q 2506 1872 2764 1633 
Q 3022 1394 3022 966 
Q 3022 478 2636 193 
Q 2250 -91 1575 -91 
Q 1294 -91 989 -36 
Q 684 19 347 128 
L 347 722 
Q 666 556 975 473 
Q 1284 391 1588 391 
Q 1994 391 2212 530 
Q 2431 669 2431 922 
Q 2431 1156 2273 1281 
Q 2116 1406 1581 1522 
L 1381 1569 
Q 847 1681 609 1914 
Q 372 2147 372 2553 
Q 372 3047 722 3315 
Q 1072 3584 1716 3584 
Q 2034 3584 2315 3537 
Q 2597 3491 2834 3397 
z
" transform="scale(0.015625)"/>
     <path id="DejaVuSans-3a" d="M 213 4666 
L 850 4666 
L 1831 722 
L 2809 4666 
L 3519 4666 
L 4500 722 
L 5478 4666 
L 6119 4666 
L 4947 0 
L 4153 0 
L 3169 4050 
L 2175 0 
L 1381 0 
L 213 4666 
z
" transform="scale(0.015625)"/>
     <path id="DejaVuSans-37" d="M -19 4666 
L 3928 4666 
L 3928 4134 
L 2272 4134 
L 2272 0 
L 1638 0 
L 1638 4134 
L -19 4134 
L -19 4666 
z
" transform="scale(0.015625)"/>
     <path id="DejaVuSans-14" d="M 794 531 
L 1825 531 
L 1825 4091 
L 703 3866 
L 703 4441 
L 1819 4666 
L 2450 4666 
L 2450 531 
L 3481 531 
L 3481 0 
L 794 0 
L 794 531 
z
" transform="scale(0.015625)"/>
     <path id="DejaVuSans-15" d="M 1228 531 
L 3431 531 
L 3431 0 
L 469 0 
L 469 531 
Q 828 903 1448 1529 
Q 2069 2156 2228 2338 
Q 2531 2678 2651 2914 
Q 2772 3150 2772 3378 
Q 2772 3750 2511 3984 
Q 2250 4219 1831 4219 
Q 1534 4219 1204 4116 
Q 875 4013 500 3803 
L 500 4441 
Q 881 4594 1212 4672 
Q 1544 4750 1819 4750 
Q 2544 4750 2975 4387 
Q 3406 4025 3406 3419 
Q 3406 3131 3298 2873 
Q 3191 2616 2906 2266 
Q 2828 2175 2409 1742 
Q 1991 1309 1228 531 
z
" transform="scale(0.015625)"/>
     <path id="DejaVuSans-17" d="M 2419 4116 
L 825 1625 
L 2419 1625 
L 2419 4116 
z
M 2253 4666 
L 3047 4666 
L 3047 1625 
L 3713 1625 
L 3713 1100 
L 3047 1100 
L 3047 0 
L 2419 0 
L 2419 1100 
L 313 1100 
L 313 1709 
L 2253 4666 
z
" transform="scale(0.015625)"/>
     <path id="DejaVuSans-1c" d="M 703 97 
L 703 672 
Q 941 559 1184 500 
Q 1428 441 1663 441 
Q 2288 441 2617 861 
Q 2947 1281 2994 2138 
Q 2813 1869 2534 1725 
Q 2256 1581 1919 1581 
Q 1219 1581 811 2004 
Q 403 2428 403 3163 
Q 403 3881 828 4315 
Q 1253 4750 1959 4750 
Q 2769 4750 3195 4129 
Q 3622 3509 3622 2328 
Q 3622 1225 3098 567 
Q 2575 -91 1691 -91 
Q 1453 -91 1209 -44 
Q 966 3 703 97 
z
M 1959 2075 
Q 2384 2075 2632 2365 
Q 2881 2656 2881 3163 
Q 2881 3666 2632 3958 
Q 2384 4250 1959 4250 
Q 1534 4250 1286 3958 
Q 1038 3666 1038 3163 
Q 1038 2656 1286 2365 
Q 1534 2075 1959 2075 
z
" transform="scale(0.015625)"/>
     <path id="DejaVuSans-87" d="M 2663 5081 
Q 2663 5278 2523 5417 
Q 2384 5556 2188 5556 
Q 1988 5556 1852 5420 
Q 1716 5284 1716 5081 
Q 1716 4884 1853 4746 
Q 1991 4609 2188 4609 
Q 2384 4609 2523 4746 
Q 2663 4884 2663 5081 
z
M 2188 4044 
L 1338 1722 
L 3041 1722 
L 2188 4044 
z
M 1716 4366 
Q 1525 4494 1428 4673 
Q 1331 4853 1331 5081 
Q 1331 5441 1579 5691 
Q 1828 5941 2188 5941 
Q 2544 5941 2795 5689 
Q 3047 5438 3047 5081 
Q 3047 4863 2948 4678 
Q 2850 4494 2663 4366 
L 4325 0 
L 3669 0 
L 3244 1197 
L 1141 1197 
L 716 0 
L 50 0 
L 1716 4366 
z
" transform="scale(0.015625)"/>
     <path id="DejaVuSans-19" d="M 2113 2584 
Q 1688 2584 1439 2293 
Q 1191 2003 1191 1497 
Q 1191 994 1439 701 
Q 1688 409 2113 409 
Q 2538 409 2786 701 
Q 3034 994 3034 1497 
Q 3034 2003 2786 2293 
Q 2538 2584 2113 2584 
z
M 3366 4563 
L 3366 3988 
Q 3128 4100 2886 4159 
Q 2644 4219 2406 4219 
Q 1781 4219 1451 3797 
Q 1122 3375 1075 2522 
Q 1259 2794 1537 2939 
Q 1816 3084 2150 3084 
Q 2853 3084 3261 2657 
Q 3669 2231 3669 1497 
Q 3669 778 3244 343 
Q 2819 -91 2113 -91 
Q 1303 -91 875 529 
Q 447 1150 447 2328 
Q 447 3434 972 4092 
Q 1497 4750 2381 4750 
Q 2619 4750 2861 4703 
Q 3103 4656 3366 4563 
z
" transform="scale(0.015625)"/>
     <path id="DejaVuSans-4f" d="M 603 4863 
L 1178 4863 
L 1178 0 
L 603 0 
L 603 4863 
z
" transform="scale(0.015625)"/>
     <path id="DejaVuSans-52" d="M 1959 3097 
Q 1497 3097 1228 2736 
Q 959 2375 959 1747 
Q 959 1119 1226 758 
Q 1494 397 1959 397 
Q 2419 397 2687 759 
Q 2956 1122 2956 1747 
Q 2956 2369 2687 2733 
Q 2419 3097 1959 3097 
z
M 1959 3584 
Q 2709 3584 3137 3096 
Q 3566 2609 3566 1747 
Q 3566 888 3137 398 
Q 2709 -91 1959 -91 
Q 1206 -91 779 398 
Q 353 888 353 1747 
Q 353 2609 779 3096 
Q 1206 3584 1959 3584 
z
" transform="scale(0.015625)"/>
     <path id="DejaVuSans-57" d="M 1172 4494 
L 1172 3500 
L 2356 3500 
L 2356 3053 
L 1172 3053 
L 1172 1153 
Q 1172 725 1289 603 
Q 1406 481 1766 481 
L 2356 481 
L 2356 0 
L 1766 0 
Q 1100 0 847 248 
Q 594 497 594 1153 
L 594 3053 
L 172 3053 
L 172 3500 
L 594 3500 
L 594 4494 
L 1172 4494 
z
" transform="scale(0.015625)"/>
     <path id="DejaVuSans-12" d="M 1625 4666 
L 2156 4666 
L 531 -594 
L 0 -594 
L 1625 4666 
z
" transform="scale(0.015625)"/>
     <path id="DejaVuSans-55" d="M 2631 2963 
Q 2534 3019 2420 3045 
Q 2306 3072 2169 3072 
Q 1681 3072 1420 2755 
Q 1159 2438 1159 1844 
L 1159 0 
L 581 0 
L 581 3500 
L 1159 3500 
L 1159 2956 
Q 1341 3275 1631 3429 
Q 1922 3584 2338 3584 
Q 2397 3584 2469 3576 
Q 2541 3569 2628 3553 
L 2631 2963 
z
" transform="scale(0.015625)"/>
     <path id="DejaVuSans-48" d="M 3597 1894 
L 3597 1613 
L 953 1613 
Q 991 1019 1311 708 
Q 1631 397 2203 397 
Q 2534 397 2845 478 
Q 3156 559 3463 722 
L 3463 178 
Q 3153 47 2828 -22 
Q 2503 -91 2169 -91 
Q 1331 -91 842 396 
Q 353 884 353 1716 
Q 353 2575 817 3079 
Q 1281 3584 2069 3584 
Q 2775 3584 3186 3129 
Q 3597 2675 3597 1894 
z
M 3022 2063 
Q 3016 2534 2758 2815 
Q 2500 3097 2075 3097 
Q 1594 3097 1305 2825 
Q 1016 2553 972 2059 
L 3022 2063 
z
" transform="scale(0.015625)"/>
     <path id="DejaVuSans-44" d="M 2194 1759 
Q 1497 1759 1228 1600 
Q 959 1441 959 1056 
Q 959 750 1161 570 
Q 1363 391 1709 391 
Q 2188 391 2477 730 
Q 2766 1069 2766 1631 
L 2766 1759 
L 2194 1759 
z
M 3341 1997 
L 3341 0 
L 2766 0 
L 2766 531 
Q 2569 213 2275 61 
Q 1981 -91 1556 -91 
Q 1019 -91 701 211 
Q 384 513 384 1019 
Q 384 1609 779 1909 
Q 1175 2209 1959 2209 
L 2766 2209 
L 2766 2266 
Q 2766 2663 2505 2880 
Q 2244 3097 1772 3097 
Q 1472 3097 1187 3025 
Q 903 2953 641 2809 
L 641 3341 
Q 956 3463 1253 3523 
Q 1550 3584 1831 3584 
Q 2591 3584 2966 3190 
Q 3341 2797 3341 1997 
z
" transform="scale(0.015625)"/>
     <path id="DejaVuSans-4c" d="M 603 3500 
L 1178 3500 
L 1178 0 
L 603 0 
L 603 3500 
z
M 603 4863 
L 1178 4863 
L 1178 4134 
L 603 4134 
L 603 4863 
z
" transform="scale(0.015625)"/>
     <path id="DejaVuSans-51" d="M 3513 2113 
L 3513 0 
L 2938 0 
L 2938 2094 
Q 2938 2591 2744 2837 
Q 2550 3084 2163 3084 
Q 1697 3084 1428 2787 
Q 1159 2491 1159 1978 
L 1159 0 
L 581 0 
L 581 3500 
L 1159 3500 
L 1159 2956 
Q 1366 3272 1645 3428 
Q 1925 3584 2291 3584 
Q 2894 3584 3203 3211 
Q 3513 2838 3513 2113 
z
" transform="scale(0.015625)"/>
     <path id="DejaVuSans-47" d="M 2906 2969 
L 2906 4863 
L 3481 4863 
L 3481 0 
L 2906 0 
L 2906 525 
Q 2725 213 2448 61 
Q 2172 -91 1784 -91 
Q 1150 -91 751 415 
Q 353 922 353 1747 
Q 353 2572 751 3078 
Q 1150 3584 1784 3584 
Q 2172 3584 2448 3432 
Q 2725 3281 2906 2969 
z
M 947 1747 
Q 947 1113 1208 752 
Q 1469 391 1925 391 
Q 2381 391 2643 752 
Q 2906 1113 2906 1747 
Q 2906 2381 2643 2742 
Q 2381 3103 1925 3103 
Q 1469 3103 1208 2742 
Q 947 2381 947 1747 
z
" transform="scale(0.015625)"/>
     <path id="DejaVuSans-4a" d="M 2906 1791 
Q 2906 2416 2648 2759 
Q 2391 3103 1925 3103 
Q 1463 3103 1205 2759 
Q 947 2416 947 1791 
Q 947 1169 1205 825 
Q 1463 481 1925 481 
Q 2391 481 2648 825 
Q 2906 1169 2906 1791 
z
M 3481 434 
Q 3481 -459 3084 -895 
Q 2688 -1331 1869 -1331 
Q 1566 -1331 1297 -1286 
Q 1028 -1241 775 -1147 
L 775 -588 
Q 1028 -725 1275 -790 
Q 1522 -856 1778 -856 
Q 2344 -856 2625 -561 
Q 2906 -266 2906 331 
L 2906 616 
Q 2728 306 2450 153 
Q 2172 0 1784 0 
Q 1141 0 747 490 
Q 353 981 353 1791 
Q 353 2603 747 3093 
Q 1141 3584 1784 3584 
Q 2172 3584 2450 3431 
Q 2728 3278 2906 2969 
L 2906 3500 
L 3481 3500 
L 3481 434 
z
" transform="scale(0.015625)"/>
    </defs>
    <use xlink:href="#DejaVuSans-329"/>
    <use xlink:href="#DejaVuSans-36" transform="translate(68.40625 0)"/>
    <use xlink:href="#DejaVuSans-3" transform="translate(131.890625 0)"/>
    <use xlink:href="#DejaVuSans-20" transform="translate(163.671875 0)"/>
    <use xlink:href="#DejaVuSans-3" transform="translate(247.46875 0)"/>
    <use xlink:href="#DejaVuSans-10" transform="translate(279.25 0)"/>
    <use xlink:href="#DejaVuSans-13" transform="translate(315.328125 0)"/>
    <use xlink:href="#DejaVuSans-11" transform="translate(378.953125 0)"/>
    <use xlink:href="#DejaVuSans-1a" transform="translate(410.734375 0)"/>
    <use xlink:href="#DejaVuSans-1b" transform="translate(474.359375 0)"/>
    <use xlink:href="#DejaVuSans-3" transform="translate(537.984375 0)"/>
    <use xlink:href="#DejaVuSans-3" transform="translate(569.765625 0)"/>
    <use xlink:href="#DejaVuSans-5f" transform="translate(601.546875 0)"/>
    <use xlink:href="#DejaVuSans-3" transform="translate(635.234375 0)"/>
    <use xlink:href="#DejaVuSans-3" transform="translate(667.015625 0)"/>
    <use xlink:href="#DejaVuSans-35" transform="translate(698.796875 0)"/>
    <use xlink:href="#DejaVuSans-30" transform="translate(768.28125 0)"/>
    <use xlink:href="#DejaVuSans-36" transform="translate(854.5625 0)"/>
    <use xlink:href="#DejaVuSans-27" transform="translate(918.046875 0)"/>
    <use xlink:href="#DejaVuSans-3" transform="translate(995.046875 0)"/>
    <use xlink:href="#DejaVuSans-59" transform="translate(1026.828125 0)"/>
    <use xlink:href="#DejaVuSans-56" transform="translate(1086.015625 0)"/>
    <use xlink:href="#DejaVuSans-3" transform="translate(1138.109375 0)"/>
    <use xlink:href="#DejaVuSans-3a" transform="translate(1169.890625 0)"/>
    <use xlink:href="#DejaVuSans-37" transform="translate(1268.765625 0)"/>
    <use xlink:href="#DejaVuSans-3" transform="translate(1329.84375 0)"/>
    <use xlink:href="#DejaVuSans-20" transform="translate(1361.625 0)"/>
    <use xlink:href="#DejaVuSans-3" transform="translate(1445.421875 0)"/>
    <use xlink:href="#DejaVuSans-14" transform="translate(1477.203125 0)"/>
    <use xlink:href="#DejaVuSans-15" transform="translate(1540.828125 0)"/>
    <use xlink:href="#DejaVuSans-11" transform="translate(1604.453125 0)"/>
    <use xlink:href="#DejaVuSans-17" transform="translate(1636.234375 0)"/>
    <use xlink:href="#DejaVuSans-1c" transform="translate(1699.859375 0)"/>
    <use xlink:href="#DejaVuSans-3" transform="translate(1763.484375 0)"/>
    <use xlink:href="#DejaVuSans-87" transform="translate(1795.265625 0)"/>
    <use xlink:href="#DejaVuSans-3" transform="translate(1863.671875 0)"/>
    <use xlink:href="#DejaVuSans-3" transform="translate(1895.453125 0)"/>
    <use xlink:href="#DejaVuSans-5f" transform="translate(1927.234375 0)"/>
    <use xlink:href="#DejaVuSans-3" transform="translate(1960.921875 0)"/>
    <use xlink:href="#DejaVuSans-3" transform="translate(1992.703125 0)"/>
    <use xlink:href="#DejaVuSans-19" transform="translate(2024.484375 0)"/>
    <use xlink:href="#DejaVuSans-3" transform="translate(2088.109375 0)"/>
    <use xlink:href="#DejaVuSans-4f" transform="translate(2119.890625 0)"/>
    <use xlink:href="#DejaVuSans-52" transform="translate(2147.671875 0)"/>
    <use xlink:href="#DejaVuSans-56" transform="translate(2208.859375 0)"/>
    <use xlink:href="#DejaVuSans-57" transform="translate(2260.953125 0)"/>
    <use xlink:href="#DejaVuSans-3" transform="translate(2300.15625 0)"/>
    <use xlink:href="#DejaVuSans-12" transform="translate(2331.9375 0)"/>
    <use xlink:href="#DejaVuSans-3" transform="translate(2365.625 0)"/>
    <use xlink:href="#DejaVuSans-15" transform="translate(2397.40625 0)"/>
    <use xlink:href="#DejaVuSans-3" transform="translate(2461.03125 0)"/>
    <use xlink:href="#DejaVuSans-55" transform="translate(2492.8125 0)"/>
    <use xlink:href="#DejaVuSans-48" transform="translate(2531.71875 0)"/>
    <use xlink:href="#DejaVuSans-57" transform="translate(2593.25 0)"/>
    <use xlink:href="#DejaVuSans-44" transform="translate(2632.453125 0)"/>
    <use xlink:href="#DejaVuSans-4c" transform="translate(2693.734375 0)"/>
    <use xlink:href="#DejaVuSans-51" transform="translate(2721.515625 0)"/>
    <use xlink:href="#DejaVuSans-48" transform="translate(2784.890625 0)"/>
    <use xlink:href="#DejaVuSans-47" transform="translate(2846.421875 0)"/>
    <use xlink:href="#DejaVuSans-3" transform="translate(2909.90625 0)"/>
    <use xlink:href="#DejaVuSans-12" transform="translate(2941.6875 0)"/>
    <use xlink:href="#DejaVuSans-3" transform="translate(2975.375 0)"/>
    <use xlink:href="#DejaVuSans-17" transform="translate(3007.15625 0)"/>
    <use xlink:href="#DejaVuSans-3" transform="translate(3070.78125 0)"/>
    <use xlink:href="#DejaVuSans-4a" transform="translate(3102.5625 0)"/>
    <use xlink:href="#DejaVuSans-44" transform="translate(3166.046875 0)"/>
    <use xlink:href="#DejaVuSans-4c" transform="translate(3227.328125 0)"/>
    <use xlink:href="#DejaVuSans-51" transform="translate(3255.109375 0)"/>
    <use xlink:href="#DejaVuSans-48" transform="translate(3318.484375 0)"/>
    <use xlink:href="#DejaVuSans-47" transform="translate(3380.015625 0)"/>
   </g>
  </g>
  <g id="text_27">
   <!-- PLIP: 6 hydrophobic · 2 H-bond · 1 halogen -->
   <g transform="translate(247.993711 61.654359) scale(0.105 -0.105)">
    <defs>
     <path id="DejaVuSans-33" d="M 1259 4147 
L 1259 2394 
L 2053 2394 
Q 2494 2394 2734 2622 
Q 2975 2850 2975 3272 
Q 2975 3691 2734 3919 
Q 2494 4147 2053 4147 
L 1259 4147 
z
M 628 4666 
L 2053 4666 
Q 2838 4666 3239 4311 
Q 3641 3956 3641 3272 
Q 3641 2581 3239 2228 
Q 2838 1875 2053 1875 
L 1259 1875 
L 1259 0 
L 628 0 
L 628 4666 
z
" transform="scale(0.015625)"/>
     <path id="DejaVuSans-2f" d="M 628 4666 
L 1259 4666 
L 1259 531 
L 3531 531 
L 3531 0 
L 628 0 
L 628 4666 
z
" transform="scale(0.015625)"/>
     <path id="DejaVuSans-2c" d="M 628 4666 
L 1259 4666 
L 1259 0 
L 628 0 
L 628 4666 
z
" transform="scale(0.015625)"/>
     <path id="DejaVuSans-1d" d="M 750 794 
L 1409 794 
L 1409 0 
L 750 0 
L 750 794 
z
M 750 3309 
L 1409 3309 
L 1409 2516 
L 750 2516 
L 750 3309 
z
" transform="scale(0.015625)"/>
     <path id="DejaVuSans-4b" d="M 3513 2113 
L 3513 0 
L 2938 0 
L 2938 2094 
Q 2938 2591 2744 2837 
Q 2550 3084 2163 3084 
Q 1697 3084 1428 2787 
Q 1159 2491 1159 1978 
L 1159 0 
L 581 0 
L 581 4863 
L 1159 4863 
L 1159 2956 
Q 1366 3272 1645 3428 
Q 1925 3584 2291 3584 
Q 2894 3584 3203 3211 
Q 3513 2838 3513 2113 
z
" transform="scale(0.015625)"/>
     <path id="DejaVuSans-5c" d="M 2059 -325 
Q 1816 -950 1584 -1140 
Q 1353 -1331 966 -1331 
L 506 -1331 
L 506 -850 
L 844 -850 
Q 1081 -850 1212 -737 
Q 1344 -625 1503 -206 
L 1606 56 
L 191 3500 
L 800 3500 
L 1894 763 
L 2988 3500 
L 3597 3500 
L 2059 -325 
z
" transform="scale(0.015625)"/>
     <path id="DejaVuSans-53" d="M 1159 525 
L 1159 -1331 
L 581 -1331 
L 581 3500 
L 1159 3500 
L 1159 2969 
Q 1341 3281 1617 3432 
Q 1894 3584 2278 3584 
Q 2916 3584 3314 3078 
Q 3713 2572 3713 1747 
Q 3713 922 3314 415 
Q 2916 -91 2278 -91 
Q 1894 -91 1617 61 
Q 1341 213 1159 525 
z
M 3116 1747 
Q 3116 2381 2855 2742 
Q 2594 3103 2138 3103 
Q 1681 3103 1420 2742 
Q 1159 2381 1159 1747 
Q 1159 1113 1420 752 
Q 1681 391 2138 391 
Q 2594 391 2855 752 
Q 3116 1113 3116 1747 
z
" transform="scale(0.015625)"/>
     <path id="DejaVuSans-45" d="M 3116 1747 
Q 3116 2381 2855 2742 
Q 2594 3103 2138 3103 
Q 1681 3103 1420 2742 
Q 1159 2381 1159 1747 
Q 1159 1113 1420 752 
Q 1681 391 2138 391 
Q 2594 391 2855 752 
Q 3116 1113 3116 1747 
z
M 1159 2969 
Q 1341 3281 1617 3432 
Q 1894 3584 2278 3584 
Q 2916 3584 3314 3078 
Q 3713 2572 3713 1747 
Q 3713 922 3314 415 
Q 2916 -91 2278 -91 
Q 1894 -91 1617 61 
Q 1341 213 1159 525 
L 1159 0 
L 581 0 
L 581 4863 
L 1159 4863 
L 1159 2969 
z
" transform="scale(0.015625)"/>
     <path id="DejaVuSans-46" d="M 3122 3366 
L 3122 2828 
Q 2878 2963 2633 3030 
Q 2388 3097 2138 3097 
Q 1578 3097 1268 2742 
Q 959 2388 959 1747 
Q 959 1106 1268 751 
Q 1578 397 2138 397 
Q 2388 397 2633 464 
Q 2878 531 3122 666 
L 3122 134 
Q 2881 22 2623 -34 
Q 2366 -91 2075 -91 
Q 1284 -91 818 406 
Q 353 903 353 1747 
Q 353 2603 823 3093 
Q 1294 3584 2113 3584 
Q 2378 3584 2631 3529 
Q 2884 3475 3122 3366 
z
" transform="scale(0.015625)"/>
     <path id="DejaVuSans-79" d="M 684 2619 
L 1344 2619 
L 1344 1825 
L 684 1825 
L 684 2619 
z
" transform="scale(0.015625)"/>
     <path id="DejaVuSans-2b" d="M 628 4666 
L 1259 4666 
L 1259 2753 
L 3553 2753 
L 3553 4666 
L 4184 4666 
L 4184 0 
L 3553 0 
L 3553 2222 
L 1259 2222 
L 1259 0 
L 628 0 
L 628 4666 
z
" transform="scale(0.015625)"/>
    </defs>
    <use xlink:href="#DejaVuSans-33"/>
    <use xlink:href="#DejaVuSans-2f" transform="translate(60.296875 0)"/>
    <use xlink:href="#DejaVuSans-2c" transform="translate(116.015625 0)"/>
    <use xlink:href="#DejaVuSans-33" transform="translate(145.515625 0)"/>
    <use xlink:href="#DejaVuSans-1d" transform="translate(205.8125 0)"/>
    <use xlink:href="#DejaVuSans-3" transform="translate(239.5 0)"/>
    <use xlink:href="#DejaVuSans-19" transform="translate(271.28125 0)"/>
    <use xlink:href="#DejaVuSans-3" transform="translate(334.90625 0)"/>
    <use xlink:href="#DejaVuSans-4b" transform="translate(366.6875 0)"/>
    <use xlink:href="#DejaVuSans-5c" transform="translate(430.0625 0)"/>
    <use xlink:href="#DejaVuSans-47" transform="translate(489.25 0)"/>
    <use xlink:href="#DejaVuSans-55" transform="translate(552.734375 0)"/>
    <use xlink:href="#DejaVuSans-52" transform="translate(591.640625 0)"/>
    <use xlink:href="#DejaVuSans-53" transform="translate(652.828125 0)"/>
    <use xlink:href="#DejaVuSans-4b" transform="translate(716.3125 0)"/>
    <use xlink:href="#DejaVuSans-52" transform="translate(779.6875 0)"/>
    <use xlink:href="#DejaVuSans-45" transform="translate(840.875 0)"/>
    <use xlink:href="#DejaVuSans-4c" transform="translate(904.359375 0)"/>
    <use xlink:href="#DejaVuSans-46" transform="translate(932.140625 0)"/>
    <use xlink:href="#DejaVuSans-3" transform="translate(987.125 0)"/>
    <use xlink:href="#DejaVuSans-79" transform="translate(1018.90625 0)"/>
    <use xlink:href="#DejaVuSans-3" transform="translate(1050.6875 0)"/>
    <use xlink:href="#DejaVuSans-15" transform="translate(1082.46875 0)"/>
    <use xlink:href="#DejaVuSans-3" transform="translate(1146.09375 0)"/>
    <use xlink:href="#DejaVuSans-2b" transform="translate(1177.875 0)"/>
    <use xlink:href="#DejaVuSans-10" transform="translate(1253.078125 0)"/>
    <use xlink:href="#DejaVuSans-45" transform="translate(1289.15625 0)"/>
    <use xlink:href="#DejaVuSans-52" transform="translate(1352.640625 0)"/>
    <use xlink:href="#DejaVuSans-51" transform="translate(1413.828125 0)"/>
    <use xlink:href="#DejaVuSans-47" transform="translate(1477.203125 0)"/>
    <use xlink:href="#DejaVuSans-3" transform="translate(1540.6875 0)"/>
    <use xlink:href="#DejaVuSans-79" transform="translate(1572.46875 0)"/>
    <use xlink:href="#DejaVuSans-3" transform="translate(1604.25 0)"/>
    <use xlink:href="#DejaVuSans-14" transform="translate(1636.03125 0)"/>
    <use xlink:href="#DejaVuSans-3" transform="translate(1699.65625 0)"/>
    <use xlink:href="#DejaVuSans-4b" transform="translate(1731.4375 0)"/>
    <use xlink:href="#DejaVuSans-44" transform="translate(1794.8125 0)"/>
    <use xlink:href="#DejaVuSans-4f" transform="translate(1856.09375 0)"/>
    <use xlink:href="#DejaVuSans-52" transform="translate(1883.875 0)"/>
    <use xlink:href="#DejaVuSans-4a" transform="translate(1945.0625 0)"/>
    <use xlink:href="#DejaVuSans-48" transform="translate(2008.546875 0)"/>
    <use xlink:href="#DejaVuSans-51" transform="translate(2070.078125 0)"/>
   </g>
  </g>
  <g id="text_28">
   <!-- H-bond -->
   <g transform="translate(146.64 716.62834) scale(0.085 -0.085)">
    <use xlink:href="#DejaVuSans-2b"/>
    <use xlink:href="#DejaVuSans-10" transform="translate(75.203125 0)"/>
    <use xlink:href="#DejaVuSans-45" transform="translate(111.28125 0)"/>
    <use xlink:href="#DejaVuSans-52" transform="translate(174.765625 0)"/>
    <use xlink:href="#DejaVuSans-51" transform="translate(235.953125 0)"/>
    <use xlink:href="#DejaVuSans-47" transform="translate(299.328125 0)"/>
   </g>
  </g>
  <g id="text_29">
   <!-- Hydrophobic -->
   <g transform="translate(357.84 716.62834) scale(0.085 -0.085)">
    <use xlink:href="#DejaVuSans-2b"/>
    <use xlink:href="#DejaVuSans-5c" transform="translate(75.203125 0)"/>
    <use xlink:href="#DejaVuSans-47" transform="translate(134.390625 0)"/>
    <use xlink:href="#DejaVuSans-55" transform="translate(197.875 0)"/>
    <use xlink:href="#DejaVuSans-52" transform="translate(236.78125 0)"/>
    <use xlink:href="#DejaVuSans-53" transform="translate(297.96875 0)"/>
    <use xlink:href="#DejaVuSans-4b" transform="translate(361.453125 0)"/>
    <use xlink:href="#DejaVuSans-52" transform="translate(424.828125 0)"/>
    <use xlink:href="#DejaVuSans-45" transform="translate(486.015625 0)"/>
    <use xlink:href="#DejaVuSans-4c" transform="translate(549.5 0)"/>
    <use xlink:href="#DejaVuSans-46" transform="translate(577.28125 0)"/>
   </g>
  </g>
  <g id="text_30">
   <!-- Halogen -->
   <g transform="translate(569.04 716.62834) scale(0.085 -0.085)">
    <use xlink:href="#DejaVuSans-2b"/>
    <use xlink:href="#DejaVuSans-44" transform="translate(75.203125 0)"/>
    <use xlink:href="#DejaVuSans-4f" transform="translate(136.484375 0)"/>
    <use xlink:href="#DejaVuSans-52" transform="translate(164.265625 0)"/>
    <use xlink:href="#DejaVuSans-4a" transform="translate(225.453125 0)"/>
    <use xlink:href="#DejaVuSans-48" transform="translate(288.9375 0)"/>
    <use xlink:href="#DejaVuSans-51" transform="translate(350.46875 0)"/>
   </g>
  </g>
  <g id="text_31">
   <!-- Basic -->
   <g transform="translate(100.8 739.178437) scale(0.08 -0.08)">
    <defs>
     <path id="DejaVuSans-25" d="M 1259 2228 
L 1259 519 
L 2272 519 
Q 2781 519 3026 730 
Q 3272 941 3272 1375 
Q 3272 1813 3026 2020 
Q 2781 2228 2272 2228 
L 1259 2228 
z
M 1259 4147 
L 1259 2741 
L 2194 2741 
Q 2656 2741 2882 2914 
Q 3109 3088 3109 3444 
Q 3109 3797 2882 3972 
Q 2656 4147 2194 4147 
L 1259 4147 
z
M 628 4666 
L 2241 4666 
Q 2963 4666 3353 4366 
Q 3744 4066 3744 3513 
Q 3744 3084 3544 2831 
Q 3344 2578 2956 2516 
Q 3422 2416 3680 2098 
Q 3938 1781 3938 1306 
Q 3938 681 3513 340 
Q 3088 0 2303 0 
L 628 0 
L 628 4666 
z
" transform="scale(0.015625)"/>
    </defs>
    <use xlink:href="#DejaVuSans-25"/>
    <use xlink:href="#DejaVuSans-44" transform="translate(68.609375 0)"/>
    <use xlink:href="#DejaVuSans-56" transform="translate(129.890625 0)"/>
    <use xlink:href="#DejaVuSans-4c" transform="translate(181.984375 0)"/>
    <use xlink:href="#DejaVuSans-46" transform="translate(209.765625 0)"/>
   </g>
  </g>
  <g id="text_32">
   <!-- Acidic -->
   <g transform="translate(227.52 739.178437) scale(0.08 -0.08)">
    <defs>
     <path id="DejaVuSans-24" d="M 2188 4044 
L 1331 1722 
L 3047 1722 
L 2188 4044 
z
M 1831 4666 
L 2547 4666 
L 4325 0 
L 3669 0 
L 3244 1197 
L 1141 1197 
L 716 0 
L 50 0 
L 1831 4666 
z
" transform="scale(0.015625)"/>
    </defs>
    <use xlink:href="#DejaVuSans-24"/>
    <use xlink:href="#DejaVuSans-46" transform="translate(66.65625 0)"/>
    <use xlink:href="#DejaVuSans-4c" transform="translate(121.640625 0)"/>
    <use xlink:href="#DejaVuSans-47" transform="translate(149.421875 0)"/>
    <use xlink:href="#DejaVuSans-4c" transform="translate(212.90625 0)"/>
    <use xlink:href="#DejaVuSans-46" transform="translate(240.6875 0)"/>
   </g>
  </g>
  <g id="text_33">
   <!-- Polar -->
   <g transform="translate(354.24 739.178437) scale(0.08 -0.08)">
    <use xlink:href="#DejaVuSans-33"/>
    <use xlink:href="#DejaVuSans-52" transform="translate(56.734375 0)"/>
    <use xlink:href="#DejaVuSans-4f" transform="translate(117.921875 0)"/>
    <use xlink:href="#DejaVuSans-44" transform="translate(145.703125 0)"/>
    <use xlink:href="#DejaVuSans-55" transform="translate(206.984375 0)"/>
   </g>
  </g>
  <g id="text_34">
   <!-- Hydrophobic -->
   <g transform="translate(480.96 739.178437) scale(0.08 -0.08)">
    <use xlink:href="#DejaVuSans-2b"/>
    <use xlink:href="#DejaVuSans-5c" transform="translate(75.203125 0)"/>
    <use xlink:href="#DejaVuSans-47" transform="translate(134.390625 0)"/>
    <use xlink:href="#DejaVuSans-55" transform="translate(197.875 0)"/>
    <use xlink:href="#DejaVuSans-52" transform="translate(236.78125 0)"/>
    <use xlink:href="#DejaVuSans-53" transform="translate(297.96875 0)"/>
    <use xlink:href="#DejaVuSans-4b" transform="translate(361.453125 0)"/>
    <use xlink:href="#DejaVuSans-52" transform="translate(424.828125 0)"/>
    <use xlink:href="#DejaVuSans-45" transform="translate(486.015625 0)"/>
    <use xlink:href="#DejaVuSans-4c" transform="translate(549.5 0)"/>
    <use xlink:href="#DejaVuSans-46" transform="translate(577.28125 0)"/>
   </g>
  </g>
  <g id="text_35">
   <!-- Mutation site -->
   <g transform="translate(607.68 739.178437) scale(0.08 -0.08)">
    <defs>
     <path id="DejaVuSans-58" d="M 544 1381 
L 544 3500 
L 1119 3500 
L 1119 1403 
Q 1119 906 1312 657 
Q 1506 409 1894 409 
Q 2359 409 2629 706 
Q 2900 1003 2900 1516 
L 2900 3500 
L 3475 3500 
L 3475 0 
L 2900 0 
L 2900 538 
Q 2691 219 2414 64 
Q 2138 -91 1772 -91 
Q 1169 -91 856 284 
Q 544 659 544 1381 
z
M 1991 3584 
L 1991 3584 
z
" transform="scale(0.015625)"/>
    </defs>
    <use xlink:href="#DejaVuSans-30"/>
    <use xlink:href="#DejaVuSans-58" transform="translate(86.28125 0)"/>
    <use xlink:href="#DejaVuSans-57" transform="translate(149.65625 0)"/>
    <use xlink:href="#DejaVuSans-44" transform="translate(188.859375 0)"/>
    <use xlink:href="#DejaVuSans-57" transform="translate(250.140625 0)"/>
    <use xlink:href="#DejaVuSans-4c" transform="translate(289.34375 0)"/>
    <use xlink:href="#DejaVuSans-52" transform="translate(317.125 0)"/>
    <use xlink:href="#DejaVuSans-51" transform="translate(378.3125 0)"/>
    <use xlink:href="#DejaVuSans-3" transform="translate(441.6875 0)"/>
    <use xlink:href="#DejaVuSans-56" transform="translate(473.46875 0)"/>
    <use xlink:href="#DejaVuSans-4c" transform="translate(525.5625 0)"/>
    <use xlink:href="#DejaVuSans-57" transform="translate(553.34375 0)"/>
    <use xlink:href="#DejaVuSans-48" transform="translate(592.546875 0)"/>
   </g>
  </g>
 </g>
 <defs>
  <clipPath id="pdb6b285968">
   <rect x="53.82" y="75.6" width="612.36" height="612.36"/>
  </clipPath>
 </defs>
</svg>
