<?xml version="1.0" encoding="utf-8" standalone="no"?>
<!DOCTYPE svg PUBLIC "-//W3C//DTD SVG 1.1//EN"
  "http://www.w3.org/Graphics/SVG/1.1/DTD/svg11.dtd">
<svg xmlns:xlink="http://www.w3.org/1999/xlink" width="720pt" height="756pt" viewBox="0 0 720 756" xmlns="http://www.w3.org/2000/svg" version="1.1">
 <metadata>
  <rdf:RDF xmlns:dc="http://purl.org/dc/elements/1.1/" xmlns:cc="http://creativecommons.org/ns#" xmlns:rdf="http://www.w3.org/1999/02/22-rdf-syntax-ns#">
   <cc:Work>
    <dc:type rdf:resource="http://purl.org/dc/dcmitype/StillImage"/>
    <dc:date>2022-01-01T05:00:00+00:00</dc:date>
    <dc:format>image/svg+xml</dc:format>
    <dc:creator>
     <cc:Agent>
      <dc:title>Matplotlib v3.11.0, https://matplotlib.org/</dc:title>
     </cc:Agent>
    </dc:creator>
   </cc:Work>
  </rdf:RDF>
 </metadata>
 <defs>
  <style type="text/css">*{stroke-linejoin: round; stroke-linecap: butt}</style>
 </defs>
 <g id="figure_1">
  <g id="patch_1">
   <path d="M 0 756 
L 720 756 
L 720 0 
L 0 0 
z
" style="fill: #ffffff"/>
  </g>
  <g id="axes_1">
   <g id="line2d_1">
    <path d="M 182.484801 589.569278 
L 188.350475 586.566484 
L 194.174022 583.505472 
L 199.95544 580.386244 
L 205.694731 577.2088 
L 211.391895 573.973138 
L 217.04693 570.67926 
L 222.659838 567.327166 
L 228.230618 563.916855 
L 233.75927 560.448327 
L 239.245795 556.921582 
L 244.690192 553.336621 
L 250.092461 549.693443 
L 255.452602 545.992048 
L 260.770615 542.232437 
L 266.046501 538.414609 
L 271.280259 534.538564 
L 276.471889 530.604303 
L 281.621392 526.611825 
L 286.728766 522.56113 
L 291.794013 518.452219 
L 296.817133 514.285091 
L 301.798124 510.059746 
L 306.736988 505.776185 
L 311.633724 501.434407 
L 316.488332 497.034412 
L 321.300812 492.576201 
L 326.071165 488.059773 
L 330.79939 483.485128 
L 335.485487 478.852267 
" clip-path="url(#p4c5fcce814)" style="fill: none; stroke: #75a025; stroke-opacity: 0.4; stroke-width: 4; stroke-linecap: round"/>
   </g>
   <g id="line2d_2">
    <path d="M 96.676973 452.308494 
L 104.532454 454.022403 
L 112.393327 455.648797 
L 120.259593 457.187677 
L 128.131252 458.639043 
L 136.008304 460.002894 
L 143.890748 461.279232 
L 151.778585 462.468055 
L 159.671814 463.569364 
L 167.570436 464.583158 
L 175.474451 465.509439 
L 183.383858 466.348205 
L 191.298659 467.099457 
L 199.218851 467.763194 
L 207.144437 468.339418 
L 215.075415 468.828127 
L 223.011785 469.229322 
L 230.953549 469.543002 
L 238.900705 469.769169 
L 246.853253 469.907821 
L 254.811195 469.958959 
L 262.774529 469.922583 
L 270.743255 469.798692 
L 278.717374 469.587287 
L 286.696886 469.288368 
L 294.681791 468.901935 
L 302.672088 468.427988 
L 310.667778 467.866526 
L 318.668861 467.21755 
L 326.675336 466.48106 
" clip-path="url(#p4c5fcce814)" style="fill: none; stroke: #75a025; stroke-opacity: 0.4; stroke-width: 4; stroke-linecap: round"/>
   </g>
   <g id="line2d_3">
    <path d="M 208.914909 153.074298 
L 213.619742 158.257384 
L 218.260883 163.482546 
L 222.83833 168.749785 
L 227.352085 174.059099 
L 231.802147 179.410489 
L 236.188517 184.803955 
L 240.511194 190.239497 
L 244.770178 195.717115 
L 248.96547 201.23681 
L 253.097068 206.79858 
L 257.164974 212.402426 
L 261.169188 218.048348 
L 265.109709 223.736346 
L 268.986537 229.46642 
L 272.799672 235.23857 
L 276.549115 241.052796 
L 280.234865 246.909098 
L 283.856922 252.807475 
L 287.415287 258.747929 
L 290.909958 264.730459 
L 294.340938 270.755065 
L 297.708224 276.821747 
L 301.011818 282.930504 
L 304.251719 289.081338 
L 307.427928 295.274248 
L 310.540443 301.509234 
L 313.589267 307.786295 
L 316.574397 314.105433 
L 319.495835 320.466647 
" clip-path="url(#p4c5fcce814)" style="fill: none; stroke: #75a025; stroke-opacity: 0.4; stroke-width: 4; stroke-linecap: round"/>
   </g>
   <g id="line2d_4">
    <path d="M 556.166218 194.787397 
L 554.990931 200.930134 
L 553.751399 207.049978 
L 552.447621 213.146927 
L 551.079598 219.220984 
L 549.64733 225.272147 
L 548.150816 231.300416 
L 546.590057 237.305792 
L 544.965053 243.288274 
L 543.275803 249.247863 
L 541.522309 255.184559 
L 539.704569 261.098361 
L 537.822584 266.98927 
L 535.876353 272.857285 
L 533.865877 278.702406 
L 531.791156 284.524635 
L 529.65219 290.323969 
L 527.448978 296.10041 
L 525.181521 301.853958 
L 522.849819 307.584612 
L 520.453872 313.292373 
L 517.993679 318.97724 
L 515.469241 324.639214 
L 512.880558 330.278295 
L 510.227629 335.894482 
L 507.510455 341.487775 
L 504.729036 347.058175 
L 501.883372 352.605681 
L 498.973462 358.130294 
L 495.999307 363.632014 
" clip-path="url(#p4c5fcce814)" style="fill: none; stroke: #75a025; stroke-opacity: 0.4; stroke-width: 4; stroke-linecap: round"/>
   </g>
   <g id="patch_2">
    <path d="M 339.684409 600.465877 
Q 343.819778 529.819981 347.857753 460.837903 
" clip-path="url(#p4c5fcce814)" style="fill: none; stroke: #0279ee; stroke-width: 2; stroke-linecap: round"/>
    <path d="M 341.400514 468.473612 
L 347.857753 460.837903 
L 353.380007 469.174851 
" clip-path="url(#p4c5fcce814)" style="fill: none; stroke: #0279ee; stroke-width: 2; stroke-linecap: round"/>
   </g>
   <g id="patch_3">
    <path d="M 466.136416 574.047519 
Q 428.484467 506.104592 391.64038 439.61945 
" clip-path="url(#p4c5fcce814)" style="fill: none; stroke: #0279ee; stroke-width: 2; stroke-linecap: round"/>
    <path d="M 390.270087 449.52512 
L 391.64038 439.61945 
L 400.766141 443.708519 
" clip-path="url(#p4c5fcce814)" style="fill: none; stroke: #0279ee; stroke-width: 2; stroke-linecap: round"/>
   </g>
   <g id="patch_4">
    <path d="M 558.76131 476.838001 
Q 508.867221 436.201335 460.265416 396.61718 
" clip-path="url(#p4c5fcce814)" style="fill: none; stroke: #0279ee; stroke-width: 2; stroke-linecap: round"/>
    <path d="M 462.679337 406.321456 
L 460.265416 396.61718 
L 470.25742 397.017013 
" clip-path="url(#p4c5fcce814)" style="fill: none; stroke: #0279ee; stroke-width: 2; stroke-linecap: round"/>
   </g>
   <g id="patch_5">
    <path d="M 430.204976 170.164136 
Q 446.215097 249.139428 461.894081 326.48128 
" clip-path="url(#p4c5fcce814)" style="fill: none; stroke: #0279ee; stroke-width: 2; stroke-linecap: round"/>
    <path d="M 466.185012 317.448677 
L 461.894081 326.48128 
L 454.424243 319.832857 
" clip-path="url(#p4c5fcce814)" style="fill: none; stroke: #0279ee; stroke-width: 2; stroke-linecap: round"/>
   </g>
   <g id="patch_6">
    <path d="M 462.224864 328.11298 
Q 446.214744 249.137688 430.53576 171.795837 
" clip-path="url(#p4c5fcce814)" style="fill: none; stroke: #0279ee; stroke-width: 2; stroke-linecap: round"/>
    <path d="M 426.244829 180.828439 
L 430.53576 171.795837 
L 438.005598 178.444259 
" clip-path="url(#p4c5fcce814)" style="fill: none; stroke: #0279ee; stroke-width: 2; stroke-linecap: round"/>
   </g>
   <g id="line2d_5">
    <path d="M 580.25786 356.772376 
L 475.695245 376.096448 
" clip-path="url(#p4c5fcce814)" style="fill: none; stroke-dasharray: 9.6,7.2; stroke-dashoffset: 0; stroke: #fd9bed; stroke-width: 2.4"/>
   </g>
   <g id="line2d_6">
    <path d="M 367.756447 399.512557 
L 351.102814 390.480428 
" clip-path="url(#p4c5fcce814)" style="fill: none; stroke: #222222; stroke-width: 2; stroke-linecap: round"/>
   </g>
   <g id="line2d_7">
    <path d="M 368.26121 418.451091 
L 367.756447 399.512557 
" clip-path="url(#p4c5fcce814)" style="fill: none; stroke: #222222; stroke-width: 2; stroke-linecap: round"/>
   </g>
   <g id="line2d_8">
    <path d="M 384.914843 427.48322 
L 368.26121 418.451091 
" clip-path="url(#p4c5fcce814)" style="fill: none; stroke: #222222; stroke-width: 2; stroke-linecap: round"/>
   </g>
   <g id="line2d_9">
    <path d="M 352.11234 428.357496 
L 368.26121 418.451091 
" clip-path="url(#p4c5fcce814)" style="fill: none; stroke: #222222; stroke-width: 2; stroke-linecap: round"/>
   </g>
   <g id="line2d_10">
    <path d="M 348.66853 446.987124 
L 352.11234 428.357496 
" clip-path="url(#p4c5fcce814)" style="fill: none; stroke: #222222; stroke-width: 2; stroke-linecap: round"/>
   </g>
   <g id="line2d_11">
    <path d="M 329.886506 449.468737 
L 348.66853 446.987124 
" clip-path="url(#p4c5fcce814)" style="fill: none; stroke: #222222; stroke-width: 2; stroke-linecap: round"/>
   </g>
   <g id="line2d_12">
    <path d="M 321.722386 432.372831 
L 329.886506 449.468737 
" clip-path="url(#p4c5fcce814)" style="fill: none; stroke: #222222; stroke-width: 2; stroke-linecap: round"/>
   </g>
   <g id="line2d_13">
    <path d="M 335.458707 419.325367 
L 321.722386 432.372831 
" clip-path="url(#p4c5fcce814)" style="fill: none; stroke: #222222; stroke-width: 2; stroke-linecap: round"/>
   </g>
   <g id="line2d_14">
    <path d="M 335.458707 419.325367 
L 352.11234 428.357496 
" clip-path="url(#p4c5fcce814)" style="fill: none; stroke: #222222; stroke-width: 2; stroke-linecap: round"/>
   </g>
   <g id="line2d_15">
    <path d="M 334.953944 400.386833 
L 351.102814 390.480428 
" clip-path="url(#p4c5fcce814)" style="fill: none; stroke: #222222; stroke-width: 2; stroke-linecap: round"/>
   </g>
   <g id="line2d_16">
    <path d="M 334.953944 400.386833 
L 335.458707 419.325367 
" clip-path="url(#p4c5fcce814)" style="fill: none; stroke: #222222; stroke-width: 2; stroke-linecap: round"/>
   </g>
   <g id="line2d_17">
    <path d="M 383.905317 389.606153 
L 367.756447 399.512557 
" clip-path="url(#p4c5fcce814)" style="fill: none; stroke: #222222; stroke-width: 2; stroke-linecap: round"/>
   </g>
   <g id="line2d_18">
    <path d="M 400.55895 398.638282 
L 383.905317 389.606153 
" clip-path="url(#p4c5fcce814)" style="fill: none; stroke: #222222; stroke-width: 2; stroke-linecap: round"/>
   </g>
   <g id="line2d_19">
    <path d="M 416.70782 388.731877 
L 400.55895 398.638282 
" clip-path="url(#p4c5fcce814)" style="fill: none; stroke: #222222; stroke-width: 2; stroke-linecap: round"/>
   </g>
   <g id="line2d_20">
    <path d="M 416.203057 369.793343 
L 416.70782 388.731877 
" clip-path="url(#p4c5fcce814)" style="fill: none; stroke: #222222; stroke-width: 2; stroke-linecap: round"/>
   </g>
   <g id="line2d_21">
    <path d="M 432.351926 359.886939 
L 416.203057 369.793343 
" clip-path="url(#p4c5fcce814)" style="fill: none; stroke: #222222; stroke-width: 2; stroke-linecap: round"/>
   </g>
   <g id="line2d_22">
    <path d="M 431.847163 340.948405 
L 432.351926 359.886939 
" clip-path="url(#p4c5fcce814)" style="fill: none; stroke: #222222; stroke-width: 2; stroke-linecap: round"/>
   </g>
   <g id="line2d_23">
    <path d="M 399.549424 360.761214 
L 416.203057 369.793343 
" clip-path="url(#p4c5fcce814)" style="fill: none; stroke: #222222; stroke-width: 2; stroke-linecap: round"/>
   </g>
   <g id="line2d_24">
    <path d="M 383.400554 370.667619 
L 399.549424 360.761214 
" clip-path="url(#p4c5fcce814)" style="fill: none; stroke: #222222; stroke-width: 2; stroke-linecap: round"/>
   </g>
   <g id="line2d_25">
    <path d="M 383.400554 370.667619 
L 383.905317 389.606153 
" clip-path="url(#p4c5fcce814)" style="fill: none; stroke: #222222; stroke-width: 2; stroke-linecap: round"/>
   </g>
   <g id="line2d_26">
    <path d="M 449.00556 368.919068 
L 432.351926 359.886939 
" clip-path="url(#p4c5fcce814)" style="fill: none; stroke: #222222; stroke-width: 2; stroke-linecap: round"/>
   </g>
   <g id="line2d_27">
    <path d="M 449.510323 387.857602 
L 449.00556 368.919068 
" clip-path="url(#p4c5fcce814)" style="fill: none; stroke: #222222; stroke-width: 2; stroke-linecap: round"/>
   </g>
   <g id="line2d_28">
    <path d="M 466.163956 396.889731 
L 449.510323 387.857602 
" clip-path="url(#p4c5fcce814)" style="fill: none; stroke: #222222; stroke-width: 2; stroke-linecap: round"/>
   </g>
   <g id="line2d_29">
    <path d="M 482.312826 386.983326 
L 466.163956 396.889731 
" clip-path="url(#p4c5fcce814)" style="fill: none; stroke: #222222; stroke-width: 2; stroke-linecap: round"/>
   </g>
   <g id="line2d_30">
    <path d="M 481.808063 368.044793 
L 482.312826 386.983326 
" clip-path="url(#p4c5fcce814)" style="fill: none; stroke: #222222; stroke-width: 2; stroke-linecap: round"/>
   </g>
   <g id="line2d_31">
    <path d="M 497.956932 358.138388 
L 481.808063 368.044793 
" clip-path="url(#p4c5fcce814)" style="fill: none; stroke: #222222; stroke-width: 2; stroke-linecap: round"/>
   </g>
   <g id="line2d_32">
    <path d="M 465.154429 359.012663 
L 481.808063 368.044793 
" clip-path="url(#p4c5fcce814)" style="fill: none; stroke: #222222; stroke-width: 2; stroke-linecap: round"/>
   </g>
   <g id="line2d_33">
    <path d="M 465.154429 359.012663 
L 449.00556 368.919068 
" clip-path="url(#p4c5fcce814)" style="fill: none; stroke: #222222; stroke-width: 2; stroke-linecap: round"/>
   </g>
   <g id="line2d_34">
    <path d="M 464.649666 340.074129 
L 465.154429 359.012663 
" clip-path="url(#p4c5fcce814)" style="fill: none; stroke: #222222; stroke-width: 2; stroke-linecap: round"/>
   </g>
   <g id="line2d_35">
    <path d="M 320.854376 466.12237 
L 329.886506 449.468737 
" clip-path="url(#p4c5fcce814)" style="fill: none; stroke: #222222; stroke-width: 2; stroke-linecap: round"/>
   </g>
   <g id="line2d_36">
    <path d="M 301.915843 466.627134 
L 320.854376 466.12237 
" clip-path="url(#p4c5fcce814)" style="fill: none; stroke: #222222; stroke-width: 2; stroke-linecap: round"/>
   </g>
   <g id="line2d_37">
    <path d="M 292.883713 483.280767 
L 301.915843 466.627134 
" clip-path="url(#p4c5fcce814)" style="fill: none; stroke: #222222; stroke-width: 2; stroke-linecap: round"/>
   </g>
   <g id="line2d_38">
    <path d="M 302.790118 499.429637 
L 292.883713 483.280767 
" clip-path="url(#p4c5fcce814)" style="fill: none; stroke: #222222; stroke-width: 2; stroke-linecap: round"/>
   </g>
   <g id="line2d_39">
    <path d="M 321.728652 498.924873 
L 302.790118 499.429637 
" clip-path="url(#p4c5fcce814)" style="fill: none; stroke: #222222; stroke-width: 2; stroke-linecap: round"/>
   </g>
   <g id="line2d_40">
    <path d="M 330.760781 482.27124 
L 321.728652 498.924873 
" clip-path="url(#p4c5fcce814)" style="fill: none; stroke: #222222; stroke-width: 2; stroke-linecap: round"/>
   </g>
   <g id="line2d_41">
    <path d="M 330.760781 482.27124 
L 320.854376 466.12237 
" clip-path="url(#p4c5fcce814)" style="fill: none; stroke: #222222; stroke-width: 2; stroke-linecap: round"/>
   </g>
   <g id="line2d_42">
    <path d="M 350.598051 371.541894 
L 366.746921 361.635489 
" clip-path="url(#p4c5fcce814)" style="fill: none; stroke: #222222; stroke-width: 2; stroke-linecap: round"/>
   </g>
   <g id="line2d_43">
    <path d="M 350.598051 371.541894 
L 351.102814 390.480428 
" clip-path="url(#p4c5fcce814)" style="fill: none; stroke: #222222; stroke-width: 2; stroke-linecap: round"/>
   </g>
   <g id="line2d_44">
    <path d="M 318.300311 391.354703 
L 334.953944 400.386833 
" clip-path="url(#p4c5fcce814)" style="fill: none; stroke: #222222; stroke-width: 2; stroke-linecap: round"/>
   </g>
   <g id="line2d_45">
    <path d="M 317.795548 372.41617 
L 318.300311 391.354703 
" clip-path="url(#p4c5fcce814)" style="fill: none; stroke: #222222; stroke-width: 2; stroke-linecap: round"/>
   </g>
   <g id="line2d_46">
    <path d="M 333.944418 362.509765 
L 317.795548 372.41617 
" clip-path="url(#p4c5fcce814)" style="fill: none; stroke: #222222; stroke-width: 2; stroke-linecap: round"/>
   </g>
   <g id="line2d_47">
    <path d="M 301.141915 363.38404 
L 317.795548 372.41617 
" clip-path="url(#p4c5fcce814)" style="fill: none; stroke: #222222; stroke-width: 2; stroke-linecap: round"/>
   </g>
   <g id="line2d_48">
    <path d="M 300.637152 344.445506 
L 301.141915 363.38404 
" clip-path="url(#p4c5fcce814)" style="fill: none; stroke: #222222; stroke-width: 2; stroke-linecap: round"/>
   </g>
   <g id="line2d_49">
    <path d="M 316.786021 334.539102 
L 300.637152 344.445506 
" clip-path="url(#p4c5fcce814)" style="fill: none; stroke: #222222; stroke-width: 2; stroke-linecap: round"/>
   </g>
   <g id="line2d_50">
    <path d="M 316.281258 315.600568 
L 316.786021 334.539102 
" clip-path="url(#p4c5fcce814)" style="fill: none; stroke: #222222; stroke-width: 2; stroke-linecap: round"/>
   </g>
   <g id="line2d_51">
    <path d="M 299.627625 306.568439 
L 316.281258 315.600568 
" clip-path="url(#p4c5fcce814)" style="fill: none; stroke: #222222; stroke-width: 2; stroke-linecap: round"/>
   </g>
   <g id="line2d_52">
    <path d="M 283.478755 316.474843 
L 299.627625 306.568439 
" clip-path="url(#p4c5fcce814)" style="fill: none; stroke: #222222; stroke-width: 2; stroke-linecap: round"/>
   </g>
   <g id="line2d_53">
    <path d="M 283.983518 335.413377 
L 283.478755 316.474843 
" clip-path="url(#p4c5fcce814)" style="fill: none; stroke: #222222; stroke-width: 2; stroke-linecap: round"/>
   </g>
   <g id="line2d_54">
    <path d="M 283.983518 335.413377 
L 300.637152 344.445506 
" clip-path="url(#p4c5fcce814)" style="fill: none; stroke: #222222; stroke-width: 2; stroke-linecap: round"/>
   </g>
   <g id="line2d_55">
    <path d="M 267.834649 345.319782 
L 283.983518 335.413377 
" clip-path="url(#p4c5fcce814)" style="fill: none; stroke: #222222; stroke-width: 2; stroke-linecap: round"/>
   </g>
   <g id="line2d_56">
    <path d="M 299.122862 287.629905 
L 299.627625 306.568439 
" clip-path="url(#p4c5fcce814)" style="fill: none; stroke: #222222; stroke-width: 2; stroke-linecap: round"/>
   </g>
   <g id="line2d_57">
    <path d="M 298.618099 268.691371 
L 299.122862 287.629905 
" clip-path="url(#p4c5fcce814)" style="fill: none; stroke: #222222; stroke-width: 2; stroke-linecap: round"/>
   </g>
   <g id="line2d_58">
    <path d="M 318.061396 287.125141 
L 299.122862 287.629905 
" clip-path="url(#p4c5fcce814)" style="fill: none; stroke: #222222; stroke-width: 2; stroke-linecap: round"/>
   </g>
   <g id="line2d_59">
    <path d="M 280.184328 288.134668 
L 299.122862 287.629905 
" clip-path="url(#p4c5fcce814)" style="fill: none; stroke: #222222; stroke-width: 2; stroke-linecap: round"/>
   </g>
   <g id="text_1">
    <g id="patch_7">
     <path d="M 380.007968 433.35408 
L 389.821718 433.35408 
L 389.821718 421.612361 
L 380.007968 421.612361 
z
" style="fill: #ffffff"/>
    </g>
    <text style="font-weight: 700; font-size: 12px; font-family: 'Liberation Sans', 'Arimo', 'DejaVu Sans'; text-anchor: middle; fill: #d40000" x="384.914843" y="430.588689" transform="rotate(-0 384.914843 430.588689)">O</text>
   </g>
   <g id="text_2">
    <g id="patch_8">
     <path d="M 347.539215 434.228355 
L 356.685465 434.228355 
L 356.685465 422.486637 
L 347.539215 422.486637 
z
" style="fill: #ffffff"/>
    </g>
    <text style="font-weight: 700; font-size: 12px; font-family: 'Liberation Sans', 'Arimo', 'DejaVu Sans'; text-anchor: middle; fill: #0879c0" x="352.11234" y="431.462965" transform="rotate(-0 352.11234 431.462965)">N</text>
   </g>
   <g id="text_3">
    <g id="patch_9">
     <path d="M 344.095405 452.857983 
L 353.241655 452.857983 
L 353.241655 441.116264 
L 344.095405 441.116264 
z
" style="fill: #ffffff"/>
    </g>
    <text style="font-weight: 700; font-size: 12px; font-family: 'Liberation Sans', 'Arimo', 'DejaVu Sans'; text-anchor: middle; fill: #0879c0" x="348.66853" y="450.092592" transform="rotate(-0 348.66853 450.092592)">N</text>
   </g>
   <g id="text_4">
    <g id="patch_10">
     <path d="M 317.149261 438.243691 
L 326.295511 438.243691 
L 326.295511 426.501972 
L 317.149261 426.501972 
z
" style="fill: #ffffff"/>
    </g>
    <text style="font-weight: 700; font-size: 12px; font-family: 'Liberation Sans', 'Arimo', 'DejaVu Sans'; text-anchor: middle; fill: #0879c0" x="321.722386" y="435.4783" transform="rotate(-0 321.722386 435.4783)">N</text>
   </g>
   <g id="text_5">
    <g id="patch_11">
     <path d="M 330.380819 406.257692 
L 339.527069 406.257692 
L 339.527069 394.515973 
L 330.380819 394.515973 
z
" style="fill: #ffffff"/>
    </g>
    <text style="font-weight: 700; font-size: 12px; font-family: 'Liberation Sans', 'Arimo', 'DejaVu Sans'; text-anchor: middle; fill: #0879c0" x="334.953944" y="403.492301" transform="rotate(-0 334.953944 403.492301)">N</text>
   </g>
   <g id="text_6">
    <g id="patch_12">
     <path d="M 379.332192 395.477012 
L 388.478442 395.477012 
L 388.478442 383.735293 
L 379.332192 383.735293 
z
" style="fill: #ffffff"/>
    </g>
    <text style="font-weight: 700; font-size: 12px; font-family: 'Liberation Sans', 'Arimo', 'DejaVu Sans'; text-anchor: middle; fill: #0879c0" x="383.905317" y="392.711621" transform="rotate(-0 383.905317 392.711621)">N</text>
   </g>
   <g id="text_7">
    <g id="patch_13">
     <path d="M 411.629932 375.664203 
L 420.776182 375.664203 
L 420.776182 363.922484 
L 411.629932 363.922484 
z
" style="fill: #ffffff"/>
    </g>
    <text style="font-weight: 700; font-size: 12px; font-family: 'Liberation Sans', 'Arimo', 'DejaVu Sans'; text-anchor: middle; fill: #0879c0" x="416.203057" y="372.898812" transform="rotate(-0 416.203057 372.898812)">N</text>
   </g>
   <g id="text_8">
    <g id="patch_14">
     <path d="M 426.940288 346.819264 
L 436.754038 346.819264 
L 436.754038 335.077545 
L 426.940288 335.077545 
z
" style="fill: #ffffff"/>
    </g>
    <text style="font-weight: 700; font-size: 12px; font-family: 'Liberation Sans', 'Arimo', 'DejaVu Sans'; text-anchor: middle; fill: #d40000" x="431.847163" y="344.053874" transform="rotate(-0 431.847163 344.053874)">O</text>
   </g>
   <g id="text_9">
    <g id="patch_15">
     <path d="M 444.937198 393.728461 
L 454.083448 393.728461 
L 454.083448 381.986742 
L 444.937198 381.986742 
z
" style="fill: #ffffff"/>
    </g>
    <text style="font-weight: 700; font-size: 12px; font-family: 'Liberation Sans', 'Arimo', 'DejaVu Sans'; text-anchor: middle; fill: #0879c0" x="449.510323" y="390.963071" transform="rotate(-0 449.510323 390.963071)">N</text>
   </g>
   <g id="text_10">
    <g id="patch_16">
     <path d="M 477.739701 392.854186 
L 486.885951 392.854186 
L 486.885951 381.112467 
L 477.739701 381.112467 
z
" style="fill: #ffffff"/>
    </g>
    <text style="font-weight: 700; font-size: 12px; font-family: 'Liberation Sans', 'Arimo', 'DejaVu Sans'; text-anchor: middle; fill: #0879c0" x="482.312826" y="390.088795" transform="rotate(-0 482.312826 390.088795)">N</text>
   </g>
   <g id="text_11">
    <g id="patch_17">
     <path d="M 459.742791 345.944989 
L 469.556541 345.944989 
L 469.556541 334.20327 
L 459.742791 334.20327 
z
" style="fill: #ffffff"/>
    </g>
    <text style="font-weight: 700; font-size: 12px; font-family: 'Liberation Sans', 'Arimo', 'DejaVu Sans'; text-anchor: middle; fill: #d40000" x="464.649666" y="343.179598" transform="rotate(-0 464.649666 343.179598)">O</text>
   </g>
   <g id="text_12">
    <g id="patch_18">
     <path d="M 297.883243 505.300496 
L 307.696993 505.300496 
L 307.696993 493.558777 
L 297.883243 493.558777 
z
" style="fill: #ffffff"/>
    </g>
    <text style="font-weight: 700; font-size: 12px; font-family: 'Liberation Sans', 'Arimo', 'DejaVu Sans'; text-anchor: middle; fill: #d40000" x="302.790118" y="502.535105" transform="rotate(-0 302.790118 502.535105)">O</text>
   </g>
   <g id="text_13">
    <g id="patch_19">
     <path d="M 329.037543 368.380624 
L 338.851293 368.380624 
L 338.851293 356.638905 
L 329.037543 356.638905 
z
" style="fill: #ffffff"/>
    </g>
    <text style="font-weight: 700; font-size: 12px; font-family: 'Liberation Sans', 'Arimo', 'DejaVu Sans'; text-anchor: middle; fill: #d40000" x="333.944418" y="365.615234" transform="rotate(-0 333.944418 365.615234)">O</text>
   </g>
   <g id="text_14">
    <g id="patch_20">
     <path d="M 296.56879 369.2549 
L 305.71504 369.2549 
L 305.71504 357.513181 
L 296.56879 357.513181 
z
" style="fill: #ffffff"/>
    </g>
    <text style="font-weight: 700; font-size: 12px; font-family: 'Liberation Sans', 'Arimo', 'DejaVu Sans'; text-anchor: middle; fill: #0879c0" x="301.141915" y="366.489509" transform="rotate(-0 301.141915 366.489509)">N</text>
   </g>
   <g id="text_15">
    <g id="patch_21">
     <path d="M 261.594649 351.190641 
L 274.074649 351.190641 
L 274.074649 339.448922 
L 261.594649 339.448922 
z
" style="fill: #ffffff"/>
    </g>
    <text style="font-weight: 700; font-size: 12px; font-family: 'Liberation Sans', 'Arimo', 'DejaVu Sans'; text-anchor: middle; fill: #00a040" x="267.834649" y="348.42525" transform="rotate(-0 267.834649 348.42525)">Cl</text>
   </g>
   <g id="text_16">
    <g id="patch_22">
     <path d="M 294.713411 274.56223 
L 302.522786 274.56223 
L 302.522786 262.820511 
L 294.713411 262.820511 
z
" style="fill: #ffffff"/>
    </g>
    <text style="font-weight: 700; font-size: 12px; font-family: 'Liberation Sans', 'Arimo', 'DejaVu Sans'; text-anchor: middle; fill: #00a040" x="298.618099" y="271.796839" transform="rotate(-0 298.618099 271.796839)">F</text>
   </g>
   <g id="text_17">
    <g id="patch_23">
     <path d="M 314.156709 292.996001 
L 321.966084 292.996001 
L 321.966084 281.254282 
L 314.156709 281.254282 
z
" style="fill: #ffffff"/>
    </g>
    <text style="font-weight: 700; font-size: 12px; font-family: 'Liberation Sans', 'Arimo', 'DejaVu Sans'; text-anchor: middle; fill: #00a040" x="318.061396" y="290.23061" transform="rotate(-0 318.061396 290.23061)">F</text>
   </g>
   <g id="text_18">
    <g id="patch_24">
     <path d="M 276.279641 294.005527 
L 284.089016 294.005527 
L 284.089016 282.263808 
L 276.279641 282.263808 
z
" style="fill: #ffffff"/>
    </g>
    <text style="font-weight: 700; font-size: 12px; font-family: 'Liberation Sans', 'Arimo', 'DejaVu Sans'; text-anchor: middle; fill: #00a040" x="280.184328" y="291.240136" transform="rotate(-0 280.184328 291.240136)">F</text>
   </g>
   <g id="patch_25">
    <path d="M 203.745976 598.969897 
C 210.3193 598.969897 216.624283 596.358288 221.272325 591.710246 
C 225.920367 587.062204 228.531976 580.757221 228.531976 574.183897 
C 228.531976 567.610573 225.920367 561.305591 221.272325 556.657549 
C 216.624283 552.009507 210.3193 549.397897 203.745976 549.397897 
C 197.172652 549.397897 190.86767 552.009507 186.219628 556.657549 
C 181.571586 561.305591 178.959976 567.610573 178.959976 574.183897 
C 178.959976 580.757221 181.571586 587.062204 186.219628 591.710246 
C 190.86767 596.358288 197.172652 598.969897 203.745976 598.969897 
z
" clip-path="url(#p4c5fcce814)" style="fill: #8bc34a; stroke: #222222; stroke-width: 1.2; stroke-linejoin: miter"/>
   </g>
   <g id="patch_26">
    <path d="M 122.871289 478.708596 
C 129.444613 478.708596 135.749596 476.096986 140.397638 471.448944 
C 145.04568 466.800902 147.657289 460.49592 147.657289 453.922596 
C 147.657289 447.349272 145.04568 441.044289 140.397638 436.396247 
C 135.749596 431.748205 129.444613 429.136596 122.871289 429.136596 
C 116.297965 429.136596 109.992982 431.748205 105.34494 436.396247 
C 100.696898 441.044289 98.085289 447.349272 98.085289 453.922596 
C 98.085289 460.49592 100.696898 466.800902 105.34494 471.448944 
C 109.992982 476.096986 116.297965 478.708596 122.871289 478.708596 
z
" clip-path="url(#p4c5fcce814)" style="fill: #f5a623; stroke: #222222; stroke-width: 1.2; stroke-linejoin: miter"/>
   </g>
   <g id="patch_27">
    <path d="M 223.380503 199.757652 
C 229.953827 199.757652 236.25881 197.146043 240.906852 192.498001 
C 245.554894 187.849959 248.166503 181.544976 248.166503 174.971652 
C 248.166503 168.398328 245.554894 162.093346 240.906852 157.445304 
C 236.25881 152.797262 229.953827 150.185652 223.380503 150.185652 
C 216.807179 150.185652 210.502196 152.797262 205.854154 157.445304 
C 201.206112 162.093346 198.594503 168.398328 198.594503 174.971652 
C 198.594503 181.544976 201.206112 187.849959 205.854154 192.498001 
C 210.502196 197.146043 216.807179 199.757652 223.380503 199.757652 
z
" clip-path="url(#p4c5fcce814)" style="fill: #d9584c; stroke: #222222; stroke-width: 1.2; stroke-linejoin: miter"/>
   </g>
   <g id="patch_28">
    <path d="M 547.356904 244.294714 
C 553.930228 244.294714 560.235211 241.683105 564.883253 237.035063 
C 569.531295 232.387021 572.142904 226.082039 572.142904 219.508714 
C 572.142904 212.93539 569.531295 206.630408 564.883253 201.982366 
C 560.235211 197.334324 553.930228 194.722714 547.356904 194.722714 
C 540.78358 194.722714 534.478597 197.334324 529.830555 201.982366 
C 525.182513 206.630408 522.570904 212.93539 522.570904 219.508714 
C 522.570904 226.082039 525.182513 232.387021 529.830555 237.035063 
C 534.478597 241.683105 540.78358 244.294714 547.356904 244.294714 
z
" clip-path="url(#p4c5fcce814)" style="fill: #8bc34a; stroke: #222222; stroke-width: 1.2; stroke-linejoin: miter"/>
   </g>
   <g id="patch_29">
    <path d="M 338.033745 653.450717 
C 344.607069 653.450717 350.912052 650.839107 355.560094 646.191065 
C 360.208136 641.543023 362.819745 635.238041 362.819745 628.664717 
C 362.819745 622.091392 360.208136 615.78641 355.560094 611.138368 
C 350.912052 606.490326 344.607069 603.878717 338.033745 603.878717 
C 331.460421 603.878717 325.155438 606.490326 320.507396 611.138368 
C 315.859354 615.78641 313.247745 622.091392 313.247745 628.664717 
C 313.247745 635.238041 315.859354 641.543023 320.507396 646.191065 
C 325.155438 650.839107 331.460421 653.450717 338.033745 653.450717 
z
" clip-path="url(#p4c5fcce814)" style="fill: #8bc34a; stroke: #222222; stroke-width: 1.2; stroke-linejoin: miter"/>
   </g>
   <g id="patch_30">
    <path d="M 479.826164 623.536666 
C 486.399488 623.536666 492.704471 620.925057 497.352513 616.277015 
C 502.000555 611.628973 504.612164 605.32399 504.612164 598.750666 
C 504.612164 592.177342 502.000555 585.872359 497.352513 581.224317 
C 492.704471 576.576275 486.399488 573.964666 479.826164 573.964666 
C 473.25284 573.964666 466.947858 576.576275 462.299816 581.224317 
C 457.651774 585.872359 455.040164 592.177342 455.040164 598.750666 
C 455.040164 605.32399 457.651774 611.628973 462.299816 616.277015 
C 466.947858 620.925057 473.25284 623.536666 479.826164 623.536666 
z
" clip-path="url(#p4c5fcce814)" style="fill: #f5a623; stroke: #222222; stroke-width: 1.2; stroke-linejoin: miter"/>
   </g>
   <g id="patch_31">
    <path d="M 580.658056 519.457993 
C 587.23138 519.457993 593.536362 516.846383 598.184404 512.198341 
C 602.832446 507.550299 605.444056 501.245317 605.444056 494.671993 
C 605.444056 488.098669 602.832446 481.793686 598.184404 477.145644 
C 593.536362 472.497602 587.23138 469.885993 580.658056 469.885993 
C 574.084732 469.885993 567.779749 472.497602 563.131707 477.145644 
C 558.483665 481.793686 555.872056 488.098669 555.872056 494.671993 
C 555.872056 501.245317 558.483665 507.550299 563.131707 512.198341 
C 567.779749 516.846383 574.084732 519.457993 580.658056 519.457993 
z
" clip-path="url(#p4c5fcce814)" style="fill: #f5a623; stroke: #222222; stroke-width: 1.2; stroke-linejoin: miter"/>
   </g>
   <g id="patch_32">
    <path d="M 424.593718 167.27072 
C 431.167042 167.27072 437.472024 164.65911 442.120066 160.011068 
C 446.768108 155.363026 449.379718 149.058044 449.379718 142.48472 
C 449.379718 135.911396 446.768108 129.606413 442.120066 124.958371 
C 437.472024 120.310329 431.167042 117.69872 424.593718 117.69872 
C 418.020394 117.69872 411.715411 120.310329 407.067369 124.958371 
C 402.419327 129.606413 399.807718 135.911396 399.807718 142.48472 
C 399.807718 149.058044 402.419327 155.363026 407.067369 160.011068 
C 411.715411 164.65911 418.020394 167.27072 424.593718 167.27072 
z
" clip-path="url(#p4c5fcce814)" style="fill: #5087c5; stroke: #222222; stroke-width: 1.2; stroke-linejoin: miter"/>
   </g>
   <g id="patch_33">
    <path d="M 606.064852 376.789022 
C 612.638176 376.789022 618.943158 374.177412 623.5912 369.52937 
C 628.239242 364.881328 630.850852 358.576346 630.850852 352.003022 
C 630.850852 345.429698 628.239242 339.124715 623.5912 334.476673 
C 618.943158 329.828631 612.638176 327.217022 606.064852 327.217022 
C 599.491527 327.217022 593.186545 329.828631 588.538503 334.476673 
C 583.890461 339.124715 581.278852 345.429698 581.278852 352.003022 
C 581.278852 358.576346 583.890461 364.881328 588.538503 369.52937 
C 593.186545 374.177412 599.491527 376.789022 606.064852 376.789022 
z
" clip-path="url(#p4c5fcce814)" style="fill: #5087c5; stroke: #222222; stroke-width: 1.2; stroke-linejoin: miter"/>
   </g>
   <g id="text_19">
    <text style="font-weight: 700; font-size: 8.5px; font-family: 'Liberation Sans', 'Arimo', 'DejaVu Sans'; text-anchor: middle; fill: #222222" x="203.745976" y="576.383604" transform="rotate(-0 203.745976 576.383604)">A704</text>
   </g>
   <g id="text_20">
    <text style="font-weight: 700; font-size: 8.5px; font-family: 'Liberation Sans', 'Arimo', 'DejaVu Sans'; text-anchor: middle; fill: #222222" x="122.871289" y="456.122303" transform="rotate(-0 122.871289 456.122303)">T705</text>
   </g>
   <g id="text_21">
    <text style="font-weight: 700; font-size: 8.5px; font-family: 'Liberation Sans', 'Arimo', 'DejaVu Sans'; text-anchor: middle; fill: #ffffff" x="223.380503" y="177.171359" transform="rotate(-0 223.380503 177.171359)">D731</text>
   </g>
   <g id="text_22">
    <text style="font-weight: 700; font-size: 8.5px; font-family: 'Liberation Sans', 'Arimo', 'DejaVu Sans'; text-anchor: middle; fill: #222222" x="547.356904" y="221.708422" transform="rotate(-0 547.356904 221.708422)">I828</text>
   </g>
   <g id="text_23">
    <text style="font-weight: 700; font-size: 8.5px; font-family: 'Liberation Sans', 'Arimo', 'DejaVu Sans'; text-anchor: middle; fill: #222222" x="338.033745" y="630.864424" transform="rotate(-0 338.033745 630.864424)">A706</text>
   </g>
   <g id="text_24">
    <text style="font-weight: 700; font-size: 8.5px; font-family: 'Liberation Sans', 'Arimo', 'DejaVu Sans'; text-anchor: middle; fill: #222222" x="479.826164" y="600.950373" transform="rotate(-0 479.826164 600.950373)">S707</text>
   </g>
   <g id="text_25">
    <text style="font-weight: 700; font-size: 8.5px; font-family: 'Liberation Sans', 'Arimo', 'DejaVu Sans'; text-anchor: middle; fill: #222222" x="580.658056" y="496.8717" transform="rotate(-0 580.658056 496.8717)">S708</text>
   </g>
   <g id="text_26">
    <text style="font-weight: 700; font-size: 8.5px; font-family: 'Liberation Sans', 'Arimo', 'DejaVu Sans'; text-anchor: middle; fill: #ffffff" x="424.593718" y="144.684427" transform="rotate(-0 424.593718 144.684427)">K830</text>
   </g>
   <g id="text_27">
    <text style="font-weight: 700; font-size: 8.5px; font-family: 'Liberation Sans', 'Arimo', 'DejaVu Sans'; text-anchor: middle; fill: #ffffff" x="606.064852" y="354.202729" transform="rotate(-0 606.064852 354.202729)">R857</text>
   </g>
  </g>
  <g id="patch_34">
   <path d="M 130.640391 714.42 
Q 135.83969 714.42 138.914724 714.42 
" style="fill: none; stroke: #0279ee; stroke-width: 1.9; stroke-linecap: round"/>
   <path d="M 134.114724 712.02 
L 138.914724 714.42 
L 134.114724 716.82 
" style="fill: none; stroke: #0279ee; stroke-width: 1.9; stroke-linecap: round"/>
  </g>
  <g id="patch_35">
   <path d="M 92.16 743.148 
C 93.68757 743.148 95.15278 742.510745 96.232935 741.376582 
C 97.31309 740.242419 97.92 738.703948 97.92 737.1 
C 97.92 735.496052 97.31309 733.957581 96.232935 732.823418 
C 95.15278 731.689255 93.68757 731.052 92.16 731.052 
C 90.63243 731.052 89.16722 731.689255 88.087065 732.823418 
C 87.00691 733.957581 86.4 735.496052 86.4 737.1 
C 86.4 738.703948 87.00691 740.242419 88.087065 741.376582 
C 89.16722 742.510745 90.63243 743.148 92.16 743.148 
z
" style="fill: #5087c5; stroke: #222222; stroke-width: 0.8; stroke-linejoin: miter"/>
  </g>
  <g id="patch_36">
   <path d="M 218.88 743.148 
C 220.40757 743.148 221.87278 742.510745 222.952935 741.376582 
C 224.03309 740.242419 224.64 738.703948 224.64 737.1 
C 224.64 735.496052 224.03309 733.957581 222.952935 732.823418 
C 221.87278 731.689255 220.40757 731.052 218.88 731.052 
C 217.35243 731.052 215.88722 731.689255 214.807065 732.823418 
C 213.72691 733.957581 213.12 735.496052 213.12 737.1 
C 213.12 738.703948 213.72691 740.242419 214.807065 741.376582 
C 215.88722 742.510745 217.35243 743.148 218.88 743.148 
z
" style="fill: #d9584c; stroke: #222222; stroke-width: 0.8; stroke-linejoin: miter"/>
  </g>
  <g id="patch_37">
   <path d="M 345.6 743.148 
C 347.12757 743.148 348.59278 742.510745 349.672935 741.376582 
C 350.75309 740.242419 351.36 738.703948 351.36 737.1 
C 351.36 735.496052 350.75309 733.957581 349.672935 732.823418 
C 348.59278 731.689255 347.12757 731.052 345.6 731.052 
C 344.07243 731.052 342.60722 731.689255 341.527065 732.823418 
C 340.44691 733.957581 339.84 735.496052 339.84 737.1 
C 339.84 738.703948 340.44691 740.242419 341.527065 741.376582 
C 342.60722 742.510745 344.07243 743.148 345.6 743.148 
z
" style="fill: #f5a623; stroke: #222222; stroke-width: 0.8; stroke-linejoin: miter"/>
  </g>
  <g id="patch_38">
   <path d="M 472.32 743.148 
C 473.84757 743.148 475.31278 742.510745 476.392935 741.376582 
C 477.47309 740.242419 478.08 738.703948 478.08 737.1 
C 478.08 735.496052 477.47309 733.957581 476.392935 732.823418 
C 475.31278 731.689255 473.84757 731.052 472.32 731.052 
C 470.79243 731.052 469.32722 731.689255 468.247065 732.823418 
C 467.16691 733.957581 466.56 735.496052 466.56 737.1 
C 466.56 738.703948 467.16691 740.242419 468.247065 741.376582 
C 469.32722 742.510745 470.79243 743.148 472.32 743.148 
z
" style="fill: #8bc34a; stroke: #222222; stroke-width: 0.8; stroke-linejoin: miter"/>
  </g>
  <g id="patch_39">
   <path d="M 599.04 743.148 
C 600.56757 743.148 602.03278 742.510745 603.112935 741.376582 
C 604.19309 740.242419 604.8 738.703948 604.8 737.1 
C 604.8 735.496052 604.19309 733.957581 603.112935 732.823418 
C 602.03278 731.689255 600.56757 731.052 599.04 731.052 
C 597.51243 731.052 596.04722 731.689255 594.967065 732.823418 
C 593.88691 733.957581 593.28 735.496052 593.28 737.1 
C 593.28 738.703948 593.88691 740.242419 594.967065 741.376582 
C 596.04722 742.510745 597.51243 743.148 599.04 743.148 
z
" style="fill: #ffffff; stroke: #dc3912; stroke-width: 2.5; stroke-linejoin: miter"/>
  </g>
  <g id="line2d_60">
   <path d="M 339.84 714.42 
L 354.24 714.42 
" style="fill: none; stroke: #75a025; stroke-opacity: 0.4; stroke-width: 4; stroke-linecap: square"/>
  </g>
  <g id="line2d_61">
   <path d="M 551.04 714.42 
L 565.44 714.42 
" style="fill: none; stroke-dasharray: 9.6,7.2; stroke-dashoffset: 0; stroke: #fd9bed; stroke-width: 2.4"/>
  </g>
  <g id="text_28">
   <text style="font-weight: 700; font-size: 14px; font-family: 'Liberation Sans', 'Arimo', 'DejaVu Sans'; text-anchor: middle" x="360" y="21.532383" transform="rotate(-0 360 21.532383)">G729D × 9MJT · HRO761 — RESISTANCE</text>
  </g>
  <g id="text_29">
   <text style="font-size: 10.5px; font-family: 'Liberation Sans', 'Arimo', 'DejaVu Sans'; text-anchor: middle" x="360" y="41.66925" transform="rotate(-0 360 41.66925)">ΔS = +0.18  |  RMSD vs WT = 1.20 Å  |  0 lost / 8 retained / 1 gained</text>
  </g>
  <g id="text_30">
   <text style="font-size: 10.5px; font-family: 'Liberation Sans', 'Arimo', 'DejaVu Sans'; text-anchor: middle" x="360" y="61.320287" transform="rotate(-0 360 61.320287)">PLIP: 4 hydrophobic · 5 H-bond · 1 π-cation</text>
  </g>
  <g id="text_31">
   <text style="font-size: 8.5px; font-family: 'Liberation Sans', 'Arimo', 'DejaVu Sans'; text-anchor: start" x="146.64" y="716.619707" transform="rotate(-0 146.64 716.619707)">H-bond</text>
  </g>
  <g id="text_32">
   <text style="font-size: 8.5px; font-family: 'Liberation Sans', 'Arimo', 'DejaVu Sans'; text-anchor: start" x="357.84" y="716.619707" transform="rotate(-0 357.84 716.619707)">Hydrophobic</text>
  </g>
  <g id="text_33">
   <text style="font-size: 8.5px; font-family: 'Liberation Sans', 'Arimo', 'DejaVu Sans'; text-anchor: start" x="569.04" y="716.619707" transform="rotate(-0 569.04 716.619707)">π-cation</text>
  </g>
  <g id="text_34">
   <text style="font-size: 8px; font-family: 'Liberation Sans', 'Arimo', 'DejaVu Sans'; text-anchor: start" x="100.8" y="739.170313" transform="rotate(-0 100.8 739.170313)">Basic</text>
  </g>
  <g id="text_35">
   <text style="font-size: 8px; font-family: 'Liberation Sans', 'Arimo', 'DejaVu Sans'; text-anchor: start" x="227.52" y="739.170313" transform="rotate(-0 227.52 739.170313)">Acidic</text>
  </g>
  <g id="text_36">
   <text style="font-size: 8px; font-family: 'Liberation Sans', 'Arimo', 'DejaVu Sans'; text-anchor: start" x="354.24" y="739.170313" transform="rotate(-0 354.24 739.170313)">Polar</text>
  </g>
  <g id="text_37">
   <text style="font-size: 8px; font-family: 'Liberation Sans', 'Arimo', 'DejaVu Sans'; text-anchor: start" x="480.96" y="739.170313" transform="rotate(-0 480.96 739.170313)">Hydrophobic</text>
  </g>
  <g id="text_38">
   <text style="font-size: 8px; font-family: 'Liberation Sans', 'Arimo', 'DejaVu Sans'; text-anchor: start" x="607.68" y="739.170313" transform="rotate(-0 607.68 739.170313)">Mutation site</text>
  </g>
 </g>
 <defs>
  <clipPath id="p4c5fcce814">
   <rect x="53.82" y="75.6" width="612.36" height="612.36"/>
  </clipPath>
 </defs>
</svg>
