<?xml version="1.0" encoding="utf-8" standalone="no"?>
<!DOCTYPE svg PUBLIC "-//W3C//DTD SVG 1.1//EN"
  "http://www.w3.org/Graphics/SVG/1.1/DTD/svg11.dtd">
<svg xmlns:xlink="http://www.w3.org/1999/xlink" width="720pt" height="756pt" viewBox="0 0 720 756" xmlns="http://www.w3.org/2000/svg" version="1.1">
 <metadata>
  <rdf:RDF xmlns:dc="http://purl.org/dc/elements/1.1/" xmlns:cc="http://creativecommons.org/ns#" xmlns:rdf="http://www.w3.org/1999/02/22-rdf-syntax-ns#">
   <cc:Work>
    <dc:type rdf:resource="http://purl.org/dc/dcmitype/StillImage"/>
    <dc:date>2022-01-01T05:00:00+00:00</dc:date>
    <dc:format>image/svg+xml</dc:format>
    <dc:creator>
     <cc:Agent>
      <dc:title>Matplotlib v3.11.0, https://matplotlib.org/</dc:title>
     </cc:Agent>
    </dc:creator>
   </cc:Work>
  </rdf:RDF>
 </metadata>
 <defs>
  <style type="text/css">*{stroke-linejoin: round; stroke-linecap: butt}</style>
 </defs>
 <g id="figure_1">
  <g id="patch_1">
   <path d="M 0 756 
L 720 756 
L 720 0 
L 0 0 
z
" style="fill: #ffffff"/>
  </g>
  <g id="axes_1">
   <g id="line2d_1">
    <path d="M 474.005587 130.173413 
L 468.124873 135.891212 
L 462.315571 141.662869 
L 456.577683 147.488385 
L 450.911208 153.36776 
L 445.316146 159.300993 
L 439.792498 165.288084 
L 434.340262 171.329034 
L 428.95944 177.423843 
L 423.650031 183.57251 
L 418.412035 189.775036 
L 413.245452 196.03142 
L 408.150282 202.341663 
L 403.126526 208.705764 
L 398.174182 215.123724 
L 393.293252 221.595543 
L 388.483735 228.12122 
L 383.745631 234.700755 
L 379.078941 241.334149 
L 374.483663 248.021402 
L 369.959799 254.762513 
L 365.507348 261.557483 
L 361.12631 268.406311 
L 356.816685 275.308998 
L 352.578473 282.265543 
L 348.411675 289.275947 
L 344.316289 296.340209 
L 340.292317 303.45833 
L 336.339758 310.630309 
L 332.458613 317.856147 
" clip-path="url(#p8bef0cf3fe)" style="fill: none; stroke: #75a025; stroke-opacity: 0.4; stroke-width: 4; stroke-linecap: round"/>
   </g>
   <g id="line2d_2">
    <path d="M 227.94316 138.320722 
L 232.731931 143.930345 
L 237.452273 149.582238 
L 242.104186 155.276402 
L 246.687669 161.012836 
L 251.202723 166.791541 
L 255.649347 172.612516 
L 260.027543 178.475762 
L 264.337309 184.381278 
L 268.578645 190.329065 
L 272.751552 196.319122 
L 276.85603 202.351449 
L 280.892079 208.426047 
L 284.859698 214.542916 
L 288.758888 220.702055 
L 292.589648 226.903464 
L 296.35198 233.147144 
L 300.045881 239.433094 
L 303.671354 245.761315 
L 307.228397 252.131806 
L 310.717011 258.544568 
L 314.137195 264.9996 
L 317.48895 271.496903 
L 320.772276 278.036476 
L 323.987173 284.618319 
L 327.13364 291.242433 
L 330.211677 297.908818 
L 333.221286 304.617473 
L 336.162465 311.368398 
L 339.035214 318.161594 
" clip-path="url(#p8bef0cf3fe)" style="fill: none; stroke: #75a025; stroke-opacity: 0.4; stroke-width: 4; stroke-linecap: round"/>
   </g>
   <g id="line2d_3">
    <path d="M 92.952992 317.838214 
L 97.091515 321.909558 
L 101.267025 325.929521 
L 105.479523 329.898104 
L 109.729009 333.815306 
L 114.015483 337.681128 
L 118.338944 341.49557 
L 122.699393 345.258631 
L 127.09683 348.970311 
L 131.531255 352.630612 
L 136.002668 356.239531 
L 140.511068 359.797071 
L 145.056456 363.30323 
L 149.638832 366.758008 
L 154.258196 370.161406 
L 158.914547 373.513424 
L 163.607886 376.814061 
L 168.338213 380.063318 
L 173.105528 383.261194 
L 177.909831 386.40769 
L 182.751121 389.502805 
L 187.629399 392.54654 
L 192.544665 395.538895 
L 197.496919 398.479869 
L 202.48616 401.369463 
L 207.512389 404.207676 
L 212.575606 406.994509 
L 217.675811 409.729962 
L 222.813004 412.414034 
L 227.987184 415.046725 
" clip-path="url(#p8bef0cf3fe)" style="fill: none; stroke: #75a025; stroke-opacity: 0.4; stroke-width: 4; stroke-linecap: round"/>
   </g>
   <g id="line2d_4">
    <path d="M 551.056924 582.084779 
L 547.395458 575.308265 
L 543.667055 568.582494 
L 539.871716 561.907466 
L 536.00944 555.283181 
L 532.080228 548.709639 
L 528.08408 542.186839 
L 524.020995 535.714783 
L 519.890974 529.293469 
L 515.694016 522.922898 
L 511.430122 516.60307 
L 507.099291 510.333985 
L 502.701524 504.115644 
L 498.236821 497.948044 
L 493.705181 491.831188 
L 489.106605 485.765075 
L 484.441092 479.749705 
L 479.708643 473.785077 
L 474.909258 467.871193 
L 470.042936 462.008051 
L 465.109677 456.195652 
L 460.109482 450.433997 
L 455.042351 444.723084 
L 449.908284 439.062914 
L 444.70728 433.453487 
L 439.439339 427.894803 
L 434.104462 422.386861 
L 428.702649 416.929663 
L 423.233899 411.523208 
L 417.698213 406.167495 
" clip-path="url(#p8bef0cf3fe)" style="fill: none; stroke: #75a025; stroke-opacity: 0.4; stroke-width: 4; stroke-linecap: round"/>
   </g>
   <g id="line2d_5">
    <path d="M 549.406165 583.248412 
L 546.592247 577.049171 
L 543.716204 570.890576 
L 540.778034 564.772629 
L 537.777737 558.69533 
L 534.715315 552.658678 
L 531.590767 546.662674 
L 528.404093 540.707318 
L 525.155292 534.792608 
L 521.844366 528.918547 
L 518.471313 523.085133 
L 515.036135 517.292366 
L 511.53883 511.540247 
L 507.979399 505.828776 
L 504.357842 500.157952 
L 500.674159 494.527776 
L 496.92835 488.938247 
L 493.120415 483.389365 
L 489.250353 477.881132 
L 485.318166 472.413545 
L 481.323853 466.986607 
L 477.267413 461.600316 
L 473.148848 456.254672 
L 468.968156 450.949676 
L 464.725338 445.685327 
L 460.420394 440.461626 
L 456.053324 435.278573 
L 451.624128 430.136167 
L 447.132806 425.034409 
L 442.579358 419.973298 
" clip-path="url(#p8bef0cf3fe)" style="fill: none; stroke: #75a025; stroke-opacity: 0.4; stroke-width: 4; stroke-linecap: round"/>
   </g>
   <g id="line2d_6">
    <path d="M 145.104466 327.259102 
L 297.057183 310.115464 
" clip-path="url(#p8bef0cf3fe)" style="fill: none; stroke-dasharray: 7.2,5.4; stroke-dashoffset: 0; stroke: #ff9400; stroke-width: 1.8"/>
   </g>
   <g id="line2d_7">
    <path d="M 146.085212 335.951951 
L 298.037929 318.808314 
" clip-path="url(#p8bef0cf3fe)" style="fill: none; stroke-dasharray: 7.2,5.4; stroke-dashoffset: 0; stroke: #ff9400; stroke-width: 1.8"/>
   </g>
   <g id="patch_2">
    <path d="M 194.072616 521.166614 
Q 239.422712 482.4642 283.505047 444.843711 
" clip-path="url(#p8bef0cf3fe)" style="fill: none; stroke: #0279ee; stroke-width: 2; stroke-linecap: round"/>
    <path d="M 273.524868 445.473012 
L 283.505047 444.843711 
L 281.314726 454.600888 
" clip-path="url(#p8bef0cf3fe)" style="fill: none; stroke: #0279ee; stroke-width: 2; stroke-linecap: round"/>
   </g>
   <g id="patch_3">
    <path d="M 390.814237 385.007906 
Q 483.323319 373.61902 574.178222 362.433782 
" clip-path="url(#p8bef0cf3fe)" style="fill: none; stroke: #0279ee; stroke-width: 2; stroke-linecap: round"/>
    <path d="M 565.505036 357.456249 
L 574.178222 362.433782 
L 566.971298 369.366332 
" clip-path="url(#p8bef0cf3fe)" style="fill: none; stroke: #0279ee; stroke-width: 2; stroke-linecap: round"/>
   </g>
   <g id="line2d_8">
    <path d="M 322.339713 435.719331 
L 336.378243 411.168337 
" clip-path="url(#p8bef0cf3fe)" style="fill: none; stroke: #222222; stroke-width: 2; stroke-linecap: round"/>
   </g>
   <g id="line2d_9">
    <path d="M 322.135723 386.735118 
L 336.378243 411.168337 
" clip-path="url(#p8bef0cf3fe)" style="fill: none; stroke: #222222; stroke-width: 2; stroke-linecap: round"/>
   </g>
   <g id="line2d_10">
    <path d="M 294.058665 435.837104 
L 322.339713 435.719331 
" clip-path="url(#p8bef0cf3fe)" style="fill: none; stroke: #222222; stroke-width: 2; stroke-linecap: round"/>
   </g>
   <g id="line2d_11">
    <path d="M 293.854675 386.852891 
L 322.135723 386.735118 
" clip-path="url(#p8bef0cf3fe)" style="fill: none; stroke: #222222; stroke-width: 2; stroke-linecap: round"/>
   </g>
   <g id="line2d_12">
    <path d="M 279.816145 411.403885 
L 293.854675 386.852891 
" clip-path="url(#p8bef0cf3fe)" style="fill: none; stroke: #222222; stroke-width: 2; stroke-linecap: round"/>
   </g>
   <g id="line2d_13">
    <path d="M 279.816145 411.403885 
L 294.058665 435.837104 
" clip-path="url(#p8bef0cf3fe)" style="fill: none; stroke: #222222; stroke-width: 2; stroke-linecap: round"/>
   </g>
   <g id="line2d_14">
    <path d="M 364.659291 411.050564 
L 378.697821 386.49957 
" clip-path="url(#p8bef0cf3fe)" style="fill: none; stroke: #222222; stroke-width: 2; stroke-linecap: round"/>
   </g>
   <g id="line2d_15">
    <path d="M 364.659291 411.050564 
L 336.378243 411.168337 
" clip-path="url(#p8bef0cf3fe)" style="fill: none; stroke: #222222; stroke-width: 2; stroke-linecap: round"/>
   </g>
   <g id="line2d_16">
    <path d="M 378.901811 435.483784 
L 364.659291 411.050564 
" clip-path="url(#p8bef0cf3fe)" style="fill: none; stroke: #222222; stroke-width: 2; stroke-linecap: round"/>
   </g>
   <g id="line2d_17">
    <path d="M 406.978869 386.381797 
L 378.697821 386.49957 
" clip-path="url(#p8bef0cf3fe)" style="fill: none; stroke: #222222; stroke-width: 2; stroke-linecap: round"/>
   </g>
   <g id="line2d_18">
    <path d="M 421.221389 410.815017 
L 406.978869 386.381797 
" clip-path="url(#p8bef0cf3fe)" style="fill: none; stroke: #222222; stroke-width: 2; stroke-linecap: round"/>
   </g>
   <g id="line2d_19">
    <path d="M 421.339162 439.096065 
L 421.221389 410.815017 
" clip-path="url(#p8bef0cf3fe)" style="fill: none; stroke: #222222; stroke-width: 2; stroke-linecap: round"/>
   </g>
   <g id="line2d_20">
    <path d="M 445.772382 424.853546 
L 421.221389 410.815017 
" clip-path="url(#p8bef0cf3fe)" style="fill: none; stroke: #222222; stroke-width: 2; stroke-linecap: round"/>
   </g>
   <g id="line2d_21">
    <path d="M 445.772382 424.853546 
L 421.339162 439.096065 
" clip-path="url(#p8bef0cf3fe)" style="fill: none; stroke: #222222; stroke-width: 2; stroke-linecap: round"/>
   </g>
   <g id="line2d_22">
    <path d="M 421.017399 361.830804 
L 406.978869 386.381797 
" clip-path="url(#p8bef0cf3fe)" style="fill: none; stroke: #222222; stroke-width: 2; stroke-linecap: round"/>
   </g>
   <g id="line2d_23">
    <path d="M 449.298447 361.71303 
L 421.017399 361.830804 
" clip-path="url(#p8bef0cf3fe)" style="fill: none; stroke: #222222; stroke-width: 2; stroke-linecap: round"/>
   </g>
   <g id="line2d_24">
    <path d="M 463.540967 386.14625 
L 449.298447 361.71303 
" clip-path="url(#p8bef0cf3fe)" style="fill: none; stroke: #222222; stroke-width: 2; stroke-linecap: round"/>
   </g>
   <g id="line2d_25">
    <path d="M 439.107747 400.388769 
L 463.540967 386.14625 
" clip-path="url(#p8bef0cf3fe)" style="fill: none; stroke: #222222; stroke-width: 2; stroke-linecap: round"/>
   </g>
   <g id="line2d_26">
    <path d="M 487.974186 371.90373 
L 463.540967 386.14625 
" clip-path="url(#p8bef0cf3fe)" style="fill: none; stroke: #222222; stroke-width: 2; stroke-linecap: round"/>
   </g>
   <g id="line2d_27">
    <path d="M 477.783486 410.579469 
L 463.540967 386.14625 
" clip-path="url(#p8bef0cf3fe)" style="fill: none; stroke: #222222; stroke-width: 2; stroke-linecap: round"/>
   </g>
   <g id="line2d_28">
    <path d="M 463.336977 337.162037 
L 449.298447 361.71303 
" clip-path="url(#p8bef0cf3fe)" style="fill: none; stroke: #222222; stroke-width: 2; stroke-linecap: round"/>
   </g>
   <g id="line2d_29">
    <path d="M 491.618025 337.044263 
L 463.336977 337.162037 
" clip-path="url(#p8bef0cf3fe)" style="fill: none; stroke: #222222; stroke-width: 2; stroke-linecap: round"/>
   </g>
   <g id="line2d_30">
    <path d="M 251.535097 411.521658 
L 279.816145 411.403885 
" clip-path="url(#p8bef0cf3fe)" style="fill: none; stroke: #222222; stroke-width: 2; stroke-linecap: round"/>
   </g>
   <g id="line2d_31">
    <path d="M 223.254048 411.639432 
L 251.535097 411.521658 
" clip-path="url(#p8bef0cf3fe)" style="fill: none; stroke: #222222; stroke-width: 2; stroke-linecap: round"/>
   </g>
   <g id="line2d_32">
    <path d="M 251.417323 383.24061 
L 251.535097 411.521658 
" clip-path="url(#p8bef0cf3fe)" style="fill: none; stroke: #222222; stroke-width: 2; stroke-linecap: round"/>
   </g>
   <g id="line2d_33">
    <path d="M 251.65287 439.802707 
L 251.535097 411.521658 
" clip-path="url(#p8bef0cf3fe)" style="fill: none; stroke: #222222; stroke-width: 2; stroke-linecap: round"/>
   </g>
   <g id="line2d_34">
    <path d="M 336.174253 362.184124 
L 322.135723 386.735118 
" clip-path="url(#p8bef0cf3fe)" style="fill: none; stroke: #222222; stroke-width: 2; stroke-linecap: round"/>
   </g>
   <g id="line2d_35">
    <path d="M 321.931734 337.750905 
L 336.174253 362.184124 
" clip-path="url(#p8bef0cf3fe)" style="fill: none; stroke: #222222; stroke-width: 2; stroke-linecap: round"/>
   </g>
   <g id="line2d_36">
    <path d="M 293.650685 337.868678 
L 321.931734 337.750905 
" clip-path="url(#p8bef0cf3fe)" style="fill: none; stroke: #222222; stroke-width: 2; stroke-linecap: round"/>
   </g>
   <g id="line2d_37">
    <path d="M 335.970263 313.199911 
L 321.931734 337.750905 
" clip-path="url(#p8bef0cf3fe)" style="fill: none; stroke: #222222; stroke-width: 2; stroke-linecap: round"/>
   </g>
   <g id="line2d_38">
    <path d="M 279.408166 313.435458 
L 293.650685 337.868678 
" clip-path="url(#p8bef0cf3fe)" style="fill: none; stroke: #222222; stroke-width: 2; stroke-linecap: round"/>
   </g>
   <g id="line2d_39">
    <path d="M 321.727744 288.766691 
L 335.970263 313.199911 
" clip-path="url(#p8bef0cf3fe)" style="fill: none; stroke: #222222; stroke-width: 2; stroke-linecap: round"/>
   </g>
   <g id="line2d_40">
    <path d="M 293.446695 288.884465 
L 321.727744 288.766691 
" clip-path="url(#p8bef0cf3fe)" style="fill: none; stroke: #222222; stroke-width: 2; stroke-linecap: round"/>
   </g>
   <g id="line2d_41">
    <path d="M 293.446695 288.884465 
L 279.408166 313.435458 
" clip-path="url(#p8bef0cf3fe)" style="fill: none; stroke: #222222; stroke-width: 2; stroke-linecap: round"/>
   </g>
   <g id="text_1">
    <g id="patch_4">
     <path d="M 289.48554 441.707964 
L 298.63179 441.707964 
L 298.63179 429.966245 
L 289.48554 429.966245 
z
" style="fill: #ffffff"/>
    </g>
    <text style="font-weight: 700; font-size: 12px; font-family: 'Liberation Sans', 'Arimo', 'DejaVu Sans'; text-anchor: middle; fill: #0879c0" x="294.058665" y="438.942573" transform="rotate(-0 294.058665 438.942573)">N</text>
   </g>
   <g id="text_2">
    <g id="patch_5">
     <path d="M 289.28155 392.723751 
L 298.4278 392.723751 
L 298.4278 380.982032 
L 289.28155 380.982032 
z
" style="fill: #ffffff"/>
    </g>
    <text style="font-weight: 700; font-size: 12px; font-family: 'Liberation Sans', 'Arimo', 'DejaVu Sans'; text-anchor: middle; fill: #0879c0" x="293.854675" y="389.95836" transform="rotate(-0 293.854675 389.95836)">N</text>
   </g>
   <g id="text_3">
    <g id="patch_6">
     <path d="M 374.124696 392.37043 
L 383.270946 392.37043 
L 383.270946 380.628711 
L 374.124696 380.628711 
z
" style="fill: #ffffff"/>
    </g>
    <text style="font-weight: 700; font-size: 12px; font-family: 'Liberation Sans', 'Arimo', 'DejaVu Sans'; text-anchor: middle; fill: #0879c0" x="378.697821" y="389.605039" transform="rotate(-0 378.697821 389.605039)">N</text>
   </g>
   <g id="text_4">
    <g id="patch_7">
     <path d="M 373.994936 441.354643 
L 383.808686 441.354643 
L 383.808686 429.612924 
L 373.994936 429.612924 
z
" style="fill: #ffffff"/>
    </g>
    <text style="font-weight: 700; font-size: 12px; font-family: 'Liberation Sans', 'Arimo', 'DejaVu Sans'; text-anchor: middle; fill: #d40000" x="378.901811" y="438.589252" transform="rotate(-0 378.901811 438.589252)">O</text>
   </g>
   <g id="text_5">
    <g id="patch_8">
     <path d="M 459.298779 392.017109 
L 467.783154 392.017109 
L 467.783154 380.27539 
L 459.298779 380.27539 
z
" style="fill: #ffffff"/>
    </g>
    <text style="font-weight: 700; font-size: 12px; font-family: 'Liberation Sans', 'Arimo', 'DejaVu Sans'; text-anchor: middle; fill: #b8860b" x="463.540967" y="389.251718" transform="rotate(-0 463.540967 389.251718)">S</text>
   </g>
   <g id="text_6">
    <g id="patch_9">
     <path d="M 434.200872 406.259628 
L 444.014622 406.259628 
L 444.014622 394.51791 
L 434.200872 394.51791 
z
" style="fill: #ffffff"/>
    </g>
    <text style="font-weight: 700; font-size: 12px; font-family: 'Liberation Sans', 'Arimo', 'DejaVu Sans'; text-anchor: middle; fill: #d40000" x="439.107747" y="403.494238" transform="rotate(-0 439.107747 403.494238)">O</text>
   </g>
   <g id="text_7">
    <g id="patch_10">
     <path d="M 483.067311 377.77459 
L 492.881061 377.77459 
L 492.881061 366.032871 
L 483.067311 366.032871 
z
" style="fill: #ffffff"/>
    </g>
    <text style="font-weight: 700; font-size: 12px; font-family: 'Liberation Sans', 'Arimo', 'DejaVu Sans'; text-anchor: middle; fill: #d40000" x="487.974186" y="375.009199" transform="rotate(-0 487.974186 375.009199)">O</text>
   </g>
   <g id="text_8">
    <g id="patch_11">
     <path d="M 459.094789 343.032896 
L 467.579164 343.032896 
L 467.579164 331.291177 
L 459.094789 331.291177 
z
" style="fill: #ffffff"/>
    </g>
    <text style="font-weight: 700; font-size: 12px; font-family: 'Liberation Sans', 'Arimo', 'DejaVu Sans'; text-anchor: middle; fill: #b8860b" x="463.336977" y="340.267505" transform="rotate(-0 463.336977 340.267505)">S</text>
   </g>
   <g id="text_9">
    <g id="patch_12">
     <path d="M 247.512636 389.111469 
L 255.322011 389.111469 
L 255.322011 377.36975 
L 247.512636 377.36975 
z
" style="fill: #ffffff"/>
    </g>
    <text style="font-weight: 700; font-size: 12px; font-family: 'Liberation Sans', 'Arimo', 'DejaVu Sans'; text-anchor: middle; fill: #00a040" x="251.417323" y="386.346078" transform="rotate(-0 251.417323 386.346078)">F</text>
   </g>
   <g id="text_10">
    <g id="patch_13">
     <path d="M 247.748183 445.673566 
L 255.557558 445.673566 
L 255.557558 433.931847 
L 247.748183 433.931847 
z
" style="fill: #ffffff"/>
    </g>
    <text style="font-weight: 700; font-size: 12px; font-family: 'Liberation Sans', 'Arimo', 'DejaVu Sans'; text-anchor: middle; fill: #00a040" x="251.65287" y="442.908176" transform="rotate(-0 251.65287 442.908176)">F</text>
   </g>
   <g id="text_11">
    <g id="patch_14">
     <path d="M 331.267378 368.054984 
L 341.081128 368.054984 
L 341.081128 356.313265 
L 331.267378 356.313265 
z
" style="fill: #ffffff"/>
    </g>
    <text style="font-weight: 700; font-size: 12px; font-family: 'Liberation Sans', 'Arimo', 'DejaVu Sans'; text-anchor: middle; fill: #d40000" x="336.174253" y="365.289593" transform="rotate(-0 336.174253 365.289593)">O</text>
   </g>
   <g id="patch_15">
    <path d="M 456.447335 181.156594 
C 463.793992 181.156594 470.840737 178.237736 476.035607 173.042866 
C 481.230478 167.847995 484.149335 160.80125 484.149335 153.454594 
C 484.149335 146.107938 481.230478 139.061192 476.035607 133.866322 
C 470.840737 128.671451 463.793992 125.752594 456.447335 125.752594 
C 449.100679 125.752594 442.053934 128.671451 436.859063 133.866322 
C 431.664193 139.061192 428.745335 146.107938 428.745335 153.454594 
C 428.745335 160.80125 431.664193 167.847995 436.859063 173.042866 
C 442.053934 178.237736 449.100679 181.156594 456.447335 181.156594 
z
" clip-path="url(#p8bef0cf3fe)" style="fill: #8bc34a; stroke: #222222; stroke-width: 1.2; stroke-linejoin: miter"/>
   </g>
   <g id="patch_16">
    <path d="M 243.267917 190.831136 
C 250.614573 190.831136 257.661318 187.912278 262.856189 182.717408 
C 268.051059 177.522538 270.969917 170.475792 270.969917 163.129136 
C 270.969917 155.78248 268.051059 148.735734 262.856189 143.540864 
C 257.661318 138.345993 250.614573 135.427136 243.267917 135.427136 
C 235.921261 135.427136 228.874515 138.345993 223.679645 143.540864 
C 218.484774 148.735734 215.565917 155.78248 215.565917 163.129136 
C 215.565917 170.475792 218.484774 177.522538 223.679645 182.717408 
C 228.874515 187.912278 235.921261 190.831136 243.267917 190.831136 
z
" clip-path="url(#p8bef0cf3fe)" style="fill: #8bc34a; stroke: #222222; stroke-width: 1.2; stroke-linejoin: miter"/>
   </g>
   <g id="patch_17">
    <path d="M 116.618672 362.576681 
C 123.965329 362.576681 131.012074 359.657823 136.206944 354.462953 
C 141.401815 349.268083 144.320672 342.221337 144.320672 334.874681 
C 144.320672 327.528025 141.401815 320.481279 136.206944 315.286409 
C 131.012074 310.091538 123.965329 307.172681 116.618672 307.172681 
C 109.272016 307.172681 102.225271 310.091538 97.0304 315.286409 
C 91.83553 320.481279 88.916672 327.528025 88.916672 334.874681 
C 88.916672 342.221337 91.83553 349.268083 97.0304 354.462953 
C 102.225271 359.657823 109.272016 362.576681 116.618672 362.576681 
z
" clip-path="url(#p8bef0cf3fe)" style="fill: #f5a623; stroke: #222222; stroke-width: 1.2; stroke-linejoin: miter"/>
   </g>
   <g id="patch_18">
    <path d="M 533.441046 586.549171 
C 540.787702 586.549171 547.834448 583.630314 553.029318 578.435443 
C 558.224189 573.240573 561.143046 566.193828 561.143046 558.847171 
C 561.143046 551.500515 558.224189 544.45377 553.029318 539.258899 
C 547.834448 534.064029 540.787702 531.145171 533.441046 531.145171 
C 526.09439 531.145171 519.047644 534.064029 513.852774 539.258899 
C 508.657904 544.45377 505.739046 551.500515 505.739046 558.847171 
C 505.739046 566.193828 508.657904 573.240573 513.852774 578.435443 
C 519.047644 583.630314 526.09439 586.549171 533.441046 586.549171 
z
" clip-path="url(#p8bef0cf3fe)" style="fill: #8bc34a; stroke: #222222; stroke-width: 1.2; stroke-linejoin: miter"/>
   </g>
   <g id="patch_19">
    <path d="M 170.372807 569.094366 
C 177.719463 569.094366 184.766209 566.175508 189.961079 560.980638 
C 195.15595 555.785768 198.074807 548.739022 198.074807 541.392366 
C 198.074807 534.04571 195.15595 526.998964 189.961079 521.804094 
C 184.766209 516.609223 177.719463 513.690366 170.372807 513.690366 
C 163.026151 513.690366 155.979406 516.609223 150.784535 521.804094 
C 145.589665 526.998964 142.670807 534.04571 142.670807 541.392366 
C 142.670807 548.739022 145.589665 555.785768 150.784535 560.980638 
C 155.979406 566.175508 163.026151 569.094366 170.372807 569.094366 
z
" clip-path="url(#p8bef0cf3fe)" style="fill: #5087c5; stroke: #222222; stroke-width: 1.2; stroke-linejoin: miter"/>
   </g>
   <g id="patch_20">
    <path d="M 606.757024 386.124973 
C 614.10368 386.124973 621.150426 383.206116 626.345296 378.011245 
C 631.540167 372.816375 634.459024 365.769629 634.459024 358.422973 
C 634.459024 351.076317 631.540167 344.029571 626.345296 338.834701 
C 621.150426 333.63983 614.10368 330.720973 606.757024 330.720973 
C 599.410368 330.720973 592.363622 333.63983 587.168752 338.834701 
C 581.973881 344.029571 579.055024 351.076317 579.055024 358.422973 
C 579.055024 365.769629 581.973881 372.816375 587.168752 378.011245 
C 592.363622 383.206116 599.410368 386.124973 606.757024 386.124973 
z
" clip-path="url(#p8bef0cf3fe)" style="fill: #5087c5; stroke: #222222; stroke-width: 1.2; stroke-linejoin: miter"/>
   </g>
   <g id="text_12">
    <text style="font-weight: 700; font-size: 9.5px; font-family: 'Liberation Sans', 'Arimo', 'DejaVu Sans'; text-anchor: middle; fill: #222222" x="456.447335" y="155.91309" transform="rotate(-0 456.447335 155.91309)">V570</text>
   </g>
   <g id="text_13">
    <text style="font-weight: 700; font-size: 9.5px; font-family: 'Liberation Sans', 'Arimo', 'DejaVu Sans'; text-anchor: middle; fill: #222222" x="243.267917" y="165.587632" transform="rotate(-0 243.267917 165.587632)">A706</text>
   </g>
   <g id="text_14">
    <text style="font-weight: 700; font-size: 9.5px; font-family: 'Liberation Sans', 'Arimo', 'DejaVu Sans'; text-anchor: middle; fill: #222222" x="116.618672" y="337.333177" transform="rotate(-0 116.618672 337.333177)">Y849</text>
   </g>
   <g id="text_15">
    <text style="font-weight: 700; font-size: 9.5px; font-family: 'Liberation Sans', 'Arimo', 'DejaVu Sans'; text-anchor: middle; fill: #222222" x="533.441046" y="561.305667" transform="rotate(-0 533.441046 561.305667)">F917</text>
   </g>
   <g id="text_16">
    <text style="font-weight: 700; font-size: 9.5px; font-family: 'Liberation Sans', 'Arimo', 'DejaVu Sans'; text-anchor: middle; fill: #ffffff" x="170.372807" y="543.850862" transform="rotate(-0 170.372807 543.850862)">K898</text>
   </g>
   <g id="text_17">
    <text style="font-weight: 700; font-size: 9.5px; font-family: 'Liberation Sans', 'Arimo', 'DejaVu Sans'; text-anchor: middle; fill: #ffffff" x="606.757024" y="360.881469" transform="rotate(-0 606.757024 360.881469)">H916</text>
   </g>
  </g>
  <g id="patch_21">
   <path d="M 130.640391 714.42 
Q 135.83969 714.42 138.914724 714.42 
" style="fill: none; stroke: #0279ee; stroke-width: 1.9; stroke-linecap: round"/>
   <path d="M 134.114724 712.02 
L 138.914724 714.42 
L 134.114724 716.82 
" style="fill: none; stroke: #0279ee; stroke-width: 1.9; stroke-linecap: round"/>
  </g>
  <g id="patch_22">
   <path d="M 92.16 743.148 
C 93.68757 743.148 95.15278 742.510745 96.232935 741.376582 
C 97.31309 740.242419 97.92 738.703948 97.92 737.1 
C 97.92 735.496052 97.31309 733.957581 96.232935 732.823418 
C 95.15278 731.689255 93.68757 731.052 92.16 731.052 
C 90.63243 731.052 89.16722 731.689255 88.087065 732.823418 
C 87.00691 733.957581 86.4 735.496052 86.4 737.1 
C 86.4 738.703948 87.00691 740.242419 88.087065 741.376582 
C 89.16722 742.510745 90.63243 743.148 92.16 743.148 
z
" style="fill: #5087c5; stroke: #222222; stroke-width: 0.8; stroke-linejoin: miter"/>
  </g>
  <g id="patch_23">
   <path d="M 218.88 743.148 
C 220.40757 743.148 221.87278 742.510745 222.952935 741.376582 
C 224.03309 740.242419 224.64 738.703948 224.64 737.1 
C 224.64 735.496052 224.03309 733.957581 222.952935 732.823418 
C 221.87278 731.689255 220.40757 731.052 218.88 731.052 
C 217.35243 731.052 215.88722 731.689255 214.807065 732.823418 
C 213.72691 733.957581 213.12 735.496052 213.12 737.1 
C 213.12 738.703948 213.72691 740.242419 214.807065 741.376582 
C 215.88722 742.510745 217.35243 743.148 218.88 743.148 
z
" style="fill: #d9584c; stroke: #222222; stroke-width: 0.8; stroke-linejoin: miter"/>
  </g>
  <g id="patch_24">
   <path d="M 345.6 743.148 
C 347.12757 743.148 348.59278 742.510745 349.672935 741.376582 
C 350.75309 740.242419 351.36 738.703948 351.36 737.1 
C 351.36 735.496052 350.75309 733.957581 349.672935 732.823418 
C 348.59278 731.689255 347.12757 731.052 345.6 731.052 
C 344.07243 731.052 342.60722 731.689255 341.527065 732.823418 
C 340.44691 733.957581 339.84 735.496052 339.84 737.1 
C 339.84 738.703948 340.44691 740.242419 341.527065 741.376582 
C 342.60722 742.510745 344.07243 743.148 345.6 743.148 
z
" style="fill: #f5a623; stroke: #222222; stroke-width: 0.8; stroke-linejoin: miter"/>
  </g>
  <g id="patch_25">
   <path d="M 472.32 743.148 
C 473.84757 743.148 475.31278 742.510745 476.392935 741.376582 
C 477.47309 740.242419 478.08 738.703948 478.08 737.1 
C 478.08 735.496052 477.47309 733.957581 476.392935 732.823418 
C 475.31278 731.689255 473.84757 731.052 472.32 731.052 
C 470.79243 731.052 469.32722 731.689255 468.247065 732.823418 
C 467.16691 733.957581 466.56 735.496052 466.56 737.1 
C 466.56 738.703948 467.16691 740.242419 468.247065 741.376582 
C 469.32722 742.510745 470.79243 743.148 472.32 743.148 
z
" style="fill: #8bc34a; stroke: #222222; stroke-width: 0.8; stroke-linejoin: miter"/>
  </g>
  <g id="patch_26">
   <path d="M 599.04 743.148 
C 600.56757 743.148 602.03278 742.510745 603.112935 741.376582 
C 604.19309 740.242419 604.8 738.703948 604.8 737.1 
C 604.8 735.496052 604.19309 733.957581 603.112935 732.823418 
C 602.03278 731.689255 600.56757 731.052 599.04 731.052 
C 597.51243 731.052 596.04722 731.689255 594.967065 732.823418 
C 593.88691 733.957581 593.28 735.496052 593.28 737.1 
C 593.28 738.703948 593.88691 740.242419 594.967065 741.376582 
C 596.04722 742.510745 597.51243 743.148 599.04 743.148 
z
" style="fill: #ffffff; stroke: #dc3912; stroke-width: 2.5; stroke-linejoin: miter"/>
  </g>
  <g id="line2d_42">
   <path d="M 339.84 714.42 
L 354.24 714.42 
" style="fill: none; stroke: #75a025; stroke-opacity: 0.4; stroke-width: 4; stroke-linecap: square"/>
  </g>
  <g id="line2d_43">
   <path d="M 551.04 710.64 
L 565.44 710.64 
" style="fill: none; stroke-dasharray: 7.2,5.4; stroke-dashoffset: 0; stroke: #ff9400; stroke-width: 1.8"/>
  </g>
  <g id="line2d_44">
   <path d="M 551.04 718.2 
L 565.44 718.2 
" style="fill: none; stroke-dasharray: 7.2,5.4; stroke-dashoffset: 0; stroke: #ff9400; stroke-width: 1.8"/>
  </g>
  <g id="text_18">
   <text style="font-weight: 700; font-size: 14px; font-family: 'Liberation Sans', 'Arimo', 'DejaVu Sans'; text-anchor: middle" x="360" y="21.532383" transform="rotate(-0 360 21.532383)">G729D × 7GQU · VVD-214_cov — NEUTRAL</text>
  </g>
  <g id="text_19">
   <text style="font-size: 10.5px; font-family: 'Liberation Sans', 'Arimo', 'DejaVu Sans'; text-anchor: middle" x="360" y="41.66925" transform="rotate(-0 360 41.66925)">ΔS = -0.14  |  RMSD vs WT = 3.27 Å  |  0 lost / 5 retained / 1 gained</text>
  </g>
  <g id="text_20">
   <text style="font-size: 10.5px; font-family: 'Liberation Sans', 'Arimo', 'DejaVu Sans'; text-anchor: middle" x="360" y="61.320287" transform="rotate(-0 360 61.320287)">PLIP: 5 hydrophobic · 2 H-bond · 1 π-stack</text>
  </g>
  <g id="text_21">
   <text style="font-size: 8.5px; font-family: 'Liberation Sans', 'Arimo', 'DejaVu Sans'; text-anchor: start" x="146.64" y="716.619707" transform="rotate(-0 146.64 716.619707)">H-bond</text>
  </g>
  <g id="text_22">
   <text style="font-size: 8.5px; font-family: 'Liberation Sans', 'Arimo', 'DejaVu Sans'; text-anchor: start" x="357.84" y="716.619707" transform="rotate(-0 357.84 716.619707)">Hydrophobic</text>
  </g>
  <g id="text_23">
   <text style="font-size: 8.5px; font-family: 'Liberation Sans', 'Arimo', 'DejaVu Sans'; text-anchor: start" x="569.04" y="716.619707" transform="rotate(-0 569.04 716.619707)">π-stack</text>
  </g>
  <g id="text_24">
   <text style="font-size: 8px; font-family: 'Liberation Sans', 'Arimo', 'DejaVu Sans'; text-anchor: start" x="100.8" y="739.170313" transform="rotate(-0 100.8 739.170313)">Basic</text>
  </g>
  <g id="text_25">
   <text style="font-size: 8px; font-family: 'Liberation Sans', 'Arimo', 'DejaVu Sans'; text-anchor: start" x="227.52" y="739.170313" transform="rotate(-0 227.52 739.170313)">Acidic</text>
  </g>
  <g id="text_26">
   <text style="font-size: 8px; font-family: 'Liberation Sans', 'Arimo', 'DejaVu Sans'; text-anchor: start" x="354.24" y="739.170313" transform="rotate(-0 354.24 739.170313)">Polar</text>
  </g>
  <g id="text_27">
   <text style="font-size: 8px; font-family: 'Liberation Sans', 'Arimo', 'DejaVu Sans'; text-anchor: start" x="480.96" y="739.170313" transform="rotate(-0 480.96 739.170313)">Hydrophobic</text>
  </g>
  <g id="text_28">
   <text style="font-size: 8px; font-family: 'Liberation Sans', 'Arimo', 'DejaVu Sans'; text-anchor: start" x="607.68" y="739.170313" transform="rotate(-0 607.68 739.170313)">Mutation site</text>
  </g>
 </g>
 <defs>
  <clipPath id="p8bef0cf3fe">
   <rect x="53.82" y="75.6" width="612.36" height="612.36"/>
  </clipPath>
 </defs>
</svg>
