<?xml version="1.0" encoding="utf-8" standalone="no"?>
<!DOCTYPE svg PUBLIC "-//W3C//DTD SVG 1.1//EN"
  "http://www.w3.org/Graphics/SVG/1.1/DTD/svg11.dtd">
<svg xmlns:xlink="http://www.w3.org/1999/xlink" width="720pt" height="756pt" viewBox="0 0 720 756" xmlns="http://www.w3.org/2000/svg" version="1.1">
 <metadata>
  <rdf:RDF xmlns:dc="http://purl.org/dc/elements/1.1/" xmlns:cc="http://creativecommons.org/ns#" xmlns:rdf="http://www.w3.org/1999/02/22-rdf-syntax-ns#">
   <cc:Work>
    <dc:type rdf:resource="http://purl.org/dc/dcmitype/StillImage"/>
    <dc:date>2022-01-01T05:00:00+00:00</dc:date>
    <dc:format>image/svg+xml</dc:format>
    <dc:creator>
     <cc:Agent>
      <dc:title>Matplotlib v3.11.0, https://matplotlib.org/</dc:title>
     </cc:Agent>
    </dc:creator>
   </cc:Work>
  </rdf:RDF>
 </metadata>
 <defs>
  <style type="text/css">*{stroke-linejoin: round; stroke-linecap: butt}</style>
 </defs>
 <g id="figure_1">
  <g id="patch_1">
   <path d="M 0 756 
L 720 756 
L 720 0 
L 0 0 
z
" style="fill: #ffffff"/>
  </g>
  <g id="axes_1">
   <g id="line2d_1">
    <path d="M 546.268245 179.027846 
L 538.484624 181.870642 
L 530.744599 184.792593 
L 523.048171 187.793696 
L 515.395339 190.873953 
L 507.786105 194.033363 
L 500.220466 197.271926 
L 492.698425 200.589643 
L 485.219979 203.986513 
L 477.785131 207.462536 
L 470.393879 211.017713 
L 463.046224 214.652043 
L 455.742165 218.365526 
L 448.481703 222.158163 
L 441.264838 226.029953 
L 434.091569 229.980896 
L 426.961897 234.010992 
L 419.875821 238.120242 
L 412.833342 242.308645 
L 405.83446 246.576202 
L 398.879174 250.922912 
L 391.967485 255.348775 
L 385.099393 259.853791 
L 378.274897 264.437961 
L 371.493997 269.101284 
L 364.756695 273.84376 
L 358.062989 278.66539 
L 351.412879 283.566173 
L 344.806367 288.546109 
L 338.24345 293.605198 
" clip-path="url(#p16c53ef739)" style="fill: none; stroke: #75a025; stroke-opacity: 0.4; stroke-width: 4; stroke-linecap: round"/>
   </g>
   <g id="line2d_2">
    <path d="M 108.637851 495.459315 
L 112.360852 491.269419 
L 116.12281 487.126623 
L 119.923725 483.030927 
L 123.763597 478.98233 
L 127.642427 474.980833 
L 131.560214 471.026435 
L 135.516959 467.119137 
L 139.51266 463.258939 
L 143.547319 459.44584 
L 147.620935 455.679841 
L 151.733508 451.960942 
L 155.885039 448.289142 
L 160.075527 444.664441 
L 164.304972 441.086841 
L 168.573374 437.55634 
L 172.880733 434.072938 
L 177.22705 430.636637 
L 181.612324 427.247434 
L 186.036556 423.905332 
L 190.499744 420.610329 
L 195.00189 417.362425 
L 199.542993 414.161622 
L 204.123054 411.007917 
L 208.742071 407.901313 
L 213.400046 404.841808 
L 218.096978 401.829403 
L 222.832867 398.864097 
L 227.607714 395.945891 
L 232.421518 393.074784 
" clip-path="url(#p16c53ef739)" style="fill: none; stroke: #75a025; stroke-opacity: 0.4; stroke-width: 4; stroke-linecap: round"/>
   </g>
   <g id="line2d_3">
    <path d="M 115.228136 252.298869 
L 122.523278 254.167493 
L 129.786136 256.111628 
L 137.016709 258.131273 
L 144.214998 260.226429 
L 151.381003 262.397096 
L 158.514723 264.643273 
L 165.616159 266.964962 
L 172.68531 269.36216 
L 179.722177 271.83487 
L 186.72676 274.383091 
L 193.699058 277.006822 
L 200.639072 279.706064 
L 207.546801 282.480816 
L 214.422246 285.33108 
L 221.265407 288.256854 
L 228.076283 291.258139 
L 234.854875 294.334934 
L 241.601182 297.487241 
L 248.315205 300.715058 
L 254.996943 304.018385 
L 261.646397 307.397224 
L 268.263567 310.851573 
L 274.848453 314.381433 
L 281.401053 317.986804 
L 287.92137 321.667686 
L 294.409402 325.424078 
L 300.86515 329.255981 
L 307.288613 333.163394 
L 313.679792 337.146319 
" clip-path="url(#p16c53ef739)" style="fill: none; stroke: #75a025; stroke-opacity: 0.4; stroke-width: 4; stroke-linecap: round"/>
   </g>
   <g id="patch_2">
    <path d="M 290.517334 588.346754 
Q 292.088502 515.920568 293.623522 445.160658 
" clip-path="url(#p16c53ef739)" style="fill: none; stroke: #0279ee; stroke-width: 2; stroke-linecap: round"/>
    <path d="M 287.451427 453.028646 
L 293.623522 445.160658 
L 299.448605 453.288905 
" clip-path="url(#p16c53ef739)" style="fill: none; stroke: #0279ee; stroke-width: 2; stroke-linecap: round"/>
   </g>
   <g id="line2d_4">
    <path d="M 320.775814 166.943498 
L 329.540266 302.35539 
" clip-path="url(#p16c53ef739)" style="fill: none; stroke-dasharray: 7.2,5.4; stroke-dashoffset: 0; stroke: #ff9400; stroke-width: 1.8"/>
   </g>
   <g id="line2d_5">
    <path d="M 312.046081 167.508524 
L 320.810533 302.920416 
" clip-path="url(#p16c53ef739)" style="fill: none; stroke-dasharray: 7.2,5.4; stroke-dashoffset: 0; stroke: #ff9400; stroke-width: 1.8"/>
   </g>
   <g id="line2d_6">
    <path d="M 293.924478 431.287473 
L 283.603669 405.101578 
" clip-path="url(#p16c53ef739)" style="fill: none; stroke: #222222; stroke-width: 2; stroke-linecap: round"/>
   </g>
   <g id="line2d_7">
    <path d="M 321.762533 435.442337 
L 293.924478 431.287473 
" clip-path="url(#p16c53ef739)" style="fill: none; stroke: #222222; stroke-width: 2; stroke-linecap: round"/>
   </g>
   <g id="line2d_8">
    <path d="M 339.279778 413.411307 
L 321.762533 435.442337 
" clip-path="url(#p16c53ef739)" style="fill: none; stroke: #222222; stroke-width: 2; stroke-linecap: round"/>
   </g>
   <g id="line2d_9">
    <path d="M 328.958969 387.225412 
L 339.279778 413.411307 
" clip-path="url(#p16c53ef739)" style="fill: none; stroke: #222222; stroke-width: 2; stroke-linecap: round"/>
   </g>
   <g id="line2d_10">
    <path d="M 301.120915 383.070548 
L 328.958969 387.225412 
" clip-path="url(#p16c53ef739)" style="fill: none; stroke: #222222; stroke-width: 2; stroke-linecap: round"/>
   </g>
   <g id="line2d_11">
    <path d="M 301.120915 383.070548 
L 283.603669 405.101578 
" clip-path="url(#p16c53ef739)" style="fill: none; stroke: #222222; stroke-width: 2; stroke-linecap: round"/>
   </g>
   <g id="line2d_12">
    <path d="M 255.765614 400.946713 
L 227.92756 396.791848 
" clip-path="url(#p16c53ef739)" style="fill: none; stroke: #222222; stroke-width: 2; stroke-linecap: round"/>
   </g>
   <g id="line2d_13">
    <path d="M 255.765614 400.946713 
L 283.603669 405.101578 
" clip-path="url(#p16c53ef739)" style="fill: none; stroke: #222222; stroke-width: 2; stroke-linecap: round"/>
   </g>
   <g id="line2d_14">
    <path d="M 259.920479 373.108658 
L 255.765614 400.946713 
" clip-path="url(#p16c53ef739)" style="fill: none; stroke: #222222; stroke-width: 2; stroke-linecap: round"/>
   </g>
   <g id="line2d_15">
    <path d="M 251.61075 428.784768 
L 255.765614 400.946713 
" clip-path="url(#p16c53ef739)" style="fill: none; stroke: #222222; stroke-width: 2; stroke-linecap: round"/>
   </g>
   <g id="line2d_16">
    <path d="M 367.117833 417.566172 
L 339.279778 413.411307 
" clip-path="url(#p16c53ef739)" style="fill: none; stroke: #222222; stroke-width: 2; stroke-linecap: round"/>
   </g>
   <g id="line2d_17">
    <path d="M 377.438642 443.752067 
L 367.117833 417.566172 
" clip-path="url(#p16c53ef739)" style="fill: none; stroke: #222222; stroke-width: 2; stroke-linecap: round"/>
   </g>
   <g id="line2d_18">
    <path d="M 384.635079 395.535142 
L 367.117833 417.566172 
" clip-path="url(#p16c53ef739)" style="fill: none; stroke: #222222; stroke-width: 2; stroke-linecap: round"/>
   </g>
   <g id="line2d_19">
    <path d="M 412.473133 399.690006 
L 384.635079 395.535142 
" clip-path="url(#p16c53ef739)" style="fill: none; stroke: #222222; stroke-width: 2; stroke-linecap: round"/>
   </g>
   <g id="line2d_20">
    <path d="M 422.793942 425.875901 
L 412.473133 399.690006 
" clip-path="url(#p16c53ef739)" style="fill: none; stroke: #222222; stroke-width: 2; stroke-linecap: round"/>
   </g>
   <g id="line2d_21">
    <path d="M 418.639078 453.713956 
L 422.793942 425.875901 
" clip-path="url(#p16c53ef739)" style="fill: none; stroke: #222222; stroke-width: 2; stroke-linecap: round"/>
   </g>
   <g id="line2d_22">
    <path d="M 444.824973 443.393147 
L 418.639078 453.713956 
" clip-path="url(#p16c53ef739)" style="fill: none; stroke: #222222; stroke-width: 2; stroke-linecap: round"/>
   </g>
   <g id="line2d_23">
    <path d="M 444.824973 443.393147 
L 422.793942 425.875901 
" clip-path="url(#p16c53ef739)" style="fill: none; stroke: #222222; stroke-width: 2; stroke-linecap: round"/>
   </g>
   <g id="line2d_24">
    <path d="M 429.990379 377.658976 
L 412.473133 399.690006 
" clip-path="url(#p16c53ef739)" style="fill: none; stroke: #222222; stroke-width: 2; stroke-linecap: round"/>
   </g>
   <g id="line2d_25">
    <path d="M 457.828434 381.813841 
L 429.990379 377.658976 
" clip-path="url(#p16c53ef739)" style="fill: none; stroke: #222222; stroke-width: 2; stroke-linecap: round"/>
   </g>
   <g id="line2d_26">
    <path d="M 475.34568 359.782811 
L 457.828434 381.813841 
" clip-path="url(#p16c53ef739)" style="fill: none; stroke: #222222; stroke-width: 2; stroke-linecap: round"/>
   </g>
   <g id="line2d_27">
    <path d="M 492.862925 337.751781 
L 475.34568 359.782811 
" clip-path="url(#p16c53ef739)" style="fill: none; stroke: #222222; stroke-width: 2; stroke-linecap: round"/>
   </g>
   <g id="line2d_28">
    <path d="M 453.314649 342.265565 
L 475.34568 359.782811 
" clip-path="url(#p16c53ef739)" style="fill: none; stroke: #222222; stroke-width: 2; stroke-linecap: round"/>
   </g>
   <g id="line2d_29">
    <path d="M 497.37671 377.300057 
L 475.34568 359.782811 
" clip-path="url(#p16c53ef739)" style="fill: none; stroke: #222222; stroke-width: 2; stroke-linecap: round"/>
   </g>
   <g id="line2d_30">
    <path d="M 346.476215 365.194382 
L 328.958969 387.225412 
" clip-path="url(#p16c53ef739)" style="fill: none; stroke: #222222; stroke-width: 2; stroke-linecap: round"/>
   </g>
   <g id="line2d_31">
    <path d="M 336.155406 339.008487 
L 346.476215 365.194382 
" clip-path="url(#p16c53ef739)" style="fill: none; stroke: #222222; stroke-width: 2; stroke-linecap: round"/>
   </g>
   <g id="line2d_32">
    <path d="M 308.317352 334.853622 
L 336.155406 339.008487 
" clip-path="url(#p16c53ef739)" style="fill: none; stroke: #222222; stroke-width: 2; stroke-linecap: round"/>
   </g>
   <g id="line2d_33">
    <path d="M 297.996543 308.667728 
L 308.317352 334.853622 
" clip-path="url(#p16c53ef739)" style="fill: none; stroke: #222222; stroke-width: 2; stroke-linecap: round"/>
   </g>
   <g id="line2d_34">
    <path d="M 315.513788 286.636697 
L 297.996543 308.667728 
" clip-path="url(#p16c53ef739)" style="fill: none; stroke: #222222; stroke-width: 2; stroke-linecap: round"/>
   </g>
   <g id="line2d_35">
    <path d="M 343.351843 290.791562 
L 315.513788 286.636697 
" clip-path="url(#p16c53ef739)" style="fill: none; stroke: #222222; stroke-width: 2; stroke-linecap: round"/>
   </g>
   <g id="line2d_36">
    <path d="M 353.672652 316.977457 
L 343.351843 290.791562 
" clip-path="url(#p16c53ef739)" style="fill: none; stroke: #222222; stroke-width: 2; stroke-linecap: round"/>
   </g>
   <g id="line2d_37">
    <path d="M 353.672652 316.977457 
L 336.155406 339.008487 
" clip-path="url(#p16c53ef739)" style="fill: none; stroke: #222222; stroke-width: 2; stroke-linecap: round"/>
   </g>
   <g id="text_1">
    <g id="patch_3">
     <path d="M 289.351353 437.158332 
L 298.497603 437.158332 
L 298.497603 425.416613 
L 289.351353 425.416613 
z
" style="fill: #ffffff"/>
    </g>
    <text style="font-weight: 700; font-size: 12px; font-family: 'Liberation Sans', 'Arimo', 'DejaVu Sans'; text-anchor: middle; fill: #0879c0" x="293.924478" y="434.392941" transform="rotate(-0 293.924478 434.392941)">N</text>
   </g>
   <g id="text_2">
    <g id="patch_4">
     <path d="M 296.54779 388.941407 
L 305.69404 388.941407 
L 305.69404 377.199688 
L 296.54779 377.199688 
z
" style="fill: #ffffff"/>
    </g>
    <text style="font-weight: 700; font-size: 12px; font-family: 'Liberation Sans', 'Arimo', 'DejaVu Sans'; text-anchor: middle; fill: #0879c0" x="301.120915" y="386.176016" transform="rotate(-0 301.120915 386.176016)">N</text>
   </g>
   <g id="text_3">
    <g id="patch_5">
     <path d="M 256.015792 378.979518 
L 263.825167 378.979518 
L 263.825167 367.237799 
L 256.015792 367.237799 
z
" style="fill: #ffffff"/>
    </g>
    <text style="font-weight: 700; font-size: 12px; font-family: 'Liberation Sans', 'Arimo', 'DejaVu Sans'; text-anchor: middle; fill: #00a040" x="259.920479" y="376.214127" transform="rotate(-0 259.920479 376.214127)">F</text>
   </g>
   <g id="text_4">
    <g id="patch_6">
     <path d="M 247.706062 434.655627 
L 255.515437 434.655627 
L 255.515437 422.913908 
L 247.706062 422.913908 
z
" style="fill: #ffffff"/>
    </g>
    <text style="font-weight: 700; font-size: 12px; font-family: 'Liberation Sans', 'Arimo', 'DejaVu Sans'; text-anchor: middle; fill: #00a040" x="251.61075" y="431.890236" transform="rotate(-0 251.61075 431.890236)">F</text>
   </g>
   <g id="text_5">
    <g id="patch_7">
     <path d="M 372.531767 449.622926 
L 382.345517 449.622926 
L 382.345517 437.881207 
L 372.531767 437.881207 
z
" style="fill: #ffffff"/>
    </g>
    <text style="font-weight: 700; font-size: 12px; font-family: 'Liberation Sans', 'Arimo', 'DejaVu Sans'; text-anchor: middle; fill: #d40000" x="377.438642" y="446.857536" transform="rotate(-0 377.438642 446.857536)">O</text>
   </g>
   <g id="text_6">
    <g id="patch_8">
     <path d="M 380.061954 401.406001 
L 389.208204 401.406001 
L 389.208204 389.664282 
L 380.061954 389.664282 
z
" style="fill: #ffffff"/>
    </g>
    <text style="font-weight: 700; font-size: 12px; font-family: 'Liberation Sans', 'Arimo', 'DejaVu Sans'; text-anchor: middle; fill: #0879c0" x="384.635079" y="398.64061" transform="rotate(-0 384.635079 398.64061)">N</text>
   </g>
   <g id="text_7">
    <g id="patch_9">
     <path d="M 471.103492 365.65367 
L 479.587867 365.65367 
L 479.587867 353.911951 
L 471.103492 353.911951 
z
" style="fill: #ffffff"/>
    </g>
    <text style="font-weight: 700; font-size: 12px; font-family: 'Liberation Sans', 'Arimo', 'DejaVu Sans'; text-anchor: middle; fill: #b8860b" x="475.34568" y="362.88828" transform="rotate(-0 475.34568 362.88828)">S</text>
   </g>
   <g id="text_8">
    <g id="patch_10">
     <path d="M 448.407774 348.136424 
L 458.221524 348.136424 
L 458.221524 336.394706 
L 448.407774 336.394706 
z
" style="fill: #ffffff"/>
    </g>
    <text style="font-weight: 700; font-size: 12px; font-family: 'Liberation Sans', 'Arimo', 'DejaVu Sans'; text-anchor: middle; fill: #d40000" x="453.314649" y="345.371034" transform="rotate(-0 453.314649 345.371034)">O</text>
   </g>
   <g id="text_9">
    <g id="patch_11">
     <path d="M 492.469835 383.170916 
L 502.283585 383.170916 
L 502.283585 371.429197 
L 492.469835 371.429197 
z
" style="fill: #ffffff"/>
    </g>
    <text style="font-weight: 700; font-size: 12px; font-family: 'Liberation Sans', 'Arimo', 'DejaVu Sans'; text-anchor: middle; fill: #d40000" x="497.37671" y="380.405525" transform="rotate(-0 497.37671 380.405525)">O</text>
   </g>
   <g id="text_10">
    <g id="patch_12">
     <path d="M 341.56934 371.065241 
L 351.38309 371.065241 
L 351.38309 359.323523 
L 341.56934 359.323523 
z
" style="fill: #ffffff"/>
    </g>
    <text style="font-weight: 700; font-size: 12px; font-family: 'Liberation Sans', 'Arimo', 'DejaVu Sans'; text-anchor: middle; fill: #d40000" x="346.476215" y="368.299851" transform="rotate(-0 346.476215 368.299851)">O</text>
   </g>
   <g id="patch_13">
    <path d="M 520.726282 220.798027 
C 528.072939 220.798027 535.119684 217.879169 540.314554 212.684299 
C 545.509425 207.489428 548.428282 200.442683 548.428282 193.096027 
C 548.428282 185.74937 545.509425 178.702625 540.314554 173.507755 
C 535.119684 168.312884 528.072939 165.394027 520.726282 165.394027 
C 513.379626 165.394027 506.332881 168.312884 501.13801 173.507755 
C 495.94314 178.702625 493.024282 185.74937 493.024282 193.096027 
C 493.024282 200.442683 495.94314 207.489428 501.13801 212.684299 
C 506.332881 217.879169 513.379626 220.798027 520.726282 220.798027 
z
" clip-path="url(#p16c53ef739)" style="fill: #8bc34a; stroke: #222222; stroke-width: 1.2; stroke-linejoin: miter"/>
   </g>
   <g id="patch_14">
    <path d="M 131.107642 504.575995 
C 138.454298 504.575995 145.501043 501.657138 150.695914 496.462267 
C 155.890784 491.267397 158.809642 484.220652 158.809642 476.873995 
C 158.809642 469.527339 155.890784 462.480594 150.695914 457.285723 
C 145.501043 452.090853 138.454298 449.171995 131.107642 449.171995 
C 123.760985 449.171995 116.71424 452.090853 111.51937 457.285723 
C 106.324499 462.480594 103.405642 469.527339 103.405642 476.873995 
C 103.405642 484.220652 106.324499 491.267397 111.51937 496.462267 
C 116.71424 501.657138 123.760985 504.575995 131.107642 504.575995 
z
" clip-path="url(#p16c53ef739)" style="fill: #5087c5; stroke: #222222; stroke-width: 1.2; stroke-linejoin: miter"/>
   </g>
   <g id="patch_15">
    <path d="M 142.040338 291.464351 
C 149.386994 291.464351 156.43374 288.545494 161.62861 283.350623 
C 166.823481 278.155753 169.742338 271.109008 169.742338 263.762351 
C 169.742338 256.415695 166.823481 249.36895 161.62861 244.174079 
C 156.43374 238.979209 149.386994 236.060351 142.040338 236.060351 
C 134.693682 236.060351 127.646937 238.979209 122.452066 244.174079 
C 117.257196 249.36895 114.338338 256.415695 114.338338 263.762351 
C 114.338338 271.109008 117.257196 278.155753 122.452066 283.350623 
C 127.646937 288.545494 134.693682 291.464351 142.040338 291.464351 
z
" clip-path="url(#p16c53ef739)" style="fill: #8bc34a; stroke: #222222; stroke-width: 1.2; stroke-linejoin: miter"/>
   </g>
   <g id="patch_16">
    <path d="M 289.841445 647.205278 
C 297.188101 647.205278 304.234846 644.28642 309.429717 639.09155 
C 314.624587 633.896679 317.543445 626.849934 317.543445 619.503278 
C 317.543445 612.156621 314.624587 605.109876 309.429717 599.915006 
C 304.234846 594.720135 297.188101 591.801278 289.841445 591.801278 
C 282.494789 591.801278 275.448043 594.720135 270.253173 599.915006 
C 265.058302 605.109876 262.139445 612.156621 262.139445 619.503278 
C 262.139445 626.849934 265.058302 633.896679 270.253173 639.09155 
C 275.448043 644.28642 282.494789 647.205278 289.841445 647.205278 
z
" clip-path="url(#p16c53ef739)" style="fill: #5087c5; stroke: #222222; stroke-width: 1.2; stroke-linejoin: miter"/>
   </g>
   <g id="patch_17">
    <path d="M 314.527525 165.828899 
C 321.874182 165.828899 328.920927 162.910041 334.115797 157.715171 
C 339.310668 152.520301 342.229525 145.473555 342.229525 138.126899 
C 342.229525 130.780243 339.310668 123.733497 334.115797 118.538627 
C 328.920927 113.343756 321.874182 110.424899 314.527525 110.424899 
C 307.180869 110.424899 300.134124 113.343756 294.939253 118.538627 
C 289.744383 123.733497 286.825525 130.780243 286.825525 138.126899 
C 286.825525 145.473555 289.744383 152.520301 294.939253 157.715171 
C 300.134124 162.910041 307.180869 165.828899 314.527525 165.828899 
z
" clip-path="url(#p16c53ef739)" style="fill: #f5a623; stroke: #222222; stroke-width: 1.2; stroke-linejoin: miter"/>
   </g>
   <g id="text_11">
    <text style="font-weight: 700; font-size: 9.5px; font-family: 'Liberation Sans', 'Arimo', 'DejaVu Sans'; text-anchor: middle; fill: #222222" x="520.726282" y="195.554523" transform="rotate(-0 520.726282 195.554523)">V570</text>
   </g>
   <g id="text_12">
    <text style="font-weight: 700; font-size: 9.5px; font-family: 'Liberation Sans', 'Arimo', 'DejaVu Sans'; text-anchor: middle; fill: #ffffff" x="131.107642" y="479.332491" transform="rotate(-0 131.107642 479.332491)">H916</text>
   </g>
   <g id="text_13">
    <text style="font-weight: 700; font-size: 9.5px; font-family: 'Liberation Sans', 'Arimo', 'DejaVu Sans'; text-anchor: middle; fill: #222222" x="142.040338" y="266.220847" transform="rotate(-0 142.040338 266.220847)">F917</text>
   </g>
   <g id="text_14">
    <text style="font-weight: 700; font-size: 9.5px; font-family: 'Liberation Sans', 'Arimo', 'DejaVu Sans'; text-anchor: middle; fill: #ffffff" x="289.841445" y="621.961774" transform="rotate(-0 289.841445 621.961774)">K898</text>
   </g>
   <g id="text_15">
    <text style="font-weight: 700; font-size: 9.5px; font-family: 'Liberation Sans', 'Arimo', 'DejaVu Sans'; text-anchor: middle; fill: #222222" x="314.527525" y="140.585395" transform="rotate(-0 314.527525 140.585395)">Y849</text>
   </g>
  </g>
  <g id="patch_18">
   <path d="M 130.640391 714.42 
Q 135.83969 714.42 138.914724 714.42 
" style="fill: none; stroke: #0279ee; stroke-width: 1.9; stroke-linecap: round"/>
   <path d="M 134.114724 712.02 
L 138.914724 714.42 
L 134.114724 716.82 
" style="fill: none; stroke: #0279ee; stroke-width: 1.9; stroke-linecap: round"/>
  </g>
  <g id="patch_19">
   <path d="M 92.16 743.148 
C 93.68757 743.148 95.15278 742.510745 96.232935 741.376582 
C 97.31309 740.242419 97.92 738.703948 97.92 737.1 
C 97.92 735.496052 97.31309 733.957581 96.232935 732.823418 
C 95.15278 731.689255 93.68757 731.052 92.16 731.052 
C 90.63243 731.052 89.16722 731.689255 88.087065 732.823418 
C 87.00691 733.957581 86.4 735.496052 86.4 737.1 
C 86.4 738.703948 87.00691 740.242419 88.087065 741.376582 
C 89.16722 742.510745 90.63243 743.148 92.16 743.148 
z
" style="fill: #5087c5; stroke: #222222; stroke-width: 0.8; stroke-linejoin: miter"/>
  </g>
  <g id="patch_20">
   <path d="M 218.88 743.148 
C 220.40757 743.148 221.87278 742.510745 222.952935 741.376582 
C 224.03309 740.242419 224.64 738.703948 224.64 737.1 
C 224.64 735.496052 224.03309 733.957581 222.952935 732.823418 
C 221.87278 731.689255 220.40757 731.052 218.88 731.052 
C 217.35243 731.052 215.88722 731.689255 214.807065 732.823418 
C 213.72691 733.957581 213.12 735.496052 213.12 737.1 
C 213.12 738.703948 213.72691 740.242419 214.807065 741.376582 
C 215.88722 742.510745 217.35243 743.148 218.88 743.148 
z
" style="fill: #d9584c; stroke: #222222; stroke-width: 0.8; stroke-linejoin: miter"/>
  </g>
  <g id="patch_21">
   <path d="M 345.6 743.148 
C 347.12757 743.148 348.59278 742.510745 349.672935 741.376582 
C 350.75309 740.242419 351.36 738.703948 351.36 737.1 
C 351.36 735.496052 350.75309 733.957581 349.672935 732.823418 
C 348.59278 731.689255 347.12757 731.052 345.6 731.052 
C 344.07243 731.052 342.60722 731.689255 341.527065 732.823418 
C 340.44691 733.957581 339.84 735.496052 339.84 737.1 
C 339.84 738.703948 340.44691 740.242419 341.527065 741.376582 
C 342.60722 742.510745 344.07243 743.148 345.6 743.148 
z
" style="fill: #f5a623; stroke: #222222; stroke-width: 0.8; stroke-linejoin: miter"/>
  </g>
  <g id="patch_22">
   <path d="M 472.32 743.148 
C 473.84757 743.148 475.31278 742.510745 476.392935 741.376582 
C 477.47309 740.242419 478.08 738.703948 478.08 737.1 
C 478.08 735.496052 477.47309 733.957581 476.392935 732.823418 
C 475.31278 731.689255 473.84757 731.052 472.32 731.052 
C 470.79243 731.052 469.32722 731.689255 468.247065 732.823418 
C 467.16691 733.957581 466.56 735.496052 466.56 737.1 
C 466.56 738.703948 467.16691 740.242419 468.247065 741.376582 
C 469.32722 742.510745 470.79243 743.148 472.32 743.148 
z
" style="fill: #8bc34a; stroke: #222222; stroke-width: 0.8; stroke-linejoin: miter"/>
  </g>
  <g id="patch_23">
   <path d="M 599.04 743.148 
C 600.56757 743.148 602.03278 742.510745 603.112935 741.376582 
C 604.19309 740.242419 604.8 738.703948 604.8 737.1 
C 604.8 735.496052 604.19309 733.957581 603.112935 732.823418 
C 602.03278 731.689255 600.56757 731.052 599.04 731.052 
C 597.51243 731.052 596.04722 731.689255 594.967065 732.823418 
C 593.88691 733.957581 593.28 735.496052 593.28 737.1 
C 593.28 738.703948 593.88691 740.242419 594.967065 741.376582 
C 596.04722 742.510745 597.51243 743.148 599.04 743.148 
z
" style="fill: #ffffff; stroke: #dc3912; stroke-width: 2.5; stroke-linejoin: miter"/>
  </g>
  <g id="line2d_38">
   <path d="M 339.84 714.42 
L 354.24 714.42 
" style="fill: none; stroke: #75a025; stroke-opacity: 0.4; stroke-width: 4; stroke-linecap: square"/>
  </g>
  <g id="line2d_39">
   <path d="M 551.04 710.64 
L 565.44 710.64 
" style="fill: none; stroke-dasharray: 7.2,5.4; stroke-dashoffset: 0; stroke: #ff9400; stroke-width: 1.8"/>
  </g>
  <g id="line2d_40">
   <path d="M 551.04 718.2 
L 565.44 718.2 
" style="fill: none; stroke-dasharray: 7.2,5.4; stroke-dashoffset: 0; stroke: #ff9400; stroke-width: 1.8"/>
  </g>
  <g id="text_16">
   <text style="font-weight: 700; font-size: 14px; font-family: 'Liberation Sans', 'Arimo', 'DejaVu Sans'; text-anchor: middle" x="360" y="21.532383" transform="rotate(-0 360 21.532383)">G729D × 7GQU · VVD-214 — NEUTRAL</text>
  </g>
  <g id="text_17">
   <text style="font-size: 10.5px; font-family: 'Liberation Sans', 'Arimo', 'DejaVu Sans'; text-anchor: middle" x="360" y="41.66925" transform="rotate(-0 360 41.66925)">ΔS = -0.23  |  RMSD vs WT = 0.66 Å  |  0 lost / 4 retained / 1 gained</text>
  </g>
  <g id="text_18">
   <text style="font-size: 10.5px; font-family: 'Liberation Sans', 'Arimo', 'DejaVu Sans'; text-anchor: middle" x="360" y="61.320287" transform="rotate(-0 360 61.320287)">PLIP: 3 hydrophobic · 1 H-bond · 1 π-stack</text>
  </g>
  <g id="text_19">
   <text style="font-size: 8.5px; font-family: 'Liberation Sans', 'Arimo', 'DejaVu Sans'; text-anchor: start" x="146.64" y="716.619707" transform="rotate(-0 146.64 716.619707)">H-bond</text>
  </g>
  <g id="text_20">
   <text style="font-size: 8.5px; font-family: 'Liberation Sans', 'Arimo', 'DejaVu Sans'; text-anchor: start" x="357.84" y="716.619707" transform="rotate(-0 357.84 716.619707)">Hydrophobic</text>
  </g>
  <g id="text_21">
   <text style="font-size: 8.5px; font-family: 'Liberation Sans', 'Arimo', 'DejaVu Sans'; text-anchor: start" x="569.04" y="716.619707" transform="rotate(-0 569.04 716.619707)">π-stack</text>
  </g>
  <g id="text_22">
   <text style="font-size: 8px; font-family: 'Liberation Sans', 'Arimo', 'DejaVu Sans'; text-anchor: start" x="100.8" y="739.170313" transform="rotate(-0 100.8 739.170313)">Basic</text>
  </g>
  <g id="text_23">
   <text style="font-size: 8px; font-family: 'Liberation Sans', 'Arimo', 'DejaVu Sans'; text-anchor: start" x="227.52" y="739.170313" transform="rotate(-0 227.52 739.170313)">Acidic</text>
  </g>
  <g id="text_24">
   <text style="font-size: 8px; font-family: 'Liberation Sans', 'Arimo', 'DejaVu Sans'; text-anchor: start" x="354.24" y="739.170313" transform="rotate(-0 354.24 739.170313)">Polar</text>
  </g>
  <g id="text_25">
   <text style="font-size: 8px; font-family: 'Liberation Sans', 'Arimo', 'DejaVu Sans'; text-anchor: start" x="480.96" y="739.170313" transform="rotate(-0 480.96 739.170313)">Hydrophobic</text>
  </g>
  <g id="text_26">
   <text style="font-size: 8px; font-family: 'Liberation Sans', 'Arimo', 'DejaVu Sans'; text-anchor: start" x="607.68" y="739.170313" transform="rotate(-0 607.68 739.170313)">Mutation site</text>
  </g>
 </g>
 <defs>
  <clipPath id="p16c53ef739">
   <rect x="53.82" y="75.6" width="612.36" height="612.36"/>
  </clipPath>
 </defs>
</svg>
