<?xml version="1.0" encoding="utf-8" standalone="no"?>
<!DOCTYPE svg PUBLIC "-//W3C//DTD SVG 1.1//EN"
  "http://www.w3.org/Graphics/SVG/1.1/DTD/svg11.dtd">
<svg xmlns:xlink="http://www.w3.org/1999/xlink" width="720pt" height="756pt" viewBox="0 0 720 756" xmlns="http://www.w3.org/2000/svg" version="1.1">
 <metadata>
  <rdf:RDF xmlns:dc="http://purl.org/dc/elements/1.1/" xmlns:cc="http://creativecommons.org/ns#" xmlns:rdf="http://www.w3.org/1999/02/22-rdf-syntax-ns#">
   <cc:Work>
    <dc:type rdf:resource="http://purl.org/dc/dcmitype/StillImage"/>
    <dc:date>2022-01-01T05:00:00+00:00</dc:date>
    <dc:format>image/svg+xml</dc:format>
    <dc:creator>
     <cc:Agent>
      <dc:title>Matplotlib v3.11.0, https://matplotlib.org/</dc:title>
     </cc:Agent>
    </dc:creator>
   </cc:Work>
  </rdf:RDF>
 </metadata>
 <defs>
  <style type="text/css">*{stroke-linejoin: round; stroke-linecap: butt}</style>
 </defs>
 <g id="figure_1">
  <g id="patch_1">
   <path d="M 0 756 
L 720 756 
L 720 0 
L 0 0 
z
" style="fill: #ffffff"/>
  </g>
  <g id="axes_1">
   <g id="line2d_1">
    <path d="M 111.726272 260.236734 
L 119.27705 261.07872 
L 126.806183 262.000682 
L 134.31367 263.002618 
L 141.799512 264.084529 
L 149.263708 265.246416 
L 156.706258 266.488277 
L 164.127162 267.810114 
L 171.526421 269.211926 
L 178.904034 270.693712 
L 186.260002 272.255474 
L 193.594324 273.897211 
L 200.907 275.618923 
L 208.198031 277.42061 
L 215.467415 279.302272 
L 222.715155 281.263909 
L 229.941248 283.305521 
L 237.145696 285.427108 
L 244.328499 287.62867 
L 251.489655 289.910207 
L 258.629167 292.27172 
L 265.747032 294.713207 
L 272.843252 297.234669 
L 279.917826 299.836107 
L 286.970754 302.517519 
L 294.002037 305.278907 
L 301.011674 308.120269 
L 307.999666 311.041607 
L 314.966011 314.04292 
L 321.910712 317.124208 
" clip-path="url(#pa6bf634b82)" style="fill: none; stroke: #75a025; stroke-opacity: 0.4; stroke-width: 4; stroke-linecap: round"/>
   </g>
   <g id="line2d_2">
    <path d="M 113.253001 502.665715 
L 118.243785 495.169163 
L 123.307051 487.73888 
L 128.442801 480.374865 
L 133.651035 473.077119 
L 138.931751 465.84564 
L 144.284951 458.680429 
L 149.710634 451.581487 
L 155.208801 444.548813 
L 160.779451 437.582406 
L 166.422584 430.682268 
L 172.1382 423.848399 
L 177.9263 417.080797 
L 183.786883 410.379463 
L 189.719949 403.744398 
L 195.725498 397.1756 
L 201.803531 390.673071 
L 207.954047 384.23681 
L 214.177046 377.866817 
L 220.472529 371.563092 
L 226.840495 365.325636 
L 233.280944 359.154447 
L 239.793876 353.049527 
L 246.379292 347.010874 
L 253.037191 341.03849 
L 259.767573 335.132374 
L 266.570439 329.292526 
L 273.445788 323.518946 
L 280.39362 317.811635 
L 287.413935 312.170591 
" clip-path="url(#pa6bf634b82)" style="fill: none; stroke: #75a025; stroke-opacity: 0.4; stroke-width: 4; stroke-linecap: round"/>
   </g>
   <g id="line2d_3">
    <path d="M 302.782399 110.762253 
L 306.404261 119.259509 
L 309.928516 127.781652 
L 313.355163 136.328682 
L 316.684203 144.900598 
L 319.915635 153.497402 
L 323.04946 162.119092 
L 326.085678 170.765668 
L 329.024288 179.437132 
L 331.865291 188.133482 
L 334.608686 196.854719 
L 337.254474 205.600842 
L 339.802655 214.371852 
L 342.253228 223.167749 
L 344.606194 231.988533 
L 346.861553 240.834203 
L 349.019304 249.70476 
L 351.079447 258.600204 
L 353.041984 267.520535 
L 354.906912 276.465752 
L 356.674234 285.435856 
L 358.343948 294.430847 
L 359.916055 303.450724 
L 361.390554 312.495488 
L 362.767446 321.565139 
L 364.04673 330.659676 
L 365.228407 339.779101 
L 366.312477 348.923412 
L 367.298939 358.092609 
L 368.187794 367.286694 
" clip-path="url(#pa6bf634b82)" style="fill: none; stroke: #75a025; stroke-opacity: 0.4; stroke-width: 4; stroke-linecap: round"/>
   </g>
   <g id="line2d_4">
    <path d="M 308.973337 109.875889 
L 308.021902 117.866576 
L 307.158169 125.854213 
L 306.382137 133.838801 
L 305.693808 141.820338 
L 305.09318 149.798826 
L 304.580255 157.774264 
L 304.155031 165.746652 
L 303.81751 173.71599 
L 303.56769 181.682278 
L 303.405572 189.645517 
L 303.331157 197.605706 
L 303.344443 205.562844 
L 303.445431 213.516933 
L 303.634121 221.467973 
L 303.910513 229.415962 
L 304.274607 237.360901 
L 304.726403 245.302791 
L 305.265901 253.241631 
L 305.893101 261.177421 
L 306.608003 269.110161 
L 307.410607 277.039851 
L 308.300913 284.966491 
L 309.27892 292.890082 
L 310.34463 300.810623 
L 311.498041 308.728114 
L 312.739155 316.642555 
L 314.06797 324.553946 
L 315.484488 332.462287 
L 316.988707 340.367579 
" clip-path="url(#pa6bf634b82)" style="fill: none; stroke: #75a025; stroke-opacity: 0.4; stroke-width: 4; stroke-linecap: round"/>
   </g>
   <g id="line2d_5">
    <path d="M 536.396332 168.199846 
L 529.359964 174.097029 
L 522.398866 180.060226 
L 515.513039 186.089437 
L 508.702483 192.184664 
L 501.967196 198.345905 
L 495.307181 204.57316 
L 488.722436 210.866431 
L 482.212961 217.225716 
L 475.778757 223.651016 
L 469.419823 230.14233 
L 463.13616 236.699659 
L 456.927767 243.323003 
L 450.794645 250.012362 
L 444.736793 256.767735 
L 438.754212 263.589123 
L 432.846901 270.476526 
L 427.014861 277.429943 
L 421.258091 284.449375 
L 415.576592 291.534822 
L 409.970363 298.686283 
L 404.439405 305.903759 
L 398.983717 313.18725 
L 393.6033 320.536755 
L 388.298153 327.952276 
L 383.068277 335.43381 
L 377.913671 342.98136 
L 372.834335 350.594924 
L 367.83027 358.274503 
L 362.901476 366.020097 
" clip-path="url(#pa6bf634b82)" style="fill: none; stroke: #75a025; stroke-opacity: 0.4; stroke-width: 4; stroke-linecap: round"/>
   </g>
   <g id="line2d_6">
    <path d="M 517.07287 604.415212 
L 517.741026 595.618173 
L 518.31326 586.828579 
L 518.789575 578.046431 
L 519.169968 569.271727 
L 519.454441 560.504469 
L 519.642994 551.744657 
L 519.735625 542.992289 
L 519.732336 534.247367 
L 519.633127 525.509891 
L 519.437997 516.77986 
L 519.146946 508.057274 
L 518.759975 499.342133 
L 518.277083 490.634438 
L 517.698271 481.934188 
L 517.023538 473.241383 
L 516.252884 464.556024 
L 515.38631 455.87811 
L 514.423815 447.207641 
L 513.3654 438.544618 
L 512.211063 429.88904 
L 510.960807 421.240907 
L 509.61463 412.60022 
L 508.172532 403.966977 
L 506.634513 395.341181 
L 505.000574 386.722829 
L 503.270714 378.111923 
L 501.444934 369.508463 
L 499.523233 360.912447 
L 497.505612 352.323877 
" clip-path="url(#pa6bf634b82)" style="fill: none; stroke: #75a025; stroke-opacity: 0.4; stroke-width: 4; stroke-linecap: round"/>
   </g>
   <g id="line2d_7">
    <path d="M 153.059317 460.047728 
L 311.01575 294.508996 
" clip-path="url(#pa6bf634b82)" style="fill: none; stroke: #8b4513; stroke-width: 2.2; stroke-linecap: square"/>
   </g>
   <g id="patch_2">
    <path d="M 509.518206 544.640088 
Q 496.953104 471.824593 484.671415 400.65149 
" clip-path="url(#pa6bf634b82)" style="fill: none; stroke: #0279ee; stroke-width: 2; stroke-linecap: round"/>
    <path d="M 480.119181 409.555263 
L 484.671415 400.65149 
L 491.944411 407.514691 
" clip-path="url(#pa6bf634b82)" style="fill: none; stroke: #0279ee; stroke-width: 2; stroke-linecap: round"/>
   </g>
   <g id="patch_3">
    <path d="M 577.558087 376.001188 
Q 510.635832 359.902111 445.334014 344.192854 
" clip-path="url(#pa6bf634b82)" style="fill: none; stroke: #0279ee; stroke-width: 2; stroke-linecap: round"/>
    <path d="M 451.708768 351.897561 
L 445.334014 344.192854 
L 454.515464 340.230407 
" clip-path="url(#pa6bf634b82)" style="fill: none; stroke: #0279ee; stroke-width: 2; stroke-linecap: round"/>
   </g>
   <g id="line2d_8">
    <path d="M 367.756447 399.512557 
L 351.102814 390.480428 
" clip-path="url(#pa6bf634b82)" style="fill: none; stroke: #222222; stroke-width: 2; stroke-linecap: round"/>
   </g>
   <g id="line2d_9">
    <path d="M 368.26121 418.451091 
L 367.756447 399.512557 
" clip-path="url(#pa6bf634b82)" style="fill: none; stroke: #222222; stroke-width: 2; stroke-linecap: round"/>
   </g>
   <g id="line2d_10">
    <path d="M 384.914843 427.48322 
L 368.26121 418.451091 
" clip-path="url(#pa6bf634b82)" style="fill: none; stroke: #222222; stroke-width: 2; stroke-linecap: round"/>
   </g>
   <g id="line2d_11">
    <path d="M 352.11234 428.357496 
L 368.26121 418.451091 
" clip-path="url(#pa6bf634b82)" style="fill: none; stroke: #222222; stroke-width: 2; stroke-linecap: round"/>
   </g>
   <g id="line2d_12">
    <path d="M 348.66853 446.987124 
L 352.11234 428.357496 
" clip-path="url(#pa6bf634b82)" style="fill: none; stroke: #222222; stroke-width: 2; stroke-linecap: round"/>
   </g>
   <g id="line2d_13">
    <path d="M 329.886506 449.468737 
L 348.66853 446.987124 
" clip-path="url(#pa6bf634b82)" style="fill: none; stroke: #222222; stroke-width: 2; stroke-linecap: round"/>
   </g>
   <g id="line2d_14">
    <path d="M 321.722386 432.372831 
L 329.886506 449.468737 
" clip-path="url(#pa6bf634b82)" style="fill: none; stroke: #222222; stroke-width: 2; stroke-linecap: round"/>
   </g>
   <g id="line2d_15">
    <path d="M 335.458707 419.325367 
L 321.722386 432.372831 
" clip-path="url(#pa6bf634b82)" style="fill: none; stroke: #222222; stroke-width: 2; stroke-linecap: round"/>
   </g>
   <g id="line2d_16">
    <path d="M 335.458707 419.325367 
L 352.11234 428.357496 
" clip-path="url(#pa6bf634b82)" style="fill: none; stroke: #222222; stroke-width: 2; stroke-linecap: round"/>
   </g>
   <g id="line2d_17">
    <path d="M 334.953944 400.386833 
L 335.458707 419.325367 
" clip-path="url(#pa6bf634b82)" style="fill: none; stroke: #222222; stroke-width: 2; stroke-linecap: round"/>
   </g>
   <g id="line2d_18">
    <path d="M 334.953944 400.386833 
L 351.102814 390.480428 
" clip-path="url(#pa6bf634b82)" style="fill: none; stroke: #222222; stroke-width: 2; stroke-linecap: round"/>
   </g>
   <g id="line2d_19">
    <path d="M 383.905317 389.606153 
L 367.756447 399.512557 
" clip-path="url(#pa6bf634b82)" style="fill: none; stroke: #222222; stroke-width: 2; stroke-linecap: round"/>
   </g>
   <g id="line2d_20">
    <path d="M 400.55895 398.638282 
L 383.905317 389.606153 
" clip-path="url(#pa6bf634b82)" style="fill: none; stroke: #222222; stroke-width: 2; stroke-linecap: round"/>
   </g>
   <g id="line2d_21">
    <path d="M 416.70782 388.731877 
L 400.55895 398.638282 
" clip-path="url(#pa6bf634b82)" style="fill: none; stroke: #222222; stroke-width: 2; stroke-linecap: round"/>
   </g>
   <g id="line2d_22">
    <path d="M 416.203057 369.793343 
L 416.70782 388.731877 
" clip-path="url(#pa6bf634b82)" style="fill: none; stroke: #222222; stroke-width: 2; stroke-linecap: round"/>
   </g>
   <g id="line2d_23">
    <path d="M 432.351926 359.886939 
L 416.203057 369.793343 
" clip-path="url(#pa6bf634b82)" style="fill: none; stroke: #222222; stroke-width: 2; stroke-linecap: round"/>
   </g>
   <g id="line2d_24">
    <path d="M 431.847163 340.948405 
L 432.351926 359.886939 
" clip-path="url(#pa6bf634b82)" style="fill: none; stroke: #222222; stroke-width: 2; stroke-linecap: round"/>
   </g>
   <g id="line2d_25">
    <path d="M 399.549424 360.761214 
L 416.203057 369.793343 
" clip-path="url(#pa6bf634b82)" style="fill: none; stroke: #222222; stroke-width: 2; stroke-linecap: round"/>
   </g>
   <g id="line2d_26">
    <path d="M 383.400554 370.667619 
L 399.549424 360.761214 
" clip-path="url(#pa6bf634b82)" style="fill: none; stroke: #222222; stroke-width: 2; stroke-linecap: round"/>
   </g>
   <g id="line2d_27">
    <path d="M 383.400554 370.667619 
L 383.905317 389.606153 
" clip-path="url(#pa6bf634b82)" style="fill: none; stroke: #222222; stroke-width: 2; stroke-linecap: round"/>
   </g>
   <g id="line2d_28">
    <path d="M 449.00556 368.919068 
L 432.351926 359.886939 
" clip-path="url(#pa6bf634b82)" style="fill: none; stroke: #222222; stroke-width: 2; stroke-linecap: round"/>
   </g>
   <g id="line2d_29">
    <path d="M 449.510323 387.857602 
L 449.00556 368.919068 
" clip-path="url(#pa6bf634b82)" style="fill: none; stroke: #222222; stroke-width: 2; stroke-linecap: round"/>
   </g>
   <g id="line2d_30">
    <path d="M 466.163956 396.889731 
L 449.510323 387.857602 
" clip-path="url(#pa6bf634b82)" style="fill: none; stroke: #222222; stroke-width: 2; stroke-linecap: round"/>
   </g>
   <g id="line2d_31">
    <path d="M 482.312826 386.983326 
L 466.163956 396.889731 
" clip-path="url(#pa6bf634b82)" style="fill: none; stroke: #222222; stroke-width: 2; stroke-linecap: round"/>
   </g>
   <g id="line2d_32">
    <path d="M 481.808063 368.044793 
L 482.312826 386.983326 
" clip-path="url(#pa6bf634b82)" style="fill: none; stroke: #222222; stroke-width: 2; stroke-linecap: round"/>
   </g>
   <g id="line2d_33">
    <path d="M 497.956932 358.138388 
L 481.808063 368.044793 
" clip-path="url(#pa6bf634b82)" style="fill: none; stroke: #222222; stroke-width: 2; stroke-linecap: round"/>
   </g>
   <g id="line2d_34">
    <path d="M 465.154429 359.012663 
L 481.808063 368.044793 
" clip-path="url(#pa6bf634b82)" style="fill: none; stroke: #222222; stroke-width: 2; stroke-linecap: round"/>
   </g>
   <g id="line2d_35">
    <path d="M 465.154429 359.012663 
L 449.00556 368.919068 
" clip-path="url(#pa6bf634b82)" style="fill: none; stroke: #222222; stroke-width: 2; stroke-linecap: round"/>
   </g>
   <g id="line2d_36">
    <path d="M 464.649666 340.074129 
L 465.154429 359.012663 
" clip-path="url(#pa6bf634b82)" style="fill: none; stroke: #222222; stroke-width: 2; stroke-linecap: round"/>
   </g>
   <g id="line2d_37">
    <path d="M 320.854376 466.12237 
L 329.886506 449.468737 
" clip-path="url(#pa6bf634b82)" style="fill: none; stroke: #222222; stroke-width: 2; stroke-linecap: round"/>
   </g>
   <g id="line2d_38">
    <path d="M 301.915843 466.627134 
L 320.854376 466.12237 
" clip-path="url(#pa6bf634b82)" style="fill: none; stroke: #222222; stroke-width: 2; stroke-linecap: round"/>
   </g>
   <g id="line2d_39">
    <path d="M 292.883713 483.280767 
L 301.915843 466.627134 
" clip-path="url(#pa6bf634b82)" style="fill: none; stroke: #222222; stroke-width: 2; stroke-linecap: round"/>
   </g>
   <g id="line2d_40">
    <path d="M 302.790118 499.429637 
L 292.883713 483.280767 
" clip-path="url(#pa6bf634b82)" style="fill: none; stroke: #222222; stroke-width: 2; stroke-linecap: round"/>
   </g>
   <g id="line2d_41">
    <path d="M 321.728652 498.924873 
L 302.790118 499.429637 
" clip-path="url(#pa6bf634b82)" style="fill: none; stroke: #222222; stroke-width: 2; stroke-linecap: round"/>
   </g>
   <g id="line2d_42">
    <path d="M 330.760781 482.27124 
L 321.728652 498.924873 
" clip-path="url(#pa6bf634b82)" style="fill: none; stroke: #222222; stroke-width: 2; stroke-linecap: round"/>
   </g>
   <g id="line2d_43">
    <path d="M 330.760781 482.27124 
L 320.854376 466.12237 
" clip-path="url(#pa6bf634b82)" style="fill: none; stroke: #222222; stroke-width: 2; stroke-linecap: round"/>
   </g>
   <g id="line2d_44">
    <path d="M 350.598051 371.541894 
L 351.102814 390.480428 
" clip-path="url(#pa6bf634b82)" style="fill: none; stroke: #222222; stroke-width: 2; stroke-linecap: round"/>
   </g>
   <g id="line2d_45">
    <path d="M 350.598051 371.541894 
L 366.746921 361.635489 
" clip-path="url(#pa6bf634b82)" style="fill: none; stroke: #222222; stroke-width: 2; stroke-linecap: round"/>
   </g>
   <g id="line2d_46">
    <path d="M 318.300311 391.354703 
L 334.953944 400.386833 
" clip-path="url(#pa6bf634b82)" style="fill: none; stroke: #222222; stroke-width: 2; stroke-linecap: round"/>
   </g>
   <g id="line2d_47">
    <path d="M 317.795548 372.41617 
L 318.300311 391.354703 
" clip-path="url(#pa6bf634b82)" style="fill: none; stroke: #222222; stroke-width: 2; stroke-linecap: round"/>
   </g>
   <g id="line2d_48">
    <path d="M 333.944418 362.509765 
L 317.795548 372.41617 
" clip-path="url(#pa6bf634b82)" style="fill: none; stroke: #222222; stroke-width: 2; stroke-linecap: round"/>
   </g>
   <g id="line2d_49">
    <path d="M 301.141915 363.38404 
L 317.795548 372.41617 
" clip-path="url(#pa6bf634b82)" style="fill: none; stroke: #222222; stroke-width: 2; stroke-linecap: round"/>
   </g>
   <g id="line2d_50">
    <path d="M 300.637152 344.445506 
L 301.141915 363.38404 
" clip-path="url(#pa6bf634b82)" style="fill: none; stroke: #222222; stroke-width: 2; stroke-linecap: round"/>
   </g>
   <g id="line2d_51">
    <path d="M 316.786021 334.539102 
L 300.637152 344.445506 
" clip-path="url(#pa6bf634b82)" style="fill: none; stroke: #222222; stroke-width: 2; stroke-linecap: round"/>
   </g>
   <g id="line2d_52">
    <path d="M 316.281258 315.600568 
L 316.786021 334.539102 
" clip-path="url(#pa6bf634b82)" style="fill: none; stroke: #222222; stroke-width: 2; stroke-linecap: round"/>
   </g>
   <g id="line2d_53">
    <path d="M 299.627625 306.568439 
L 316.281258 315.600568 
" clip-path="url(#pa6bf634b82)" style="fill: none; stroke: #222222; stroke-width: 2; stroke-linecap: round"/>
   </g>
   <g id="line2d_54">
    <path d="M 283.478755 316.474843 
L 299.627625 306.568439 
" clip-path="url(#pa6bf634b82)" style="fill: none; stroke: #222222; stroke-width: 2; stroke-linecap: round"/>
   </g>
   <g id="line2d_55">
    <path d="M 283.983518 335.413377 
L 283.478755 316.474843 
" clip-path="url(#pa6bf634b82)" style="fill: none; stroke: #222222; stroke-width: 2; stroke-linecap: round"/>
   </g>
   <g id="line2d_56">
    <path d="M 283.983518 335.413377 
L 300.637152 344.445506 
" clip-path="url(#pa6bf634b82)" style="fill: none; stroke: #222222; stroke-width: 2; stroke-linecap: round"/>
   </g>
   <g id="line2d_57">
    <path d="M 267.834649 345.319782 
L 283.983518 335.413377 
" clip-path="url(#pa6bf634b82)" style="fill: none; stroke: #222222; stroke-width: 2; stroke-linecap: round"/>
   </g>
   <g id="line2d_58">
    <path d="M 299.122862 287.629905 
L 299.627625 306.568439 
" clip-path="url(#pa6bf634b82)" style="fill: none; stroke: #222222; stroke-width: 2; stroke-linecap: round"/>
   </g>
   <g id="line2d_59">
    <path d="M 298.618099 268.691371 
L 299.122862 287.629905 
" clip-path="url(#pa6bf634b82)" style="fill: none; stroke: #222222; stroke-width: 2; stroke-linecap: round"/>
   </g>
   <g id="line2d_60">
    <path d="M 318.061396 287.125141 
L 299.122862 287.629905 
" clip-path="url(#pa6bf634b82)" style="fill: none; stroke: #222222; stroke-width: 2; stroke-linecap: round"/>
   </g>
   <g id="line2d_61">
    <path d="M 280.184328 288.134668 
L 299.122862 287.629905 
" clip-path="url(#pa6bf634b82)" style="fill: none; stroke: #222222; stroke-width: 2; stroke-linecap: round"/>
   </g>
   <g id="text_1">
    <g id="patch_4">
     <path d="M 380.007968 433.35408 
L 389.821718 433.35408 
L 389.821718 421.612361 
L 380.007968 421.612361 
z
" style="fill: #ffffff"/>
    </g>
    <text style="font-weight: 700; font-size: 12px; font-family: 'Liberation Sans', 'Arimo', 'DejaVu Sans'; text-anchor: middle; fill: #d40000" x="384.914843" y="430.588689" transform="rotate(-0 384.914843 430.588689)">O</text>
   </g>
   <g id="text_2">
    <g id="patch_5">
     <path d="M 347.539215 434.228355 
L 356.685465 434.228355 
L 356.685465 422.486637 
L 347.539215 422.486637 
z
" style="fill: #ffffff"/>
    </g>
    <text style="font-weight: 700; font-size: 12px; font-family: 'Liberation Sans', 'Arimo', 'DejaVu Sans'; text-anchor: middle; fill: #0879c0" x="352.11234" y="431.462965" transform="rotate(-0 352.11234 431.462965)">N</text>
   </g>
   <g id="text_3">
    <g id="patch_6">
     <path d="M 344.095405 452.857983 
L 353.241655 452.857983 
L 353.241655 441.116264 
L 344.095405 441.116264 
z
" style="fill: #ffffff"/>
    </g>
    <text style="font-weight: 700; font-size: 12px; font-family: 'Liberation Sans', 'Arimo', 'DejaVu Sans'; text-anchor: middle; fill: #0879c0" x="348.66853" y="450.092592" transform="rotate(-0 348.66853 450.092592)">N</text>
   </g>
   <g id="text_4">
    <g id="patch_7">
     <path d="M 317.149261 438.243691 
L 326.295511 438.243691 
L 326.295511 426.501972 
L 317.149261 426.501972 
z
" style="fill: #ffffff"/>
    </g>
    <text style="font-weight: 700; font-size: 12px; font-family: 'Liberation Sans', 'Arimo', 'DejaVu Sans'; text-anchor: middle; fill: #0879c0" x="321.722386" y="435.4783" transform="rotate(-0 321.722386 435.4783)">N</text>
   </g>
   <g id="text_5">
    <g id="patch_8">
     <path d="M 330.380819 406.257692 
L 339.527069 406.257692 
L 339.527069 394.515973 
L 330.380819 394.515973 
z
" style="fill: #ffffff"/>
    </g>
    <text style="font-weight: 700; font-size: 12px; font-family: 'Liberation Sans', 'Arimo', 'DejaVu Sans'; text-anchor: middle; fill: #0879c0" x="334.953944" y="403.492301" transform="rotate(-0 334.953944 403.492301)">N</text>
   </g>
   <g id="text_6">
    <g id="patch_9">
     <path d="M 379.332192 395.477012 
L 388.478442 395.477012 
L 388.478442 383.735293 
L 379.332192 383.735293 
z
" style="fill: #ffffff"/>
    </g>
    <text style="font-weight: 700; font-size: 12px; font-family: 'Liberation Sans', 'Arimo', 'DejaVu Sans'; text-anchor: middle; fill: #0879c0" x="383.905317" y="392.711621" transform="rotate(-0 383.905317 392.711621)">N</text>
   </g>
   <g id="text_7">
    <g id="patch_10">
     <path d="M 411.629932 375.664203 
L 420.776182 375.664203 
L 420.776182 363.922484 
L 411.629932 363.922484 
z
" style="fill: #ffffff"/>
    </g>
    <text style="font-weight: 700; font-size: 12px; font-family: 'Liberation Sans', 'Arimo', 'DejaVu Sans'; text-anchor: middle; fill: #0879c0" x="416.203057" y="372.898812" transform="rotate(-0 416.203057 372.898812)">N</text>
   </g>
   <g id="text_8">
    <g id="patch_11">
     <path d="M 426.940288 346.819264 
L 436.754038 346.819264 
L 436.754038 335.077545 
L 426.940288 335.077545 
z
" style="fill: #ffffff"/>
    </g>
    <text style="font-weight: 700; font-size: 12px; font-family: 'Liberation Sans', 'Arimo', 'DejaVu Sans'; text-anchor: middle; fill: #d40000" x="431.847163" y="344.053874" transform="rotate(-0 431.847163 344.053874)">O</text>
   </g>
   <g id="text_9">
    <g id="patch_12">
     <path d="M 444.937198 393.728461 
L 454.083448 393.728461 
L 454.083448 381.986742 
L 444.937198 381.986742 
z
" style="fill: #ffffff"/>
    </g>
    <text style="font-weight: 700; font-size: 12px; font-family: 'Liberation Sans', 'Arimo', 'DejaVu Sans'; text-anchor: middle; fill: #0879c0" x="449.510323" y="390.963071" transform="rotate(-0 449.510323 390.963071)">N</text>
   </g>
   <g id="text_10">
    <g id="patch_13">
     <path d="M 477.739701 392.854186 
L 486.885951 392.854186 
L 486.885951 381.112467 
L 477.739701 381.112467 
z
" style="fill: #ffffff"/>
    </g>
    <text style="font-weight: 700; font-size: 12px; font-family: 'Liberation Sans', 'Arimo', 'DejaVu Sans'; text-anchor: middle; fill: #0879c0" x="482.312826" y="390.088795" transform="rotate(-0 482.312826 390.088795)">N</text>
   </g>
   <g id="text_11">
    <g id="patch_14">
     <path d="M 459.742791 345.944989 
L 469.556541 345.944989 
L 469.556541 334.20327 
L 459.742791 334.20327 
z
" style="fill: #ffffff"/>
    </g>
    <text style="font-weight: 700; font-size: 12px; font-family: 'Liberation Sans', 'Arimo', 'DejaVu Sans'; text-anchor: middle; fill: #d40000" x="464.649666" y="343.179598" transform="rotate(-0 464.649666 343.179598)">O</text>
   </g>
   <g id="text_12">
    <g id="patch_15">
     <path d="M 297.883243 505.300496 
L 307.696993 505.300496 
L 307.696993 493.558777 
L 297.883243 493.558777 
z
" style="fill: #ffffff"/>
    </g>
    <text style="font-weight: 700; font-size: 12px; font-family: 'Liberation Sans', 'Arimo', 'DejaVu Sans'; text-anchor: middle; fill: #d40000" x="302.790118" y="502.535105" transform="rotate(-0 302.790118 502.535105)">O</text>
   </g>
   <g id="text_13">
    <g id="patch_16">
     <path d="M 329.037543 368.380624 
L 338.851293 368.380624 
L 338.851293 356.638905 
L 329.037543 356.638905 
z
" style="fill: #ffffff"/>
    </g>
    <text style="font-weight: 700; font-size: 12px; font-family: 'Liberation Sans', 'Arimo', 'DejaVu Sans'; text-anchor: middle; fill: #d40000" x="333.944418" y="365.615234" transform="rotate(-0 333.944418 365.615234)">O</text>
   </g>
   <g id="text_14">
    <g id="patch_17">
     <path d="M 296.56879 369.2549 
L 305.71504 369.2549 
L 305.71504 357.513181 
L 296.56879 357.513181 
z
" style="fill: #ffffff"/>
    </g>
    <text style="font-weight: 700; font-size: 12px; font-family: 'Liberation Sans', 'Arimo', 'DejaVu Sans'; text-anchor: middle; fill: #0879c0" x="301.141915" y="366.489509" transform="rotate(-0 301.141915 366.489509)">N</text>
   </g>
   <g id="text_15">
    <g id="patch_18">
     <path d="M 261.594649 351.190641 
L 274.074649 351.190641 
L 274.074649 339.448922 
L 261.594649 339.448922 
z
" style="fill: #ffffff"/>
    </g>
    <text style="font-weight: 700; font-size: 12px; font-family: 'Liberation Sans', 'Arimo', 'DejaVu Sans'; text-anchor: middle; fill: #00a040" x="267.834649" y="348.42525" transform="rotate(-0 267.834649 348.42525)">Cl</text>
   </g>
   <g id="text_16">
    <g id="patch_19">
     <path d="M 294.713411 274.56223 
L 302.522786 274.56223 
L 302.522786 262.820511 
L 294.713411 262.820511 
z
" style="fill: #ffffff"/>
    </g>
    <text style="font-weight: 700; font-size: 12px; font-family: 'Liberation Sans', 'Arimo', 'DejaVu Sans'; text-anchor: middle; fill: #00a040" x="298.618099" y="271.796839" transform="rotate(-0 298.618099 271.796839)">F</text>
   </g>
   <g id="text_17">
    <g id="patch_20">
     <path d="M 314.156709 292.996001 
L 321.966084 292.996001 
L 321.966084 281.254282 
L 314.156709 281.254282 
z
" style="fill: #ffffff"/>
    </g>
    <text style="font-weight: 700; font-size: 12px; font-family: 'Liberation Sans', 'Arimo', 'DejaVu Sans'; text-anchor: middle; fill: #00a040" x="318.061396" y="290.23061" transform="rotate(-0 318.061396 290.23061)">F</text>
   </g>
   <g id="text_18">
    <g id="patch_21">
     <path d="M 276.279641 294.005527 
L 284.089016 294.005527 
L 284.089016 282.263808 
L 276.279641 282.263808 
z
" style="fill: #ffffff"/>
    </g>
    <text style="font-weight: 700; font-size: 12px; font-family: 'Liberation Sans', 'Arimo', 'DejaVu Sans'; text-anchor: middle; fill: #00a040" x="280.184328" y="291.240136" transform="rotate(-0 280.184328 291.240136)">F</text>
   </g>
   <g id="patch_22">
    <path d="M 139.873539 295.556933 
C 147.220195 295.556933 154.266941 292.638076 159.461811 287.443205 
C 164.656682 282.248335 167.575539 275.20159 167.575539 267.854933 
C 167.575539 260.508277 164.656682 253.461532 159.461811 248.266661 
C 154.266941 243.071791 147.220195 240.152933 139.873539 240.152933 
C 132.526883 240.152933 125.480138 243.071791 120.285267 248.266661 
C 115.090397 253.461532 112.171539 260.508277 112.171539 267.854933 
C 112.171539 275.20159 115.090397 282.248335 120.285267 287.443205 
C 125.480138 292.638076 132.526883 295.556933 139.873539 295.556933 
z
" clip-path="url(#pa6bf634b82)" style="fill: #8bc34a; stroke: #222222; stroke-width: 1.2; stroke-linejoin: miter"/>
   </g>
   <g id="patch_23">
    <path d="M 132.928899 508.846455 
C 140.275556 508.846455 147.322301 505.927597 152.517171 500.732727 
C 157.712042 495.537856 160.630899 488.491111 160.630899 481.144455 
C 160.630899 473.797799 157.712042 466.751053 152.517171 461.556183 
C 147.322301 456.361312 140.275556 453.442455 132.928899 453.442455 
C 125.582243 453.442455 118.535498 456.361312 113.340627 461.556183 
C 108.145757 466.751053 105.226899 473.797799 105.226899 481.144455 
C 105.226899 488.491111 108.145757 495.537856 113.340627 500.732727 
C 118.535498 505.927597 125.582243 508.846455 132.928899 508.846455 
z
" clip-path="url(#pa6bf634b82)" style="fill: #d9584c; stroke: #222222; stroke-width: 1.2; stroke-linejoin: miter"/>
   </g>
   <g id="patch_24">
    <path d="M 309.986766 166.720273 
C 317.333423 166.720273 324.380168 163.801416 329.575038 158.606545 
C 334.769909 153.411675 337.688766 146.364929 337.688766 139.018273 
C 337.688766 131.671617 334.769909 124.624872 329.575038 119.430001 
C 324.380168 114.235131 317.333423 111.316273 309.986766 111.316273 
C 302.64011 111.316273 295.593365 114.235131 290.398494 119.430001 
C 285.203624 124.624872 282.284766 131.671617 282.284766 139.018273 
C 282.284766 146.364929 285.203624 153.411675 290.398494 158.606545 
C 295.593365 163.801416 302.64011 166.720273 309.986766 166.720273 
z
" clip-path="url(#pa6bf634b82)" style="fill: #8bc34a; stroke: #222222; stroke-width: 1.2; stroke-linejoin: miter"/>
   </g>
   <g id="patch_25">
    <path d="M 517.169109 217.824882 
C 524.515766 217.824882 531.562511 214.906025 536.757381 209.711155 
C 541.952252 204.516284 544.871109 197.469539 544.871109 190.122882 
C 544.871109 182.776226 541.952252 175.729481 536.757381 170.53461 
C 531.562511 165.33974 524.515766 162.420882 517.169109 162.420882 
C 509.822453 162.420882 502.775708 165.33974 497.580837 170.53461 
C 492.385967 175.729481 489.467109 182.776226 489.467109 190.122882 
C 489.467109 197.469539 492.385967 204.516284 497.580837 209.711155 
C 502.775708 214.906025 509.822453 217.824882 517.169109 217.824882 
z
" clip-path="url(#pa6bf634b82)" style="fill: #5087c5; stroke: #222222; stroke-width: 1.2; stroke-linejoin: miter"/>
   </g>
   <g id="patch_26">
    <path d="M 514.816267 603.044659 
C 522.162923 603.044659 529.209668 600.125802 534.404539 594.930931 
C 539.599409 589.736061 542.518267 582.689316 542.518267 575.342659 
C 542.518267 567.996003 539.599409 560.949258 534.404539 555.754387 
C 529.209668 550.559517 522.162923 547.640659 514.816267 547.640659 
C 507.469611 547.640659 500.422865 550.559517 495.227995 555.754387 
C 490.033124 560.949258 487.114267 567.996003 487.114267 575.342659 
C 487.114267 582.689316 490.033124 589.736061 495.227995 594.930931 
C 500.422865 600.125802 507.469611 603.044659 514.816267 603.044659 
z
" clip-path="url(#pa6bf634b82)" style="fill: #f5a623; stroke: #222222; stroke-width: 1.2; stroke-linejoin: miter"/>
   </g>
   <g id="patch_27">
    <path d="M 607.855403 410.991627 
C 615.202059 410.991627 622.248804 408.07277 627.443675 402.877899 
C 632.638545 397.683029 635.557403 390.636283 635.557403 383.289627 
C 635.557403 375.942971 632.638545 368.896225 627.443675 363.701355 
C 622.248804 358.506485 615.202059 355.587627 607.855403 355.587627 
C 600.508746 355.587627 593.462001 358.506485 588.267131 363.701355 
C 583.07226 368.896225 580.153403 375.942971 580.153403 383.289627 
C 580.153403 390.636283 583.07226 397.683029 588.267131 402.877899 
C 593.462001 408.07277 600.508746 410.991627 607.855403 410.991627 
z
" clip-path="url(#pa6bf634b82)" style="fill: #5087c5; stroke: #222222; stroke-width: 1.2; stroke-linejoin: miter"/>
   </g>
   <g id="text_19">
    <text style="font-weight: 700; font-size: 9.5px; font-family: 'Liberation Sans', 'Arimo', 'DejaVu Sans'; text-anchor: middle; fill: #222222" x="139.873539" y="270.313429" transform="rotate(-0 139.873539 270.313429)">V570</text>
   </g>
   <g id="text_20">
    <text style="font-weight: 700; font-size: 9.5px; font-family: 'Liberation Sans', 'Arimo', 'DejaVu Sans'; text-anchor: middle; fill: #ffffff" x="132.928899" y="483.602951" transform="rotate(-0 132.928899 483.602951)">E846</text>
   </g>
   <g id="text_21">
    <text style="font-weight: 700; font-size: 9.5px; font-family: 'Liberation Sans', 'Arimo', 'DejaVu Sans'; text-anchor: middle; fill: #222222" x="309.986766" y="141.476769" transform="rotate(-0 309.986766 141.476769)">F917</text>
   </g>
   <g id="text_22">
    <text style="font-weight: 700; font-size: 9.5px; font-family: 'Liberation Sans', 'Arimo', 'DejaVu Sans'; text-anchor: middle; fill: #ffffff" x="517.169109" y="192.581379" transform="rotate(-0 517.169109 192.581379)">K920</text>
   </g>
   <g id="text_23">
    <text style="font-weight: 700; font-size: 9.5px; font-family: 'Liberation Sans', 'Arimo', 'DejaVu Sans'; text-anchor: middle; fill: #222222" x="514.816267" y="577.801156" transform="rotate(-0 514.816267 577.801156)">Q921</text>
   </g>
   <g id="text_24">
    <text style="font-weight: 700; font-size: 9.5px; font-family: 'Liberation Sans', 'Arimo', 'DejaVu Sans'; text-anchor: middle; fill: #ffffff" x="607.855403" y="385.748123" transform="rotate(-0 607.855403 385.748123)">K555</text>
   </g>
  </g>
  <g id="patch_28">
   <path d="M 130.640391 714.42 
Q 135.83969 714.42 138.914724 714.42 
" style="fill: none; stroke: #0279ee; stroke-width: 1.9; stroke-linecap: round"/>
   <path d="M 134.114724 712.02 
L 138.914724 714.42 
L 134.114724 716.82 
" style="fill: none; stroke: #0279ee; stroke-width: 1.9; stroke-linecap: round"/>
  </g>
  <g id="patch_29">
   <path d="M 92.16 743.148 
C 93.68757 743.148 95.15278 742.510745 96.232935 741.376582 
C 97.31309 740.242419 97.92 738.703948 97.92 737.1 
C 97.92 735.496052 97.31309 733.957581 96.232935 732.823418 
C 95.15278 731.689255 93.68757 731.052 92.16 731.052 
C 90.63243 731.052 89.16722 731.689255 88.087065 732.823418 
C 87.00691 733.957581 86.4 735.496052 86.4 737.1 
C 86.4 738.703948 87.00691 740.242419 88.087065 741.376582 
C 89.16722 742.510745 90.63243 743.148 92.16 743.148 
z
" style="fill: #5087c5; stroke: #222222; stroke-width: 0.8; stroke-linejoin: miter"/>
  </g>
  <g id="patch_30">
   <path d="M 218.88 743.148 
C 220.40757 743.148 221.87278 742.510745 222.952935 741.376582 
C 224.03309 740.242419 224.64 738.703948 224.64 737.1 
C 224.64 735.496052 224.03309 733.957581 222.952935 732.823418 
C 221.87278 731.689255 220.40757 731.052 218.88 731.052 
C 217.35243 731.052 215.88722 731.689255 214.807065 732.823418 
C 213.72691 733.957581 213.12 735.496052 213.12 737.1 
C 213.12 738.703948 213.72691 740.242419 214.807065 741.376582 
C 215.88722 742.510745 217.35243 743.148 218.88 743.148 
z
" style="fill: #d9584c; stroke: #222222; stroke-width: 0.8; stroke-linejoin: miter"/>
  </g>
  <g id="patch_31">
   <path d="M 345.6 743.148 
C 347.12757 743.148 348.59278 742.510745 349.672935 741.376582 
C 350.75309 740.242419 351.36 738.703948 351.36 737.1 
C 351.36 735.496052 350.75309 733.957581 349.672935 732.823418 
C 348.59278 731.689255 347.12757 731.052 345.6 731.052 
C 344.07243 731.052 342.60722 731.689255 341.527065 732.823418 
C 340.44691 733.957581 339.84 735.496052 339.84 737.1 
C 339.84 738.703948 340.44691 740.242419 341.527065 741.376582 
C 342.60722 742.510745 344.07243 743.148 345.6 743.148 
z
" style="fill: #f5a623; stroke: #222222; stroke-width: 0.8; stroke-linejoin: miter"/>
  </g>
  <g id="patch_32">
   <path d="M 472.32 743.148 
C 473.84757 743.148 475.31278 742.510745 476.392935 741.376582 
C 477.47309 740.242419 478.08 738.703948 478.08 737.1 
C 478.08 735.496052 477.47309 733.957581 476.392935 732.823418 
C 475.31278 731.689255 473.84757 731.052 472.32 731.052 
C 470.79243 731.052 469.32722 731.689255 468.247065 732.823418 
C 467.16691 733.957581 466.56 735.496052 466.56 737.1 
C 466.56 738.703948 467.16691 740.242419 468.247065 741.376582 
C 469.32722 742.510745 470.79243 743.148 472.32 743.148 
z
" style="fill: #8bc34a; stroke: #222222; stroke-width: 0.8; stroke-linejoin: miter"/>
  </g>
  <g id="patch_33">
   <path d="M 599.04 743.148 
C 600.56757 743.148 602.03278 742.510745 603.112935 741.376582 
C 604.19309 740.242419 604.8 738.703948 604.8 737.1 
C 604.8 735.496052 604.19309 733.957581 603.112935 732.823418 
C 602.03278 731.689255 600.56757 731.052 599.04 731.052 
C 597.51243 731.052 596.04722 731.689255 594.967065 732.823418 
C 593.88691 733.957581 593.28 735.496052 593.28 737.1 
C 593.28 738.703948 593.88691 740.242419 594.967065 741.376582 
C 596.04722 742.510745 597.51243 743.148 599.04 743.148 
z
" style="fill: #ffffff; stroke: #dc3912; stroke-width: 2.5; stroke-linejoin: miter"/>
  </g>
  <g id="line2d_62">
   <path d="M 339.84 714.42 
L 354.24 714.42 
" style="fill: none; stroke: #75a025; stroke-opacity: 0.4; stroke-width: 4; stroke-linecap: square"/>
  </g>
  <g id="line2d_63">
   <path d="M 551.04 714.42 
L 565.44 714.42 
" style="fill: none; stroke: #8b4513; stroke-width: 2.2; stroke-linecap: square"/>
  </g>
  <g id="text_25">
   <text style="font-weight: 700; font-size: 14px; font-family: 'Liberation Sans', 'Arimo', 'DejaVu Sans'; text-anchor: middle" x="360" y="21.532383" transform="rotate(-0 360 21.532383)">G729D × 7GQU · HRO761 — RESISTANCE</text>
  </g>
  <g id="text_26">
   <text style="font-size: 10.5px; font-family: 'Liberation Sans', 'Arimo', 'DejaVu Sans'; text-anchor: middle" x="360" y="41.66925" transform="rotate(-0 360 41.66925)">ΔS = -0.78  |  RMSD vs WT = 12.49 Å  |  6 lost / 2 retained / 4 gained</text>
  </g>
  <g id="text_27">
   <text style="font-size: 10.5px; font-family: 'Liberation Sans', 'Arimo', 'DejaVu Sans'; text-anchor: middle" x="360" y="61.320287" transform="rotate(-0 360 61.320287)">PLIP: 6 hydrophobic · 2 H-bond · 1 halogen</text>
  </g>
  <g id="text_28">
   <text style="font-size: 8.5px; font-family: 'Liberation Sans', 'Arimo', 'DejaVu Sans'; text-anchor: start" x="146.64" y="716.619707" transform="rotate(-0 146.64 716.619707)">H-bond</text>
  </g>
  <g id="text_29">
   <text style="font-size: 8.5px; font-family: 'Liberation Sans', 'Arimo', 'DejaVu Sans'; text-anchor: start" x="357.84" y="716.619707" transform="rotate(-0 357.84 716.619707)">Hydrophobic</text>
  </g>
  <g id="text_30">
   <text style="font-size: 8.5px; font-family: 'Liberation Sans', 'Arimo', 'DejaVu Sans'; text-anchor: start" x="569.04" y="716.619707" transform="rotate(-0 569.04 716.619707)">Halogen</text>
  </g>
  <g id="text_31">
   <text style="font-size: 8px; font-family: 'Liberation Sans', 'Arimo', 'DejaVu Sans'; text-anchor: start" x="100.8" y="739.170313" transform="rotate(-0 100.8 739.170313)">Basic</text>
  </g>
  <g id="text_32">
   <text style="font-size: 8px; font-family: 'Liberation Sans', 'Arimo', 'DejaVu Sans'; text-anchor: start" x="227.52" y="739.170313" transform="rotate(-0 227.52 739.170313)">Acidic</text>
  </g>
  <g id="text_33">
   <text style="font-size: 8px; font-family: 'Liberation Sans', 'Arimo', 'DejaVu Sans'; text-anchor: start" x="354.24" y="739.170313" transform="rotate(-0 354.24 739.170313)">Polar</text>
  </g>
  <g id="text_34">
   <text style="font-size: 8px; font-family: 'Liberation Sans', 'Arimo', 'DejaVu Sans'; text-anchor: start" x="480.96" y="739.170313" transform="rotate(-0 480.96 739.170313)">Hydrophobic</text>
  </g>
  <g id="text_35">
   <text style="font-size: 8px; font-family: 'Liberation Sans', 'Arimo', 'DejaVu Sans'; text-anchor: start" x="607.68" y="739.170313" transform="rotate(-0 607.68 739.170313)">Mutation site</text>
  </g>
 </g>
 <defs>
  <clipPath id="pa6bf634b82">
   <rect x="53.82" y="75.6" width="612.36" height="612.36"/>
  </clipPath>
 </defs>
</svg>
