<?xml version="1.0" encoding="utf-8" standalone="no"?>
<!DOCTYPE svg PUBLIC "-//W3C//DTD SVG 1.1//EN"
  "http://www.w3.org/Graphics/SVG/1.1/DTD/svg11.dtd">
<svg xmlns:xlink="http://www.w3.org/1999/xlink" width="720pt" height="756pt" viewBox="0 0 720 756" xmlns="http://www.w3.org/2000/svg" version="1.1">
 <metadata>
  <rdf:RDF xmlns:dc="http://purl.org/dc/elements/1.1/" xmlns:cc="http://creativecommons.org/ns#" xmlns:rdf="http://www.w3.org/1999/02/22-rdf-syntax-ns#">
   <cc:Work>
    <dc:type rdf:resource="http://purl.org/dc/dcmitype/StillImage"/>
    <dc:date>2022-01-01T05:00:00+00:00</dc:date>
    <dc:format>image/svg+xml</dc:format>
    <dc:creator>
     <cc:Agent>
      <dc:title>Matplotlib v3.11.0, https://matplotlib.org/</dc:title>
     </cc:Agent>
    </dc:creator>
   </cc:Work>
  </rdf:RDF>
 </metadata>
 <defs>
  <style type="text/css">*{stroke-linejoin: round; stroke-linecap: butt}</style>
 </defs>
 <g id="figure_1">
  <g id="patch_1">
   <path d="M 0 756 
L 720 756 
L 720 0 
L 0 0 
z
" style="fill: #ffffff"/>
  </g>
  <g id="axes_1">
   <g id="line2d_1">
    <path d="M 403.639523 109.408311 
L 399.747736 115.326763 
L 395.926214 121.277304 
L 392.174955 127.259935 
L 388.493961 133.274654 
L 384.883232 139.321463 
L 381.342766 145.400361 
L 377.872565 151.511349 
L 374.472628 157.654426 
L 371.142956 163.829591 
L 367.883547 170.036846 
L 364.694403 176.276191 
L 361.575524 182.547624 
L 358.526908 188.851147 
L 355.548557 195.186759 
L 352.64047 201.554461 
L 349.802648 207.954251 
L 347.03509 214.386131 
L 344.337796 220.8501 
L 341.710766 227.346158 
L 339.154001 233.874305 
L 336.6675 240.434542 
L 334.251263 247.026868 
L 331.90529 253.651283 
L 329.629582 260.307787 
L 327.424138 266.996381 
L 325.288959 273.717064 
L 323.224043 280.469836 
L 321.229392 287.254697 
L 319.305005 294.071648 
" clip-path="url(#p8f8b74b181)" style="fill: none; stroke: #75a025; stroke-opacity: 0.4; stroke-width: 4; stroke-linecap: round"/>
   </g>
   <g id="line2d_2">
    <path d="M 184.049182 173.781467 
L 184.136059 182.395788 
L 184.31563 190.994831 
L 184.587895 199.578596 
L 184.952855 208.147083 
L 185.410509 216.700291 
L 185.960857 225.23822 
L 186.6039 233.760872 
L 187.339637 242.268245 
L 188.168068 250.76034 
L 189.089194 259.237157 
L 190.103014 267.698695 
L 191.209529 276.144955 
L 192.408737 284.575936 
L 193.70064 292.99164 
L 195.085238 301.392065 
L 196.56253 309.777211 
L 198.132516 318.14708 
L 199.795196 326.50167 
L 201.550571 334.840981 
L 203.39864 343.165015 
L 205.339404 351.47377 
L 207.372862 359.767246 
L 209.499014 368.045445 
L 211.717861 376.308365 
L 214.029401 384.556007 
L 216.433637 392.78837 
L 218.930566 401.005455 
L 221.52019 409.207262 
L 224.202509 417.393791 
" clip-path="url(#p8f8b74b181)" style="fill: none; stroke: #75a025; stroke-opacity: 0.4; stroke-width: 4; stroke-linecap: round"/>
   </g>
   <g id="line2d_3">
    <path d="M 85.488712 411.779225 
L 92.452108 408.025143 
L 99.444369 404.352358 
L 106.465495 400.76087 
L 113.515486 397.250679 
L 120.594343 393.821784 
L 127.702066 390.474185 
L 134.838654 387.207884 
L 142.004107 384.022879 
L 149.198425 380.91917 
L 156.421609 377.896759 
L 163.673659 374.955644 
L 170.954574 372.095826 
L 178.264354 369.317304 
L 185.603 366.620079 
L 192.970511 364.004151 
L 200.366888 361.469519 
L 207.79213 359.016185 
L 215.246237 356.644146 
L 222.72921 354.353405 
L 230.241048 352.14396 
L 237.781752 350.015812 
L 245.351321 347.96896 
L 252.949755 346.003405 
L 260.577055 344.119147 
L 268.23322 342.316186 
L 275.918251 340.594521 
L 283.632147 338.954153 
L 291.374909 337.395081 
L 299.146536 335.917307 
" clip-path="url(#p8f8b74b181)" style="fill: none; stroke: #75a025; stroke-opacity: 0.4; stroke-width: 4; stroke-linecap: round"/>
   </g>
   <g id="line2d_4">
    <path d="M 83.918204 399.489198 
L 88.855808 400.698832 
L 93.798229 401.853238 
L 98.745465 402.952417 
L 103.697517 403.996367 
L 108.654385 404.98509 
L 113.616069 405.918585 
L 118.582569 406.796851 
L 123.553885 407.61989 
L 128.530017 408.387701 
L 133.510965 409.100285 
L 138.496729 409.75764 
L 143.487308 410.359767 
L 148.482704 410.906667 
L 153.482916 411.398338 
L 158.487943 411.834782 
L 163.497787 412.215998 
L 168.512446 412.541986 
L 173.531921 412.812746 
L 178.556212 413.028278 
L 183.585319 413.188582 
L 188.619242 413.293659 
L 193.657981 413.343507 
L 198.701536 413.338128 
L 203.749907 413.277521 
L 208.803094 413.161685 
L 213.861097 412.990622 
L 218.923915 412.764331 
L 223.99155 412.482813 
L 229.064 412.146066 
" clip-path="url(#p8f8b74b181)" style="fill: none; stroke: #75a025; stroke-opacity: 0.4; stroke-width: 4; stroke-linecap: round"/>
   </g>
   <g id="line2d_5">
    <path d="M 213.109041 219.22941 
L 303.203073 303.160478 
" clip-path="url(#p8f8b74b181)" style="fill: none; stroke-dasharray: 7.2,5.4; stroke-dashoffset: 0; stroke: #ff9400; stroke-width: 1.8"/>
   </g>
   <g id="line2d_6">
    <path d="M 207.146073 225.630232 
L 297.240105 309.5613 
" clip-path="url(#p8f8b74b181)" style="fill: none; stroke-dasharray: 7.2,5.4; stroke-dashoffset: 0; stroke: #ff9400; stroke-width: 1.8"/>
   </g>
   <g id="patch_2">
    <path d="M 233.965996 558.50591 
Q 261.32705 502.653043 287.954893 448.296899 
" clip-path="url(#p8f8b74b181)" style="fill: none; stroke: #0279ee; stroke-width: 2; stroke-linecap: round"/>
    <path d="M 279.047279 452.841611 
L 287.954893 448.296899 
L 289.823685 458.120728 
" clip-path="url(#p8f8b74b181)" style="fill: none; stroke: #0279ee; stroke-width: 2; stroke-linecap: round"/>
   </g>
   <g id="line2d_7">
    <path d="M 322.339713 435.719331 
L 336.378243 411.168337 
" clip-path="url(#p8f8b74b181)" style="fill: none; stroke: #222222; stroke-width: 2; stroke-linecap: round"/>
   </g>
   <g id="line2d_8">
    <path d="M 322.135723 386.735118 
L 336.378243 411.168337 
" clip-path="url(#p8f8b74b181)" style="fill: none; stroke: #222222; stroke-width: 2; stroke-linecap: round"/>
   </g>
   <g id="line2d_9">
    <path d="M 294.058665 435.837104 
L 322.339713 435.719331 
" clip-path="url(#p8f8b74b181)" style="fill: none; stroke: #222222; stroke-width: 2; stroke-linecap: round"/>
   </g>
   <g id="line2d_10">
    <path d="M 293.854675 386.852891 
L 322.135723 386.735118 
" clip-path="url(#p8f8b74b181)" style="fill: none; stroke: #222222; stroke-width: 2; stroke-linecap: round"/>
   </g>
   <g id="line2d_11">
    <path d="M 279.816145 411.403885 
L 293.854675 386.852891 
" clip-path="url(#p8f8b74b181)" style="fill: none; stroke: #222222; stroke-width: 2; stroke-linecap: round"/>
   </g>
   <g id="line2d_12">
    <path d="M 279.816145 411.403885 
L 294.058665 435.837104 
" clip-path="url(#p8f8b74b181)" style="fill: none; stroke: #222222; stroke-width: 2; stroke-linecap: round"/>
   </g>
   <g id="line2d_13">
    <path d="M 364.659291 411.050564 
L 378.697821 386.49957 
" clip-path="url(#p8f8b74b181)" style="fill: none; stroke: #222222; stroke-width: 2; stroke-linecap: round"/>
   </g>
   <g id="line2d_14">
    <path d="M 364.659291 411.050564 
L 336.378243 411.168337 
" clip-path="url(#p8f8b74b181)" style="fill: none; stroke: #222222; stroke-width: 2; stroke-linecap: round"/>
   </g>
   <g id="line2d_15">
    <path d="M 378.901811 435.483784 
L 364.659291 411.050564 
" clip-path="url(#p8f8b74b181)" style="fill: none; stroke: #222222; stroke-width: 2; stroke-linecap: round"/>
   </g>
   <g id="line2d_16">
    <path d="M 406.978869 386.381797 
L 378.697821 386.49957 
" clip-path="url(#p8f8b74b181)" style="fill: none; stroke: #222222; stroke-width: 2; stroke-linecap: round"/>
   </g>
   <g id="line2d_17">
    <path d="M 421.221389 410.815017 
L 406.978869 386.381797 
" clip-path="url(#p8f8b74b181)" style="fill: none; stroke: #222222; stroke-width: 2; stroke-linecap: round"/>
   </g>
   <g id="line2d_18">
    <path d="M 421.339162 439.096065 
L 421.221389 410.815017 
" clip-path="url(#p8f8b74b181)" style="fill: none; stroke: #222222; stroke-width: 2; stroke-linecap: round"/>
   </g>
   <g id="line2d_19">
    <path d="M 445.772382 424.853546 
L 421.221389 410.815017 
" clip-path="url(#p8f8b74b181)" style="fill: none; stroke: #222222; stroke-width: 2; stroke-linecap: round"/>
   </g>
   <g id="line2d_20">
    <path d="M 445.772382 424.853546 
L 421.339162 439.096065 
" clip-path="url(#p8f8b74b181)" style="fill: none; stroke: #222222; stroke-width: 2; stroke-linecap: round"/>
   </g>
   <g id="line2d_21">
    <path d="M 421.017399 361.830804 
L 406.978869 386.381797 
" clip-path="url(#p8f8b74b181)" style="fill: none; stroke: #222222; stroke-width: 2; stroke-linecap: round"/>
   </g>
   <g id="line2d_22">
    <path d="M 449.298447 361.71303 
L 421.017399 361.830804 
" clip-path="url(#p8f8b74b181)" style="fill: none; stroke: #222222; stroke-width: 2; stroke-linecap: round"/>
   </g>
   <g id="line2d_23">
    <path d="M 463.540967 386.14625 
L 449.298447 361.71303 
" clip-path="url(#p8f8b74b181)" style="fill: none; stroke: #222222; stroke-width: 2; stroke-linecap: round"/>
   </g>
   <g id="line2d_24">
    <path d="M 439.107747 400.388769 
L 463.540967 386.14625 
" clip-path="url(#p8f8b74b181)" style="fill: none; stroke: #222222; stroke-width: 2; stroke-linecap: round"/>
   </g>
   <g id="line2d_25">
    <path d="M 487.974186 371.90373 
L 463.540967 386.14625 
" clip-path="url(#p8f8b74b181)" style="fill: none; stroke: #222222; stroke-width: 2; stroke-linecap: round"/>
   </g>
   <g id="line2d_26">
    <path d="M 477.783486 410.579469 
L 463.540967 386.14625 
" clip-path="url(#p8f8b74b181)" style="fill: none; stroke: #222222; stroke-width: 2; stroke-linecap: round"/>
   </g>
   <g id="line2d_27">
    <path d="M 463.336977 337.162037 
L 449.298447 361.71303 
" clip-path="url(#p8f8b74b181)" style="fill: none; stroke: #222222; stroke-width: 2; stroke-linecap: round"/>
   </g>
   <g id="line2d_28">
    <path d="M 491.618025 337.044263 
L 463.336977 337.162037 
" clip-path="url(#p8f8b74b181)" style="fill: none; stroke: #222222; stroke-width: 2; stroke-linecap: round"/>
   </g>
   <g id="line2d_29">
    <path d="M 251.535097 411.521658 
L 279.816145 411.403885 
" clip-path="url(#p8f8b74b181)" style="fill: none; stroke: #222222; stroke-width: 2; stroke-linecap: round"/>
   </g>
   <g id="line2d_30">
    <path d="M 223.254048 411.639432 
L 251.535097 411.521658 
" clip-path="url(#p8f8b74b181)" style="fill: none; stroke: #222222; stroke-width: 2; stroke-linecap: round"/>
   </g>
   <g id="line2d_31">
    <path d="M 251.417323 383.24061 
L 251.535097 411.521658 
" clip-path="url(#p8f8b74b181)" style="fill: none; stroke: #222222; stroke-width: 2; stroke-linecap: round"/>
   </g>
   <g id="line2d_32">
    <path d="M 251.65287 439.802707 
L 251.535097 411.521658 
" clip-path="url(#p8f8b74b181)" style="fill: none; stroke: #222222; stroke-width: 2; stroke-linecap: round"/>
   </g>
   <g id="line2d_33">
    <path d="M 336.174253 362.184124 
L 322.135723 386.735118 
" clip-path="url(#p8f8b74b181)" style="fill: none; stroke: #222222; stroke-width: 2; stroke-linecap: round"/>
   </g>
   <g id="line2d_34">
    <path d="M 321.931734 337.750905 
L 336.174253 362.184124 
" clip-path="url(#p8f8b74b181)" style="fill: none; stroke: #222222; stroke-width: 2; stroke-linecap: round"/>
   </g>
   <g id="line2d_35">
    <path d="M 293.650685 337.868678 
L 321.931734 337.750905 
" clip-path="url(#p8f8b74b181)" style="fill: none; stroke: #222222; stroke-width: 2; stroke-linecap: round"/>
   </g>
   <g id="line2d_36">
    <path d="M 335.970263 313.199911 
L 321.931734 337.750905 
" clip-path="url(#p8f8b74b181)" style="fill: none; stroke: #222222; stroke-width: 2; stroke-linecap: round"/>
   </g>
   <g id="line2d_37">
    <path d="M 279.408166 313.435458 
L 293.650685 337.868678 
" clip-path="url(#p8f8b74b181)" style="fill: none; stroke: #222222; stroke-width: 2; stroke-linecap: round"/>
   </g>
   <g id="line2d_38">
    <path d="M 321.727744 288.766691 
L 335.970263 313.199911 
" clip-path="url(#p8f8b74b181)" style="fill: none; stroke: #222222; stroke-width: 2; stroke-linecap: round"/>
   </g>
   <g id="line2d_39">
    <path d="M 293.446695 288.884465 
L 321.727744 288.766691 
" clip-path="url(#p8f8b74b181)" style="fill: none; stroke: #222222; stroke-width: 2; stroke-linecap: round"/>
   </g>
   <g id="line2d_40">
    <path d="M 293.446695 288.884465 
L 279.408166 313.435458 
" clip-path="url(#p8f8b74b181)" style="fill: none; stroke: #222222; stroke-width: 2; stroke-linecap: round"/>
   </g>
   <g id="text_1">
    <g id="patch_3">
     <path d="M 289.48554 441.707964 
L 298.63179 441.707964 
L 298.63179 429.966245 
L 289.48554 429.966245 
z
" style="fill: #ffffff"/>
    </g>
    <text style="font-weight: 700; font-size: 12px; font-family: 'Liberation Sans', 'Arimo', 'DejaVu Sans'; text-anchor: middle; fill: #0879c0" x="294.058665" y="438.942573" transform="rotate(-0 294.058665 438.942573)">N</text>
   </g>
   <g id="text_2">
    <g id="patch_4">
     <path d="M 289.28155 392.723751 
L 298.4278 392.723751 
L 298.4278 380.982032 
L 289.28155 380.982032 
z
" style="fill: #ffffff"/>
    </g>
    <text style="font-weight: 700; font-size: 12px; font-family: 'Liberation Sans', 'Arimo', 'DejaVu Sans'; text-anchor: middle; fill: #0879c0" x="293.854675" y="389.95836" transform="rotate(-0 293.854675 389.95836)">N</text>
   </g>
   <g id="text_3">
    <g id="patch_5">
     <path d="M 374.124696 392.37043 
L 383.270946 392.37043 
L 383.270946 380.628711 
L 374.124696 380.628711 
z
" style="fill: #ffffff"/>
    </g>
    <text style="font-weight: 700; font-size: 12px; font-family: 'Liberation Sans', 'Arimo', 'DejaVu Sans'; text-anchor: middle; fill: #0879c0" x="378.697821" y="389.605039" transform="rotate(-0 378.697821 389.605039)">N</text>
   </g>
   <g id="text_4">
    <g id="patch_6">
     <path d="M 373.994936 441.354643 
L 383.808686 441.354643 
L 383.808686 429.612924 
L 373.994936 429.612924 
z
" style="fill: #ffffff"/>
    </g>
    <text style="font-weight: 700; font-size: 12px; font-family: 'Liberation Sans', 'Arimo', 'DejaVu Sans'; text-anchor: middle; fill: #d40000" x="378.901811" y="438.589252" transform="rotate(-0 378.901811 438.589252)">O</text>
   </g>
   <g id="text_5">
    <g id="patch_7">
     <path d="M 459.298779 392.017109 
L 467.783154 392.017109 
L 467.783154 380.27539 
L 459.298779 380.27539 
z
" style="fill: #ffffff"/>
    </g>
    <text style="font-weight: 700; font-size: 12px; font-family: 'Liberation Sans', 'Arimo', 'DejaVu Sans'; text-anchor: middle; fill: #b8860b" x="463.540967" y="389.251718" transform="rotate(-0 463.540967 389.251718)">S</text>
   </g>
   <g id="text_6">
    <g id="patch_8">
     <path d="M 434.200872 406.259628 
L 444.014622 406.259628 
L 444.014622 394.51791 
L 434.200872 394.51791 
z
" style="fill: #ffffff"/>
    </g>
    <text style="font-weight: 700; font-size: 12px; font-family: 'Liberation Sans', 'Arimo', 'DejaVu Sans'; text-anchor: middle; fill: #d40000" x="439.107747" y="403.494238" transform="rotate(-0 439.107747 403.494238)">O</text>
   </g>
   <g id="text_7">
    <g id="patch_9">
     <path d="M 483.067311 377.77459 
L 492.881061 377.77459 
L 492.881061 366.032871 
L 483.067311 366.032871 
z
" style="fill: #ffffff"/>
    </g>
    <text style="font-weight: 700; font-size: 12px; font-family: 'Liberation Sans', 'Arimo', 'DejaVu Sans'; text-anchor: middle; fill: #d40000" x="487.974186" y="375.009199" transform="rotate(-0 487.974186 375.009199)">O</text>
   </g>
   <g id="text_8">
    <g id="patch_10">
     <path d="M 459.094789 343.032896 
L 467.579164 343.032896 
L 467.579164 331.291177 
L 459.094789 331.291177 
z
" style="fill: #ffffff"/>
    </g>
    <text style="font-weight: 700; font-size: 12px; font-family: 'Liberation Sans', 'Arimo', 'DejaVu Sans'; text-anchor: middle; fill: #b8860b" x="463.336977" y="340.267505" transform="rotate(-0 463.336977 340.267505)">S</text>
   </g>
   <g id="text_9">
    <g id="patch_11">
     <path d="M 247.512636 389.111469 
L 255.322011 389.111469 
L 255.322011 377.36975 
L 247.512636 377.36975 
z
" style="fill: #ffffff"/>
    </g>
    <text style="font-weight: 700; font-size: 12px; font-family: 'Liberation Sans', 'Arimo', 'DejaVu Sans'; text-anchor: middle; fill: #00a040" x="251.417323" y="386.346078" transform="rotate(-0 251.417323 386.346078)">F</text>
   </g>
   <g id="text_10">
    <g id="patch_12">
     <path d="M 247.748183 445.673566 
L 255.557558 445.673566 
L 255.557558 433.931847 
L 247.748183 433.931847 
z
" style="fill: #ffffff"/>
    </g>
    <text style="font-weight: 700; font-size: 12px; font-family: 'Liberation Sans', 'Arimo', 'DejaVu Sans'; text-anchor: middle; fill: #00a040" x="251.65287" y="442.908176" transform="rotate(-0 251.65287 442.908176)">F</text>
   </g>
   <g id="text_11">
    <g id="patch_13">
     <path d="M 331.267378 368.054984 
L 341.081128 368.054984 
L 341.081128 356.313265 
L 331.267378 356.313265 
z
" style="fill: #ffffff"/>
    </g>
    <text style="font-weight: 700; font-size: 12px; font-family: 'Liberation Sans', 'Arimo', 'DejaVu Sans'; text-anchor: middle; fill: #d40000" x="336.174253" y="365.289593" transform="rotate(-0 336.174253 365.289593)">O</text>
   </g>
   <g id="patch_14">
    <path d="M 391.525831 163.635093 
C 398.872488 163.635093 405.919233 160.716236 411.114104 155.521365 
C 416.308974 150.326495 419.227831 143.27975 419.227831 135.933093 
C 419.227831 128.586437 416.308974 121.539692 411.114104 116.344821 
C 405.919233 111.149951 398.872488 108.231093 391.525831 108.231093 
C 384.179175 108.231093 377.13243 111.149951 371.937559 116.344821 
C 366.742689 121.539692 363.823831 128.586437 363.823831 135.933093 
C 363.823831 143.27975 366.742689 150.326495 371.937559 155.521365 
C 377.13243 160.716236 384.179175 163.635093 391.525831 163.635093 
z
" clip-path="url(#p8f8b74b181)" style="fill: #8bc34a; stroke: #222222; stroke-width: 1.2; stroke-linejoin: miter"/>
   </g>
   <g id="patch_15">
    <path d="M 188.791484 230.255262 
C 196.138141 230.255262 203.184886 227.336404 208.379756 222.141534 
C 213.574627 216.946663 216.493484 209.899918 216.493484 202.553262 
C 216.493484 195.206605 213.574627 188.15986 208.379756 182.964989 
C 203.184886 177.770119 196.138141 174.851262 188.791484 174.851262 
C 181.444828 174.851262 174.398083 177.770119 169.203212 182.964989 
C 164.008342 188.15986 161.089484 195.206605 161.089484 202.553262 
C 161.089484 209.899918 164.008342 216.946663 169.203212 222.141534 
C 174.398083 227.336404 181.444828 230.255262 188.791484 230.255262 
z
" clip-path="url(#p8f8b74b181)" style="fill: #f5a623; stroke: #222222; stroke-width: 1.2; stroke-linejoin: miter"/>
   </g>
   <g id="patch_16">
    <path d="M 112.967965 429.724368 
C 120.314622 429.724368 127.361367 426.805511 132.556237 421.61064 
C 137.751108 416.41577 140.669965 409.369024 140.669965 402.022368 
C 140.669965 394.675712 137.751108 387.628967 132.556237 382.434096 
C 127.361367 377.239226 120.314622 374.320368 112.967965 374.320368 
C 105.621309 374.320368 98.574564 377.239226 93.379693 382.434096 
C 88.184823 387.628967 85.265965 394.675712 85.265965 402.022368 
C 85.265965 409.369024 88.184823 416.41577 93.379693 421.61064 
C 98.574564 426.805511 105.621309 429.724368 112.967965 429.724368 
z
" clip-path="url(#p8f8b74b181)" style="fill: #8bc34a; stroke: #222222; stroke-width: 1.2; stroke-linejoin: miter"/>
   </g>
   <g id="patch_17">
    <path d="M 220.256908 614.192644 
C 227.603565 614.192644 234.65031 611.273787 239.84518 606.078917 
C 245.040051 600.884046 247.958908 593.837301 247.958908 586.490644 
C 247.958908 579.143988 245.040051 572.097243 239.84518 566.902372 
C 234.65031 561.707502 227.603565 558.788644 220.256908 558.788644 
C 212.910252 558.788644 205.863507 561.707502 200.668636 566.902372 
C 195.473766 572.097243 192.554908 579.143988 192.554908 586.490644 
C 192.554908 593.837301 195.473766 600.884046 200.668636 606.078917 
C 205.863507 611.273787 212.910252 614.192644 220.256908 614.192644 
z
" clip-path="url(#p8f8b74b181)" style="fill: #5087c5; stroke: #222222; stroke-width: 1.2; stroke-linejoin: miter"/>
   </g>
   <g id="text_12">
    <text style="font-weight: 700; font-size: 9.5px; font-family: 'Liberation Sans', 'Arimo', 'DejaVu Sans'; text-anchor: middle; fill: #222222" x="391.525831" y="138.391589" transform="rotate(-0 391.525831 138.391589)">V570</text>
   </g>
   <g id="text_13">
    <text style="font-weight: 700; font-size: 9.5px; font-family: 'Liberation Sans', 'Arimo', 'DejaVu Sans'; text-anchor: middle; fill: #222222" x="188.791484" y="205.011758" transform="rotate(-0 188.791484 205.011758)">Y849</text>
   </g>
   <g id="text_14">
    <text style="font-weight: 700; font-size: 9.5px; font-family: 'Liberation Sans', 'Arimo', 'DejaVu Sans'; text-anchor: middle; fill: #222222" x="112.967965" y="404.480864" transform="rotate(-0 112.967965 404.480864)">F917</text>
   </g>
   <g id="text_15">
    <text style="font-weight: 700; font-size: 9.5px; font-family: 'Liberation Sans', 'Arimo', 'DejaVu Sans'; text-anchor: middle; fill: #ffffff" x="220.256908" y="588.949141" transform="rotate(-0 220.256908 588.949141)">K898</text>
   </g>
  </g>
  <g id="patch_18">
   <path d="M 130.640391 714.42 
Q 135.83969 714.42 138.914724 714.42 
" style="fill: none; stroke: #0279ee; stroke-width: 1.9; stroke-linecap: round"/>
   <path d="M 134.114724 712.02 
L 138.914724 714.42 
L 134.114724 716.82 
" style="fill: none; stroke: #0279ee; stroke-width: 1.9; stroke-linecap: round"/>
  </g>
  <g id="patch_19">
   <path d="M 92.16 743.148 
C 93.68757 743.148 95.15278 742.510745 96.232935 741.376582 
C 97.31309 740.242419 97.92 738.703948 97.92 737.1 
C 97.92 735.496052 97.31309 733.957581 96.232935 732.823418 
C 95.15278 731.689255 93.68757 731.052 92.16 731.052 
C 90.63243 731.052 89.16722 731.689255 88.087065 732.823418 
C 87.00691 733.957581 86.4 735.496052 86.4 737.1 
C 86.4 738.703948 87.00691 740.242419 88.087065 741.376582 
C 89.16722 742.510745 90.63243 743.148 92.16 743.148 
z
" style="fill: #5087c5; stroke: #222222; stroke-width: 0.8; stroke-linejoin: miter"/>
  </g>
  <g id="patch_20">
   <path d="M 218.88 743.148 
C 220.40757 743.148 221.87278 742.510745 222.952935 741.376582 
C 224.03309 740.242419 224.64 738.703948 224.64 737.1 
C 224.64 735.496052 224.03309 733.957581 222.952935 732.823418 
C 221.87278 731.689255 220.40757 731.052 218.88 731.052 
C 217.35243 731.052 215.88722 731.689255 214.807065 732.823418 
C 213.72691 733.957581 213.12 735.496052 213.12 737.1 
C 213.12 738.703948 213.72691 740.242419 214.807065 741.376582 
C 215.88722 742.510745 217.35243 743.148 218.88 743.148 
z
" style="fill: #d9584c; stroke: #222222; stroke-width: 0.8; stroke-linejoin: miter"/>
  </g>
  <g id="patch_21">
   <path d="M 345.6 743.148 
C 347.12757 743.148 348.59278 742.510745 349.672935 741.376582 
C 350.75309 740.242419 351.36 738.703948 351.36 737.1 
C 351.36 735.496052 350.75309 733.957581 349.672935 732.823418 
C 348.59278 731.689255 347.12757 731.052 345.6 731.052 
C 344.07243 731.052 342.60722 731.689255 341.527065 732.823418 
C 340.44691 733.957581 339.84 735.496052 339.84 737.1 
C 339.84 738.703948 340.44691 740.242419 341.527065 741.376582 
C 342.60722 742.510745 344.07243 743.148 345.6 743.148 
z
" style="fill: #f5a623; stroke: #222222; stroke-width: 0.8; stroke-linejoin: miter"/>
  </g>
  <g id="patch_22">
   <path d="M 472.32 743.148 
C 473.84757 743.148 475.31278 742.510745 476.392935 741.376582 
C 477.47309 740.242419 478.08 738.703948 478.08 737.1 
C 478.08 735.496052 477.47309 733.957581 476.392935 732.823418 
C 475.31278 731.689255 473.84757 731.052 472.32 731.052 
C 470.79243 731.052 469.32722 731.689255 468.247065 732.823418 
C 467.16691 733.957581 466.56 735.496052 466.56 737.1 
C 466.56 738.703948 467.16691 740.242419 468.247065 741.376582 
C 469.32722 742.510745 470.79243 743.148 472.32 743.148 
z
" style="fill: #8bc34a; stroke: #222222; stroke-width: 0.8; stroke-linejoin: miter"/>
  </g>
  <g id="patch_23">
   <path d="M 599.04 743.148 
C 600.56757 743.148 602.03278 742.510745 603.112935 741.376582 
C 604.19309 740.242419 604.8 738.703948 604.8 737.1 
C 604.8 735.496052 604.19309 733.957581 603.112935 732.823418 
C 602.03278 731.689255 600.56757 731.052 599.04 731.052 
C 597.51243 731.052 596.04722 731.689255 594.967065 732.823418 
C 593.88691 733.957581 593.28 735.496052 593.28 737.1 
C 593.28 738.703948 593.88691 740.242419 594.967065 741.376582 
C 596.04722 742.510745 597.51243 743.148 599.04 743.148 
z
" style="fill: #ffffff; stroke: #dc3912; stroke-width: 2.5; stroke-linejoin: miter"/>
  </g>
  <g id="line2d_41">
   <path d="M 339.84 714.42 
L 354.24 714.42 
" style="fill: none; stroke: #75a025; stroke-opacity: 0.4; stroke-width: 4; stroke-linecap: square"/>
  </g>
  <g id="line2d_42">
   <path d="M 551.04 710.64 
L 565.44 710.64 
" style="fill: none; stroke-dasharray: 7.2,5.4; stroke-dashoffset: 0; stroke: #ff9400; stroke-width: 1.8"/>
  </g>
  <g id="line2d_43">
   <path d="M 551.04 718.2 
L 565.44 718.2 
" style="fill: none; stroke-dasharray: 7.2,5.4; stroke-dashoffset: 0; stroke: #ff9400; stroke-width: 1.8"/>
  </g>
  <g id="text_16">
   <text style="font-weight: 700; font-size: 14px; font-family: 'Liberation Sans', 'Arimo', 'DejaVu Sans'; text-anchor: middle" x="360" y="21.532383" transform="rotate(-0 360 21.532383)">I852F × 7GQU · VVD-214_cov — NEUTRAL</text>
  </g>
  <g id="text_17">
   <text style="font-size: 10.5px; font-family: 'Liberation Sans', 'Arimo', 'DejaVu Sans'; text-anchor: middle" x="360" y="41.66925" transform="rotate(-0 360 41.66925)">ΔS = +0.04  |  RMSD vs WT = 0.16 Å  |  1 lost / 4 retained / 0 gained</text>
  </g>
  <g id="text_18">
   <text style="font-size: 10.5px; font-family: 'Liberation Sans', 'Arimo', 'DejaVu Sans'; text-anchor: middle" x="360" y="61.320287" transform="rotate(-0 360 61.320287)">PLIP: 4 hydrophobic · 1 H-bond · 1 π-stack</text>
  </g>
  <g id="text_19">
   <text style="font-size: 8.5px; font-family: 'Liberation Sans', 'Arimo', 'DejaVu Sans'; text-anchor: start" x="146.64" y="716.619707" transform="rotate(-0 146.64 716.619707)">H-bond</text>
  </g>
  <g id="text_20">
   <text style="font-size: 8.5px; font-family: 'Liberation Sans', 'Arimo', 'DejaVu Sans'; text-anchor: start" x="357.84" y="716.619707" transform="rotate(-0 357.84 716.619707)">Hydrophobic</text>
  </g>
  <g id="text_21">
   <text style="font-size: 8.5px; font-family: 'Liberation Sans', 'Arimo', 'DejaVu Sans'; text-anchor: start" x="569.04" y="716.619707" transform="rotate(-0 569.04 716.619707)">π-stack</text>
  </g>
  <g id="text_22">
   <text style="font-size: 8px; font-family: 'Liberation Sans', 'Arimo', 'DejaVu Sans'; text-anchor: start" x="100.8" y="739.170313" transform="rotate(-0 100.8 739.170313)">Basic</text>
  </g>
  <g id="text_23">
   <text style="font-size: 8px; font-family: 'Liberation Sans', 'Arimo', 'DejaVu Sans'; text-anchor: start" x="227.52" y="739.170313" transform="rotate(-0 227.52 739.170313)">Acidic</text>
  </g>
  <g id="text_24">
   <text style="font-size: 8px; font-family: 'Liberation Sans', 'Arimo', 'DejaVu Sans'; text-anchor: start" x="354.24" y="739.170313" transform="rotate(-0 354.24 739.170313)">Polar</text>
  </g>
  <g id="text_25">
   <text style="font-size: 8px; font-family: 'Liberation Sans', 'Arimo', 'DejaVu Sans'; text-anchor: start" x="480.96" y="739.170313" transform="rotate(-0 480.96 739.170313)">Hydrophobic</text>
  </g>
  <g id="text_26">
   <text style="font-size: 8px; font-family: 'Liberation Sans', 'Arimo', 'DejaVu Sans'; text-anchor: start" x="607.68" y="739.170313" transform="rotate(-0 607.68 739.170313)">Mutation site</text>
  </g>
 </g>
 <defs>
  <clipPath id="p8f8b74b181">
   <rect x="53.82" y="75.6" width="612.36" height="612.36"/>
  </clipPath>
 </defs>
</svg>
