<?xml version="1.0" encoding="utf-8" standalone="no"?>
<!DOCTYPE svg PUBLIC "-//W3C//DTD SVG 1.1//EN"
  "http://www.w3.org/Graphics/SVG/1.1/DTD/svg11.dtd">
<svg xmlns:xlink="http://www.w3.org/1999/xlink" width="720pt" height="756pt" viewBox="0 0 720 756" xmlns="http://www.w3.org/2000/svg" version="1.1">
 <metadata>
  <rdf:RDF xmlns:dc="http://purl.org/dc/elements/1.1/" xmlns:cc="http://creativecommons.org/ns#" xmlns:rdf="http://www.w3.org/1999/02/22-rdf-syntax-ns#">
   <cc:Work>
    <dc:type rdf:resource="http://purl.org/dc/dcmitype/StillImage"/>
    <dc:date>2022-01-01T05:00:00+00:00</dc:date>
    <dc:format>image/svg+xml</dc:format>
    <dc:creator>
     <cc:Agent>
      <dc:title>Matplotlib v3.11.0, https://matplotlib.org/</dc:title>
     </cc:Agent>
    </dc:creator>
   </cc:Work>
  </rdf:RDF>
 </metadata>
 <defs>
  <style type="text/css">*{stroke-linejoin: round; stroke-linecap: butt}</style>
 </defs>
 <g id="figure_1">
  <g id="patch_1">
   <path d="M 0 756 
L 720 756 
L 720 0 
L 0 0 
z
" style="fill: #ffffff"/>
  </g>
  <g id="axes_1">
   <g id="line2d_1">
    <path d="M 536.717509 171.657254 
L 528.284534 174.508897 
L 519.896332 177.446676 
L 511.552903 180.470592 
L 503.254247 183.580645 
L 495.000364 186.776835 
L 486.791255 190.059162 
L 478.626918 193.427626 
L 470.507354 196.882226 
L 462.432564 200.422964 
L 454.402546 204.049838 
L 446.417302 207.762849 
L 438.47683 211.561997 
L 430.581132 215.447282 
L 422.730207 219.418704 
L 414.924055 223.476262 
L 407.162675 227.619957 
L 399.446069 231.84979 
L 391.774236 236.165759 
L 384.147176 240.567865 
L 376.564889 245.056107 
L 369.027376 249.630487 
L 361.534635 254.291003 
L 354.086667 259.037657 
L 346.683472 263.870447 
L 339.325051 268.789374 
L 332.011402 273.794438 
L 324.742527 278.885638 
L 317.518424 284.062976 
L 310.339095 289.32645 
" clip-path="url(#pf44d692cc6)" style="fill: none; stroke: #75a025; stroke-opacity: 0.4; stroke-width: 4; stroke-linecap: round"/>
   </g>
   <g id="line2d_2">
    <path d="M 115.668897 509.106224 
L 119.061781 504.471114 
L 122.49897 499.880288 
L 125.980464 495.333745 
L 129.506263 490.831484 
L 133.076367 486.373507 
L 136.690776 481.959813 
L 140.34949 477.590402 
L 144.052509 473.265274 
L 147.799834 468.984429 
L 151.591463 464.747867 
L 155.427398 460.555588 
L 159.307637 456.407593 
L 163.232182 452.30388 
L 167.201031 448.244451 
L 171.214186 444.229304 
L 175.271646 440.258441 
L 179.37341 436.331861 
L 183.51948 432.449563 
L 187.709855 428.611549 
L 191.944535 424.817818 
L 196.22352 421.068371 
L 200.54681 417.363206 
L 204.914406 413.702324 
L 209.326306 410.085725 
L 213.782511 406.51341 
L 218.283022 402.985377 
L 222.827837 399.501628 
L 227.416958 396.062162 
L 232.050383 392.666979 
" clip-path="url(#pf44d692cc6)" style="fill: none; stroke: #75a025; stroke-opacity: 0.4; stroke-width: 4; stroke-linecap: round"/>
   </g>
   <g id="line2d_3">
    <path d="M 108.732244 265.520787 
L 116.183987 266.885031 
L 123.60862 268.327314 
L 131.006144 269.847634 
L 138.376559 271.445993 
L 145.719865 273.122391 
L 153.036061 274.876826 
L 160.325148 276.7093 
L 167.587125 278.619812 
L 174.821994 280.608362 
L 182.029753 282.67495 
L 189.210403 284.819576 
L 196.363943 287.042241 
L 203.490374 289.342944 
L 210.589696 291.721685 
L 217.661909 294.178464 
L 224.707012 296.713282 
L 231.725006 299.326137 
L 238.715891 302.017031 
L 245.679667 304.785963 
L 252.616333 307.632934 
L 259.52589 310.557942 
L 266.408337 313.560989 
L 273.263676 316.642074 
L 280.091905 319.801197 
L 286.893025 323.038358 
L 293.667035 326.353558 
L 300.413936 329.746796 
L 307.133728 333.218072 
L 313.826411 336.767386 
" clip-path="url(#pf44d692cc6)" style="fill: none; stroke: #75a025; stroke-opacity: 0.4; stroke-width: 4; stroke-linecap: round"/>
   </g>
   <g id="patch_2">
    <path d="M 300.787115 591.652275 
Q 297.616825 517.569542 294.517793 445.151952 
" clip-path="url(#pf44d692cc6)" style="fill: none; stroke: #0279ee; stroke-width: 2; stroke-linecap: round"/>
    <path d="M 288.865318 453.401166 
L 294.517793 445.151952 
L 300.854345 452.888109 
" clip-path="url(#pf44d692cc6)" style="fill: none; stroke: #0279ee; stroke-width: 2; stroke-linecap: round"/>
   </g>
   <g id="line2d_4">
    <path d="M 310.416856 169.066497 
L 328.772706 302.114566 
" clip-path="url(#pf44d692cc6)" style="fill: none; stroke-dasharray: 7.2,5.4; stroke-dashoffset: 0; stroke: #ff9400; stroke-width: 1.8"/>
   </g>
   <g id="line2d_5">
    <path d="M 301.750941 170.262081 
L 320.106791 303.310151 
" clip-path="url(#pf44d692cc6)" style="fill: none; stroke-dasharray: 7.2,5.4; stroke-dashoffset: 0; stroke: #ff9400; stroke-width: 1.8"/>
   </g>
   <g id="line2d_6">
    <path d="M 293.924478 431.287473 
L 283.603669 405.101578 
" clip-path="url(#pf44d692cc6)" style="fill: none; stroke: #222222; stroke-width: 2; stroke-linecap: round"/>
   </g>
   <g id="line2d_7">
    <path d="M 321.762533 435.442337 
L 293.924478 431.287473 
" clip-path="url(#pf44d692cc6)" style="fill: none; stroke: #222222; stroke-width: 2; stroke-linecap: round"/>
   </g>
   <g id="line2d_8">
    <path d="M 339.279778 413.411307 
L 321.762533 435.442337 
" clip-path="url(#pf44d692cc6)" style="fill: none; stroke: #222222; stroke-width: 2; stroke-linecap: round"/>
   </g>
   <g id="line2d_9">
    <path d="M 328.958969 387.225412 
L 339.279778 413.411307 
" clip-path="url(#pf44d692cc6)" style="fill: none; stroke: #222222; stroke-width: 2; stroke-linecap: round"/>
   </g>
   <g id="line2d_10">
    <path d="M 301.120915 383.070548 
L 328.958969 387.225412 
" clip-path="url(#pf44d692cc6)" style="fill: none; stroke: #222222; stroke-width: 2; stroke-linecap: round"/>
   </g>
   <g id="line2d_11">
    <path d="M 301.120915 383.070548 
L 283.603669 405.101578 
" clip-path="url(#pf44d692cc6)" style="fill: none; stroke: #222222; stroke-width: 2; stroke-linecap: round"/>
   </g>
   <g id="line2d_12">
    <path d="M 255.765614 400.946713 
L 227.92756 396.791848 
" clip-path="url(#pf44d692cc6)" style="fill: none; stroke: #222222; stroke-width: 2; stroke-linecap: round"/>
   </g>
   <g id="line2d_13">
    <path d="M 255.765614 400.946713 
L 283.603669 405.101578 
" clip-path="url(#pf44d692cc6)" style="fill: none; stroke: #222222; stroke-width: 2; stroke-linecap: round"/>
   </g>
   <g id="line2d_14">
    <path d="M 259.920479 373.108658 
L 255.765614 400.946713 
" clip-path="url(#pf44d692cc6)" style="fill: none; stroke: #222222; stroke-width: 2; stroke-linecap: round"/>
   </g>
   <g id="line2d_15">
    <path d="M 251.61075 428.784768 
L 255.765614 400.946713 
" clip-path="url(#pf44d692cc6)" style="fill: none; stroke: #222222; stroke-width: 2; stroke-linecap: round"/>
   </g>
   <g id="line2d_16">
    <path d="M 367.117833 417.566172 
L 339.279778 413.411307 
" clip-path="url(#pf44d692cc6)" style="fill: none; stroke: #222222; stroke-width: 2; stroke-linecap: round"/>
   </g>
   <g id="line2d_17">
    <path d="M 377.438642 443.752067 
L 367.117833 417.566172 
" clip-path="url(#pf44d692cc6)" style="fill: none; stroke: #222222; stroke-width: 2; stroke-linecap: round"/>
   </g>
   <g id="line2d_18">
    <path d="M 384.635079 395.535142 
L 367.117833 417.566172 
" clip-path="url(#pf44d692cc6)" style="fill: none; stroke: #222222; stroke-width: 2; stroke-linecap: round"/>
   </g>
   <g id="line2d_19">
    <path d="M 412.473133 399.690006 
L 384.635079 395.535142 
" clip-path="url(#pf44d692cc6)" style="fill: none; stroke: #222222; stroke-width: 2; stroke-linecap: round"/>
   </g>
   <g id="line2d_20">
    <path d="M 422.793942 425.875901 
L 412.473133 399.690006 
" clip-path="url(#pf44d692cc6)" style="fill: none; stroke: #222222; stroke-width: 2; stroke-linecap: round"/>
   </g>
   <g id="line2d_21">
    <path d="M 418.639078 453.713956 
L 422.793942 425.875901 
" clip-path="url(#pf44d692cc6)" style="fill: none; stroke: #222222; stroke-width: 2; stroke-linecap: round"/>
   </g>
   <g id="line2d_22">
    <path d="M 444.824973 443.393147 
L 418.639078 453.713956 
" clip-path="url(#pf44d692cc6)" style="fill: none; stroke: #222222; stroke-width: 2; stroke-linecap: round"/>
   </g>
   <g id="line2d_23">
    <path d="M 444.824973 443.393147 
L 422.793942 425.875901 
" clip-path="url(#pf44d692cc6)" style="fill: none; stroke: #222222; stroke-width: 2; stroke-linecap: round"/>
   </g>
   <g id="line2d_24">
    <path d="M 429.990379 377.658976 
L 412.473133 399.690006 
" clip-path="url(#pf44d692cc6)" style="fill: none; stroke: #222222; stroke-width: 2; stroke-linecap: round"/>
   </g>
   <g id="line2d_25">
    <path d="M 457.828434 381.813841 
L 429.990379 377.658976 
" clip-path="url(#pf44d692cc6)" style="fill: none; stroke: #222222; stroke-width: 2; stroke-linecap: round"/>
   </g>
   <g id="line2d_26">
    <path d="M 475.34568 359.782811 
L 457.828434 381.813841 
" clip-path="url(#pf44d692cc6)" style="fill: none; stroke: #222222; stroke-width: 2; stroke-linecap: round"/>
   </g>
   <g id="line2d_27">
    <path d="M 492.862925 337.751781 
L 475.34568 359.782811 
" clip-path="url(#pf44d692cc6)" style="fill: none; stroke: #222222; stroke-width: 2; stroke-linecap: round"/>
   </g>
   <g id="line2d_28">
    <path d="M 453.314649 342.265565 
L 475.34568 359.782811 
" clip-path="url(#pf44d692cc6)" style="fill: none; stroke: #222222; stroke-width: 2; stroke-linecap: round"/>
   </g>
   <g id="line2d_29">
    <path d="M 497.37671 377.300057 
L 475.34568 359.782811 
" clip-path="url(#pf44d692cc6)" style="fill: none; stroke: #222222; stroke-width: 2; stroke-linecap: round"/>
   </g>
   <g id="line2d_30">
    <path d="M 346.476215 365.194382 
L 328.958969 387.225412 
" clip-path="url(#pf44d692cc6)" style="fill: none; stroke: #222222; stroke-width: 2; stroke-linecap: round"/>
   </g>
   <g id="line2d_31">
    <path d="M 336.155406 339.008487 
L 346.476215 365.194382 
" clip-path="url(#pf44d692cc6)" style="fill: none; stroke: #222222; stroke-width: 2; stroke-linecap: round"/>
   </g>
   <g id="line2d_32">
    <path d="M 308.317352 334.853622 
L 336.155406 339.008487 
" clip-path="url(#pf44d692cc6)" style="fill: none; stroke: #222222; stroke-width: 2; stroke-linecap: round"/>
   </g>
   <g id="line2d_33">
    <path d="M 297.996543 308.667728 
L 308.317352 334.853622 
" clip-path="url(#pf44d692cc6)" style="fill: none; stroke: #222222; stroke-width: 2; stroke-linecap: round"/>
   </g>
   <g id="line2d_34">
    <path d="M 315.513788 286.636697 
L 297.996543 308.667728 
" clip-path="url(#pf44d692cc6)" style="fill: none; stroke: #222222; stroke-width: 2; stroke-linecap: round"/>
   </g>
   <g id="line2d_35">
    <path d="M 343.351843 290.791562 
L 315.513788 286.636697 
" clip-path="url(#pf44d692cc6)" style="fill: none; stroke: #222222; stroke-width: 2; stroke-linecap: round"/>
   </g>
   <g id="line2d_36">
    <path d="M 353.672652 316.977457 
L 343.351843 290.791562 
" clip-path="url(#pf44d692cc6)" style="fill: none; stroke: #222222; stroke-width: 2; stroke-linecap: round"/>
   </g>
   <g id="line2d_37">
    <path d="M 353.672652 316.977457 
L 336.155406 339.008487 
" clip-path="url(#pf44d692cc6)" style="fill: none; stroke: #222222; stroke-width: 2; stroke-linecap: round"/>
   </g>
   <g id="text_1">
    <g id="patch_3">
     <path d="M 289.351353 437.158332 
L 298.497603 437.158332 
L 298.497603 425.416613 
L 289.351353 425.416613 
z
" style="fill: #ffffff"/>
    </g>
    <text style="font-weight: 700; font-size: 12px; font-family: 'Liberation Sans', 'Arimo', 'DejaVu Sans'; text-anchor: middle; fill: #0879c0" x="293.924478" y="434.392941" transform="rotate(-0 293.924478 434.392941)">N</text>
   </g>
   <g id="text_2">
    <g id="patch_4">
     <path d="M 296.54779 388.941407 
L 305.69404 388.941407 
L 305.69404 377.199688 
L 296.54779 377.199688 
z
" style="fill: #ffffff"/>
    </g>
    <text style="font-weight: 700; font-size: 12px; font-family: 'Liberation Sans', 'Arimo', 'DejaVu Sans'; text-anchor: middle; fill: #0879c0" x="301.120915" y="386.176016" transform="rotate(-0 301.120915 386.176016)">N</text>
   </g>
   <g id="text_3">
    <g id="patch_5">
     <path d="M 256.015792 378.979518 
L 263.825167 378.979518 
L 263.825167 367.237799 
L 256.015792 367.237799 
z
" style="fill: #ffffff"/>
    </g>
    <text style="font-weight: 700; font-size: 12px; font-family: 'Liberation Sans', 'Arimo', 'DejaVu Sans'; text-anchor: middle; fill: #00a040" x="259.920479" y="376.214127" transform="rotate(-0 259.920479 376.214127)">F</text>
   </g>
   <g id="text_4">
    <g id="patch_6">
     <path d="M 247.706062 434.655627 
L 255.515437 434.655627 
L 255.515437 422.913908 
L 247.706062 422.913908 
z
" style="fill: #ffffff"/>
    </g>
    <text style="font-weight: 700; font-size: 12px; font-family: 'Liberation Sans', 'Arimo', 'DejaVu Sans'; text-anchor: middle; fill: #00a040" x="251.61075" y="431.890236" transform="rotate(-0 251.61075 431.890236)">F</text>
   </g>
   <g id="text_5">
    <g id="patch_7">
     <path d="M 372.531767 449.622926 
L 382.345517 449.622926 
L 382.345517 437.881207 
L 372.531767 437.881207 
z
" style="fill: #ffffff"/>
    </g>
    <text style="font-weight: 700; font-size: 12px; font-family: 'Liberation Sans', 'Arimo', 'DejaVu Sans'; text-anchor: middle; fill: #d40000" x="377.438642" y="446.857536" transform="rotate(-0 377.438642 446.857536)">O</text>
   </g>
   <g id="text_6">
    <g id="patch_8">
     <path d="M 380.061954 401.406001 
L 389.208204 401.406001 
L 389.208204 389.664282 
L 380.061954 389.664282 
z
" style="fill: #ffffff"/>
    </g>
    <text style="font-weight: 700; font-size: 12px; font-family: 'Liberation Sans', 'Arimo', 'DejaVu Sans'; text-anchor: middle; fill: #0879c0" x="384.635079" y="398.64061" transform="rotate(-0 384.635079 398.64061)">N</text>
   </g>
   <g id="text_7">
    <g id="patch_9">
     <path d="M 471.103492 365.65367 
L 479.587867 365.65367 
L 479.587867 353.911951 
L 471.103492 353.911951 
z
" style="fill: #ffffff"/>
    </g>
    <text style="font-weight: 700; font-size: 12px; font-family: 'Liberation Sans', 'Arimo', 'DejaVu Sans'; text-anchor: middle; fill: #b8860b" x="475.34568" y="362.88828" transform="rotate(-0 475.34568 362.88828)">S</text>
   </g>
   <g id="text_8">
    <g id="patch_10">
     <path d="M 448.407774 348.136424 
L 458.221524 348.136424 
L 458.221524 336.394706 
L 448.407774 336.394706 
z
" style="fill: #ffffff"/>
    </g>
    <text style="font-weight: 700; font-size: 12px; font-family: 'Liberation Sans', 'Arimo', 'DejaVu Sans'; text-anchor: middle; fill: #d40000" x="453.314649" y="345.371034" transform="rotate(-0 453.314649 345.371034)">O</text>
   </g>
   <g id="text_9">
    <g id="patch_11">
     <path d="M 492.469835 383.170916 
L 502.283585 383.170916 
L 502.283585 371.429197 
L 492.469835 371.429197 
z
" style="fill: #ffffff"/>
    </g>
    <text style="font-weight: 700; font-size: 12px; font-family: 'Liberation Sans', 'Arimo', 'DejaVu Sans'; text-anchor: middle; fill: #d40000" x="497.37671" y="380.405525" transform="rotate(-0 497.37671 380.405525)">O</text>
   </g>
   <g id="text_10">
    <g id="patch_12">
     <path d="M 341.56934 371.065241 
L 351.38309 371.065241 
L 351.38309 359.323523 
L 341.56934 359.323523 
z
" style="fill: #ffffff"/>
    </g>
    <text style="font-weight: 700; font-size: 12px; font-family: 'Liberation Sans', 'Arimo', 'DejaVu Sans'; text-anchor: middle; fill: #d40000" x="346.476215" y="368.299851" transform="rotate(-0 346.476215 368.299851)">O</text>
   </g>
   <g id="patch_13">
    <path d="M 510.844042 212.808019 
C 518.190698 212.808019 525.237443 209.889162 530.432314 204.694291 
C 535.627184 199.499421 538.546042 192.452675 538.546042 185.106019 
C 538.546042 177.759363 535.627184 170.712618 530.432314 165.517747 
C 525.237443 160.322877 518.190698 157.404019 510.844042 157.404019 
C 503.497385 157.404019 496.45064 160.322877 491.255769 165.517747 
C 486.060899 170.712618 483.142042 177.759363 483.142042 185.106019 
C 483.142042 192.452675 486.060899 199.499421 491.255769 204.694291 
C 496.45064 209.889162 503.497385 212.808019 510.844042 212.808019 
z
" clip-path="url(#pf44d692cc6)" style="fill: #8bc34a; stroke: #222222; stroke-width: 1.2; stroke-linejoin: miter"/>
   </g>
   <g id="patch_14">
    <path d="M 136.283015 516.183876 
C 143.629671 516.183876 150.676417 513.265018 155.871287 508.070148 
C 161.066158 502.875277 163.985015 495.828532 163.985015 488.481876 
C 163.985015 481.135219 161.066158 474.088474 155.871287 468.893604 
C 150.676417 463.698733 143.629671 460.779876 136.283015 460.779876 
C 128.936359 460.779876 121.889614 463.698733 116.694743 468.893604 
C 111.499873 474.088474 108.581015 481.135219 108.581015 488.481876 
C 108.581015 495.828532 111.499873 502.875277 116.694743 508.070148 
C 121.889614 513.265018 128.936359 516.183876 136.283015 516.183876 
z
" clip-path="url(#pf44d692cc6)" style="fill: #5087c5; stroke: #222222; stroke-width: 1.2; stroke-linejoin: miter"/>
   </g>
   <g id="patch_15">
    <path d="M 136.27754 302.791604 
C 143.624196 302.791604 150.670942 299.872747 155.865812 294.677876 
C 161.060683 289.483006 163.97954 282.436261 163.97954 275.089604 
C 163.97954 267.742948 161.060683 260.696203 155.865812 255.501332 
C 150.670942 250.306462 143.624196 247.387604 136.27754 247.387604 
C 128.930884 247.387604 121.884139 250.306462 116.689268 255.501332 
C 111.494398 260.696203 108.57554 267.742948 108.57554 275.089604 
C 108.57554 282.436261 111.494398 289.483006 116.689268 294.677876 
C 121.884139 299.872747 128.930884 302.791604 136.27754 302.791604 
z
" clip-path="url(#pf44d692cc6)" style="fill: #8bc34a; stroke: #222222; stroke-width: 1.2; stroke-linejoin: miter"/>
   </g>
   <g id="patch_16">
    <path d="M 302.119496 650.48911 
C 309.466152 650.48911 316.512898 647.570252 321.707768 642.375382 
C 326.902639 637.180511 329.821496 630.133766 329.821496 622.78711 
C 329.821496 615.440453 326.902639 608.393708 321.707768 603.198838 
C 316.512898 598.003967 309.466152 595.08511 302.119496 595.08511 
C 294.77284 595.08511 287.726095 598.003967 282.531224 603.198838 
C 277.336354 608.393708 274.417496 615.440453 274.417496 622.78711 
C 274.417496 630.133766 277.336354 637.180511 282.531224 642.375382 
C 287.726095 647.570252 294.77284 650.48911 302.119496 650.48911 
z
" clip-path="url(#pf44d692cc6)" style="fill: #5087c5; stroke: #222222; stroke-width: 1.2; stroke-linejoin: miter"/>
   </g>
   <g id="patch_17">
    <path d="M 302.098616 168.479906 
C 309.445272 168.479906 316.492018 165.561049 321.686888 160.366178 
C 326.881758 155.171308 329.800616 148.124562 329.800616 140.777906 
C 329.800616 133.43125 326.881758 126.384504 321.686888 121.189634 
C 316.492018 115.994763 309.445272 113.075906 302.098616 113.075906 
C 294.75196 113.075906 287.705214 115.994763 282.510344 121.189634 
C 277.315473 126.384504 274.396616 133.43125 274.396616 140.777906 
C 274.396616 148.124562 277.315473 155.171308 282.510344 160.366178 
C 287.705214 165.561049 294.75196 168.479906 302.098616 168.479906 
z
" clip-path="url(#pf44d692cc6)" style="fill: #f5a623; stroke: #222222; stroke-width: 1.2; stroke-linejoin: miter"/>
   </g>
   <g id="text_11">
    <text style="font-weight: 700; font-size: 9.5px; font-family: 'Liberation Sans', 'Arimo', 'DejaVu Sans'; text-anchor: middle; fill: #222222" x="510.844042" y="187.564515" transform="rotate(-0 510.844042 187.564515)">V570</text>
   </g>
   <g id="text_12">
    <text style="font-weight: 700; font-size: 9.5px; font-family: 'Liberation Sans', 'Arimo', 'DejaVu Sans'; text-anchor: middle; fill: #ffffff" x="136.283015" y="490.940372" transform="rotate(-0 136.283015 490.940372)">H916</text>
   </g>
   <g id="text_13">
    <text style="font-weight: 700; font-size: 9.5px; font-family: 'Liberation Sans', 'Arimo', 'DejaVu Sans'; text-anchor: middle; fill: #222222" x="136.27754" y="277.5481" transform="rotate(-0 136.27754 277.5481)">F917</text>
   </g>
   <g id="text_14">
    <text style="font-weight: 700; font-size: 9.5px; font-family: 'Liberation Sans', 'Arimo', 'DejaVu Sans'; text-anchor: middle; fill: #ffffff" x="302.119496" y="625.245606" transform="rotate(-0 302.119496 625.245606)">K898</text>
   </g>
   <g id="text_15">
    <text style="font-weight: 700; font-size: 9.5px; font-family: 'Liberation Sans', 'Arimo', 'DejaVu Sans'; text-anchor: middle; fill: #222222" x="302.098616" y="143.236402" transform="rotate(-0 302.098616 143.236402)">Y849</text>
   </g>
  </g>
  <g id="patch_18">
   <path d="M 130.640391 714.42 
Q 135.83969 714.42 138.914724 714.42 
" style="fill: none; stroke: #0279ee; stroke-width: 1.9; stroke-linecap: round"/>
   <path d="M 134.114724 712.02 
L 138.914724 714.42 
L 134.114724 716.82 
" style="fill: none; stroke: #0279ee; stroke-width: 1.9; stroke-linecap: round"/>
  </g>
  <g id="patch_19">
   <path d="M 92.16 743.148 
C 93.68757 743.148 95.15278 742.510745 96.232935 741.376582 
C 97.31309 740.242419 97.92 738.703948 97.92 737.1 
C 97.92 735.496052 97.31309 733.957581 96.232935 732.823418 
C 95.15278 731.689255 93.68757 731.052 92.16 731.052 
C 90.63243 731.052 89.16722 731.689255 88.087065 732.823418 
C 87.00691 733.957581 86.4 735.496052 86.4 737.1 
C 86.4 738.703948 87.00691 740.242419 88.087065 741.376582 
C 89.16722 742.510745 90.63243 743.148 92.16 743.148 
z
" style="fill: #5087c5; stroke: #222222; stroke-width: 0.8; stroke-linejoin: miter"/>
  </g>
  <g id="patch_20">
   <path d="M 218.88 743.148 
C 220.40757 743.148 221.87278 742.510745 222.952935 741.376582 
C 224.03309 740.242419 224.64 738.703948 224.64 737.1 
C 224.64 735.496052 224.03309 733.957581 222.952935 732.823418 
C 221.87278 731.689255 220.40757 731.052 218.88 731.052 
C 217.35243 731.052 215.88722 731.689255 214.807065 732.823418 
C 213.72691 733.957581 213.12 735.496052 213.12 737.1 
C 213.12 738.703948 213.72691 740.242419 214.807065 741.376582 
C 215.88722 742.510745 217.35243 743.148 218.88 743.148 
z
" style="fill: #d9584c; stroke: #222222; stroke-width: 0.8; stroke-linejoin: miter"/>
  </g>
  <g id="patch_21">
   <path d="M 345.6 743.148 
C 347.12757 743.148 348.59278 742.510745 349.672935 741.376582 
C 350.75309 740.242419 351.36 738.703948 351.36 737.1 
C 351.36 735.496052 350.75309 733.957581 349.672935 732.823418 
C 348.59278 731.689255 347.12757 731.052 345.6 731.052 
C 344.07243 731.052 342.60722 731.689255 341.527065 732.823418 
C 340.44691 733.957581 339.84 735.496052 339.84 737.1 
C 339.84 738.703948 340.44691 740.242419 341.527065 741.376582 
C 342.60722 742.510745 344.07243 743.148 345.6 743.148 
z
" style="fill: #f5a623; stroke: #222222; stroke-width: 0.8; stroke-linejoin: miter"/>
  </g>
  <g id="patch_22">
   <path d="M 472.32 743.148 
C 473.84757 743.148 475.31278 742.510745 476.392935 741.376582 
C 477.47309 740.242419 478.08 738.703948 478.08 737.1 
C 478.08 735.496052 477.47309 733.957581 476.392935 732.823418 
C 475.31278 731.689255 473.84757 731.052 472.32 731.052 
C 470.79243 731.052 469.32722 731.689255 468.247065 732.823418 
C 467.16691 733.957581 466.56 735.496052 466.56 737.1 
C 466.56 738.703948 467.16691 740.242419 468.247065 741.376582 
C 469.32722 742.510745 470.79243 743.148 472.32 743.148 
z
" style="fill: #8bc34a; stroke: #222222; stroke-width: 0.8; stroke-linejoin: miter"/>
  </g>
  <g id="patch_23">
   <path d="M 599.04 743.148 
C 600.56757 743.148 602.03278 742.510745 603.112935 741.376582 
C 604.19309 740.242419 604.8 738.703948 604.8 737.1 
C 604.8 735.496052 604.19309 733.957581 603.112935 732.823418 
C 602.03278 731.689255 600.56757 731.052 599.04 731.052 
C 597.51243 731.052 596.04722 731.689255 594.967065 732.823418 
C 593.88691 733.957581 593.28 735.496052 593.28 737.1 
C 593.28 738.703948 593.88691 740.242419 594.967065 741.376582 
C 596.04722 742.510745 597.51243 743.148 599.04 743.148 
z
" style="fill: #ffffff; stroke: #dc3912; stroke-width: 2.5; stroke-linejoin: miter"/>
  </g>
  <g id="line2d_38">
   <path d="M 339.84 714.42 
L 354.24 714.42 
" style="fill: none; stroke: #75a025; stroke-opacity: 0.4; stroke-width: 4; stroke-linecap: square"/>
  </g>
  <g id="line2d_39">
   <path d="M 551.04 710.64 
L 565.44 710.64 
" style="fill: none; stroke-dasharray: 7.2,5.4; stroke-dashoffset: 0; stroke: #ff9400; stroke-width: 1.8"/>
  </g>
  <g id="line2d_40">
   <path d="M 551.04 718.2 
L 565.44 718.2 
" style="fill: none; stroke-dasharray: 7.2,5.4; stroke-dashoffset: 0; stroke: #ff9400; stroke-width: 1.8"/>
  </g>
  <g id="text_16">
   <text style="font-weight: 700; font-size: 14px; font-family: 'Liberation Sans', 'Arimo', 'DejaVu Sans'; text-anchor: middle" x="360" y="21.532383" transform="rotate(-0 360 21.532383)">I852F × 7GQU · VVD-214 — NEUTRAL</text>
  </g>
  <g id="text_17">
   <text style="font-size: 10.5px; font-family: 'Liberation Sans', 'Arimo', 'DejaVu Sans'; text-anchor: middle" x="360" y="41.66925" transform="rotate(-0 360 41.66925)">ΔS = +0.04  |  RMSD vs WT = 0.72 Å  |  0 lost / 4 retained / 1 gained</text>
  </g>
  <g id="text_18">
   <text style="font-size: 10.5px; font-family: 'Liberation Sans', 'Arimo', 'DejaVu Sans'; text-anchor: middle" x="360" y="61.320287" transform="rotate(-0 360 61.320287)">PLIP: 3 hydrophobic · 1 H-bond · 1 π-stack</text>
  </g>
  <g id="text_19">
   <text style="font-size: 8.5px; font-family: 'Liberation Sans', 'Arimo', 'DejaVu Sans'; text-anchor: start" x="146.64" y="716.619707" transform="rotate(-0 146.64 716.619707)">H-bond</text>
  </g>
  <g id="text_20">
   <text style="font-size: 8.5px; font-family: 'Liberation Sans', 'Arimo', 'DejaVu Sans'; text-anchor: start" x="357.84" y="716.619707" transform="rotate(-0 357.84 716.619707)">Hydrophobic</text>
  </g>
  <g id="text_21">
   <text style="font-size: 8.5px; font-family: 'Liberation Sans', 'Arimo', 'DejaVu Sans'; text-anchor: start" x="569.04" y="716.619707" transform="rotate(-0 569.04 716.619707)">π-stack</text>
  </g>
  <g id="text_22">
   <text style="font-size: 8px; font-family: 'Liberation Sans', 'Arimo', 'DejaVu Sans'; text-anchor: start" x="100.8" y="739.170313" transform="rotate(-0 100.8 739.170313)">Basic</text>
  </g>
  <g id="text_23">
   <text style="font-size: 8px; font-family: 'Liberation Sans', 'Arimo', 'DejaVu Sans'; text-anchor: start" x="227.52" y="739.170313" transform="rotate(-0 227.52 739.170313)">Acidic</text>
  </g>
  <g id="text_24">
   <text style="font-size: 8px; font-family: 'Liberation Sans', 'Arimo', 'DejaVu Sans'; text-anchor: start" x="354.24" y="739.170313" transform="rotate(-0 354.24 739.170313)">Polar</text>
  </g>
  <g id="text_25">
   <text style="font-size: 8px; font-family: 'Liberation Sans', 'Arimo', 'DejaVu Sans'; text-anchor: start" x="480.96" y="739.170313" transform="rotate(-0 480.96 739.170313)">Hydrophobic</text>
  </g>
  <g id="text_26">
   <text style="font-size: 8px; font-family: 'Liberation Sans', 'Arimo', 'DejaVu Sans'; text-anchor: start" x="607.68" y="739.170313" transform="rotate(-0 607.68 739.170313)">Mutation site</text>
  </g>
 </g>
 <defs>
  <clipPath id="pf44d692cc6">
   <rect x="53.82" y="75.6" width="612.36" height="612.36"/>
  </clipPath>
 </defs>
</svg>
