<?xml version="1.0" encoding="utf-8" standalone="no"?>
<!DOCTYPE svg PUBLIC "-//W3C//DTD SVG 1.1//EN"
  "http://www.w3.org/Graphics/SVG/1.1/DTD/svg11.dtd">
<svg xmlns:xlink="http://www.w3.org/1999/xlink" width="720pt" height="756pt" viewBox="0 0 720 756" xmlns="http://www.w3.org/2000/svg" version="1.1">
 <metadata>
  <rdf:RDF xmlns:dc="http://purl.org/dc/elements/1.1/" xmlns:cc="http://creativecommons.org/ns#" xmlns:rdf="http://www.w3.org/1999/02/22-rdf-syntax-ns#">
   <cc:Work>
    <dc:type rdf:resource="http://purl.org/dc/dcmitype/StillImage"/>
    <dc:date>2022-01-01T05:00:00+00:00</dc:date>
    <dc:format>image/svg+xml</dc:format>
    <dc:creator>
     <cc:Agent>
      <dc:title>Matplotlib v3.11.0, https://matplotlib.org/</dc:title>
     </cc:Agent>
    </dc:creator>
   </cc:Work>
  </rdf:RDF>
 </metadata>
 <defs>
  <style type="text/css">*{stroke-linejoin: round; stroke-linecap: butt}</style>
 </defs>
 <g id="figure_1">
  <g id="patch_1">
   <path d="M 0 756 
L 720 756 
L 720 0 
L 0 0 
z
" style="fill: #ffffff"/>
  </g>
  <g id="axes_1">
   <g id="line2d_1">
    <path d="M 385.656963 107.106649 
L 384.194761 114.080755 
L 382.659832 121.02749 
L 381.052176 127.946856 
L 379.371792 134.838852 
L 377.61868 141.703478 
L 375.792841 148.540734 
L 373.894275 155.350621 
L 371.92298 162.133138 
L 369.878959 168.888285 
L 367.76221 175.616062 
L 365.572734 182.316469 
L 363.31053 188.989507 
L 360.975598 195.635175 
L 358.567939 202.253473 
L 356.087553 208.844401 
L 353.534439 215.40796 
L 350.908598 221.944148 
L 348.210029 228.452967 
L 345.438732 234.934417 
L 342.594709 241.388496 
L 339.677957 247.815206 
L 336.688478 254.214545 
L 333.626272 260.586515 
L 330.491338 266.931116 
L 327.283677 273.248346 
L 324.003288 279.538207 
L 320.650172 285.800698 
L 317.224328 292.035819 
L 313.725757 298.24357 
" clip-path="url(#pf6c0e86112)" style="fill: none; stroke: #75a025; stroke-opacity: 0.4; stroke-width: 4; stroke-linecap: round"/>
   </g>
   <g id="line2d_2">
    <path d="M 586.604365 222.509075 
L 581.150037 227.245684 
L 575.653741 231.915623 
L 570.115478 236.518894 
L 564.535249 241.055496 
L 558.913053 245.525429 
L 553.24889 249.928693 
L 547.54276 254.265289 
L 541.794663 258.535215 
L 536.004599 262.738473 
L 530.172569 266.875062 
L 524.298572 270.944982 
L 518.382607 274.948233 
L 512.424677 278.884815 
L 506.424779 282.754729 
L 500.382914 286.557973 
L 494.299083 290.294549 
L 488.173284 293.964456 
L 482.005519 297.567694 
L 475.795787 301.104263 
L 469.544089 304.574163 
L 463.250423 307.977395 
L 456.91479 311.313957 
L 450.537191 314.583851 
L 444.117625 317.787076 
L 437.656092 320.923632 
L 431.152592 323.993519 
L 424.607126 326.996738 
L 418.019692 329.933287 
L 411.390292 332.803168 
" clip-path="url(#pf6c0e86112)" style="fill: none; stroke: #75a025; stroke-opacity: 0.4; stroke-width: 4; stroke-linecap: round"/>
   </g>
   <g id="line2d_3">
    <path d="M 87.978709 429.517515 
L 94.715876 425.341246 
L 101.486836 421.244539 
L 108.291588 417.227393 
L 115.130132 413.289808 
L 122.002468 409.431785 
L 128.908596 405.653324 
L 135.848516 401.954424 
L 142.822229 398.335085 
L 149.829733 394.795308 
L 156.871029 391.335092 
L 163.946118 387.954438 
L 171.054999 384.653345 
L 178.197671 381.431814 
L 185.374136 378.289844 
L 192.584393 375.227436 
L 199.828442 372.244589 
L 207.106284 369.341303 
L 214.417917 366.517579 
L 221.763342 363.773416 
L 229.14256 361.108815 
L 236.555569 358.523776 
L 244.002371 356.018297 
L 251.482964 353.592381 
L 258.99735 351.246025 
L 266.545528 348.979231 
L 274.127498 346.791999 
L 281.74326 344.684328 
L 289.392814 342.656219 
L 297.076161 340.707671 
" clip-path="url(#pf6c0e86112)" style="fill: none; stroke: #75a025; stroke-opacity: 0.4; stroke-width: 4; stroke-linecap: round"/>
   </g>
   <g id="line2d_4">
    <path d="M 85.664208 417.524684 
L 90.784092 416.840099 
L 95.90283 416.211832 
L 101.020421 415.639883 
L 106.136866 415.124252 
L 111.252166 414.66494 
L 116.366319 414.261946 
L 121.479325 413.91527 
L 126.591186 413.624912 
L 131.701901 413.390872 
L 136.811469 413.213151 
L 141.919891 413.091748 
L 147.027168 413.026663 
L 152.133297 413.017896 
L 157.238281 413.065448 
L 162.342119 413.169317 
L 167.444811 413.329505 
L 172.546356 413.546011 
L 177.646755 413.818836 
L 182.746008 414.147978 
L 187.844115 414.533439 
L 192.941076 414.975218 
L 198.036891 415.473315 
L 203.131559 416.02773 
L 208.225081 416.638464 
L 213.317458 417.305516 
L 218.408688 418.028886 
L 223.498772 418.808574 
L 228.587709 419.64458 
L 233.675501 420.536905 
" clip-path="url(#pf6c0e86112)" style="fill: none; stroke: #75a025; stroke-opacity: 0.4; stroke-width: 4; stroke-linecap: round"/>
   </g>
   <g id="patch_2">
    <path d="M 245.93432 566.429015 
Q 270.154593 508.415085 293.73276 451.939167 
" clip-path="url(#pf6c0e86112)" style="fill: none; stroke: #0279ee; stroke-width: 2; stroke-linecap: round"/>
    <path d="M 285.113814 457.010042 
L 293.73276 451.939167 
L 296.187495 461.6332 
" clip-path="url(#pf6c0e86112)" style="fill: none; stroke: #0279ee; stroke-width: 2; stroke-linecap: round"/>
   </g>
   <g id="line2d_5">
    <path d="M 202.754271 229.254488 
L 298.634867 308.027921 
" clip-path="url(#pf6c0e86112)" style="fill: none; stroke-dasharray: 7.2,5.4; stroke-dashoffset: 0; stroke: #ff9400; stroke-width: 1.8"/>
   </g>
   <g id="line2d_6">
    <path d="M 197.200966 236.0138 
L 293.081561 314.787234 
" clip-path="url(#pf6c0e86112)" style="fill: none; stroke-dasharray: 7.2,5.4; stroke-dashoffset: 0; stroke: #ff9400; stroke-width: 1.8"/>
   </g>
   <g id="line2d_7">
    <path d="M 324.729924 436.001764 
L 336.765735 410.900625 
" clip-path="url(#pf6c0e86112)" style="fill: none; stroke: #222222; stroke-width: 2; stroke-linecap: round"/>
   </g>
   <g id="line2d_8">
    <path d="M 328.936903 438.018979 
L 340.972713 412.91784 
" clip-path="url(#pf6c0e86112)" style="fill: none; stroke-dasharray: 3,2; stroke-dashoffset: 0; stroke: #222222"/>
   </g>
   <g id="line2d_9">
    <path d="M 325.07413 387.617975 
L 340.794448 410.591862 
" clip-path="url(#pf6c0e86112)" style="fill: none; stroke: #222222; stroke-width: 2; stroke-linecap: round"/>
   </g>
   <g id="line2d_10">
    <path d="M 321.223681 390.252718 
L 336.944 413.226604 
" clip-path="url(#pf6c0e86112)" style="fill: none; stroke-dasharray: 3,2; stroke-dashoffset: 0; stroke: #222222"/>
   </g>
   <g id="line2d_11">
    <path d="M 298.89902 436.811645 
L 326.655149 434.684393 
" clip-path="url(#pf6c0e86112)" style="fill: none; stroke: #222222; stroke-width: 2; stroke-linecap: round"/>
   </g>
   <g id="line2d_12">
    <path d="M 299.25555 441.463602 
L 327.011678 439.336351 
" clip-path="url(#pf6c0e86112)" style="fill: none; stroke-dasharray: 3,2; stroke-dashoffset: 0; stroke: #222222"/>
   </g>
   <g id="line2d_13">
    <path d="M 295.214511 388.736619 
L 322.97064 386.609367 
" clip-path="url(#pf6c0e86112)" style="fill: none; stroke: #222222; stroke-width: 2; stroke-linecap: round"/>
   </g>
   <g id="line2d_14">
    <path d="M 295.571041 393.388577 
L 323.32717 391.261325 
" clip-path="url(#pf6c0e86112)" style="fill: none; stroke-dasharray: 3,2; stroke-dashoffset: 0; stroke: #222222"/>
   </g>
   <g id="line2d_15">
    <path d="M 281.253477 415.155129 
L 293.289287 390.053991 
" clip-path="url(#pf6c0e86112)" style="fill: none; stroke: #222222; stroke-width: 2; stroke-linecap: round"/>
   </g>
   <g id="line2d_16">
    <path d="M 285.460455 417.172344 
L 297.496266 392.071206 
" clip-path="url(#pf6c0e86112)" style="fill: none; stroke-dasharray: 3,2; stroke-dashoffset: 0; stroke: #222222"/>
   </g>
   <g id="line2d_17">
    <path d="M 285.28219 414.846365 
L 301.002509 437.820252 
" clip-path="url(#pf6c0e86112)" style="fill: none; stroke: #222222; stroke-width: 2; stroke-linecap: round"/>
   </g>
   <g id="line2d_18">
    <path d="M 281.431742 417.481108 
L 297.15206 440.454995 
" clip-path="url(#pf6c0e86112)" style="fill: none; stroke-dasharray: 3,2; stroke-dashoffset: 0; stroke: #222222"/>
   </g>
   <g id="line2d_19">
    <path d="M 366.625353 409.781981 
L 378.661163 384.680842 
" clip-path="url(#pf6c0e86112)" style="fill: none; stroke: #222222; stroke-width: 2; stroke-linecap: round"/>
   </g>
   <g id="line2d_20">
    <path d="M 366.625353 409.781981 
L 338.869224 411.909233 
" clip-path="url(#pf6c0e86112)" style="fill: none; stroke: #222222; stroke-width: 2; stroke-linecap: round"/>
   </g>
   <g id="line2d_21">
    <path d="M 379.457835 434.731925 
L 363.737516 411.758038 
" clip-path="url(#pf6c0e86112)" style="fill: none; stroke: #222222; stroke-width: 2; stroke-linecap: round"/>
   </g>
   <g id="line2d_22">
    <path d="M 385.233508 430.779811 
L 369.513189 407.805924 
" clip-path="url(#pf6c0e86112)" style="fill: none; stroke: #222222; stroke-width: 2; stroke-linecap: round"/>
   </g>
   <g id="line2d_23">
    <path d="M 406.417292 382.553591 
L 378.661163 384.680842 
" clip-path="url(#pf6c0e86112)" style="fill: none; stroke: #222222; stroke-width: 2; stroke-linecap: round"/>
   </g>
   <g id="line2d_24">
    <path d="M 418.453102 357.452452 
L 406.417292 382.553591 
" clip-path="url(#pf6c0e86112)" style="fill: none; stroke: #222222; stroke-width: 2; stroke-linecap: round"/>
   </g>
   <g id="line2d_25">
    <path d="M 441.426989 341.732133 
L 418.453102 357.452452 
" clip-path="url(#pf6c0e86112)" style="fill: none; stroke: #222222; stroke-width: 2; stroke-linecap: round"/>
   </g>
   <g id="line2d_26">
    <path d="M 416.32585 329.696323 
L 418.453102 357.452452 
" clip-path="url(#pf6c0e86112)" style="fill: none; stroke: #222222; stroke-width: 2; stroke-linecap: round"/>
   </g>
   <g id="line2d_27">
    <path d="M 416.32585 329.696323 
L 441.426989 341.732133 
" clip-path="url(#pf6c0e86112)" style="fill: none; stroke: #222222; stroke-width: 2; stroke-linecap: round"/>
   </g>
   <g id="line2d_28">
    <path d="M 422.137611 405.527477 
L 406.417292 382.553591 
" clip-path="url(#pf6c0e86112)" style="fill: none; stroke: #222222; stroke-width: 2; stroke-linecap: round"/>
   </g>
   <g id="line2d_29">
    <path d="M 450.161137 406.889194 
L 422.405008 409.016446 
" clip-path="url(#pf6c0e86112)" style="fill: none; stroke: #222222; stroke-width: 2; stroke-linecap: round"/>
   </g>
   <g id="line2d_30">
    <path d="M 449.626342 399.911257 
L 421.870213 402.038509 
" clip-path="url(#pf6c0e86112)" style="fill: none; stroke: #222222; stroke-width: 2; stroke-linecap: round"/>
   </g>
   <g id="line2d_31">
    <path d="M 461.92955 378.299087 
L 449.89374 403.400225 
" clip-path="url(#pf6c0e86112)" style="fill: none; stroke: #222222; stroke-width: 2; stroke-linecap: round"/>
   </g>
   <g id="line2d_32">
    <path d="M 438.341322 363.108043 
L 463.442461 375.143853 
" clip-path="url(#pf6c0e86112)" style="fill: none; stroke: #222222; stroke-width: 2; stroke-linecap: round"/>
   </g>
   <g id="line2d_33">
    <path d="M 435.3155 369.41851 
L 460.416639 381.454321 
" clip-path="url(#pf6c0e86112)" style="fill: none; stroke: #222222; stroke-width: 2; stroke-linecap: round"/>
   </g>
   <g id="line2d_34">
    <path d="M 485.517777 393.490131 
L 460.416639 381.454321 
" clip-path="url(#pf6c0e86112)" style="fill: none; stroke: #222222; stroke-width: 2; stroke-linecap: round"/>
   </g>
   <g id="line2d_35">
    <path d="M 488.5436 387.179663 
L 463.442461 375.143853 
" clip-path="url(#pf6c0e86112)" style="fill: none; stroke: #222222; stroke-width: 2; stroke-linecap: round"/>
   </g>
   <g id="line2d_36">
    <path d="M 473.96536 353.197948 
L 461.92955 378.299087 
" clip-path="url(#pf6c0e86112)" style="fill: none; stroke: #222222; stroke-width: 2; stroke-linecap: round"/>
   </g>
   <g id="line2d_37">
    <path d="M 465.614058 426.374112 
L 449.89374 403.400225 
" clip-path="url(#pf6c0e86112)" style="fill: none; stroke: #222222; stroke-width: 2; stroke-linecap: round"/>
   </g>
   <g id="line2d_38">
    <path d="M 493.370187 424.24686 
L 465.614058 426.374112 
" clip-path="url(#pf6c0e86112)" style="fill: none; stroke: #222222; stroke-width: 2; stroke-linecap: round"/>
   </g>
   <g id="line2d_39">
    <path d="M 255.600837 418.290989 
L 283.356966 416.163737 
" clip-path="url(#pf6c0e86112)" style="fill: none; stroke: #222222; stroke-width: 2; stroke-linecap: round"/>
   </g>
   <g id="line2d_40">
    <path d="M 227.844708 420.418241 
L 255.600837 418.290989 
" clip-path="url(#pf6c0e86112)" style="fill: none; stroke: #222222; stroke-width: 2; stroke-linecap: round"/>
   </g>
   <g id="line2d_41">
    <path d="M 253.473585 390.53486 
L 255.600837 418.290989 
" clip-path="url(#pf6c0e86112)" style="fill: none; stroke: #222222; stroke-width: 2; stroke-linecap: round"/>
   </g>
   <g id="line2d_42">
    <path d="M 257.728089 446.047118 
L 255.600837 418.290989 
" clip-path="url(#pf6c0e86112)" style="fill: none; stroke: #222222; stroke-width: 2; stroke-linecap: round"/>
   </g>
   <g id="line2d_43">
    <path d="M 335.184716 363.834207 
L 323.148905 388.935346 
" clip-path="url(#pf6c0e86112)" style="fill: none; stroke: #222222; stroke-width: 2; stroke-linecap: round"/>
   </g>
   <g id="line2d_44">
    <path d="M 319.464397 340.860321 
L 335.184716 363.834207 
" clip-path="url(#pf6c0e86112)" style="fill: none; stroke: #222222; stroke-width: 2; stroke-linecap: round"/>
   </g>
   <g id="line2d_45">
    <path d="M 291.530003 340.661594 
L 319.286132 338.534342 
" clip-path="url(#pf6c0e86112)" style="fill: none; stroke: #222222; stroke-width: 2; stroke-linecap: round"/>
   </g>
   <g id="line2d_46">
    <path d="M 291.886533 345.313551 
L 319.642662 343.1863 
" clip-path="url(#pf6c0e86112)" style="fill: none; stroke-dasharray: 3,2; stroke-dashoffset: 0; stroke: #222222"/>
   </g>
   <g id="line2d_47">
    <path d="M 333.603696 316.767789 
L 321.567886 341.868928 
" clip-path="url(#pf6c0e86112)" style="fill: none; stroke: #222222; stroke-width: 2; stroke-linecap: round"/>
   </g>
   <g id="line2d_48">
    <path d="M 329.396718 314.750574 
L 317.360908 339.851713 
" clip-path="url(#pf6c0e86112)" style="fill: none; stroke-dasharray: 3,2; stroke-dashoffset: 0; stroke: #222222"/>
   </g>
   <g id="line2d_49">
    <path d="M 277.913174 318.696314 
L 293.633492 341.670201 
" clip-path="url(#pf6c0e86112)" style="fill: none; stroke: #222222; stroke-width: 2; stroke-linecap: round"/>
   </g>
   <g id="line2d_50">
    <path d="M 274.062725 321.331057 
L 289.783044 344.304944 
" clip-path="url(#pf6c0e86112)" style="fill: none; stroke-dasharray: 3,2; stroke-dashoffset: 0; stroke: #222222"/>
   </g>
   <g id="line2d_51">
    <path d="M 317.705113 291.467924 
L 333.425431 314.441811 
" clip-path="url(#pf6c0e86112)" style="fill: none; stroke: #222222; stroke-width: 2; stroke-linecap: round"/>
   </g>
   <g id="line2d_52">
    <path d="M 313.854664 294.102667 
L 329.574983 317.076553 
" clip-path="url(#pf6c0e86112)" style="fill: none; stroke-dasharray: 3,2; stroke-dashoffset: 0; stroke: #222222"/>
   </g>
   <g id="line2d_53">
    <path d="M 287.845495 292.586568 
L 315.601624 290.459316 
" clip-path="url(#pf6c0e86112)" style="fill: none; stroke: #222222; stroke-width: 2; stroke-linecap: round"/>
   </g>
   <g id="line2d_54">
    <path d="M 288.202024 297.238526 
L 315.958153 295.111274 
" clip-path="url(#pf6c0e86112)" style="fill: none; stroke-dasharray: 3,2; stroke-dashoffset: 0; stroke: #222222"/>
   </g>
   <g id="line2d_55">
    <path d="M 290.127249 295.921155 
L 278.091439 321.022293 
" clip-path="url(#pf6c0e86112)" style="fill: none; stroke: #222222; stroke-width: 2; stroke-linecap: round"/>
   </g>
   <g id="line2d_56">
    <path d="M 285.92027 293.90394 
L 273.88446 319.005078 
" clip-path="url(#pf6c0e86112)" style="fill: none; stroke-dasharray: 3,2; stroke-dashoffset: 0; stroke: #222222"/>
   </g>
   <g id="text_1">
    <g id="patch_3">
     <path d="M 293.816035 445.377624 
L 304.338535 445.377624 
L 304.338535 432.897624 
L 293.816035 432.897624 
z
" style="fill: #ffffff"/>
    </g>
    <!-- N -->
    <g style="fill: #0879c0" transform="translate(294.056035 442.254811) scale(0.12 -0.12)">
     <defs>
      <path id="DejaVuSans-Bold-31" d="M 588 4666 
L 1931 4666 
L 3628 1466 
L 3628 4666 
L 4769 4666 
L 4769 0 
L 3425 0 
L 1728 3200 
L 1728 0 
L 588 0 
L 588 4666 
z
" transform="scale(0.015625)"/>
     </defs>
     <use xlink:href="#DejaVuSans-Bold-31"/>
    </g>
   </g>
   <g id="text_2">
    <g id="patch_4">
     <path d="M 290.131526 397.302598 
L 300.654026 397.302598 
L 300.654026 384.822598 
L 290.131526 384.822598 
z
" style="fill: #ffffff"/>
    </g>
    <!-- N -->
    <g style="fill: #0879c0" transform="translate(290.371526 394.179786) scale(0.12 -0.12)">
     <use xlink:href="#DejaVuSans-Bold-31"/>
    </g>
   </g>
   <g id="text_3">
    <g id="patch_5">
     <path d="M 373.399913 390.920842 
L 383.922413 390.920842 
L 383.922413 378.440842 
L 373.399913 378.440842 
z
" style="fill: #ffffff"/>
    </g>
    <!-- N -->
    <g style="fill: #0879c0" transform="translate(373.639913 387.79803) scale(0.12 -0.12)">
     <use xlink:href="#DejaVuSans-Bold-31"/>
    </g>
   </g>
   <g id="text_4">
    <g id="patch_6">
     <path d="M 377.004734 438.995868 
L 387.686609 438.995868 
L 387.686609 426.515868 
L 377.004734 426.515868 
z
" style="fill: #ffffff"/>
    </g>
    <!-- O -->
    <g style="fill: #d40000" transform="translate(377.244734 435.873055) scale(0.12 -0.12)">
     <defs>
      <path id="DejaVuSans-Bold-32" d="M 2719 3878 
Q 2169 3878 1866 3472 
Q 1563 3066 1563 2328 
Q 1563 1594 1866 1187 
Q 2169 781 2719 781 
Q 3272 781 3575 1187 
Q 3878 1594 3878 2328 
Q 3878 3066 3575 3472 
Q 3272 3878 2719 3878 
z
M 2719 4750 
Q 3844 4750 4481 4106 
Q 5119 3463 5119 2328 
Q 5119 1197 4481 553 
Q 3844 -91 2719 -91 
Q 1597 -91 958 553 
Q 319 1197 319 2328 
Q 319 3463 958 4106 
Q 1597 4750 2719 4750 
z
" transform="scale(0.015625)"/>
     </defs>
     <use xlink:href="#DejaVuSans-Bold-32"/>
    </g>
   </g>
   <g id="text_5">
    <g id="patch_7">
     <path d="M 457.368612 384.539087 
L 466.490487 384.539087 
L 466.490487 372.059087 
L 457.368612 372.059087 
z
" style="fill: #ffffff"/>
    </g>
    <!-- S -->
    <g style="fill: #b8860b" transform="translate(457.608612 381.416274) scale(0.12 -0.12)">
     <defs>
      <path id="DejaVuSans-Bold-36" d="M 3834 4519 
L 3834 3531 
Q 3450 3703 3084 3790 
Q 2719 3878 2394 3878 
Q 1963 3878 1756 3759 
Q 1550 3641 1550 3391 
Q 1550 3203 1689 3098 
Q 1828 2994 2194 2919 
L 2706 2816 
Q 3484 2659 3812 2340 
Q 4141 2022 4141 1434 
Q 4141 663 3683 286 
Q 3225 -91 2284 -91 
Q 1841 -91 1394 -6 
Q 947 78 500 244 
L 500 1259 
Q 947 1022 1364 901 
Q 1781 781 2169 781 
Q 2563 781 2772 912 
Q 2981 1044 2981 1288 
Q 2981 1506 2839 1625 
Q 2697 1744 2272 1838 
L 1806 1941 
Q 1106 2091 782 2419 
Q 459 2747 459 3303 
Q 459 4000 909 4375 
Q 1359 4750 2203 4750 
Q 2588 4750 2994 4692 
Q 3400 4634 3834 4519 
z
" transform="scale(0.015625)"/>
     </defs>
     <use xlink:href="#DejaVuSans-Bold-36"/>
    </g>
   </g>
   <g id="text_6">
    <g id="patch_8">
     <path d="M 431.487474 372.503276 
L 442.169349 372.503276 
L 442.169349 360.023276 
L 431.487474 360.023276 
z
" style="fill: #ffffff"/>
    </g>
    <!-- O -->
    <g style="fill: #d40000" transform="translate(431.727474 369.380464) scale(0.12 -0.12)">
     <use xlink:href="#DejaVuSans-Bold-32"/>
    </g>
   </g>
   <g id="text_7">
    <g id="patch_9">
     <path d="M 481.689751 396.574897 
L 492.371626 396.574897 
L 492.371626 384.094897 
L 481.689751 384.094897 
z
" style="fill: #ffffff"/>
    </g>
    <!-- O -->
    <g style="fill: #d40000" transform="translate(481.929751 393.452085) scale(0.12 -0.12)">
     <use xlink:href="#DejaVuSans-Bold-32"/>
    </g>
   </g>
   <g id="text_8">
    <g id="patch_10">
     <path d="M 461.053121 432.614112 
L 470.174996 432.614112 
L 470.174996 420.134112 
L 461.053121 420.134112 
z
" style="fill: #ffffff"/>
    </g>
    <!-- S -->
    <g style="fill: #b8860b" transform="translate(461.293121 429.4913) scale(0.12 -0.12)">
     <use xlink:href="#DejaVuSans-Bold-36"/>
    </g>
   </g>
   <g id="text_9">
    <g id="patch_11">
     <path d="M 249.134835 396.77486 
L 257.812335 396.77486 
L 257.812335 384.29486 
L 249.134835 384.29486 
z
" style="fill: #ffffff"/>
    </g>
    <!-- F -->
    <g style="fill: #00a040" transform="translate(249.374835 393.652047) scale(0.12 -0.12)">
     <defs>
      <path id="DejaVuSans-Bold-29" d="M 588 4666 
L 3834 4666 
L 3834 3756 
L 1791 3756 
L 1791 2888 
L 3713 2888 
L 3713 1978 
L 1791 1978 
L 1791 0 
L 588 0 
L 588 4666 
z
" transform="scale(0.015625)"/>
     </defs>
     <use xlink:href="#DejaVuSans-Bold-29"/>
    </g>
   </g>
   <g id="text_10">
    <g id="patch_12">
     <path d="M 253.389339 452.287118 
L 262.066839 452.287118 
L 262.066839 439.807118 
L 253.389339 439.807118 
z
" style="fill: #ffffff"/>
    </g>
    <!-- F -->
    <g style="fill: #00a040" transform="translate(253.629339 449.164305) scale(0.12 -0.12)">
     <use xlink:href="#DejaVuSans-Bold-29"/>
    </g>
   </g>
   <g id="text_11">
    <g id="patch_13">
     <path d="M 329.843778 370.074207 
L 340.525653 370.074207 
L 340.525653 357.594207 
L 329.843778 357.594207 
z
" style="fill: #ffffff"/>
    </g>
    <!-- O -->
    <g style="fill: #d40000" transform="translate(330.083778 366.951395) scale(0.12 -0.12)">
     <use xlink:href="#DejaVuSans-Bold-32"/>
    </g>
   </g>
   <g id="patch_14">
    <path d="M 375.386307 162.100026 
C 382.732963 162.100026 389.779708 159.181168 394.974579 153.986298 
C 400.169449 148.791427 403.088307 141.744682 403.088307 134.398026 
C 403.088307 127.05137 400.169449 120.004624 394.974579 114.809754 
C 389.779708 109.614883 382.732963 106.696026 375.386307 106.696026 
C 368.039651 106.696026 360.992905 109.614883 355.798035 114.809754 
C 350.603164 120.004624 347.684307 127.05137 347.684307 134.398026 
C 347.684307 141.744682 350.603164 148.791427 355.798035 153.986298 
C 360.992905 159.181168 368.039651 162.100026 375.386307 162.100026 
z
" clip-path="url(#pf6c0e86112)" style="fill: #8bc34a; stroke: #222222; stroke-width: 1.2; stroke-linejoin: miter"/>
   </g>
   <g id="patch_15">
    <path d="M 561.926572 265.7453 
C 569.273229 265.7453 576.319974 262.826443 581.514845 257.631572 
C 586.709715 252.436702 589.628572 245.389956 589.628572 238.0433 
C 589.628572 230.696644 586.709715 223.649898 581.514845 218.455028 
C 576.319974 213.260157 569.273229 210.3413 561.926572 210.3413 
C 554.579916 210.3413 547.533171 213.260157 542.3383 218.455028 
C 537.14343 223.649898 534.224572 230.696644 534.224572 238.0433 
C 534.224572 245.389956 537.14343 252.436702 542.3383 257.631572 
C 547.533171 262.826443 554.579916 265.7453 561.926572 265.7453 
z
" clip-path="url(#pf6c0e86112)" style="fill: #8bc34a; stroke: #222222; stroke-width: 1.2; stroke-linejoin: miter"/>
   </g>
   <g id="patch_16">
    <path d="M 114.818172 445.820005 
C 122.164828 445.820005 129.211573 442.901147 134.406444 437.706277 
C 139.601314 432.511406 142.520172 425.464661 142.520172 418.118005 
C 142.520172 410.771348 139.601314 403.724603 134.406444 398.529733 
C 129.211573 393.334862 122.164828 390.416005 114.818172 390.416005 
C 107.471515 390.416005 100.42477 393.334862 95.229899 398.529733 
C 90.035029 403.724603 87.116172 410.771348 87.116172 418.118005 
C 87.116172 425.464661 90.035029 432.511406 95.229899 437.706277 
C 100.42477 442.901147 107.471515 445.820005 114.818172 445.820005 
z
" clip-path="url(#pf6c0e86112)" style="fill: #8bc34a; stroke: #222222; stroke-width: 1.2; stroke-linejoin: miter"/>
   </g>
   <g id="patch_17">
    <path d="M 233.929766 622.885082 
C 241.276422 622.885082 248.323167 619.966225 253.518038 614.771354 
C 258.712908 609.576484 261.631766 602.529739 261.631766 595.183082 
C 261.631766 587.836426 258.712908 580.789681 253.518038 575.59481 
C 248.323167 570.39994 241.276422 567.481082 233.929766 567.481082 
C 226.583109 567.481082 219.536364 570.39994 214.341493 575.59481 
C 209.146623 580.789681 206.227766 587.836426 206.227766 595.183082 
C 206.227766 602.529739 209.146623 609.576484 214.341493 614.771354 
C 219.536364 619.966225 226.583109 622.885082 233.929766 622.885082 
z
" clip-path="url(#pf6c0e86112)" style="fill: #5087c5; stroke: #222222; stroke-width: 1.2; stroke-linejoin: miter"/>
   </g>
   <g id="patch_18">
    <path d="M 177.446578 241.825126 
C 184.793234 241.825126 191.839979 238.906268 197.03485 233.711398 
C 202.22972 228.516527 205.148578 221.469782 205.148578 214.123126 
C 205.148578 206.776469 202.22972 199.729724 197.03485 194.534853 
C 191.839979 189.339983 184.793234 186.421126 177.446578 186.421126 
C 170.099921 186.421126 163.053176 189.339983 157.858305 194.534853 
C 152.663435 199.729724 149.744578 206.776469 149.744578 214.123126 
C 149.744578 221.469782 152.663435 228.516527 157.858305 233.711398 
C 163.053176 238.906268 170.099921 241.825126 177.446578 241.825126 
z
" clip-path="url(#pf6c0e86112)" style="fill: #f5a623; stroke: #222222; stroke-width: 1.2; stroke-linejoin: miter"/>
   </g>
   <g id="text_12">
    <!-- V570 -->
    <g style="fill: #222222" transform="translate(361.795369 136.865799) scale(0.095 -0.095)">
     <defs>
      <path id="DejaVuSans-Bold-39" d="M 31 4666 
L 1241 4666 
L 2478 1222 
L 3713 4666 
L 4922 4666 
L 3194 0 
L 1759 0 
L 31 4666 
z
" transform="scale(0.015625)"/>
      <path id="DejaVuSans-Bold-18" d="M 678 4666 
L 3669 4666 
L 3669 3781 
L 1638 3781 
L 1638 3059 
Q 1775 3097 1914 3117 
Q 2053 3138 2203 3138 
Q 3056 3138 3531 2711 
Q 4006 2284 4006 1522 
Q 4006 766 3489 337 
Q 2972 -91 2053 -91 
Q 1656 -91 1267 -14 
Q 878 63 494 219 
L 494 1166 
Q 875 947 1217 837 
Q 1559 728 1863 728 
Q 2300 728 2551 942 
Q 2803 1156 2803 1522 
Q 2803 1891 2551 2103 
Q 2300 2316 1863 2316 
Q 1603 2316 1309 2248 
Q 1016 2181 678 2041 
L 678 4666 
z
" transform="scale(0.015625)"/>
      <path id="DejaVuSans-Bold-1a" d="M 428 4666 
L 3944 4666 
L 3944 3988 
L 2125 0 
L 953 0 
L 2675 3781 
L 428 3781 
L 428 4666 
z
" transform="scale(0.015625)"/>
      <path id="DejaVuSans-Bold-13" d="M 2944 2338 
Q 2944 3213 2780 3570 
Q 2616 3928 2228 3928 
Q 1841 3928 1675 3570 
Q 1509 3213 1509 2338 
Q 1509 1453 1675 1090 
Q 1841 728 2228 728 
Q 2613 728 2778 1090 
Q 2944 1453 2944 2338 
z
M 4147 2328 
Q 4147 1169 3647 539 
Q 3147 -91 2228 -91 
Q 1306 -91 806 539 
Q 306 1169 306 2328 
Q 306 3491 806 4120 
Q 1306 4750 2228 4750 
Q 3147 4750 3647 4120 
Q 4147 3491 4147 2328 
z
" transform="scale(0.015625)"/>
     </defs>
     <use xlink:href="#DejaVuSans-Bold-39"/>
     <use xlink:href="#DejaVuSans-Bold-18" transform="translate(77.390625 0)"/>
     <use xlink:href="#DejaVuSans-Bold-1a" transform="translate(146.96875 0)"/>
     <use xlink:href="#DejaVuSans-Bold-13" transform="translate(216.546875 0)"/>
    </g>
   </g>
   <g id="text_13">
    <!-- A706 -->
    <g style="fill: #222222" transform="translate(548.335635 240.511073) scale(0.095 -0.095)">
     <defs>
      <path id="DejaVuSans-Bold-24" d="M 3419 850 
L 1538 850 
L 1241 0 
L 31 0 
L 1759 4666 
L 3194 4666 
L 4922 0 
L 3713 0 
L 3419 850 
z
M 1838 1716 
L 3116 1716 
L 2478 3572 
L 1838 1716 
z
" transform="scale(0.015625)"/>
      <path id="DejaVuSans-Bold-19" d="M 2316 2303 
Q 2000 2303 1842 2098 
Q 1684 1894 1684 1484 
Q 1684 1075 1842 870 
Q 2000 666 2316 666 
Q 2634 666 2792 870 
Q 2950 1075 2950 1484 
Q 2950 1894 2792 2098 
Q 2634 2303 2316 2303 
z
M 3803 4544 
L 3803 3681 
Q 3506 3822 3243 3889 
Q 2981 3956 2731 3956 
Q 2194 3956 1894 3657 
Q 1594 3359 1544 2772 
Q 1750 2925 1990 3001 
Q 2231 3078 2516 3078 
Q 3231 3078 3670 2659 
Q 4109 2241 4109 1563 
Q 4109 813 3618 361 
Q 3128 -91 2303 -91 
Q 1394 -91 895 523 
Q 397 1138 397 2266 
Q 397 3422 980 4083 
Q 1563 4744 2578 4744 
Q 2900 4744 3203 4694 
Q 3506 4644 3803 4544 
z
" transform="scale(0.015625)"/>
     </defs>
     <use xlink:href="#DejaVuSans-Bold-24"/>
     <use xlink:href="#DejaVuSans-Bold-1a" transform="translate(77.390625 0)"/>
     <use xlink:href="#DejaVuSans-Bold-13" transform="translate(146.96875 0)"/>
     <use xlink:href="#DejaVuSans-Bold-19" transform="translate(216.546875 0)"/>
    </g>
   </g>
   <g id="text_14">
    <!-- F917 -->
    <g style="fill: #222222" transform="translate(101.658445 420.585778) scale(0.095 -0.095)">
     <defs>
      <path id="DejaVuSans-Bold-1c" d="M 641 103 
L 641 966 
Q 928 831 1190 764 
Q 1453 697 1709 697 
Q 2247 697 2547 995 
Q 2847 1294 2900 1881 
Q 2688 1725 2447 1647 
Q 2206 1569 1925 1569 
Q 1209 1569 770 1986 
Q 331 2403 331 3084 
Q 331 3838 820 4291 
Q 1309 4744 2131 4744 
Q 3044 4744 3544 4128 
Q 4044 3513 4044 2388 
Q 4044 1231 3459 570 
Q 2875 -91 1856 -91 
Q 1528 -91 1228 -42 
Q 928 6 641 103 
z
M 2125 2350 
Q 2441 2350 2600 2554 
Q 2759 2759 2759 3169 
Q 2759 3575 2600 3781 
Q 2441 3988 2125 3988 
Q 1809 3988 1650 3781 
Q 1491 3575 1491 3169 
Q 1491 2759 1650 2554 
Q 1809 2350 2125 2350 
z
" transform="scale(0.015625)"/>
      <path id="DejaVuSans-Bold-14" d="M 750 831 
L 1813 831 
L 1813 3847 
L 722 3622 
L 722 4441 
L 1806 4666 
L 2950 4666 
L 2950 831 
L 4013 831 
L 4013 0 
L 750 0 
L 750 831 
z
" transform="scale(0.015625)"/>
     </defs>
     <use xlink:href="#DejaVuSans-Bold-29"/>
     <use xlink:href="#DejaVuSans-Bold-1c" transform="translate(68.3125 0)"/>
     <use xlink:href="#DejaVuSans-Bold-14" transform="translate(137.890625 0)"/>
     <use xlink:href="#DejaVuSans-Bold-1a" transform="translate(207.46875 0)"/>
    </g>
   </g>
   <g id="text_15">
    <!-- K898 -->
    <g style="fill: #ffffff" transform="translate(220.334375 597.650856) scale(0.095 -0.095)">
     <defs>
      <path id="DejaVuSans-Bold-2e" d="M 588 4666 
L 1791 4666 
L 1791 2963 
L 3525 4666 
L 4922 4666 
L 2675 2456 
L 5153 0 
L 3647 0 
L 1791 1838 
L 1791 0 
L 588 0 
L 588 4666 
z
" transform="scale(0.015625)"/>
      <path id="DejaVuSans-Bold-1b" d="M 2228 2088 
Q 1891 2088 1709 1903 
Q 1528 1719 1528 1375 
Q 1528 1031 1709 848 
Q 1891 666 2228 666 
Q 2563 666 2741 848 
Q 2919 1031 2919 1375 
Q 2919 1722 2741 1905 
Q 2563 2088 2228 2088 
z
M 1350 2484 
Q 925 2613 709 2878 
Q 494 3144 494 3541 
Q 494 4131 934 4440 
Q 1375 4750 2228 4750 
Q 3075 4750 3515 4442 
Q 3956 4134 3956 3541 
Q 3956 3144 3739 2878 
Q 3522 2613 3097 2484 
Q 3572 2353 3814 2058 
Q 4056 1763 4056 1313 
Q 4056 619 3595 264 
Q 3134 -91 2228 -91 
Q 1319 -91 855 264 
Q 391 619 391 1313 
Q 391 1763 633 2058 
Q 875 2353 1350 2484 
z
M 1631 3419 
Q 1631 3141 1786 2991 
Q 1941 2841 2228 2841 
Q 2509 2841 2662 2991 
Q 2816 3141 2816 3419 
Q 2816 3697 2662 3845 
Q 2509 3994 2228 3994 
Q 1941 3994 1786 3844 
Q 1631 3694 1631 3419 
z
" transform="scale(0.015625)"/>
     </defs>
     <use xlink:href="#DejaVuSans-Bold-2e"/>
     <use xlink:href="#DejaVuSans-Bold-1b" transform="translate(77.484375 0)"/>
     <use xlink:href="#DejaVuSans-Bold-1c" transform="translate(147.0625 0)"/>
     <use xlink:href="#DejaVuSans-Bold-1b" transform="translate(216.640625 0)"/>
    </g>
   </g>
   <g id="text_16">
    <!-- Y849 -->
    <g style="fill: #222222" transform="translate(164.092398 216.590899) scale(0.095 -0.095)">
     <defs>
      <path id="DejaVuSans-Bold-3c" d="M -63 4666 
L 1253 4666 
L 2316 3003 
L 3378 4666 
L 4697 4666 
L 2919 1966 
L 2919 0 
L 1716 0 
L 1716 1966 
L -63 4666 
z
" transform="scale(0.015625)"/>
      <path id="DejaVuSans-Bold-17" d="M 2356 3675 
L 1038 1722 
L 2356 1722 
L 2356 3675 
z
M 2156 4666 
L 3494 4666 
L 3494 1722 
L 4159 1722 
L 4159 850 
L 3494 850 
L 3494 0 
L 2356 0 
L 2356 850 
L 288 850 
L 288 1881 
L 2156 4666 
z
" transform="scale(0.015625)"/>
     </defs>
     <use xlink:href="#DejaVuSans-Bold-3c"/>
     <use xlink:href="#DejaVuSans-Bold-1b" transform="translate(72.40625 0)"/>
     <use xlink:href="#DejaVuSans-Bold-17" transform="translate(141.984375 0)"/>
     <use xlink:href="#DejaVuSans-Bold-1c" transform="translate(211.5625 0)"/>
    </g>
   </g>
  </g>
  <g id="patch_19">
   <path d="M 130.640391 714.42 
Q 135.83969 714.42 138.914724 714.42 
" style="fill: none; stroke: #0279ee; stroke-width: 1.9; stroke-linecap: round"/>
   <path d="M 134.114724 712.02 
L 138.914724 714.42 
L 134.114724 716.82 
" style="fill: none; stroke: #0279ee; stroke-width: 1.9; stroke-linecap: round"/>
  </g>
  <g id="patch_20">
   <path d="M 92.16 743.148 
C 93.68757 743.148 95.15278 742.510745 96.232935 741.376582 
C 97.31309 740.242419 97.92 738.703948 97.92 737.1 
C 97.92 735.496052 97.31309 733.957581 96.232935 732.823418 
C 95.15278 731.689255 93.68757 731.052 92.16 731.052 
C 90.63243 731.052 89.16722 731.689255 88.087065 732.823418 
C 87.00691 733.957581 86.4 735.496052 86.4 737.1 
C 86.4 738.703948 87.00691 740.242419 88.087065 741.376582 
C 89.16722 742.510745 90.63243 743.148 92.16 743.148 
z
" style="fill: #5087c5; stroke: #222222; stroke-width: 0.8; stroke-linejoin: miter"/>
  </g>
  <g id="patch_21">
   <path d="M 218.88 743.148 
C 220.40757 743.148 221.87278 742.510745 222.952935 741.376582 
C 224.03309 740.242419 224.64 738.703948 224.64 737.1 
C 224.64 735.496052 224.03309 733.957581 222.952935 732.823418 
C 221.87278 731.689255 220.40757 731.052 218.88 731.052 
C 217.35243 731.052 215.88722 731.689255 214.807065 732.823418 
C 213.72691 733.957581 213.12 735.496052 213.12 737.1 
C 213.12 738.703948 213.72691 740.242419 214.807065 741.376582 
C 215.88722 742.510745 217.35243 743.148 218.88 743.148 
z
" style="fill: #d9584c; stroke: #222222; stroke-width: 0.8; stroke-linejoin: miter"/>
  </g>
  <g id="patch_22">
   <path d="M 345.6 743.148 
C 347.12757 743.148 348.59278 742.510745 349.672935 741.376582 
C 350.75309 740.242419 351.36 738.703948 351.36 737.1 
C 351.36 735.496052 350.75309 733.957581 349.672935 732.823418 
C 348.59278 731.689255 347.12757 731.052 345.6 731.052 
C 344.07243 731.052 342.60722 731.689255 341.527065 732.823418 
C 340.44691 733.957581 339.84 735.496052 339.84 737.1 
C 339.84 738.703948 340.44691 740.242419 341.527065 741.376582 
C 342.60722 742.510745 344.07243 743.148 345.6 743.148 
z
" style="fill: #f5a623; stroke: #222222; stroke-width: 0.8; stroke-linejoin: miter"/>
  </g>
  <g id="patch_23">
   <path d="M 472.32 743.148 
C 473.84757 743.148 475.31278 742.510745 476.392935 741.376582 
C 477.47309 740.242419 478.08 738.703948 478.08 737.1 
C 478.08 735.496052 477.47309 733.957581 476.392935 732.823418 
C 475.31278 731.689255 473.84757 731.052 472.32 731.052 
C 470.79243 731.052 469.32722 731.689255 468.247065 732.823418 
C 467.16691 733.957581 466.56 735.496052 466.56 737.1 
C 466.56 738.703948 467.16691 740.242419 468.247065 741.376582 
C 469.32722 742.510745 470.79243 743.148 472.32 743.148 
z
" style="fill: #8bc34a; stroke: #222222; stroke-width: 0.8; stroke-linejoin: miter"/>
  </g>
  <g id="patch_24">
   <path d="M 599.04 743.148 
C 600.56757 743.148 602.03278 742.510745 603.112935 741.376582 
C 604.19309 740.242419 604.8 738.703948 604.8 737.1 
C 604.8 735.496052 604.19309 733.957581 603.112935 732.823418 
C 602.03278 731.689255 600.56757 731.052 599.04 731.052 
C 597.51243 731.052 596.04722 731.689255 594.967065 732.823418 
C 593.88691 733.957581 593.28 735.496052 593.28 737.1 
C 593.28 738.703948 593.88691 740.242419 594.967065 741.376582 
C 596.04722 742.510745 597.51243 743.148 599.04 743.148 
z
" style="fill: #ffffff; stroke: #dc3912; stroke-width: 2.5; stroke-linejoin: miter"/>
  </g>
  <g id="line2d_57">
   <path d="M 339.84 714.42 
L 354.24 714.42 
" style="fill: none; stroke: #75a025; stroke-opacity: 0.4; stroke-width: 4; stroke-linecap: square"/>
  </g>
  <g id="line2d_58">
   <path d="M 551.04 710.64 
L 565.44 710.64 
" style="fill: none; stroke-dasharray: 7.2,5.4; stroke-dashoffset: 0; stroke: #ff9400; stroke-width: 1.8"/>
  </g>
  <g id="line2d_59">
   <path d="M 551.04 718.2 
L 565.44 718.2 
" style="fill: none; stroke-dasharray: 7.2,5.4; stroke-dashoffset: 0; stroke: #ff9400; stroke-width: 1.8"/>
  </g>
  <g id="text_17">
   <!-- L528S × 7GQU · VVD-214_cov — NEUTRAL -->
   <g transform="translate(195.808437 21.976719) scale(0.14 -0.14)">
    <defs>
     <path id="DejaVuSans-Bold-2f" d="M 588 4666 
L 1791 4666 
L 1791 909 
L 3903 909 
L 3903 0 
L 588 0 
L 588 4666 
z
" transform="scale(0.015625)"/>
     <path id="DejaVuSans-Bold-15" d="M 1844 884 
L 3897 884 
L 3897 0 
L 506 0 
L 506 884 
L 2209 2388 
Q 2438 2594 2547 2791 
Q 2656 2988 2656 3200 
Q 2656 3528 2436 3728 
Q 2216 3928 1850 3928 
Q 1569 3928 1234 3808 
Q 900 3688 519 3450 
L 519 4475 
Q 925 4609 1322 4679 
Q 1719 4750 2100 4750 
Q 2938 4750 3402 4381 
Q 3866 4013 3866 3353 
Q 3866 2972 3669 2642 
Q 3472 2313 2841 1759 
L 1844 884 
z
" transform="scale(0.015625)"/>
     <path id="DejaVuSans-Bold-3" transform="scale(0.015625)"/>
     <path id="DejaVuSans-Bold-99" d="M 4563 3359 
L 3206 2003 
L 4563 653 
L 4038 128 
L 2681 1478 
L 1325 128 
L 800 653 
L 2156 2003 
L 800 3359 
L 1325 3884 
L 2681 2528 
L 4038 3884 
L 4563 3359 
z
" transform="scale(0.015625)"/>
     <path id="DejaVuSans-Bold-2a" d="M 4781 347 
Q 4331 128 3847 18 
Q 3363 -91 2847 -91 
Q 1681 -91 1000 561 
Q 319 1213 319 2328 
Q 319 3456 1012 4103 
Q 1706 4750 2913 4750 
Q 3378 4750 3804 4662 
Q 4231 4575 4609 4403 
L 4609 3438 
Q 4219 3659 3833 3768 
Q 3447 3878 3059 3878 
Q 2341 3878 1952 3476 
Q 1563 3075 1563 2328 
Q 1563 1588 1938 1184 
Q 2313 781 3003 781 
Q 3191 781 3352 804 
Q 3513 828 3641 878 
L 3641 1784 
L 2906 1784 
L 2906 2591 
L 4781 2591 
L 4781 347 
z
" transform="scale(0.015625)"/>
     <path id="DejaVuSans-Bold-34" d="M 2847 -84 
L 2753 -84 
Q 1600 -84 959 553 
Q 319 1191 319 2328 
Q 319 3463 958 4106 
Q 1597 4750 2719 4750 
Q 3853 4750 4486 4112 
Q 5119 3475 5119 2328 
Q 5119 1541 4783 972 
Q 4447 403 3816 116 
L 4756 -934 
L 3609 -934 
L 2847 -84 
z
M 2719 3878 
Q 2169 3878 1866 3472 
Q 1563 3066 1563 2328 
Q 1563 1578 1859 1179 
Q 2156 781 2719 781 
Q 3272 781 3575 1187 
Q 3878 1594 3878 2328 
Q 3878 3066 3575 3472 
Q 3272 3878 2719 3878 
z
" transform="scale(0.015625)"/>
     <path id="DejaVuSans-Bold-38" d="M 588 4666 
L 1791 4666 
L 1791 1869 
Q 1791 1291 1980 1042 
Q 2169 794 2597 794 
Q 3028 794 3217 1042 
Q 3406 1291 3406 1869 
L 3406 4666 
L 4609 4666 
L 4609 1869 
Q 4609 878 4112 393 
Q 3616 -91 2597 -91 
Q 1581 -91 1084 393 
Q 588 878 588 1869 
L 588 4666 
z
" transform="scale(0.015625)"/>
     <path id="DejaVuSans-Bold-79" d="M 653 2828 
L 1778 2828 
L 1778 1619 
L 653 1619 
L 653 2828 
z
" transform="scale(0.015625)"/>
     <path id="DejaVuSans-Bold-27" d="M 1791 3756 
L 1791 909 
L 2222 909 
Q 2959 909 3348 1275 
Q 3738 1641 3738 2338 
Q 3738 3031 3350 3393 
Q 2963 3756 2222 3756 
L 1791 3756 
z
M 588 4666 
L 1856 4666 
Q 2919 4666 3439 4514 
Q 3959 4363 4331 4000 
Q 4659 3684 4818 3271 
Q 4978 2859 4978 2338 
Q 4978 1809 4818 1395 
Q 4659 981 4331 666 
Q 3956 303 3431 151 
Q 2906 0 1856 0 
L 588 0 
L 588 4666 
z
" transform="scale(0.015625)"/>
     <path id="DejaVuSans-Bold-10" d="M 347 2297 
L 2309 2297 
L 2309 1388 
L 347 1388 
L 347 2297 
z
" transform="scale(0.015625)"/>
     <path id="DejaVuSans-Bold-42" d="M 3200 -916 
L 3200 -1509 
L 0 -1509 
L 0 -916 
L 3200 -916 
z
" transform="scale(0.015625)"/>
     <path id="DejaVuSans-Bold-46" d="M 3366 3391 
L 3366 2478 
Q 3138 2634 2908 2709 
Q 2678 2784 2431 2784 
Q 1963 2784 1702 2511 
Q 1441 2238 1441 1747 
Q 1441 1256 1702 982 
Q 1963 709 2431 709 
Q 2694 709 2930 787 
Q 3166 866 3366 1019 
L 3366 103 
Q 3103 6 2833 -42 
Q 2563 -91 2291 -91 
Q 1344 -91 809 395 
Q 275 881 275 1747 
Q 275 2613 809 3098 
Q 1344 3584 2291 3584 
Q 2566 3584 2833 3536 
Q 3100 3488 3366 3391 
z
" transform="scale(0.015625)"/>
     <path id="DejaVuSans-Bold-52" d="M 2203 2784 
Q 1831 2784 1636 2517 
Q 1441 2250 1441 1747 
Q 1441 1244 1636 976 
Q 1831 709 2203 709 
Q 2569 709 2762 976 
Q 2956 1244 2956 1747 
Q 2956 2250 2762 2517 
Q 2569 2784 2203 2784 
z
M 2203 3584 
Q 3106 3584 3614 3096 
Q 4122 2609 4122 1747 
Q 4122 884 3614 396 
Q 3106 -91 2203 -91 
Q 1297 -91 786 396 
Q 275 884 275 1747 
Q 275 2609 786 3096 
Q 1297 3584 2203 3584 
z
" transform="scale(0.015625)"/>
     <path id="DejaVuSans-Bold-59" d="M 97 3500 
L 1216 3500 
L 2088 1081 
L 2956 3500 
L 4078 3500 
L 2700 0 
L 1472 0 
L 97 3500 
z
" transform="scale(0.015625)"/>
     <path id="DejaVuSans-Bold-af6" d="M 344 2156 
L 6056 2156 
L 6056 1350 
L 344 1350 
L 344 2156 
z
" transform="scale(0.015625)"/>
     <path id="DejaVuSans-Bold-28" d="M 588 4666 
L 3834 4666 
L 3834 3756 
L 1791 3756 
L 1791 2888 
L 3713 2888 
L 3713 1978 
L 1791 1978 
L 1791 909 
L 3903 909 
L 3903 0 
L 588 0 
L 588 4666 
z
" transform="scale(0.015625)"/>
     <path id="DejaVuSans-Bold-37" d="M 31 4666 
L 4331 4666 
L 4331 3756 
L 2784 3756 
L 2784 0 
L 1581 0 
L 1581 3756 
L 31 3756 
L 31 4666 
z
" transform="scale(0.015625)"/>
     <path id="DejaVuSans-Bold-35" d="M 2297 2597 
Q 2675 2597 2839 2737 
Q 3003 2878 3003 3200 
Q 3003 3519 2839 3656 
Q 2675 3794 2297 3794 
L 1791 3794 
L 1791 2597 
L 2297 2597 
z
M 1791 1766 
L 1791 0 
L 588 0 
L 588 4666 
L 2425 4666 
Q 3347 4666 3776 4356 
Q 4206 4047 4206 3378 
Q 4206 2916 3982 2619 
Q 3759 2322 3309 2181 
Q 3556 2125 3751 1926 
Q 3947 1728 4147 1325 
L 4800 0 
L 3519 0 
L 2950 1159 
Q 2778 1509 2601 1637 
Q 2425 1766 2131 1766 
L 1791 1766 
z
" transform="scale(0.015625)"/>
    </defs>
    <use xlink:href="#DejaVuSans-Bold-2f"/>
    <use xlink:href="#DejaVuSans-Bold-18" transform="translate(63.71875 0)"/>
    <use xlink:href="#DejaVuSans-Bold-15" transform="translate(133.296875 0)"/>
    <use xlink:href="#DejaVuSans-Bold-1b" transform="translate(202.875 0)"/>
    <use xlink:href="#DejaVuSans-Bold-36" transform="translate(272.453125 0)"/>
    <use xlink:href="#DejaVuSans-Bold-3" transform="translate(344.46875 0)"/>
    <use xlink:href="#DejaVuSans-Bold-99" transform="translate(379.28125 0)"/>
    <use xlink:href="#DejaVuSans-Bold-3" transform="translate(463.078125 0)"/>
    <use xlink:href="#DejaVuSans-Bold-1a" transform="translate(497.890625 0)"/>
    <use xlink:href="#DejaVuSans-Bold-2a" transform="translate(567.46875 0)"/>
    <use xlink:href="#DejaVuSans-Bold-34" transform="translate(649.546875 0)"/>
    <use xlink:href="#DejaVuSans-Bold-38" transform="translate(734.5625 0)"/>
    <use xlink:href="#DejaVuSans-Bold-3" transform="translate(815.765625 0)"/>
    <use xlink:href="#DejaVuSans-Bold-79" transform="translate(850.578125 0)"/>
    <use xlink:href="#DejaVuSans-Bold-3" transform="translate(888.5625 0)"/>
    <use xlink:href="#DejaVuSans-Bold-39" transform="translate(923.375 0)"/>
    <use xlink:href="#DejaVuSans-Bold-39" transform="translate(1000.765625 0)"/>
    <use xlink:href="#DejaVuSans-Bold-27" transform="translate(1078.15625 0)"/>
    <use xlink:href="#DejaVuSans-Bold-10" transform="translate(1163.03125 0)"/>
    <use xlink:href="#DejaVuSans-Bold-15" transform="translate(1204.53125 0)"/>
    <use xlink:href="#DejaVuSans-Bold-14" transform="translate(1274.109375 0)"/>
    <use xlink:href="#DejaVuSans-Bold-17" transform="translate(1343.6875 0)"/>
    <use xlink:href="#DejaVuSans-Bold-42" transform="translate(1413.265625 0)"/>
    <use xlink:href="#DejaVuSans-Bold-46" transform="translate(1463.265625 0)"/>
    <use xlink:href="#DejaVuSans-Bold-52" transform="translate(1522.546875 0)"/>
    <use xlink:href="#DejaVuSans-Bold-59" transform="translate(1591.25 0)"/>
    <use xlink:href="#DejaVuSans-Bold-3" transform="translate(1656.4375 0)"/>
    <use xlink:href="#DejaVuSans-Bold-af6" transform="translate(1691.25 0)"/>
    <use xlink:href="#DejaVuSans-Bold-3" transform="translate(1791.25 0)"/>
    <use xlink:href="#DejaVuSans-Bold-31" transform="translate(1826.0625 0)"/>
    <use xlink:href="#DejaVuSans-Bold-28" transform="translate(1909.75 0)"/>
    <use xlink:href="#DejaVuSans-Bold-38" transform="translate(1978.0625 0)"/>
    <use xlink:href="#DejaVuSans-Bold-37" transform="translate(2059.265625 0)"/>
    <use xlink:href="#DejaVuSans-Bold-35" transform="translate(2127.484375 0)"/>
    <use xlink:href="#DejaVuSans-Bold-24" transform="translate(2204.484375 0)"/>
    <use xlink:href="#DejaVuSans-Bold-2f" transform="translate(2281.875 0)"/>
   </g>
  </g>
  <g id="text_18">
   <!-- ΔS = +0.05  |  RMSD vs WT = 0.07 Å  |  0 lost / 5 retained / 0 gained -->
   <g transform="translate(180.051328 42.254953) scale(0.105 -0.105)">
    <defs>
     <path id="DejaVuSans-329" d="M 2188 4044 
L 906 525 
L 3472 525 
L 2188 4044 
z
M 50 0 
L 1831 4666 
L 2547 4666 
L 4325 0 
L 50 0 
z
" transform="scale(0.015625)"/>
     <path id="DejaVuSans-36" d="M 3425 4513 
L 3425 3897 
Q 3066 4069 2747 4153 
Q 2428 4238 2131 4238 
Q 1616 4238 1336 4038 
Q 1056 3838 1056 3469 
Q 1056 3159 1242 3001 
Q 1428 2844 1947 2747 
L 2328 2669 
Q 3034 2534 3370 2195 
Q 3706 1856 3706 1288 
Q 3706 609 3251 259 
Q 2797 -91 1919 -91 
Q 1588 -91 1214 -16 
Q 841 59 441 206 
L 441 856 
Q 825 641 1194 531 
Q 1563 422 1919 422 
Q 2459 422 2753 634 
Q 3047 847 3047 1241 
Q 3047 1584 2836 1778 
Q 2625 1972 2144 2069 
L 1759 2144 
Q 1053 2284 737 2584 
Q 422 2884 422 3419 
Q 422 4038 858 4394 
Q 1294 4750 2059 4750 
Q 2388 4750 2728 4690 
Q 3069 4631 3425 4513 
z
" transform="scale(0.015625)"/>
     <path id="DejaVuSans-3" transform="scale(0.015625)"/>
     <path id="DejaVuSans-20" d="M 678 2906 
L 4684 2906 
L 4684 2381 
L 678 2381 
L 678 2906 
z
M 678 1631 
L 4684 1631 
L 4684 1100 
L 678 1100 
L 678 1631 
z
" transform="scale(0.015625)"/>
     <path id="DejaVuSans-e" d="M 2944 4013 
L 2944 2272 
L 4684 2272 
L 4684 1741 
L 2944 1741 
L 2944 0 
L 2419 0 
L 2419 1741 
L 678 1741 
L 678 2272 
L 2419 2272 
L 2419 4013 
L 2944 4013 
z
" transform="scale(0.015625)"/>
     <path id="DejaVuSans-13" d="M 2034 4250 
Q 1547 4250 1301 3770 
Q 1056 3291 1056 2328 
Q 1056 1369 1301 889 
Q 1547 409 2034 409 
Q 2525 409 2770 889 
Q 3016 1369 3016 2328 
Q 3016 3291 2770 3770 
Q 2525 4250 2034 4250 
z
M 2034 4750 
Q 2819 4750 3233 4129 
Q 3647 3509 3647 2328 
Q 3647 1150 3233 529 
Q 2819 -91 2034 -91 
Q 1250 -91 836 529 
Q 422 1150 422 2328 
Q 422 3509 836 4129 
Q 1250 4750 2034 4750 
z
" transform="scale(0.015625)"/>
     <path id="DejaVuSans-11" d="M 684 794 
L 1344 794 
L 1344 0 
L 684 0 
L 684 794 
z
" transform="scale(0.015625)"/>
     <path id="DejaVuSans-18" d="M 691 4666 
L 3169 4666 
L 3169 4134 
L 1269 4134 
L 1269 2991 
Q 1406 3038 1543 3061 
Q 1681 3084 1819 3084 
Q 2600 3084 3056 2656 
Q 3513 2228 3513 1497 
Q 3513 744 3044 326 
Q 2575 -91 1722 -91 
Q 1428 -91 1123 -41 
Q 819 9 494 109 
L 494 744 
Q 775 591 1075 516 
Q 1375 441 1709 441 
Q 2250 441 2565 725 
Q 2881 1009 2881 1497 
Q 2881 1984 2565 2268 
Q 2250 2553 1709 2553 
Q 1456 2553 1204 2497 
Q 953 2441 691 2322 
L 691 4666 
z
" transform="scale(0.015625)"/>
     <path id="DejaVuSans-5f" d="M 1344 4891 
L 1344 -1509 
L 813 -1509 
L 813 4891 
L 1344 4891 
z
" transform="scale(0.015625)"/>
     <path id="DejaVuSans-35" d="M 2841 2188 
Q 3044 2119 3236 1894 
Q 3428 1669 3622 1275 
L 4263 0 
L 3584 0 
L 2988 1197 
Q 2756 1666 2539 1819 
Q 2322 1972 1947 1972 
L 1259 1972 
L 1259 0 
L 628 0 
L 628 4666 
L 2053 4666 
Q 2853 4666 3247 4331 
Q 3641 3997 3641 3322 
Q 3641 2881 3436 2590 
Q 3231 2300 2841 2188 
z
M 1259 4147 
L 1259 2491 
L 2053 2491 
Q 2509 2491 2742 2702 
Q 2975 2913 2975 3322 
Q 2975 3731 2742 3939 
Q 2509 4147 2053 4147 
L 1259 4147 
z
" transform="scale(0.015625)"/>
     <path id="DejaVuSans-30" d="M 628 4666 
L 1569 4666 
L 2759 1491 
L 3956 4666 
L 4897 4666 
L 4897 0 
L 4281 0 
L 4281 4097 
L 3078 897 
L 2444 897 
L 1241 4097 
L 1241 0 
L 628 0 
L 628 4666 
z
" transform="scale(0.015625)"/>
     <path id="DejaVuSans-27" d="M 1259 4147 
L 1259 519 
L 2022 519 
Q 2988 519 3436 956 
Q 3884 1394 3884 2338 
Q 3884 3275 3436 3711 
Q 2988 4147 2022 4147 
L 1259 4147 
z
M 628 4666 
L 1925 4666 
Q 3281 4666 3915 4102 
Q 4550 3538 4550 2338 
Q 4550 1131 3912 565 
Q 3275 0 1925 0 
L 628 0 
L 628 4666 
z
" transform="scale(0.015625)"/>
     <path id="DejaVuSans-59" d="M 191 3500 
L 800 3500 
L 1894 563 
L 2988 3500 
L 3597 3500 
L 2284 0 
L 1503 0 
L 191 3500 
z
" transform="scale(0.015625)"/>
     <path id="DejaVuSans-56" d="M 2834 3397 
L 2834 2853 
Q 2591 2978 2328 3040 
Q 2066 3103 1784 3103 
Q 1356 3103 1142 2972 
Q 928 2841 928 2578 
Q 928 2378 1081 2264 
Q 1234 2150 1697 2047 
L 1894 2003 
Q 2506 1872 2764 1633 
Q 3022 1394 3022 966 
Q 3022 478 2636 193 
Q 2250 -91 1575 -91 
Q 1294 -91 989 -36 
Q 684 19 347 128 
L 347 722 
Q 666 556 975 473 
Q 1284 391 1588 391 
Q 1994 391 2212 530 
Q 2431 669 2431 922 
Q 2431 1156 2273 1281 
Q 2116 1406 1581 1522 
L 1381 1569 
Q 847 1681 609 1914 
Q 372 2147 372 2553 
Q 372 3047 722 3315 
Q 1072 3584 1716 3584 
Q 2034 3584 2315 3537 
Q 2597 3491 2834 3397 
z
" transform="scale(0.015625)"/>
     <path id="DejaVuSans-3a" d="M 213 4666 
L 850 4666 
L 1831 722 
L 2809 4666 
L 3519 4666 
L 4500 722 
L 5478 4666 
L 6119 4666 
L 4947 0 
L 4153 0 
L 3169 4050 
L 2175 0 
L 1381 0 
L 213 4666 
z
" transform="scale(0.015625)"/>
     <path id="DejaVuSans-37" d="M -19 4666 
L 3928 4666 
L 3928 4134 
L 2272 4134 
L 2272 0 
L 1638 0 
L 1638 4134 
L -19 4134 
L -19 4666 
z
" transform="scale(0.015625)"/>
     <path id="DejaVuSans-1a" d="M 525 4666 
L 3525 4666 
L 3525 4397 
L 1831 0 
L 1172 0 
L 2766 4134 
L 525 4134 
L 525 4666 
z
" transform="scale(0.015625)"/>
     <path id="DejaVuSans-87" d="M 2663 5081 
Q 2663 5278 2523 5417 
Q 2384 5556 2188 5556 
Q 1988 5556 1852 5420 
Q 1716 5284 1716 5081 
Q 1716 4884 1853 4746 
Q 1991 4609 2188 4609 
Q 2384 4609 2523 4746 
Q 2663 4884 2663 5081 
z
M 2188 4044 
L 1338 1722 
L 3041 1722 
L 2188 4044 
z
M 1716 4366 
Q 1525 4494 1428 4673 
Q 1331 4853 1331 5081 
Q 1331 5441 1579 5691 
Q 1828 5941 2188 5941 
Q 2544 5941 2795 5689 
Q 3047 5438 3047 5081 
Q 3047 4863 2948 4678 
Q 2850 4494 2663 4366 
L 4325 0 
L 3669 0 
L 3244 1197 
L 1141 1197 
L 716 0 
L 50 0 
L 1716 4366 
z
" transform="scale(0.015625)"/>
     <path id="DejaVuSans-4f" d="M 603 4863 
L 1178 4863 
L 1178 0 
L 603 0 
L 603 4863 
z
" transform="scale(0.015625)"/>
     <path id="DejaVuSans-52" d="M 1959 3097 
Q 1497 3097 1228 2736 
Q 959 2375 959 1747 
Q 959 1119 1226 758 
Q 1494 397 1959 397 
Q 2419 397 2687 759 
Q 2956 1122 2956 1747 
Q 2956 2369 2687 2733 
Q 2419 3097 1959 3097 
z
M 1959 3584 
Q 2709 3584 3137 3096 
Q 3566 2609 3566 1747 
Q 3566 888 3137 398 
Q 2709 -91 1959 -91 
Q 1206 -91 779 398 
Q 353 888 353 1747 
Q 353 2609 779 3096 
Q 1206 3584 1959 3584 
z
" transform="scale(0.015625)"/>
     <path id="DejaVuSans-57" d="M 1172 4494 
L 1172 3500 
L 2356 3500 
L 2356 3053 
L 1172 3053 
L 1172 1153 
Q 1172 725 1289 603 
Q 1406 481 1766 481 
L 2356 481 
L 2356 0 
L 1766 0 
Q 1100 0 847 248 
Q 594 497 594 1153 
L 594 3053 
L 172 3053 
L 172 3500 
L 594 3500 
L 594 4494 
L 1172 4494 
z
" transform="scale(0.015625)"/>
     <path id="DejaVuSans-12" d="M 1625 4666 
L 2156 4666 
L 531 -594 
L 0 -594 
L 1625 4666 
z
" transform="scale(0.015625)"/>
     <path id="DejaVuSans-55" d="M 2631 2963 
Q 2534 3019 2420 3045 
Q 2306 3072 2169 3072 
Q 1681 3072 1420 2755 
Q 1159 2438 1159 1844 
L 1159 0 
L 581 0 
L 581 3500 
L 1159 3500 
L 1159 2956 
Q 1341 3275 1631 3429 
Q 1922 3584 2338 3584 
Q 2397 3584 2469 3576 
Q 2541 3569 2628 3553 
L 2631 2963 
z
" transform="scale(0.015625)"/>
     <path id="DejaVuSans-48" d="M 3597 1894 
L 3597 1613 
L 953 1613 
Q 991 1019 1311 708 
Q 1631 397 2203 397 
Q 2534 397 2845 478 
Q 3156 559 3463 722 
L 3463 178 
Q 3153 47 2828 -22 
Q 2503 -91 2169 -91 
Q 1331 -91 842 396 
Q 353 884 353 1716 
Q 353 2575 817 3079 
Q 1281 3584 2069 3584 
Q 2775 3584 3186 3129 
Q 3597 2675 3597 1894 
z
M 3022 2063 
Q 3016 2534 2758 2815 
Q 2500 3097 2075 3097 
Q 1594 3097 1305 2825 
Q 1016 2553 972 2059 
L 3022 2063 
z
" transform="scale(0.015625)"/>
     <path id="DejaVuSans-44" d="M 2194 1759 
Q 1497 1759 1228 1600 
Q 959 1441 959 1056 
Q 959 750 1161 570 
Q 1363 391 1709 391 
Q 2188 391 2477 730 
Q 2766 1069 2766 1631 
L 2766 1759 
L 2194 1759 
z
M 3341 1997 
L 3341 0 
L 2766 0 
L 2766 531 
Q 2569 213 2275 61 
Q 1981 -91 1556 -91 
Q 1019 -91 701 211 
Q 384 513 384 1019 
Q 384 1609 779 1909 
Q 1175 2209 1959 2209 
L 2766 2209 
L 2766 2266 
Q 2766 2663 2505 2880 
Q 2244 3097 1772 3097 
Q 1472 3097 1187 3025 
Q 903 2953 641 2809 
L 641 3341 
Q 956 3463 1253 3523 
Q 1550 3584 1831 3584 
Q 2591 3584 2966 3190 
Q 3341 2797 3341 1997 
z
" transform="scale(0.015625)"/>
     <path id="DejaVuSans-4c" d="M 603 3500 
L 1178 3500 
L 1178 0 
L 603 0 
L 603 3500 
z
M 603 4863 
L 1178 4863 
L 1178 4134 
L 603 4134 
L 603 4863 
z
" transform="scale(0.015625)"/>
     <path id="DejaVuSans-51" d="M 3513 2113 
L 3513 0 
L 2938 0 
L 2938 2094 
Q 2938 2591 2744 2837 
Q 2550 3084 2163 3084 
Q 1697 3084 1428 2787 
Q 1159 2491 1159 1978 
L 1159 0 
L 581 0 
L 581 3500 
L 1159 3500 
L 1159 2956 
Q 1366 3272 1645 3428 
Q 1925 3584 2291 3584 
Q 2894 3584 3203 3211 
Q 3513 2838 3513 2113 
z
" transform="scale(0.015625)"/>
     <path id="DejaVuSans-47" d="M 2906 2969 
L 2906 4863 
L 3481 4863 
L 3481 0 
L 2906 0 
L 2906 525 
Q 2725 213 2448 61 
Q 2172 -91 1784 -91 
Q 1150 -91 751 415 
Q 353 922 353 1747 
Q 353 2572 751 3078 
Q 1150 3584 1784 3584 
Q 2172 3584 2448 3432 
Q 2725 3281 2906 2969 
z
M 947 1747 
Q 947 1113 1208 752 
Q 1469 391 1925 391 
Q 2381 391 2643 752 
Q 2906 1113 2906 1747 
Q 2906 2381 2643 2742 
Q 2381 3103 1925 3103 
Q 1469 3103 1208 2742 
Q 947 2381 947 1747 
z
" transform="scale(0.015625)"/>
     <path id="DejaVuSans-4a" d="M 2906 1791 
Q 2906 2416 2648 2759 
Q 2391 3103 1925 3103 
Q 1463 3103 1205 2759 
Q 947 2416 947 1791 
Q 947 1169 1205 825 
Q 1463 481 1925 481 
Q 2391 481 2648 825 
Q 2906 1169 2906 1791 
z
M 3481 434 
Q 3481 -459 3084 -895 
Q 2688 -1331 1869 -1331 
Q 1566 -1331 1297 -1286 
Q 1028 -1241 775 -1147 
L 775 -588 
Q 1028 -725 1275 -790 
Q 1522 -856 1778 -856 
Q 2344 -856 2625 -561 
Q 2906 -266 2906 331 
L 2906 616 
Q 2728 306 2450 153 
Q 2172 0 1784 0 
Q 1141 0 747 490 
Q 353 981 353 1791 
Q 353 2603 747 3093 
Q 1141 3584 1784 3584 
Q 2172 3584 2450 3431 
Q 2728 3278 2906 2969 
L 2906 3500 
L 3481 3500 
L 3481 434 
z
" transform="scale(0.015625)"/>
    </defs>
    <use xlink:href="#DejaVuSans-329"/>
    <use xlink:href="#DejaVuSans-36" transform="translate(68.40625 0)"/>
    <use xlink:href="#DejaVuSans-3" transform="translate(131.890625 0)"/>
    <use xlink:href="#DejaVuSans-20" transform="translate(163.671875 0)"/>
    <use xlink:href="#DejaVuSans-3" transform="translate(247.46875 0)"/>
    <use xlink:href="#DejaVuSans-e" transform="translate(279.25 0)"/>
    <use xlink:href="#DejaVuSans-13" transform="translate(363.046875 0)"/>
    <use xlink:href="#DejaVuSans-11" transform="translate(426.671875 0)"/>
    <use xlink:href="#DejaVuSans-13" transform="translate(458.453125 0)"/>
    <use xlink:href="#DejaVuSans-18" transform="translate(522.078125 0)"/>
    <use xlink:href="#DejaVuSans-3" transform="translate(585.703125 0)"/>
    <use xlink:href="#DejaVuSans-3" transform="translate(617.484375 0)"/>
    <use xlink:href="#DejaVuSans-5f" transform="translate(649.265625 0)"/>
    <use xlink:href="#DejaVuSans-3" transform="translate(682.953125 0)"/>
    <use xlink:href="#DejaVuSans-3" transform="translate(714.734375 0)"/>
    <use xlink:href="#DejaVuSans-35" transform="translate(746.515625 0)"/>
    <use xlink:href="#DejaVuSans-30" transform="translate(816 0)"/>
    <use xlink:href="#DejaVuSans-36" transform="translate(902.28125 0)"/>
    <use xlink:href="#DejaVuSans-27" transform="translate(965.765625 0)"/>
    <use xlink:href="#DejaVuSans-3" transform="translate(1042.765625 0)"/>
    <use xlink:href="#DejaVuSans-59" transform="translate(1074.546875 0)"/>
    <use xlink:href="#DejaVuSans-56" transform="translate(1133.734375 0)"/>
    <use xlink:href="#DejaVuSans-3" transform="translate(1185.828125 0)"/>
    <use xlink:href="#DejaVuSans-3a" transform="translate(1217.609375 0)"/>
    <use xlink:href="#DejaVuSans-37" transform="translate(1316.484375 0)"/>
    <use xlink:href="#DejaVuSans-3" transform="translate(1377.5625 0)"/>
    <use xlink:href="#DejaVuSans-20" transform="translate(1409.34375 0)"/>
    <use xlink:href="#DejaVuSans-3" transform="translate(1493.140625 0)"/>
    <use xlink:href="#DejaVuSans-13" transform="translate(1524.921875 0)"/>
    <use xlink:href="#DejaVuSans-11" transform="translate(1588.546875 0)"/>
    <use xlink:href="#DejaVuSans-13" transform="translate(1620.328125 0)"/>
    <use xlink:href="#DejaVuSans-1a" transform="translate(1683.953125 0)"/>
    <use xlink:href="#DejaVuSans-3" transform="translate(1747.578125 0)"/>
    <use xlink:href="#DejaVuSans-87" transform="translate(1779.359375 0)"/>
    <use xlink:href="#DejaVuSans-3" transform="translate(1847.765625 0)"/>
    <use xlink:href="#DejaVuSans-3" transform="translate(1879.546875 0)"/>
    <use xlink:href="#DejaVuSans-5f" transform="translate(1911.328125 0)"/>
    <use xlink:href="#DejaVuSans-3" transform="translate(1945.015625 0)"/>
    <use xlink:href="#DejaVuSans-3" transform="translate(1976.796875 0)"/>
    <use xlink:href="#DejaVuSans-13" transform="translate(2008.578125 0)"/>
    <use xlink:href="#DejaVuSans-3" transform="translate(2072.203125 0)"/>
    <use xlink:href="#DejaVuSans-4f" transform="translate(2103.984375 0)"/>
    <use xlink:href="#DejaVuSans-52" transform="translate(2131.765625 0)"/>
    <use xlink:href="#DejaVuSans-56" transform="translate(2192.953125 0)"/>
    <use xlink:href="#DejaVuSans-57" transform="translate(2245.046875 0)"/>
    <use xlink:href="#DejaVuSans-3" transform="translate(2284.25 0)"/>
    <use xlink:href="#DejaVuSans-12" transform="translate(2316.03125 0)"/>
    <use xlink:href="#DejaVuSans-3" transform="translate(2349.71875 0)"/>
    <use xlink:href="#DejaVuSans-18" transform="translate(2381.5 0)"/>
    <use xlink:href="#DejaVuSans-3" transform="translate(2445.125 0)"/>
    <use xlink:href="#DejaVuSans-55" transform="translate(2476.90625 0)"/>
    <use xlink:href="#DejaVuSans-48" transform="translate(2515.8125 0)"/>
    <use xlink:href="#DejaVuSans-57" transform="translate(2577.34375 0)"/>
    <use xlink:href="#DejaVuSans-44" transform="translate(2616.546875 0)"/>
    <use xlink:href="#DejaVuSans-4c" transform="translate(2677.828125 0)"/>
    <use xlink:href="#DejaVuSans-51" transform="translate(2705.609375 0)"/>
    <use xlink:href="#DejaVuSans-48" transform="translate(2768.984375 0)"/>
    <use xlink:href="#DejaVuSans-47" transform="translate(2830.515625 0)"/>
    <use xlink:href="#DejaVuSans-3" transform="translate(2894 0)"/>
    <use xlink:href="#DejaVuSans-12" transform="translate(2925.78125 0)"/>
    <use xlink:href="#DejaVuSans-3" transform="translate(2959.46875 0)"/>
    <use xlink:href="#DejaVuSans-13" transform="translate(2991.25 0)"/>
    <use xlink:href="#DejaVuSans-3" transform="translate(3054.875 0)"/>
    <use xlink:href="#DejaVuSans-4a" transform="translate(3086.65625 0)"/>
    <use xlink:href="#DejaVuSans-44" transform="translate(3150.140625 0)"/>
    <use xlink:href="#DejaVuSans-4c" transform="translate(3211.421875 0)"/>
    <use xlink:href="#DejaVuSans-51" transform="translate(3239.203125 0)"/>
    <use xlink:href="#DejaVuSans-48" transform="translate(3302.578125 0)"/>
    <use xlink:href="#DejaVuSans-47" transform="translate(3364.109375 0)"/>
   </g>
  </g>
  <g id="text_19">
   <!-- PLIP: 4 hydrophobic · 1 H-bond · 1 π-stack -->
   <g transform="translate(250.107656 61.654359) scale(0.105 -0.105)">
    <defs>
     <path id="DejaVuSans-33" d="M 1259 4147 
L 1259 2394 
L 2053 2394 
Q 2494 2394 2734 2622 
Q 2975 2850 2975 3272 
Q 2975 3691 2734 3919 
Q 2494 4147 2053 4147 
L 1259 4147 
z
M 628 4666 
L 2053 4666 
Q 2838 4666 3239 4311 
Q 3641 3956 3641 3272 
Q 3641 2581 3239 2228 
Q 2838 1875 2053 1875 
L 1259 1875 
L 1259 0 
L 628 0 
L 628 4666 
z
" transform="scale(0.015625)"/>
     <path id="DejaVuSans-2f" d="M 628 4666 
L 1259 4666 
L 1259 531 
L 3531 531 
L 3531 0 
L 628 0 
L 628 4666 
z
" transform="scale(0.015625)"/>
     <path id="DejaVuSans-2c" d="M 628 4666 
L 1259 4666 
L 1259 0 
L 628 0 
L 628 4666 
z
" transform="scale(0.015625)"/>
     <path id="DejaVuSans-1d" d="M 750 794 
L 1409 794 
L 1409 0 
L 750 0 
L 750 794 
z
M 750 3309 
L 1409 3309 
L 1409 2516 
L 750 2516 
L 750 3309 
z
" transform="scale(0.015625)"/>
     <path id="DejaVuSans-17" d="M 2419 4116 
L 825 1625 
L 2419 1625 
L 2419 4116 
z
M 2253 4666 
L 3047 4666 
L 3047 1625 
L 3713 1625 
L 3713 1100 
L 3047 1100 
L 3047 0 
L 2419 0 
L 2419 1100 
L 313 1100 
L 313 1709 
L 2253 4666 
z
" transform="scale(0.015625)"/>
     <path id="DejaVuSans-4b" d="M 3513 2113 
L 3513 0 
L 2938 0 
L 2938 2094 
Q 2938 2591 2744 2837 
Q 2550 3084 2163 3084 
Q 1697 3084 1428 2787 
Q 1159 2491 1159 1978 
L 1159 0 
L 581 0 
L 581 4863 
L 1159 4863 
L 1159 2956 
Q 1366 3272 1645 3428 
Q 1925 3584 2291 3584 
Q 2894 3584 3203 3211 
Q 3513 2838 3513 2113 
z
" transform="scale(0.015625)"/>
     <path id="DejaVuSans-5c" d="M 2059 -325 
Q 1816 -950 1584 -1140 
Q 1353 -1331 966 -1331 
L 506 -1331 
L 506 -850 
L 844 -850 
Q 1081 -850 1212 -737 
Q 1344 -625 1503 -206 
L 1606 56 
L 191 3500 
L 800 3500 
L 1894 763 
L 2988 3500 
L 3597 3500 
L 2059 -325 
z
" transform="scale(0.015625)"/>
     <path id="DejaVuSans-53" d="M 1159 525 
L 1159 -1331 
L 581 -1331 
L 581 3500 
L 1159 3500 
L 1159 2969 
Q 1341 3281 1617 3432 
Q 1894 3584 2278 3584 
Q 2916 3584 3314 3078 
Q 3713 2572 3713 1747 
Q 3713 922 3314 415 
Q 2916 -91 2278 -91 
Q 1894 -91 1617 61 
Q 1341 213 1159 525 
z
M 3116 1747 
Q 3116 2381 2855 2742 
Q 2594 3103 2138 3103 
Q 1681 3103 1420 2742 
Q 1159 2381 1159 1747 
Q 1159 1113 1420 752 
Q 1681 391 2138 391 
Q 2594 391 2855 752 
Q 3116 1113 3116 1747 
z
" transform="scale(0.015625)"/>
     <path id="DejaVuSans-45" d="M 3116 1747 
Q 3116 2381 2855 2742 
Q 2594 3103 2138 3103 
Q 1681 3103 1420 2742 
Q 1159 2381 1159 1747 
Q 1159 1113 1420 752 
Q 1681 391 2138 391 
Q 2594 391 2855 752 
Q 3116 1113 3116 1747 
z
M 1159 2969 
Q 1341 3281 1617 3432 
Q 1894 3584 2278 3584 
Q 2916 3584 3314 3078 
Q 3713 2572 3713 1747 
Q 3713 922 3314 415 
Q 2916 -91 2278 -91 
Q 1894 -91 1617 61 
Q 1341 213 1159 525 
L 1159 0 
L 581 0 
L 581 4863 
L 1159 4863 
L 1159 2969 
z
" transform="scale(0.015625)"/>
     <path id="DejaVuSans-46" d="M 3122 3366 
L 3122 2828 
Q 2878 2963 2633 3030 
Q 2388 3097 2138 3097 
Q 1578 3097 1268 2742 
Q 959 2388 959 1747 
Q 959 1106 1268 751 
Q 1578 397 2138 397 
Q 2388 397 2633 464 
Q 2878 531 3122 666 
L 3122 134 
Q 2881 22 2623 -34 
Q 2366 -91 2075 -91 
Q 1284 -91 818 406 
Q 353 903 353 1747 
Q 353 2603 823 3093 
Q 1294 3584 2113 3584 
Q 2378 3584 2631 3529 
Q 2884 3475 3122 3366 
z
" transform="scale(0.015625)"/>
     <path id="DejaVuSans-79" d="M 684 2619 
L 1344 2619 
L 1344 1825 
L 684 1825 
L 684 2619 
z
" transform="scale(0.015625)"/>
     <path id="DejaVuSans-14" d="M 794 531 
L 1825 531 
L 1825 4091 
L 703 3866 
L 703 4441 
L 1819 4666 
L 2450 4666 
L 2450 531 
L 3481 531 
L 3481 0 
L 794 0 
L 794 531 
z
" transform="scale(0.015625)"/>
     <path id="DejaVuSans-2b" d="M 628 4666 
L 1259 4666 
L 1259 2753 
L 3553 2753 
L 3553 4666 
L 4184 4666 
L 4184 0 
L 3553 0 
L 3553 2222 
L 1259 2222 
L 1259 0 
L 628 0 
L 628 4666 
z
" transform="scale(0.015625)"/>
     <path id="DejaVuSans-10" d="M 313 2009 
L 1997 2009 
L 1997 1497 
L 313 1497 
L 313 2009 
z
" transform="scale(0.015625)"/>
     <path id="DejaVuSans-354" d="M 231 3500 
L 3584 3500 
L 3584 2925 
L 3144 2925 
L 3144 775 
Q 3144 550 3220 451 
Q 3297 353 3469 353 
Q 3516 353 3584 361 
Q 3653 369 3675 372 
L 3675 -44 
Q 3566 -84 3450 -103 
Q 3334 -122 3219 -122 
Q 2844 -122 2700 83 
Q 2556 288 2556 838 
L 2556 2925 
L 1266 2925 
L 1266 0 
L 678 0 
L 678 2925 
L 231 2925 
L 231 3500 
z
" transform="scale(0.015625)"/>
     <path id="DejaVuSans-4e" d="M 581 4863 
L 1159 4863 
L 1159 1991 
L 2875 3500 
L 3609 3500 
L 1753 1863 
L 3688 0 
L 2938 0 
L 1159 1709 
L 1159 0 
L 581 0 
L 581 4863 
z
" transform="scale(0.015625)"/>
    </defs>
    <use xlink:href="#DejaVuSans-33"/>
    <use xlink:href="#DejaVuSans-2f" transform="translate(60.296875 0)"/>
    <use xlink:href="#DejaVuSans-2c" transform="translate(116.015625 0)"/>
    <use xlink:href="#DejaVuSans-33" transform="translate(145.515625 0)"/>
    <use xlink:href="#DejaVuSans-1d" transform="translate(205.8125 0)"/>
    <use xlink:href="#DejaVuSans-3" transform="translate(239.5 0)"/>
    <use xlink:href="#DejaVuSans-17" transform="translate(271.28125 0)"/>
    <use xlink:href="#DejaVuSans-3" transform="translate(334.90625 0)"/>
    <use xlink:href="#DejaVuSans-4b" transform="translate(366.6875 0)"/>
    <use xlink:href="#DejaVuSans-5c" transform="translate(430.0625 0)"/>
    <use xlink:href="#DejaVuSans-47" transform="translate(489.25 0)"/>
    <use xlink:href="#DejaVuSans-55" transform="translate(552.734375 0)"/>
    <use xlink:href="#DejaVuSans-52" transform="translate(591.640625 0)"/>
    <use xlink:href="#DejaVuSans-53" transform="translate(652.828125 0)"/>
    <use xlink:href="#DejaVuSans-4b" transform="translate(716.3125 0)"/>
    <use xlink:href="#DejaVuSans-52" transform="translate(779.6875 0)"/>
    <use xlink:href="#DejaVuSans-45" transform="translate(840.875 0)"/>
    <use xlink:href="#DejaVuSans-4c" transform="translate(904.359375 0)"/>
    <use xlink:href="#DejaVuSans-46" transform="translate(932.140625 0)"/>
    <use xlink:href="#DejaVuSans-3" transform="translate(987.125 0)"/>
    <use xlink:href="#DejaVuSans-79" transform="translate(1018.90625 0)"/>
    <use xlink:href="#DejaVuSans-3" transform="translate(1050.6875 0)"/>
    <use xlink:href="#DejaVuSans-14" transform="translate(1082.46875 0)"/>
    <use xlink:href="#DejaVuSans-3" transform="translate(1146.09375 0)"/>
    <use xlink:href="#DejaVuSans-2b" transform="translate(1177.875 0)"/>
    <use xlink:href="#DejaVuSans-10" transform="translate(1253.078125 0)"/>
    <use xlink:href="#DejaVuSans-45" transform="translate(1289.15625 0)"/>
    <use xlink:href="#DejaVuSans-52" transform="translate(1352.640625 0)"/>
    <use xlink:href="#DejaVuSans-51" transform="translate(1413.828125 0)"/>
    <use xlink:href="#DejaVuSans-47" transform="translate(1477.203125 0)"/>
    <use xlink:href="#DejaVuSans-3" transform="translate(1540.6875 0)"/>
    <use xlink:href="#DejaVuSans-79" transform="translate(1572.46875 0)"/>
    <use xlink:href="#DejaVuSans-3" transform="translate(1604.25 0)"/>
    <use xlink:href="#DejaVuSans-14" transform="translate(1636.03125 0)"/>
    <use xlink:href="#DejaVuSans-3" transform="translate(1699.65625 0)"/>
    <use xlink:href="#DejaVuSans-354" transform="translate(1731.4375 0)"/>
    <use xlink:href="#DejaVuSans-10" transform="translate(1791.640625 0)"/>
    <use xlink:href="#DejaVuSans-56" transform="translate(1827.71875 0)"/>
    <use xlink:href="#DejaVuSans-57" transform="translate(1879.8125 0)"/>
    <use xlink:href="#DejaVuSans-44" transform="translate(1919.015625 0)"/>
    <use xlink:href="#DejaVuSans-46" transform="translate(1980.296875 0)"/>
    <use xlink:href="#DejaVuSans-4e" transform="translate(2035.28125 0)"/>
   </g>
  </g>
  <g id="text_20">
   <!-- H-bond -->
   <g transform="translate(146.64 716.62834) scale(0.085 -0.085)">
    <use xlink:href="#DejaVuSans-2b"/>
    <use xlink:href="#DejaVuSans-10" transform="translate(75.203125 0)"/>
    <use xlink:href="#DejaVuSans-45" transform="translate(111.28125 0)"/>
    <use xlink:href="#DejaVuSans-52" transform="translate(174.765625 0)"/>
    <use xlink:href="#DejaVuSans-51" transform="translate(235.953125 0)"/>
    <use xlink:href="#DejaVuSans-47" transform="translate(299.328125 0)"/>
   </g>
  </g>
  <g id="text_21">
   <!-- Hydrophobic -->
   <g transform="translate(357.84 716.62834) scale(0.085 -0.085)">
    <use xlink:href="#DejaVuSans-2b"/>
    <use xlink:href="#DejaVuSans-5c" transform="translate(75.203125 0)"/>
    <use xlink:href="#DejaVuSans-47" transform="translate(134.390625 0)"/>
    <use xlink:href="#DejaVuSans-55" transform="translate(197.875 0)"/>
    <use xlink:href="#DejaVuSans-52" transform="translate(236.78125 0)"/>
    <use xlink:href="#DejaVuSans-53" transform="translate(297.96875 0)"/>
    <use xlink:href="#DejaVuSans-4b" transform="translate(361.453125 0)"/>
    <use xlink:href="#DejaVuSans-52" transform="translate(424.828125 0)"/>
    <use xlink:href="#DejaVuSans-45" transform="translate(486.015625 0)"/>
    <use xlink:href="#DejaVuSans-4c" transform="translate(549.5 0)"/>
    <use xlink:href="#DejaVuSans-46" transform="translate(577.28125 0)"/>
   </g>
  </g>
  <g id="text_22">
   <!-- π-stack -->
   <g transform="translate(569.04 716.62834) scale(0.085 -0.085)">
    <use xlink:href="#DejaVuSans-354"/>
    <use xlink:href="#DejaVuSans-10" transform="translate(60.203125 0)"/>
    <use xlink:href="#DejaVuSans-56" transform="translate(96.28125 0)"/>
    <use xlink:href="#DejaVuSans-57" transform="translate(148.375 0)"/>
    <use xlink:href="#DejaVuSans-44" transform="translate(187.578125 0)"/>
    <use xlink:href="#DejaVuSans-46" transform="translate(248.859375 0)"/>
    <use xlink:href="#DejaVuSans-4e" transform="translate(303.84375 0)"/>
   </g>
  </g>
  <g id="text_23">
   <!-- Basic -->
   <g transform="translate(100.8 739.178437) scale(0.08 -0.08)">
    <defs>
     <path id="DejaVuSans-25" d="M 1259 2228 
L 1259 519 
L 2272 519 
Q 2781 519 3026 730 
Q 3272 941 3272 1375 
Q 3272 1813 3026 2020 
Q 2781 2228 2272 2228 
L 1259 2228 
z
M 1259 4147 
L 1259 2741 
L 2194 2741 
Q 2656 2741 2882 2914 
Q 3109 3088 3109 3444 
Q 3109 3797 2882 3972 
Q 2656 4147 2194 4147 
L 1259 4147 
z
M 628 4666 
L 2241 4666 
Q 2963 4666 3353 4366 
Q 3744 4066 3744 3513 
Q 3744 3084 3544 2831 
Q 3344 2578 2956 2516 
Q 3422 2416 3680 2098 
Q 3938 1781 3938 1306 
Q 3938 681 3513 340 
Q 3088 0 2303 0 
L 628 0 
L 628 4666 
z
" transform="scale(0.015625)"/>
    </defs>
    <use xlink:href="#DejaVuSans-25"/>
    <use xlink:href="#DejaVuSans-44" transform="translate(68.609375 0)"/>
    <use xlink:href="#DejaVuSans-56" transform="translate(129.890625 0)"/>
    <use xlink:href="#DejaVuSans-4c" transform="translate(181.984375 0)"/>
    <use xlink:href="#DejaVuSans-46" transform="translate(209.765625 0)"/>
   </g>
  </g>
  <g id="text_24">
   <!-- Acidic -->
   <g transform="translate(227.52 739.178437) scale(0.08 -0.08)">
    <defs>
     <path id="DejaVuSans-24" d="M 2188 4044 
L 1331 1722 
L 3047 1722 
L 2188 4044 
z
M 1831 4666 
L 2547 4666 
L 4325 0 
L 3669 0 
L 3244 1197 
L 1141 1197 
L 716 0 
L 50 0 
L 1831 4666 
z
" transform="scale(0.015625)"/>
    </defs>
    <use xlink:href="#DejaVuSans-24"/>
    <use xlink:href="#DejaVuSans-46" transform="translate(66.65625 0)"/>
    <use xlink:href="#DejaVuSans-4c" transform="translate(121.640625 0)"/>
    <use xlink:href="#DejaVuSans-47" transform="translate(149.421875 0)"/>
    <use xlink:href="#DejaVuSans-4c" transform="translate(212.90625 0)"/>
    <use xlink:href="#DejaVuSans-46" transform="translate(240.6875 0)"/>
   </g>
  </g>
  <g id="text_25">
   <!-- Polar -->
   <g transform="translate(354.24 739.178437) scale(0.08 -0.08)">
    <use xlink:href="#DejaVuSans-33"/>
    <use xlink:href="#DejaVuSans-52" transform="translate(56.734375 0)"/>
    <use xlink:href="#DejaVuSans-4f" transform="translate(117.921875 0)"/>
    <use xlink:href="#DejaVuSans-44" transform="translate(145.703125 0)"/>
    <use xlink:href="#DejaVuSans-55" transform="translate(206.984375 0)"/>
   </g>
  </g>
  <g id="text_26">
   <!-- Hydrophobic -->
   <g transform="translate(480.96 739.178437) scale(0.08 -0.08)">
    <use xlink:href="#DejaVuSans-2b"/>
    <use xlink:href="#DejaVuSans-5c" transform="translate(75.203125 0)"/>
    <use xlink:href="#DejaVuSans-47" transform="translate(134.390625 0)"/>
    <use xlink:href="#DejaVuSans-55" transform="translate(197.875 0)"/>
    <use xlink:href="#DejaVuSans-52" transform="translate(236.78125 0)"/>
    <use xlink:href="#DejaVuSans-53" transform="translate(297.96875 0)"/>
    <use xlink:href="#DejaVuSans-4b" transform="translate(361.453125 0)"/>
    <use xlink:href="#DejaVuSans-52" transform="translate(424.828125 0)"/>
    <use xlink:href="#DejaVuSans-45" transform="translate(486.015625 0)"/>
    <use xlink:href="#DejaVuSans-4c" transform="translate(549.5 0)"/>
    <use xlink:href="#DejaVuSans-46" transform="translate(577.28125 0)"/>
   </g>
  </g>
  <g id="text_27">
   <!-- Mutation site -->
   <g transform="translate(607.68 739.178437) scale(0.08 -0.08)">
    <defs>
     <path id="DejaVuSans-58" d="M 544 1381 
L 544 3500 
L 1119 3500 
L 1119 1403 
Q 1119 906 1312 657 
Q 1506 409 1894 409 
Q 2359 409 2629 706 
Q 2900 1003 2900 1516 
L 2900 3500 
L 3475 3500 
L 3475 0 
L 2900 0 
L 2900 538 
Q 2691 219 2414 64 
Q 2138 -91 1772 -91 
Q 1169 -91 856 284 
Q 544 659 544 1381 
z
M 1991 3584 
L 1991 3584 
z
" transform="scale(0.015625)"/>
    </defs>
    <use xlink:href="#DejaVuSans-30"/>
    <use xlink:href="#DejaVuSans-58" transform="translate(86.28125 0)"/>
    <use xlink:href="#DejaVuSans-57" transform="translate(149.65625 0)"/>
    <use xlink:href="#DejaVuSans-44" transform="translate(188.859375 0)"/>
    <use xlink:href="#DejaVuSans-57" transform="translate(250.140625 0)"/>
    <use xlink:href="#DejaVuSans-4c" transform="translate(289.34375 0)"/>
    <use xlink:href="#DejaVuSans-52" transform="translate(317.125 0)"/>
    <use xlink:href="#DejaVuSans-51" transform="translate(378.3125 0)"/>
    <use xlink:href="#DejaVuSans-3" transform="translate(441.6875 0)"/>
    <use xlink:href="#DejaVuSans-56" transform="translate(473.46875 0)"/>
    <use xlink:href="#DejaVuSans-4c" transform="translate(525.5625 0)"/>
    <use xlink:href="#DejaVuSans-57" transform="translate(553.34375 0)"/>
    <use xlink:href="#DejaVuSans-48" transform="translate(592.546875 0)"/>
   </g>
  </g>
 </g>
 <defs>
  <clipPath id="pf6c0e86112">
   <rect x="53.82" y="75.6" width="612.36" height="612.36"/>
  </clipPath>
 </defs>
</svg>
