<?xml version="1.0" encoding="utf-8" standalone="no"?>
<!DOCTYPE svg PUBLIC "-//W3C//DTD SVG 1.1//EN"
  "http://www.w3.org/Graphics/SVG/1.1/DTD/svg11.dtd">
<svg xmlns:xlink="http://www.w3.org/1999/xlink" width="720pt" height="756pt" viewBox="0 0 720 756" xmlns="http://www.w3.org/2000/svg" version="1.1">
 <metadata>
  <rdf:RDF xmlns:dc="http://purl.org/dc/elements/1.1/" xmlns:cc="http://creativecommons.org/ns#" xmlns:rdf="http://www.w3.org/1999/02/22-rdf-syntax-ns#">
   <cc:Work>
    <dc:type rdf:resource="http://purl.org/dc/dcmitype/StillImage"/>
    <dc:date>2022-01-01T05:00:00+00:00</dc:date>
    <dc:format>image/svg+xml</dc:format>
    <dc:creator>
     <cc:Agent>
      <dc:title>Matplotlib v3.11.0, https://matplotlib.org/</dc:title>
     </cc:Agent>
    </dc:creator>
   </cc:Work>
  </rdf:RDF>
 </metadata>
 <defs>
  <style type="text/css">*{stroke-linejoin: round; stroke-linecap: butt}</style>
 </defs>
 <g id="figure_1">
  <g id="patch_1">
   <path d="M 0 756 
L 720 756 
L 720 0 
L 0 0 
z
" style="fill: #ffffff"/>
  </g>
  <g id="axes_1">
   <g id="line2d_1">
    <path d="M 133.471841 538.20129 
L 140.774799 537.298664 
L 148.05587 536.318834 
L 155.315055 535.261801 
L 162.552353 534.127564 
L 169.767765 532.916125 
L 176.96129 531.627482 
L 184.132929 530.261635 
L 191.282681 528.818586 
L 198.410546 527.298333 
L 205.516525 525.700877 
L 212.600617 524.026218 
L 219.662823 522.274355 
L 226.703142 520.445289 
L 233.721574 518.53902 
L 240.71812 516.555548 
L 247.692779 514.494872 
L 254.645552 512.356993 
L 261.576438 510.141911 
L 268.485437 507.849626 
L 275.37255 505.480137 
L 282.237776 503.033445 
L 289.081116 500.50955 
L 295.902569 497.908452 
L 302.702135 495.23015 
L 309.479815 492.474645 
L 316.235609 489.641937 
L 322.969515 486.732025 
L 329.681536 483.74491 
L 336.371669 480.680592 
" clip-path="url(#pf6aeae2822)" style="fill: none; stroke: #75a025; stroke-opacity: 0.4; stroke-width: 4; stroke-linecap: round"/>
   </g>
   <g id="line2d_2">
    <path d="M 149.284142 201.949781 
L 153.434271 206.767954 
L 157.629417 211.533379 
L 161.86958 216.246054 
L 166.15476 220.90598 
L 170.484958 225.513158 
L 174.860173 230.067586 
L 179.280405 234.569266 
L 183.745655 239.018197 
L 188.255921 243.414378 
L 192.811205 247.757811 
L 197.411507 252.048495 
L 202.056825 256.28643 
L 206.747161 260.471616 
L 211.482514 264.604054 
L 216.262884 268.683742 
L 221.088272 272.710681 
L 225.958676 276.684872 
L 230.874098 280.606313 
L 235.834538 284.475006 
L 240.839994 288.29095 
L 245.890468 292.054145 
L 250.985959 295.764591 
L 256.126467 299.422288 
L 261.311992 303.027236 
L 266.542535 306.579435 
L 271.818095 310.078885 
L 277.138672 313.525587 
L 282.504267 316.919539 
L 287.914879 320.260743 
" clip-path="url(#pf6aeae2822)" style="fill: none; stroke: #75a025; stroke-opacity: 0.4; stroke-width: 4; stroke-linecap: round"/>
   </g>
   <g id="line2d_3">
    <path d="M 530.742458 168.776961 
L 530.616953 175.684769 
L 530.417209 182.579723 
L 530.143227 189.461824 
L 529.795007 196.331072 
L 529.372548 203.187466 
L 528.87585 210.031007 
L 528.304915 216.861694 
L 527.65974 223.679528 
L 526.940328 230.484508 
L 526.146676 237.276635 
L 525.278787 244.055909 
L 524.336659 250.822329 
L 523.320292 257.575896 
L 522.229687 264.316609 
L 521.064844 271.044469 
L 519.825762 277.759475 
L 518.512441 284.461628 
L 517.124883 291.150927 
L 515.663085 297.827373 
L 514.12705 304.490966 
L 512.516775 311.141705 
L 510.832263 317.779591 
L 509.073512 324.404623 
L 507.240522 331.016802 
L 505.333294 337.616127 
L 503.351828 344.202599 
L 501.296123 350.776217 
L 499.16618 357.336982 
L 496.961998 363.884894 
" clip-path="url(#pf6aeae2822)" style="fill: none; stroke: #75a025; stroke-opacity: 0.4; stroke-width: 4; stroke-linecap: round"/>
   </g>
   <g id="patch_2">
    <path d="M 309.032527 592.920711 
Q 344.429221 515.749368 379.131061 440.092935 
" clip-path="url(#pf6aeae2822)" style="fill: none; stroke: #0279ee; stroke-width: 2; stroke-linecap: round"/>
    <path d="M 370.342081 444.863033 
L 379.131061 440.092935 
L 381.24944 449.865984 
" clip-path="url(#pf6aeae2822)" style="fill: none; stroke: #0279ee; stroke-width: 2; stroke-linecap: round"/>
   </g>
   <g id="patch_3">
    <path d="M 446.389414 580.522754 
Q 417.926466 509.6649 390.084757 440.353603 
" clip-path="url(#pf6aeae2822)" style="fill: none; stroke: #0279ee; stroke-width: 2; stroke-linecap: round"/>
    <path d="M 387.499092 450.013538 
L 390.084757 440.353603 
L 398.634308 445.540624 
" clip-path="url(#pf6aeae2822)" style="fill: none; stroke: #0279ee; stroke-width: 2; stroke-linecap: round"/>
   </g>
   <g id="patch_4">
    <path d="M 554.418778 479.420507 
Q 506.561268 437.651017 459.959427 396.977461 
" clip-path="url(#pf6aeae2822)" style="fill: none; stroke: #0279ee; stroke-width: 2; stroke-linecap: round"/>
    <path d="M 462.041278 406.758355 
L 459.959427 396.977461 
L 469.932004 397.717534 
" clip-path="url(#pf6aeae2822)" style="fill: none; stroke: #0279ee; stroke-width: 2; stroke-linecap: round"/>
   </g>
   <g id="patch_5">
    <path d="M 388.433873 163.065511 
Q 424.127719 245.963267 459.162439 327.330229 
" clip-path="url(#pf6aeae2822)" style="fill: none; stroke: #0279ee; stroke-width: 2; stroke-linecap: round"/>
    <path d="M 461.509502 317.609565 
L 459.162439 327.330229 
L 450.48778 322.355262 
" clip-path="url(#pf6aeae2822)" style="fill: none; stroke: #0279ee; stroke-width: 2; stroke-linecap: round"/>
   </g>
   <g id="patch_6">
    <path d="M 459.821786 328.861539 
Q 424.127941 245.963783 389.09322 164.596821 
" clip-path="url(#pf6aeae2822)" style="fill: none; stroke: #0279ee; stroke-width: 2; stroke-linecap: round"/>
    <path d="M 386.746157 174.317485 
L 389.09322 164.596821 
L 397.767879 169.571788 
" clip-path="url(#pf6aeae2822)" style="fill: none; stroke: #0279ee; stroke-width: 2; stroke-linecap: round"/>
   </g>
   <g id="patch_7">
    <path d="M 575.206537 350.946191 
Q 534.44979 366.757341 495.246881 381.965696 
" clip-path="url(#pf6aeae2822)" style="fill: none; stroke: #0279ee; stroke-width: 2; stroke-linecap: round"/>
    <path d="M 504.875372 384.666098 
L 495.246881 381.965696 
L 500.535245 373.478458 
" clip-path="url(#pf6aeae2822)" style="fill: none; stroke: #0279ee; stroke-width: 2; stroke-linecap: round"/>
   </g>
   <g id="line2d_4">
    <path d="M 576.149842 347.438309 
L 475.496954 375.23442 
" clip-path="url(#pf6aeae2822)" style="fill: none; stroke-dasharray: 9.6,7.2; stroke-dashoffset: 0; stroke: #fd9bed; stroke-width: 2.4"/>
   </g>
   <g id="line2d_5">
    <path d="M 367.756447 399.512557 
L 351.102814 390.480428 
" clip-path="url(#pf6aeae2822)" style="fill: none; stroke: #222222; stroke-width: 2; stroke-linecap: round"/>
   </g>
   <g id="line2d_6">
    <path d="M 368.26121 418.451091 
L 367.756447 399.512557 
" clip-path="url(#pf6aeae2822)" style="fill: none; stroke: #222222; stroke-width: 2; stroke-linecap: round"/>
   </g>
   <g id="line2d_7">
    <path d="M 384.914843 427.48322 
L 368.26121 418.451091 
" clip-path="url(#pf6aeae2822)" style="fill: none; stroke: #222222; stroke-width: 2; stroke-linecap: round"/>
   </g>
   <g id="line2d_8">
    <path d="M 352.11234 428.357496 
L 368.26121 418.451091 
" clip-path="url(#pf6aeae2822)" style="fill: none; stroke: #222222; stroke-width: 2; stroke-linecap: round"/>
   </g>
   <g id="line2d_9">
    <path d="M 348.66853 446.987124 
L 352.11234 428.357496 
" clip-path="url(#pf6aeae2822)" style="fill: none; stroke: #222222; stroke-width: 2; stroke-linecap: round"/>
   </g>
   <g id="line2d_10">
    <path d="M 329.886506 449.468737 
L 348.66853 446.987124 
" clip-path="url(#pf6aeae2822)" style="fill: none; stroke: #222222; stroke-width: 2; stroke-linecap: round"/>
   </g>
   <g id="line2d_11">
    <path d="M 321.722386 432.372831 
L 329.886506 449.468737 
" clip-path="url(#pf6aeae2822)" style="fill: none; stroke: #222222; stroke-width: 2; stroke-linecap: round"/>
   </g>
   <g id="line2d_12">
    <path d="M 335.458707 419.325367 
L 321.722386 432.372831 
" clip-path="url(#pf6aeae2822)" style="fill: none; stroke: #222222; stroke-width: 2; stroke-linecap: round"/>
   </g>
   <g id="line2d_13">
    <path d="M 335.458707 419.325367 
L 352.11234 428.357496 
" clip-path="url(#pf6aeae2822)" style="fill: none; stroke: #222222; stroke-width: 2; stroke-linecap: round"/>
   </g>
   <g id="line2d_14">
    <path d="M 334.953944 400.386833 
L 335.458707 419.325367 
" clip-path="url(#pf6aeae2822)" style="fill: none; stroke: #222222; stroke-width: 2; stroke-linecap: round"/>
   </g>
   <g id="line2d_15">
    <path d="M 334.953944 400.386833 
L 351.102814 390.480428 
" clip-path="url(#pf6aeae2822)" style="fill: none; stroke: #222222; stroke-width: 2; stroke-linecap: round"/>
   </g>
   <g id="line2d_16">
    <path d="M 383.905317 389.606153 
L 367.756447 399.512557 
" clip-path="url(#pf6aeae2822)" style="fill: none; stroke: #222222; stroke-width: 2; stroke-linecap: round"/>
   </g>
   <g id="line2d_17">
    <path d="M 400.55895 398.638282 
L 383.905317 389.606153 
" clip-path="url(#pf6aeae2822)" style="fill: none; stroke: #222222; stroke-width: 2; stroke-linecap: round"/>
   </g>
   <g id="line2d_18">
    <path d="M 416.70782 388.731877 
L 400.55895 398.638282 
" clip-path="url(#pf6aeae2822)" style="fill: none; stroke: #222222; stroke-width: 2; stroke-linecap: round"/>
   </g>
   <g id="line2d_19">
    <path d="M 416.203057 369.793343 
L 416.70782 388.731877 
" clip-path="url(#pf6aeae2822)" style="fill: none; stroke: #222222; stroke-width: 2; stroke-linecap: round"/>
   </g>
   <g id="line2d_20">
    <path d="M 432.351926 359.886939 
L 416.203057 369.793343 
" clip-path="url(#pf6aeae2822)" style="fill: none; stroke: #222222; stroke-width: 2; stroke-linecap: round"/>
   </g>
   <g id="line2d_21">
    <path d="M 431.847163 340.948405 
L 432.351926 359.886939 
" clip-path="url(#pf6aeae2822)" style="fill: none; stroke: #222222; stroke-width: 2; stroke-linecap: round"/>
   </g>
   <g id="line2d_22">
    <path d="M 399.549424 360.761214 
L 416.203057 369.793343 
" clip-path="url(#pf6aeae2822)" style="fill: none; stroke: #222222; stroke-width: 2; stroke-linecap: round"/>
   </g>
   <g id="line2d_23">
    <path d="M 383.400554 370.667619 
L 399.549424 360.761214 
" clip-path="url(#pf6aeae2822)" style="fill: none; stroke: #222222; stroke-width: 2; stroke-linecap: round"/>
   </g>
   <g id="line2d_24">
    <path d="M 383.400554 370.667619 
L 383.905317 389.606153 
" clip-path="url(#pf6aeae2822)" style="fill: none; stroke: #222222; stroke-width: 2; stroke-linecap: round"/>
   </g>
   <g id="line2d_25">
    <path d="M 449.00556 368.919068 
L 432.351926 359.886939 
" clip-path="url(#pf6aeae2822)" style="fill: none; stroke: #222222; stroke-width: 2; stroke-linecap: round"/>
   </g>
   <g id="line2d_26">
    <path d="M 449.510323 387.857602 
L 449.00556 368.919068 
" clip-path="url(#pf6aeae2822)" style="fill: none; stroke: #222222; stroke-width: 2; stroke-linecap: round"/>
   </g>
   <g id="line2d_27">
    <path d="M 466.163956 396.889731 
L 449.510323 387.857602 
" clip-path="url(#pf6aeae2822)" style="fill: none; stroke: #222222; stroke-width: 2; stroke-linecap: round"/>
   </g>
   <g id="line2d_28">
    <path d="M 482.312826 386.983326 
L 466.163956 396.889731 
" clip-path="url(#pf6aeae2822)" style="fill: none; stroke: #222222; stroke-width: 2; stroke-linecap: round"/>
   </g>
   <g id="line2d_29">
    <path d="M 481.808063 368.044793 
L 482.312826 386.983326 
" clip-path="url(#pf6aeae2822)" style="fill: none; stroke: #222222; stroke-width: 2; stroke-linecap: round"/>
   </g>
   <g id="line2d_30">
    <path d="M 497.956932 358.138388 
L 481.808063 368.044793 
" clip-path="url(#pf6aeae2822)" style="fill: none; stroke: #222222; stroke-width: 2; stroke-linecap: round"/>
   </g>
   <g id="line2d_31">
    <path d="M 465.154429 359.012663 
L 481.808063 368.044793 
" clip-path="url(#pf6aeae2822)" style="fill: none; stroke: #222222; stroke-width: 2; stroke-linecap: round"/>
   </g>
   <g id="line2d_32">
    <path d="M 465.154429 359.012663 
L 449.00556 368.919068 
" clip-path="url(#pf6aeae2822)" style="fill: none; stroke: #222222; stroke-width: 2; stroke-linecap: round"/>
   </g>
   <g id="line2d_33">
    <path d="M 464.649666 340.074129 
L 465.154429 359.012663 
" clip-path="url(#pf6aeae2822)" style="fill: none; stroke: #222222; stroke-width: 2; stroke-linecap: round"/>
   </g>
   <g id="line2d_34">
    <path d="M 320.854376 466.12237 
L 329.886506 449.468737 
" clip-path="url(#pf6aeae2822)" style="fill: none; stroke: #222222; stroke-width: 2; stroke-linecap: round"/>
   </g>
   <g id="line2d_35">
    <path d="M 301.915843 466.627134 
L 320.854376 466.12237 
" clip-path="url(#pf6aeae2822)" style="fill: none; stroke: #222222; stroke-width: 2; stroke-linecap: round"/>
   </g>
   <g id="line2d_36">
    <path d="M 292.883713 483.280767 
L 301.915843 466.627134 
" clip-path="url(#pf6aeae2822)" style="fill: none; stroke: #222222; stroke-width: 2; stroke-linecap: round"/>
   </g>
   <g id="line2d_37">
    <path d="M 302.790118 499.429637 
L 292.883713 483.280767 
" clip-path="url(#pf6aeae2822)" style="fill: none; stroke: #222222; stroke-width: 2; stroke-linecap: round"/>
   </g>
   <g id="line2d_38">
    <path d="M 321.728652 498.924873 
L 302.790118 499.429637 
" clip-path="url(#pf6aeae2822)" style="fill: none; stroke: #222222; stroke-width: 2; stroke-linecap: round"/>
   </g>
   <g id="line2d_39">
    <path d="M 330.760781 482.27124 
L 321.728652 498.924873 
" clip-path="url(#pf6aeae2822)" style="fill: none; stroke: #222222; stroke-width: 2; stroke-linecap: round"/>
   </g>
   <g id="line2d_40">
    <path d="M 330.760781 482.27124 
L 320.854376 466.12237 
" clip-path="url(#pf6aeae2822)" style="fill: none; stroke: #222222; stroke-width: 2; stroke-linecap: round"/>
   </g>
   <g id="line2d_41">
    <path d="M 350.598051 371.541894 
L 366.746921 361.635489 
" clip-path="url(#pf6aeae2822)" style="fill: none; stroke: #222222; stroke-width: 2; stroke-linecap: round"/>
   </g>
   <g id="line2d_42">
    <path d="M 350.598051 371.541894 
L 351.102814 390.480428 
" clip-path="url(#pf6aeae2822)" style="fill: none; stroke: #222222; stroke-width: 2; stroke-linecap: round"/>
   </g>
   <g id="line2d_43">
    <path d="M 318.300311 391.354703 
L 334.953944 400.386833 
" clip-path="url(#pf6aeae2822)" style="fill: none; stroke: #222222; stroke-width: 2; stroke-linecap: round"/>
   </g>
   <g id="line2d_44">
    <path d="M 317.795548 372.41617 
L 318.300311 391.354703 
" clip-path="url(#pf6aeae2822)" style="fill: none; stroke: #222222; stroke-width: 2; stroke-linecap: round"/>
   </g>
   <g id="line2d_45">
    <path d="M 333.944418 362.509765 
L 317.795548 372.41617 
" clip-path="url(#pf6aeae2822)" style="fill: none; stroke: #222222; stroke-width: 2; stroke-linecap: round"/>
   </g>
   <g id="line2d_46">
    <path d="M 301.141915 363.38404 
L 317.795548 372.41617 
" clip-path="url(#pf6aeae2822)" style="fill: none; stroke: #222222; stroke-width: 2; stroke-linecap: round"/>
   </g>
   <g id="line2d_47">
    <path d="M 300.637152 344.445506 
L 301.141915 363.38404 
" clip-path="url(#pf6aeae2822)" style="fill: none; stroke: #222222; stroke-width: 2; stroke-linecap: round"/>
   </g>
   <g id="line2d_48">
    <path d="M 316.786021 334.539102 
L 300.637152 344.445506 
" clip-path="url(#pf6aeae2822)" style="fill: none; stroke: #222222; stroke-width: 2; stroke-linecap: round"/>
   </g>
   <g id="line2d_49">
    <path d="M 316.281258 315.600568 
L 316.786021 334.539102 
" clip-path="url(#pf6aeae2822)" style="fill: none; stroke: #222222; stroke-width: 2; stroke-linecap: round"/>
   </g>
   <g id="line2d_50">
    <path d="M 299.627625 306.568439 
L 316.281258 315.600568 
" clip-path="url(#pf6aeae2822)" style="fill: none; stroke: #222222; stroke-width: 2; stroke-linecap: round"/>
   </g>
   <g id="line2d_51">
    <path d="M 283.478755 316.474843 
L 299.627625 306.568439 
" clip-path="url(#pf6aeae2822)" style="fill: none; stroke: #222222; stroke-width: 2; stroke-linecap: round"/>
   </g>
   <g id="line2d_52">
    <path d="M 283.983518 335.413377 
L 283.478755 316.474843 
" clip-path="url(#pf6aeae2822)" style="fill: none; stroke: #222222; stroke-width: 2; stroke-linecap: round"/>
   </g>
   <g id="line2d_53">
    <path d="M 283.983518 335.413377 
L 300.637152 344.445506 
" clip-path="url(#pf6aeae2822)" style="fill: none; stroke: #222222; stroke-width: 2; stroke-linecap: round"/>
   </g>
   <g id="line2d_54">
    <path d="M 267.834649 345.319782 
L 283.983518 335.413377 
" clip-path="url(#pf6aeae2822)" style="fill: none; stroke: #222222; stroke-width: 2; stroke-linecap: round"/>
   </g>
   <g id="line2d_55">
    <path d="M 299.122862 287.629905 
L 299.627625 306.568439 
" clip-path="url(#pf6aeae2822)" style="fill: none; stroke: #222222; stroke-width: 2; stroke-linecap: round"/>
   </g>
   <g id="line2d_56">
    <path d="M 298.618099 268.691371 
L 299.122862 287.629905 
" clip-path="url(#pf6aeae2822)" style="fill: none; stroke: #222222; stroke-width: 2; stroke-linecap: round"/>
   </g>
   <g id="line2d_57">
    <path d="M 318.061396 287.125141 
L 299.122862 287.629905 
" clip-path="url(#pf6aeae2822)" style="fill: none; stroke: #222222; stroke-width: 2; stroke-linecap: round"/>
   </g>
   <g id="line2d_58">
    <path d="M 280.184328 288.134668 
L 299.122862 287.629905 
" clip-path="url(#pf6aeae2822)" style="fill: none; stroke: #222222; stroke-width: 2; stroke-linecap: round"/>
   </g>
   <g id="text_1">
    <g id="patch_8">
     <path d="M 380.007968 433.35408 
L 389.821718 433.35408 
L 389.821718 421.612361 
L 380.007968 421.612361 
z
" style="fill: #ffffff"/>
    </g>
    <text style="font-weight: 700; font-size: 12px; font-family: 'Liberation Sans', 'Arimo', 'DejaVu Sans'; text-anchor: middle; fill: #d40000" x="384.914843" y="430.588689" transform="rotate(-0 384.914843 430.588689)">O</text>
   </g>
   <g id="text_2">
    <g id="patch_9">
     <path d="M 347.539215 434.228355 
L 356.685465 434.228355 
L 356.685465 422.486637 
L 347.539215 422.486637 
z
" style="fill: #ffffff"/>
    </g>
    <text style="font-weight: 700; font-size: 12px; font-family: 'Liberation Sans', 'Arimo', 'DejaVu Sans'; text-anchor: middle; fill: #0879c0" x="352.11234" y="431.462965" transform="rotate(-0 352.11234 431.462965)">N</text>
   </g>
   <g id="text_3">
    <g id="patch_10">
     <path d="M 344.095405 452.857983 
L 353.241655 452.857983 
L 353.241655 441.116264 
L 344.095405 441.116264 
z
" style="fill: #ffffff"/>
    </g>
    <text style="font-weight: 700; font-size: 12px; font-family: 'Liberation Sans', 'Arimo', 'DejaVu Sans'; text-anchor: middle; fill: #0879c0" x="348.66853" y="450.092592" transform="rotate(-0 348.66853 450.092592)">N</text>
   </g>
   <g id="text_4">
    <g id="patch_11">
     <path d="M 317.149261 438.243691 
L 326.295511 438.243691 
L 326.295511 426.501972 
L 317.149261 426.501972 
z
" style="fill: #ffffff"/>
    </g>
    <text style="font-weight: 700; font-size: 12px; font-family: 'Liberation Sans', 'Arimo', 'DejaVu Sans'; text-anchor: middle; fill: #0879c0" x="321.722386" y="435.4783" transform="rotate(-0 321.722386 435.4783)">N</text>
   </g>
   <g id="text_5">
    <g id="patch_12">
     <path d="M 330.380819 406.257692 
L 339.527069 406.257692 
L 339.527069 394.515973 
L 330.380819 394.515973 
z
" style="fill: #ffffff"/>
    </g>
    <text style="font-weight: 700; font-size: 12px; font-family: 'Liberation Sans', 'Arimo', 'DejaVu Sans'; text-anchor: middle; fill: #0879c0" x="334.953944" y="403.492301" transform="rotate(-0 334.953944 403.492301)">N</text>
   </g>
   <g id="text_6">
    <g id="patch_13">
     <path d="M 379.332192 395.477012 
L 388.478442 395.477012 
L 388.478442 383.735293 
L 379.332192 383.735293 
z
" style="fill: #ffffff"/>
    </g>
    <text style="font-weight: 700; font-size: 12px; font-family: 'Liberation Sans', 'Arimo', 'DejaVu Sans'; text-anchor: middle; fill: #0879c0" x="383.905317" y="392.711621" transform="rotate(-0 383.905317 392.711621)">N</text>
   </g>
   <g id="text_7">
    <g id="patch_14">
     <path d="M 411.629932 375.664203 
L 420.776182 375.664203 
L 420.776182 363.922484 
L 411.629932 363.922484 
z
" style="fill: #ffffff"/>
    </g>
    <text style="font-weight: 700; font-size: 12px; font-family: 'Liberation Sans', 'Arimo', 'DejaVu Sans'; text-anchor: middle; fill: #0879c0" x="416.203057" y="372.898812" transform="rotate(-0 416.203057 372.898812)">N</text>
   </g>
   <g id="text_8">
    <g id="patch_15">
     <path d="M 426.940288 346.819264 
L 436.754038 346.819264 
L 436.754038 335.077545 
L 426.940288 335.077545 
z
" style="fill: #ffffff"/>
    </g>
    <text style="font-weight: 700; font-size: 12px; font-family: 'Liberation Sans', 'Arimo', 'DejaVu Sans'; text-anchor: middle; fill: #d40000" x="431.847163" y="344.053874" transform="rotate(-0 431.847163 344.053874)">O</text>
   </g>
   <g id="text_9">
    <g id="patch_16">
     <path d="M 444.937198 393.728461 
L 454.083448 393.728461 
L 454.083448 381.986742 
L 444.937198 381.986742 
z
" style="fill: #ffffff"/>
    </g>
    <text style="font-weight: 700; font-size: 12px; font-family: 'Liberation Sans', 'Arimo', 'DejaVu Sans'; text-anchor: middle; fill: #0879c0" x="449.510323" y="390.963071" transform="rotate(-0 449.510323 390.963071)">N</text>
   </g>
   <g id="text_10">
    <g id="patch_17">
     <path d="M 477.739701 392.854186 
L 486.885951 392.854186 
L 486.885951 381.112467 
L 477.739701 381.112467 
z
" style="fill: #ffffff"/>
    </g>
    <text style="font-weight: 700; font-size: 12px; font-family: 'Liberation Sans', 'Arimo', 'DejaVu Sans'; text-anchor: middle; fill: #0879c0" x="482.312826" y="390.088795" transform="rotate(-0 482.312826 390.088795)">N</text>
   </g>
   <g id="text_11">
    <g id="patch_18">
     <path d="M 459.742791 345.944989 
L 469.556541 345.944989 
L 469.556541 334.20327 
L 459.742791 334.20327 
z
" style="fill: #ffffff"/>
    </g>
    <text style="font-weight: 700; font-size: 12px; font-family: 'Liberation Sans', 'Arimo', 'DejaVu Sans'; text-anchor: middle; fill: #d40000" x="464.649666" y="343.179598" transform="rotate(-0 464.649666 343.179598)">O</text>
   </g>
   <g id="text_12">
    <g id="patch_19">
     <path d="M 297.883243 505.300496 
L 307.696993 505.300496 
L 307.696993 493.558777 
L 297.883243 493.558777 
z
" style="fill: #ffffff"/>
    </g>
    <text style="font-weight: 700; font-size: 12px; font-family: 'Liberation Sans', 'Arimo', 'DejaVu Sans'; text-anchor: middle; fill: #d40000" x="302.790118" y="502.535105" transform="rotate(-0 302.790118 502.535105)">O</text>
   </g>
   <g id="text_13">
    <g id="patch_20">
     <path d="M 329.037543 368.380624 
L 338.851293 368.380624 
L 338.851293 356.638905 
L 329.037543 356.638905 
z
" style="fill: #ffffff"/>
    </g>
    <text style="font-weight: 700; font-size: 12px; font-family: 'Liberation Sans', 'Arimo', 'DejaVu Sans'; text-anchor: middle; fill: #d40000" x="333.944418" y="365.615234" transform="rotate(-0 333.944418 365.615234)">O</text>
   </g>
   <g id="text_14">
    <g id="patch_21">
     <path d="M 296.56879 369.2549 
L 305.71504 369.2549 
L 305.71504 357.513181 
L 296.56879 357.513181 
z
" style="fill: #ffffff"/>
    </g>
    <text style="font-weight: 700; font-size: 12px; font-family: 'Liberation Sans', 'Arimo', 'DejaVu Sans'; text-anchor: middle; fill: #0879c0" x="301.141915" y="366.489509" transform="rotate(-0 301.141915 366.489509)">N</text>
   </g>
   <g id="text_15">
    <g id="patch_22">
     <path d="M 261.594649 351.190641 
L 274.074649 351.190641 
L 274.074649 339.448922 
L 261.594649 339.448922 
z
" style="fill: #ffffff"/>
    </g>
    <text style="font-weight: 700; font-size: 12px; font-family: 'Liberation Sans', 'Arimo', 'DejaVu Sans'; text-anchor: middle; fill: #00a040" x="267.834649" y="348.42525" transform="rotate(-0 267.834649 348.42525)">Cl</text>
   </g>
   <g id="text_16">
    <g id="patch_23">
     <path d="M 294.713411 274.56223 
L 302.522786 274.56223 
L 302.522786 262.820511 
L 294.713411 262.820511 
z
" style="fill: #ffffff"/>
    </g>
    <text style="font-weight: 700; font-size: 12px; font-family: 'Liberation Sans', 'Arimo', 'DejaVu Sans'; text-anchor: middle; fill: #00a040" x="298.618099" y="271.796839" transform="rotate(-0 298.618099 271.796839)">F</text>
   </g>
   <g id="text_17">
    <g id="patch_24">
     <path d="M 314.156709 292.996001 
L 321.966084 292.996001 
L 321.966084 281.254282 
L 314.156709 281.254282 
z
" style="fill: #ffffff"/>
    </g>
    <text style="font-weight: 700; font-size: 12px; font-family: 'Liberation Sans', 'Arimo', 'DejaVu Sans'; text-anchor: middle; fill: #00a040" x="318.061396" y="290.23061" transform="rotate(-0 318.061396 290.23061)">F</text>
   </g>
   <g id="text_18">
    <g id="patch_25">
     <path d="M 276.279641 294.005527 
L 284.089016 294.005527 
L 284.089016 282.263808 
L 276.279641 282.263808 
z
" style="fill: #ffffff"/>
    </g>
    <text style="font-weight: 700; font-size: 12px; font-family: 'Liberation Sans', 'Arimo', 'DejaVu Sans'; text-anchor: middle; fill: #00a040" x="280.184328" y="291.240136" transform="rotate(-0 280.184328 291.240136)">F</text>
   </g>
   <g id="patch_26">
    <path d="M 161.52628 557.950051 
C 168.872936 557.950051 175.919682 555.031193 181.114552 549.836323 
C 186.309423 544.641452 189.22828 537.594707 189.22828 530.248051 
C 189.22828 522.901395 186.309423 515.854649 181.114552 510.659779 
C 175.919682 505.464908 168.872936 502.546051 161.52628 502.546051 
C 154.179624 502.546051 147.132879 505.464908 141.938008 510.659779 
C 136.743138 515.854649 133.82428 522.901395 133.82428 530.248051 
C 133.82428 537.594707 136.743138 544.641452 141.938008 549.836323 
C 147.132879 555.031193 154.179624 557.950051 161.52628 557.950051 
z
" clip-path="url(#pf6aeae2822)" style="fill: #8bc34a; stroke: #222222; stroke-width: 1.2; stroke-linejoin: miter"/>
   </g>
   <g id="patch_27">
    <path d="M 171.464759 248.581278 
C 178.811415 248.581278 185.85816 245.662421 191.053031 240.46755 
C 196.247901 235.27268 199.166759 228.225934 199.166759 220.879278 
C 199.166759 213.532622 196.247901 206.485876 191.053031 201.291006 
C 185.85816 196.096136 178.811415 193.177278 171.464759 193.177278 
C 164.118102 193.177278 157.071357 196.096136 151.876486 201.291006 
C 146.681616 206.485876 143.762759 213.532622 143.762759 220.879278 
C 143.762759 228.225934 146.681616 235.27268 151.876486 240.46755 
C 157.071357 245.662421 164.118102 248.581278 171.464759 248.581278 
z
" clip-path="url(#pf6aeae2822)" style="fill: #5087c5; stroke: #222222; stroke-width: 1.2; stroke-linejoin: miter"/>
   </g>
   <g id="patch_28">
    <path d="M 525.767785 225.21149 
C 533.114442 225.21149 540.161187 222.292632 545.356057 217.097762 
C 550.550928 211.902891 553.469785 204.856146 553.469785 197.50949 
C 553.469785 190.162834 550.550928 183.116088 545.356057 177.921218 
C 540.161187 172.726347 533.114442 169.80749 525.767785 169.80749 
C 518.421129 169.80749 511.374384 172.726347 506.179513 177.921218 
C 500.984643 183.116088 498.065785 190.162834 498.065785 197.50949 
C 498.065785 204.856146 500.984643 211.902891 506.179513 217.097762 
C 511.374384 222.292632 518.421129 225.21149 525.767785 225.21149 
z
" clip-path="url(#pf6aeae2822)" style="fill: #8bc34a; stroke: #222222; stroke-width: 1.2; stroke-linejoin: miter"/>
   </g>
   <g id="patch_29">
    <path d="M 296.040565 648.947593 
C 303.387221 648.947593 310.433967 646.028736 315.628837 640.833865 
C 320.823707 635.638995 323.742565 628.592249 323.742565 621.245593 
C 323.742565 613.898937 320.823707 606.852191 315.628837 601.657321 
C 310.433967 596.462451 303.387221 593.543593 296.040565 593.543593 
C 288.693909 593.543593 281.647163 596.462451 276.452293 601.657321 
C 271.257422 606.852191 268.338565 613.898937 268.338565 621.245593 
C 268.338565 628.592249 271.257422 635.638995 276.452293 640.833865 
C 281.647163 646.028736 288.693909 648.947593 296.040565 648.947593 
z
" clip-path="url(#pf6aeae2822)" style="fill: #8bc34a; stroke: #222222; stroke-width: 1.2; stroke-linejoin: miter"/>
   </g>
   <g id="patch_30">
    <path d="M 458.005569 637.142906 
C 465.352225 637.142906 472.39897 634.224048 477.593841 629.029178 
C 482.788711 623.834307 485.707569 616.787562 485.707569 609.440906 
C 485.707569 602.09425 482.788711 595.047504 477.593841 589.852634 
C 472.39897 584.657763 465.352225 581.738906 458.005569 581.738906 
C 450.658913 581.738906 443.612167 584.657763 438.417297 589.852634 
C 433.222426 595.047504 430.303569 602.09425 430.303569 609.440906 
C 430.303569 616.787562 433.222426 623.834307 438.417297 629.029178 
C 443.612167 634.224048 450.658913 637.142906 458.005569 637.142906 
z
" clip-path="url(#pf6aeae2822)" style="fill: #f5a623; stroke: #222222; stroke-width: 1.2; stroke-linejoin: miter"/>
   </g>
   <g id="patch_31">
    <path d="M 577.897468 527.614439 
C 585.244124 527.614439 592.290869 524.695582 597.48574 519.500711 
C 602.68061 514.305841 605.599468 507.259096 605.599468 499.912439 
C 605.599468 492.565783 602.68061 485.519038 597.48574 480.324167 
C 592.290869 475.129297 585.244124 472.210439 577.897468 472.210439 
C 570.550811 472.210439 563.504066 475.129297 558.309195 480.324167 
C 553.114325 485.519038 550.195468 492.565783 550.195468 499.912439 
C 550.195468 507.259096 553.114325 514.305841 558.309195 519.500711 
C 563.504066 524.695582 570.550811 527.614439 577.897468 527.614439 
z
" clip-path="url(#pf6aeae2822)" style="fill: #f5a623; stroke: #222222; stroke-width: 1.2; stroke-linejoin: miter"/>
   </g>
   <g id="patch_32">
    <path d="M 376.110165 162.146111 
C 383.456821 162.146111 390.503566 159.227253 395.698437 154.032383 
C 400.893307 148.837512 403.812165 141.790767 403.812165 134.444111 
C 403.812165 127.097454 400.893307 120.050709 395.698437 114.855839 
C 390.503566 109.660968 383.456821 106.742111 376.110165 106.742111 
C 368.763508 106.742111 361.716763 109.660968 356.521893 114.855839 
C 351.327022 120.050709 348.408165 127.097454 348.408165 134.444111 
C 348.408165 141.790767 351.327022 148.837512 356.521893 154.032383 
C 361.716763 159.227253 368.763508 162.146111 376.110165 162.146111 
z
" clip-path="url(#pf6aeae2822)" style="fill: #5087c5; stroke: #222222; stroke-width: 1.2; stroke-linejoin: miter"/>
   </g>
   <g id="patch_33">
    <path d="M 604.257733 367.378087 
C 611.604389 367.378087 618.651134 364.459229 623.846005 359.264359 
C 629.040875 354.069488 631.959733 347.022743 631.959733 339.676087 
C 631.959733 332.32943 629.040875 325.282685 623.846005 320.087815 
C 618.651134 314.892944 611.604389 311.974087 604.257733 311.974087 
C 596.911077 311.974087 589.864331 314.892944 584.669461 320.087815 
C 579.47459 325.282685 576.555733 332.32943 576.555733 339.676087 
C 576.555733 347.022743 579.47459 354.069488 584.669461 359.264359 
C 589.864331 364.459229 596.911077 367.378087 604.257733 367.378087 
z
" clip-path="url(#pf6aeae2822)" style="fill: #5087c5; stroke: #222222; stroke-width: 1.2; stroke-linejoin: miter"/>
   </g>
   <g id="text_19">
    <text style="font-weight: 700; font-size: 9.5px; font-family: 'Liberation Sans', 'Arimo', 'DejaVu Sans'; text-anchor: middle; fill: #222222" x="161.52628" y="532.706547" transform="rotate(-0 161.52628 532.706547)">A704</text>
   </g>
   <g id="text_20">
    <text style="font-weight: 700; font-size: 9.5px; font-family: 'Liberation Sans', 'Arimo', 'DejaVu Sans'; text-anchor: middle; fill: #ffffff" x="171.464759" y="223.337774" transform="rotate(-0 171.464759 223.337774)">R732</text>
   </g>
   <g id="text_21">
    <text style="font-weight: 700; font-size: 9.5px; font-family: 'Liberation Sans', 'Arimo', 'DejaVu Sans'; text-anchor: middle; fill: #222222" x="525.767785" y="199.967986" transform="rotate(-0 525.767785 199.967986)">I828</text>
   </g>
   <g id="text_22">
    <text style="font-weight: 700; font-size: 9.5px; font-family: 'Liberation Sans', 'Arimo', 'DejaVu Sans'; text-anchor: middle; fill: #222222" x="296.040565" y="623.704089" transform="rotate(-0 296.040565 623.704089)">A706</text>
   </g>
   <g id="text_23">
    <text style="font-weight: 700; font-size: 9.5px; font-family: 'Liberation Sans', 'Arimo', 'DejaVu Sans'; text-anchor: middle; fill: #222222" x="458.005569" y="611.899402" transform="rotate(-0 458.005569 611.899402)">S707</text>
   </g>
   <g id="text_24">
    <text style="font-weight: 700; font-size: 9.5px; font-family: 'Liberation Sans', 'Arimo', 'DejaVu Sans'; text-anchor: middle; fill: #222222" x="577.897468" y="502.370936" transform="rotate(-0 577.897468 502.370936)">S708</text>
   </g>
   <g id="text_25">
    <text style="font-weight: 700; font-size: 9.5px; font-family: 'Liberation Sans', 'Arimo', 'DejaVu Sans'; text-anchor: middle; fill: #ffffff" x="376.110165" y="136.902607" transform="rotate(-0 376.110165 136.902607)">K830</text>
   </g>
   <g id="text_26">
    <text style="font-weight: 700; font-size: 9.5px; font-family: 'Liberation Sans', 'Arimo', 'DejaVu Sans'; text-anchor: middle; fill: #ffffff" x="604.257733" y="342.134583" transform="rotate(-0 604.257733 342.134583)">R857</text>
   </g>
  </g>
  <g id="patch_34">
   <path d="M 130.640391 714.42 
Q 135.83969 714.42 138.914724 714.42 
" style="fill: none; stroke: #0279ee; stroke-width: 1.9; stroke-linecap: round"/>
   <path d="M 134.114724 712.02 
L 138.914724 714.42 
L 134.114724 716.82 
" style="fill: none; stroke: #0279ee; stroke-width: 1.9; stroke-linecap: round"/>
  </g>
  <g id="patch_35">
   <path d="M 92.16 743.148 
C 93.68757 743.148 95.15278 742.510745 96.232935 741.376582 
C 97.31309 740.242419 97.92 738.703948 97.92 737.1 
C 97.92 735.496052 97.31309 733.957581 96.232935 732.823418 
C 95.15278 731.689255 93.68757 731.052 92.16 731.052 
C 90.63243 731.052 89.16722 731.689255 88.087065 732.823418 
C 87.00691 733.957581 86.4 735.496052 86.4 737.1 
C 86.4 738.703948 87.00691 740.242419 88.087065 741.376582 
C 89.16722 742.510745 90.63243 743.148 92.16 743.148 
z
" style="fill: #5087c5; stroke: #222222; stroke-width: 0.8; stroke-linejoin: miter"/>
  </g>
  <g id="patch_36">
   <path d="M 218.88 743.148 
C 220.40757 743.148 221.87278 742.510745 222.952935 741.376582 
C 224.03309 740.242419 224.64 738.703948 224.64 737.1 
C 224.64 735.496052 224.03309 733.957581 222.952935 732.823418 
C 221.87278 731.689255 220.40757 731.052 218.88 731.052 
C 217.35243 731.052 215.88722 731.689255 214.807065 732.823418 
C 213.72691 733.957581 213.12 735.496052 213.12 737.1 
C 213.12 738.703948 213.72691 740.242419 214.807065 741.376582 
C 215.88722 742.510745 217.35243 743.148 218.88 743.148 
z
" style="fill: #d9584c; stroke: #222222; stroke-width: 0.8; stroke-linejoin: miter"/>
  </g>
  <g id="patch_37">
   <path d="M 345.6 743.148 
C 347.12757 743.148 348.59278 742.510745 349.672935 741.376582 
C 350.75309 740.242419 351.36 738.703948 351.36 737.1 
C 351.36 735.496052 350.75309 733.957581 349.672935 732.823418 
C 348.59278 731.689255 347.12757 731.052 345.6 731.052 
C 344.07243 731.052 342.60722 731.689255 341.527065 732.823418 
C 340.44691 733.957581 339.84 735.496052 339.84 737.1 
C 339.84 738.703948 340.44691 740.242419 341.527065 741.376582 
C 342.60722 742.510745 344.07243 743.148 345.6 743.148 
z
" style="fill: #f5a623; stroke: #222222; stroke-width: 0.8; stroke-linejoin: miter"/>
  </g>
  <g id="patch_38">
   <path d="M 472.32 743.148 
C 473.84757 743.148 475.31278 742.510745 476.392935 741.376582 
C 477.47309 740.242419 478.08 738.703948 478.08 737.1 
C 478.08 735.496052 477.47309 733.957581 476.392935 732.823418 
C 475.31278 731.689255 473.84757 731.052 472.32 731.052 
C 470.79243 731.052 469.32722 731.689255 468.247065 732.823418 
C 467.16691 733.957581 466.56 735.496052 466.56 737.1 
C 466.56 738.703948 467.16691 740.242419 468.247065 741.376582 
C 469.32722 742.510745 470.79243 743.148 472.32 743.148 
z
" style="fill: #8bc34a; stroke: #222222; stroke-width: 0.8; stroke-linejoin: miter"/>
  </g>
  <g id="patch_39">
   <path d="M 599.04 743.148 
C 600.56757 743.148 602.03278 742.510745 603.112935 741.376582 
C 604.19309 740.242419 604.8 738.703948 604.8 737.1 
C 604.8 735.496052 604.19309 733.957581 603.112935 732.823418 
C 602.03278 731.689255 600.56757 731.052 599.04 731.052 
C 597.51243 731.052 596.04722 731.689255 594.967065 732.823418 
C 593.88691 733.957581 593.28 735.496052 593.28 737.1 
C 593.28 738.703948 593.88691 740.242419 594.967065 741.376582 
C 596.04722 742.510745 597.51243 743.148 599.04 743.148 
z
" style="fill: #ffffff; stroke: #dc3912; stroke-width: 2.5; stroke-linejoin: miter"/>
  </g>
  <g id="line2d_59">
   <path d="M 339.84 714.42 
L 354.24 714.42 
" style="fill: none; stroke: #75a025; stroke-opacity: 0.4; stroke-width: 4; stroke-linecap: square"/>
  </g>
  <g id="line2d_60">
   <path d="M 551.04 714.42 
L 565.44 714.42 
" style="fill: none; stroke-dasharray: 9.6,7.2; stroke-dashoffset: 0; stroke: #fd9bed; stroke-width: 2.4"/>
  </g>
  <g id="text_27">
   <text style="font-weight: 700; font-size: 14px; font-family: 'Liberation Sans', 'Arimo', 'DejaVu Sans'; text-anchor: middle" x="360" y="21.532383" transform="rotate(-0 360 21.532383)">L528S × 9MJT · HRO761 — RESISTANCE</text>
  </g>
  <g id="text_28">
   <text style="font-size: 10.5px; font-family: 'Liberation Sans', 'Arimo', 'DejaVu Sans'; text-anchor: middle" x="360" y="41.66925" transform="rotate(-0 360 41.66925)">ΔS = -0.64  |  RMSD vs WT = 2.89 Å  |  1 lost / 7 retained / 1 gained</text>
  </g>
  <g id="text_29">
   <text style="font-size: 10.5px; font-family: 'Liberation Sans', 'Arimo', 'DejaVu Sans'; text-anchor: middle" x="360" y="61.320287" transform="rotate(-0 360 61.320287)">PLIP: 3 hydrophobic · 6 H-bond · 1 π-cation</text>
  </g>
  <g id="text_30">
   <text style="font-size: 8.5px; font-family: 'Liberation Sans', 'Arimo', 'DejaVu Sans'; text-anchor: start" x="146.64" y="716.619707" transform="rotate(-0 146.64 716.619707)">H-bond</text>
  </g>
  <g id="text_31">
   <text style="font-size: 8.5px; font-family: 'Liberation Sans', 'Arimo', 'DejaVu Sans'; text-anchor: start" x="357.84" y="716.619707" transform="rotate(-0 357.84 716.619707)">Hydrophobic</text>
  </g>
  <g id="text_32">
   <text style="font-size: 8.5px; font-family: 'Liberation Sans', 'Arimo', 'DejaVu Sans'; text-anchor: start" x="569.04" y="716.619707" transform="rotate(-0 569.04 716.619707)">π-cation</text>
  </g>
  <g id="text_33">
   <text style="font-size: 8px; font-family: 'Liberation Sans', 'Arimo', 'DejaVu Sans'; text-anchor: start" x="100.8" y="739.170313" transform="rotate(-0 100.8 739.170313)">Basic</text>
  </g>
  <g id="text_34">
   <text style="font-size: 8px; font-family: 'Liberation Sans', 'Arimo', 'DejaVu Sans'; text-anchor: start" x="227.52" y="739.170313" transform="rotate(-0 227.52 739.170313)">Acidic</text>
  </g>
  <g id="text_35">
   <text style="font-size: 8px; font-family: 'Liberation Sans', 'Arimo', 'DejaVu Sans'; text-anchor: start" x="354.24" y="739.170313" transform="rotate(-0 354.24 739.170313)">Polar</text>
  </g>
  <g id="text_36">
   <text style="font-size: 8px; font-family: 'Liberation Sans', 'Arimo', 'DejaVu Sans'; text-anchor: start" x="480.96" y="739.170313" transform="rotate(-0 480.96 739.170313)">Hydrophobic</text>
  </g>
  <g id="text_37">
   <text style="font-size: 8px; font-family: 'Liberation Sans', 'Arimo', 'DejaVu Sans'; text-anchor: start" x="607.68" y="739.170313" transform="rotate(-0 607.68 739.170313)">Mutation site</text>
  </g>
 </g>
 <defs>
  <clipPath id="pf6aeae2822">
   <rect x="53.82" y="75.6" width="612.36" height="612.36"/>
  </clipPath>
 </defs>
</svg>
