<?xml version="1.0" encoding="utf-8" standalone="no"?>
<!DOCTYPE svg PUBLIC "-//W3C//DTD SVG 1.1//EN"
  "http://www.w3.org/Graphics/SVG/1.1/DTD/svg11.dtd">
<svg xmlns:xlink="http://www.w3.org/1999/xlink" width="720pt" height="756pt" viewBox="0 0 720 756" xmlns="http://www.w3.org/2000/svg" version="1.1">
 <metadata>
  <rdf:RDF xmlns:dc="http://purl.org/dc/elements/1.1/" xmlns:cc="http://creativecommons.org/ns#" xmlns:rdf="http://www.w3.org/1999/02/22-rdf-syntax-ns#">
   <cc:Work>
    <dc:type rdf:resource="http://purl.org/dc/dcmitype/StillImage"/>
    <dc:date>2022-01-01T05:00:00+00:00</dc:date>
    <dc:format>image/svg+xml</dc:format>
    <dc:creator>
     <cc:Agent>
      <dc:title>Matplotlib v3.11.0, https://matplotlib.org/</dc:title>
     </cc:Agent>
    </dc:creator>
   </cc:Work>
  </rdf:RDF>
 </metadata>
 <defs>
  <style type="text/css">*{stroke-linejoin: round; stroke-linecap: butt}</style>
 </defs>
 <g id="figure_1">
  <g id="patch_1">
   <path d="M 0 756 
L 720 756 
L 720 0 
L 0 0 
z
" style="fill: #ffffff"/>
  </g>
  <g id="axes_1">
   <g id="line2d_1">
    <path d="M 99.787898 467.411781 
L 103.918736 464.719793 
L 108.071708 462.076806 
L 112.246815 459.48282 
L 116.444057 456.937835 
L 120.663434 454.441851 
L 124.904946 451.994869 
L 129.168593 449.596887 
L 133.454375 447.247907 
L 137.762291 444.947928 
L 142.092343 442.69695 
L 146.444529 440.494973 
L 150.81885 438.341997 
L 155.215306 436.238022 
L 159.633897 434.183049 
L 164.074623 432.177076 
L 168.537483 430.220105 
L 173.022479 428.312134 
L 177.529609 426.453165 
L 182.058874 424.643197 
L 186.610274 422.88223 
L 191.183809 421.170264 
L 195.779479 419.5073 
L 200.397284 417.893336 
L 205.037224 416.328373 
L 209.699298 414.812412 
L 214.383507 413.345452 
L 219.089851 411.927492 
L 223.81833 410.558534 
L 228.568944 409.238577 
" clip-path="url(#pda2ef01f33)" style="fill: none; stroke: #75a025; stroke-opacity: 0.4; stroke-width: 4; stroke-linecap: round"/>
   </g>
   <g id="line2d_2">
    <path d="M 630.738117 422.077154 
L 624.174164 423.192285 
L 617.609121 424.234817 
L 611.042988 425.204751 
L 604.475765 426.102087 
L 597.907452 426.926824 
L 591.33805 427.678964 
L 584.767559 428.358505 
L 578.195977 428.965448 
L 571.623306 429.499793 
L 565.049545 429.96154 
L 558.474694 430.350689 
L 551.898754 430.667239 
L 545.321723 430.911192 
L 538.743604 431.082546 
L 532.164394 431.181302 
L 525.584095 431.207459 
L 519.002706 431.161019 
L 512.420227 431.04198 
L 505.836658 430.850344 
L 499.252 430.586109 
L 492.666252 430.249276 
L 486.079415 429.839844 
L 479.491487 429.357815 
L 472.90247 428.803187 
L 466.312363 428.175961 
L 459.721167 427.476137 
L 453.12888 426.703715 
L 446.535505 425.858695 
L 439.941039 424.941076 
" clip-path="url(#pda2ef01f33)" style="fill: none; stroke: #75a025; stroke-opacity: 0.4; stroke-width: 4; stroke-linecap: round"/>
   </g>
   <g id="line2d_3">
    <path d="M 570.276974 557.5978 
L 564.333217 554.204025 
L 558.435933 550.751842 
L 552.585119 547.241252 
L 546.780777 543.672255 
L 541.022907 540.04485 
L 535.311508 536.359039 
L 529.646581 532.61482 
L 524.028125 528.812194 
L 518.45614 524.95116 
L 512.930627 521.03172 
L 507.451585 517.053872 
L 502.019015 513.017617 
L 496.632917 508.922954 
L 491.29329 504.769885 
L 486.000134 500.558408 
L 480.75345 496.288524 
L 475.553237 491.960233 
L 470.399495 487.573534 
L 465.292226 483.128429 
L 460.231427 478.624916 
L 455.2171 474.062995 
L 450.249245 469.442668 
L 445.327861 464.763933 
L 440.452948 460.026791 
L 435.624507 455.231242 
L 430.842538 450.377286 
L 426.10704 445.464922 
L 421.418013 440.494152 
L 416.775458 435.464973 
" clip-path="url(#pda2ef01f33)" style="fill: none; stroke: #75a025; stroke-opacity: 0.4; stroke-width: 4; stroke-linecap: round"/>
   </g>
   <g id="line2d_4">
    <path d="M 438.324439 120.590597 
L 433.267879 125.916231 
L 428.277133 131.287495 
L 423.352201 136.704387 
L 418.493084 142.166909 
L 413.699782 147.675061 
L 408.972294 153.228841 
L 404.310621 158.828251 
L 399.714762 164.473291 
L 395.184718 170.163959 
L 390.720488 175.900257 
L 386.322073 181.682184 
L 381.989473 187.509741 
L 377.722687 193.382926 
L 373.521716 199.301742 
L 369.386559 205.266186 
L 365.317217 211.27626 
L 361.313689 217.331963 
L 357.375976 223.433295 
L 353.504077 229.580257 
L 349.697993 235.772848 
L 345.957724 242.011068 
L 342.283269 248.294918 
L 338.674629 254.624397 
L 335.131803 260.999505 
L 331.654792 267.420243 
L 328.243595 273.88661 
L 324.898213 280.398606 
L 321.618646 286.956232 
L 318.404893 293.559487 
" clip-path="url(#pda2ef01f33)" style="fill: none; stroke: #75a025; stroke-opacity: 0.4; stroke-width: 4; stroke-linecap: round"/>
   </g>
   <g id="line2d_5">
    <path d="M 292.419541 117.023081 
L 291.509591 123.156093 
L 290.667254 129.2887 
L 289.892528 135.420904 
L 289.185415 141.552703 
L 288.545914 147.684099 
L 287.974026 153.81509 
L 287.469749 159.945677 
L 287.033085 166.07586 
L 286.664033 172.20564 
L 286.362593 178.335015 
L 286.128765 184.463985 
L 285.96255 190.592552 
L 285.863946 196.720715 
L 285.832955 202.848473 
L 285.869576 208.975828 
L 285.973809 215.102778 
L 286.145655 221.229325 
L 286.385112 227.355467 
L 286.692182 233.481205 
L 287.066864 239.606539 
L 287.509158 245.731469 
L 288.019065 251.855995 
L 288.596583 257.980116 
L 289.241714 264.103834 
L 289.954457 270.227148 
L 290.734812 276.350057 
L 291.582779 282.472562 
L 292.498359 288.594664 
L 293.48155 294.716361 
" clip-path="url(#pda2ef01f33)" style="fill: none; stroke: #75a025; stroke-opacity: 0.4; stroke-width: 4; stroke-linecap: round"/>
   </g>
   <g id="line2d_6">
    <path d="M 308.678134 650.956986 
L 308.348174 642.337514 
L 308.111658 633.728836 
L 307.968586 625.130952 
L 307.918957 616.543864 
L 307.962773 607.967569 
L 308.100032 599.40207 
L 308.330735 590.847364 
L 308.654882 582.303454 
L 309.072473 573.770338 
L 309.583508 565.248016 
L 310.187986 556.736489 
L 310.885909 548.235756 
L 311.677275 539.745818 
L 312.562085 531.266675 
L 313.540339 522.798326 
L 314.612037 514.340771 
L 315.777178 505.894011 
L 317.035764 497.458046 
L 318.387793 489.032875 
L 319.833266 480.618499 
L 321.372183 472.214917 
L 323.004544 463.82213 
L 324.730349 455.440137 
L 326.549597 447.068939 
L 328.46229 438.708535 
L 330.468426 430.358926 
L 332.568006 422.020111 
L 334.76103 413.692091 
L 337.047498 405.374865 
" clip-path="url(#pda2ef01f33)" style="fill: none; stroke: #75a025; stroke-opacity: 0.4; stroke-width: 4; stroke-linecap: round"/>
   </g>
   <g id="patch_2">
    <path d="M 211.784092 543.978245 
Q 249.226619 494.764042 285.659995 446.876259 
" clip-path="url(#pda2ef01f33)" style="fill: none; stroke: #0279ee; stroke-width: 2; stroke-linecap: round"/>
    <path d="M 276.040956 449.610137 
L 285.659995 446.876259 
L 285.591186 456.876023 
" clip-path="url(#pda2ef01f33)" style="fill: none; stroke: #0279ee; stroke-width: 2; stroke-linecap: round"/>
   </g>
   <g id="patch_3">
    <path d="M 432.792505 588.97767 
Q 407.868263 517.98733 383.496137 448.56955 
" clip-path="url(#pda2ef01f33)" style="fill: none; stroke: #0279ee; stroke-width: 2; stroke-linecap: round"/>
    <path d="M 380.485075 458.105456 
L 383.496137 448.56955 
L 391.807509 454.130224 
" clip-path="url(#pda2ef01f33)" style="fill: none; stroke: #0279ee; stroke-width: 2; stroke-linecap: round"/>
   </g>
   <g id="line2d_7">
    <path d="M 203.736557 223.862923 
L 302.490679 303.505981 
" clip-path="url(#pda2ef01f33)" style="fill: none; stroke-dasharray: 7.2,5.4; stroke-dashoffset: 0; stroke: #ff9400; stroke-width: 1.8"/>
   </g>
   <g id="line2d_8">
    <path d="M 198.244868 230.672391 
L 296.99899 310.315449 
" clip-path="url(#pda2ef01f33)" style="fill: none; stroke-dasharray: 7.2,5.4; stroke-dashoffset: 0; stroke: #ff9400; stroke-width: 1.8"/>
   </g>
   <g id="line2d_9">
    <path d="M 142.61376 336.318653 
L 242.045655 379.199041 
" clip-path="url(#pda2ef01f33)" style="fill: none; stroke: #8b4513; stroke-width: 2.2; stroke-linecap: square"/>
   </g>
   <g id="line2d_10">
    <path d="M 322.339713 435.719331 
L 336.378243 411.168337 
" clip-path="url(#pda2ef01f33)" style="fill: none; stroke: #222222; stroke-width: 2; stroke-linecap: round"/>
   </g>
   <g id="line2d_11">
    <path d="M 322.135723 386.735118 
L 336.378243 411.168337 
" clip-path="url(#pda2ef01f33)" style="fill: none; stroke: #222222; stroke-width: 2; stroke-linecap: round"/>
   </g>
   <g id="line2d_12">
    <path d="M 294.058665 435.837104 
L 322.339713 435.719331 
" clip-path="url(#pda2ef01f33)" style="fill: none; stroke: #222222; stroke-width: 2; stroke-linecap: round"/>
   </g>
   <g id="line2d_13">
    <path d="M 293.854675 386.852891 
L 322.135723 386.735118 
" clip-path="url(#pda2ef01f33)" style="fill: none; stroke: #222222; stroke-width: 2; stroke-linecap: round"/>
   </g>
   <g id="line2d_14">
    <path d="M 279.816145 411.403885 
L 293.854675 386.852891 
" clip-path="url(#pda2ef01f33)" style="fill: none; stroke: #222222; stroke-width: 2; stroke-linecap: round"/>
   </g>
   <g id="line2d_15">
    <path d="M 279.816145 411.403885 
L 294.058665 435.837104 
" clip-path="url(#pda2ef01f33)" style="fill: none; stroke: #222222; stroke-width: 2; stroke-linecap: round"/>
   </g>
   <g id="line2d_16">
    <path d="M 364.659291 411.050564 
L 378.697821 386.49957 
" clip-path="url(#pda2ef01f33)" style="fill: none; stroke: #222222; stroke-width: 2; stroke-linecap: round"/>
   </g>
   <g id="line2d_17">
    <path d="M 364.659291 411.050564 
L 336.378243 411.168337 
" clip-path="url(#pda2ef01f33)" style="fill: none; stroke: #222222; stroke-width: 2; stroke-linecap: round"/>
   </g>
   <g id="line2d_18">
    <path d="M 378.901811 435.483784 
L 364.659291 411.050564 
" clip-path="url(#pda2ef01f33)" style="fill: none; stroke: #222222; stroke-width: 2; stroke-linecap: round"/>
   </g>
   <g id="line2d_19">
    <path d="M 406.978869 386.381797 
L 378.697821 386.49957 
" clip-path="url(#pda2ef01f33)" style="fill: none; stroke: #222222; stroke-width: 2; stroke-linecap: round"/>
   </g>
   <g id="line2d_20">
    <path d="M 421.221389 410.815017 
L 406.978869 386.381797 
" clip-path="url(#pda2ef01f33)" style="fill: none; stroke: #222222; stroke-width: 2; stroke-linecap: round"/>
   </g>
   <g id="line2d_21">
    <path d="M 421.339162 439.096065 
L 421.221389 410.815017 
" clip-path="url(#pda2ef01f33)" style="fill: none; stroke: #222222; stroke-width: 2; stroke-linecap: round"/>
   </g>
   <g id="line2d_22">
    <path d="M 445.772382 424.853546 
L 421.339162 439.096065 
" clip-path="url(#pda2ef01f33)" style="fill: none; stroke: #222222; stroke-width: 2; stroke-linecap: round"/>
   </g>
   <g id="line2d_23">
    <path d="M 445.772382 424.853546 
L 421.221389 410.815017 
" clip-path="url(#pda2ef01f33)" style="fill: none; stroke: #222222; stroke-width: 2; stroke-linecap: round"/>
   </g>
   <g id="line2d_24">
    <path d="M 421.017399 361.830804 
L 406.978869 386.381797 
" clip-path="url(#pda2ef01f33)" style="fill: none; stroke: #222222; stroke-width: 2; stroke-linecap: round"/>
   </g>
   <g id="line2d_25">
    <path d="M 449.298447 361.71303 
L 421.017399 361.830804 
" clip-path="url(#pda2ef01f33)" style="fill: none; stroke: #222222; stroke-width: 2; stroke-linecap: round"/>
   </g>
   <g id="line2d_26">
    <path d="M 463.540967 386.14625 
L 449.298447 361.71303 
" clip-path="url(#pda2ef01f33)" style="fill: none; stroke: #222222; stroke-width: 2; stroke-linecap: round"/>
   </g>
   <g id="line2d_27">
    <path d="M 439.107747 400.388769 
L 463.540967 386.14625 
" clip-path="url(#pda2ef01f33)" style="fill: none; stroke: #222222; stroke-width: 2; stroke-linecap: round"/>
   </g>
   <g id="line2d_28">
    <path d="M 487.974186 371.90373 
L 463.540967 386.14625 
" clip-path="url(#pda2ef01f33)" style="fill: none; stroke: #222222; stroke-width: 2; stroke-linecap: round"/>
   </g>
   <g id="line2d_29">
    <path d="M 477.783486 410.579469 
L 463.540967 386.14625 
" clip-path="url(#pda2ef01f33)" style="fill: none; stroke: #222222; stroke-width: 2; stroke-linecap: round"/>
   </g>
   <g id="line2d_30">
    <path d="M 463.336977 337.162037 
L 449.298447 361.71303 
" clip-path="url(#pda2ef01f33)" style="fill: none; stroke: #222222; stroke-width: 2; stroke-linecap: round"/>
   </g>
   <g id="line2d_31">
    <path d="M 491.618025 337.044263 
L 463.336977 337.162037 
" clip-path="url(#pda2ef01f33)" style="fill: none; stroke: #222222; stroke-width: 2; stroke-linecap: round"/>
   </g>
   <g id="line2d_32">
    <path d="M 251.535097 411.521658 
L 279.816145 411.403885 
" clip-path="url(#pda2ef01f33)" style="fill: none; stroke: #222222; stroke-width: 2; stroke-linecap: round"/>
   </g>
   <g id="line2d_33">
    <path d="M 223.254048 411.639432 
L 251.535097 411.521658 
" clip-path="url(#pda2ef01f33)" style="fill: none; stroke: #222222; stroke-width: 2; stroke-linecap: round"/>
   </g>
   <g id="line2d_34">
    <path d="M 251.417323 383.24061 
L 251.535097 411.521658 
" clip-path="url(#pda2ef01f33)" style="fill: none; stroke: #222222; stroke-width: 2; stroke-linecap: round"/>
   </g>
   <g id="line2d_35">
    <path d="M 251.65287 439.802707 
L 251.535097 411.521658 
" clip-path="url(#pda2ef01f33)" style="fill: none; stroke: #222222; stroke-width: 2; stroke-linecap: round"/>
   </g>
   <g id="line2d_36">
    <path d="M 336.174253 362.184124 
L 322.135723 386.735118 
" clip-path="url(#pda2ef01f33)" style="fill: none; stroke: #222222; stroke-width: 2; stroke-linecap: round"/>
   </g>
   <g id="line2d_37">
    <path d="M 321.931734 337.750905 
L 336.174253 362.184124 
" clip-path="url(#pda2ef01f33)" style="fill: none; stroke: #222222; stroke-width: 2; stroke-linecap: round"/>
   </g>
   <g id="line2d_38">
    <path d="M 293.650685 337.868678 
L 321.931734 337.750905 
" clip-path="url(#pda2ef01f33)" style="fill: none; stroke: #222222; stroke-width: 2; stroke-linecap: round"/>
   </g>
   <g id="line2d_39">
    <path d="M 335.970263 313.199911 
L 321.931734 337.750905 
" clip-path="url(#pda2ef01f33)" style="fill: none; stroke: #222222; stroke-width: 2; stroke-linecap: round"/>
   </g>
   <g id="line2d_40">
    <path d="M 279.408166 313.435458 
L 293.650685 337.868678 
" clip-path="url(#pda2ef01f33)" style="fill: none; stroke: #222222; stroke-width: 2; stroke-linecap: round"/>
   </g>
   <g id="line2d_41">
    <path d="M 321.727744 288.766691 
L 335.970263 313.199911 
" clip-path="url(#pda2ef01f33)" style="fill: none; stroke: #222222; stroke-width: 2; stroke-linecap: round"/>
   </g>
   <g id="line2d_42">
    <path d="M 293.446695 288.884465 
L 321.727744 288.766691 
" clip-path="url(#pda2ef01f33)" style="fill: none; stroke: #222222; stroke-width: 2; stroke-linecap: round"/>
   </g>
   <g id="line2d_43">
    <path d="M 293.446695 288.884465 
L 279.408166 313.435458 
" clip-path="url(#pda2ef01f33)" style="fill: none; stroke: #222222; stroke-width: 2; stroke-linecap: round"/>
   </g>
   <g id="text_1">
    <g id="patch_4">
     <path d="M 289.48554 441.707964 
L 298.63179 441.707964 
L 298.63179 429.966245 
L 289.48554 429.966245 
z
" style="fill: #ffffff"/>
    </g>
    <text style="font-weight: 700; font-size: 12px; font-family: 'Liberation Sans', 'Arimo', 'DejaVu Sans'; text-anchor: middle; fill: #0879c0" x="294.058665" y="438.942573" transform="rotate(-0 294.058665 438.942573)">N</text>
   </g>
   <g id="text_2">
    <g id="patch_5">
     <path d="M 289.28155 392.723751 
L 298.4278 392.723751 
L 298.4278 380.982032 
L 289.28155 380.982032 
z
" style="fill: #ffffff"/>
    </g>
    <text style="font-weight: 700; font-size: 12px; font-family: 'Liberation Sans', 'Arimo', 'DejaVu Sans'; text-anchor: middle; fill: #0879c0" x="293.854675" y="389.95836" transform="rotate(-0 293.854675 389.95836)">N</text>
   </g>
   <g id="text_3">
    <g id="patch_6">
     <path d="M 374.124696 392.37043 
L 383.270946 392.37043 
L 383.270946 380.628711 
L 374.124696 380.628711 
z
" style="fill: #ffffff"/>
    </g>
    <text style="font-weight: 700; font-size: 12px; font-family: 'Liberation Sans', 'Arimo', 'DejaVu Sans'; text-anchor: middle; fill: #0879c0" x="378.697821" y="389.605039" transform="rotate(-0 378.697821 389.605039)">N</text>
   </g>
   <g id="text_4">
    <g id="patch_7">
     <path d="M 373.994936 441.354643 
L 383.808686 441.354643 
L 383.808686 429.612924 
L 373.994936 429.612924 
z
" style="fill: #ffffff"/>
    </g>
    <text style="font-weight: 700; font-size: 12px; font-family: 'Liberation Sans', 'Arimo', 'DejaVu Sans'; text-anchor: middle; fill: #d40000" x="378.901811" y="438.589252" transform="rotate(-0 378.901811 438.589252)">O</text>
   </g>
   <g id="text_5">
    <g id="patch_8">
     <path d="M 459.298779 392.017109 
L 467.783154 392.017109 
L 467.783154 380.27539 
L 459.298779 380.27539 
z
" style="fill: #ffffff"/>
    </g>
    <text style="font-weight: 700; font-size: 12px; font-family: 'Liberation Sans', 'Arimo', 'DejaVu Sans'; text-anchor: middle; fill: #b8860b" x="463.540967" y="389.251718" transform="rotate(-0 463.540967 389.251718)">S</text>
   </g>
   <g id="text_6">
    <g id="patch_9">
     <path d="M 434.200872 406.259628 
L 444.014622 406.259628 
L 444.014622 394.51791 
L 434.200872 394.51791 
z
" style="fill: #ffffff"/>
    </g>
    <text style="font-weight: 700; font-size: 12px; font-family: 'Liberation Sans', 'Arimo', 'DejaVu Sans'; text-anchor: middle; fill: #d40000" x="439.107747" y="403.494238" transform="rotate(-0 439.107747 403.494238)">O</text>
   </g>
   <g id="text_7">
    <g id="patch_10">
     <path d="M 483.067311 377.77459 
L 492.881061 377.77459 
L 492.881061 366.032871 
L 483.067311 366.032871 
z
" style="fill: #ffffff"/>
    </g>
    <text style="font-weight: 700; font-size: 12px; font-family: 'Liberation Sans', 'Arimo', 'DejaVu Sans'; text-anchor: middle; fill: #d40000" x="487.974186" y="375.009199" transform="rotate(-0 487.974186 375.009199)">O</text>
   </g>
   <g id="text_8">
    <g id="patch_11">
     <path d="M 459.094789 343.032896 
L 467.579164 343.032896 
L 467.579164 331.291177 
L 459.094789 331.291177 
z
" style="fill: #ffffff"/>
    </g>
    <text style="font-weight: 700; font-size: 12px; font-family: 'Liberation Sans', 'Arimo', 'DejaVu Sans'; text-anchor: middle; fill: #b8860b" x="463.336977" y="340.267505" transform="rotate(-0 463.336977 340.267505)">S</text>
   </g>
   <g id="text_9">
    <g id="patch_12">
     <path d="M 247.512636 389.111469 
L 255.322011 389.111469 
L 255.322011 377.36975 
L 247.512636 377.36975 
z
" style="fill: #ffffff"/>
    </g>
    <text style="font-weight: 700; font-size: 12px; font-family: 'Liberation Sans', 'Arimo', 'DejaVu Sans'; text-anchor: middle; fill: #00a040" x="251.417323" y="386.346078" transform="rotate(-0 251.417323 386.346078)">F</text>
   </g>
   <g id="text_10">
    <g id="patch_13">
     <path d="M 247.748183 445.673566 
L 255.557558 445.673566 
L 255.557558 433.931847 
L 247.748183 433.931847 
z
" style="fill: #ffffff"/>
    </g>
    <text style="font-weight: 700; font-size: 12px; font-family: 'Liberation Sans', 'Arimo', 'DejaVu Sans'; text-anchor: middle; fill: #00a040" x="251.65287" y="442.908176" transform="rotate(-0 251.65287 442.908176)">F</text>
   </g>
   <g id="text_11">
    <g id="patch_14">
     <path d="M 331.267378 368.054984 
L 341.081128 368.054984 
L 341.081128 356.313265 
L 331.267378 356.313265 
z
" style="fill: #ffffff"/>
    </g>
    <text style="font-weight: 700; font-size: 12px; font-family: 'Liberation Sans', 'Arimo', 'DejaVu Sans'; text-anchor: middle; fill: #d40000" x="336.174253" y="365.289593" transform="rotate(-0 336.174253 365.289593)">O</text>
   </g>
   <g id="patch_15">
    <path d="M 123.704931 481.393936 
C 130.278255 481.393936 136.583238 478.782327 141.23128 474.134285 
C 145.879322 469.486243 148.490931 463.18126 148.490931 456.607936 
C 148.490931 450.034612 145.879322 443.729629 141.23128 439.081587 
C 136.583238 434.433545 130.278255 431.821936 123.704931 431.821936 
C 117.131607 431.821936 110.826624 434.433545 106.178582 439.081587 
C 101.53054 443.729629 98.918931 450.034612 98.918931 456.607936 
C 98.918931 463.18126 101.53054 469.486243 106.178582 474.134285 
C 110.826624 478.782327 117.131607 481.393936 123.704931 481.393936 
z
" clip-path="url(#pda2ef01f33)" style="fill: #8bc34a; stroke: #222222; stroke-width: 1.2; stroke-linejoin: miter"/>
   </g>
   <g id="patch_16">
    <path d="M 604.497073 447.25704 
C 611.070397 447.25704 617.37538 444.645431 622.023422 439.997389 
C 626.671464 435.349347 629.283073 429.044364 629.283073 422.47104 
C 629.283073 415.897716 626.671464 409.592734 622.023422 404.944692 
C 617.37538 400.29665 611.070397 397.68504 604.497073 397.68504 
C 597.923749 397.68504 591.618767 400.29665 586.970725 404.944692 
C 582.322683 409.592734 579.711073 415.897716 579.711073 422.47104 
C 579.711073 429.044364 582.322683 435.349347 586.970725 439.997389 
C 591.618767 444.645431 597.923749 447.25704 604.497073 447.25704 
z
" clip-path="url(#pda2ef01f33)" style="fill: #8bc34a; stroke: #222222; stroke-width: 1.2; stroke-linejoin: miter"/>
   </g>
   <g id="patch_17">
    <path d="M 549.740305 566.043887 
C 556.313629 566.043887 562.618611 563.432278 567.266653 558.784236 
C 571.914695 554.136194 574.526305 547.831211 574.526305 541.257887 
C 574.526305 534.684563 571.914695 528.37958 567.266653 523.731538 
C 562.618611 519.083496 556.313629 516.471887 549.740305 516.471887 
C 543.166981 516.471887 536.861998 519.083496 532.213956 523.731538 
C 527.565914 528.37958 524.954305 534.684563 524.954305 541.257887 
C 524.954305 547.831211 527.565914 554.136194 532.213956 558.784236 
C 536.861998 563.432278 543.166981 566.043887 549.740305 566.043887 
z
" clip-path="url(#pda2ef01f33)" style="fill: #8bc34a; stroke: #222222; stroke-width: 1.2; stroke-linejoin: miter"/>
   </g>
   <g id="patch_18">
    <path d="M 423.37161 166.944176 
C 429.944934 166.944176 436.249917 164.332567 440.897959 159.684525 
C 445.546001 155.036483 448.15761 148.7315 448.15761 142.158176 
C 448.15761 135.584852 445.546001 129.279869 440.897959 124.631827 
C 436.249917 119.983785 429.944934 117.372176 423.37161 117.372176 
C 416.798286 117.372176 410.493304 119.983785 405.845262 124.631827 
C 401.19722 129.279869 398.58561 135.584852 398.58561 142.158176 
C 398.58561 148.7315 401.19722 155.036483 405.845262 159.684525 
C 410.493304 164.332567 416.798286 166.944176 423.37161 166.944176 
z
" clip-path="url(#pda2ef01f33)" style="fill: #8bc34a; stroke: #222222; stroke-width: 1.2; stroke-linejoin: miter"/>
   </g>
   <g id="patch_19">
    <path d="M 292.576389 168.052612 
C 299.149713 168.052612 305.454696 165.441003 310.102738 160.792961 
C 314.75078 156.144919 317.362389 149.839936 317.362389 143.266612 
C 317.362389 136.693288 314.75078 130.388305 310.102738 125.740263 
C 305.454696 121.092221 299.149713 118.480612 292.576389 118.480612 
C 286.003065 118.480612 279.698082 121.092221 275.05004 125.740263 
C 270.401998 130.388305 267.790389 136.693288 267.790389 143.266612 
C 267.790389 149.839936 270.401998 156.144919 275.05004 160.792961 
C 279.698082 165.441003 286.003065 168.052612 292.576389 168.052612 
z
" clip-path="url(#pda2ef01f33)" style="fill: #5087c5; stroke: #222222; stroke-width: 1.2; stroke-linejoin: miter"/>
   </g>
   <g id="patch_20">
    <path d="M 311.689783 649.672361 
C 318.263107 649.672361 324.56809 647.060751 329.216132 642.412709 
C 333.864174 637.764667 336.475783 631.459685 336.475783 624.886361 
C 336.475783 618.313036 333.864174 612.008054 329.216132 607.360012 
C 324.56809 602.71197 318.263107 600.100361 311.689783 600.100361 
C 305.116459 600.100361 298.811476 602.71197 294.163434 607.360012 
C 289.515392 612.008054 286.903783 618.313036 286.903783 624.886361 
C 286.903783 631.459685 289.515392 637.764667 294.163434 642.412709 
C 298.811476 647.060751 305.116459 649.672361 311.689783 649.672361 
z
" clip-path="url(#pda2ef01f33)" style="fill: #f5a623; stroke: #222222; stroke-width: 1.2; stroke-linejoin: miter"/>
   </g>
   <g id="patch_21">
    <path d="M 194.683348 591.241348 
C 201.256672 591.241348 207.561655 588.629739 212.209697 583.981697 
C 216.857739 579.333655 219.469348 573.028672 219.469348 566.455348 
C 219.469348 559.882024 216.857739 553.577041 212.209697 548.928999 
C 207.561655 544.280957 201.256672 541.669348 194.683348 541.669348 
C 188.110024 541.669348 181.805041 544.280957 177.156999 548.928999 
C 172.508957 553.577041 169.897348 559.882024 169.897348 566.455348 
C 169.897348 573.028672 172.508957 579.333655 177.156999 583.981697 
C 181.805041 588.629739 188.110024 591.241348 194.683348 591.241348 
z
" clip-path="url(#pda2ef01f33)" style="fill: #f5a623; stroke: #222222; stroke-width: 1.2; stroke-linejoin: miter"/>
   </g>
   <g id="patch_22">
    <path d="M 442.150057 640.416268 
C 448.723381 640.416268 455.028364 637.804658 459.676406 633.156616 
C 464.324448 628.508574 466.936057 622.203592 466.936057 615.630268 
C 466.936057 609.056944 464.324448 602.751961 459.676406 598.103919 
C 455.028364 593.455877 448.723381 590.844268 442.150057 590.844268 
C 435.576733 590.844268 429.27175 593.455877 424.623708 598.103919 
C 419.975666 602.751961 417.364057 609.056944 417.364057 615.630268 
C 417.364057 622.203592 419.975666 628.508574 424.623708 633.156616 
C 429.27175 637.804658 435.576733 640.416268 442.150057 640.416268 
z
" clip-path="url(#pda2ef01f33)" style="fill: #5087c5; stroke: #222222; stroke-width: 1.2; stroke-linejoin: miter"/>
   </g>
   <g id="patch_23">
    <path d="M 180.562307 235.578591 
C 187.135631 235.578591 193.440614 232.966982 198.088656 228.31894 
C 202.736698 223.670898 205.348307 217.365915 205.348307 210.792591 
C 205.348307 204.219267 202.736698 197.914285 198.088656 193.266243 
C 193.440614 188.618201 187.135631 186.006591 180.562307 186.006591 
C 173.988983 186.006591 167.684 188.618201 163.035958 193.266243 
C 158.387916 197.914285 155.776307 204.219267 155.776307 210.792591 
C 155.776307 217.365915 158.387916 223.670898 163.035958 228.31894 
C 167.684 232.966982 173.988983 235.578591 180.562307 235.578591 
z
" clip-path="url(#pda2ef01f33)" style="fill: #f5a623; stroke: #222222; stroke-width: 1.2; stroke-linejoin: miter"/>
   </g>
   <g id="patch_24">
    <path d="M 118.515185 350.712049 
C 125.088509 350.712049 131.393492 348.10044 136.041534 343.452398 
C 140.689576 338.804356 143.301185 332.499373 143.301185 325.926049 
C 143.301185 319.352725 140.689576 313.047742 136.041534 308.3997 
C 131.393492 303.751658 125.088509 301.140049 118.515185 301.140049 
C 111.941861 301.140049 105.636879 303.751658 100.988837 308.3997 
C 96.340795 313.047742 93.729185 319.352725 93.729185 325.926049 
C 93.729185 332.499373 96.340795 338.804356 100.988837 343.452398 
C 105.636879 348.10044 111.941861 350.712049 118.515185 350.712049 
z
" clip-path="url(#pda2ef01f33)" style="fill: #d9584c; stroke: #222222; stroke-width: 1.2; stroke-linejoin: miter"/>
   </g>
   <g id="text_12">
    <text style="font-weight: 700; font-size: 8.5px; font-family: 'Liberation Sans', 'Arimo', 'DejaVu Sans'; text-anchor: middle; fill: #222222" x="123.704931" y="458.807643" transform="rotate(-0 123.704931 458.807643)">V552</text>
   </g>
   <g id="text_13">
    <text style="font-weight: 700; font-size: 8.5px; font-family: 'Liberation Sans', 'Arimo', 'DejaVu Sans'; text-anchor: middle; fill: #222222" x="604.497073" y="424.670747" transform="rotate(-0 604.497073 424.670747)">V570</text>
   </g>
   <g id="text_14">
    <text style="font-weight: 700; font-size: 8.5px; font-family: 'Liberation Sans', 'Arimo', 'DejaVu Sans'; text-anchor: middle; fill: #222222" x="549.740305" y="543.457594" transform="rotate(-0 549.740305 543.457594)">A706</text>
   </g>
   <g id="text_15">
    <text style="font-weight: 700; font-size: 8.5px; font-family: 'Liberation Sans', 'Arimo', 'DejaVu Sans'; text-anchor: middle; fill: #222222" x="423.37161" y="144.357883" transform="rotate(-0 423.37161 144.357883)">F730</text>
   </g>
   <g id="text_16">
    <text style="font-weight: 700; font-size: 8.5px; font-family: 'Liberation Sans', 'Arimo', 'DejaVu Sans'; text-anchor: middle; fill: #ffffff" x="292.576389" y="145.466319" transform="rotate(-0 292.576389 145.466319)">R732</text>
   </g>
   <g id="text_17">
    <text style="font-weight: 700; font-size: 8.5px; font-family: 'Liberation Sans', 'Arimo', 'DejaVu Sans'; text-anchor: middle; fill: #222222" x="311.689783" y="627.086068" transform="rotate(-0 311.689783 627.086068)">Q850</text>
   </g>
   <g id="text_18">
    <text style="font-weight: 700; font-size: 8.5px; font-family: 'Liberation Sans', 'Arimo', 'DejaVu Sans'; text-anchor: middle; fill: #222222" x="194.683348" y="568.655055" transform="rotate(-0 194.683348 568.655055)">C727</text>
   </g>
   <g id="text_19">
    <text style="font-weight: 700; font-size: 8.5px; font-family: 'Liberation Sans', 'Arimo', 'DejaVu Sans'; text-anchor: middle; fill: #ffffff" x="442.150057" y="617.829975" transform="rotate(-0 442.150057 617.829975)">R857</text>
   </g>
   <g id="text_20">
    <text style="font-weight: 700; font-size: 8.5px; font-family: 'Liberation Sans', 'Arimo', 'DejaVu Sans'; text-anchor: middle; fill: #222222" x="180.562307" y="212.992298" transform="rotate(-0 180.562307 212.992298)">Y849</text>
   </g>
   <g id="text_21">
    <text style="font-weight: 700; font-size: 8.5px; font-family: 'Liberation Sans', 'Arimo', 'DejaVu Sans'; text-anchor: middle; fill: #ffffff" x="118.515185" y="328.125756" transform="rotate(-0 118.515185 328.125756)">E846</text>
   </g>
  </g>
  <g id="patch_25">
   <path d="M 104.240391 714.42 
Q 109.43969 714.42 112.514724 714.42 
" style="fill: none; stroke: #0279ee; stroke-width: 1.9; stroke-linecap: round"/>
   <path d="M 107.714724 712.02 
L 112.514724 714.42 
L 107.714724 716.82 
" style="fill: none; stroke: #0279ee; stroke-width: 1.9; stroke-linecap: round"/>
  </g>
  <g id="patch_26">
   <path d="M 92.16 743.148 
C 93.68757 743.148 95.15278 742.510745 96.232935 741.376582 
C 97.31309 740.242419 97.92 738.703948 97.92 737.1 
C 97.92 735.496052 97.31309 733.957581 96.232935 732.823418 
C 95.15278 731.689255 93.68757 731.052 92.16 731.052 
C 90.63243 731.052 89.16722 731.689255 88.087065 732.823418 
C 87.00691 733.957581 86.4 735.496052 86.4 737.1 
C 86.4 738.703948 87.00691 740.242419 88.087065 741.376582 
C 89.16722 742.510745 90.63243 743.148 92.16 743.148 
z
" style="fill: #5087c5; stroke: #222222; stroke-width: 0.8; stroke-linejoin: miter"/>
  </g>
  <g id="patch_27">
   <path d="M 218.88 743.148 
C 220.40757 743.148 221.87278 742.510745 222.952935 741.376582 
C 224.03309 740.242419 224.64 738.703948 224.64 737.1 
C 224.64 735.496052 224.03309 733.957581 222.952935 732.823418 
C 221.87278 731.689255 220.40757 731.052 218.88 731.052 
C 217.35243 731.052 215.88722 731.689255 214.807065 732.823418 
C 213.72691 733.957581 213.12 735.496052 213.12 737.1 
C 213.12 738.703948 213.72691 740.242419 214.807065 741.376582 
C 215.88722 742.510745 217.35243 743.148 218.88 743.148 
z
" style="fill: #d9584c; stroke: #222222; stroke-width: 0.8; stroke-linejoin: miter"/>
  </g>
  <g id="patch_28">
   <path d="M 345.6 743.148 
C 347.12757 743.148 348.59278 742.510745 349.672935 741.376582 
C 350.75309 740.242419 351.36 738.703948 351.36 737.1 
C 351.36 735.496052 350.75309 733.957581 349.672935 732.823418 
C 348.59278 731.689255 347.12757 731.052 345.6 731.052 
C 344.07243 731.052 342.60722 731.689255 341.527065 732.823418 
C 340.44691 733.957581 339.84 735.496052 339.84 737.1 
C 339.84 738.703948 340.44691 740.242419 341.527065 741.376582 
C 342.60722 742.510745 344.07243 743.148 345.6 743.148 
z
" style="fill: #f5a623; stroke: #222222; stroke-width: 0.8; stroke-linejoin: miter"/>
  </g>
  <g id="patch_29">
   <path d="M 472.32 743.148 
C 473.84757 743.148 475.31278 742.510745 476.392935 741.376582 
C 477.47309 740.242419 478.08 738.703948 478.08 737.1 
C 478.08 735.496052 477.47309 733.957581 476.392935 732.823418 
C 475.31278 731.689255 473.84757 731.052 472.32 731.052 
C 470.79243 731.052 469.32722 731.689255 468.247065 732.823418 
C 467.16691 733.957581 466.56 735.496052 466.56 737.1 
C 466.56 738.703948 467.16691 740.242419 468.247065 741.376582 
C 469.32722 742.510745 470.79243 743.148 472.32 743.148 
z
" style="fill: #8bc34a; stroke: #222222; stroke-width: 0.8; stroke-linejoin: miter"/>
  </g>
  <g id="patch_30">
   <path d="M 599.04 743.148 
C 600.56757 743.148 602.03278 742.510745 603.112935 741.376582 
C 604.19309 740.242419 604.8 738.703948 604.8 737.1 
C 604.8 735.496052 604.19309 733.957581 603.112935 732.823418 
C 602.03278 731.689255 600.56757 731.052 599.04 731.052 
C 597.51243 731.052 596.04722 731.689255 594.967065 732.823418 
C 593.88691 733.957581 593.28 735.496052 593.28 737.1 
C 593.28 738.703948 593.88691 740.242419 594.967065 741.376582 
C 596.04722 742.510745 597.51243 743.148 599.04 743.148 
z
" style="fill: #ffffff; stroke: #dc3912; stroke-width: 2.5; stroke-linejoin: miter"/>
  </g>
  <g id="line2d_44">
   <path d="M 260.64 714.42 
L 275.04 714.42 
" style="fill: none; stroke: #75a025; stroke-opacity: 0.4; stroke-width: 4; stroke-linecap: square"/>
  </g>
  <g id="line2d_45">
   <path d="M 419.04 710.64 
L 433.44 710.64 
" style="fill: none; stroke-dasharray: 7.2,5.4; stroke-dashoffset: 0; stroke: #ff9400; stroke-width: 1.8"/>
  </g>
  <g id="line2d_46">
   <path d="M 419.04 718.2 
L 433.44 718.2 
" style="fill: none; stroke-dasharray: 7.2,5.4; stroke-dashoffset: 0; stroke: #ff9400; stroke-width: 1.8"/>
  </g>
  <g id="line2d_47">
   <path d="M 577.44 714.42 
L 591.84 714.42 
" style="fill: none; stroke: #8b4513; stroke-width: 2.2; stroke-linecap: square"/>
  </g>
  <g id="text_22">
   <text style="font-weight: 700; font-size: 14px; font-family: 'Liberation Sans', 'Arimo', 'DejaVu Sans'; text-anchor: middle" x="360" y="21.532383" transform="rotate(-0 360 21.532383)">L528S × 9MJT · VVD-214_cov — NEUTRAL</text>
  </g>
  <g id="text_23">
   <text style="font-size: 10.5px; font-family: 'Liberation Sans', 'Arimo', 'DejaVu Sans'; text-anchor: middle" x="360" y="41.66925" transform="rotate(-0 360 41.66925)">ΔS = -0.05  |  RMSD vs WT = 0.12 Å  |  0 lost / 7 retained / 3 gained</text>
  </g>
  <g id="text_24">
   <text style="font-size: 10.5px; font-family: 'Liberation Sans', 'Arimo', 'DejaVu Sans'; text-anchor: middle" x="360" y="61.320287" transform="rotate(-0 360 61.320287)">PLIP: 6 hydrophobic · 2 H-bond · 1 π-stack · 1 halogen</text>
  </g>
  <g id="text_25">
   <text style="font-size: 8.5px; font-family: 'Liberation Sans', 'Arimo', 'DejaVu Sans'; text-anchor: start" x="120.24" y="716.619707" transform="rotate(-0 120.24 716.619707)">H-bond</text>
  </g>
  <g id="text_26">
   <text style="font-size: 8.5px; font-family: 'Liberation Sans', 'Arimo', 'DejaVu Sans'; text-anchor: start" x="278.64" y="716.619707" transform="rotate(-0 278.64 716.619707)">Hydrophobic</text>
  </g>
  <g id="text_27">
   <text style="font-size: 8.5px; font-family: 'Liberation Sans', 'Arimo', 'DejaVu Sans'; text-anchor: start" x="437.04" y="716.619707" transform="rotate(-0 437.04 716.619707)">π-stack</text>
  </g>
  <g id="text_28">
   <text style="font-size: 8.5px; font-family: 'Liberation Sans', 'Arimo', 'DejaVu Sans'; text-anchor: start" x="595.44" y="716.619707" transform="rotate(-0 595.44 716.619707)">Halogen</text>
  </g>
  <g id="text_29">
   <text style="font-size: 8px; font-family: 'Liberation Sans', 'Arimo', 'DejaVu Sans'; text-anchor: start" x="100.8" y="739.170313" transform="rotate(-0 100.8 739.170313)">Basic</text>
  </g>
  <g id="text_30">
   <text style="font-size: 8px; font-family: 'Liberation Sans', 'Arimo', 'DejaVu Sans'; text-anchor: start" x="227.52" y="739.170313" transform="rotate(-0 227.52 739.170313)">Acidic</text>
  </g>
  <g id="text_31">
   <text style="font-size: 8px; font-family: 'Liberation Sans', 'Arimo', 'DejaVu Sans'; text-anchor: start" x="354.24" y="739.170313" transform="rotate(-0 354.24 739.170313)">Polar</text>
  </g>
  <g id="text_32">
   <text style="font-size: 8px; font-family: 'Liberation Sans', 'Arimo', 'DejaVu Sans'; text-anchor: start" x="480.96" y="739.170313" transform="rotate(-0 480.96 739.170313)">Hydrophobic</text>
  </g>
  <g id="text_33">
   <text style="font-size: 8px; font-family: 'Liberation Sans', 'Arimo', 'DejaVu Sans'; text-anchor: start" x="607.68" y="739.170313" transform="rotate(-0 607.68 739.170313)">Mutation site</text>
  </g>
 </g>
 <defs>
  <clipPath id="pda2ef01f33">
   <rect x="53.82" y="75.6" width="612.36" height="612.36"/>
  </clipPath>
 </defs>
</svg>
