<?xml version="1.0" encoding="utf-8" standalone="no"?>
<!DOCTYPE svg PUBLIC "-//W3C//DTD SVG 1.1//EN"
  "http://www.w3.org/Graphics/SVG/1.1/DTD/svg11.dtd">
<svg xmlns:xlink="http://www.w3.org/1999/xlink" width="720pt" height="756pt" viewBox="0 0 720 756" xmlns="http://www.w3.org/2000/svg" version="1.1">
 <metadata>
  <rdf:RDF xmlns:dc="http://purl.org/dc/elements/1.1/" xmlns:cc="http://creativecommons.org/ns#" xmlns:rdf="http://www.w3.org/1999/02/22-rdf-syntax-ns#">
   <cc:Work>
    <dc:type rdf:resource="http://purl.org/dc/dcmitype/StillImage"/>
    <dc:date>2022-01-01T05:00:00+00:00</dc:date>
    <dc:format>image/svg+xml</dc:format>
    <dc:creator>
     <cc:Agent>
      <dc:title>Matplotlib v3.11.0, https://matplotlib.org/</dc:title>
     </cc:Agent>
    </dc:creator>
   </cc:Work>
  </rdf:RDF>
 </metadata>
 <defs>
  <style type="text/css">*{stroke-linejoin: round; stroke-linecap: butt}</style>
 </defs>
 <g id="figure_1">
  <g id="patch_1">
   <path d="M 0 756 
L 720 756 
L 720 0 
L 0 0 
z
" style="fill: #ffffff"/>
  </g>
  <g id="axes_1">
   <g id="line2d_1">
    <path d="M 194.476567 159.732849 
L 197.552805 166.563466 
L 200.697536 173.349557 
L 203.910761 180.091123 
L 207.192481 186.788163 
L 210.542694 193.440677 
L 213.961401 200.048665 
L 217.448601 206.612127 
L 221.004296 213.131064 
L 224.628485 219.605475 
L 228.321167 226.035359 
L 232.082343 232.420719 
L 235.912013 238.761552 
L 239.810177 245.057859 
L 243.776835 251.309641 
L 247.811987 257.516897 
L 251.915632 263.679627 
L 256.087771 269.797831 
L 260.328405 275.87151 
L 264.637532 281.900662 
L 269.015153 287.885289 
L 273.461267 293.82539 
L 277.975876 299.720965 
L 282.558979 305.572015 
L 287.210575 311.378538 
L 291.930665 317.140536 
L 296.719249 322.858008 
L 301.576327 328.530954 
L 306.501899 334.159374 
L 311.495965 339.743269 
" clip-path="url(#p6b3173974f)" style="fill: none; stroke: #75a025; stroke-opacity: 0.4; stroke-width: 4; stroke-linecap: round"/>
   </g>
   <g id="line2d_2">
    <path d="M 83.676819 367.980062 
L 88.688625 369.811849 
L 93.711829 371.586572 
L 98.746431 373.304232 
L 103.79243 374.964829 
L 108.849827 376.568362 
L 113.918621 378.114832 
L 118.998813 379.604238 
L 124.090402 381.036581 
L 129.193388 382.411861 
L 134.307773 383.730077 
L 139.433554 384.99123 
L 144.570734 386.195319 
L 149.71931 387.342345 
L 154.879284 388.432307 
L 160.050656 389.465206 
L 165.233425 390.441042 
L 170.427592 391.359814 
L 175.633156 392.221523 
L 180.850118 393.026169 
L 186.078477 393.773751 
L 191.318234 394.464269 
L 196.569388 395.097724 
L 201.83194 395.674116 
L 207.105889 396.193444 
L 212.391236 396.655709 
L 217.687981 397.060911 
L 222.996122 397.409049 
L 228.315662 397.700124 
L 233.646598 397.934135 
" clip-path="url(#p6b3173974f)" style="fill: none; stroke: #75a025; stroke-opacity: 0.4; stroke-width: 4; stroke-linecap: round"/>
   </g>
   <g id="line2d_3">
    <path d="M 192.778738 597.922052 
L 192.923363 590.595841 
L 193.146705 583.283386 
L 193.448762 575.984688 
L 193.829535 568.699745 
L 194.289025 561.428558 
L 194.82723 554.171128 
L 195.444151 546.927453 
L 196.139787 539.697535 
L 196.91414 532.481373 
L 197.767208 525.278967 
L 198.698993 518.090317 
L 199.709493 510.915423 
L 200.798709 503.754285 
L 201.966641 496.606904 
L 203.213289 489.473278 
L 204.538653 482.353409 
L 205.942732 475.247296 
L 207.425528 468.154938 
L 208.987039 461.076337 
L 210.627266 454.011492 
L 212.346209 446.960404 
L 214.143868 439.923071 
L 216.020243 432.899494 
L 217.975333 425.889674 
L 220.00914 418.89361 
L 222.121662 411.911301 
L 224.312901 404.942749 
L 226.582855 397.987953 
L 228.931525 391.046913 
" clip-path="url(#p6b3173974f)" style="fill: none; stroke: #75a025; stroke-opacity: 0.4; stroke-width: 4; stroke-linecap: round"/>
   </g>
   <g id="line2d_4">
    <path d="M 139.389277 384.413416 
L 242.119707 425.032096 
" clip-path="url(#p6b3173974f)" style="fill: none; stroke: #8b4513; stroke-width: 2.2; stroke-linecap: square"/>
   </g>
   <g id="patch_2">
    <path d="M 215.616346 543.634565 
Q 251.280695 492.467644 285.992011 442.668022 
" clip-path="url(#p6b3173974f)" style="fill: none; stroke: #0279ee; stroke-width: 2; stroke-linecap: round"/>
    <path d="M 276.495176 445.800132 
L 285.992011 442.668022 
L 286.339723 452.661975 
" clip-path="url(#p6b3173974f)" style="fill: none; stroke: #0279ee; stroke-width: 2; stroke-linecap: round"/>
   </g>
   <g id="patch_3">
    <path d="M 418.698333 590.377494 
Q 399.72155 522.939302 381.196225 457.105467 
" clip-path="url(#p6b3173974f)" style="fill: none; stroke: #0279ee; stroke-width: 2; stroke-linecap: round"/>
    <path d="M 377.587538 466.431633 
L 381.196225 457.105467 
L 389.138912 463.181132 
" clip-path="url(#p6b3173974f)" style="fill: none; stroke: #0279ee; stroke-width: 2; stroke-linecap: round"/>
   </g>
   <g id="line2d_5">
    <path d="M 293.924478 431.287473 
L 283.603669 405.101578 
" clip-path="url(#p6b3173974f)" style="fill: none; stroke: #222222; stroke-width: 2; stroke-linecap: round"/>
   </g>
   <g id="line2d_6">
    <path d="M 321.762533 435.442337 
L 293.924478 431.287473 
" clip-path="url(#p6b3173974f)" style="fill: none; stroke: #222222; stroke-width: 2; stroke-linecap: round"/>
   </g>
   <g id="line2d_7">
    <path d="M 339.279778 413.411307 
L 321.762533 435.442337 
" clip-path="url(#p6b3173974f)" style="fill: none; stroke: #222222; stroke-width: 2; stroke-linecap: round"/>
   </g>
   <g id="line2d_8">
    <path d="M 328.958969 387.225412 
L 339.279778 413.411307 
" clip-path="url(#p6b3173974f)" style="fill: none; stroke: #222222; stroke-width: 2; stroke-linecap: round"/>
   </g>
   <g id="line2d_9">
    <path d="M 301.120915 383.070548 
L 283.603669 405.101578 
" clip-path="url(#p6b3173974f)" style="fill: none; stroke: #222222; stroke-width: 2; stroke-linecap: round"/>
   </g>
   <g id="line2d_10">
    <path d="M 301.120915 383.070548 
L 328.958969 387.225412 
" clip-path="url(#p6b3173974f)" style="fill: none; stroke: #222222; stroke-width: 2; stroke-linecap: round"/>
   </g>
   <g id="line2d_11">
    <path d="M 255.765614 400.946713 
L 227.92756 396.791848 
" clip-path="url(#p6b3173974f)" style="fill: none; stroke: #222222; stroke-width: 2; stroke-linecap: round"/>
   </g>
   <g id="line2d_12">
    <path d="M 255.765614 400.946713 
L 283.603669 405.101578 
" clip-path="url(#p6b3173974f)" style="fill: none; stroke: #222222; stroke-width: 2; stroke-linecap: round"/>
   </g>
   <g id="line2d_13">
    <path d="M 259.920479 373.108658 
L 255.765614 400.946713 
" clip-path="url(#p6b3173974f)" style="fill: none; stroke: #222222; stroke-width: 2; stroke-linecap: round"/>
   </g>
   <g id="line2d_14">
    <path d="M 251.61075 428.784768 
L 255.765614 400.946713 
" clip-path="url(#p6b3173974f)" style="fill: none; stroke: #222222; stroke-width: 2; stroke-linecap: round"/>
   </g>
   <g id="line2d_15">
    <path d="M 367.117833 417.566172 
L 339.279778 413.411307 
" clip-path="url(#p6b3173974f)" style="fill: none; stroke: #222222; stroke-width: 2; stroke-linecap: round"/>
   </g>
   <g id="line2d_16">
    <path d="M 377.438642 443.752067 
L 367.117833 417.566172 
" clip-path="url(#p6b3173974f)" style="fill: none; stroke: #222222; stroke-width: 2; stroke-linecap: round"/>
   </g>
   <g id="line2d_17">
    <path d="M 384.635079 395.535142 
L 367.117833 417.566172 
" clip-path="url(#p6b3173974f)" style="fill: none; stroke: #222222; stroke-width: 2; stroke-linecap: round"/>
   </g>
   <g id="line2d_18">
    <path d="M 412.473133 399.690006 
L 384.635079 395.535142 
" clip-path="url(#p6b3173974f)" style="fill: none; stroke: #222222; stroke-width: 2; stroke-linecap: round"/>
   </g>
   <g id="line2d_19">
    <path d="M 422.793942 425.875901 
L 412.473133 399.690006 
" clip-path="url(#p6b3173974f)" style="fill: none; stroke: #222222; stroke-width: 2; stroke-linecap: round"/>
   </g>
   <g id="line2d_20">
    <path d="M 418.639078 453.713956 
L 422.793942 425.875901 
" clip-path="url(#p6b3173974f)" style="fill: none; stroke: #222222; stroke-width: 2; stroke-linecap: round"/>
   </g>
   <g id="line2d_21">
    <path d="M 444.824973 443.393147 
L 418.639078 453.713956 
" clip-path="url(#p6b3173974f)" style="fill: none; stroke: #222222; stroke-width: 2; stroke-linecap: round"/>
   </g>
   <g id="line2d_22">
    <path d="M 444.824973 443.393147 
L 422.793942 425.875901 
" clip-path="url(#p6b3173974f)" style="fill: none; stroke: #222222; stroke-width: 2; stroke-linecap: round"/>
   </g>
   <g id="line2d_23">
    <path d="M 429.990379 377.658976 
L 412.473133 399.690006 
" clip-path="url(#p6b3173974f)" style="fill: none; stroke: #222222; stroke-width: 2; stroke-linecap: round"/>
   </g>
   <g id="line2d_24">
    <path d="M 457.828434 381.813841 
L 429.990379 377.658976 
" clip-path="url(#p6b3173974f)" style="fill: none; stroke: #222222; stroke-width: 2; stroke-linecap: round"/>
   </g>
   <g id="line2d_25">
    <path d="M 475.34568 359.782811 
L 457.828434 381.813841 
" clip-path="url(#p6b3173974f)" style="fill: none; stroke: #222222; stroke-width: 2; stroke-linecap: round"/>
   </g>
   <g id="line2d_26">
    <path d="M 492.862925 337.751781 
L 475.34568 359.782811 
" clip-path="url(#p6b3173974f)" style="fill: none; stroke: #222222; stroke-width: 2; stroke-linecap: round"/>
   </g>
   <g id="line2d_27">
    <path d="M 453.314649 342.265565 
L 475.34568 359.782811 
" clip-path="url(#p6b3173974f)" style="fill: none; stroke: #222222; stroke-width: 2; stroke-linecap: round"/>
   </g>
   <g id="line2d_28">
    <path d="M 497.37671 377.300057 
L 475.34568 359.782811 
" clip-path="url(#p6b3173974f)" style="fill: none; stroke: #222222; stroke-width: 2; stroke-linecap: round"/>
   </g>
   <g id="line2d_29">
    <path d="M 346.476215 365.194382 
L 328.958969 387.225412 
" clip-path="url(#p6b3173974f)" style="fill: none; stroke: #222222; stroke-width: 2; stroke-linecap: round"/>
   </g>
   <g id="line2d_30">
    <path d="M 336.155406 339.008487 
L 346.476215 365.194382 
" clip-path="url(#p6b3173974f)" style="fill: none; stroke: #222222; stroke-width: 2; stroke-linecap: round"/>
   </g>
   <g id="line2d_31">
    <path d="M 308.317352 334.853622 
L 336.155406 339.008487 
" clip-path="url(#p6b3173974f)" style="fill: none; stroke: #222222; stroke-width: 2; stroke-linecap: round"/>
   </g>
   <g id="line2d_32">
    <path d="M 297.996543 308.667728 
L 308.317352 334.853622 
" clip-path="url(#p6b3173974f)" style="fill: none; stroke: #222222; stroke-width: 2; stroke-linecap: round"/>
   </g>
   <g id="line2d_33">
    <path d="M 315.513788 286.636697 
L 297.996543 308.667728 
" clip-path="url(#p6b3173974f)" style="fill: none; stroke: #222222; stroke-width: 2; stroke-linecap: round"/>
   </g>
   <g id="line2d_34">
    <path d="M 343.351843 290.791562 
L 315.513788 286.636697 
" clip-path="url(#p6b3173974f)" style="fill: none; stroke: #222222; stroke-width: 2; stroke-linecap: round"/>
   </g>
   <g id="line2d_35">
    <path d="M 353.672652 316.977457 
L 343.351843 290.791562 
" clip-path="url(#p6b3173974f)" style="fill: none; stroke: #222222; stroke-width: 2; stroke-linecap: round"/>
   </g>
   <g id="line2d_36">
    <path d="M 353.672652 316.977457 
L 336.155406 339.008487 
" clip-path="url(#p6b3173974f)" style="fill: none; stroke: #222222; stroke-width: 2; stroke-linecap: round"/>
   </g>
   <g id="text_1">
    <g id="patch_4">
     <path d="M 289.351353 437.158332 
L 298.497603 437.158332 
L 298.497603 425.416613 
L 289.351353 425.416613 
z
" style="fill: #ffffff"/>
    </g>
    <text style="font-weight: 700; font-size: 12px; font-family: 'Liberation Sans', 'Arimo', 'DejaVu Sans'; text-anchor: middle; fill: #0879c0" x="293.924478" y="434.392941" transform="rotate(-0 293.924478 434.392941)">N</text>
   </g>
   <g id="text_2">
    <g id="patch_5">
     <path d="M 296.54779 388.941407 
L 305.69404 388.941407 
L 305.69404 377.199688 
L 296.54779 377.199688 
z
" style="fill: #ffffff"/>
    </g>
    <text style="font-weight: 700; font-size: 12px; font-family: 'Liberation Sans', 'Arimo', 'DejaVu Sans'; text-anchor: middle; fill: #0879c0" x="301.120915" y="386.176016" transform="rotate(-0 301.120915 386.176016)">N</text>
   </g>
   <g id="text_3">
    <g id="patch_6">
     <path d="M 256.015792 378.979518 
L 263.825167 378.979518 
L 263.825167 367.237799 
L 256.015792 367.237799 
z
" style="fill: #ffffff"/>
    </g>
    <text style="font-weight: 700; font-size: 12px; font-family: 'Liberation Sans', 'Arimo', 'DejaVu Sans'; text-anchor: middle; fill: #00a040" x="259.920479" y="376.214127" transform="rotate(-0 259.920479 376.214127)">F</text>
   </g>
   <g id="text_4">
    <g id="patch_7">
     <path d="M 247.706062 434.655627 
L 255.515437 434.655627 
L 255.515437 422.913908 
L 247.706062 422.913908 
z
" style="fill: #ffffff"/>
    </g>
    <text style="font-weight: 700; font-size: 12px; font-family: 'Liberation Sans', 'Arimo', 'DejaVu Sans'; text-anchor: middle; fill: #00a040" x="251.61075" y="431.890236" transform="rotate(-0 251.61075 431.890236)">F</text>
   </g>
   <g id="text_5">
    <g id="patch_8">
     <path d="M 372.531767 449.622926 
L 382.345517 449.622926 
L 382.345517 437.881207 
L 372.531767 437.881207 
z
" style="fill: #ffffff"/>
    </g>
    <text style="font-weight: 700; font-size: 12px; font-family: 'Liberation Sans', 'Arimo', 'DejaVu Sans'; text-anchor: middle; fill: #d40000" x="377.438642" y="446.857536" transform="rotate(-0 377.438642 446.857536)">O</text>
   </g>
   <g id="text_6">
    <g id="patch_9">
     <path d="M 380.061954 401.406001 
L 389.208204 401.406001 
L 389.208204 389.664282 
L 380.061954 389.664282 
z
" style="fill: #ffffff"/>
    </g>
    <text style="font-weight: 700; font-size: 12px; font-family: 'Liberation Sans', 'Arimo', 'DejaVu Sans'; text-anchor: middle; fill: #0879c0" x="384.635079" y="398.64061" transform="rotate(-0 384.635079 398.64061)">N</text>
   </g>
   <g id="text_7">
    <g id="patch_10">
     <path d="M 471.103492 365.65367 
L 479.587867 365.65367 
L 479.587867 353.911951 
L 471.103492 353.911951 
z
" style="fill: #ffffff"/>
    </g>
    <text style="font-weight: 700; font-size: 12px; font-family: 'Liberation Sans', 'Arimo', 'DejaVu Sans'; text-anchor: middle; fill: #b8860b" x="475.34568" y="362.88828" transform="rotate(-0 475.34568 362.88828)">S</text>
   </g>
   <g id="text_8">
    <g id="patch_11">
     <path d="M 448.407774 348.136424 
L 458.221524 348.136424 
L 458.221524 336.394706 
L 448.407774 336.394706 
z
" style="fill: #ffffff"/>
    </g>
    <text style="font-weight: 700; font-size: 12px; font-family: 'Liberation Sans', 'Arimo', 'DejaVu Sans'; text-anchor: middle; fill: #d40000" x="453.314649" y="345.371034" transform="rotate(-0 453.314649 345.371034)">O</text>
   </g>
   <g id="text_9">
    <g id="patch_12">
     <path d="M 492.469835 383.170916 
L 502.283585 383.170916 
L 502.283585 371.429197 
L 492.469835 371.429197 
z
" style="fill: #ffffff"/>
    </g>
    <text style="font-weight: 700; font-size: 12px; font-family: 'Liberation Sans', 'Arimo', 'DejaVu Sans'; text-anchor: middle; fill: #d40000" x="497.37671" y="380.405525" transform="rotate(-0 497.37671 380.405525)">O</text>
   </g>
   <g id="text_10">
    <g id="patch_13">
     <path d="M 341.56934 371.065241 
L 351.38309 371.065241 
L 351.38309 359.323523 
L 341.56934 359.323523 
z
" style="fill: #ffffff"/>
    </g>
    <text style="font-weight: 700; font-size: 12px; font-family: 'Liberation Sans', 'Arimo', 'DejaVu Sans'; text-anchor: middle; fill: #d40000" x="346.476215" y="368.299851" transform="rotate(-0 346.476215 368.299851)">O</text>
   </g>
   <g id="patch_14">
    <path d="M 210.369633 211.883081 
C 217.716289 211.883081 224.763034 208.964224 229.957905 203.769353 
C 235.152775 198.574483 238.071633 191.527737 238.071633 184.181081 
C 238.071633 176.834425 235.152775 169.787679 229.957905 164.592809 
C 224.763034 159.397939 217.716289 156.479081 210.369633 156.479081 
C 203.022976 156.479081 195.976231 159.397939 190.781361 164.592809 
C 185.58649 169.787679 182.667633 176.834425 182.667633 184.181081 
C 182.667633 191.527737 185.58649 198.574483 190.781361 203.769353 
C 195.976231 208.964224 203.022976 211.883081 210.369633 211.883081 
z
" clip-path="url(#p6b3173974f)" style="fill: #8bc34a; stroke: #222222; stroke-width: 1.2; stroke-linejoin: miter"/>
   </g>
   <g id="patch_15">
    <path d="M 112.272013 401.393496 
C 119.618669 401.393496 126.665414 398.474639 131.860285 393.279768 
C 137.055155 388.084898 139.974013 381.038152 139.974013 373.691496 
C 139.974013 366.34484 137.055155 359.298095 131.860285 354.103224 
C 126.665414 348.908354 119.618669 345.989496 112.272013 345.989496 
C 104.925356 345.989496 97.878611 348.908354 92.683741 354.103224 
C 87.48887 359.298095 84.570013 366.34484 84.570013 373.691496 
C 84.570013 381.038152 87.48887 388.084898 92.683741 393.279768 
C 97.878611 398.474639 104.925356 401.393496 112.272013 401.393496 
z
" clip-path="url(#p6b3173974f)" style="fill: #d9584c; stroke: #222222; stroke-width: 1.2; stroke-linejoin: miter"/>
   </g>
   <g id="patch_16">
    <path d="M 197.798563 596.899377 
C 205.145219 596.899377 212.191964 593.98052 217.386835 588.78565 
C 222.581705 583.590779 225.500563 576.544034 225.500563 569.197377 
C 225.500563 561.850721 222.581705 554.803976 217.386835 549.609105 
C 212.191964 544.414235 205.145219 541.495377 197.798563 541.495377 
C 190.451907 541.495377 183.405161 544.414235 178.210291 549.609105 
C 173.01542 554.803976 170.096563 561.850721 170.096563 569.197377 
C 170.096563 576.544034 173.01542 583.590779 178.210291 588.78565 
C 183.405161 593.98052 190.451907 596.899377 197.798563 596.899377 
z
" clip-path="url(#p6b3173974f)" style="fill: #f5a623; stroke: #222222; stroke-width: 1.2; stroke-linejoin: miter"/>
   </g>
   <g id="patch_17">
    <path d="M 427.139102 648.075631 
C 434.485758 648.075631 441.532503 645.156773 446.727374 639.961903 
C 451.922244 634.767032 454.841102 627.720287 454.841102 620.373631 
C 454.841102 613.026974 451.922244 605.980229 446.727374 600.785359 
C 441.532503 595.590488 434.485758 592.671631 427.139102 592.671631 
C 419.792445 592.671631 412.7457 595.590488 407.55083 600.785359 
C 402.355959 605.980229 399.437102 613.026974 399.437102 620.373631 
C 399.437102 627.720287 402.355959 634.767032 407.55083 639.961903 
C 412.7457 645.156773 419.792445 648.075631 427.139102 648.075631 
z
" clip-path="url(#p6b3173974f)" style="fill: #f5a623; stroke: #222222; stroke-width: 1.2; stroke-linejoin: miter"/>
   </g>
   <g id="text_11">
    <text style="font-weight: 700; font-size: 9.5px; font-family: 'Liberation Sans', 'Arimo', 'DejaVu Sans'; text-anchor: middle; fill: #222222" x="210.369633" y="186.639577" transform="rotate(-0 210.369633 186.639577)">L87</text>
   </g>
   <g id="text_12">
    <text style="font-weight: 700; font-size: 9.5px; font-family: 'Liberation Sans', 'Arimo', 'DejaVu Sans'; text-anchor: middle; fill: #ffffff" x="112.272013" y="376.149992" transform="rotate(-0 112.272013 376.149992)">D90</text>
   </g>
   <g id="text_13">
    <text style="font-weight: 700; font-size: 9.5px; font-family: 'Liberation Sans', 'Arimo', 'DejaVu Sans'; text-anchor: middle; fill: #222222" x="197.798563" y="571.655874" transform="rotate(-0 197.798563 571.655874)">N315</text>
   </g>
   <g id="text_14">
    <text style="font-weight: 700; font-size: 9.5px; font-family: 'Liberation Sans', 'Arimo', 'DejaVu Sans'; text-anchor: middle; fill: #222222" x="427.139102" y="622.832127" transform="rotate(-0 427.139102 622.832127)">S64</text>
   </g>
  </g>
  <g id="patch_18">
   <path d="M 130.640391 714.42 
Q 135.83969 714.42 138.914724 714.42 
" style="fill: none; stroke: #0279ee; stroke-width: 1.9; stroke-linecap: round"/>
   <path d="M 134.114724 712.02 
L 138.914724 714.42 
L 134.114724 716.82 
" style="fill: none; stroke: #0279ee; stroke-width: 1.9; stroke-linecap: round"/>
  </g>
  <g id="patch_19">
   <path d="M 92.16 743.148 
C 93.68757 743.148 95.15278 742.510745 96.232935 741.376582 
C 97.31309 740.242419 97.92 738.703948 97.92 737.1 
C 97.92 735.496052 97.31309 733.957581 96.232935 732.823418 
C 95.15278 731.689255 93.68757 731.052 92.16 731.052 
C 90.63243 731.052 89.16722 731.689255 88.087065 732.823418 
C 87.00691 733.957581 86.4 735.496052 86.4 737.1 
C 86.4 738.703948 87.00691 740.242419 88.087065 741.376582 
C 89.16722 742.510745 90.63243 743.148 92.16 743.148 
z
" style="fill: #5087c5; stroke: #222222; stroke-width: 0.8; stroke-linejoin: miter"/>
  </g>
  <g id="patch_20">
   <path d="M 218.88 743.148 
C 220.40757 743.148 221.87278 742.510745 222.952935 741.376582 
C 224.03309 740.242419 224.64 738.703948 224.64 737.1 
C 224.64 735.496052 224.03309 733.957581 222.952935 732.823418 
C 221.87278 731.689255 220.40757 731.052 218.88 731.052 
C 217.35243 731.052 215.88722 731.689255 214.807065 732.823418 
C 213.72691 733.957581 213.12 735.496052 213.12 737.1 
C 213.12 738.703948 213.72691 740.242419 214.807065 741.376582 
C 215.88722 742.510745 217.35243 743.148 218.88 743.148 
z
" style="fill: #d9584c; stroke: #222222; stroke-width: 0.8; stroke-linejoin: miter"/>
  </g>
  <g id="patch_21">
   <path d="M 345.6 743.148 
C 347.12757 743.148 348.59278 742.510745 349.672935 741.376582 
C 350.75309 740.242419 351.36 738.703948 351.36 737.1 
C 351.36 735.496052 350.75309 733.957581 349.672935 732.823418 
C 348.59278 731.689255 347.12757 731.052 345.6 731.052 
C 344.07243 731.052 342.60722 731.689255 341.527065 732.823418 
C 340.44691 733.957581 339.84 735.496052 339.84 737.1 
C 339.84 738.703948 340.44691 740.242419 341.527065 741.376582 
C 342.60722 742.510745 344.07243 743.148 345.6 743.148 
z
" style="fill: #f5a623; stroke: #222222; stroke-width: 0.8; stroke-linejoin: miter"/>
  </g>
  <g id="patch_22">
   <path d="M 472.32 743.148 
C 473.84757 743.148 475.31278 742.510745 476.392935 741.376582 
C 477.47309 740.242419 478.08 738.703948 478.08 737.1 
C 478.08 735.496052 477.47309 733.957581 476.392935 732.823418 
C 475.31278 731.689255 473.84757 731.052 472.32 731.052 
C 470.79243 731.052 469.32722 731.689255 468.247065 732.823418 
C 467.16691 733.957581 466.56 735.496052 466.56 737.1 
C 466.56 738.703948 467.16691 740.242419 468.247065 741.376582 
C 469.32722 742.510745 470.79243 743.148 472.32 743.148 
z
" style="fill: #8bc34a; stroke: #222222; stroke-width: 0.8; stroke-linejoin: miter"/>
  </g>
  <g id="patch_23">
   <path d="M 599.04 743.148 
C 600.56757 743.148 602.03278 742.510745 603.112935 741.376582 
C 604.19309 740.242419 604.8 738.703948 604.8 737.1 
C 604.8 735.496052 604.19309 733.957581 603.112935 732.823418 
C 602.03278 731.689255 600.56757 731.052 599.04 731.052 
C 597.51243 731.052 596.04722 731.689255 594.967065 732.823418 
C 593.88691 733.957581 593.28 735.496052 593.28 737.1 
C 593.28 738.703948 593.88691 740.242419 594.967065 741.376582 
C 596.04722 742.510745 597.51243 743.148 599.04 743.148 
z
" style="fill: #ffffff; stroke: #dc3912; stroke-width: 2.5; stroke-linejoin: miter"/>
  </g>
  <g id="line2d_37">
   <path d="M 339.84 714.42 
L 354.24 714.42 
" style="fill: none; stroke: #75a025; stroke-opacity: 0.4; stroke-width: 4; stroke-linecap: square"/>
  </g>
  <g id="line2d_38">
   <path d="M 551.04 714.42 
L 565.44 714.42 
" style="fill: none; stroke: #8b4513; stroke-width: 2.2; stroke-linecap: square"/>
  </g>
  <g id="text_15">
   <text style="font-weight: 700; font-size: 14px; font-family: 'Liberation Sans', 'Arimo', 'DejaVu Sans'; text-anchor: middle" x="360" y="21.532383" transform="rotate(-0 360 21.532383)">NEG × 9S19 · WT_VVD-214 — NEG. CONTROL</text>
  </g>
  <g id="text_16">
   <text style="font-size: 10.5px; font-family: 'Liberation Sans', 'Arimo', 'DejaVu Sans'; text-anchor: middle" x="360" y="40.152287" transform="rotate(-0 360 40.152287)">(no comparative metrics — WT reference)</text>
  </g>
  <g id="text_17">
   <text style="font-size: 10.5px; font-family: 'Liberation Sans', 'Arimo', 'DejaVu Sans'; text-anchor: middle" x="360" y="61.320287" transform="rotate(-0 360 61.320287)">PLIP: 3 hydrophobic · 2 H-bond · 1 halogen</text>
  </g>
  <g id="text_18">
   <text style="font-size: 8.5px; font-family: 'Liberation Sans', 'Arimo', 'DejaVu Sans'; text-anchor: start" x="146.64" y="716.619707" transform="rotate(-0 146.64 716.619707)">H-bond</text>
  </g>
  <g id="text_19">
   <text style="font-size: 8.5px; font-family: 'Liberation Sans', 'Arimo', 'DejaVu Sans'; text-anchor: start" x="357.84" y="716.619707" transform="rotate(-0 357.84 716.619707)">Hydrophobic</text>
  </g>
  <g id="text_20">
   <text style="font-size: 8.5px; font-family: 'Liberation Sans', 'Arimo', 'DejaVu Sans'; text-anchor: start" x="569.04" y="716.619707" transform="rotate(-0 569.04 716.619707)">Halogen</text>
  </g>
  <g id="text_21">
   <text style="font-size: 8px; font-family: 'Liberation Sans', 'Arimo', 'DejaVu Sans'; text-anchor: start" x="100.8" y="739.170313" transform="rotate(-0 100.8 739.170313)">Basic</text>
  </g>
  <g id="text_22">
   <text style="font-size: 8px; font-family: 'Liberation Sans', 'Arimo', 'DejaVu Sans'; text-anchor: start" x="227.52" y="739.170313" transform="rotate(-0 227.52 739.170313)">Acidic</text>
  </g>
  <g id="text_23">
   <text style="font-size: 8px; font-family: 'Liberation Sans', 'Arimo', 'DejaVu Sans'; text-anchor: start" x="354.24" y="739.170313" transform="rotate(-0 354.24 739.170313)">Polar</text>
  </g>
  <g id="text_24">
   <text style="font-size: 8px; font-family: 'Liberation Sans', 'Arimo', 'DejaVu Sans'; text-anchor: start" x="480.96" y="739.170313" transform="rotate(-0 480.96 739.170313)">Hydrophobic</text>
  </g>
  <g id="text_25">
   <text style="font-size: 8px; font-family: 'Liberation Sans', 'Arimo', 'DejaVu Sans'; text-anchor: start" x="607.68" y="739.170313" transform="rotate(-0 607.68 739.170313)">Mutation site</text>
  </g>
 </g>
 <defs>
  <clipPath id="p6b3173974f">
   <rect x="53.82" y="75.6" width="612.36" height="612.36"/>
  </clipPath>
 </defs>
</svg>
