<?xml version="1.0" encoding="utf-8" standalone="no"?>
<!DOCTYPE svg PUBLIC "-//W3C//DTD SVG 1.1//EN"
  "http://www.w3.org/Graphics/SVG/1.1/DTD/svg11.dtd">
<svg xmlns:xlink="http://www.w3.org/1999/xlink" width="720pt" height="756pt" viewBox="0 0 720 756" xmlns="http://www.w3.org/2000/svg" version="1.1">
 <metadata>
  <rdf:RDF xmlns:dc="http://purl.org/dc/elements/1.1/" xmlns:cc="http://creativecommons.org/ns#" xmlns:rdf="http://www.w3.org/1999/02/22-rdf-syntax-ns#">
   <cc:Work>
    <dc:type rdf:resource="http://purl.org/dc/dcmitype/StillImage"/>
    <dc:date>2022-01-01T05:00:00+00:00</dc:date>
    <dc:format>image/svg+xml</dc:format>
    <dc:creator>
     <cc:Agent>
      <dc:title>Matplotlib v3.11.0, https://matplotlib.org/</dc:title>
     </cc:Agent>
    </dc:creator>
   </cc:Work>
  </rdf:RDF>
 </metadata>
 <defs>
  <style type="text/css">*{stroke-linejoin: round; stroke-linecap: butt}</style>
 </defs>
 <g id="figure_1">
  <g id="patch_1">
   <path d="M 0 756 
L 720 756 
L 720 0 
L 0 0 
z
" style="fill: #ffffff"/>
  </g>
  <g id="axes_1">
   <g id="line2d_1">
    <path d="M 259.584587 639.910519 
L 262.989752 634.683335 
L 266.332914 629.428155 
L 269.614071 624.144979 
L 272.833225 618.833807 
L 275.990374 613.49464 
L 279.085519 608.127477 
L 282.118659 602.732319 
L 285.089796 597.309165 
L 287.998929 591.858015 
L 290.846057 586.37887 
L 293.631181 580.871729 
L 296.354302 575.336592 
L 299.015418 569.773459 
L 301.61453 564.182331 
L 304.151638 558.563207 
L 306.626741 552.916088 
L 309.039841 547.240973 
L 311.390936 541.537862 
L 313.680028 535.806755 
L 315.907115 530.047653 
L 318.072198 524.260555 
L 320.175277 518.445462 
L 322.216352 512.602372 
L 324.195422 506.731287 
L 326.112489 500.832207 
L 327.967552 494.905131 
L 329.76061 488.950059 
L 331.491664 482.966991 
L 333.160714 476.955928 
" clip-path="url(#p3e1b5d36a6)" style="fill: none; stroke: #75a025; stroke-opacity: 0.4; stroke-width: 4; stroke-linecap: round"/>
   </g>
   <g id="line2d_2">
    <path d="M 636.403999 367.073572 
L 631.478875 365.984001 
L 626.550208 364.949324 
L 621.617998 363.96954 
L 616.682246 363.04465 
L 611.74295 362.174653 
L 606.800113 361.35955 
L 601.853732 360.59934 
L 596.903808 359.894024 
L 591.950342 359.243601 
L 586.993333 358.648072 
L 582.032782 358.107436 
L 577.068687 357.621694 
L 572.10105 357.190845 
L 567.12987 356.81489 
L 562.155147 356.493828 
L 557.176882 356.22766 
L 552.195074 356.016385 
L 547.209723 355.860004 
L 542.220829 355.758516 
L 537.228392 355.711922 
L 532.232413 355.720221 
L 527.232891 355.783414 
L 522.229826 355.9015 
L 517.223219 356.074479 
L 512.213069 356.302353 
L 507.199376 356.585119 
L 502.18214 356.922779 
L 497.161362 357.315333 
L 492.13704 357.76278 
" clip-path="url(#p3e1b5d36a6)" style="fill: none; stroke: #75a025; stroke-opacity: 0.4; stroke-width: 4; stroke-linecap: round"/>
   </g>
   <g id="line2d_3">
    <path d="M 119.089051 516.581347 
L 125.86171 515.809668 
L 132.614776 514.966283 
L 139.348249 514.051192 
L 146.062131 513.064395 
L 152.75642 512.005892 
L 159.431116 510.875683 
L 166.08622 509.673767 
L 172.721732 508.400146 
L 179.337651 507.054818 
L 185.933978 505.637785 
L 192.510712 504.149045 
L 199.067854 502.588599 
L 205.605403 500.956447 
L 212.12336 499.252589 
L 218.621725 497.477025 
L 225.100497 495.629755 
L 231.559676 493.710779 
L 237.999264 491.720096 
L 244.419259 489.657708 
L 250.819661 487.523613 
L 257.200471 485.317812 
L 263.561688 483.040306 
L 269.903314 480.691093 
L 276.225346 478.270174 
L 282.527786 475.777549 
L 288.810634 473.213218 
L 295.07389 470.57718 
L 301.317553 467.869437 
L 307.541623 465.089988 
" clip-path="url(#p3e1b5d36a6)" style="fill: none; stroke: #75a025; stroke-opacity: 0.4; stroke-width: 4; stroke-linecap: round"/>
   </g>
   <g id="line2d_4">
    <path d="M 123.848697 237.912274 
L 130.474395 239.387582 
L 137.073162 240.93184 
L 143.644998 242.54505 
L 150.189902 244.22721 
L 156.707876 245.978321 
L 163.198919 247.798382 
L 169.663032 249.687395 
L 176.100213 251.645358 
L 182.510463 253.672272 
L 188.893782 255.768136 
L 195.25017 257.932952 
L 201.579627 260.166718 
L 207.882154 262.469435 
L 214.157749 264.841103 
L 220.406413 267.281722 
L 226.628147 269.791291 
L 232.822949 272.369811 
L 238.990821 275.017282 
L 245.131761 277.733704 
L 251.245771 280.519077 
L 257.332849 283.3734 
L 263.392997 286.296674 
L 269.426213 289.288899 
L 275.432499 292.350074 
L 281.411854 295.480201 
L 287.364277 298.679278 
L 293.28977 301.947306 
L 299.188332 305.284285 
L 305.059963 308.690214 
" clip-path="url(#p3e1b5d36a6)" style="fill: none; stroke: #75a025; stroke-opacity: 0.4; stroke-width: 4; stroke-linecap: round"/>
   </g>
   <g id="line2d_5">
    <path d="M 271.953564 119.301571 
L 272.450416 126.509642 
L 273.024123 133.700358 
L 273.674687 140.873719 
L 274.402107 148.029724 
L 275.206383 155.168374 
L 276.087516 162.289668 
L 277.045504 169.393606 
L 278.080349 176.48019 
L 279.19205 183.549417 
L 280.380607 190.60129 
L 281.646021 197.635807 
L 282.988291 204.652968 
L 284.407417 211.652774 
L 285.903399 218.635224 
L 287.476237 225.600319 
L 289.125932 232.548059 
L 290.852483 239.478443 
L 292.65589 246.391472 
L 294.536153 253.287145 
L 296.493273 260.165463 
L 298.527248 267.026425 
L 300.63808 273.870032 
L 302.825768 280.696283 
L 305.090313 287.505179 
L 307.431713 294.296719 
L 309.84997 301.070904 
L 312.345083 307.827734 
L 314.917052 314.567208 
L 317.565878 321.289327 
" clip-path="url(#p3e1b5d36a6)" style="fill: none; stroke: #75a025; stroke-opacity: 0.4; stroke-width: 4; stroke-linecap: round"/>
   </g>
   <g id="line2d_6">
    <path d="M 272.503531 119.182943 
L 272.893387 127.04815 
L 273.367359 134.89606 
L 273.925448 142.726673 
L 274.567654 150.53999 
L 275.293976 158.336011 
L 276.104414 166.114735 
L 276.998969 173.876163 
L 277.97764 181.620295 
L 279.040428 189.34713 
L 280.187332 197.056668 
L 281.418353 204.748911 
L 282.733491 212.423857 
L 284.132744 220.081506 
L 285.616115 227.721859 
L 287.183602 235.344916 
L 288.835205 242.950676 
L 290.570925 250.53914 
L 292.390761 258.110307 
L 294.294714 265.664178 
L 296.282783 273.200753 
L 298.354969 280.720031 
L 300.511271 288.222013 
L 302.751689 295.706698 
L 305.076225 303.174087 
L 307.484876 310.62418 
L 309.977644 318.056976 
L 312.554529 325.472476 
L 315.21553 332.870679 
L 317.960648 340.251586 
" clip-path="url(#p3e1b5d36a6)" style="fill: none; stroke: #75a025; stroke-opacity: 0.4; stroke-width: 4; stroke-linecap: round"/>
   </g>
   <g id="patch_2">
    <path d="M 527.205761 241.933518 
Q 499.207901 285.857729 472.105882 328.376507 
" clip-path="url(#p3e1b5d36a6)" style="fill: none; stroke: #0279ee; stroke-width: 2; stroke-linecap: round"/>
    <path d="M 481.465486 324.855454 
L 472.105882 328.376507 
L 471.346361 318.405392 
" clip-path="url(#p3e1b5d36a6)" style="fill: none; stroke: #0279ee; stroke-width: 2; stroke-linecap: round"/>
   </g>
   <g id="patch_3">
    <path d="M 426.155238 588.18755 
Q 407.052115 513.747076 388.363273 440.920958 
" clip-path="url(#p3e1b5d36a6)" style="fill: none; stroke: #0279ee; stroke-width: 2; stroke-linecap: round"/>
    <path d="M 384.540135 450.161284 
L 388.363273 440.920958 
L 396.163507 447.178462 
" clip-path="url(#p3e1b5d36a6)" style="fill: none; stroke: #0279ee; stroke-width: 2; stroke-linecap: round"/>
   </g>
   <g id="patch_4">
    <path d="M 536.906818 507.3494 
Q 466.311604 470.254217 397.191771 433.934294 
" clip-path="url(#p3e1b5d36a6)" style="fill: none; stroke: #0279ee; stroke-width: 2; stroke-linecap: round"/>
    <path d="M 401.482673 442.96691 
L 397.191771 433.934294 
L 407.064536 432.344161 
" clip-path="url(#p3e1b5d36a6)" style="fill: none; stroke: #0279ee; stroke-width: 2; stroke-linecap: round"/>
   </g>
   <g id="line2d_7">
    <path d="M 367.756447 399.512557 
L 351.102814 390.480428 
" clip-path="url(#p3e1b5d36a6)" style="fill: none; stroke: #222222; stroke-width: 2; stroke-linecap: round"/>
   </g>
   <g id="line2d_8">
    <path d="M 368.26121 418.451091 
L 367.756447 399.512557 
" clip-path="url(#p3e1b5d36a6)" style="fill: none; stroke: #222222; stroke-width: 2; stroke-linecap: round"/>
   </g>
   <g id="line2d_9">
    <path d="M 384.914843 427.48322 
L 368.26121 418.451091 
" clip-path="url(#p3e1b5d36a6)" style="fill: none; stroke: #222222; stroke-width: 2; stroke-linecap: round"/>
   </g>
   <g id="line2d_10">
    <path d="M 352.11234 428.357496 
L 368.26121 418.451091 
" clip-path="url(#p3e1b5d36a6)" style="fill: none; stroke: #222222; stroke-width: 2; stroke-linecap: round"/>
   </g>
   <g id="line2d_11">
    <path d="M 348.66853 446.987124 
L 352.11234 428.357496 
" clip-path="url(#p3e1b5d36a6)" style="fill: none; stroke: #222222; stroke-width: 2; stroke-linecap: round"/>
   </g>
   <g id="line2d_12">
    <path d="M 329.886506 449.468737 
L 348.66853 446.987124 
" clip-path="url(#p3e1b5d36a6)" style="fill: none; stroke: #222222; stroke-width: 2; stroke-linecap: round"/>
   </g>
   <g id="line2d_13">
    <path d="M 321.722386 432.372831 
L 329.886506 449.468737 
" clip-path="url(#p3e1b5d36a6)" style="fill: none; stroke: #222222; stroke-width: 2; stroke-linecap: round"/>
   </g>
   <g id="line2d_14">
    <path d="M 335.458707 419.325367 
L 321.722386 432.372831 
" clip-path="url(#p3e1b5d36a6)" style="fill: none; stroke: #222222; stroke-width: 2; stroke-linecap: round"/>
   </g>
   <g id="line2d_15">
    <path d="M 335.458707 419.325367 
L 352.11234 428.357496 
" clip-path="url(#p3e1b5d36a6)" style="fill: none; stroke: #222222; stroke-width: 2; stroke-linecap: round"/>
   </g>
   <g id="line2d_16">
    <path d="M 334.953944 400.386833 
L 335.458707 419.325367 
" clip-path="url(#p3e1b5d36a6)" style="fill: none; stroke: #222222; stroke-width: 2; stroke-linecap: round"/>
   </g>
   <g id="line2d_17">
    <path d="M 334.953944 400.386833 
L 351.102814 390.480428 
" clip-path="url(#p3e1b5d36a6)" style="fill: none; stroke: #222222; stroke-width: 2; stroke-linecap: round"/>
   </g>
   <g id="line2d_18">
    <path d="M 383.905317 389.606153 
L 367.756447 399.512557 
" clip-path="url(#p3e1b5d36a6)" style="fill: none; stroke: #222222; stroke-width: 2; stroke-linecap: round"/>
   </g>
   <g id="line2d_19">
    <path d="M 400.55895 398.638282 
L 383.905317 389.606153 
" clip-path="url(#p3e1b5d36a6)" style="fill: none; stroke: #222222; stroke-width: 2; stroke-linecap: round"/>
   </g>
   <g id="line2d_20">
    <path d="M 416.70782 388.731877 
L 400.55895 398.638282 
" clip-path="url(#p3e1b5d36a6)" style="fill: none; stroke: #222222; stroke-width: 2; stroke-linecap: round"/>
   </g>
   <g id="line2d_21">
    <path d="M 416.203057 369.793343 
L 416.70782 388.731877 
" clip-path="url(#p3e1b5d36a6)" style="fill: none; stroke: #222222; stroke-width: 2; stroke-linecap: round"/>
   </g>
   <g id="line2d_22">
    <path d="M 432.351926 359.886939 
L 416.203057 369.793343 
" clip-path="url(#p3e1b5d36a6)" style="fill: none; stroke: #222222; stroke-width: 2; stroke-linecap: round"/>
   </g>
   <g id="line2d_23">
    <path d="M 431.847163 340.948405 
L 432.351926 359.886939 
" clip-path="url(#p3e1b5d36a6)" style="fill: none; stroke: #222222; stroke-width: 2; stroke-linecap: round"/>
   </g>
   <g id="line2d_24">
    <path d="M 399.549424 360.761214 
L 416.203057 369.793343 
" clip-path="url(#p3e1b5d36a6)" style="fill: none; stroke: #222222; stroke-width: 2; stroke-linecap: round"/>
   </g>
   <g id="line2d_25">
    <path d="M 383.400554 370.667619 
L 383.905317 389.606153 
" clip-path="url(#p3e1b5d36a6)" style="fill: none; stroke: #222222; stroke-width: 2; stroke-linecap: round"/>
   </g>
   <g id="line2d_26">
    <path d="M 383.400554 370.667619 
L 399.549424 360.761214 
" clip-path="url(#p3e1b5d36a6)" style="fill: none; stroke: #222222; stroke-width: 2; stroke-linecap: round"/>
   </g>
   <g id="line2d_27">
    <path d="M 449.00556 368.919068 
L 432.351926 359.886939 
" clip-path="url(#p3e1b5d36a6)" style="fill: none; stroke: #222222; stroke-width: 2; stroke-linecap: round"/>
   </g>
   <g id="line2d_28">
    <path d="M 449.510323 387.857602 
L 449.00556 368.919068 
" clip-path="url(#p3e1b5d36a6)" style="fill: none; stroke: #222222; stroke-width: 2; stroke-linecap: round"/>
   </g>
   <g id="line2d_29">
    <path d="M 466.163956 396.889731 
L 449.510323 387.857602 
" clip-path="url(#p3e1b5d36a6)" style="fill: none; stroke: #222222; stroke-width: 2; stroke-linecap: round"/>
   </g>
   <g id="line2d_30">
    <path d="M 482.312826 386.983326 
L 466.163956 396.889731 
" clip-path="url(#p3e1b5d36a6)" style="fill: none; stroke: #222222; stroke-width: 2; stroke-linecap: round"/>
   </g>
   <g id="line2d_31">
    <path d="M 481.808063 368.044793 
L 482.312826 386.983326 
" clip-path="url(#p3e1b5d36a6)" style="fill: none; stroke: #222222; stroke-width: 2; stroke-linecap: round"/>
   </g>
   <g id="line2d_32">
    <path d="M 497.956932 358.138388 
L 481.808063 368.044793 
" clip-path="url(#p3e1b5d36a6)" style="fill: none; stroke: #222222; stroke-width: 2; stroke-linecap: round"/>
   </g>
   <g id="line2d_33">
    <path d="M 465.154429 359.012663 
L 481.808063 368.044793 
" clip-path="url(#p3e1b5d36a6)" style="fill: none; stroke: #222222; stroke-width: 2; stroke-linecap: round"/>
   </g>
   <g id="line2d_34">
    <path d="M 465.154429 359.012663 
L 449.00556 368.919068 
" clip-path="url(#p3e1b5d36a6)" style="fill: none; stroke: #222222; stroke-width: 2; stroke-linecap: round"/>
   </g>
   <g id="line2d_35">
    <path d="M 464.649666 340.074129 
L 465.154429 359.012663 
" clip-path="url(#p3e1b5d36a6)" style="fill: none; stroke: #222222; stroke-width: 2; stroke-linecap: round"/>
   </g>
   <g id="line2d_36">
    <path d="M 320.854376 466.12237 
L 329.886506 449.468737 
" clip-path="url(#p3e1b5d36a6)" style="fill: none; stroke: #222222; stroke-width: 2; stroke-linecap: round"/>
   </g>
   <g id="line2d_37">
    <path d="M 301.915843 466.627134 
L 320.854376 466.12237 
" clip-path="url(#p3e1b5d36a6)" style="fill: none; stroke: #222222; stroke-width: 2; stroke-linecap: round"/>
   </g>
   <g id="line2d_38">
    <path d="M 292.883713 483.280767 
L 301.915843 466.627134 
" clip-path="url(#p3e1b5d36a6)" style="fill: none; stroke: #222222; stroke-width: 2; stroke-linecap: round"/>
   </g>
   <g id="line2d_39">
    <path d="M 302.790118 499.429637 
L 292.883713 483.280767 
" clip-path="url(#p3e1b5d36a6)" style="fill: none; stroke: #222222; stroke-width: 2; stroke-linecap: round"/>
   </g>
   <g id="line2d_40">
    <path d="M 321.728652 498.924873 
L 302.790118 499.429637 
" clip-path="url(#p3e1b5d36a6)" style="fill: none; stroke: #222222; stroke-width: 2; stroke-linecap: round"/>
   </g>
   <g id="line2d_41">
    <path d="M 330.760781 482.27124 
L 321.728652 498.924873 
" clip-path="url(#p3e1b5d36a6)" style="fill: none; stroke: #222222; stroke-width: 2; stroke-linecap: round"/>
   </g>
   <g id="line2d_42">
    <path d="M 330.760781 482.27124 
L 320.854376 466.12237 
" clip-path="url(#p3e1b5d36a6)" style="fill: none; stroke: #222222; stroke-width: 2; stroke-linecap: round"/>
   </g>
   <g id="line2d_43">
    <path d="M 350.598051 371.541894 
L 366.746921 361.635489 
" clip-path="url(#p3e1b5d36a6)" style="fill: none; stroke: #222222; stroke-width: 2; stroke-linecap: round"/>
   </g>
   <g id="line2d_44">
    <path d="M 350.598051 371.541894 
L 351.102814 390.480428 
" clip-path="url(#p3e1b5d36a6)" style="fill: none; stroke: #222222; stroke-width: 2; stroke-linecap: round"/>
   </g>
   <g id="line2d_45">
    <path d="M 318.300311 391.354703 
L 334.953944 400.386833 
" clip-path="url(#p3e1b5d36a6)" style="fill: none; stroke: #222222; stroke-width: 2; stroke-linecap: round"/>
   </g>
   <g id="line2d_46">
    <path d="M 317.795548 372.41617 
L 318.300311 391.354703 
" clip-path="url(#p3e1b5d36a6)" style="fill: none; stroke: #222222; stroke-width: 2; stroke-linecap: round"/>
   </g>
   <g id="line2d_47">
    <path d="M 333.944418 362.509765 
L 317.795548 372.41617 
" clip-path="url(#p3e1b5d36a6)" style="fill: none; stroke: #222222; stroke-width: 2; stroke-linecap: round"/>
   </g>
   <g id="line2d_48">
    <path d="M 301.141915 363.38404 
L 317.795548 372.41617 
" clip-path="url(#p3e1b5d36a6)" style="fill: none; stroke: #222222; stroke-width: 2; stroke-linecap: round"/>
   </g>
   <g id="line2d_49">
    <path d="M 300.637152 344.445506 
L 301.141915 363.38404 
" clip-path="url(#p3e1b5d36a6)" style="fill: none; stroke: #222222; stroke-width: 2; stroke-linecap: round"/>
   </g>
   <g id="line2d_50">
    <path d="M 316.786021 334.539102 
L 300.637152 344.445506 
" clip-path="url(#p3e1b5d36a6)" style="fill: none; stroke: #222222; stroke-width: 2; stroke-linecap: round"/>
   </g>
   <g id="line2d_51">
    <path d="M 316.281258 315.600568 
L 316.786021 334.539102 
" clip-path="url(#p3e1b5d36a6)" style="fill: none; stroke: #222222; stroke-width: 2; stroke-linecap: round"/>
   </g>
   <g id="line2d_52">
    <path d="M 299.627625 306.568439 
L 316.281258 315.600568 
" clip-path="url(#p3e1b5d36a6)" style="fill: none; stroke: #222222; stroke-width: 2; stroke-linecap: round"/>
   </g>
   <g id="line2d_53">
    <path d="M 283.478755 316.474843 
L 299.627625 306.568439 
" clip-path="url(#p3e1b5d36a6)" style="fill: none; stroke: #222222; stroke-width: 2; stroke-linecap: round"/>
   </g>
   <g id="line2d_54">
    <path d="M 283.983518 335.413377 
L 283.478755 316.474843 
" clip-path="url(#p3e1b5d36a6)" style="fill: none; stroke: #222222; stroke-width: 2; stroke-linecap: round"/>
   </g>
   <g id="line2d_55">
    <path d="M 283.983518 335.413377 
L 300.637152 344.445506 
" clip-path="url(#p3e1b5d36a6)" style="fill: none; stroke: #222222; stroke-width: 2; stroke-linecap: round"/>
   </g>
   <g id="line2d_56">
    <path d="M 267.834649 345.319782 
L 283.983518 335.413377 
" clip-path="url(#p3e1b5d36a6)" style="fill: none; stroke: #222222; stroke-width: 2; stroke-linecap: round"/>
   </g>
   <g id="line2d_57">
    <path d="M 299.122862 287.629905 
L 299.627625 306.568439 
" clip-path="url(#p3e1b5d36a6)" style="fill: none; stroke: #222222; stroke-width: 2; stroke-linecap: round"/>
   </g>
   <g id="line2d_58">
    <path d="M 298.618099 268.691371 
L 299.122862 287.629905 
" clip-path="url(#p3e1b5d36a6)" style="fill: none; stroke: #222222; stroke-width: 2; stroke-linecap: round"/>
   </g>
   <g id="line2d_59">
    <path d="M 318.061396 287.125141 
L 299.122862 287.629905 
" clip-path="url(#p3e1b5d36a6)" style="fill: none; stroke: #222222; stroke-width: 2; stroke-linecap: round"/>
   </g>
   <g id="line2d_60">
    <path d="M 280.184328 288.134668 
L 299.122862 287.629905 
" clip-path="url(#p3e1b5d36a6)" style="fill: none; stroke: #222222; stroke-width: 2; stroke-linecap: round"/>
   </g>
   <g id="text_1">
    <g id="patch_5">
     <path d="M 380.007968 433.35408 
L 389.821718 433.35408 
L 389.821718 421.612361 
L 380.007968 421.612361 
z
" style="fill: #ffffff"/>
    </g>
    <text style="font-weight: 700; font-size: 12px; font-family: 'Liberation Sans', 'Arimo', 'DejaVu Sans'; text-anchor: middle; fill: #d40000" x="384.914843" y="430.588689" transform="rotate(-0 384.914843 430.588689)">O</text>
   </g>
   <g id="text_2">
    <g id="patch_6">
     <path d="M 347.539215 434.228355 
L 356.685465 434.228355 
L 356.685465 422.486637 
L 347.539215 422.486637 
z
" style="fill: #ffffff"/>
    </g>
    <text style="font-weight: 700; font-size: 12px; font-family: 'Liberation Sans', 'Arimo', 'DejaVu Sans'; text-anchor: middle; fill: #0879c0" x="352.11234" y="431.462965" transform="rotate(-0 352.11234 431.462965)">N</text>
   </g>
   <g id="text_3">
    <g id="patch_7">
     <path d="M 344.095405 452.857983 
L 353.241655 452.857983 
L 353.241655 441.116264 
L 344.095405 441.116264 
z
" style="fill: #ffffff"/>
    </g>
    <text style="font-weight: 700; font-size: 12px; font-family: 'Liberation Sans', 'Arimo', 'DejaVu Sans'; text-anchor: middle; fill: #0879c0" x="348.66853" y="450.092592" transform="rotate(-0 348.66853 450.092592)">N</text>
   </g>
   <g id="text_4">
    <g id="patch_8">
     <path d="M 317.149261 438.243691 
L 326.295511 438.243691 
L 326.295511 426.501972 
L 317.149261 426.501972 
z
" style="fill: #ffffff"/>
    </g>
    <text style="font-weight: 700; font-size: 12px; font-family: 'Liberation Sans', 'Arimo', 'DejaVu Sans'; text-anchor: middle; fill: #0879c0" x="321.722386" y="435.4783" transform="rotate(-0 321.722386 435.4783)">N</text>
   </g>
   <g id="text_5">
    <g id="patch_9">
     <path d="M 330.380819 406.257692 
L 339.527069 406.257692 
L 339.527069 394.515973 
L 330.380819 394.515973 
z
" style="fill: #ffffff"/>
    </g>
    <text style="font-weight: 700; font-size: 12px; font-family: 'Liberation Sans', 'Arimo', 'DejaVu Sans'; text-anchor: middle; fill: #0879c0" x="334.953944" y="403.492301" transform="rotate(-0 334.953944 403.492301)">N</text>
   </g>
   <g id="text_6">
    <g id="patch_10">
     <path d="M 379.332192 395.477012 
L 388.478442 395.477012 
L 388.478442 383.735293 
L 379.332192 383.735293 
z
" style="fill: #ffffff"/>
    </g>
    <text style="font-weight: 700; font-size: 12px; font-family: 'Liberation Sans', 'Arimo', 'DejaVu Sans'; text-anchor: middle; fill: #0879c0" x="383.905317" y="392.711621" transform="rotate(-0 383.905317 392.711621)">N</text>
   </g>
   <g id="text_7">
    <g id="patch_11">
     <path d="M 411.629932 375.664203 
L 420.776182 375.664203 
L 420.776182 363.922484 
L 411.629932 363.922484 
z
" style="fill: #ffffff"/>
    </g>
    <text style="font-weight: 700; font-size: 12px; font-family: 'Liberation Sans', 'Arimo', 'DejaVu Sans'; text-anchor: middle; fill: #0879c0" x="416.203057" y="372.898812" transform="rotate(-0 416.203057 372.898812)">N</text>
   </g>
   <g id="text_8">
    <g id="patch_12">
     <path d="M 426.940288 346.819264 
L 436.754038 346.819264 
L 436.754038 335.077545 
L 426.940288 335.077545 
z
" style="fill: #ffffff"/>
    </g>
    <text style="font-weight: 700; font-size: 12px; font-family: 'Liberation Sans', 'Arimo', 'DejaVu Sans'; text-anchor: middle; fill: #d40000" x="431.847163" y="344.053874" transform="rotate(-0 431.847163 344.053874)">O</text>
   </g>
   <g id="text_9">
    <g id="patch_13">
     <path d="M 444.937198 393.728461 
L 454.083448 393.728461 
L 454.083448 381.986742 
L 444.937198 381.986742 
z
" style="fill: #ffffff"/>
    </g>
    <text style="font-weight: 700; font-size: 12px; font-family: 'Liberation Sans', 'Arimo', 'DejaVu Sans'; text-anchor: middle; fill: #0879c0" x="449.510323" y="390.963071" transform="rotate(-0 449.510323 390.963071)">N</text>
   </g>
   <g id="text_10">
    <g id="patch_14">
     <path d="M 477.739701 392.854186 
L 486.885951 392.854186 
L 486.885951 381.112467 
L 477.739701 381.112467 
z
" style="fill: #ffffff"/>
    </g>
    <text style="font-weight: 700; font-size: 12px; font-family: 'Liberation Sans', 'Arimo', 'DejaVu Sans'; text-anchor: middle; fill: #0879c0" x="482.312826" y="390.088795" transform="rotate(-0 482.312826 390.088795)">N</text>
   </g>
   <g id="text_11">
    <g id="patch_15">
     <path d="M 459.742791 345.944989 
L 469.556541 345.944989 
L 469.556541 334.20327 
L 459.742791 334.20327 
z
" style="fill: #ffffff"/>
    </g>
    <text style="font-weight: 700; font-size: 12px; font-family: 'Liberation Sans', 'Arimo', 'DejaVu Sans'; text-anchor: middle; fill: #d40000" x="464.649666" y="343.179598" transform="rotate(-0 464.649666 343.179598)">O</text>
   </g>
   <g id="text_12">
    <g id="patch_16">
     <path d="M 297.883243 505.300496 
L 307.696993 505.300496 
L 307.696993 493.558777 
L 297.883243 493.558777 
z
" style="fill: #ffffff"/>
    </g>
    <text style="font-weight: 700; font-size: 12px; font-family: 'Liberation Sans', 'Arimo', 'DejaVu Sans'; text-anchor: middle; fill: #d40000" x="302.790118" y="502.535105" transform="rotate(-0 302.790118 502.535105)">O</text>
   </g>
   <g id="text_13">
    <g id="patch_17">
     <path d="M 329.037543 368.380624 
L 338.851293 368.380624 
L 338.851293 356.638905 
L 329.037543 356.638905 
z
" style="fill: #ffffff"/>
    </g>
    <text style="font-weight: 700; font-size: 12px; font-family: 'Liberation Sans', 'Arimo', 'DejaVu Sans'; text-anchor: middle; fill: #d40000" x="333.944418" y="365.615234" transform="rotate(-0 333.944418 365.615234)">O</text>
   </g>
   <g id="text_14">
    <g id="patch_18">
     <path d="M 296.56879 369.2549 
L 305.71504 369.2549 
L 305.71504 357.513181 
L 296.56879 357.513181 
z
" style="fill: #ffffff"/>
    </g>
    <text style="font-weight: 700; font-size: 12px; font-family: 'Liberation Sans', 'Arimo', 'DejaVu Sans'; text-anchor: middle; fill: #0879c0" x="301.141915" y="366.489509" transform="rotate(-0 301.141915 366.489509)">N</text>
   </g>
   <g id="text_15">
    <g id="patch_19">
     <path d="M 261.594649 351.190641 
L 274.074649 351.190641 
L 274.074649 339.448922 
L 261.594649 339.448922 
z
" style="fill: #ffffff"/>
    </g>
    <text style="font-weight: 700; font-size: 12px; font-family: 'Liberation Sans', 'Arimo', 'DejaVu Sans'; text-anchor: middle; fill: #00a040" x="267.834649" y="348.42525" transform="rotate(-0 267.834649 348.42525)">Cl</text>
   </g>
   <g id="text_16">
    <g id="patch_20">
     <path d="M 294.713411 274.56223 
L 302.522786 274.56223 
L 302.522786 262.820511 
L 294.713411 262.820511 
z
" style="fill: #ffffff"/>
    </g>
    <text style="font-weight: 700; font-size: 12px; font-family: 'Liberation Sans', 'Arimo', 'DejaVu Sans'; text-anchor: middle; fill: #00a040" x="298.618099" y="271.796839" transform="rotate(-0 298.618099 271.796839)">F</text>
   </g>
   <g id="text_17">
    <g id="patch_21">
     <path d="M 314.156709 292.996001 
L 321.966084 292.996001 
L 321.966084 281.254282 
L 314.156709 281.254282 
z
" style="fill: #ffffff"/>
    </g>
    <text style="font-weight: 700; font-size: 12px; font-family: 'Liberation Sans', 'Arimo', 'DejaVu Sans'; text-anchor: middle; fill: #00a040" x="318.061396" y="290.23061" transform="rotate(-0 318.061396 290.23061)">F</text>
   </g>
   <g id="text_18">
    <g id="patch_22">
     <path d="M 276.279641 294.005527 
L 284.089016 294.005527 
L 284.089016 282.263808 
L 276.279641 282.263808 
z
" style="fill: #ffffff"/>
    </g>
    <text style="font-weight: 700; font-size: 12px; font-family: 'Liberation Sans', 'Arimo', 'DejaVu Sans'; text-anchor: middle; fill: #00a040" x="280.184328" y="291.240136" transform="rotate(-0 280.184328 291.240136)">F</text>
   </g>
   <g id="patch_23">
    <path d="M 271.584252 641.035957 
C 278.930908 641.035957 285.977653 638.1171 291.172524 632.922229 
C 296.367394 627.727359 299.286252 620.680613 299.286252 613.333957 
C 299.286252 605.987301 296.367394 598.940556 291.172524 593.745685 
C 285.977653 588.550815 278.930908 585.631957 271.584252 585.631957 
C 264.237596 585.631957 257.19085 588.550815 251.99598 593.745685 
C 246.801109 598.940556 243.882252 605.987301 243.882252 613.333957 
C 243.882252 620.680613 246.801109 627.727359 251.99598 632.922229 
C 257.19085 638.1171 264.237596 641.035957 271.584252 641.035957 
z
" clip-path="url(#p3e1b5d36a6)" style="fill: #d9584c; stroke: #222222; stroke-width: 1.2; stroke-linejoin: miter"/>
   </g>
   <g id="patch_24">
    <path d="M 607.304539 392.897532 
C 614.651195 392.897532 621.697941 389.978675 626.892811 384.783804 
C 632.087682 379.588934 635.006539 372.542189 635.006539 365.195532 
C 635.006539 357.848876 632.087682 350.802131 626.892811 345.60726 
C 621.697941 340.41239 614.651195 337.493532 607.304539 337.493532 
C 599.957883 337.493532 592.911137 340.41239 587.716267 345.60726 
C 582.521397 350.802131 579.602539 357.848876 579.602539 365.195532 
C 579.602539 372.542189 582.521397 379.588934 587.716267 384.783804 
C 592.911137 389.978675 599.957883 392.897532 607.304539 392.897532 
z
" clip-path="url(#p3e1b5d36a6)" style="fill: #5087c5; stroke: #222222; stroke-width: 1.2; stroke-linejoin: miter"/>
   </g>
   <g id="patch_25">
    <path d="M 147.217954 536.597618 
C 154.56461 536.597618 161.611355 533.678761 166.806226 528.48389 
C 172.001096 523.28902 174.919954 516.242274 174.919954 508.895618 
C 174.919954 501.548962 172.001096 494.502216 166.806226 489.307346 
C 161.611355 484.112475 154.56461 481.193618 147.217954 481.193618 
C 139.871297 481.193618 132.824552 484.112475 127.629682 489.307346 
C 122.434811 494.502216 119.515954 501.548962 119.515954 508.895618 
C 119.515954 516.242274 122.434811 523.28902 127.629682 528.48389 
C 132.824552 533.678761 139.871297 536.597618 147.217954 536.597618 
z
" clip-path="url(#p3e1b5d36a6)" style="fill: #5087c5; stroke: #222222; stroke-width: 1.2; stroke-linejoin: miter"/>
   </g>
   <g id="patch_26">
    <path d="M 151.010385 276.223153 
C 158.357041 276.223153 165.403786 273.304295 170.598657 268.109425 
C 175.793527 262.914554 178.712385 255.867809 178.712385 248.521153 
C 178.712385 241.174496 175.793527 234.127751 170.598657 228.932881 
C 165.403786 223.73801 158.357041 220.819153 151.010385 220.819153 
C 143.663729 220.819153 136.616983 223.73801 131.422113 228.932881 
C 126.227242 234.127751 123.308385 241.174496 123.308385 248.521153 
C 123.308385 255.867809 126.227242 262.914554 131.422113 268.109425 
C 136.616983 273.304295 143.663729 276.223153 151.010385 276.223153 
z
" clip-path="url(#p3e1b5d36a6)" style="fill: #d9584c; stroke: #222222; stroke-width: 1.2; stroke-linejoin: miter"/>
   </g>
   <g id="patch_27">
    <path d="M 278.376663 175.447365 
C 285.723319 175.447365 292.770064 172.528507 297.964935 167.333637 
C 303.159805 162.138766 306.078663 155.092021 306.078663 147.745365 
C 306.078663 140.398709 303.159805 133.351963 297.964935 128.157093 
C 292.770064 122.962222 285.723319 120.043365 278.376663 120.043365 
C 271.030007 120.043365 263.983261 122.962222 258.788391 128.157093 
C 253.59352 133.351963 250.674663 140.398709 250.674663 147.745365 
C 250.674663 155.092021 253.59352 162.138766 258.788391 167.333637 
C 263.983261 172.528507 271.030007 175.447365 278.376663 175.447365 
z
" clip-path="url(#p3e1b5d36a6)" style="fill: #5087c5; stroke: #222222; stroke-width: 1.2; stroke-linejoin: miter"/>
   </g>
   <g id="patch_28">
    <path d="M 543.952928 243.361864 
C 551.299585 243.361864 558.34633 240.443006 563.5412 235.248136 
C 568.736071 230.053265 571.654928 223.00652 571.654928 215.659864 
C 571.654928 208.313207 568.736071 201.266462 563.5412 196.071592 
C 558.34633 190.876721 551.299585 187.957864 543.952928 187.957864 
C 536.606272 187.957864 529.559527 190.876721 524.364656 196.071592 
C 519.169786 201.266462 516.250928 208.313207 516.250928 215.659864 
C 516.250928 223.00652 519.169786 230.053265 524.364656 235.248136 
C 529.559527 240.443006 536.606272 243.361864 543.952928 243.361864 
z
" clip-path="url(#p3e1b5d36a6)" style="fill: #f5a623; stroke: #222222; stroke-width: 1.2; stroke-linejoin: miter"/>
   </g>
   <g id="patch_29">
    <path d="M 433.899955 646.068932 
C 441.246611 646.068932 448.293357 643.150074 453.488227 637.955204 
C 458.683098 632.760333 461.601955 625.713588 461.601955 618.366932 
C 461.601955 611.020275 458.683098 603.97353 453.488227 598.77866 
C 448.293357 593.583789 441.246611 590.664932 433.899955 590.664932 
C 426.553299 590.664932 419.506553 593.583789 414.311683 598.77866 
C 409.116812 603.97353 406.197955 611.020275 406.197955 618.366932 
C 406.197955 625.713588 409.116812 632.760333 414.311683 637.955204 
C 419.506553 643.150074 426.553299 646.068932 433.899955 646.068932 
z
" clip-path="url(#p3e1b5d36a6)" style="fill: #5087c5; stroke: #222222; stroke-width: 1.2; stroke-linejoin: miter"/>
   </g>
   <g id="patch_30">
    <path d="M 564.491221 549.545986 
C 571.837877 549.545986 578.884622 546.627129 584.079493 541.432258 
C 589.274363 536.237388 592.193221 529.190643 592.193221 521.843986 
C 592.193221 514.49733 589.274363 507.450585 584.079493 502.255714 
C 578.884622 497.060844 571.837877 494.141986 564.491221 494.141986 
C 557.144564 494.141986 550.097819 497.060844 544.902949 502.255714 
C 539.708078 507.450585 536.789221 514.49733 536.789221 521.843986 
C 536.789221 529.190643 539.708078 536.237388 544.902949 541.432258 
C 550.097819 546.627129 557.144564 549.545986 564.491221 549.545986 
z
" clip-path="url(#p3e1b5d36a6)" style="fill: #5087c5; stroke: #222222; stroke-width: 1.2; stroke-linejoin: miter"/>
   </g>
   <g id="text_19">
    <text style="font-weight: 700; font-size: 9.5px; font-family: 'Liberation Sans', 'Arimo', 'DejaVu Sans'; text-anchor: middle; fill: #ffffff" x="271.584252" y="615.792453" transform="rotate(-0 271.584252 615.792453)">E846</text>
   </g>
   <g id="text_20">
    <text style="font-weight: 700; font-size: 9.5px; font-family: 'Liberation Sans', 'Arimo', 'DejaVu Sans'; text-anchor: middle; fill: #ffffff" x="607.304539" y="367.654029" transform="rotate(-0 607.304539 367.654029)">K887</text>
   </g>
   <g id="text_21">
    <text style="font-weight: 700; font-size: 9.5px; font-family: 'Liberation Sans', 'Arimo', 'DejaVu Sans'; text-anchor: middle; fill: #ffffff" x="147.217954" y="511.354114" transform="rotate(-0 147.217954 511.354114)">H916</text>
   </g>
   <g id="text_22">
    <text style="font-weight: 700; font-size: 9.5px; font-family: 'Liberation Sans', 'Arimo', 'DejaVu Sans'; text-anchor: middle; fill: #ffffff" x="151.010385" y="250.979649" transform="rotate(-0 151.010385 250.979649)">D919</text>
   </g>
   <g id="text_23">
    <text style="font-weight: 700; font-size: 9.5px; font-family: 'Liberation Sans', 'Arimo', 'DejaVu Sans'; text-anchor: middle; fill: #ffffff" x="278.376663" y="150.203861" transform="rotate(-0 278.376663 150.203861)">K920</text>
   </g>
   <g id="text_24">
    <text style="font-weight: 700; font-size: 9.5px; font-family: 'Liberation Sans', 'Arimo', 'DejaVu Sans'; text-anchor: middle; fill: #222222" x="543.952928" y="218.11836" transform="rotate(-0 543.952928 218.11836)">S708</text>
   </g>
   <g id="text_25">
    <text style="font-weight: 700; font-size: 9.5px; font-family: 'Liberation Sans', 'Arimo', 'DejaVu Sans'; text-anchor: middle; fill: #ffffff" x="433.899955" y="620.825428" transform="rotate(-0 433.899955 620.825428)">K894</text>
   </g>
   <g id="text_26">
    <text style="font-weight: 700; font-size: 9.5px; font-family: 'Liberation Sans', 'Arimo', 'DejaVu Sans'; text-anchor: middle; fill: #ffffff" x="564.491221" y="524.302482" transform="rotate(-0 564.491221 524.302482)">K898</text>
   </g>
  </g>
  <g id="patch_31">
   <path d="M 183.440391 714.42 
Q 188.63969 714.42 191.714724 714.42 
" style="fill: none; stroke: #0279ee; stroke-width: 1.9; stroke-linecap: round"/>
   <path d="M 186.914724 712.02 
L 191.714724 714.42 
L 186.914724 716.82 
" style="fill: none; stroke: #0279ee; stroke-width: 1.9; stroke-linecap: round"/>
  </g>
  <g id="patch_32">
   <path d="M 92.16 743.148 
C 93.68757 743.148 95.15278 742.510745 96.232935 741.376582 
C 97.31309 740.242419 97.92 738.703948 97.92 737.1 
C 97.92 735.496052 97.31309 733.957581 96.232935 732.823418 
C 95.15278 731.689255 93.68757 731.052 92.16 731.052 
C 90.63243 731.052 89.16722 731.689255 88.087065 732.823418 
C 87.00691 733.957581 86.4 735.496052 86.4 737.1 
C 86.4 738.703948 87.00691 740.242419 88.087065 741.376582 
C 89.16722 742.510745 90.63243 743.148 92.16 743.148 
z
" style="fill: #5087c5; stroke: #222222; stroke-width: 0.8; stroke-linejoin: miter"/>
  </g>
  <g id="patch_33">
   <path d="M 218.88 743.148 
C 220.40757 743.148 221.87278 742.510745 222.952935 741.376582 
C 224.03309 740.242419 224.64 738.703948 224.64 737.1 
C 224.64 735.496052 224.03309 733.957581 222.952935 732.823418 
C 221.87278 731.689255 220.40757 731.052 218.88 731.052 
C 217.35243 731.052 215.88722 731.689255 214.807065 732.823418 
C 213.72691 733.957581 213.12 735.496052 213.12 737.1 
C 213.12 738.703948 213.72691 740.242419 214.807065 741.376582 
C 215.88722 742.510745 217.35243 743.148 218.88 743.148 
z
" style="fill: #d9584c; stroke: #222222; stroke-width: 0.8; stroke-linejoin: miter"/>
  </g>
  <g id="patch_34">
   <path d="M 345.6 743.148 
C 347.12757 743.148 348.59278 742.510745 349.672935 741.376582 
C 350.75309 740.242419 351.36 738.703948 351.36 737.1 
C 351.36 735.496052 350.75309 733.957581 349.672935 732.823418 
C 348.59278 731.689255 347.12757 731.052 345.6 731.052 
C 344.07243 731.052 342.60722 731.689255 341.527065 732.823418 
C 340.44691 733.957581 339.84 735.496052 339.84 737.1 
C 339.84 738.703948 340.44691 740.242419 341.527065 741.376582 
C 342.60722 742.510745 344.07243 743.148 345.6 743.148 
z
" style="fill: #f5a623; stroke: #222222; stroke-width: 0.8; stroke-linejoin: miter"/>
  </g>
  <g id="patch_35">
   <path d="M 472.32 743.148 
C 473.84757 743.148 475.31278 742.510745 476.392935 741.376582 
C 477.47309 740.242419 478.08 738.703948 478.08 737.1 
C 478.08 735.496052 477.47309 733.957581 476.392935 732.823418 
C 475.31278 731.689255 473.84757 731.052 472.32 731.052 
C 470.79243 731.052 469.32722 731.689255 468.247065 732.823418 
C 467.16691 733.957581 466.56 735.496052 466.56 737.1 
C 466.56 738.703948 467.16691 740.242419 468.247065 741.376582 
C 469.32722 742.510745 470.79243 743.148 472.32 743.148 
z
" style="fill: #8bc34a; stroke: #222222; stroke-width: 0.8; stroke-linejoin: miter"/>
  </g>
  <g id="patch_36">
   <path d="M 599.04 743.148 
C 600.56757 743.148 602.03278 742.510745 603.112935 741.376582 
C 604.19309 740.242419 604.8 738.703948 604.8 737.1 
C 604.8 735.496052 604.19309 733.957581 603.112935 732.823418 
C 602.03278 731.689255 600.56757 731.052 599.04 731.052 
C 597.51243 731.052 596.04722 731.689255 594.967065 732.823418 
C 593.88691 733.957581 593.28 735.496052 593.28 737.1 
C 593.28 738.703948 593.88691 740.242419 594.967065 741.376582 
C 596.04722 742.510745 597.51243 743.148 599.04 743.148 
z
" style="fill: #ffffff; stroke: #dc3912; stroke-width: 2.5; stroke-linejoin: miter"/>
  </g>
  <g id="line2d_61">
   <path d="M 498.24 714.42 
L 512.64 714.42 
" style="fill: none; stroke: #75a025; stroke-opacity: 0.4; stroke-width: 4; stroke-linecap: square"/>
  </g>
  <g id="text_27">
   <text style="font-weight: 700; font-size: 14px; font-family: 'Liberation Sans', 'Arimo', 'DejaVu Sans'; text-anchor: middle" x="360" y="21.532383" transform="rotate(-0 360 21.532383)">WT × 7GQU · HRO761 — REFERENCE WT</text>
  </g>
  <g id="text_28">
   <text style="font-size: 10.5px; font-family: 'Liberation Sans', 'Arimo', 'DejaVu Sans'; text-anchor: middle" x="360" y="40.152287" transform="rotate(-0 360 40.152287)">(no comparative metrics — WT reference)</text>
  </g>
  <g id="text_29">
   <text style="font-size: 10.5px; font-family: 'Liberation Sans', 'Arimo', 'DejaVu Sans'; text-anchor: middle" x="360" y="61.320287" transform="rotate(-0 360 61.320287)">PLIP: 6 hydrophobic · 3 H-bond</text>
  </g>
  <g id="text_30">
   <text style="font-size: 8.5px; font-family: 'Liberation Sans', 'Arimo', 'DejaVu Sans'; text-anchor: start" x="199.44" y="716.619707" transform="rotate(-0 199.44 716.619707)">H-bond</text>
  </g>
  <g id="text_31">
   <text style="font-size: 8.5px; font-family: 'Liberation Sans', 'Arimo', 'DejaVu Sans'; text-anchor: start" x="516.24" y="716.619707" transform="rotate(-0 516.24 716.619707)">Hydrophobic</text>
  </g>
  <g id="text_32">
   <text style="font-size: 8px; font-family: 'Liberation Sans', 'Arimo', 'DejaVu Sans'; text-anchor: start" x="100.8" y="739.170313" transform="rotate(-0 100.8 739.170313)">Basic</text>
  </g>
  <g id="text_33">
   <text style="font-size: 8px; font-family: 'Liberation Sans', 'Arimo', 'DejaVu Sans'; text-anchor: start" x="227.52" y="739.170313" transform="rotate(-0 227.52 739.170313)">Acidic</text>
  </g>
  <g id="text_34">
   <text style="font-size: 8px; font-family: 'Liberation Sans', 'Arimo', 'DejaVu Sans'; text-anchor: start" x="354.24" y="739.170313" transform="rotate(-0 354.24 739.170313)">Polar</text>
  </g>
  <g id="text_35">
   <text style="font-size: 8px; font-family: 'Liberation Sans', 'Arimo', 'DejaVu Sans'; text-anchor: start" x="480.96" y="739.170313" transform="rotate(-0 480.96 739.170313)">Hydrophobic</text>
  </g>
  <g id="text_36">
   <text style="font-size: 8px; font-family: 'Liberation Sans', 'Arimo', 'DejaVu Sans'; text-anchor: start" x="607.68" y="739.170313" transform="rotate(-0 607.68 739.170313)">Mutation site</text>
  </g>
 </g>
 <defs>
  <clipPath id="p3e1b5d36a6">
   <rect x="53.82" y="75.6" width="612.36" height="612.36"/>
  </clipPath>
 </defs>
</svg>
