<?xml version="1.0" encoding="utf-8" standalone="no"?>
<!DOCTYPE svg PUBLIC "-//W3C//DTD SVG 1.1//EN"
  "http://www.w3.org/Graphics/SVG/1.1/DTD/svg11.dtd">
<svg xmlns:xlink="http://www.w3.org/1999/xlink" width="720pt" height="756pt" viewBox="0 0 720 756" xmlns="http://www.w3.org/2000/svg" version="1.1">
 <metadata>
  <rdf:RDF xmlns:dc="http://purl.org/dc/elements/1.1/" xmlns:cc="http://creativecommons.org/ns#" xmlns:rdf="http://www.w3.org/1999/02/22-rdf-syntax-ns#">
   <cc:Work>
    <dc:type rdf:resource="http://purl.org/dc/dcmitype/StillImage"/>
    <dc:date>2022-01-01T05:00:00+00:00</dc:date>
    <dc:format>image/svg+xml</dc:format>
    <dc:creator>
     <cc:Agent>
      <dc:title>Matplotlib v3.11.0, https://matplotlib.org/</dc:title>
     </cc:Agent>
    </dc:creator>
   </cc:Work>
  </rdf:RDF>
 </metadata>
 <defs>
  <style type="text/css">*{stroke-linejoin: round; stroke-linecap: butt}</style>
 </defs>
 <g id="figure_1">
  <g id="patch_1">
   <path d="M 0 756 
L 720 756 
L 720 0 
L 0 0 
z
" style="fill: #ffffff"/>
  </g>
  <g id="axes_1">
   <g id="line2d_1">
    <path d="M 157.004439 193.379973 
L 161.062297 199.257714 
L 165.176746 205.081936 
L 169.347785 210.85264 
L 173.575414 216.569825 
L 177.859633 222.233491 
L 182.200443 227.843639 
L 186.597842 233.400268 
L 191.051832 238.903379 
L 195.562412 244.352971 
L 200.129582 249.749045 
L 204.753342 255.0916 
L 209.433692 260.380636 
L 214.170632 265.616154 
L 218.964163 270.798153 
L 223.814283 275.926634 
L 228.720994 281.001596 
L 233.684295 286.02304 
L 238.704186 290.990965 
L 243.780667 295.905371 
L 248.913738 300.766259 
L 254.1034 305.573628 
L 259.349651 310.327479 
L 264.652493 315.027811 
L 270.011924 319.674625 
L 275.427946 324.26792 
L 280.900558 328.807696 
L 286.42976 333.293954 
L 292.015553 337.726693 
L 297.657935 342.105914 
" clip-path="url(#p7c16970594)" style="fill: none; stroke: #75a025; stroke-opacity: 0.4; stroke-width: 4; stroke-linecap: round"/>
   </g>
   <g id="line2d_2">
    <path d="M 607.557544 506.099519 
L 602.245769 502.318093 
L 596.902084 498.600208 
L 591.526489 494.945866 
L 586.118984 491.355066 
L 580.67957 487.827809 
L 575.208245 484.364094 
L 569.70501 480.96392 
L 564.169866 477.627289 
L 558.602812 474.354201 
L 553.003847 471.144654 
L 547.372973 467.99865 
L 541.710189 464.916188 
L 536.015495 461.897268 
L 530.288891 458.941891 
L 524.530377 456.050055 
L 518.739954 453.221762 
L 512.91762 450.457011 
L 507.063377 447.755802 
L 501.177223 445.118136 
L 495.25916 442.544012 
L 489.309187 440.033429 
L 483.327304 437.58639 
L 477.313511 435.202892 
L 471.267808 432.882937 
L 465.190195 430.626523 
L 459.080672 428.433653 
L 452.939239 426.304324 
L 446.765897 424.238537 
L 440.560644 422.236293 
" clip-path="url(#p7c16970594)" style="fill: none; stroke: #75a025; stroke-opacity: 0.4; stroke-width: 4; stroke-linecap: round"/>
   </g>
   <g id="line2d_3">
    <path d="M 388.778411 108.774012 
L 381.333607 118.497469 
L 374.00599 128.284973 
L 366.795561 138.136522 
L 359.702318 148.052118 
L 352.726264 158.03176 
L 345.867396 168.075448 
L 339.125716 178.183182 
L 332.501223 188.354963 
L 325.993917 198.590789 
L 319.603799 208.890662 
L 313.330869 219.25458 
L 307.175125 229.682545 
L 301.136569 240.174556 
L 295.2152 250.730614 
L 289.411019 261.350717 
L 283.724025 272.034866 
L 278.154218 282.783062 
L 272.701599 293.595304 
L 267.366167 304.471592 
L 262.147922 315.411926 
L 257.046865 326.416306 
L 252.062995 337.484732 
L 247.196312 348.617205 
L 242.446817 359.813723 
L 237.814509 371.074288 
L 233.299388 382.398899 
L 228.901455 393.787556 
L 224.620709 405.240259 
L 220.457151 416.757008 
" clip-path="url(#p7c16970594)" style="fill: none; stroke: #75a025; stroke-opacity: 0.4; stroke-width: 4; stroke-linecap: round"/>
   </g>
   <g id="line2d_4">
    <path d="M 88.591034 431.273764 
L 96.660481 425.769803 
L 104.775812 420.361972 
L 112.937026 415.050271 
L 121.144123 409.8347 
L 129.397102 404.71526 
L 137.695965 399.69195 
L 146.04071 394.76477 
L 154.431338 389.933721 
L 162.867849 385.198802 
L 171.350243 380.560013 
L 179.87852 376.017355 
L 188.45268 371.570827 
L 197.072722 367.220429 
L 205.738648 362.966161 
L 214.450456 358.808024 
L 223.208148 354.746017 
L 232.011722 350.78014 
L 240.861179 346.910394 
L 249.756519 343.136778 
L 258.697742 339.459292 
L 267.684848 335.877937 
L 276.717837 332.392711 
L 285.796708 329.003617 
L 294.921463 325.710652 
L 304.0921 322.513818 
L 313.30862 319.413114 
L 322.571024 316.40854 
L 331.87931 313.500097 
L 341.233479 310.687784 
" clip-path="url(#p7c16970594)" style="fill: none; stroke: #75a025; stroke-opacity: 0.4; stroke-width: 4; stroke-linecap: round"/>
   </g>
   <g id="line2d_5">
    <path d="M 85.809061 420.612865 
L 90.799045 421.053504 
L 95.78547 421.43963 
L 100.768336 421.771245 
L 105.747643 422.048348 
L 110.723391 422.270939 
L 115.69558 422.439017 
L 120.66421 422.552583 
L 125.629281 422.611638 
L 130.590794 422.61618 
L 135.548747 422.56621 
L 140.503141 422.461728 
L 145.453977 422.302734 
L 150.401253 422.089228 
L 155.344971 421.82121 
L 160.285129 421.498679 
L 165.221729 421.121637 
L 170.154769 420.690082 
L 175.084251 420.204016 
L 180.010174 419.663437 
L 184.932538 419.068346 
L 189.851342 418.418743 
L 194.766588 417.714628 
L 199.678275 416.956001 
L 204.586403 416.142862 
L 209.490972 415.27521 
L 214.391982 414.353047 
L 219.289433 413.376372 
L 224.183325 412.345184 
L 229.073658 411.259484 
" clip-path="url(#p7c16970594)" style="fill: none; stroke: #75a025; stroke-opacity: 0.4; stroke-width: 4; stroke-linecap: round"/>
   </g>
   <g id="line2d_6">
    <path d="M 368.651192 163.201178 
L 315.368138 305.297183 
" clip-path="url(#p7c16970594)" style="fill: none; stroke-dasharray: 7.2,5.4; stroke-dashoffset: 0; stroke: #ff9400; stroke-width: 1.8"/>
   </g>
   <g id="line2d_7">
    <path d="M 360.460129 160.129699 
L 307.177075 302.225705 
" clip-path="url(#p7c16970594)" style="fill: none; stroke-dasharray: 7.2,5.4; stroke-dashoffset: 0; stroke: #ff9400; stroke-width: 1.8"/>
   </g>
   <g id="patch_2">
    <path d="M 245.348019 566.292892 
Q 267.569099 506.78088 289.207181 448.830242 
" clip-path="url(#p7c16970594)" style="fill: none; stroke: #0279ee; stroke-width: 2; stroke-linecap: round"/>
    <path d="M 280.787839 454.226044 
L 289.207181 448.830242 
L 292.029735 458.423635 
" clip-path="url(#p7c16970594)" style="fill: none; stroke: #0279ee; stroke-width: 2; stroke-linecap: round"/>
   </g>
   <g id="line2d_8">
    <path d="M 322.339713 435.719331 
L 336.378243 411.168337 
" clip-path="url(#p7c16970594)" style="fill: none; stroke: #222222; stroke-width: 2; stroke-linecap: round"/>
   </g>
   <g id="line2d_9">
    <path d="M 322.135723 386.735118 
L 336.378243 411.168337 
" clip-path="url(#p7c16970594)" style="fill: none; stroke: #222222; stroke-width: 2; stroke-linecap: round"/>
   </g>
   <g id="line2d_10">
    <path d="M 294.058665 435.837104 
L 322.339713 435.719331 
" clip-path="url(#p7c16970594)" style="fill: none; stroke: #222222; stroke-width: 2; stroke-linecap: round"/>
   </g>
   <g id="line2d_11">
    <path d="M 293.854675 386.852891 
L 322.135723 386.735118 
" clip-path="url(#p7c16970594)" style="fill: none; stroke: #222222; stroke-width: 2; stroke-linecap: round"/>
   </g>
   <g id="line2d_12">
    <path d="M 279.816145 411.403885 
L 293.854675 386.852891 
" clip-path="url(#p7c16970594)" style="fill: none; stroke: #222222; stroke-width: 2; stroke-linecap: round"/>
   </g>
   <g id="line2d_13">
    <path d="M 279.816145 411.403885 
L 294.058665 435.837104 
" clip-path="url(#p7c16970594)" style="fill: none; stroke: #222222; stroke-width: 2; stroke-linecap: round"/>
   </g>
   <g id="line2d_14">
    <path d="M 364.659291 411.050564 
L 378.697821 386.49957 
" clip-path="url(#p7c16970594)" style="fill: none; stroke: #222222; stroke-width: 2; stroke-linecap: round"/>
   </g>
   <g id="line2d_15">
    <path d="M 364.659291 411.050564 
L 336.378243 411.168337 
" clip-path="url(#p7c16970594)" style="fill: none; stroke: #222222; stroke-width: 2; stroke-linecap: round"/>
   </g>
   <g id="line2d_16">
    <path d="M 378.901811 435.483784 
L 364.659291 411.050564 
" clip-path="url(#p7c16970594)" style="fill: none; stroke: #222222; stroke-width: 2; stroke-linecap: round"/>
   </g>
   <g id="line2d_17">
    <path d="M 406.978869 386.381797 
L 378.697821 386.49957 
" clip-path="url(#p7c16970594)" style="fill: none; stroke: #222222; stroke-width: 2; stroke-linecap: round"/>
   </g>
   <g id="line2d_18">
    <path d="M 421.221389 410.815017 
L 406.978869 386.381797 
" clip-path="url(#p7c16970594)" style="fill: none; stroke: #222222; stroke-width: 2; stroke-linecap: round"/>
   </g>
   <g id="line2d_19">
    <path d="M 421.339162 439.096065 
L 421.221389 410.815017 
" clip-path="url(#p7c16970594)" style="fill: none; stroke: #222222; stroke-width: 2; stroke-linecap: round"/>
   </g>
   <g id="line2d_20">
    <path d="M 445.772382 424.853546 
L 421.221389 410.815017 
" clip-path="url(#p7c16970594)" style="fill: none; stroke: #222222; stroke-width: 2; stroke-linecap: round"/>
   </g>
   <g id="line2d_21">
    <path d="M 445.772382 424.853546 
L 421.339162 439.096065 
" clip-path="url(#p7c16970594)" style="fill: none; stroke: #222222; stroke-width: 2; stroke-linecap: round"/>
   </g>
   <g id="line2d_22">
    <path d="M 421.017399 361.830804 
L 406.978869 386.381797 
" clip-path="url(#p7c16970594)" style="fill: none; stroke: #222222; stroke-width: 2; stroke-linecap: round"/>
   </g>
   <g id="line2d_23">
    <path d="M 449.298447 361.71303 
L 421.017399 361.830804 
" clip-path="url(#p7c16970594)" style="fill: none; stroke: #222222; stroke-width: 2; stroke-linecap: round"/>
   </g>
   <g id="line2d_24">
    <path d="M 463.540967 386.14625 
L 449.298447 361.71303 
" clip-path="url(#p7c16970594)" style="fill: none; stroke: #222222; stroke-width: 2; stroke-linecap: round"/>
   </g>
   <g id="line2d_25">
    <path d="M 439.107747 400.388769 
L 463.540967 386.14625 
" clip-path="url(#p7c16970594)" style="fill: none; stroke: #222222; stroke-width: 2; stroke-linecap: round"/>
   </g>
   <g id="line2d_26">
    <path d="M 487.974186 371.90373 
L 463.540967 386.14625 
" clip-path="url(#p7c16970594)" style="fill: none; stroke: #222222; stroke-width: 2; stroke-linecap: round"/>
   </g>
   <g id="line2d_27">
    <path d="M 477.783486 410.579469 
L 463.540967 386.14625 
" clip-path="url(#p7c16970594)" style="fill: none; stroke: #222222; stroke-width: 2; stroke-linecap: round"/>
   </g>
   <g id="line2d_28">
    <path d="M 463.336977 337.162037 
L 449.298447 361.71303 
" clip-path="url(#p7c16970594)" style="fill: none; stroke: #222222; stroke-width: 2; stroke-linecap: round"/>
   </g>
   <g id="line2d_29">
    <path d="M 491.618025 337.044263 
L 463.336977 337.162037 
" clip-path="url(#p7c16970594)" style="fill: none; stroke: #222222; stroke-width: 2; stroke-linecap: round"/>
   </g>
   <g id="line2d_30">
    <path d="M 251.535097 411.521658 
L 279.816145 411.403885 
" clip-path="url(#p7c16970594)" style="fill: none; stroke: #222222; stroke-width: 2; stroke-linecap: round"/>
   </g>
   <g id="line2d_31">
    <path d="M 223.254048 411.639432 
L 251.535097 411.521658 
" clip-path="url(#p7c16970594)" style="fill: none; stroke: #222222; stroke-width: 2; stroke-linecap: round"/>
   </g>
   <g id="line2d_32">
    <path d="M 251.417323 383.24061 
L 251.535097 411.521658 
" clip-path="url(#p7c16970594)" style="fill: none; stroke: #222222; stroke-width: 2; stroke-linecap: round"/>
   </g>
   <g id="line2d_33">
    <path d="M 251.65287 439.802707 
L 251.535097 411.521658 
" clip-path="url(#p7c16970594)" style="fill: none; stroke: #222222; stroke-width: 2; stroke-linecap: round"/>
   </g>
   <g id="line2d_34">
    <path d="M 336.174253 362.184124 
L 322.135723 386.735118 
" clip-path="url(#p7c16970594)" style="fill: none; stroke: #222222; stroke-width: 2; stroke-linecap: round"/>
   </g>
   <g id="line2d_35">
    <path d="M 321.931734 337.750905 
L 336.174253 362.184124 
" clip-path="url(#p7c16970594)" style="fill: none; stroke: #222222; stroke-width: 2; stroke-linecap: round"/>
   </g>
   <g id="line2d_36">
    <path d="M 293.650685 337.868678 
L 321.931734 337.750905 
" clip-path="url(#p7c16970594)" style="fill: none; stroke: #222222; stroke-width: 2; stroke-linecap: round"/>
   </g>
   <g id="line2d_37">
    <path d="M 335.970263 313.199911 
L 321.931734 337.750905 
" clip-path="url(#p7c16970594)" style="fill: none; stroke: #222222; stroke-width: 2; stroke-linecap: round"/>
   </g>
   <g id="line2d_38">
    <path d="M 279.408166 313.435458 
L 293.650685 337.868678 
" clip-path="url(#p7c16970594)" style="fill: none; stroke: #222222; stroke-width: 2; stroke-linecap: round"/>
   </g>
   <g id="line2d_39">
    <path d="M 321.727744 288.766691 
L 335.970263 313.199911 
" clip-path="url(#p7c16970594)" style="fill: none; stroke: #222222; stroke-width: 2; stroke-linecap: round"/>
   </g>
   <g id="line2d_40">
    <path d="M 293.446695 288.884465 
L 279.408166 313.435458 
" clip-path="url(#p7c16970594)" style="fill: none; stroke: #222222; stroke-width: 2; stroke-linecap: round"/>
   </g>
   <g id="line2d_41">
    <path d="M 293.446695 288.884465 
L 321.727744 288.766691 
" clip-path="url(#p7c16970594)" style="fill: none; stroke: #222222; stroke-width: 2; stroke-linecap: round"/>
   </g>
   <g id="text_1">
    <g id="patch_3">
     <path d="M 289.48554 441.707964 
L 298.63179 441.707964 
L 298.63179 429.966245 
L 289.48554 429.966245 
z
" style="fill: #ffffff"/>
    </g>
    <text style="font-weight: 700; font-size: 12px; font-family: 'Liberation Sans', 'Arimo', 'DejaVu Sans'; text-anchor: middle; fill: #0879c0" x="294.058665" y="438.942573" transform="rotate(-0 294.058665 438.942573)">N</text>
   </g>
   <g id="text_2">
    <g id="patch_4">
     <path d="M 289.28155 392.723751 
L 298.4278 392.723751 
L 298.4278 380.982032 
L 289.28155 380.982032 
z
" style="fill: #ffffff"/>
    </g>
    <text style="font-weight: 700; font-size: 12px; font-family: 'Liberation Sans', 'Arimo', 'DejaVu Sans'; text-anchor: middle; fill: #0879c0" x="293.854675" y="389.95836" transform="rotate(-0 293.854675 389.95836)">N</text>
   </g>
   <g id="text_3">
    <g id="patch_5">
     <path d="M 374.124696 392.37043 
L 383.270946 392.37043 
L 383.270946 380.628711 
L 374.124696 380.628711 
z
" style="fill: #ffffff"/>
    </g>
    <text style="font-weight: 700; font-size: 12px; font-family: 'Liberation Sans', 'Arimo', 'DejaVu Sans'; text-anchor: middle; fill: #0879c0" x="378.697821" y="389.605039" transform="rotate(-0 378.697821 389.605039)">N</text>
   </g>
   <g id="text_4">
    <g id="patch_6">
     <path d="M 373.994936 441.354643 
L 383.808686 441.354643 
L 383.808686 429.612924 
L 373.994936 429.612924 
z
" style="fill: #ffffff"/>
    </g>
    <text style="font-weight: 700; font-size: 12px; font-family: 'Liberation Sans', 'Arimo', 'DejaVu Sans'; text-anchor: middle; fill: #d40000" x="378.901811" y="438.589252" transform="rotate(-0 378.901811 438.589252)">O</text>
   </g>
   <g id="text_5">
    <g id="patch_7">
     <path d="M 459.298779 392.017109 
L 467.783154 392.017109 
L 467.783154 380.27539 
L 459.298779 380.27539 
z
" style="fill: #ffffff"/>
    </g>
    <text style="font-weight: 700; font-size: 12px; font-family: 'Liberation Sans', 'Arimo', 'DejaVu Sans'; text-anchor: middle; fill: #b8860b" x="463.540967" y="389.251718" transform="rotate(-0 463.540967 389.251718)">S</text>
   </g>
   <g id="text_6">
    <g id="patch_8">
     <path d="M 434.200872 406.259628 
L 444.014622 406.259628 
L 444.014622 394.51791 
L 434.200872 394.51791 
z
" style="fill: #ffffff"/>
    </g>
    <text style="font-weight: 700; font-size: 12px; font-family: 'Liberation Sans', 'Arimo', 'DejaVu Sans'; text-anchor: middle; fill: #d40000" x="439.107747" y="403.494238" transform="rotate(-0 439.107747 403.494238)">O</text>
   </g>
   <g id="text_7">
    <g id="patch_9">
     <path d="M 483.067311 377.77459 
L 492.881061 377.77459 
L 492.881061 366.032871 
L 483.067311 366.032871 
z
" style="fill: #ffffff"/>
    </g>
    <text style="font-weight: 700; font-size: 12px; font-family: 'Liberation Sans', 'Arimo', 'DejaVu Sans'; text-anchor: middle; fill: #d40000" x="487.974186" y="375.009199" transform="rotate(-0 487.974186 375.009199)">O</text>
   </g>
   <g id="text_8">
    <g id="patch_10">
     <path d="M 459.094789 343.032896 
L 467.579164 343.032896 
L 467.579164 331.291177 
L 459.094789 331.291177 
z
" style="fill: #ffffff"/>
    </g>
    <text style="font-weight: 700; font-size: 12px; font-family: 'Liberation Sans', 'Arimo', 'DejaVu Sans'; text-anchor: middle; fill: #b8860b" x="463.336977" y="340.267505" transform="rotate(-0 463.336977 340.267505)">S</text>
   </g>
   <g id="text_9">
    <g id="patch_11">
     <path d="M 247.512636 389.111469 
L 255.322011 389.111469 
L 255.322011 377.36975 
L 247.512636 377.36975 
z
" style="fill: #ffffff"/>
    </g>
    <text style="font-weight: 700; font-size: 12px; font-family: 'Liberation Sans', 'Arimo', 'DejaVu Sans'; text-anchor: middle; fill: #00a040" x="251.417323" y="386.346078" transform="rotate(-0 251.417323 386.346078)">F</text>
   </g>
   <g id="text_10">
    <g id="patch_12">
     <path d="M 247.748183 445.673566 
L 255.557558 445.673566 
L 255.557558 433.931847 
L 247.748183 433.931847 
z
" style="fill: #ffffff"/>
    </g>
    <text style="font-weight: 700; font-size: 12px; font-family: 'Liberation Sans', 'Arimo', 'DejaVu Sans'; text-anchor: middle; fill: #00a040" x="251.65287" y="442.908176" transform="rotate(-0 251.65287 442.908176)">F</text>
   </g>
   <g id="text_11">
    <g id="patch_13">
     <path d="M 331.267378 368.054984 
L 341.081128 368.054984 
L 341.081128 356.313265 
L 331.267378 356.313265 
z
" style="fill: #ffffff"/>
    </g>
    <text style="font-weight: 700; font-size: 12px; font-family: 'Liberation Sans', 'Arimo', 'DejaVu Sans'; text-anchor: middle; fill: #d40000" x="336.174253" y="365.289593" transform="rotate(-0 336.174253 365.289593)">O</text>
   </g>
   <g id="patch_14">
    <path d="M 177.04069 242.268154 
C 184.387346 242.268154 191.434091 239.349296 196.628962 234.154426 
C 201.823832 228.959555 204.74269 221.91281 204.74269 214.566154 
C 204.74269 207.219497 201.823832 200.172752 196.628962 194.977882 
C 191.434091 189.783011 184.387346 186.864154 177.04069 186.864154 
C 169.694034 186.864154 162.647288 189.783011 157.452418 194.977882 
C 152.257547 200.172752 149.33869 207.219497 149.33869 214.566154 
C 149.33869 221.91281 152.257547 228.959555 157.452418 234.154426 
C 162.647288 239.349296 169.694034 242.268154 177.04069 242.268154 
z
" clip-path="url(#p7c16970594)" style="fill: #8bc34a; stroke: #222222; stroke-width: 1.2; stroke-linejoin: miter"/>
   </g>
   <g id="patch_15">
    <path d="M 581.498855 520.715254 
C 588.845511 520.715254 595.892257 517.796396 601.087127 512.601526 
C 606.281998 507.406655 609.200855 500.35991 609.200855 493.013254 
C 609.200855 485.666598 606.281998 478.619852 601.087127 473.424982 
C 595.892257 468.230111 588.845511 465.311254 581.498855 465.311254 
C 574.152199 465.311254 567.105454 468.230111 561.910583 473.424982 
C 556.715713 478.619852 553.796855 485.666598 553.796855 493.013254 
C 553.796855 500.35991 556.715713 507.406655 561.910583 512.601526 
C 567.105454 517.796396 574.152199 520.715254 581.498855 520.715254 
z
" clip-path="url(#p7c16970594)" style="fill: #8bc34a; stroke: #222222; stroke-width: 1.2; stroke-linejoin: miter"/>
   </g>
   <g id="patch_16">
    <path d="M 374.793923 162.063893 
C 382.14058 162.063893 389.187325 159.145036 394.382195 153.950166 
C 399.577066 148.755295 402.495923 141.70855 402.495923 134.361893 
C 402.495923 127.015237 399.577066 119.968492 394.382195 114.773621 
C 389.187325 109.578751 382.14058 106.659893 374.793923 106.659893 
C 367.447267 106.659893 360.400522 109.578751 355.205651 114.773621 
C 350.010781 119.968492 347.091923 127.015237 347.091923 134.361893 
C 347.091923 141.70855 350.010781 148.755295 355.205651 153.950166 
C 360.400522 159.145036 367.447267 162.063893 374.793923 162.063893 
z
" clip-path="url(#p7c16970594)" style="fill: #f5a623; stroke: #222222; stroke-width: 1.2; stroke-linejoin: miter"/>
   </g>
   <g id="patch_17">
    <path d="M 114.907112 446.415127 
C 122.253768 446.415127 129.300514 443.49627 134.495384 438.301399 
C 139.690255 433.106529 142.609112 426.059783 142.609112 418.713127 
C 142.609112 411.366471 139.690255 404.319725 134.495384 399.124855 
C 129.300514 393.929985 122.253768 391.011127 114.907112 391.011127 
C 107.560456 391.011127 100.51371 393.929985 95.31884 399.124855 
C 90.12397 404.319725 87.205112 411.366471 87.205112 418.713127 
C 87.205112 426.059783 90.12397 433.106529 95.31884 438.301399 
C 100.51371 443.49627 107.560456 446.415127 114.907112 446.415127 
z
" clip-path="url(#p7c16970594)" style="fill: #8bc34a; stroke: #222222; stroke-width: 1.2; stroke-linejoin: miter"/>
   </g>
   <g id="patch_18">
    <path d="M 234.446989 623.189793 
C 241.793645 623.189793 248.84039 620.270936 254.035261 615.076065 
C 259.230131 609.881195 262.148989 602.83445 262.148989 595.487793 
C 262.148989 588.141137 259.230131 581.094392 254.035261 575.899521 
C 248.84039 570.704651 241.793645 567.785793 234.446989 567.785793 
C 227.100332 567.785793 220.053587 570.704651 214.858717 575.899521 
C 209.663846 581.094392 206.744989 588.141137 206.744989 595.487793 
C 206.744989 602.83445 209.663846 609.881195 214.858717 615.076065 
C 220.053587 620.270936 227.100332 623.189793 234.446989 623.189793 
z
" clip-path="url(#p7c16970594)" style="fill: #5087c5; stroke: #222222; stroke-width: 1.2; stroke-linejoin: miter"/>
   </g>
   <g id="text_12">
    <text style="font-weight: 700; font-size: 9.5px; font-family: 'Liberation Sans', 'Arimo', 'DejaVu Sans'; text-anchor: middle; fill: #222222" x="177.04069" y="217.02465" transform="rotate(-0 177.04069 217.02465)">V570</text>
   </g>
   <g id="text_13">
    <text style="font-weight: 700; font-size: 9.5px; font-family: 'Liberation Sans', 'Arimo', 'DejaVu Sans'; text-anchor: middle; fill: #222222" x="581.498855" y="495.47175" transform="rotate(-0 581.498855 495.47175)">A706</text>
   </g>
   <g id="text_14">
    <text style="font-weight: 700; font-size: 9.5px; font-family: 'Liberation Sans', 'Arimo', 'DejaVu Sans'; text-anchor: middle; fill: #222222" x="374.793923" y="136.82039" transform="rotate(-0 374.793923 136.82039)">Y849</text>
   </g>
   <g id="text_15">
    <text style="font-weight: 700; font-size: 9.5px; font-family: 'Liberation Sans', 'Arimo', 'DejaVu Sans'; text-anchor: middle; fill: #222222" x="114.907112" y="421.171623" transform="rotate(-0 114.907112 421.171623)">F917</text>
   </g>
   <g id="text_16">
    <text style="font-weight: 700; font-size: 9.5px; font-family: 'Liberation Sans', 'Arimo', 'DejaVu Sans'; text-anchor: middle; fill: #ffffff" x="234.446989" y="597.946289" transform="rotate(-0 234.446989 597.946289)">K898</text>
   </g>
  </g>
  <g id="patch_19">
   <path d="M 130.640391 714.42 
Q 135.83969 714.42 138.914724 714.42 
" style="fill: none; stroke: #0279ee; stroke-width: 1.9; stroke-linecap: round"/>
   <path d="M 134.114724 712.02 
L 138.914724 714.42 
L 134.114724 716.82 
" style="fill: none; stroke: #0279ee; stroke-width: 1.9; stroke-linecap: round"/>
  </g>
  <g id="patch_20">
   <path d="M 92.16 743.148 
C 93.68757 743.148 95.15278 742.510745 96.232935 741.376582 
C 97.31309 740.242419 97.92 738.703948 97.92 737.1 
C 97.92 735.496052 97.31309 733.957581 96.232935 732.823418 
C 95.15278 731.689255 93.68757 731.052 92.16 731.052 
C 90.63243 731.052 89.16722 731.689255 88.087065 732.823418 
C 87.00691 733.957581 86.4 735.496052 86.4 737.1 
C 86.4 738.703948 87.00691 740.242419 88.087065 741.376582 
C 89.16722 742.510745 90.63243 743.148 92.16 743.148 
z
" style="fill: #5087c5; stroke: #222222; stroke-width: 0.8; stroke-linejoin: miter"/>
  </g>
  <g id="patch_21">
   <path d="M 218.88 743.148 
C 220.40757 743.148 221.87278 742.510745 222.952935 741.376582 
C 224.03309 740.242419 224.64 738.703948 224.64 737.1 
C 224.64 735.496052 224.03309 733.957581 222.952935 732.823418 
C 221.87278 731.689255 220.40757 731.052 218.88 731.052 
C 217.35243 731.052 215.88722 731.689255 214.807065 732.823418 
C 213.72691 733.957581 213.12 735.496052 213.12 737.1 
C 213.12 738.703948 213.72691 740.242419 214.807065 741.376582 
C 215.88722 742.510745 217.35243 743.148 218.88 743.148 
z
" style="fill: #d9584c; stroke: #222222; stroke-width: 0.8; stroke-linejoin: miter"/>
  </g>
  <g id="patch_22">
   <path d="M 345.6 743.148 
C 347.12757 743.148 348.59278 742.510745 349.672935 741.376582 
C 350.75309 740.242419 351.36 738.703948 351.36 737.1 
C 351.36 735.496052 350.75309 733.957581 349.672935 732.823418 
C 348.59278 731.689255 347.12757 731.052 345.6 731.052 
C 344.07243 731.052 342.60722 731.689255 341.527065 732.823418 
C 340.44691 733.957581 339.84 735.496052 339.84 737.1 
C 339.84 738.703948 340.44691 740.242419 341.527065 741.376582 
C 342.60722 742.510745 344.07243 743.148 345.6 743.148 
z
" style="fill: #f5a623; stroke: #222222; stroke-width: 0.8; stroke-linejoin: miter"/>
  </g>
  <g id="patch_23">
   <path d="M 472.32 743.148 
C 473.84757 743.148 475.31278 742.510745 476.392935 741.376582 
C 477.47309 740.242419 478.08 738.703948 478.08 737.1 
C 478.08 735.496052 477.47309 733.957581 476.392935 732.823418 
C 475.31278 731.689255 473.84757 731.052 472.32 731.052 
C 470.79243 731.052 469.32722 731.689255 468.247065 732.823418 
C 467.16691 733.957581 466.56 735.496052 466.56 737.1 
C 466.56 738.703948 467.16691 740.242419 468.247065 741.376582 
C 469.32722 742.510745 470.79243 743.148 472.32 743.148 
z
" style="fill: #8bc34a; stroke: #222222; stroke-width: 0.8; stroke-linejoin: miter"/>
  </g>
  <g id="patch_24">
   <path d="M 599.04 743.148 
C 600.56757 743.148 602.03278 742.510745 603.112935 741.376582 
C 604.19309 740.242419 604.8 738.703948 604.8 737.1 
C 604.8 735.496052 604.19309 733.957581 603.112935 732.823418 
C 602.03278 731.689255 600.56757 731.052 599.04 731.052 
C 597.51243 731.052 596.04722 731.689255 594.967065 732.823418 
C 593.88691 733.957581 593.28 735.496052 593.28 737.1 
C 593.28 738.703948 593.88691 740.242419 594.967065 741.376582 
C 596.04722 742.510745 597.51243 743.148 599.04 743.148 
z
" style="fill: #ffffff; stroke: #dc3912; stroke-width: 2.5; stroke-linejoin: miter"/>
  </g>
  <g id="line2d_42">
   <path d="M 339.84 714.42 
L 354.24 714.42 
" style="fill: none; stroke: #75a025; stroke-opacity: 0.4; stroke-width: 4; stroke-linecap: square"/>
  </g>
  <g id="line2d_43">
   <path d="M 551.04 710.64 
L 565.44 710.64 
" style="fill: none; stroke-dasharray: 7.2,5.4; stroke-dashoffset: 0; stroke: #ff9400; stroke-width: 1.8"/>
  </g>
  <g id="line2d_44">
   <path d="M 551.04 718.2 
L 565.44 718.2 
" style="fill: none; stroke-dasharray: 7.2,5.4; stroke-dashoffset: 0; stroke: #ff9400; stroke-width: 1.8"/>
  </g>
  <g id="text_17">
   <text style="font-weight: 700; font-size: 14px; font-family: 'Liberation Sans', 'Arimo', 'DejaVu Sans'; text-anchor: middle" x="360" y="21.532383" transform="rotate(-0 360 21.532383)">WT × 7GQU · VVD-214_cov — REFERENCE WT</text>
  </g>
  <g id="text_18">
   <text style="font-size: 10.5px; font-family: 'Liberation Sans', 'Arimo', 'DejaVu Sans'; text-anchor: middle" x="360" y="40.152287" transform="rotate(-0 360 40.152287)">(no comparative metrics — WT reference)</text>
  </g>
  <g id="text_19">
   <text style="font-size: 10.5px; font-family: 'Liberation Sans', 'Arimo', 'DejaVu Sans'; text-anchor: middle" x="360" y="61.320287" transform="rotate(-0 360 61.320287)">PLIP: 5 hydrophobic · 1 H-bond · 1 π-stack</text>
  </g>
  <g id="text_20">
   <text style="font-size: 8.5px; font-family: 'Liberation Sans', 'Arimo', 'DejaVu Sans'; text-anchor: start" x="146.64" y="716.619707" transform="rotate(-0 146.64 716.619707)">H-bond</text>
  </g>
  <g id="text_21">
   <text style="font-size: 8.5px; font-family: 'Liberation Sans', 'Arimo', 'DejaVu Sans'; text-anchor: start" x="357.84" y="716.619707" transform="rotate(-0 357.84 716.619707)">Hydrophobic</text>
  </g>
  <g id="text_22">
   <text style="font-size: 8.5px; font-family: 'Liberation Sans', 'Arimo', 'DejaVu Sans'; text-anchor: start" x="569.04" y="716.619707" transform="rotate(-0 569.04 716.619707)">π-stack</text>
  </g>
  <g id="text_23">
   <text style="font-size: 8px; font-family: 'Liberation Sans', 'Arimo', 'DejaVu Sans'; text-anchor: start" x="100.8" y="739.170313" transform="rotate(-0 100.8 739.170313)">Basic</text>
  </g>
  <g id="text_24">
   <text style="font-size: 8px; font-family: 'Liberation Sans', 'Arimo', 'DejaVu Sans'; text-anchor: start" x="227.52" y="739.170313" transform="rotate(-0 227.52 739.170313)">Acidic</text>
  </g>
  <g id="text_25">
   <text style="font-size: 8px; font-family: 'Liberation Sans', 'Arimo', 'DejaVu Sans'; text-anchor: start" x="354.24" y="739.170313" transform="rotate(-0 354.24 739.170313)">Polar</text>
  </g>
  <g id="text_26">
   <text style="font-size: 8px; font-family: 'Liberation Sans', 'Arimo', 'DejaVu Sans'; text-anchor: start" x="480.96" y="739.170313" transform="rotate(-0 480.96 739.170313)">Hydrophobic</text>
  </g>
  <g id="text_27">
   <text style="font-size: 8px; font-family: 'Liberation Sans', 'Arimo', 'DejaVu Sans'; text-anchor: start" x="607.68" y="739.170313" transform="rotate(-0 607.68 739.170313)">Mutation site</text>
  </g>
 </g>
 <defs>
  <clipPath id="p7c16970594">
   <rect x="53.82" y="75.6" width="612.36" height="612.36"/>
  </clipPath>
 </defs>
</svg>
