<?xml version="1.0" encoding="utf-8" standalone="no"?>
<!DOCTYPE svg PUBLIC "-//W3C//DTD SVG 1.1//EN"
  "http://www.w3.org/Graphics/SVG/1.1/DTD/svg11.dtd">
<svg xmlns:xlink="http://www.w3.org/1999/xlink" width="720pt" height="756pt" viewBox="0 0 720 756" xmlns="http://www.w3.org/2000/svg" version="1.1">
 <metadata>
  <rdf:RDF xmlns:dc="http://purl.org/dc/elements/1.1/" xmlns:cc="http://creativecommons.org/ns#" xmlns:rdf="http://www.w3.org/1999/02/22-rdf-syntax-ns#">
   <cc:Work>
    <dc:type rdf:resource="http://purl.org/dc/dcmitype/StillImage"/>
    <dc:date>2022-01-01T05:00:00+00:00</dc:date>
    <dc:format>image/svg+xml</dc:format>
    <dc:creator>
     <cc:Agent>
      <dc:title>Matplotlib v3.11.0, https://matplotlib.org/</dc:title>
     </cc:Agent>
    </dc:creator>
   </cc:Work>
  </rdf:RDF>
 </metadata>
 <defs>
  <style type="text/css">*{stroke-linejoin: round; stroke-linecap: butt}</style>
 </defs>
 <g id="figure_1">
  <g id="patch_1">
   <path d="M 0 756 
L 720 756 
L 720 0 
L 0 0 
z
" style="fill: #ffffff"/>
  </g>
  <g id="axes_1">
   <g id="line2d_1">
    <path d="M 143.639335 552.29527 
L 150.664052 550.836056 
L 157.661347 549.303565 
L 164.631221 547.697795 
L 171.573672 546.018748 
L 178.488702 544.266422 
L 185.376309 542.440819 
L 192.236495 540.541938 
L 199.069259 538.569779 
L 205.874601 536.524342 
L 212.652522 534.405627 
L 219.40302 532.213634 
L 226.126097 529.948363 
L 232.821752 527.609814 
L 239.489984 525.197988 
L 246.130796 522.712883 
L 252.744185 520.154501 
L 259.330152 517.52284 
L 265.888698 514.817902 
L 272.419822 512.039686 
L 278.923524 509.188192 
L 285.399804 506.26342 
L 291.848662 503.26537 
L 298.270098 500.194042 
L 304.664113 497.049436 
L 311.030705 493.831552 
L 317.369876 490.540391 
L 323.681625 487.175951 
L 329.965952 483.738234 
L 336.222858 480.227238 
" clip-path="url(#pb787f22172)" style="fill: none; stroke: #75a025; stroke-opacity: 0.4; stroke-width: 4; stroke-linecap: round"/>
   </g>
   <g id="line2d_2">
    <path d="M 84.879069 380.707029 
L 92.739664 385.007083 
L 100.633516 389.215262 
L 108.560623 393.331566 
L 116.520986 397.355995 
L 124.514605 401.288549 
L 132.54148 405.129228 
L 140.60161 408.878032 
L 148.694996 412.534961 
L 156.821638 416.100015 
L 164.981536 419.573193 
L 173.174689 422.954497 
L 181.401098 426.243926 
L 189.660763 429.441479 
L 197.953684 432.547158 
L 206.27986 435.560961 
L 214.639292 438.48289 
L 223.03198 441.312943 
L 231.457924 444.051121 
L 239.917124 446.697425 
L 248.409579 449.251853 
L 256.93529 451.714406 
L 265.494257 454.085084 
L 274.086479 456.363887 
L 282.711957 458.550815 
L 291.370691 460.645868 
L 300.062681 462.649046 
L 308.787927 464.560349 
L 317.546428 466.379777 
L 326.338185 468.10733 
" clip-path="url(#pb787f22172)" style="fill: none; stroke: #75a025; stroke-opacity: 0.4; stroke-width: 4; stroke-linecap: round"/>
   </g>
   <g id="line2d_3">
    <path d="M 516.996825 158.718184 
L 517.4144 165.899314 
L 517.753886 173.072988 
L 518.015284 180.239207 
L 518.198593 187.39797 
L 518.303814 194.549278 
L 518.330947 201.69313 
L 518.279992 208.829526 
L 518.150948 215.958467 
L 517.943816 223.079952 
L 517.658596 230.193982 
L 517.295288 237.300556 
L 516.853891 244.399675 
L 516.334406 251.491338 
L 515.736832 258.575545 
L 515.061171 265.652297 
L 514.307421 272.721593 
L 513.475582 279.783434 
L 512.565656 286.837819 
L 511.577641 293.884749 
L 510.511538 300.924222 
L 509.367346 307.956241 
L 508.145066 314.980804 
L 506.844698 321.997911 
L 505.466242 329.007562 
L 504.009697 336.009758 
L 502.475064 343.004499 
L 500.862343 349.991784 
L 499.171533 356.971613 
L 497.402636 363.943987 
" clip-path="url(#pb787f22172)" style="fill: none; stroke: #75a025; stroke-opacity: 0.4; stroke-width: 4; stroke-linecap: round"/>
   </g>
   <g id="patch_2">
    <path d="M 317.258569 594.222312 
Q 331.690225 526.573467 345.774152 460.554611 
" clip-path="url(#pb787f22172)" style="fill: none; stroke: #0279ee; stroke-width: 2; stroke-linecap: round"/>
    <path d="M 338.237097 467.126733 
L 345.774152 460.554611 
L 349.973014 469.630379 
" clip-path="url(#pb787f22172)" style="fill: none; stroke: #0279ee; stroke-width: 2; stroke-linecap: round"/>
   </g>
   <g id="patch_3">
    <path d="M 457.890123 575.110309 
Q 424.107724 506.769397 391.063886 439.922575 
" clip-path="url(#pb787f22172)" style="fill: none; stroke: #0279ee; stroke-width: 2; stroke-linecap: round"/>
    <path d="M 389.230256 449.753027 
L 391.063886 439.922575 
L 399.987704 444.435386 
" clip-path="url(#pb787f22172)" style="fill: none; stroke: #0279ee; stroke-width: 2; stroke-linecap: round"/>
   </g>
   <g id="patch_4">
    <path d="M 559.511167 468.054111 
Q 509.443155 431.551848 460.721895 396.031439 
" clip-path="url(#pb787f22172)" style="fill: none; stroke: #0279ee; stroke-width: 2; stroke-linecap: round"/>
    <path d="M 463.651628 405.592645 
L 460.721895 396.031439 
L 470.720978 395.896033 
" clip-path="url(#pb787f22172)" style="fill: none; stroke: #0279ee; stroke-width: 2; stroke-linecap: round"/>
   </g>
   <g id="patch_5">
    <path d="M 374.997023 161.761583 
Q 417.081297 245.464123 458.4169 327.677614 
" clip-path="url(#pb787f22172)" style="fill: none; stroke: #0279ee; stroke-width: 2; stroke-linecap: round"/>
    <path d="M 460.183864 317.83496 
L 458.4169 327.677614 
L 449.462702 323.225385 
" clip-path="url(#pb787f22172)" style="fill: none; stroke: #0279ee; stroke-width: 2; stroke-linecap: round"/>
   </g>
   <g id="line2d_4">
    <path d="M 574.084298 335.497202 
L 475.16266 374.230102 
" clip-path="url(#pb787f22172)" style="fill: none; stroke-dasharray: 9.6,7.2; stroke-dashoffset: 0; stroke: #fd9bed; stroke-width: 2.4"/>
   </g>
   <g id="line2d_5">
    <path d="M 367.756447 399.512557 
L 351.102814 390.480428 
" clip-path="url(#pb787f22172)" style="fill: none; stroke: #222222; stroke-width: 2; stroke-linecap: round"/>
   </g>
   <g id="line2d_6">
    <path d="M 368.26121 418.451091 
L 367.756447 399.512557 
" clip-path="url(#pb787f22172)" style="fill: none; stroke: #222222; stroke-width: 2; stroke-linecap: round"/>
   </g>
   <g id="line2d_7">
    <path d="M 384.914843 427.48322 
L 368.26121 418.451091 
" clip-path="url(#pb787f22172)" style="fill: none; stroke: #222222; stroke-width: 2; stroke-linecap: round"/>
   </g>
   <g id="line2d_8">
    <path d="M 352.11234 428.357496 
L 368.26121 418.451091 
" clip-path="url(#pb787f22172)" style="fill: none; stroke: #222222; stroke-width: 2; stroke-linecap: round"/>
   </g>
   <g id="line2d_9">
    <path d="M 348.66853 446.987124 
L 352.11234 428.357496 
" clip-path="url(#pb787f22172)" style="fill: none; stroke: #222222; stroke-width: 2; stroke-linecap: round"/>
   </g>
   <g id="line2d_10">
    <path d="M 329.886506 449.468737 
L 348.66853 446.987124 
" clip-path="url(#pb787f22172)" style="fill: none; stroke: #222222; stroke-width: 2; stroke-linecap: round"/>
   </g>
   <g id="line2d_11">
    <path d="M 321.722386 432.372831 
L 329.886506 449.468737 
" clip-path="url(#pb787f22172)" style="fill: none; stroke: #222222; stroke-width: 2; stroke-linecap: round"/>
   </g>
   <g id="line2d_12">
    <path d="M 335.458707 419.325367 
L 321.722386 432.372831 
" clip-path="url(#pb787f22172)" style="fill: none; stroke: #222222; stroke-width: 2; stroke-linecap: round"/>
   </g>
   <g id="line2d_13">
    <path d="M 335.458707 419.325367 
L 352.11234 428.357496 
" clip-path="url(#pb787f22172)" style="fill: none; stroke: #222222; stroke-width: 2; stroke-linecap: round"/>
   </g>
   <g id="line2d_14">
    <path d="M 334.953944 400.386833 
L 351.102814 390.480428 
" clip-path="url(#pb787f22172)" style="fill: none; stroke: #222222; stroke-width: 2; stroke-linecap: round"/>
   </g>
   <g id="line2d_15">
    <path d="M 334.953944 400.386833 
L 335.458707 419.325367 
" clip-path="url(#pb787f22172)" style="fill: none; stroke: #222222; stroke-width: 2; stroke-linecap: round"/>
   </g>
   <g id="line2d_16">
    <path d="M 383.905317 389.606153 
L 367.756447 399.512557 
" clip-path="url(#pb787f22172)" style="fill: none; stroke: #222222; stroke-width: 2; stroke-linecap: round"/>
   </g>
   <g id="line2d_17">
    <path d="M 400.55895 398.638282 
L 383.905317 389.606153 
" clip-path="url(#pb787f22172)" style="fill: none; stroke: #222222; stroke-width: 2; stroke-linecap: round"/>
   </g>
   <g id="line2d_18">
    <path d="M 416.70782 388.731877 
L 400.55895 398.638282 
" clip-path="url(#pb787f22172)" style="fill: none; stroke: #222222; stroke-width: 2; stroke-linecap: round"/>
   </g>
   <g id="line2d_19">
    <path d="M 416.203057 369.793343 
L 416.70782 388.731877 
" clip-path="url(#pb787f22172)" style="fill: none; stroke: #222222; stroke-width: 2; stroke-linecap: round"/>
   </g>
   <g id="line2d_20">
    <path d="M 432.351926 359.886939 
L 416.203057 369.793343 
" clip-path="url(#pb787f22172)" style="fill: none; stroke: #222222; stroke-width: 2; stroke-linecap: round"/>
   </g>
   <g id="line2d_21">
    <path d="M 431.847163 340.948405 
L 432.351926 359.886939 
" clip-path="url(#pb787f22172)" style="fill: none; stroke: #222222; stroke-width: 2; stroke-linecap: round"/>
   </g>
   <g id="line2d_22">
    <path d="M 399.549424 360.761214 
L 416.203057 369.793343 
" clip-path="url(#pb787f22172)" style="fill: none; stroke: #222222; stroke-width: 2; stroke-linecap: round"/>
   </g>
   <g id="line2d_23">
    <path d="M 383.400554 370.667619 
L 399.549424 360.761214 
" clip-path="url(#pb787f22172)" style="fill: none; stroke: #222222; stroke-width: 2; stroke-linecap: round"/>
   </g>
   <g id="line2d_24">
    <path d="M 383.400554 370.667619 
L 383.905317 389.606153 
" clip-path="url(#pb787f22172)" style="fill: none; stroke: #222222; stroke-width: 2; stroke-linecap: round"/>
   </g>
   <g id="line2d_25">
    <path d="M 449.00556 368.919068 
L 432.351926 359.886939 
" clip-path="url(#pb787f22172)" style="fill: none; stroke: #222222; stroke-width: 2; stroke-linecap: round"/>
   </g>
   <g id="line2d_26">
    <path d="M 449.510323 387.857602 
L 449.00556 368.919068 
" clip-path="url(#pb787f22172)" style="fill: none; stroke: #222222; stroke-width: 2; stroke-linecap: round"/>
   </g>
   <g id="line2d_27">
    <path d="M 466.163956 396.889731 
L 449.510323 387.857602 
" clip-path="url(#pb787f22172)" style="fill: none; stroke: #222222; stroke-width: 2; stroke-linecap: round"/>
   </g>
   <g id="line2d_28">
    <path d="M 482.312826 386.983326 
L 466.163956 396.889731 
" clip-path="url(#pb787f22172)" style="fill: none; stroke: #222222; stroke-width: 2; stroke-linecap: round"/>
   </g>
   <g id="line2d_29">
    <path d="M 481.808063 368.044793 
L 482.312826 386.983326 
" clip-path="url(#pb787f22172)" style="fill: none; stroke: #222222; stroke-width: 2; stroke-linecap: round"/>
   </g>
   <g id="line2d_30">
    <path d="M 497.956932 358.138388 
L 481.808063 368.044793 
" clip-path="url(#pb787f22172)" style="fill: none; stroke: #222222; stroke-width: 2; stroke-linecap: round"/>
   </g>
   <g id="line2d_31">
    <path d="M 465.154429 359.012663 
L 481.808063 368.044793 
" clip-path="url(#pb787f22172)" style="fill: none; stroke: #222222; stroke-width: 2; stroke-linecap: round"/>
   </g>
   <g id="line2d_32">
    <path d="M 465.154429 359.012663 
L 449.00556 368.919068 
" clip-path="url(#pb787f22172)" style="fill: none; stroke: #222222; stroke-width: 2; stroke-linecap: round"/>
   </g>
   <g id="line2d_33">
    <path d="M 464.649666 340.074129 
L 465.154429 359.012663 
" clip-path="url(#pb787f22172)" style="fill: none; stroke: #222222; stroke-width: 2; stroke-linecap: round"/>
   </g>
   <g id="line2d_34">
    <path d="M 320.854376 466.12237 
L 329.886506 449.468737 
" clip-path="url(#pb787f22172)" style="fill: none; stroke: #222222; stroke-width: 2; stroke-linecap: round"/>
   </g>
   <g id="line2d_35">
    <path d="M 301.915843 466.627134 
L 320.854376 466.12237 
" clip-path="url(#pb787f22172)" style="fill: none; stroke: #222222; stroke-width: 2; stroke-linecap: round"/>
   </g>
   <g id="line2d_36">
    <path d="M 292.883713 483.280767 
L 301.915843 466.627134 
" clip-path="url(#pb787f22172)" style="fill: none; stroke: #222222; stroke-width: 2; stroke-linecap: round"/>
   </g>
   <g id="line2d_37">
    <path d="M 302.790118 499.429637 
L 292.883713 483.280767 
" clip-path="url(#pb787f22172)" style="fill: none; stroke: #222222; stroke-width: 2; stroke-linecap: round"/>
   </g>
   <g id="line2d_38">
    <path d="M 321.728652 498.924873 
L 302.790118 499.429637 
" clip-path="url(#pb787f22172)" style="fill: none; stroke: #222222; stroke-width: 2; stroke-linecap: round"/>
   </g>
   <g id="line2d_39">
    <path d="M 330.760781 482.27124 
L 320.854376 466.12237 
" clip-path="url(#pb787f22172)" style="fill: none; stroke: #222222; stroke-width: 2; stroke-linecap: round"/>
   </g>
   <g id="line2d_40">
    <path d="M 330.760781 482.27124 
L 321.728652 498.924873 
" clip-path="url(#pb787f22172)" style="fill: none; stroke: #222222; stroke-width: 2; stroke-linecap: round"/>
   </g>
   <g id="line2d_41">
    <path d="M 350.598051 371.541894 
L 366.746921 361.635489 
" clip-path="url(#pb787f22172)" style="fill: none; stroke: #222222; stroke-width: 2; stroke-linecap: round"/>
   </g>
   <g id="line2d_42">
    <path d="M 350.598051 371.541894 
L 351.102814 390.480428 
" clip-path="url(#pb787f22172)" style="fill: none; stroke: #222222; stroke-width: 2; stroke-linecap: round"/>
   </g>
   <g id="line2d_43">
    <path d="M 318.300311 391.354703 
L 334.953944 400.386833 
" clip-path="url(#pb787f22172)" style="fill: none; stroke: #222222; stroke-width: 2; stroke-linecap: round"/>
   </g>
   <g id="line2d_44">
    <path d="M 317.795548 372.41617 
L 318.300311 391.354703 
" clip-path="url(#pb787f22172)" style="fill: none; stroke: #222222; stroke-width: 2; stroke-linecap: round"/>
   </g>
   <g id="line2d_45">
    <path d="M 333.944418 362.509765 
L 317.795548 372.41617 
" clip-path="url(#pb787f22172)" style="fill: none; stroke: #222222; stroke-width: 2; stroke-linecap: round"/>
   </g>
   <g id="line2d_46">
    <path d="M 301.141915 363.38404 
L 317.795548 372.41617 
" clip-path="url(#pb787f22172)" style="fill: none; stroke: #222222; stroke-width: 2; stroke-linecap: round"/>
   </g>
   <g id="line2d_47">
    <path d="M 300.637152 344.445506 
L 301.141915 363.38404 
" clip-path="url(#pb787f22172)" style="fill: none; stroke: #222222; stroke-width: 2; stroke-linecap: round"/>
   </g>
   <g id="line2d_48">
    <path d="M 316.786021 334.539102 
L 300.637152 344.445506 
" clip-path="url(#pb787f22172)" style="fill: none; stroke: #222222; stroke-width: 2; stroke-linecap: round"/>
   </g>
   <g id="line2d_49">
    <path d="M 316.281258 315.600568 
L 316.786021 334.539102 
" clip-path="url(#pb787f22172)" style="fill: none; stroke: #222222; stroke-width: 2; stroke-linecap: round"/>
   </g>
   <g id="line2d_50">
    <path d="M 299.627625 306.568439 
L 316.281258 315.600568 
" clip-path="url(#pb787f22172)" style="fill: none; stroke: #222222; stroke-width: 2; stroke-linecap: round"/>
   </g>
   <g id="line2d_51">
    <path d="M 283.478755 316.474843 
L 299.627625 306.568439 
" clip-path="url(#pb787f22172)" style="fill: none; stroke: #222222; stroke-width: 2; stroke-linecap: round"/>
   </g>
   <g id="line2d_52">
    <path d="M 283.983518 335.413377 
L 283.478755 316.474843 
" clip-path="url(#pb787f22172)" style="fill: none; stroke: #222222; stroke-width: 2; stroke-linecap: round"/>
   </g>
   <g id="line2d_53">
    <path d="M 283.983518 335.413377 
L 300.637152 344.445506 
" clip-path="url(#pb787f22172)" style="fill: none; stroke: #222222; stroke-width: 2; stroke-linecap: round"/>
   </g>
   <g id="line2d_54">
    <path d="M 267.834649 345.319782 
L 283.983518 335.413377 
" clip-path="url(#pb787f22172)" style="fill: none; stroke: #222222; stroke-width: 2; stroke-linecap: round"/>
   </g>
   <g id="line2d_55">
    <path d="M 299.122862 287.629905 
L 299.627625 306.568439 
" clip-path="url(#pb787f22172)" style="fill: none; stroke: #222222; stroke-width: 2; stroke-linecap: round"/>
   </g>
   <g id="line2d_56">
    <path d="M 298.618099 268.691371 
L 299.122862 287.629905 
" clip-path="url(#pb787f22172)" style="fill: none; stroke: #222222; stroke-width: 2; stroke-linecap: round"/>
   </g>
   <g id="line2d_57">
    <path d="M 318.061396 287.125141 
L 299.122862 287.629905 
" clip-path="url(#pb787f22172)" style="fill: none; stroke: #222222; stroke-width: 2; stroke-linecap: round"/>
   </g>
   <g id="line2d_58">
    <path d="M 280.184328 288.134668 
L 299.122862 287.629905 
" clip-path="url(#pb787f22172)" style="fill: none; stroke: #222222; stroke-width: 2; stroke-linecap: round"/>
   </g>
   <g id="text_1">
    <g id="patch_6">
     <path d="M 380.007968 433.35408 
L 389.821718 433.35408 
L 389.821718 421.612361 
L 380.007968 421.612361 
z
" style="fill: #ffffff"/>
    </g>
    <text style="font-weight: 700; font-size: 12px; font-family: 'Liberation Sans', 'Arimo', 'DejaVu Sans'; text-anchor: middle; fill: #d40000" x="384.914843" y="430.588689" transform="rotate(-0 384.914843 430.588689)">O</text>
   </g>
   <g id="text_2">
    <g id="patch_7">
     <path d="M 347.539215 434.228355 
L 356.685465 434.228355 
L 356.685465 422.486637 
L 347.539215 422.486637 
z
" style="fill: #ffffff"/>
    </g>
    <text style="font-weight: 700; font-size: 12px; font-family: 'Liberation Sans', 'Arimo', 'DejaVu Sans'; text-anchor: middle; fill: #0879c0" x="352.11234" y="431.462965" transform="rotate(-0 352.11234 431.462965)">N</text>
   </g>
   <g id="text_3">
    <g id="patch_8">
     <path d="M 344.095405 452.857983 
L 353.241655 452.857983 
L 353.241655 441.116264 
L 344.095405 441.116264 
z
" style="fill: #ffffff"/>
    </g>
    <text style="font-weight: 700; font-size: 12px; font-family: 'Liberation Sans', 'Arimo', 'DejaVu Sans'; text-anchor: middle; fill: #0879c0" x="348.66853" y="450.092592" transform="rotate(-0 348.66853 450.092592)">N</text>
   </g>
   <g id="text_4">
    <g id="patch_9">
     <path d="M 317.149261 438.243691 
L 326.295511 438.243691 
L 326.295511 426.501972 
L 317.149261 426.501972 
z
" style="fill: #ffffff"/>
    </g>
    <text style="font-weight: 700; font-size: 12px; font-family: 'Liberation Sans', 'Arimo', 'DejaVu Sans'; text-anchor: middle; fill: #0879c0" x="321.722386" y="435.4783" transform="rotate(-0 321.722386 435.4783)">N</text>
   </g>
   <g id="text_5">
    <g id="patch_10">
     <path d="M 330.380819 406.257692 
L 339.527069 406.257692 
L 339.527069 394.515973 
L 330.380819 394.515973 
z
" style="fill: #ffffff"/>
    </g>
    <text style="font-weight: 700; font-size: 12px; font-family: 'Liberation Sans', 'Arimo', 'DejaVu Sans'; text-anchor: middle; fill: #0879c0" x="334.953944" y="403.492301" transform="rotate(-0 334.953944 403.492301)">N</text>
   </g>
   <g id="text_6">
    <g id="patch_11">
     <path d="M 379.332192 395.477012 
L 388.478442 395.477012 
L 388.478442 383.735293 
L 379.332192 383.735293 
z
" style="fill: #ffffff"/>
    </g>
    <text style="font-weight: 700; font-size: 12px; font-family: 'Liberation Sans', 'Arimo', 'DejaVu Sans'; text-anchor: middle; fill: #0879c0" x="383.905317" y="392.711621" transform="rotate(-0 383.905317 392.711621)">N</text>
   </g>
   <g id="text_7">
    <g id="patch_12">
     <path d="M 411.629932 375.664203 
L 420.776182 375.664203 
L 420.776182 363.922484 
L 411.629932 363.922484 
z
" style="fill: #ffffff"/>
    </g>
    <text style="font-weight: 700; font-size: 12px; font-family: 'Liberation Sans', 'Arimo', 'DejaVu Sans'; text-anchor: middle; fill: #0879c0" x="416.203057" y="372.898812" transform="rotate(-0 416.203057 372.898812)">N</text>
   </g>
   <g id="text_8">
    <g id="patch_13">
     <path d="M 426.940288 346.819264 
L 436.754038 346.819264 
L 436.754038 335.077545 
L 426.940288 335.077545 
z
" style="fill: #ffffff"/>
    </g>
    <text style="font-weight: 700; font-size: 12px; font-family: 'Liberation Sans', 'Arimo', 'DejaVu Sans'; text-anchor: middle; fill: #d40000" x="431.847163" y="344.053874" transform="rotate(-0 431.847163 344.053874)">O</text>
   </g>
   <g id="text_9">
    <g id="patch_14">
     <path d="M 444.937198 393.728461 
L 454.083448 393.728461 
L 454.083448 381.986742 
L 444.937198 381.986742 
z
" style="fill: #ffffff"/>
    </g>
    <text style="font-weight: 700; font-size: 12px; font-family: 'Liberation Sans', 'Arimo', 'DejaVu Sans'; text-anchor: middle; fill: #0879c0" x="449.510323" y="390.963071" transform="rotate(-0 449.510323 390.963071)">N</text>
   </g>
   <g id="text_10">
    <g id="patch_15">
     <path d="M 477.739701 392.854186 
L 486.885951 392.854186 
L 486.885951 381.112467 
L 477.739701 381.112467 
z
" style="fill: #ffffff"/>
    </g>
    <text style="font-weight: 700; font-size: 12px; font-family: 'Liberation Sans', 'Arimo', 'DejaVu Sans'; text-anchor: middle; fill: #0879c0" x="482.312826" y="390.088795" transform="rotate(-0 482.312826 390.088795)">N</text>
   </g>
   <g id="text_11">
    <g id="patch_16">
     <path d="M 459.742791 345.944989 
L 469.556541 345.944989 
L 469.556541 334.20327 
L 459.742791 334.20327 
z
" style="fill: #ffffff"/>
    </g>
    <text style="font-weight: 700; font-size: 12px; font-family: 'Liberation Sans', 'Arimo', 'DejaVu Sans'; text-anchor: middle; fill: #d40000" x="464.649666" y="343.179598" transform="rotate(-0 464.649666 343.179598)">O</text>
   </g>
   <g id="text_12">
    <g id="patch_17">
     <path d="M 297.883243 505.300496 
L 307.696993 505.300496 
L 307.696993 493.558777 
L 297.883243 493.558777 
z
" style="fill: #ffffff"/>
    </g>
    <text style="font-weight: 700; font-size: 12px; font-family: 'Liberation Sans', 'Arimo', 'DejaVu Sans'; text-anchor: middle; fill: #d40000" x="302.790118" y="502.535105" transform="rotate(-0 302.790118 502.535105)">O</text>
   </g>
   <g id="text_13">
    <g id="patch_18">
     <path d="M 329.037543 368.380624 
L 338.851293 368.380624 
L 338.851293 356.638905 
L 329.037543 356.638905 
z
" style="fill: #ffffff"/>
    </g>
    <text style="font-weight: 700; font-size: 12px; font-family: 'Liberation Sans', 'Arimo', 'DejaVu Sans'; text-anchor: middle; fill: #d40000" x="333.944418" y="365.615234" transform="rotate(-0 333.944418 365.615234)">O</text>
   </g>
   <g id="text_14">
    <g id="patch_19">
     <path d="M 296.56879 369.2549 
L 305.71504 369.2549 
L 305.71504 357.513181 
L 296.56879 357.513181 
z
" style="fill: #ffffff"/>
    </g>
    <text style="font-weight: 700; font-size: 12px; font-family: 'Liberation Sans', 'Arimo', 'DejaVu Sans'; text-anchor: middle; fill: #0879c0" x="301.141915" y="366.489509" transform="rotate(-0 301.141915 366.489509)">N</text>
   </g>
   <g id="text_15">
    <g id="patch_20">
     <path d="M 261.594649 351.190641 
L 274.074649 351.190641 
L 274.074649 339.448922 
L 261.594649 339.448922 
z
" style="fill: #ffffff"/>
    </g>
    <text style="font-weight: 700; font-size: 12px; font-family: 'Liberation Sans', 'Arimo', 'DejaVu Sans'; text-anchor: middle; fill: #00a040" x="267.834649" y="348.42525" transform="rotate(-0 267.834649 348.42525)">Cl</text>
   </g>
   <g id="text_16">
    <g id="patch_21">
     <path d="M 294.713411 274.56223 
L 302.522786 274.56223 
L 302.522786 262.820511 
L 294.713411 262.820511 
z
" style="fill: #ffffff"/>
    </g>
    <text style="font-weight: 700; font-size: 12px; font-family: 'Liberation Sans', 'Arimo', 'DejaVu Sans'; text-anchor: middle; fill: #00a040" x="298.618099" y="271.796839" transform="rotate(-0 298.618099 271.796839)">F</text>
   </g>
   <g id="text_17">
    <g id="patch_22">
     <path d="M 314.156709 292.996001 
L 321.966084 292.996001 
L 321.966084 281.254282 
L 314.156709 281.254282 
z
" style="fill: #ffffff"/>
    </g>
    <text style="font-weight: 700; font-size: 12px; font-family: 'Liberation Sans', 'Arimo', 'DejaVu Sans'; text-anchor: middle; fill: #00a040" x="318.061396" y="290.23061" transform="rotate(-0 318.061396 290.23061)">F</text>
   </g>
   <g id="text_18">
    <g id="patch_23">
     <path d="M 276.279641 294.005527 
L 284.089016 294.005527 
L 284.089016 282.263808 
L 276.279641 282.263808 
z
" style="fill: #ffffff"/>
    </g>
    <text style="font-weight: 700; font-size: 12px; font-family: 'Liberation Sans', 'Arimo', 'DejaVu Sans'; text-anchor: middle; fill: #00a040" x="280.184328" y="291.240136" transform="rotate(-0 280.184328 291.240136)">F</text>
   </g>
   <g id="patch_24">
    <path d="M 170.949718 569.77726 
C 178.296374 569.77726 185.343119 566.858403 190.53799 561.663532 
C 195.73286 556.468662 198.651718 549.421916 198.651718 542.07526 
C 198.651718 534.728604 195.73286 527.681859 190.53799 522.486988 
C 185.343119 517.292118 178.296374 514.37326 170.949718 514.37326 
C 163.603062 514.37326 156.556316 517.292118 151.361446 522.486988 
C 146.166575 527.681859 143.247718 534.728604 143.247718 542.07526 
C 143.247718 549.421916 146.166575 556.468662 151.361446 561.663532 
C 156.556316 566.858403 163.603062 569.77726 170.949718 569.77726 
z
" clip-path="url(#pb787f22172)" style="fill: #8bc34a; stroke: #222222; stroke-width: 1.2; stroke-linejoin: miter"/>
   </g>
   <g id="patch_25">
    <path d="M 112.298113 418.333826 
C 119.644769 418.333826 126.691515 415.414968 131.886385 410.220098 
C 137.081256 405.025227 140.000113 397.978482 140.000113 390.631826 
C 140.000113 383.285169 137.081256 376.238424 131.886385 371.043554 
C 126.691515 365.848683 119.644769 362.929826 112.298113 362.929826 
C 104.951457 362.929826 97.904712 365.848683 92.709841 371.043554 
C 87.514971 376.238424 84.596113 383.285169 84.596113 390.631826 
C 84.596113 397.978482 87.514971 405.025227 92.709841 410.220098 
C 97.904712 415.414968 104.951457 418.333826 112.298113 418.333826 
z
" clip-path="url(#pb787f22172)" style="fill: #f5a623; stroke: #222222; stroke-width: 1.2; stroke-linejoin: miter"/>
   </g>
   <g id="patch_26">
    <path d="M 514.225341 215.448179 
C 521.571997 215.448179 528.618743 212.529321 533.813613 207.334451 
C 539.008484 202.13958 541.927341 195.092835 541.927341 187.746179 
C 541.927341 180.399523 539.008484 173.352777 533.813613 168.157907 
C 528.618743 162.963036 521.571997 160.044179 514.225341 160.044179 
C 506.878685 160.044179 499.831939 162.963036 494.637069 168.157907 
C 489.442199 173.352777 486.523341 180.399523 486.523341 187.746179 
C 486.523341 195.092835 489.442199 202.13958 494.637069 207.334451 
C 499.831939 212.529321 506.878685 215.448179 514.225341 215.448179 
z
" clip-path="url(#pb787f22172)" style="fill: #8bc34a; stroke: #222222; stroke-width: 1.2; stroke-linejoin: miter"/>
   </g>
   <g id="patch_27">
    <path d="M 310.756895 652.401114 
C 318.103551 652.401114 325.150296 649.482257 330.345167 644.287386 
C 335.540037 639.092516 338.458895 632.045771 338.458895 624.699114 
C 338.458895 617.352458 335.540037 610.305713 330.345167 605.110842 
C 325.150296 599.915972 318.103551 596.997114 310.756895 596.997114 
C 303.410238 596.997114 296.363493 599.915972 291.168622 605.110842 
C 285.973752 610.305713 283.054895 617.352458 283.054895 624.699114 
C 283.054895 632.045771 285.973752 639.092516 291.168622 644.287386 
C 296.363493 649.482257 303.410238 652.401114 310.756895 652.401114 
z
" clip-path="url(#pb787f22172)" style="fill: #8bc34a; stroke: #222222; stroke-width: 1.2; stroke-linejoin: miter"/>
   </g>
   <g id="patch_28">
    <path d="M 471.698621 630.746542 
C 479.045278 630.746542 486.092023 627.827685 491.286893 622.632814 
C 496.481764 617.437944 499.400621 610.391198 499.400621 603.044542 
C 499.400621 595.697886 496.481764 588.651141 491.286893 583.45627 
C 486.092023 578.2614 479.045278 575.342542 471.698621 575.342542 
C 464.351965 575.342542 457.30522 578.2614 452.110349 583.45627 
C 446.915479 588.651141 443.996621 595.697886 443.996621 603.044542 
C 443.996621 610.391198 446.915479 617.437944 452.110349 622.632814 
C 457.30522 627.827685 464.351965 630.746542 471.698621 630.746542 
z
" clip-path="url(#pb787f22172)" style="fill: #f5a623; stroke: #222222; stroke-width: 1.2; stroke-linejoin: miter"/>
   </g>
   <g id="patch_29">
    <path d="M 584.692281 514.114492 
C 592.038937 514.114492 599.085683 511.195634 604.280553 506.000764 
C 609.475424 500.805893 612.394281 493.759148 612.394281 486.412492 
C 612.394281 479.065836 609.475424 472.01909 604.280553 466.82422 
C 599.085683 461.629349 592.038937 458.710492 584.692281 458.710492 
C 577.345625 458.710492 570.29888 461.629349 565.104009 466.82422 
C 559.909139 472.01909 556.990281 479.065836 556.990281 486.412492 
C 556.990281 493.759148 559.909139 500.805893 565.104009 506.000764 
C 570.29888 511.195634 577.345625 514.114492 584.692281 514.114492 
z
" clip-path="url(#pb787f22172)" style="fill: #f5a623; stroke: #222222; stroke-width: 1.2; stroke-linejoin: miter"/>
   </g>
   <g id="patch_30">
    <path d="M 360.999742 161.624016 
C 368.346399 161.624016 375.393144 158.705159 380.588014 153.510288 
C 385.782885 148.315418 388.701742 141.268673 388.701742 133.922016 
C 388.701742 126.57536 385.782885 119.528615 380.588014 114.333744 
C 375.393144 109.138874 368.346399 106.220016 360.999742 106.220016 
C 353.653086 106.220016 346.606341 109.138874 341.41147 114.333744 
C 336.2166 119.528615 333.297742 126.57536 333.297742 133.922016 
C 333.297742 141.268673 336.2166 148.315418 341.41147 153.510288 
C 346.606341 158.705159 353.653086 161.624016 360.999742 161.624016 
z
" clip-path="url(#pb787f22172)" style="fill: #5087c5; stroke: #222222; stroke-width: 1.2; stroke-linejoin: miter"/>
   </g>
   <g id="patch_31">
    <path d="M 601.237061 352.567501 
C 608.583717 352.567501 615.630462 349.648644 620.825333 344.453773 
C 626.020203 339.258903 628.939061 332.212157 628.939061 324.865501 
C 628.939061 317.518845 626.020203 310.4721 620.825333 305.277229 
C 615.630462 300.082359 608.583717 297.163501 601.237061 297.163501 
C 593.890404 297.163501 586.843659 300.082359 581.648789 305.277229 
C 576.453918 310.4721 573.535061 317.518845 573.535061 324.865501 
C 573.535061 332.212157 576.453918 339.258903 581.648789 344.453773 
C 586.843659 349.648644 593.890404 352.567501 601.237061 352.567501 
z
" clip-path="url(#pb787f22172)" style="fill: #5087c5; stroke: #222222; stroke-width: 1.2; stroke-linejoin: miter"/>
   </g>
   <g id="text_19">
    <text style="font-weight: 700; font-size: 9.5px; font-family: 'Liberation Sans', 'Arimo', 'DejaVu Sans'; text-anchor: middle; fill: #222222" x="170.949718" y="544.533756" transform="rotate(-0 170.949718 544.533756)">A704</text>
   </g>
   <g id="text_20">
    <text style="font-weight: 700; font-size: 9.5px; font-family: 'Liberation Sans', 'Arimo', 'DejaVu Sans'; text-anchor: middle; fill: #222222" x="112.298113" y="393.090322" transform="rotate(-0 112.298113 393.090322)">T705</text>
   </g>
   <g id="text_21">
    <text style="font-weight: 700; font-size: 9.5px; font-family: 'Liberation Sans', 'Arimo', 'DejaVu Sans'; text-anchor: middle; fill: #222222" x="514.225341" y="190.204675" transform="rotate(-0 514.225341 190.204675)">I828</text>
   </g>
   <g id="text_22">
    <text style="font-weight: 700; font-size: 9.5px; font-family: 'Liberation Sans', 'Arimo', 'DejaVu Sans'; text-anchor: middle; fill: #222222" x="310.756895" y="627.157611" transform="rotate(-0 310.756895 627.157611)">A706</text>
   </g>
   <g id="text_23">
    <text style="font-weight: 700; font-size: 9.5px; font-family: 'Liberation Sans', 'Arimo', 'DejaVu Sans'; text-anchor: middle; fill: #222222" x="471.698621" y="605.503038" transform="rotate(-0 471.698621 605.503038)">S707</text>
   </g>
   <g id="text_24">
    <text style="font-weight: 700; font-size: 9.5px; font-family: 'Liberation Sans', 'Arimo', 'DejaVu Sans'; text-anchor: middle; fill: #222222" x="584.692281" y="488.870988" transform="rotate(-0 584.692281 488.870988)">S708</text>
   </g>
   <g id="text_25">
    <text style="font-weight: 700; font-size: 9.5px; font-family: 'Liberation Sans', 'Arimo', 'DejaVu Sans'; text-anchor: middle; fill: #ffffff" x="360.999742" y="136.380512" transform="rotate(-0 360.999742 136.380512)">K830</text>
   </g>
   <g id="text_26">
    <text style="font-weight: 700; font-size: 9.5px; font-family: 'Liberation Sans', 'Arimo', 'DejaVu Sans'; text-anchor: middle; fill: #ffffff" x="601.237061" y="327.323997" transform="rotate(-0 601.237061 327.323997)">R857</text>
   </g>
  </g>
  <g id="patch_32">
   <path d="M 130.640391 714.42 
Q 135.83969 714.42 138.914724 714.42 
" style="fill: none; stroke: #0279ee; stroke-width: 1.9; stroke-linecap: round"/>
   <path d="M 134.114724 712.02 
L 138.914724 714.42 
L 134.114724 716.82 
" style="fill: none; stroke: #0279ee; stroke-width: 1.9; stroke-linecap: round"/>
  </g>
  <g id="patch_33">
   <path d="M 92.16 743.148 
C 93.68757 743.148 95.15278 742.510745 96.232935 741.376582 
C 97.31309 740.242419 97.92 738.703948 97.92 737.1 
C 97.92 735.496052 97.31309 733.957581 96.232935 732.823418 
C 95.15278 731.689255 93.68757 731.052 92.16 731.052 
C 90.63243 731.052 89.16722 731.689255 88.087065 732.823418 
C 87.00691 733.957581 86.4 735.496052 86.4 737.1 
C 86.4 738.703948 87.00691 740.242419 88.087065 741.376582 
C 89.16722 742.510745 90.63243 743.148 92.16 743.148 
z
" style="fill: #5087c5; stroke: #222222; stroke-width: 0.8; stroke-linejoin: miter"/>
  </g>
  <g id="patch_34">
   <path d="M 218.88 743.148 
C 220.40757 743.148 221.87278 742.510745 222.952935 741.376582 
C 224.03309 740.242419 224.64 738.703948 224.64 737.1 
C 224.64 735.496052 224.03309 733.957581 222.952935 732.823418 
C 221.87278 731.689255 220.40757 731.052 218.88 731.052 
C 217.35243 731.052 215.88722 731.689255 214.807065 732.823418 
C 213.72691 733.957581 213.12 735.496052 213.12 737.1 
C 213.12 738.703948 213.72691 740.242419 214.807065 741.376582 
C 215.88722 742.510745 217.35243 743.148 218.88 743.148 
z
" style="fill: #d9584c; stroke: #222222; stroke-width: 0.8; stroke-linejoin: miter"/>
  </g>
  <g id="patch_35">
   <path d="M 345.6 743.148 
C 347.12757 743.148 348.59278 742.510745 349.672935 741.376582 
C 350.75309 740.242419 351.36 738.703948 351.36 737.1 
C 351.36 735.496052 350.75309 733.957581 349.672935 732.823418 
C 348.59278 731.689255 347.12757 731.052 345.6 731.052 
C 344.07243 731.052 342.60722 731.689255 341.527065 732.823418 
C 340.44691 733.957581 339.84 735.496052 339.84 737.1 
C 339.84 738.703948 340.44691 740.242419 341.527065 741.376582 
C 342.60722 742.510745 344.07243 743.148 345.6 743.148 
z
" style="fill: #f5a623; stroke: #222222; stroke-width: 0.8; stroke-linejoin: miter"/>
  </g>
  <g id="patch_36">
   <path d="M 472.32 743.148 
C 473.84757 743.148 475.31278 742.510745 476.392935 741.376582 
C 477.47309 740.242419 478.08 738.703948 478.08 737.1 
C 478.08 735.496052 477.47309 733.957581 476.392935 732.823418 
C 475.31278 731.689255 473.84757 731.052 472.32 731.052 
C 470.79243 731.052 469.32722 731.689255 468.247065 732.823418 
C 467.16691 733.957581 466.56 735.496052 466.56 737.1 
C 466.56 738.703948 467.16691 740.242419 468.247065 741.376582 
C 469.32722 742.510745 470.79243 743.148 472.32 743.148 
z
" style="fill: #8bc34a; stroke: #222222; stroke-width: 0.8; stroke-linejoin: miter"/>
  </g>
  <g id="patch_37">
   <path d="M 599.04 743.148 
C 600.56757 743.148 602.03278 742.510745 603.112935 741.376582 
C 604.19309 740.242419 604.8 738.703948 604.8 737.1 
C 604.8 735.496052 604.19309 733.957581 603.112935 732.823418 
C 602.03278 731.689255 600.56757 731.052 599.04 731.052 
C 597.51243 731.052 596.04722 731.689255 594.967065 732.823418 
C 593.88691 733.957581 593.28 735.496052 593.28 737.1 
C 593.28 738.703948 593.88691 740.242419 594.967065 741.376582 
C 596.04722 742.510745 597.51243 743.148 599.04 743.148 
z
" style="fill: #ffffff; stroke: #dc3912; stroke-width: 2.5; stroke-linejoin: miter"/>
  </g>
  <g id="line2d_59">
   <path d="M 339.84 714.42 
L 354.24 714.42 
" style="fill: none; stroke: #75a025; stroke-opacity: 0.4; stroke-width: 4; stroke-linecap: square"/>
  </g>
  <g id="line2d_60">
   <path d="M 551.04 714.42 
L 565.44 714.42 
" style="fill: none; stroke-dasharray: 9.6,7.2; stroke-dashoffset: 0; stroke: #fd9bed; stroke-width: 2.4"/>
  </g>
  <g id="text_27">
   <text style="font-weight: 700; font-size: 14px; font-family: 'Liberation Sans', 'Arimo', 'DejaVu Sans'; text-anchor: middle" x="360" y="21.532383" transform="rotate(-0 360 21.532383)">WT × 9MJT · HRO761 — REFERENCE WT</text>
  </g>
  <g id="text_28">
   <text style="font-size: 10.5px; font-family: 'Liberation Sans', 'Arimo', 'DejaVu Sans'; text-anchor: middle" x="360" y="40.152287" transform="rotate(-0 360 40.152287)">(no comparative metrics — WT reference)</text>
  </g>
  <g id="text_29">
   <text style="font-size: 10.5px; font-family: 'Liberation Sans', 'Arimo', 'DejaVu Sans'; text-anchor: middle" x="360" y="61.320287" transform="rotate(-0 360 61.320287)">PLIP: 3 hydrophobic · 4 H-bond · 1 π-cation</text>
  </g>
  <g id="text_30">
   <text style="font-size: 8.5px; font-family: 'Liberation Sans', 'Arimo', 'DejaVu Sans'; text-anchor: start" x="146.64" y="716.619707" transform="rotate(-0 146.64 716.619707)">H-bond</text>
  </g>
  <g id="text_31">
   <text style="font-size: 8.5px; font-family: 'Liberation Sans', 'Arimo', 'DejaVu Sans'; text-anchor: start" x="357.84" y="716.619707" transform="rotate(-0 357.84 716.619707)">Hydrophobic</text>
  </g>
  <g id="text_32">
   <text style="font-size: 8.5px; font-family: 'Liberation Sans', 'Arimo', 'DejaVu Sans'; text-anchor: start" x="569.04" y="716.619707" transform="rotate(-0 569.04 716.619707)">π-cation</text>
  </g>
  <g id="text_33">
   <text style="font-size: 8px; font-family: 'Liberation Sans', 'Arimo', 'DejaVu Sans'; text-anchor: start" x="100.8" y="739.170313" transform="rotate(-0 100.8 739.170313)">Basic</text>
  </g>
  <g id="text_34">
   <text style="font-size: 8px; font-family: 'Liberation Sans', 'Arimo', 'DejaVu Sans'; text-anchor: start" x="227.52" y="739.170313" transform="rotate(-0 227.52 739.170313)">Acidic</text>
  </g>
  <g id="text_35">
   <text style="font-size: 8px; font-family: 'Liberation Sans', 'Arimo', 'DejaVu Sans'; text-anchor: start" x="354.24" y="739.170313" transform="rotate(-0 354.24 739.170313)">Polar</text>
  </g>
  <g id="text_36">
   <text style="font-size: 8px; font-family: 'Liberation Sans', 'Arimo', 'DejaVu Sans'; text-anchor: start" x="480.96" y="739.170313" transform="rotate(-0 480.96 739.170313)">Hydrophobic</text>
  </g>
  <g id="text_37">
   <text style="font-size: 8px; font-family: 'Liberation Sans', 'Arimo', 'DejaVu Sans'; text-anchor: start" x="607.68" y="739.170313" transform="rotate(-0 607.68 739.170313)">Mutation site</text>
  </g>
 </g>
 <defs>
  <clipPath id="pb787f22172">
   <rect x="53.82" y="75.6" width="612.36" height="612.36"/>
  </clipPath>
 </defs>
</svg>
