<?xml version="1.0" encoding="utf-8" standalone="no"?>
<!DOCTYPE svg PUBLIC "-//W3C//DTD SVG 1.1//EN"
  "http://www.w3.org/Graphics/SVG/1.1/DTD/svg11.dtd">
<svg xmlns:xlink="http://www.w3.org/1999/xlink" width="720pt" height="756pt" viewBox="0 0 720 756" xmlns="http://www.w3.org/2000/svg" version="1.1">
 <metadata>
  <rdf:RDF xmlns:dc="http://purl.org/dc/elements/1.1/" xmlns:cc="http://creativecommons.org/ns#" xmlns:rdf="http://www.w3.org/1999/02/22-rdf-syntax-ns#">
   <cc:Work>
    <dc:type rdf:resource="http://purl.org/dc/dcmitype/StillImage"/>
    <dc:date>2022-01-01T05:00:00+00:00</dc:date>
    <dc:format>image/svg+xml</dc:format>
    <dc:creator>
     <cc:Agent>
      <dc:title>Matplotlib v3.11.0, https://matplotlib.org/</dc:title>
     </cc:Agent>
    </dc:creator>
   </cc:Work>
  </rdf:RDF>
 </metadata>
 <defs>
  <style type="text/css">*{stroke-linejoin: round; stroke-linecap: butt}</style>
 </defs>
 <g id="figure_1">
  <g id="patch_1">
   <path d="M 0 756 
L 720 756 
L 720 0 
L 0 0 
z
" style="fill: #ffffff"/>
  </g>
  <g id="axes_1">
   <g id="line2d_1">
    <path d="M 635.726106 382.913731 
L 628.437445 381.934103 
L 621.171477 380.877553 
L 613.928202 379.744083 
L 606.707619 378.533692 
L 599.509729 377.24638 
L 592.334531 375.882146 
L 585.182026 374.440992 
L 578.052214 372.922917 
L 570.945095 371.327921 
L 563.860668 369.656004 
L 556.798934 367.907165 
L 549.759892 366.081406 
L 542.743543 364.178726 
L 535.749887 362.199125 
L 528.778923 360.142603 
L 521.830653 358.00916 
L 514.905074 355.798796 
L 508.002189 353.511511 
L 501.121996 351.147305 
L 494.264496 348.706178 
L 487.429688 346.18813 
L 480.617573 343.593161 
L 473.828151 340.921272 
L 467.061421 338.172461 
L 460.317384 335.346729 
L 453.59604 332.444076 
L 446.897388 329.464502 
L 440.221429 326.408008 
L 433.568163 323.274592 
" clip-path="url(#pf2aac4e967)" style="fill: none; stroke: #75a025; stroke-opacity: 0.4; stroke-width: 4; stroke-linecap: round"/>
   </g>
   <g id="line2d_2">
    <path d="M 410.602228 110.056074 
L 411.824215 117.379842 
L 412.965237 124.704586 
L 414.025294 132.030307 
L 415.004386 139.357004 
L 415.902514 146.684677 
L 416.719677 154.013326 
L 417.455874 161.342952 
L 418.111107 168.673554 
L 418.685376 176.005133 
L 419.178679 183.337688 
L 419.591018 190.671219 
L 419.922392 198.005726 
L 420.1728 205.34121 
L 420.342245 212.67767 
L 420.430724 220.015107 
L 420.438238 227.35352 
L 420.364788 234.692909 
L 420.210373 242.033274 
L 419.974993 249.374616 
L 419.658648 256.716934 
L 419.261339 264.060228 
L 418.783064 271.404499 
L 418.223825 278.749746 
L 417.583621 286.09597 
L 416.862452 293.443169 
L 416.060319 300.791345 
L 415.17722 308.140498 
L 414.213157 315.490626 
L 413.168129 322.841731 
" clip-path="url(#pf2aac4e967)" style="fill: none; stroke: #75a025; stroke-opacity: 0.4; stroke-width: 4; stroke-linecap: round"/>
   </g>
   <g id="line2d_3">
    <path d="M 571.632969 203.075423 
L 567.58711 208.141807 
L 563.493384 213.156153 
L 559.351793 218.11846 
L 555.162335 223.028729 
L 550.925012 227.886959 
L 546.639823 232.693151 
L 542.306768 237.447305 
L 537.925847 242.14942 
L 533.49706 246.799497 
L 529.020407 251.397535 
L 524.495889 255.943535 
L 519.923504 260.437497 
L 515.303254 264.87942 
L 510.635138 269.269305 
L 505.919155 273.607151 
L 501.155307 277.892959 
L 496.343593 282.126728 
L 491.484014 286.308459 
L 486.576568 290.438152 
L 481.621256 294.515806 
L 476.618079 298.541421 
L 471.567035 302.514999 
L 466.468126 306.436538 
L 461.321351 310.306038 
L 456.12671 314.1235 
L 450.884203 317.888924 
L 445.59383 321.602309 
L 440.255591 325.263655 
L 434.869487 328.872964 
" clip-path="url(#pf2aac4e967)" style="fill: none; stroke: #75a025; stroke-opacity: 0.4; stroke-width: 4; stroke-linecap: round"/>
   </g>
   <g id="line2d_4">
    <path d="M 243.109048 131.366594 
L 245.501643 137.236224 
L 247.826996 143.121867 
L 250.085107 149.023523 
L 252.275976 154.941193 
L 254.399602 160.874876 
L 256.455987 166.824572 
L 258.445129 172.790281 
L 260.367029 178.772004 
L 262.221687 184.76974 
L 264.009103 190.78349 
L 265.729277 196.813252 
L 267.382209 202.859028 
L 268.967899 208.920817 
L 270.486346 214.99862 
L 271.937552 221.092436 
L 273.321515 227.202265 
L 274.638236 233.328108 
L 275.887715 239.469963 
L 277.069952 245.627833 
L 278.184947 251.801715 
L 279.2327 257.991611 
L 280.213211 264.19752 
L 281.12648 270.419442 
L 281.972506 276.657378 
L 282.751291 282.911327 
L 283.462833 289.181289 
L 284.107133 295.467264 
L 284.684191 301.769253 
L 285.194007 308.087255 
" clip-path="url(#pf2aac4e967)" style="fill: none; stroke: #75a025; stroke-opacity: 0.4; stroke-width: 4; stroke-linecap: round"/>
   </g>
   <g id="patch_2">
    <path d="M 269.028527 578.62987 
Q 290.525717 515.228616 311.487724 453.405765 
" clip-path="url(#pf2aac4e967)" style="fill: none; stroke: #0279ee; stroke-width: 2; stroke-linecap: round"/>
    <path d="M 303.236596 459.055444 
L 311.487724 453.405765 
L 314.601101 462.908758 
" clip-path="url(#pf2aac4e967)" style="fill: none; stroke: #0279ee; stroke-width: 2; stroke-linecap: round"/>
   </g>
   <g id="patch_3">
    <path d="M 504.00999 543.704283 
Q 453.827777 487.279594 404.753169 432.100292 
" clip-path="url(#pf2aac4e967)" style="fill: none; stroke: #0279ee; stroke-width: 2; stroke-linecap: round"/>
    <path d="M 405.58628 442.065528 
L 404.753169 432.100292 
L 414.553066 434.090771 
" clip-path="url(#pf2aac4e967)" style="fill: none; stroke: #0279ee; stroke-width: 2; stroke-linecap: round"/>
   </g>
   <g id="line2d_5">
    <path d="M 165.303731 279.246095 
L 293.814145 315.330047 
" clip-path="url(#pf2aac4e967)" style="fill: none; stroke-dasharray: 7.2,5.4; stroke-dashoffset: 0; stroke: #ff9400; stroke-width: 1.8"/>
   </g>
   <g id="line2d_6">
    <path d="M 162.938869 287.668383 
L 291.449283 323.752335 
" clip-path="url(#pf2aac4e967)" style="fill: none; stroke-dasharray: 7.2,5.4; stroke-dashoffset: 0; stroke: #ff9400; stroke-width: 1.8"/>
   </g>
   <g id="line2d_7">
    <path d="M 168.319289 488.088112 
L 267.262496 456.215034 
" clip-path="url(#pf2aac4e967)" style="fill: none; stroke: #8b4513; stroke-width: 2.2; stroke-linecap: square"/>
   </g>
   <g id="line2d_8">
    <path d="M 314.240282 441.859013 
L 295.625499 421.972727 
" clip-path="url(#pf2aac4e967)" style="fill: none; stroke: #222222; stroke-width: 2; stroke-linecap: round"/>
   </g>
   <g id="line2d_9">
    <path d="M 317.646454 438.670626 
L 299.031672 418.784341 
" clip-path="url(#pf2aac4e967)" style="fill: none; stroke-dasharray: 3,2; stroke-dashoffset: 0; stroke: #222222"/>
   </g>
   <g id="line2d_10">
    <path d="M 343.001856 436.359101 
L 316.472437 442.536832 
" clip-path="url(#pf2aac4e967)" style="fill: none; stroke: #222222; stroke-width: 2; stroke-linecap: round"/>
   </g>
   <g id="line2d_11">
    <path d="M 341.943719 431.815075 
L 315.414299 437.992807 
" clip-path="url(#pf2aac4e967)" style="fill: none; stroke-dasharray: 3,2; stroke-dashoffset: 0; stroke: #222222"/>
   </g>
   <g id="line2d_12">
    <path d="M 352.61958 408.700891 
L 344.704943 434.764908 
" clip-path="url(#pf2aac4e967)" style="fill: none; stroke: #222222; stroke-width: 2; stroke-linecap: round"/>
   </g>
   <g id="line2d_13">
    <path d="M 348.15527 407.345252 
L 340.240632 433.409269 
" clip-path="url(#pf2aac4e967)" style="fill: none; stroke-dasharray: 3,2; stroke-dashoffset: 0; stroke: #222222"/>
   </g>
   <g id="line2d_14">
    <path d="M 333.47573 386.542592 
L 352.090512 406.428878 
" clip-path="url(#pf2aac4e967)" style="fill: none; stroke: #222222; stroke-width: 2; stroke-linecap: round"/>
   </g>
   <g id="line2d_15">
    <path d="M 330.069557 389.730979 
L 348.684339 409.617265 
" clip-path="url(#pf2aac4e967)" style="fill: none; stroke-dasharray: 3,2; stroke-dashoffset: 0; stroke: #222222"/>
   </g>
   <g id="line2d_16">
    <path d="M 304.714155 392.042504 
L 331.243574 385.864773 
" clip-path="url(#pf2aac4e967)" style="fill: none; stroke: #222222; stroke-width: 2; stroke-linecap: round"/>
   </g>
   <g id="line2d_17">
    <path d="M 305.772292 396.58653 
L 332.301712 390.408798 
" clip-path="url(#pf2aac4e967)" style="fill: none; stroke-dasharray: 3,2; stroke-dashoffset: 0; stroke: #222222"/>
   </g>
   <g id="line2d_18">
    <path d="M 307.475379 394.992336 
L 299.560741 421.056353 
" clip-path="url(#pf2aac4e967)" style="fill: none; stroke: #222222; stroke-width: 2; stroke-linecap: round"/>
   </g>
   <g id="line2d_19">
    <path d="M 303.011068 393.636697 
L 295.096431 419.700714 
" clip-path="url(#pf2aac4e967)" style="fill: none; stroke-dasharray: 3,2; stroke-dashoffset: 0; stroke: #222222"/>
   </g>
   <g id="line2d_20">
    <path d="M 270.799166 426.556265 
L 244.269747 432.733996 
" clip-path="url(#pf2aac4e967)" style="fill: none; stroke: #222222; stroke-width: 2; stroke-linecap: round"/>
   </g>
   <g id="line2d_21">
    <path d="M 270.799166 426.556265 
L 297.328586 420.378534 
" clip-path="url(#pf2aac4e967)" style="fill: none; stroke: #222222; stroke-width: 2; stroke-linecap: round"/>
   </g>
   <g id="line2d_22">
    <path d="M 264.621435 400.026846 
L 270.799166 426.556265 
" clip-path="url(#pf2aac4e967)" style="fill: none; stroke: #222222; stroke-width: 2; stroke-linecap: round"/>
   </g>
   <g id="line2d_23">
    <path d="M 276.976898 453.085685 
L 270.799166 426.556265 
" clip-path="url(#pf2aac4e967)" style="fill: none; stroke: #222222; stroke-width: 2; stroke-linecap: round"/>
   </g>
   <g id="line2d_24">
    <path d="M 376.916845 401.84534 
L 350.387425 408.023071 
" clip-path="url(#pf2aac4e967)" style="fill: none; stroke: #222222; stroke-width: 2; stroke-linecap: round"/>
   </g>
   <g id="line2d_25">
    <path d="M 392.976997 424.122916 
L 374.362215 404.23663 
" clip-path="url(#pf2aac4e967)" style="fill: none; stroke: #222222; stroke-width: 2; stroke-linecap: round"/>
   </g>
   <g id="line2d_26">
    <path d="M 398.086257 419.340336 
L 379.471474 399.45405 
" clip-path="url(#pf2aac4e967)" style="fill: none; stroke: #222222; stroke-width: 2; stroke-linecap: round"/>
   </g>
   <g id="line2d_27">
    <path d="M 384.831482 375.781323 
L 376.916845 401.84534 
" clip-path="url(#pf2aac4e967)" style="fill: none; stroke: #222222; stroke-width: 2; stroke-linecap: round"/>
   </g>
   <g id="line2d_28">
    <path d="M 411.360902 369.603592 
L 384.831482 375.781323 
" clip-path="url(#pf2aac4e967)" style="fill: none; stroke: #222222; stroke-width: 2; stroke-linecap: round"/>
   </g>
   <g id="line2d_29">
    <path d="M 419.275539 343.539575 
L 411.360902 369.603592 
" clip-path="url(#pf2aac4e967)" style="fill: none; stroke: #222222; stroke-width: 2; stroke-linecap: round"/>
   </g>
   <g id="line2d_30">
    <path d="M 439.161825 324.924793 
L 419.275539 343.539575 
" clip-path="url(#pf2aac4e967)" style="fill: none; stroke: #222222; stroke-width: 2; stroke-linecap: round"/>
   </g>
   <g id="line2d_31">
    <path d="M 413.097808 317.010155 
L 419.275539 343.539575 
" clip-path="url(#pf2aac4e967)" style="fill: none; stroke: #222222; stroke-width: 2; stroke-linecap: round"/>
   </g>
   <g id="line2d_32">
    <path d="M 413.097808 317.010155 
L 439.161825 324.924793 
" clip-path="url(#pf2aac4e967)" style="fill: none; stroke: #222222; stroke-width: 2; stroke-linecap: round"/>
   </g>
   <g id="line2d_33">
    <path d="M 429.975684 389.489877 
L 411.360902 369.603592 
" clip-path="url(#pf2aac4e967)" style="fill: none; stroke: #222222; stroke-width: 2; stroke-linecap: round"/>
   </g>
   <g id="line2d_34">
    <path d="M 457.298707 386.720165 
L 430.769287 392.897897 
" clip-path="url(#pf2aac4e967)" style="fill: none; stroke: #222222; stroke-width: 2; stroke-linecap: round"/>
   </g>
   <g id="line2d_35">
    <path d="M 455.711501 379.904127 
L 429.182081 386.081858 
" clip-path="url(#pf2aac4e967)" style="fill: none; stroke: #222222; stroke-width: 2; stroke-linecap: round"/>
   </g>
   <g id="line2d_36">
    <path d="M 475.119886 403.198432 
L 456.505104 383.312146 
" clip-path="url(#pf2aac4e967)" style="fill: none; stroke: #222222; stroke-width: 2; stroke-linecap: round"/>
   </g>
   <g id="line2d_37">
    <path d="M 493.734668 423.084718 
L 475.119886 403.198432 
" clip-path="url(#pf2aac4e967)" style="fill: none; stroke: #222222; stroke-width: 2; stroke-linecap: round"/>
   </g>
   <g id="line2d_38">
    <path d="M 452.84231 419.258584 
L 472.728596 400.643802 
" clip-path="url(#pf2aac4e967)" style="fill: none; stroke: #222222; stroke-width: 2; stroke-linecap: round"/>
   </g>
   <g id="line2d_39">
    <path d="M 457.62489 424.367844 
L 477.511176 405.753062 
" clip-path="url(#pf2aac4e967)" style="fill: none; stroke: #222222; stroke-width: 2; stroke-linecap: round"/>
   </g>
   <g id="line2d_40">
    <path d="M 497.397461 387.138279 
L 477.511176 405.753062 
" clip-path="url(#pf2aac4e967)" style="fill: none; stroke: #222222; stroke-width: 2; stroke-linecap: round"/>
   </g>
   <g id="line2d_41">
    <path d="M 492.614881 382.02902 
L 472.728596 400.643802 
" clip-path="url(#pf2aac4e967)" style="fill: none; stroke: #222222; stroke-width: 2; stroke-linecap: round"/>
   </g>
   <g id="line2d_42">
    <path d="M 339.687281 362.072769 
L 331.772643 388.136786 
" clip-path="url(#pf2aac4e967)" style="fill: none; stroke: #222222; stroke-width: 2; stroke-linecap: round"/>
   </g>
   <g id="line2d_43">
    <path d="M 321.072499 342.186483 
L 339.687281 362.072769 
" clip-path="url(#pf2aac4e967)" style="fill: none; stroke: #222222; stroke-width: 2; stroke-linecap: round"/>
   </g>
   <g id="line2d_44">
    <path d="M 294.01401 346.092201 
L 320.54343 339.91447 
" clip-path="url(#pf2aac4e967)" style="fill: none; stroke: #222222; stroke-width: 2; stroke-linecap: round"/>
   </g>
   <g id="line2d_45">
    <path d="M 295.072148 350.636227 
L 321.601567 344.458496 
" clip-path="url(#pf2aac4e967)" style="fill: none; stroke-dasharray: 3,2; stroke-dashoffset: 0; stroke: #222222"/>
   </g>
   <g id="line2d_46">
    <path d="M 277.631383 326.883735 
L 296.246165 346.770021 
" clip-path="url(#pf2aac4e967)" style="fill: none; stroke: #222222; stroke-width: 2; stroke-linecap: round"/>
   </g>
   <g id="line2d_47">
    <path d="M 274.225211 330.072122 
L 292.839993 349.958408 
" clip-path="url(#pf2aac4e967)" style="fill: none; stroke-dasharray: 3,2; stroke-dashoffset: 0; stroke: #222222"/>
   </g>
   <g id="line2d_48">
    <path d="M 286.07509 303.091731 
L 278.160452 329.155748 
" clip-path="url(#pf2aac4e967)" style="fill: none; stroke: #222222; stroke-width: 2; stroke-linecap: round"/>
   </g>
   <g id="line2d_49">
    <path d="M 281.610779 301.736092 
L 273.696142 327.800109 
" clip-path="url(#pf2aac4e967)" style="fill: none; stroke-dasharray: 3,2; stroke-dashoffset: 0; stroke: #222222"/>
   </g>
   <g id="line2d_50">
    <path d="M 310.901423 298.508193 
L 284.372003 304.685924 
" clip-path="url(#pf2aac4e967)" style="fill: none; stroke: #222222; stroke-width: 2; stroke-linecap: round"/>
   </g>
   <g id="line2d_51">
    <path d="M 309.843285 293.964168 
L 283.313866 300.141899 
" clip-path="url(#pf2aac4e967)" style="fill: none; stroke-dasharray: 3,2; stroke-dashoffset: 0; stroke: #222222"/>
   </g>
   <g id="line2d_52">
    <path d="M 327.28405 317.716659 
L 308.669268 297.830374 
" clip-path="url(#pf2aac4e967)" style="fill: none; stroke: #222222; stroke-width: 2; stroke-linecap: round"/>
   </g>
   <g id="line2d_53">
    <path d="M 330.690223 314.528273 
L 312.075441 294.641987 
" clip-path="url(#pf2aac4e967)" style="fill: none; stroke-dasharray: 3,2; stroke-dashoffset: 0; stroke: #222222"/>
   </g>
   <g id="line2d_54">
    <path d="M 331.219291 316.800286 
L 323.304654 342.864302 
" clip-path="url(#pf2aac4e967)" style="fill: none; stroke: #222222; stroke-width: 2; stroke-linecap: round"/>
   </g>
   <g id="line2d_55">
    <path d="M 326.754981 315.444647 
L 318.840343 341.508663 
" clip-path="url(#pf2aac4e967)" style="fill: none; stroke-dasharray: 3,2; stroke-dashoffset: 0; stroke: #222222"/>
   </g>
   <g id="text_1">
    <g id="patch_4">
     <path d="M 310.682118 446.50482 
L 321.204618 446.50482 
L 321.204618 434.02482 
L 310.682118 434.02482 
z
" style="fill: #ffffff"/>
    </g>
    <!-- N -->
    <g style="fill: #0879c0" transform="translate(310.922118 443.382007) scale(0.12 -0.12)">
     <defs>
      <path id="DejaVuSans-Bold-31" d="M 588 4666 
L 1931 4666 
L 3628 1466 
L 3628 4666 
L 4769 4666 
L 4769 0 
L 3425 0 
L 1728 3200 
L 1728 0 
L 588 0 
L 588 4666 
z
" transform="scale(0.015625)"/>
     </defs>
     <use xlink:href="#DejaVuSans-Bold-31"/>
    </g>
   </g>
   <g id="text_2">
    <g id="patch_5">
     <path d="M 299.981974 400.554517 
L 310.504474 400.554517 
L 310.504474 388.074517 
L 299.981974 388.074517 
z
" style="fill: #ffffff"/>
    </g>
    <!-- N -->
    <g style="fill: #0879c0" transform="translate(300.221974 397.431704) scale(0.12 -0.12)">
     <use xlink:href="#DejaVuSans-Bold-31"/>
    </g>
   </g>
   <g id="text_3">
    <g id="patch_6">
     <path d="M 260.282685 406.266846 
L 268.960185 406.266846 
L 268.960185 393.786846 
L 260.282685 393.786846 
z
" style="fill: #ffffff"/>
    </g>
    <!-- F -->
    <g style="fill: #00a040" transform="translate(260.522685 403.144033) scale(0.12 -0.12)">
     <defs>
      <path id="DejaVuSans-Bold-29" d="M 588 4666 
L 3834 4666 
L 3834 3756 
L 1791 3756 
L 1791 2888 
L 3713 2888 
L 3713 1978 
L 1791 1978 
L 1791 0 
L 588 0 
L 588 4666 
z
" transform="scale(0.015625)"/>
     </defs>
     <use xlink:href="#DejaVuSans-Bold-29"/>
    </g>
   </g>
   <g id="text_4">
    <g id="patch_7">
     <path d="M 272.638148 459.325685 
L 281.315648 459.325685 
L 281.315648 446.845685 
L 272.638148 446.845685 
z
" style="fill: #ffffff"/>
    </g>
    <!-- F -->
    <g style="fill: #00a040" transform="translate(272.878148 456.202872) scale(0.12 -0.12)">
     <use xlink:href="#DejaVuSans-Bold-29"/>
    </g>
   </g>
   <g id="text_5">
    <g id="patch_8">
     <path d="M 390.190689 427.971626 
L 400.872564 427.971626 
L 400.872564 415.491626 
L 390.190689 415.491626 
z
" style="fill: #ffffff"/>
    </g>
    <!-- O -->
    <g style="fill: #d40000" transform="translate(390.430689 424.848813) scale(0.12 -0.12)">
     <defs>
      <path id="DejaVuSans-Bold-32" d="M 2719 3878 
Q 2169 3878 1866 3472 
Q 1563 3066 1563 2328 
Q 1563 1594 1866 1187 
Q 2169 781 2719 781 
Q 3272 781 3575 1187 
Q 3878 1594 3878 2328 
Q 3878 3066 3575 3472 
Q 3272 3878 2719 3878 
z
M 2719 4750 
Q 3844 4750 4481 4106 
Q 5119 3463 5119 2328 
Q 5119 1197 4481 553 
Q 3844 -91 2719 -91 
Q 1597 -91 958 553 
Q 319 1197 319 2328 
Q 319 3463 958 4106 
Q 1597 4750 2719 4750 
z
" transform="scale(0.015625)"/>
     </defs>
     <use xlink:href="#DejaVuSans-Bold-32"/>
    </g>
   </g>
   <g id="text_6">
    <g id="patch_9">
     <path d="M 379.570232 382.021323 
L 390.092732 382.021323 
L 390.092732 369.541323 
L 379.570232 369.541323 
z
" style="fill: #ffffff"/>
    </g>
    <!-- N -->
    <g style="fill: #0879c0" transform="translate(379.810232 378.898511) scale(0.12 -0.12)">
     <use xlink:href="#DejaVuSans-Bold-31"/>
    </g>
   </g>
   <g id="text_7">
    <g id="patch_10">
     <path d="M 470.558948 409.438432 
L 479.680823 409.438432 
L 479.680823 396.958432 
L 470.558948 396.958432 
z
" style="fill: #ffffff"/>
    </g>
    <!-- S -->
    <g style="fill: #b8860b" transform="translate(470.798948 406.315619) scale(0.12 -0.12)">
     <defs>
      <path id="DejaVuSans-Bold-36" d="M 3834 4519 
L 3834 3531 
Q 3450 3703 3084 3790 
Q 2719 3878 2394 3878 
Q 1963 3878 1756 3759 
Q 1550 3641 1550 3391 
Q 1550 3203 1689 3098 
Q 1828 2994 2194 2919 
L 2706 2816 
Q 3484 2659 3812 2340 
Q 4141 2022 4141 1434 
Q 4141 663 3683 286 
Q 3225 -91 2284 -91 
Q 1841 -91 1394 -6 
Q 947 78 500 244 
L 500 1259 
Q 947 1022 1364 901 
Q 1781 781 2169 781 
Q 2563 781 2772 912 
Q 2981 1044 2981 1288 
Q 2981 1506 2839 1625 
Q 2697 1744 2272 1838 
L 1806 1941 
Q 1106 2091 782 2419 
Q 459 2747 459 3303 
Q 459 4000 909 4375 
Q 1359 4750 2203 4750 
Q 2588 4750 2994 4692 
Q 3400 4634 3834 4519 
z
" transform="scale(0.015625)"/>
     </defs>
     <use xlink:href="#DejaVuSans-Bold-36"/>
    </g>
   </g>
   <g id="text_8">
    <g id="patch_11">
     <path d="M 449.892662 428.053214 
L 460.574537 428.053214 
L 460.574537 415.573214 
L 449.892662 415.573214 
z
" style="fill: #ffffff"/>
    </g>
    <!-- O -->
    <g style="fill: #d40000" transform="translate(450.132662 424.930401) scale(0.12 -0.12)">
     <use xlink:href="#DejaVuSans-Bold-32"/>
    </g>
   </g>
   <g id="text_9">
    <g id="patch_12">
     <path d="M 489.665234 390.82365 
L 500.347109 390.82365 
L 500.347109 378.34365 
L 489.665234 378.34365 
z
" style="fill: #ffffff"/>
    </g>
    <!-- O -->
    <g style="fill: #d40000" transform="translate(489.905234 387.700837) scale(0.12 -0.12)">
     <use xlink:href="#DejaVuSans-Bold-32"/>
    </g>
   </g>
   <g id="text_10">
    <g id="patch_13">
     <path d="M 334.346343 368.312769 
L 345.028218 368.312769 
L 345.028218 355.832769 
L 334.346343 355.832769 
z
" style="fill: #ffffff"/>
    </g>
    <!-- O -->
    <g style="fill: #d40000" transform="translate(334.586343 365.189956) scale(0.12 -0.12)">
     <use xlink:href="#DejaVuSans-Bold-32"/>
    </g>
   </g>
   <g id="patch_14">
    <path d="M 607.757793 402.364727 
C 615.104449 402.364727 622.151195 399.445869 627.346065 394.250999 
C 632.540936 389.056128 635.459793 382.009383 635.459793 374.662727 
C 635.459793 367.31607 632.540936 360.269325 627.346065 355.074455 
C 622.151195 349.879584 615.104449 346.960727 607.757793 346.960727 
C 600.411137 346.960727 593.364391 349.879584 588.169521 355.074455 
C 582.974651 360.269325 580.055793 367.31607 580.055793 374.662727 
C 580.055793 382.009383 582.974651 389.056128 588.169521 394.250999 
C 593.364391 399.445869 600.411137 402.364727 607.757793 402.364727 
z
" clip-path="url(#pf2aac4e967)" style="fill: #8bc34a; stroke: #222222; stroke-width: 1.2; stroke-linejoin: miter"/>
   </g>
   <g id="patch_15">
    <path d="M 410.953832 166.915954 
C 418.300488 166.915954 425.347234 163.997097 430.542104 158.802226 
C 435.736974 153.607356 438.655832 146.56061 438.655832 139.213954 
C 438.655832 131.867298 435.736974 124.820553 430.542104 119.625682 
C 425.347234 114.430812 418.300488 111.511954 410.953832 111.511954 
C 403.607176 111.511954 396.56043 114.430812 391.36556 119.625682 
C 386.170689 124.820553 383.251832 131.867298 383.251832 139.213954 
C 383.251832 146.56061 386.170689 153.607356 391.36556 158.802226 
C 396.56043 163.997097 403.607176 166.915954 410.953832 166.915954 
z
" clip-path="url(#pf2aac4e967)" style="fill: #5087c5; stroke: #222222; stroke-width: 1.2; stroke-linejoin: miter"/>
   </g>
   <g id="patch_16">
    <path d="M 550.171277 250.518278 
C 557.517933 250.518278 564.564679 247.59942 569.759549 242.40455 
C 574.95442 237.209679 577.873277 230.162934 577.873277 222.816278 
C 577.873277 215.469622 574.95442 208.422876 569.759549 203.228006 
C 564.564679 198.033135 557.517933 195.114278 550.171277 195.114278 
C 542.824621 195.114278 535.777876 198.033135 530.583005 203.228006 
C 525.388135 208.422876 522.469277 215.469622 522.469277 222.816278 
C 522.469277 230.162934 525.388135 237.209679 530.583005 242.40455 
C 535.777876 247.59942 542.824621 250.518278 550.171277 250.518278 
z
" clip-path="url(#pf2aac4e967)" style="fill: #8bc34a; stroke: #222222; stroke-width: 1.2; stroke-linejoin: miter"/>
   </g>
   <g id="patch_17">
    <path d="M 249.864411 187.435312 
C 257.211067 187.435312 264.257813 184.516455 269.452683 179.321584 
C 274.647554 174.126714 277.566411 167.079968 277.566411 159.733312 
C 277.566411 152.386656 274.647554 145.33991 269.452683 140.14504 
C 264.257813 134.950169 257.211067 132.031312 249.864411 132.031312 
C 242.517755 132.031312 235.471009 134.950169 230.276139 140.14504 
C 225.081269 145.33991 222.162411 152.386656 222.162411 159.733312 
C 222.162411 167.079968 225.081269 174.126714 230.276139 179.321584 
C 235.471009 184.516455 242.517755 187.435312 249.864411 187.435312 
z
" clip-path="url(#pf2aac4e967)" style="fill: #8bc34a; stroke: #222222; stroke-width: 1.2; stroke-linejoin: miter"/>
   </g>
   <g id="patch_18">
    <path d="M 259.023107 635.840668 
C 266.369763 635.840668 273.416508 632.921811 278.611379 627.72694 
C 283.806249 622.53207 286.725107 615.485324 286.725107 608.138668 
C 286.725107 600.792012 283.806249 593.745266 278.611379 588.550396 
C 273.416508 583.355526 266.369763 580.436668 259.023107 580.436668 
C 251.67645 580.436668 244.629705 583.355526 239.434835 588.550396 
C 234.239964 593.745266 231.321107 600.792012 231.321107 608.138668 
C 231.321107 615.485324 234.239964 622.53207 239.434835 627.72694 
C 244.629705 632.921811 251.67645 635.840668 259.023107 635.840668 
z
" clip-path="url(#pf2aac4e967)" style="fill: #f5a623; stroke: #222222; stroke-width: 1.2; stroke-linejoin: miter"/>
   </g>
   <g id="patch_19">
    <path d="M 524.718602 594.690968 
C 532.065258 594.690968 539.112003 591.77211 544.306874 586.57724 
C 549.501744 581.382369 552.420602 574.335624 552.420602 566.988968 
C 552.420602 559.642312 549.501744 552.595566 544.306874 547.400696 
C 539.112003 542.205825 532.065258 539.286968 524.718602 539.286968 
C 517.371946 539.286968 510.3252 542.205825 505.13033 547.400696 
C 499.935459 552.595566 497.016602 559.642312 497.016602 566.988968 
C 497.016602 574.335624 499.935459 581.382369 505.13033 586.57724 
C 510.3252 591.77211 517.371946 594.690968 524.718602 594.690968 
z
" clip-path="url(#pf2aac4e967)" style="fill: #5087c5; stroke: #222222; stroke-width: 1.2; stroke-linejoin: miter"/>
   </g>
   <g id="patch_20">
    <path d="M 136.047008 303.276365 
C 143.393664 303.276365 150.440409 300.357507 155.63528 295.162637 
C 160.83015 289.967767 163.749008 282.921021 163.749008 275.574365 
C 163.749008 268.227709 160.83015 261.180963 155.63528 255.986093 
C 150.440409 250.791222 143.393664 247.872365 136.047008 247.872365 
C 128.700352 247.872365 121.653606 250.791222 116.458736 255.986093 
C 111.263865 261.180963 108.345008 268.227709 108.345008 275.574365 
C 108.345008 282.921021 111.263865 289.967767 116.458736 295.162637 
C 121.653606 300.357507 128.700352 303.276365 136.047008 303.276365 
z
" clip-path="url(#pf2aac4e967)" style="fill: #f5a623; stroke: #222222; stroke-width: 1.2; stroke-linejoin: miter"/>
   </g>
   <g id="patch_21">
    <path d="M 140.563854 524.731111 
C 147.910511 524.731111 154.957256 521.812253 160.152126 516.617383 
C 165.346997 511.422512 168.265854 504.375767 168.265854 497.029111 
C 168.265854 489.682454 165.346997 482.635709 160.152126 477.440839 
C 154.957256 472.245968 147.910511 469.327111 140.563854 469.327111 
C 133.217198 469.327111 126.170453 472.245968 120.975582 477.440839 
C 115.780712 482.635709 112.861854 489.682454 112.861854 497.029111 
C 112.861854 504.375767 115.780712 511.422512 120.975582 516.617383 
C 126.170453 521.812253 133.217198 524.731111 140.563854 524.731111 
z
" clip-path="url(#pf2aac4e967)" style="fill: #d9584c; stroke: #222222; stroke-width: 1.2; stroke-linejoin: miter"/>
   </g>
   <g id="text_11">
    <!-- V570 -->
    <g style="fill: #222222" transform="translate(594.166856 377.1305) scale(0.095 -0.095)">
     <defs>
      <path id="DejaVuSans-Bold-39" d="M 31 4666 
L 1241 4666 
L 2478 1222 
L 3713 4666 
L 4922 4666 
L 3194 0 
L 1759 0 
L 31 4666 
z
" transform="scale(0.015625)"/>
      <path id="DejaVuSans-Bold-18" d="M 678 4666 
L 3669 4666 
L 3669 3781 
L 1638 3781 
L 1638 3059 
Q 1775 3097 1914 3117 
Q 2053 3138 2203 3138 
Q 3056 3138 3531 2711 
Q 4006 2284 4006 1522 
Q 4006 766 3489 337 
Q 2972 -91 2053 -91 
Q 1656 -91 1267 -14 
Q 878 63 494 219 
L 494 1166 
Q 875 947 1217 837 
Q 1559 728 1863 728 
Q 2300 728 2551 942 
Q 2803 1156 2803 1522 
Q 2803 1891 2551 2103 
Q 2300 2316 1863 2316 
Q 1603 2316 1309 2248 
Q 1016 2181 678 2041 
L 678 4666 
z
" transform="scale(0.015625)"/>
      <path id="DejaVuSans-Bold-1a" d="M 428 4666 
L 3944 4666 
L 3944 3988 
L 2125 0 
L 953 0 
L 2675 3781 
L 428 3781 
L 428 4666 
z
" transform="scale(0.015625)"/>
      <path id="DejaVuSans-Bold-13" d="M 2944 2338 
Q 2944 3213 2780 3570 
Q 2616 3928 2228 3928 
Q 1841 3928 1675 3570 
Q 1509 3213 1509 2338 
Q 1509 1453 1675 1090 
Q 1841 728 2228 728 
Q 2613 728 2778 1090 
Q 2944 1453 2944 2338 
z
M 4147 2328 
Q 4147 1169 3647 539 
Q 3147 -91 2228 -91 
Q 1306 -91 806 539 
Q 306 1169 306 2328 
Q 306 3491 806 4120 
Q 1306 4750 2228 4750 
Q 3147 4750 3647 4120 
Q 4147 3491 4147 2328 
z
" transform="scale(0.015625)"/>
     </defs>
     <use xlink:href="#DejaVuSans-Bold-39"/>
     <use xlink:href="#DejaVuSans-Bold-18" transform="translate(77.390625 0)"/>
     <use xlink:href="#DejaVuSans-Bold-1a" transform="translate(146.96875 0)"/>
     <use xlink:href="#DejaVuSans-Bold-13" transform="translate(216.546875 0)"/>
    </g>
   </g>
   <g id="text_12">
    <!-- R711 -->
    <g style="fill: #ffffff" transform="translate(397.381449 141.681728) scale(0.095 -0.095)">
     <defs>
      <path id="DejaVuSans-Bold-35" d="M 2297 2597 
Q 2675 2597 2839 2737 
Q 3003 2878 3003 3200 
Q 3003 3519 2839 3656 
Q 2675 3794 2297 3794 
L 1791 3794 
L 1791 2597 
L 2297 2597 
z
M 1791 1766 
L 1791 0 
L 588 0 
L 588 4666 
L 2425 4666 
Q 3347 4666 3776 4356 
Q 4206 4047 4206 3378 
Q 4206 2916 3982 2619 
Q 3759 2322 3309 2181 
Q 3556 2125 3751 1926 
Q 3947 1728 4147 1325 
L 4800 0 
L 3519 0 
L 2950 1159 
Q 2778 1509 2601 1637 
Q 2425 1766 2131 1766 
L 1791 1766 
z
" transform="scale(0.015625)"/>
      <path id="DejaVuSans-Bold-14" d="M 750 831 
L 1813 831 
L 1813 3847 
L 722 3622 
L 722 4441 
L 1806 4666 
L 2950 4666 
L 2950 831 
L 4013 831 
L 4013 0 
L 750 0 
L 750 831 
z
" transform="scale(0.015625)"/>
     </defs>
     <use xlink:href="#DejaVuSans-Bold-35"/>
     <use xlink:href="#DejaVuSans-Bold-1a" transform="translate(77 0)"/>
     <use xlink:href="#DejaVuSans-Bold-14" transform="translate(146.578125 0)"/>
     <use xlink:href="#DejaVuSans-Bold-14" transform="translate(216.15625 0)"/>
    </g>
   </g>
   <g id="text_13">
    <!-- I725 -->
    <g style="fill: #222222" transform="translate(538.489246 225.284051) scale(0.095 -0.095)">
     <defs>
      <path id="DejaVuSans-Bold-2c" d="M 588 4666 
L 1791 4666 
L 1791 0 
L 588 0 
L 588 4666 
z
" transform="scale(0.015625)"/>
      <path id="DejaVuSans-Bold-15" d="M 1844 884 
L 3897 884 
L 3897 0 
L 506 0 
L 506 884 
L 2209 2388 
Q 2438 2594 2547 2791 
Q 2656 2988 2656 3200 
Q 2656 3528 2436 3728 
Q 2216 3928 1850 3928 
Q 1569 3928 1234 3808 
Q 900 3688 519 3450 
L 519 4475 
Q 925 4609 1322 4679 
Q 1719 4750 2100 4750 
Q 2938 4750 3402 4381 
Q 3866 4013 3866 3353 
Q 3866 2972 3669 2642 
Q 3472 2313 2841 1759 
L 1844 884 
z
" transform="scale(0.015625)"/>
     </defs>
     <use xlink:href="#DejaVuSans-Bold-2c"/>
     <use xlink:href="#DejaVuSans-Bold-1a" transform="translate(37.203125 0)"/>
     <use xlink:href="#DejaVuSans-Bold-15" transform="translate(106.78125 0)"/>
     <use xlink:href="#DejaVuSans-Bold-18" transform="translate(176.359375 0)"/>
    </g>
   </g>
   <g id="text_14">
    <!-- F730 -->
    <g style="fill: #222222" transform="translate(236.704684 162.201085) scale(0.095 -0.095)">
     <defs>
      <path id="DejaVuSans-Bold-16" d="M 2981 2516 
Q 3453 2394 3698 2092 
Q 3944 1791 3944 1325 
Q 3944 631 3412 270 
Q 2881 -91 1863 -91 
Q 1503 -91 1142 -33 
Q 781 25 428 141 
L 428 1069 
Q 766 900 1098 814 
Q 1431 728 1753 728 
Q 2231 728 2486 893 
Q 2741 1059 2741 1369 
Q 2741 1688 2480 1852 
Q 2219 2016 1709 2016 
L 1228 2016 
L 1228 2791 
L 1734 2791 
Q 2188 2791 2409 2933 
Q 2631 3075 2631 3366 
Q 2631 3634 2415 3781 
Q 2200 3928 1806 3928 
Q 1516 3928 1219 3862 
Q 922 3797 628 3669 
L 628 4550 
Q 984 4650 1334 4700 
Q 1684 4750 2022 4750 
Q 2931 4750 3382 4451 
Q 3834 4153 3834 3553 
Q 3834 3144 3618 2883 
Q 3403 2622 2981 2516 
z
" transform="scale(0.015625)"/>
     </defs>
     <use xlink:href="#DejaVuSans-Bold-29"/>
     <use xlink:href="#DejaVuSans-Bold-1a" transform="translate(68.3125 0)"/>
     <use xlink:href="#DejaVuSans-Bold-16" transform="translate(137.890625 0)"/>
     <use xlink:href="#DejaVuSans-Bold-13" transform="translate(207.46875 0)"/>
    </g>
   </g>
   <g id="text_15">
    <!-- C727 -->
    <g style="fill: #222222" transform="translate(245.622169 610.606441) scale(0.095 -0.095)">
     <defs>
      <path id="DejaVuSans-Bold-26" d="M 4288 256 
Q 3956 84 3597 -3 
Q 3238 -91 2847 -91 
Q 1681 -91 1000 561 
Q 319 1213 319 2328 
Q 319 3447 1000 4098 
Q 1681 4750 2847 4750 
Q 3238 4750 3597 4662 
Q 3956 4575 4288 4403 
L 4288 3438 
Q 3953 3666 3628 3772 
Q 3303 3878 2944 3878 
Q 2300 3878 1931 3465 
Q 1563 3053 1563 2328 
Q 1563 1606 1931 1193 
Q 2300 781 2944 781 
Q 3303 781 3628 887 
Q 3953 994 4288 1222 
L 4288 256 
z
" transform="scale(0.015625)"/>
     </defs>
     <use xlink:href="#DejaVuSans-Bold-26"/>
     <use xlink:href="#DejaVuSans-Bold-1a" transform="translate(73.390625 0)"/>
     <use xlink:href="#DejaVuSans-Bold-15" transform="translate(142.96875 0)"/>
     <use xlink:href="#DejaVuSans-Bold-1a" transform="translate(212.546875 0)"/>
    </g>
   </g>
   <g id="text_16">
    <!-- R857 -->
    <g style="fill: #ffffff" transform="translate(511.146219 569.456741) scale(0.095 -0.095)">
     <defs>
      <path id="DejaVuSans-Bold-1b" d="M 2228 2088 
Q 1891 2088 1709 1903 
Q 1528 1719 1528 1375 
Q 1528 1031 1709 848 
Q 1891 666 2228 666 
Q 2563 666 2741 848 
Q 2919 1031 2919 1375 
Q 2919 1722 2741 1905 
Q 2563 2088 2228 2088 
z
M 1350 2484 
Q 925 2613 709 2878 
Q 494 3144 494 3541 
Q 494 4131 934 4440 
Q 1375 4750 2228 4750 
Q 3075 4750 3515 4442 
Q 3956 4134 3956 3541 
Q 3956 3144 3739 2878 
Q 3522 2613 3097 2484 
Q 3572 2353 3814 2058 
Q 4056 1763 4056 1313 
Q 4056 619 3595 264 
Q 3134 -91 2228 -91 
Q 1319 -91 855 264 
Q 391 619 391 1313 
Q 391 1763 633 2058 
Q 875 2353 1350 2484 
z
M 1631 3419 
Q 1631 3141 1786 2991 
Q 1941 2841 2228 2841 
Q 2509 2841 2662 2991 
Q 2816 3141 2816 3419 
Q 2816 3697 2662 3845 
Q 2509 3994 2228 3994 
Q 1941 3994 1786 3844 
Q 1631 3694 1631 3419 
z
" transform="scale(0.015625)"/>
     </defs>
     <use xlink:href="#DejaVuSans-Bold-35"/>
     <use xlink:href="#DejaVuSans-Bold-1b" transform="translate(77 0)"/>
     <use xlink:href="#DejaVuSans-Bold-18" transform="translate(146.578125 0)"/>
     <use xlink:href="#DejaVuSans-Bold-1a" transform="translate(216.15625 0)"/>
    </g>
   </g>
   <g id="text_17">
    <!-- Y849 -->
    <g style="fill: #222222" transform="translate(122.692828 278.042138) scale(0.095 -0.095)">
     <defs>
      <path id="DejaVuSans-Bold-3c" d="M -63 4666 
L 1253 4666 
L 2316 3003 
L 3378 4666 
L 4697 4666 
L 2919 1966 
L 2919 0 
L 1716 0 
L 1716 1966 
L -63 4666 
z
" transform="scale(0.015625)"/>
      <path id="DejaVuSans-Bold-17" d="M 2356 3675 
L 1038 1722 
L 2356 1722 
L 2356 3675 
z
M 2156 4666 
L 3494 4666 
L 3494 1722 
L 4159 1722 
L 4159 850 
L 3494 850 
L 3494 0 
L 2356 0 
L 2356 850 
L 288 850 
L 288 1881 
L 2156 4666 
z
" transform="scale(0.015625)"/>
      <path id="DejaVuSans-Bold-1c" d="M 641 103 
L 641 966 
Q 928 831 1190 764 
Q 1453 697 1709 697 
Q 2247 697 2547 995 
Q 2847 1294 2900 1881 
Q 2688 1725 2447 1647 
Q 2206 1569 1925 1569 
Q 1209 1569 770 1986 
Q 331 2403 331 3084 
Q 331 3838 820 4291 
Q 1309 4744 2131 4744 
Q 3044 4744 3544 4128 
Q 4044 3513 4044 2388 
Q 4044 1231 3459 570 
Q 2875 -91 1856 -91 
Q 1528 -91 1228 -42 
Q 928 6 641 103 
z
M 2125 2350 
Q 2441 2350 2600 2554 
Q 2759 2759 2759 3169 
Q 2759 3575 2600 3781 
Q 2441 3988 2125 3988 
Q 1809 3988 1650 3781 
Q 1491 3575 1491 3169 
Q 1491 2759 1650 2554 
Q 1809 2350 2125 2350 
z
" transform="scale(0.015625)"/>
     </defs>
     <use xlink:href="#DejaVuSans-Bold-3c"/>
     <use xlink:href="#DejaVuSans-Bold-1b" transform="translate(72.40625 0)"/>
     <use xlink:href="#DejaVuSans-Bold-17" transform="translate(141.984375 0)"/>
     <use xlink:href="#DejaVuSans-Bold-1c" transform="translate(211.5625 0)"/>
    </g>
   </g>
   <g id="text_18">
    <!-- E846 -->
    <g style="fill: #ffffff" transform="translate(127.404128 499.496884) scale(0.095 -0.095)">
     <defs>
      <path id="DejaVuSans-Bold-28" d="M 588 4666 
L 3834 4666 
L 3834 3756 
L 1791 3756 
L 1791 2888 
L 3713 2888 
L 3713 1978 
L 1791 1978 
L 1791 909 
L 3903 909 
L 3903 0 
L 588 0 
L 588 4666 
z
" transform="scale(0.015625)"/>
      <path id="DejaVuSans-Bold-19" d="M 2316 2303 
Q 2000 2303 1842 2098 
Q 1684 1894 1684 1484 
Q 1684 1075 1842 870 
Q 2000 666 2316 666 
Q 2634 666 2792 870 
Q 2950 1075 2950 1484 
Q 2950 1894 2792 2098 
Q 2634 2303 2316 2303 
z
M 3803 4544 
L 3803 3681 
Q 3506 3822 3243 3889 
Q 2981 3956 2731 3956 
Q 2194 3956 1894 3657 
Q 1594 3359 1544 2772 
Q 1750 2925 1990 3001 
Q 2231 3078 2516 3078 
Q 3231 3078 3670 2659 
Q 4109 2241 4109 1563 
Q 4109 813 3618 361 
Q 3128 -91 2303 -91 
Q 1394 -91 895 523 
Q 397 1138 397 2266 
Q 397 3422 980 4083 
Q 1563 4744 2578 4744 
Q 2900 4744 3203 4694 
Q 3506 4644 3803 4544 
z
" transform="scale(0.015625)"/>
     </defs>
     <use xlink:href="#DejaVuSans-Bold-28"/>
     <use xlink:href="#DejaVuSans-Bold-1b" transform="translate(68.3125 0)"/>
     <use xlink:href="#DejaVuSans-Bold-17" transform="translate(137.890625 0)"/>
     <use xlink:href="#DejaVuSans-Bold-19" transform="translate(207.46875 0)"/>
    </g>
   </g>
  </g>
  <g id="patch_22">
   <path d="M 104.240391 714.42 
Q 109.43969 714.42 112.514724 714.42 
" style="fill: none; stroke: #0279ee; stroke-width: 1.9; stroke-linecap: round"/>
   <path d="M 107.714724 712.02 
L 112.514724 714.42 
L 107.714724 716.82 
" style="fill: none; stroke: #0279ee; stroke-width: 1.9; stroke-linecap: round"/>
  </g>
  <g id="patch_23">
   <path d="M 92.16 743.148 
C 93.68757 743.148 95.15278 742.510745 96.232935 741.376582 
C 97.31309 740.242419 97.92 738.703948 97.92 737.1 
C 97.92 735.496052 97.31309 733.957581 96.232935 732.823418 
C 95.15278 731.689255 93.68757 731.052 92.16 731.052 
C 90.63243 731.052 89.16722 731.689255 88.087065 732.823418 
C 87.00691 733.957581 86.4 735.496052 86.4 737.1 
C 86.4 738.703948 87.00691 740.242419 88.087065 741.376582 
C 89.16722 742.510745 90.63243 743.148 92.16 743.148 
z
" style="fill: #5087c5; stroke: #222222; stroke-width: 0.8; stroke-linejoin: miter"/>
  </g>
  <g id="patch_24">
   <path d="M 218.88 743.148 
C 220.40757 743.148 221.87278 742.510745 222.952935 741.376582 
C 224.03309 740.242419 224.64 738.703948 224.64 737.1 
C 224.64 735.496052 224.03309 733.957581 222.952935 732.823418 
C 221.87278 731.689255 220.40757 731.052 218.88 731.052 
C 217.35243 731.052 215.88722 731.689255 214.807065 732.823418 
C 213.72691 733.957581 213.12 735.496052 213.12 737.1 
C 213.12 738.703948 213.72691 740.242419 214.807065 741.376582 
C 215.88722 742.510745 217.35243 743.148 218.88 743.148 
z
" style="fill: #d9584c; stroke: #222222; stroke-width: 0.8; stroke-linejoin: miter"/>
  </g>
  <g id="patch_25">
   <path d="M 345.6 743.148 
C 347.12757 743.148 348.59278 742.510745 349.672935 741.376582 
C 350.75309 740.242419 351.36 738.703948 351.36 737.1 
C 351.36 735.496052 350.75309 733.957581 349.672935 732.823418 
C 348.59278 731.689255 347.12757 731.052 345.6 731.052 
C 344.07243 731.052 342.60722 731.689255 341.527065 732.823418 
C 340.44691 733.957581 339.84 735.496052 339.84 737.1 
C 339.84 738.703948 340.44691 740.242419 341.527065 741.376582 
C 342.60722 742.510745 344.07243 743.148 345.6 743.148 
z
" style="fill: #f5a623; stroke: #222222; stroke-width: 0.8; stroke-linejoin: miter"/>
  </g>
  <g id="patch_26">
   <path d="M 472.32 743.148 
C 473.84757 743.148 475.31278 742.510745 476.392935 741.376582 
C 477.47309 740.242419 478.08 738.703948 478.08 737.1 
C 478.08 735.496052 477.47309 733.957581 476.392935 732.823418 
C 475.31278 731.689255 473.84757 731.052 472.32 731.052 
C 470.79243 731.052 469.32722 731.689255 468.247065 732.823418 
C 467.16691 733.957581 466.56 735.496052 466.56 737.1 
C 466.56 738.703948 467.16691 740.242419 468.247065 741.376582 
C 469.32722 742.510745 470.79243 743.148 472.32 743.148 
z
" style="fill: #8bc34a; stroke: #222222; stroke-width: 0.8; stroke-linejoin: miter"/>
  </g>
  <g id="patch_27">
   <path d="M 599.04 743.148 
C 600.56757 743.148 602.03278 742.510745 603.112935 741.376582 
C 604.19309 740.242419 604.8 738.703948 604.8 737.1 
C 604.8 735.496052 604.19309 733.957581 603.112935 732.823418 
C 602.03278 731.689255 600.56757 731.052 599.04 731.052 
C 597.51243 731.052 596.04722 731.689255 594.967065 732.823418 
C 593.88691 733.957581 593.28 735.496052 593.28 737.1 
C 593.28 738.703948 593.88691 740.242419 594.967065 741.376582 
C 596.04722 742.510745 597.51243 743.148 599.04 743.148 
z
" style="fill: #ffffff; stroke: #dc3912; stroke-width: 2.5; stroke-linejoin: miter"/>
  </g>
  <g id="line2d_56">
   <path d="M 260.64 714.42 
L 275.04 714.42 
" style="fill: none; stroke: #75a025; stroke-opacity: 0.4; stroke-width: 4; stroke-linecap: square"/>
  </g>
  <g id="line2d_57">
   <path d="M 419.04 710.64 
L 433.44 710.64 
" style="fill: none; stroke-dasharray: 7.2,5.4; stroke-dashoffset: 0; stroke: #ff9400; stroke-width: 1.8"/>
  </g>
  <g id="line2d_58">
   <path d="M 419.04 718.2 
L 433.44 718.2 
" style="fill: none; stroke-dasharray: 7.2,5.4; stroke-dashoffset: 0; stroke: #ff9400; stroke-width: 1.8"/>
  </g>
  <g id="line2d_59">
   <path d="M 577.44 714.42 
L 591.84 714.42 
" style="fill: none; stroke: #8b4513; stroke-width: 2.2; stroke-linecap: square"/>
  </g>
  <g id="text_19">
   <!-- WT × 9MJT · VVD-214 — REFERENCE WT -->
   <g transform="translate(203.231719 21.976719) scale(0.14 -0.14)">
    <defs>
     <path id="DejaVuSans-Bold-3a" d="M 191 4666 
L 1344 4666 
L 2150 1275 
L 2950 4666 
L 4109 4666 
L 4909 1275 
L 5716 4666 
L 6859 4666 
L 5759 0 
L 4372 0 
L 3525 3547 
L 2688 0 
L 1300 0 
L 191 4666 
z
" transform="scale(0.015625)"/>
     <path id="DejaVuSans-Bold-37" d="M 31 4666 
L 4331 4666 
L 4331 3756 
L 2784 3756 
L 2784 0 
L 1581 0 
L 1581 3756 
L 31 3756 
L 31 4666 
z
" transform="scale(0.015625)"/>
     <path id="DejaVuSans-Bold-3" transform="scale(0.015625)"/>
     <path id="DejaVuSans-Bold-99" d="M 4563 3359 
L 3206 2003 
L 4563 653 
L 4038 128 
L 2681 1478 
L 1325 128 
L 800 653 
L 2156 2003 
L 800 3359 
L 1325 3884 
L 2681 2528 
L 4038 3884 
L 4563 3359 
z
" transform="scale(0.015625)"/>
     <path id="DejaVuSans-Bold-30" d="M 588 4666 
L 2119 4666 
L 3181 2169 
L 4250 4666 
L 5778 4666 
L 5778 0 
L 4641 0 
L 4641 3413 
L 3566 897 
L 2803 897 
L 1728 3413 
L 1728 0 
L 588 0 
L 588 4666 
z
" transform="scale(0.015625)"/>
     <path id="DejaVuSans-Bold-2d" d="M 588 4666 
L 1791 4666 
L 1791 453 
Q 1791 -419 1317 -850 
Q 844 -1281 -116 -1281 
L -359 -1281 
L -359 -372 
L -172 -372 
Q 203 -372 395 -162 
Q 588 47 588 453 
L 588 4666 
z
" transform="scale(0.015625)"/>
     <path id="DejaVuSans-Bold-79" d="M 653 2828 
L 1778 2828 
L 1778 1619 
L 653 1619 
L 653 2828 
z
" transform="scale(0.015625)"/>
     <path id="DejaVuSans-Bold-27" d="M 1791 3756 
L 1791 909 
L 2222 909 
Q 2959 909 3348 1275 
Q 3738 1641 3738 2338 
Q 3738 3031 3350 3393 
Q 2963 3756 2222 3756 
L 1791 3756 
z
M 588 4666 
L 1856 4666 
Q 2919 4666 3439 4514 
Q 3959 4363 4331 4000 
Q 4659 3684 4818 3271 
Q 4978 2859 4978 2338 
Q 4978 1809 4818 1395 
Q 4659 981 4331 666 
Q 3956 303 3431 151 
Q 2906 0 1856 0 
L 588 0 
L 588 4666 
z
" transform="scale(0.015625)"/>
     <path id="DejaVuSans-Bold-10" d="M 347 2297 
L 2309 2297 
L 2309 1388 
L 347 1388 
L 347 2297 
z
" transform="scale(0.015625)"/>
     <path id="DejaVuSans-Bold-af6" d="M 344 2156 
L 6056 2156 
L 6056 1350 
L 344 1350 
L 344 2156 
z
" transform="scale(0.015625)"/>
    </defs>
    <use xlink:href="#DejaVuSans-Bold-3a"/>
    <use xlink:href="#DejaVuSans-Bold-37" transform="translate(110.296875 0)"/>
    <use xlink:href="#DejaVuSans-Bold-3" transform="translate(178.515625 0)"/>
    <use xlink:href="#DejaVuSans-Bold-99" transform="translate(213.328125 0)"/>
    <use xlink:href="#DejaVuSans-Bold-3" transform="translate(297.125 0)"/>
    <use xlink:href="#DejaVuSans-Bold-1c" transform="translate(331.9375 0)"/>
    <use xlink:href="#DejaVuSans-Bold-30" transform="translate(401.515625 0)"/>
    <use xlink:href="#DejaVuSans-Bold-2d" transform="translate(501.03125 0)"/>
    <use xlink:href="#DejaVuSans-Bold-37" transform="translate(538.234375 0)"/>
    <use xlink:href="#DejaVuSans-Bold-3" transform="translate(606.453125 0)"/>
    <use xlink:href="#DejaVuSans-Bold-79" transform="translate(641.265625 0)"/>
    <use xlink:href="#DejaVuSans-Bold-3" transform="translate(679.25 0)"/>
    <use xlink:href="#DejaVuSans-Bold-39" transform="translate(714.0625 0)"/>
    <use xlink:href="#DejaVuSans-Bold-39" transform="translate(791.453125 0)"/>
    <use xlink:href="#DejaVuSans-Bold-27" transform="translate(868.84375 0)"/>
    <use xlink:href="#DejaVuSans-Bold-10" transform="translate(953.71875 0)"/>
    <use xlink:href="#DejaVuSans-Bold-15" transform="translate(995.21875 0)"/>
    <use xlink:href="#DejaVuSans-Bold-14" transform="translate(1064.796875 0)"/>
    <use xlink:href="#DejaVuSans-Bold-17" transform="translate(1134.375 0)"/>
    <use xlink:href="#DejaVuSans-Bold-3" transform="translate(1203.953125 0)"/>
    <use xlink:href="#DejaVuSans-Bold-af6" transform="translate(1238.765625 0)"/>
    <use xlink:href="#DejaVuSans-Bold-3" transform="translate(1338.765625 0)"/>
    <use xlink:href="#DejaVuSans-Bold-35" transform="translate(1373.578125 0)"/>
    <use xlink:href="#DejaVuSans-Bold-28" transform="translate(1450.578125 0)"/>
    <use xlink:href="#DejaVuSans-Bold-29" transform="translate(1518.890625 0)"/>
    <use xlink:href="#DejaVuSans-Bold-28" transform="translate(1587.203125 0)"/>
    <use xlink:href="#DejaVuSans-Bold-35" transform="translate(1655.515625 0)"/>
    <use xlink:href="#DejaVuSans-Bold-28" transform="translate(1732.515625 0)"/>
    <use xlink:href="#DejaVuSans-Bold-31" transform="translate(1800.828125 0)"/>
    <use xlink:href="#DejaVuSans-Bold-26" transform="translate(1884.515625 0)"/>
    <use xlink:href="#DejaVuSans-Bold-28" transform="translate(1957.90625 0)"/>
    <use xlink:href="#DejaVuSans-Bold-3" transform="translate(2026.21875 0)"/>
    <use xlink:href="#DejaVuSans-Bold-3a" transform="translate(2061.03125 0)"/>
    <use xlink:href="#DejaVuSans-Bold-37" transform="translate(2171.328125 0)"/>
   </g>
  </g>
  <g id="text_20">
   <!-- (no comparative metrics — WT reference) -->
   <g transform="translate(249.67125 40.486359) scale(0.105 -0.105)">
    <defs>
     <path id="DejaVuSans-b" d="M 1984 4856 
Q 1566 4138 1362 3434 
Q 1159 2731 1159 2009 
Q 1159 1288 1364 580 
Q 1569 -128 1984 -844 
L 1484 -844 
Q 1016 -109 783 600 
Q 550 1309 550 2009 
Q 550 2706 781 3412 
Q 1013 4119 1484 4856 
L 1984 4856 
z
" transform="scale(0.015625)"/>
     <path id="DejaVuSans-51" d="M 3513 2113 
L 3513 0 
L 2938 0 
L 2938 2094 
Q 2938 2591 2744 2837 
Q 2550 3084 2163 3084 
Q 1697 3084 1428 2787 
Q 1159 2491 1159 1978 
L 1159 0 
L 581 0 
L 581 3500 
L 1159 3500 
L 1159 2956 
Q 1366 3272 1645 3428 
Q 1925 3584 2291 3584 
Q 2894 3584 3203 3211 
Q 3513 2838 3513 2113 
z
" transform="scale(0.015625)"/>
     <path id="DejaVuSans-52" d="M 1959 3097 
Q 1497 3097 1228 2736 
Q 959 2375 959 1747 
Q 959 1119 1226 758 
Q 1494 397 1959 397 
Q 2419 397 2687 759 
Q 2956 1122 2956 1747 
Q 2956 2369 2687 2733 
Q 2419 3097 1959 3097 
z
M 1959 3584 
Q 2709 3584 3137 3096 
Q 3566 2609 3566 1747 
Q 3566 888 3137 398 
Q 2709 -91 1959 -91 
Q 1206 -91 779 398 
Q 353 888 353 1747 
Q 353 2609 779 3096 
Q 1206 3584 1959 3584 
z
" transform="scale(0.015625)"/>
     <path id="DejaVuSans-3" transform="scale(0.015625)"/>
     <path id="DejaVuSans-46" d="M 3122 3366 
L 3122 2828 
Q 2878 2963 2633 3030 
Q 2388 3097 2138 3097 
Q 1578 3097 1268 2742 
Q 959 2388 959 1747 
Q 959 1106 1268 751 
Q 1578 397 2138 397 
Q 2388 397 2633 464 
Q 2878 531 3122 666 
L 3122 134 
Q 2881 22 2623 -34 
Q 2366 -91 2075 -91 
Q 1284 -91 818 406 
Q 353 903 353 1747 
Q 353 2603 823 3093 
Q 1294 3584 2113 3584 
Q 2378 3584 2631 3529 
Q 2884 3475 3122 3366 
z
" transform="scale(0.015625)"/>
     <path id="DejaVuSans-50" d="M 3328 2828 
Q 3544 3216 3844 3400 
Q 4144 3584 4550 3584 
Q 5097 3584 5394 3201 
Q 5691 2819 5691 2113 
L 5691 0 
L 5113 0 
L 5113 2094 
Q 5113 2597 4934 2840 
Q 4756 3084 4391 3084 
Q 3944 3084 3684 2787 
Q 3425 2491 3425 1978 
L 3425 0 
L 2847 0 
L 2847 2094 
Q 2847 2600 2669 2842 
Q 2491 3084 2119 3084 
Q 1678 3084 1418 2786 
Q 1159 2488 1159 1978 
L 1159 0 
L 581 0 
L 581 3500 
L 1159 3500 
L 1159 2956 
Q 1356 3278 1631 3431 
Q 1906 3584 2284 3584 
Q 2666 3584 2933 3390 
Q 3200 3197 3328 2828 
z
" transform="scale(0.015625)"/>
     <path id="DejaVuSans-53" d="M 1159 525 
L 1159 -1331 
L 581 -1331 
L 581 3500 
L 1159 3500 
L 1159 2969 
Q 1341 3281 1617 3432 
Q 1894 3584 2278 3584 
Q 2916 3584 3314 3078 
Q 3713 2572 3713 1747 
Q 3713 922 3314 415 
Q 2916 -91 2278 -91 
Q 1894 -91 1617 61 
Q 1341 213 1159 525 
z
M 3116 1747 
Q 3116 2381 2855 2742 
Q 2594 3103 2138 3103 
Q 1681 3103 1420 2742 
Q 1159 2381 1159 1747 
Q 1159 1113 1420 752 
Q 1681 391 2138 391 
Q 2594 391 2855 752 
Q 3116 1113 3116 1747 
z
" transform="scale(0.015625)"/>
     <path id="DejaVuSans-44" d="M 2194 1759 
Q 1497 1759 1228 1600 
Q 959 1441 959 1056 
Q 959 750 1161 570 
Q 1363 391 1709 391 
Q 2188 391 2477 730 
Q 2766 1069 2766 1631 
L 2766 1759 
L 2194 1759 
z
M 3341 1997 
L 3341 0 
L 2766 0 
L 2766 531 
Q 2569 213 2275 61 
Q 1981 -91 1556 -91 
Q 1019 -91 701 211 
Q 384 513 384 1019 
Q 384 1609 779 1909 
Q 1175 2209 1959 2209 
L 2766 2209 
L 2766 2266 
Q 2766 2663 2505 2880 
Q 2244 3097 1772 3097 
Q 1472 3097 1187 3025 
Q 903 2953 641 2809 
L 641 3341 
Q 956 3463 1253 3523 
Q 1550 3584 1831 3584 
Q 2591 3584 2966 3190 
Q 3341 2797 3341 1997 
z
" transform="scale(0.015625)"/>
     <path id="DejaVuSans-55" d="M 2631 2963 
Q 2534 3019 2420 3045 
Q 2306 3072 2169 3072 
Q 1681 3072 1420 2755 
Q 1159 2438 1159 1844 
L 1159 0 
L 581 0 
L 581 3500 
L 1159 3500 
L 1159 2956 
Q 1341 3275 1631 3429 
Q 1922 3584 2338 3584 
Q 2397 3584 2469 3576 
Q 2541 3569 2628 3553 
L 2631 2963 
z
" transform="scale(0.015625)"/>
     <path id="DejaVuSans-57" d="M 1172 4494 
L 1172 3500 
L 2356 3500 
L 2356 3053 
L 1172 3053 
L 1172 1153 
Q 1172 725 1289 603 
Q 1406 481 1766 481 
L 2356 481 
L 2356 0 
L 1766 0 
Q 1100 0 847 248 
Q 594 497 594 1153 
L 594 3053 
L 172 3053 
L 172 3500 
L 594 3500 
L 594 4494 
L 1172 4494 
z
" transform="scale(0.015625)"/>
     <path id="DejaVuSans-4c" d="M 603 3500 
L 1178 3500 
L 1178 0 
L 603 0 
L 603 3500 
z
M 603 4863 
L 1178 4863 
L 1178 4134 
L 603 4134 
L 603 4863 
z
" transform="scale(0.015625)"/>
     <path id="DejaVuSans-59" d="M 191 3500 
L 800 3500 
L 1894 563 
L 2988 3500 
L 3597 3500 
L 2284 0 
L 1503 0 
L 191 3500 
z
" transform="scale(0.015625)"/>
     <path id="DejaVuSans-48" d="M 3597 1894 
L 3597 1613 
L 953 1613 
Q 991 1019 1311 708 
Q 1631 397 2203 397 
Q 2534 397 2845 478 
Q 3156 559 3463 722 
L 3463 178 
Q 3153 47 2828 -22 
Q 2503 -91 2169 -91 
Q 1331 -91 842 396 
Q 353 884 353 1716 
Q 353 2575 817 3079 
Q 1281 3584 2069 3584 
Q 2775 3584 3186 3129 
Q 3597 2675 3597 1894 
z
M 3022 2063 
Q 3016 2534 2758 2815 
Q 2500 3097 2075 3097 
Q 1594 3097 1305 2825 
Q 1016 2553 972 2059 
L 3022 2063 
z
" transform="scale(0.015625)"/>
     <path id="DejaVuSans-56" d="M 2834 3397 
L 2834 2853 
Q 2591 2978 2328 3040 
Q 2066 3103 1784 3103 
Q 1356 3103 1142 2972 
Q 928 2841 928 2578 
Q 928 2378 1081 2264 
Q 1234 2150 1697 2047 
L 1894 2003 
Q 2506 1872 2764 1633 
Q 3022 1394 3022 966 
Q 3022 478 2636 193 
Q 2250 -91 1575 -91 
Q 1294 -91 989 -36 
Q 684 19 347 128 
L 347 722 
Q 666 556 975 473 
Q 1284 391 1588 391 
Q 1994 391 2212 530 
Q 2431 669 2431 922 
Q 2431 1156 2273 1281 
Q 2116 1406 1581 1522 
L 1381 1569 
Q 847 1681 609 1914 
Q 372 2147 372 2553 
Q 372 3047 722 3315 
Q 1072 3584 1716 3584 
Q 2034 3584 2315 3537 
Q 2597 3491 2834 3397 
z
" transform="scale(0.015625)"/>
     <path id="DejaVuSans-af6" d="M 313 1978 
L 6088 1978 
L 6088 1528 
L 313 1528 
L 313 1978 
z
" transform="scale(0.015625)"/>
     <path id="DejaVuSans-3a" d="M 213 4666 
L 850 4666 
L 1831 722 
L 2809 4666 
L 3519 4666 
L 4500 722 
L 5478 4666 
L 6119 4666 
L 4947 0 
L 4153 0 
L 3169 4050 
L 2175 0 
L 1381 0 
L 213 4666 
z
" transform="scale(0.015625)"/>
     <path id="DejaVuSans-37" d="M -19 4666 
L 3928 4666 
L 3928 4134 
L 2272 4134 
L 2272 0 
L 1638 0 
L 1638 4134 
L -19 4134 
L -19 4666 
z
" transform="scale(0.015625)"/>
     <path id="DejaVuSans-49" d="M 2375 4863 
L 2375 4384 
L 1825 4384 
Q 1516 4384 1395 4259 
Q 1275 4134 1275 3809 
L 1275 3500 
L 2222 3500 
L 2222 3053 
L 1275 3053 
L 1275 0 
L 697 0 
L 697 3053 
L 147 3053 
L 147 3500 
L 697 3500 
L 697 3744 
Q 697 4328 969 4595 
Q 1241 4863 1831 4863 
L 2375 4863 
z
" transform="scale(0.015625)"/>
     <path id="DejaVuSans-c" d="M 513 4856 
L 1013 4856 
Q 1481 4119 1714 3412 
Q 1947 2706 1947 2009 
Q 1947 1309 1714 600 
Q 1481 -109 1013 -844 
L 513 -844 
Q 928 -128 1133 580 
Q 1338 1288 1338 2009 
Q 1338 2731 1133 3434 
Q 928 4138 513 4856 
z
" transform="scale(0.015625)"/>
    </defs>
    <use xlink:href="#DejaVuSans-b"/>
    <use xlink:href="#DejaVuSans-51" transform="translate(39.015625 0)"/>
    <use xlink:href="#DejaVuSans-52" transform="translate(102.390625 0)"/>
    <use xlink:href="#DejaVuSans-3" transform="translate(163.578125 0)"/>
    <use xlink:href="#DejaVuSans-46" transform="translate(195.359375 0)"/>
    <use xlink:href="#DejaVuSans-52" transform="translate(250.34375 0)"/>
    <use xlink:href="#DejaVuSans-50" transform="translate(311.53125 0)"/>
    <use xlink:href="#DejaVuSans-53" transform="translate(408.9375 0)"/>
    <use xlink:href="#DejaVuSans-44" transform="translate(472.421875 0)"/>
    <use xlink:href="#DejaVuSans-55" transform="translate(533.703125 0)"/>
    <use xlink:href="#DejaVuSans-44" transform="translate(574.8125 0)"/>
    <use xlink:href="#DejaVuSans-57" transform="translate(636.09375 0)"/>
    <use xlink:href="#DejaVuSans-4c" transform="translate(675.296875 0)"/>
    <use xlink:href="#DejaVuSans-59" transform="translate(703.078125 0)"/>
    <use xlink:href="#DejaVuSans-48" transform="translate(762.265625 0)"/>
    <use xlink:href="#DejaVuSans-3" transform="translate(823.796875 0)"/>
    <use xlink:href="#DejaVuSans-50" transform="translate(855.578125 0)"/>
    <use xlink:href="#DejaVuSans-48" transform="translate(952.984375 0)"/>
    <use xlink:href="#DejaVuSans-57" transform="translate(1014.515625 0)"/>
    <use xlink:href="#DejaVuSans-55" transform="translate(1053.71875 0)"/>
    <use xlink:href="#DejaVuSans-4c" transform="translate(1094.828125 0)"/>
    <use xlink:href="#DejaVuSans-46" transform="translate(1122.609375 0)"/>
    <use xlink:href="#DejaVuSans-56" transform="translate(1177.59375 0)"/>
    <use xlink:href="#DejaVuSans-3" transform="translate(1229.6875 0)"/>
    <use xlink:href="#DejaVuSans-af6" transform="translate(1261.46875 0)"/>
    <use xlink:href="#DejaVuSans-3" transform="translate(1361.46875 0)"/>
    <use xlink:href="#DejaVuSans-3a" transform="translate(1393.25 0)"/>
    <use xlink:href="#DejaVuSans-37" transform="translate(1492.125 0)"/>
    <use xlink:href="#DejaVuSans-3" transform="translate(1553.203125 0)"/>
    <use xlink:href="#DejaVuSans-55" transform="translate(1584.984375 0)"/>
    <use xlink:href="#DejaVuSans-48" transform="translate(1623.890625 0)"/>
    <use xlink:href="#DejaVuSans-49" transform="translate(1685.421875 0)"/>
    <use xlink:href="#DejaVuSans-48" transform="translate(1720.625 0)"/>
    <use xlink:href="#DejaVuSans-55" transform="translate(1782.15625 0)"/>
    <use xlink:href="#DejaVuSans-48" transform="translate(1821.0625 0)"/>
    <use xlink:href="#DejaVuSans-51" transform="translate(1882.59375 0)"/>
    <use xlink:href="#DejaVuSans-46" transform="translate(1945.96875 0)"/>
    <use xlink:href="#DejaVuSans-48" transform="translate(2000.953125 0)"/>
    <use xlink:href="#DejaVuSans-c" transform="translate(2062.484375 0)"/>
   </g>
  </g>
  <g id="text_21">
   <!-- PLIP: 4 hydrophobic · 2 H-bond · 1 π-stack · 1 halogen -->
   <g transform="translate(218.987461 61.654359) scale(0.105 -0.105)">
    <defs>
     <path id="DejaVuSans-33" d="M 1259 4147 
L 1259 2394 
L 2053 2394 
Q 2494 2394 2734 2622 
Q 2975 2850 2975 3272 
Q 2975 3691 2734 3919 
Q 2494 4147 2053 4147 
L 1259 4147 
z
M 628 4666 
L 2053 4666 
Q 2838 4666 3239 4311 
Q 3641 3956 3641 3272 
Q 3641 2581 3239 2228 
Q 2838 1875 2053 1875 
L 1259 1875 
L 1259 0 
L 628 0 
L 628 4666 
z
" transform="scale(0.015625)"/>
     <path id="DejaVuSans-2f" d="M 628 4666 
L 1259 4666 
L 1259 531 
L 3531 531 
L 3531 0 
L 628 0 
L 628 4666 
z
" transform="scale(0.015625)"/>
     <path id="DejaVuSans-2c" d="M 628 4666 
L 1259 4666 
L 1259 0 
L 628 0 
L 628 4666 
z
" transform="scale(0.015625)"/>
     <path id="DejaVuSans-1d" d="M 750 794 
L 1409 794 
L 1409 0 
L 750 0 
L 750 794 
z
M 750 3309 
L 1409 3309 
L 1409 2516 
L 750 2516 
L 750 3309 
z
" transform="scale(0.015625)"/>
     <path id="DejaVuSans-17" d="M 2419 4116 
L 825 1625 
L 2419 1625 
L 2419 4116 
z
M 2253 4666 
L 3047 4666 
L 3047 1625 
L 3713 1625 
L 3713 1100 
L 3047 1100 
L 3047 0 
L 2419 0 
L 2419 1100 
L 313 1100 
L 313 1709 
L 2253 4666 
z
" transform="scale(0.015625)"/>
     <path id="DejaVuSans-4b" d="M 3513 2113 
L 3513 0 
L 2938 0 
L 2938 2094 
Q 2938 2591 2744 2837 
Q 2550 3084 2163 3084 
Q 1697 3084 1428 2787 
Q 1159 2491 1159 1978 
L 1159 0 
L 581 0 
L 581 4863 
L 1159 4863 
L 1159 2956 
Q 1366 3272 1645 3428 
Q 1925 3584 2291 3584 
Q 2894 3584 3203 3211 
Q 3513 2838 3513 2113 
z
" transform="scale(0.015625)"/>
     <path id="DejaVuSans-5c" d="M 2059 -325 
Q 1816 -950 1584 -1140 
Q 1353 -1331 966 -1331 
L 506 -1331 
L 506 -850 
L 844 -850 
Q 1081 -850 1212 -737 
Q 1344 -625 1503 -206 
L 1606 56 
L 191 3500 
L 800 3500 
L 1894 763 
L 2988 3500 
L 3597 3500 
L 2059 -325 
z
" transform="scale(0.015625)"/>
     <path id="DejaVuSans-47" d="M 2906 2969 
L 2906 4863 
L 3481 4863 
L 3481 0 
L 2906 0 
L 2906 525 
Q 2725 213 2448 61 
Q 2172 -91 1784 -91 
Q 1150 -91 751 415 
Q 353 922 353 1747 
Q 353 2572 751 3078 
Q 1150 3584 1784 3584 
Q 2172 3584 2448 3432 
Q 2725 3281 2906 2969 
z
M 947 1747 
Q 947 1113 1208 752 
Q 1469 391 1925 391 
Q 2381 391 2643 752 
Q 2906 1113 2906 1747 
Q 2906 2381 2643 2742 
Q 2381 3103 1925 3103 
Q 1469 3103 1208 2742 
Q 947 2381 947 1747 
z
" transform="scale(0.015625)"/>
     <path id="DejaVuSans-45" d="M 3116 1747 
Q 3116 2381 2855 2742 
Q 2594 3103 2138 3103 
Q 1681 3103 1420 2742 
Q 1159 2381 1159 1747 
Q 1159 1113 1420 752 
Q 1681 391 2138 391 
Q 2594 391 2855 752 
Q 3116 1113 3116 1747 
z
M 1159 2969 
Q 1341 3281 1617 3432 
Q 1894 3584 2278 3584 
Q 2916 3584 3314 3078 
Q 3713 2572 3713 1747 
Q 3713 922 3314 415 
Q 2916 -91 2278 -91 
Q 1894 -91 1617 61 
Q 1341 213 1159 525 
L 1159 0 
L 581 0 
L 581 4863 
L 1159 4863 
L 1159 2969 
z
" transform="scale(0.015625)"/>
     <path id="DejaVuSans-79" d="M 684 2619 
L 1344 2619 
L 1344 1825 
L 684 1825 
L 684 2619 
z
" transform="scale(0.015625)"/>
     <path id="DejaVuSans-15" d="M 1228 531 
L 3431 531 
L 3431 0 
L 469 0 
L 469 531 
Q 828 903 1448 1529 
Q 2069 2156 2228 2338 
Q 2531 2678 2651 2914 
Q 2772 3150 2772 3378 
Q 2772 3750 2511 3984 
Q 2250 4219 1831 4219 
Q 1534 4219 1204 4116 
Q 875 4013 500 3803 
L 500 4441 
Q 881 4594 1212 4672 
Q 1544 4750 1819 4750 
Q 2544 4750 2975 4387 
Q 3406 4025 3406 3419 
Q 3406 3131 3298 2873 
Q 3191 2616 2906 2266 
Q 2828 2175 2409 1742 
Q 1991 1309 1228 531 
z
" transform="scale(0.015625)"/>
     <path id="DejaVuSans-2b" d="M 628 4666 
L 1259 4666 
L 1259 2753 
L 3553 2753 
L 3553 4666 
L 4184 4666 
L 4184 0 
L 3553 0 
L 3553 2222 
L 1259 2222 
L 1259 0 
L 628 0 
L 628 4666 
z
" transform="scale(0.015625)"/>
     <path id="DejaVuSans-10" d="M 313 2009 
L 1997 2009 
L 1997 1497 
L 313 1497 
L 313 2009 
z
" transform="scale(0.015625)"/>
     <path id="DejaVuSans-14" d="M 794 531 
L 1825 531 
L 1825 4091 
L 703 3866 
L 703 4441 
L 1819 4666 
L 2450 4666 
L 2450 531 
L 3481 531 
L 3481 0 
L 794 0 
L 794 531 
z
" transform="scale(0.015625)"/>
     <path id="DejaVuSans-354" d="M 231 3500 
L 3584 3500 
L 3584 2925 
L 3144 2925 
L 3144 775 
Q 3144 550 3220 451 
Q 3297 353 3469 353 
Q 3516 353 3584 361 
Q 3653 369 3675 372 
L 3675 -44 
Q 3566 -84 3450 -103 
Q 3334 -122 3219 -122 
Q 2844 -122 2700 83 
Q 2556 288 2556 838 
L 2556 2925 
L 1266 2925 
L 1266 0 
L 678 0 
L 678 2925 
L 231 2925 
L 231 3500 
z
" transform="scale(0.015625)"/>
     <path id="DejaVuSans-4e" d="M 581 4863 
L 1159 4863 
L 1159 1991 
L 2875 3500 
L 3609 3500 
L 1753 1863 
L 3688 0 
L 2938 0 
L 1159 1709 
L 1159 0 
L 581 0 
L 581 4863 
z
" transform="scale(0.015625)"/>
     <path id="DejaVuSans-4f" d="M 603 4863 
L 1178 4863 
L 1178 0 
L 603 0 
L 603 4863 
z
" transform="scale(0.015625)"/>
     <path id="DejaVuSans-4a" d="M 2906 1791 
Q 2906 2416 2648 2759 
Q 2391 3103 1925 3103 
Q 1463 3103 1205 2759 
Q 947 2416 947 1791 
Q 947 1169 1205 825 
Q 1463 481 1925 481 
Q 2391 481 2648 825 
Q 2906 1169 2906 1791 
z
M 3481 434 
Q 3481 -459 3084 -895 
Q 2688 -1331 1869 -1331 
Q 1566 -1331 1297 -1286 
Q 1028 -1241 775 -1147 
L 775 -588 
Q 1028 -725 1275 -790 
Q 1522 -856 1778 -856 
Q 2344 -856 2625 -561 
Q 2906 -266 2906 331 
L 2906 616 
Q 2728 306 2450 153 
Q 2172 0 1784 0 
Q 1141 0 747 490 
Q 353 981 353 1791 
Q 353 2603 747 3093 
Q 1141 3584 1784 3584 
Q 2172 3584 2450 3431 
Q 2728 3278 2906 2969 
L 2906 3500 
L 3481 3500 
L 3481 434 
z
" transform="scale(0.015625)"/>
    </defs>
    <use xlink:href="#DejaVuSans-33"/>
    <use xlink:href="#DejaVuSans-2f" transform="translate(60.296875 0)"/>
    <use xlink:href="#DejaVuSans-2c" transform="translate(116.015625 0)"/>
    <use xlink:href="#DejaVuSans-33" transform="translate(145.515625 0)"/>
    <use xlink:href="#DejaVuSans-1d" transform="translate(205.8125 0)"/>
    <use xlink:href="#DejaVuSans-3" transform="translate(239.5 0)"/>
    <use xlink:href="#DejaVuSans-17" transform="translate(271.28125 0)"/>
    <use xlink:href="#DejaVuSans-3" transform="translate(334.90625 0)"/>
    <use xlink:href="#DejaVuSans-4b" transform="translate(366.6875 0)"/>
    <use xlink:href="#DejaVuSans-5c" transform="translate(430.0625 0)"/>
    <use xlink:href="#DejaVuSans-47" transform="translate(489.25 0)"/>
    <use xlink:href="#DejaVuSans-55" transform="translate(552.734375 0)"/>
    <use xlink:href="#DejaVuSans-52" transform="translate(591.640625 0)"/>
    <use xlink:href="#DejaVuSans-53" transform="translate(652.828125 0)"/>
    <use xlink:href="#DejaVuSans-4b" transform="translate(716.3125 0)"/>
    <use xlink:href="#DejaVuSans-52" transform="translate(779.6875 0)"/>
    <use xlink:href="#DejaVuSans-45" transform="translate(840.875 0)"/>
    <use xlink:href="#DejaVuSans-4c" transform="translate(904.359375 0)"/>
    <use xlink:href="#DejaVuSans-46" transform="translate(932.140625 0)"/>
    <use xlink:href="#DejaVuSans-3" transform="translate(987.125 0)"/>
    <use xlink:href="#DejaVuSans-79" transform="translate(1018.90625 0)"/>
    <use xlink:href="#DejaVuSans-3" transform="translate(1050.6875 0)"/>
    <use xlink:href="#DejaVuSans-15" transform="translate(1082.46875 0)"/>
    <use xlink:href="#DejaVuSans-3" transform="translate(1146.09375 0)"/>
    <use xlink:href="#DejaVuSans-2b" transform="translate(1177.875 0)"/>
    <use xlink:href="#DejaVuSans-10" transform="translate(1253.078125 0)"/>
    <use xlink:href="#DejaVuSans-45" transform="translate(1289.15625 0)"/>
    <use xlink:href="#DejaVuSans-52" transform="translate(1352.640625 0)"/>
    <use xlink:href="#DejaVuSans-51" transform="translate(1413.828125 0)"/>
    <use xlink:href="#DejaVuSans-47" transform="translate(1477.203125 0)"/>
    <use xlink:href="#DejaVuSans-3" transform="translate(1540.6875 0)"/>
    <use xlink:href="#DejaVuSans-79" transform="translate(1572.46875 0)"/>
    <use xlink:href="#DejaVuSans-3" transform="translate(1604.25 0)"/>
    <use xlink:href="#DejaVuSans-14" transform="translate(1636.03125 0)"/>
    <use xlink:href="#DejaVuSans-3" transform="translate(1699.65625 0)"/>
    <use xlink:href="#DejaVuSans-354" transform="translate(1731.4375 0)"/>
    <use xlink:href="#DejaVuSans-10" transform="translate(1791.640625 0)"/>
    <use xlink:href="#DejaVuSans-56" transform="translate(1827.71875 0)"/>
    <use xlink:href="#DejaVuSans-57" transform="translate(1879.8125 0)"/>
    <use xlink:href="#DejaVuSans-44" transform="translate(1919.015625 0)"/>
    <use xlink:href="#DejaVuSans-46" transform="translate(1980.296875 0)"/>
    <use xlink:href="#DejaVuSans-4e" transform="translate(2035.28125 0)"/>
    <use xlink:href="#DejaVuSans-3" transform="translate(2093.1875 0)"/>
    <use xlink:href="#DejaVuSans-79" transform="translate(2124.96875 0)"/>
    <use xlink:href="#DejaVuSans-3" transform="translate(2156.75 0)"/>
    <use xlink:href="#DejaVuSans-14" transform="translate(2188.53125 0)"/>
    <use xlink:href="#DejaVuSans-3" transform="translate(2252.15625 0)"/>
    <use xlink:href="#DejaVuSans-4b" transform="translate(2283.9375 0)"/>
    <use xlink:href="#DejaVuSans-44" transform="translate(2347.3125 0)"/>
    <use xlink:href="#DejaVuSans-4f" transform="translate(2408.59375 0)"/>
    <use xlink:href="#DejaVuSans-52" transform="translate(2436.375 0)"/>
    <use xlink:href="#DejaVuSans-4a" transform="translate(2497.5625 0)"/>
    <use xlink:href="#DejaVuSans-48" transform="translate(2561.046875 0)"/>
    <use xlink:href="#DejaVuSans-51" transform="translate(2622.578125 0)"/>
   </g>
  </g>
  <g id="text_22">
   <!-- H-bond -->
   <g transform="translate(120.24 716.62834) scale(0.085 -0.085)">
    <use xlink:href="#DejaVuSans-2b"/>
    <use xlink:href="#DejaVuSans-10" transform="translate(75.203125 0)"/>
    <use xlink:href="#DejaVuSans-45" transform="translate(111.28125 0)"/>
    <use xlink:href="#DejaVuSans-52" transform="translate(174.765625 0)"/>
    <use xlink:href="#DejaVuSans-51" transform="translate(235.953125 0)"/>
    <use xlink:href="#DejaVuSans-47" transform="translate(299.328125 0)"/>
   </g>
  </g>
  <g id="text_23">
   <!-- Hydrophobic -->
   <g transform="translate(278.64 716.62834) scale(0.085 -0.085)">
    <use xlink:href="#DejaVuSans-2b"/>
    <use xlink:href="#DejaVuSans-5c" transform="translate(75.203125 0)"/>
    <use xlink:href="#DejaVuSans-47" transform="translate(134.390625 0)"/>
    <use xlink:href="#DejaVuSans-55" transform="translate(197.875 0)"/>
    <use xlink:href="#DejaVuSans-52" transform="translate(236.78125 0)"/>
    <use xlink:href="#DejaVuSans-53" transform="translate(297.96875 0)"/>
    <use xlink:href="#DejaVuSans-4b" transform="translate(361.453125 0)"/>
    <use xlink:href="#DejaVuSans-52" transform="translate(424.828125 0)"/>
    <use xlink:href="#DejaVuSans-45" transform="translate(486.015625 0)"/>
    <use xlink:href="#DejaVuSans-4c" transform="translate(549.5 0)"/>
    <use xlink:href="#DejaVuSans-46" transform="translate(577.28125 0)"/>
   </g>
  </g>
  <g id="text_24">
   <!-- π-stack -->
   <g transform="translate(437.04 716.62834) scale(0.085 -0.085)">
    <use xlink:href="#DejaVuSans-354"/>
    <use xlink:href="#DejaVuSans-10" transform="translate(60.203125 0)"/>
    <use xlink:href="#DejaVuSans-56" transform="translate(96.28125 0)"/>
    <use xlink:href="#DejaVuSans-57" transform="translate(148.375 0)"/>
    <use xlink:href="#DejaVuSans-44" transform="translate(187.578125 0)"/>
    <use xlink:href="#DejaVuSans-46" transform="translate(248.859375 0)"/>
    <use xlink:href="#DejaVuSans-4e" transform="translate(303.84375 0)"/>
   </g>
  </g>
  <g id="text_25">
   <!-- Halogen -->
   <g transform="translate(595.44 716.62834) scale(0.085 -0.085)">
    <use xlink:href="#DejaVuSans-2b"/>
    <use xlink:href="#DejaVuSans-44" transform="translate(75.203125 0)"/>
    <use xlink:href="#DejaVuSans-4f" transform="translate(136.484375 0)"/>
    <use xlink:href="#DejaVuSans-52" transform="translate(164.265625 0)"/>
    <use xlink:href="#DejaVuSans-4a" transform="translate(225.453125 0)"/>
    <use xlink:href="#DejaVuSans-48" transform="translate(288.9375 0)"/>
    <use xlink:href="#DejaVuSans-51" transform="translate(350.46875 0)"/>
   </g>
  </g>
  <g id="text_26">
   <!-- Basic -->
   <g transform="translate(100.8 739.178437) scale(0.08 -0.08)">
    <defs>
     <path id="DejaVuSans-25" d="M 1259 2228 
L 1259 519 
L 2272 519 
Q 2781 519 3026 730 
Q 3272 941 3272 1375 
Q 3272 1813 3026 2020 
Q 2781 2228 2272 2228 
L 1259 2228 
z
M 1259 4147 
L 1259 2741 
L 2194 2741 
Q 2656 2741 2882 2914 
Q 3109 3088 3109 3444 
Q 3109 3797 2882 3972 
Q 2656 4147 2194 4147 
L 1259 4147 
z
M 628 4666 
L 2241 4666 
Q 2963 4666 3353 4366 
Q 3744 4066 3744 3513 
Q 3744 3084 3544 2831 
Q 3344 2578 2956 2516 
Q 3422 2416 3680 2098 
Q 3938 1781 3938 1306 
Q 3938 681 3513 340 
Q 3088 0 2303 0 
L 628 0 
L 628 4666 
z
" transform="scale(0.015625)"/>
    </defs>
    <use xlink:href="#DejaVuSans-25"/>
    <use xlink:href="#DejaVuSans-44" transform="translate(68.609375 0)"/>
    <use xlink:href="#DejaVuSans-56" transform="translate(129.890625 0)"/>
    <use xlink:href="#DejaVuSans-4c" transform="translate(181.984375 0)"/>
    <use xlink:href="#DejaVuSans-46" transform="translate(209.765625 0)"/>
   </g>
  </g>
  <g id="text_27">
   <!-- Acidic -->
   <g transform="translate(227.52 739.178437) scale(0.08 -0.08)">
    <defs>
     <path id="DejaVuSans-24" d="M 2188 4044 
L 1331 1722 
L 3047 1722 
L 2188 4044 
z
M 1831 4666 
L 2547 4666 
L 4325 0 
L 3669 0 
L 3244 1197 
L 1141 1197 
L 716 0 
L 50 0 
L 1831 4666 
z
" transform="scale(0.015625)"/>
    </defs>
    <use xlink:href="#DejaVuSans-24"/>
    <use xlink:href="#DejaVuSans-46" transform="translate(66.65625 0)"/>
    <use xlink:href="#DejaVuSans-4c" transform="translate(121.640625 0)"/>
    <use xlink:href="#DejaVuSans-47" transform="translate(149.421875 0)"/>
    <use xlink:href="#DejaVuSans-4c" transform="translate(212.90625 0)"/>
    <use xlink:href="#DejaVuSans-46" transform="translate(240.6875 0)"/>
   </g>
  </g>
  <g id="text_28">
   <!-- Polar -->
   <g transform="translate(354.24 739.178437) scale(0.08 -0.08)">
    <use xlink:href="#DejaVuSans-33"/>
    <use xlink:href="#DejaVuSans-52" transform="translate(56.734375 0)"/>
    <use xlink:href="#DejaVuSans-4f" transform="translate(117.921875 0)"/>
    <use xlink:href="#DejaVuSans-44" transform="translate(145.703125 0)"/>
    <use xlink:href="#DejaVuSans-55" transform="translate(206.984375 0)"/>
   </g>
  </g>
  <g id="text_29">
   <!-- Hydrophobic -->
   <g transform="translate(480.96 739.178437) scale(0.08 -0.08)">
    <use xlink:href="#DejaVuSans-2b"/>
    <use xlink:href="#DejaVuSans-5c" transform="translate(75.203125 0)"/>
    <use xlink:href="#DejaVuSans-47" transform="translate(134.390625 0)"/>
    <use xlink:href="#DejaVuSans-55" transform="translate(197.875 0)"/>
    <use xlink:href="#DejaVuSans-52" transform="translate(236.78125 0)"/>
    <use xlink:href="#DejaVuSans-53" transform="translate(297.96875 0)"/>
    <use xlink:href="#DejaVuSans-4b" transform="translate(361.453125 0)"/>
    <use xlink:href="#DejaVuSans-52" transform="translate(424.828125 0)"/>
    <use xlink:href="#DejaVuSans-45" transform="translate(486.015625 0)"/>
    <use xlink:href="#DejaVuSans-4c" transform="translate(549.5 0)"/>
    <use xlink:href="#DejaVuSans-46" transform="translate(577.28125 0)"/>
   </g>
  </g>
  <g id="text_30">
   <!-- Mutation site -->
   <g transform="translate(607.68 739.178437) scale(0.08 -0.08)">
    <defs>
     <path id="DejaVuSans-30" d="M 628 4666 
L 1569 4666 
L 2759 1491 
L 3956 4666 
L 4897 4666 
L 4897 0 
L 4281 0 
L 4281 4097 
L 3078 897 
L 2444 897 
L 1241 4097 
L 1241 0 
L 628 0 
L 628 4666 
z
" transform="scale(0.015625)"/>
     <path id="DejaVuSans-58" d="M 544 1381 
L 544 3500 
L 1119 3500 
L 1119 1403 
Q 1119 906 1312 657 
Q 1506 409 1894 409 
Q 2359 409 2629 706 
Q 2900 1003 2900 1516 
L 2900 3500 
L 3475 3500 
L 3475 0 
L 2900 0 
L 2900 538 
Q 2691 219 2414 64 
Q 2138 -91 1772 -91 
Q 1169 -91 856 284 
Q 544 659 544 1381 
z
M 1991 3584 
L 1991 3584 
z
" transform="scale(0.015625)"/>
    </defs>
    <use xlink:href="#DejaVuSans-30"/>
    <use xlink:href="#DejaVuSans-58" transform="translate(86.28125 0)"/>
    <use xlink:href="#DejaVuSans-57" transform="translate(149.65625 0)"/>
    <use xlink:href="#DejaVuSans-44" transform="translate(188.859375 0)"/>
    <use xlink:href="#DejaVuSans-57" transform="translate(250.140625 0)"/>
    <use xlink:href="#DejaVuSans-4c" transform="translate(289.34375 0)"/>
    <use xlink:href="#DejaVuSans-52" transform="translate(317.125 0)"/>
    <use xlink:href="#DejaVuSans-51" transform="translate(378.3125 0)"/>
    <use xlink:href="#DejaVuSans-3" transform="translate(441.6875 0)"/>
    <use xlink:href="#DejaVuSans-56" transform="translate(473.46875 0)"/>
    <use xlink:href="#DejaVuSans-4c" transform="translate(525.5625 0)"/>
    <use xlink:href="#DejaVuSans-57" transform="translate(553.34375 0)"/>
    <use xlink:href="#DejaVuSans-48" transform="translate(592.546875 0)"/>
   </g>
  </g>
 </g>
 <defs>
  <clipPath id="pf2aac4e967">
   <rect x="53.82" y="75.6" width="612.36" height="612.36"/>
  </clipPath>
 </defs>
</svg>
