<?xml version="1.0" encoding="utf-8" standalone="no"?>
<!DOCTYPE svg PUBLIC "-//W3C//DTD SVG 1.1//EN"
  "http://www.w3.org/Graphics/SVG/1.1/DTD/svg11.dtd">
<svg xmlns:xlink="http://www.w3.org/1999/xlink" width="720pt" height="756pt" viewBox="0 0 720 756" xmlns="http://www.w3.org/2000/svg" version="1.1">
 <metadata>
  <rdf:RDF xmlns:dc="http://purl.org/dc/elements/1.1/" xmlns:cc="http://creativecommons.org/ns#" xmlns:rdf="http://www.w3.org/1999/02/22-rdf-syntax-ns#">
   <cc:Work>
    <dc:type rdf:resource="http://purl.org/dc/dcmitype/StillImage"/>
    <dc:date>2022-01-01T05:00:00+00:00</dc:date>
    <dc:format>image/svg+xml</dc:format>
    <dc:creator>
     <cc:Agent>
      <dc:title>Matplotlib v3.11.0, https://matplotlib.org/</dc:title>
     </cc:Agent>
    </dc:creator>
   </cc:Work>
  </rdf:RDF>
 </metadata>
 <defs>
  <style type="text/css">*{stroke-linejoin: round; stroke-linecap: butt}</style>
 </defs>
 <g id="figure_1">
  <g id="patch_1">
   <path d="M 0 756 
L 720 756 
L 720 0 
L 0 0 
z
" style="fill: #ffffff"/>
  </g>
  <g id="axes_1">
   <g id="line2d_1">
    <path d="M 493.445109 145.696837 
L 490.823543 152.568131 
L 488.132288 159.399732 
L 485.371344 166.19164 
L 482.54071 172.943854 
L 479.640387 179.656374 
L 476.670375 186.329201 
L 473.630674 192.962335 
L 470.521283 199.555776 
L 467.342204 206.109523 
L 464.093434 212.623576 
L 460.774976 219.097936 
L 457.386829 225.532603 
L 453.928992 231.927577 
L 450.401466 238.282857 
L 446.804251 244.598443 
L 443.137347 250.874336 
L 439.400753 257.110536 
L 435.59447 263.307042 
L 431.718498 269.463855 
L 427.772837 275.580975 
L 423.757486 281.658401 
L 419.672446 287.696133 
L 415.517717 293.694173 
L 411.293299 299.652519 
L 406.999191 305.571171 
L 402.635395 311.45013 
L 398.201909 317.289396 
L 393.698734 323.088968 
L 389.125869 328.848847 
" clip-path="url(#pa37cfca93c)" style="fill: none; stroke: #75a025; stroke-opacity: 0.4; stroke-width: 4; stroke-linecap: round"/>
   </g>
   <g id="line2d_2">
    <path d="M 364.080142 110.892376 
L 366.234341 118.279929 
L 368.305336 125.6784 
L 370.293126 133.087786 
L 372.197712 140.50809 
L 374.019093 147.939311 
L 375.75727 155.381448 
L 377.412243 162.834503 
L 378.984012 170.298474 
L 380.472577 177.773362 
L 381.877937 185.259166 
L 383.200092 192.755888 
L 384.439044 200.263526 
L 385.594791 207.782082 
L 386.667334 215.311554 
L 387.656673 222.851943 
L 388.562807 230.403249 
L 389.385737 237.965471 
L 390.125463 245.538611 
L 390.781985 253.122667 
L 391.355302 260.71764 
L 391.845415 268.323531 
L 392.252323 275.940337 
L 392.576028 283.568061 
L 392.816528 291.206702 
L 392.973823 298.856259 
L 393.047915 306.516733 
L 393.038802 314.188124 
L 392.946485 321.870432 
L 392.770963 329.563657 
" clip-path="url(#pa37cfca93c)" style="fill: none; stroke: #75a025; stroke-opacity: 0.4; stroke-width: 4; stroke-linecap: round"/>
   </g>
   <g id="line2d_3">
    <path d="M 629.982186 356.850207 
L 623.474812 358.951584 
L 616.955624 360.979329 
L 610.424624 362.933445 
L 603.881811 364.81393 
L 597.327185 366.620784 
L 590.760747 368.354008 
L 584.182495 370.013602 
L 577.59243 371.599565 
L 570.990552 373.111898 
L 564.376861 374.550601 
L 557.751357 375.915673 
L 551.11404 377.207114 
L 544.464911 378.424926 
L 537.803968 379.569107 
L 531.131212 380.639657 
L 524.446644 381.636577 
L 517.750262 382.559867 
L 511.042067 383.409526 
L 504.32206 384.185555 
L 497.590239 384.887953 
L 490.846606 385.516721 
L 484.091159 386.071859 
L 477.3239 386.553366 
L 470.544827 386.961243 
L 463.753942 387.295489 
L 456.951244 387.556105 
L 450.136732 387.743091 
L 443.310408 387.856446 
L 436.472271 387.896171 
" clip-path="url(#pa37cfca93c)" style="fill: none; stroke: #75a025; stroke-opacity: 0.4; stroke-width: 4; stroke-linecap: round"/>
   </g>
   <g id="line2d_4">
    <path d="M 282.752802 641.713492 
L 284.190435 633.55051 
L 285.713649 625.416612 
L 287.322444 617.311798 
L 289.016821 609.236068 
L 290.796778 601.189423 
L 292.662317 593.171862 
L 294.613438 585.183386 
L 296.650139 577.223994 
L 298.772422 569.293686 
L 300.980286 561.392463 
L 303.273731 553.520324 
L 305.652758 545.67727 
L 308.117366 537.863299 
L 310.667555 530.078414 
L 313.303325 522.322612 
L 316.024677 514.595895 
L 318.83161 506.898262 
L 321.724124 499.229714 
L 324.702219 491.59025 
L 327.765896 483.97987 
L 330.915154 476.398575 
L 334.149993 468.846364 
L 337.470413 461.323237 
L 340.876415 453.829195 
L 344.367998 446.364237 
L 347.945162 438.928364 
L 351.607907 431.521575 
L 355.356234 424.14387 
L 359.190142 416.795249 
" clip-path="url(#pa37cfca93c)" style="fill: none; stroke: #75a025; stroke-opacity: 0.4; stroke-width: 4; stroke-linecap: round"/>
   </g>
   <g id="line2d_5">
    <path d="M 584.187715 230.499616 
L 580.014056 236.821248 
L 575.779215 243.087373 
L 571.483194 249.297994 
L 567.125991 255.453108 
L 562.707606 261.552717 
L 558.228041 267.596821 
L 553.687294 273.585418 
L 549.085366 279.51851 
L 544.422257 285.396097 
L 539.697966 291.218178 
L 534.912494 296.984753 
L 530.065841 302.695823 
L 525.158006 308.351387 
L 520.188991 313.951445 
L 515.158794 319.495998 
L 510.067415 324.985045 
L 504.914856 330.418586 
L 499.701115 335.796622 
L 494.426193 341.119153 
L 489.09009 346.386177 
L 483.692805 351.597696 
L 478.234339 356.75371 
L 472.714692 361.854217 
L 467.133863 366.89922 
L 461.491854 371.888716 
L 455.788663 376.822707 
L 450.02429 381.701192 
L 444.198737 386.524172 
L 438.312002 391.291646 
" clip-path="url(#pa37cfca93c)" style="fill: none; stroke: #75a025; stroke-opacity: 0.4; stroke-width: 4; stroke-linecap: round"/>
   </g>
   <g id="line2d_6">
    <path d="M 235.367996 141.731125 
L 242.686076 147.914313 
L 249.925335 154.166076 
L 257.085771 160.486413 
L 264.167386 166.875325 
L 271.170179 173.332812 
L 278.09415 179.858873 
L 284.939299 186.453509 
L 291.705627 193.116719 
L 298.393132 199.848504 
L 305.001815 206.648864 
L 311.531677 213.517798 
L 317.982717 220.455307 
L 324.354935 227.46139 
L 330.648331 234.536048 
L 336.862905 241.679281 
L 342.998657 248.891088 
L 349.055588 256.17147 
L 355.033696 263.520426 
L 360.932983 270.937957 
L 366.753447 278.424063 
L 372.49509 285.978743 
L 378.157911 293.601998 
L 383.74191 301.293828 
L 389.247088 309.054232 
L 394.673443 316.883211 
L 400.020977 324.780764 
L 405.289688 332.746892 
L 410.479578 340.781594 
L 415.590646 348.884872 
" clip-path="url(#pa37cfca93c)" style="fill: none; stroke: #75a025; stroke-opacity: 0.4; stroke-width: 4; stroke-linecap: round"/>
   </g>
   <g id="line2d_7">
    <path d="M 608.431474 490.05506 
L 602.419106 487.662022 
L 596.442538 485.208171 
L 590.501771 482.693507 
L 584.596804 480.118031 
L 578.727637 477.481741 
L 572.894271 474.784639 
L 567.096706 472.026724 
L 561.334941 469.207997 
L 555.608976 466.328456 
L 549.918812 463.388103 
L 544.264449 460.386936 
L 538.645886 457.324957 
L 533.063123 454.202166 
L 527.516161 451.018561 
L 522.004999 447.774143 
L 516.529638 444.468913 
L 511.090077 441.10287 
L 505.686317 437.676014 
L 500.318357 434.188345 
L 494.986198 430.639864 
L 489.689839 427.030569 
L 484.42928 423.360462 
L 479.204522 419.629542 
L 474.015565 415.837809 
L 468.862408 411.985264 
L 463.745051 408.071905 
L 458.663495 404.097734 
L 453.61774 400.06275 
L 448.607784 395.966953 
" clip-path="url(#pa37cfca93c)" style="fill: none; stroke: #75a025; stroke-opacity: 0.4; stroke-width: 4; stroke-linecap: round"/>
   </g>
   <g id="line2d_8">
    <path d="M 526.129337 595.061949 
L 522.401073 589.083536 
L 518.743447 583.074896 
L 515.156459 577.036029 
L 511.64011 570.966934 
L 508.194398 564.867613 
L 504.819326 558.738065 
L 501.514891 552.578289 
L 498.281095 546.388287 
L 495.117936 540.168057 
L 492.025417 533.9176 
L 489.003535 527.636916 
L 486.052292 521.326006 
L 483.171687 514.984868 
L 480.36172 508.613503 
L 477.622391 502.211911 
L 474.953701 495.780091 
L 472.355649 489.318045 
L 469.828235 482.825772 
L 467.37146 476.303272 
L 464.985322 469.750544 
L 462.669823 463.16759 
L 460.424963 456.554408 
L 458.25074 449.910999 
L 456.147156 443.237364 
L 454.11421 436.533501 
L 452.151902 429.799411 
L 450.260233 423.035094 
L 448.439201 416.24055 
L 446.688808 409.415779 
" clip-path="url(#pa37cfca93c)" style="fill: none; stroke: #75a025; stroke-opacity: 0.4; stroke-width: 4; stroke-linecap: round"/>
   </g>
   <g id="line2d_9">
    <path d="M 584.329636 366.252768 
L 495.636087 388.631587 
" clip-path="url(#pa37cfca93c)" style="fill: none; stroke: #8b4513; stroke-width: 2.2; stroke-linecap: square"/>
   </g>
   <g id="patch_2">
    <path d="M 260.451544 182.69735 
Q 294.074152 263.095538 327.053725 341.956104 
" clip-path="url(#pa37cfca93c)" style="fill: none; stroke: #0279ee; stroke-width: 2; stroke-linecap: round"/>
    <path d="M 329.502597 332.260588 
L 327.053725 341.956104 
L 318.431714 336.890443 
" clip-path="url(#pa37cfca93c)" style="fill: none; stroke: #0279ee; stroke-width: 2; stroke-linecap: round"/>
   </g>
   <g id="patch_3">
    <path d="M 139.391039 352.556951 
Q 197.745973 360.617272 254.449914 368.449548 
" clip-path="url(#pa37cfca93c)" style="fill: none; stroke: #0279ee; stroke-width: 2; stroke-linecap: round"/>
    <path d="M 247.346115 361.411365 
L 254.449914 368.449548 
L 245.704194 373.298505 
" clip-path="url(#pa37cfca93c)" style="fill: none; stroke: #0279ee; stroke-width: 2; stroke-linecap: round"/>
   </g>
   <g id="patch_4">
    <path d="M 151.163732 458.640445 
Q 205.012493 438.464487 257.300541 418.873295 
" clip-path="url(#pa37cfca93c)" style="fill: none; stroke: #0279ee; stroke-width: 2; stroke-linecap: round"/>
    <path d="M 247.70396 416.0616 
L 257.300541 418.873295 
L 251.914271 427.298738 
" clip-path="url(#pa37cfca93c)" style="fill: none; stroke: #0279ee; stroke-width: 2; stroke-linecap: round"/>
   </g>
   <g id="patch_5">
    <path d="M 405.691996 422.822929 
Q 407.272141 511.091367 408.822454 597.693405 
" clip-path="url(#pa37cfca93c)" style="fill: none; stroke: #0279ee; stroke-width: 2; stroke-linecap: round"/>
    <path d="M 414.678303 589.587295 
L 408.822454 597.693405 
L 402.680225 589.802079 
" clip-path="url(#pa37cfca93c)" style="fill: none; stroke: #0279ee; stroke-width: 2; stroke-linecap: round"/>
   </g>
   <g id="line2d_10">
    <path d="M 340.846046 380.948376 
L 352.248979 392.901681 
" clip-path="url(#pa37cfca93c)" style="fill: none; stroke: #222222; stroke-width: 2; stroke-linecap: round"/>
   </g>
   <g id="line2d_11">
    <path d="M 337.470166 384.168819 
L 348.873099 396.122124 
" clip-path="url(#pa37cfca93c)" style="fill: none; stroke-dasharray: 3,2; stroke-dashoffset: 0; stroke: #222222"/>
   </g>
   <g id="line2d_12">
    <path d="M 346.046968 367.363404 
L 341.396569 383.215286 
" clip-path="url(#pa37cfca93c)" style="fill: none; stroke: #222222; stroke-width: 2; stroke-linecap: round"/>
   </g>
   <g id="line2d_13">
    <path d="M 341.570043 366.050027 
L 336.919643 381.901909 
" clip-path="url(#pa37cfca93c)" style="fill: none; stroke-dasharray: 3,2; stroke-dashoffset: 0; stroke: #222222"/>
   </g>
   <g id="line2d_14">
    <path d="M 334.937483 352.338078 
L 346.340416 364.291383 
" clip-path="url(#pa37cfca93c)" style="fill: none; stroke: #222222; stroke-width: 2; stroke-linecap: round"/>
   </g>
   <g id="line2d_15">
    <path d="M 329.873662 357.168743 
L 341.276595 369.122048 
" clip-path="url(#pa37cfca93c)" style="fill: none; stroke: #222222; stroke-width: 2; stroke-linecap: round"/>
   </g>
   <g id="line2d_16">
    <path d="M 360.41236 365.075048 
L 344.359028 368.973625 
" clip-path="url(#pa37cfca93c)" style="fill: none; stroke: #222222; stroke-width: 2; stroke-linecap: round"/>
   </g>
   <g id="line2d_17">
    <path d="M 359.311315 360.541228 
L 343.257983 364.439805 
" clip-path="url(#pa37cfca93c)" style="fill: none; stroke-dasharray: 3,2; stroke-dashoffset: 0; stroke: #222222"/>
   </g>
   <g id="line2d_18">
    <path d="M 369.75942 349.377271 
L 361.914852 363.915879 
" clip-path="url(#pa37cfca93c)" style="fill: none; stroke: #222222; stroke-width: 2; stroke-linecap: round"/>
   </g>
   <g id="line2d_19">
    <path d="M 365.653392 347.16179 
L 357.808824 361.700397 
" clip-path="url(#pa37cfca93c)" style="fill: none; stroke-dasharray: 3,2; stroke-dashoffset: 0; stroke: #222222"/>
   </g>
   <g id="line2d_20">
    <path d="M 383.538441 353.532324 
L 367.287298 350.564373 
" clip-path="url(#pa37cfca93c)" style="fill: none; stroke: #222222; stroke-width: 2; stroke-linecap: round"/>
   </g>
   <g id="line2d_21">
    <path d="M 384.376657 348.942638 
L 368.125514 345.974687 
" clip-path="url(#pa37cfca93c)" style="fill: none; stroke-dasharray: 3,2; stroke-dashoffset: 0; stroke: #222222"/>
   </g>
   <g id="line2d_22">
    <path d="M 383.844702 367.920934 
L 381.645512 351.548032 
" clip-path="url(#pa37cfca93c)" style="fill: none; stroke: #222222; stroke-width: 2; stroke-linecap: round"/>
   </g>
   <g id="line2d_23">
    <path d="M 388.468776 367.299834 
L 386.269586 350.926931 
" clip-path="url(#pa37cfca93c)" style="fill: none; stroke-dasharray: 3,2; stroke-dashoffset: 0; stroke: #222222"/>
   </g>
   <g id="line2d_24">
    <path d="M 370.254961 372.658531 
L 385.146929 365.507472 
" clip-path="url(#pa37cfca93c)" style="fill: none; stroke: #222222; stroke-width: 2; stroke-linecap: round"/>
   </g>
   <g id="line2d_25">
    <path d="M 372.27458 376.864356 
L 387.166548 369.713296 
" clip-path="url(#pa37cfca93c)" style="fill: none; stroke-dasharray: 3,2; stroke-dashoffset: 0; stroke: #222222"/>
   </g>
   <g id="line2d_26">
    <path d="M 369.57683 376.371665 
L 358.173897 364.41836 
" clip-path="url(#pa37cfca93c)" style="fill: none; stroke: #222222; stroke-width: 2; stroke-linecap: round"/>
   </g>
   <g id="line2d_27">
    <path d="M 372.952711 373.151222 
L 361.549778 361.197917 
" clip-path="url(#pa37cfca93c)" style="fill: none; stroke-dasharray: 3,2; stroke-dashoffset: 0; stroke: #222222"/>
   </g>
   <g id="line2d_28">
    <path d="M 364.375908 389.956637 
L 369.026307 374.104755 
" clip-path="url(#pa37cfca93c)" style="fill: none; stroke: #222222; stroke-width: 2; stroke-linecap: round"/>
   </g>
   <g id="line2d_29">
    <path d="M 368.852834 391.270013 
L 373.503233 375.418131 
" clip-path="url(#pa37cfca93c)" style="fill: none; stroke-dasharray: 3,2; stroke-dashoffset: 0; stroke: #222222"/>
   </g>
   <g id="line2d_30">
    <path d="M 367.164894 392.880235 
L 351.111562 396.778812 
" clip-path="url(#pa37cfca93c)" style="fill: none; stroke: #222222; stroke-width: 2; stroke-linecap: round"/>
   </g>
   <g id="line2d_31">
    <path d="M 366.063848 388.346415 
L 350.010516 392.244992 
" clip-path="url(#pa37cfca93c)" style="fill: none; stroke-dasharray: 3,2; stroke-dashoffset: 0; stroke: #222222"/>
   </g>
   <g id="line2d_32">
    <path d="M 323.104774 386.457174 
L 339.158106 382.558597 
" clip-path="url(#pa37cfca93c)" style="fill: none; stroke: #222222; stroke-width: 2; stroke-linecap: round"/>
   </g>
   <g id="line2d_33">
    <path d="M 311.701841 374.503869 
L 323.104774 386.457174 
" clip-path="url(#pa37cfca93c)" style="fill: none; stroke: #222222; stroke-width: 2; stroke-linecap: round"/>
   </g>
   <g id="line2d_34">
    <path d="M 295.648509 378.402446 
L 311.701841 374.503869 
" clip-path="url(#pa37cfca93c)" style="fill: none; stroke: #222222; stroke-width: 2; stroke-linecap: round"/>
   </g>
   <g id="line2d_35">
    <path d="M 290.99811 394.254328 
L 295.648509 378.402446 
" clip-path="url(#pa37cfca93c)" style="fill: none; stroke: #222222; stroke-width: 2; stroke-linecap: round"/>
   </g>
   <g id="line2d_36">
    <path d="M 274.944778 398.152905 
L 290.99811 394.254328 
" clip-path="url(#pa37cfca93c)" style="fill: none; stroke: #222222; stroke-width: 2; stroke-linecap: round"/>
   </g>
   <g id="line2d_37">
    <path d="M 266.936684 413.019755 
L 271.587083 397.167873 
" clip-path="url(#pa37cfca93c)" style="fill: none; stroke: #222222; stroke-width: 2; stroke-linecap: round"/>
   </g>
   <g id="line2d_38">
    <path d="M 273.652073 414.98982 
L 278.302472 399.137938 
" clip-path="url(#pa37cfca93c)" style="fill: none; stroke: #222222; stroke-width: 2; stroke-linecap: round"/>
   </g>
   <g id="line2d_39">
    <path d="M 302.401043 406.207633 
L 290.99811 394.254328 
" clip-path="url(#pa37cfca93c)" style="fill: none; stroke: #222222; stroke-width: 2; stroke-linecap: round"/>
   </g>
   <g id="line2d_40">
    <path d="M 318.454375 402.309056 
L 302.401043 406.207633 
" clip-path="url(#pa37cfca93c)" style="fill: none; stroke: #222222; stroke-width: 2; stroke-linecap: round"/>
   </g>
   <g id="line2d_41">
    <path d="M 318.454375 402.309056 
L 323.104774 386.457174 
" clip-path="url(#pa37cfca93c)" style="fill: none; stroke: #222222; stroke-width: 2; stroke-linecap: round"/>
   </g>
   <g id="line2d_42">
    <path d="M 263.541845 386.1996 
L 274.944778 398.152905 
" clip-path="url(#pa37cfca93c)" style="fill: none; stroke: #222222; stroke-width: 2; stroke-linecap: round"/>
   </g>
   <g id="line2d_43">
    <path d="M 270.430707 371.004407 
L 265.780308 386.856289 
" clip-path="url(#pa37cfca93c)" style="fill: none; stroke: #222222; stroke-width: 2; stroke-linecap: round"/>
   </g>
   <g id="line2d_44">
    <path d="M 265.953781 369.69103 
L 261.303382 385.542912 
" clip-path="url(#pa37cfca93c)" style="fill: none; stroke-dasharray: 3,2; stroke-dashoffset: 0; stroke: #222222"/>
   </g>
   <g id="line2d_45">
    <path d="M 258.477252 356.784192 
L 269.880185 368.737497 
" clip-path="url(#pa37cfca93c)" style="fill: none; stroke: #222222; stroke-width: 2; stroke-linecap: round"/>
   </g>
   <g id="line2d_46">
    <path d="M 255.101371 360.004635 
L 266.504304 371.95794 
" clip-path="url(#pa37cfca93c)" style="fill: none; stroke-dasharray: 3,2; stroke-dashoffset: 0; stroke: #222222"/>
   </g>
   <g id="line2d_47">
    <path d="M 240.185457 360.026081 
L 256.238789 356.127504 
" clip-path="url(#pa37cfca93c)" style="fill: none; stroke: #222222; stroke-width: 2; stroke-linecap: round"/>
   </g>
   <g id="line2d_48">
    <path d="M 241.286502 364.559901 
L 257.339834 360.661323 
" clip-path="url(#pa37cfca93c)" style="fill: none; stroke-dasharray: 3,2; stroke-dashoffset: 0; stroke: #222222"/>
   </g>
   <g id="line2d_49">
    <path d="M 233.847117 377.488184 
L 238.497516 361.636302 
" clip-path="url(#pa37cfca93c)" style="fill: none; stroke: #222222; stroke-width: 2; stroke-linecap: round"/>
   </g>
   <g id="line2d_50">
    <path d="M 238.324043 378.801561 
L 242.974442 362.949679 
" clip-path="url(#pa37cfca93c)" style="fill: none; stroke-dasharray: 3,2; stroke-dashoffset: 0; stroke: #222222"/>
   </g>
   <g id="line2d_51">
    <path d="M 220.032248 382.04345 
L 236.08558 378.144873 
" clip-path="url(#pa37cfca93c)" style="fill: none; stroke: #222222; stroke-width: 2; stroke-linecap: round"/>
   </g>
   <g id="line2d_52">
    <path d="M 245.800573 391.708399 
L 234.39764 379.755094 
" clip-path="url(#pa37cfca93c)" style="fill: none; stroke: #222222; stroke-width: 2; stroke-linecap: round"/>
   </g>
   <g id="line2d_53">
    <path d="M 249.176453 388.487956 
L 237.77352 376.534651 
" clip-path="url(#pa37cfca93c)" style="fill: none; stroke-dasharray: 3,2; stroke-dashoffset: 0; stroke: #222222"/>
   </g>
   <g id="line2d_54">
    <path d="M 246.93799 387.831267 
L 262.991322 383.93269 
" clip-path="url(#pa37cfca93c)" style="fill: none; stroke: #222222; stroke-width: 2; stroke-linecap: round"/>
   </g>
   <g id="line2d_55">
    <path d="M 248.039035 392.365087 
L 264.092368 388.46651 
" clip-path="url(#pa37cfca93c)" style="fill: none; stroke-dasharray: 3,2; stroke-dashoffset: 0; stroke: #222222"/>
   </g>
   <g id="line2d_56">
    <path d="M 242.838114 405.950059 
L 247.488513 390.098177 
" clip-path="url(#pa37cfca93c)" style="fill: none; stroke: #222222; stroke-width: 2; stroke-linecap: round"/>
   </g>
   <g id="line2d_57">
    <path d="M 395.910854 339.834549 
L 383.957549 351.237481 
" clip-path="url(#pa37cfca93c)" style="fill: none; stroke: #222222; stroke-width: 2; stroke-linecap: round"/>
   </g>
   <g id="line2d_58">
    <path d="M 410.777703 347.842642 
L 394.925821 343.192243 
" clip-path="url(#pa37cfca93c)" style="fill: none; stroke: #222222; stroke-width: 2; stroke-linecap: round"/>
   </g>
   <g id="line2d_59">
    <path d="M 412.747768 341.127254 
L 396.895886 336.476854 
" clip-path="url(#pa37cfca93c)" style="fill: none; stroke: #222222; stroke-width: 2; stroke-linecap: round"/>
   </g>
   <g id="line2d_60">
    <path d="M 423.716041 333.082015 
L 411.762736 344.484948 
" clip-path="url(#pa37cfca93c)" style="fill: none; stroke: #222222; stroke-width: 2; stroke-linecap: round"/>
   </g>
   <g id="line2d_61">
    <path d="M 419.817464 317.028683 
L 423.716041 333.082015 
" clip-path="url(#pa37cfca93c)" style="fill: none; stroke: #222222; stroke-width: 2; stroke-linecap: round"/>
   </g>
   <g id="line2d_62">
    <path d="M 403.965582 312.378284 
L 419.817464 317.028683 
" clip-path="url(#pa37cfca93c)" style="fill: none; stroke: #222222; stroke-width: 2; stroke-linecap: round"/>
   </g>
   <g id="line2d_63">
    <path d="M 392.012277 323.781216 
L 395.910854 339.834549 
" clip-path="url(#pa37cfca93c)" style="fill: none; stroke: #222222; stroke-width: 2; stroke-linecap: round"/>
   </g>
   <g id="line2d_64">
    <path d="M 392.012277 323.781216 
L 403.965582 312.378284 
" clip-path="url(#pa37cfca93c)" style="fill: none; stroke: #222222; stroke-width: 2; stroke-linecap: round"/>
   </g>
   <g id="line2d_65">
    <path d="M 345.91064 410.363784 
L 357.313572 422.317089 
" clip-path="url(#pa37cfca93c)" style="fill: none; stroke: #222222; stroke-width: 2; stroke-linecap: round"/>
   </g>
   <g id="line2d_66">
    <path d="M 345.91064 410.363784 
L 350.561039 394.511902 
" clip-path="url(#pa37cfca93c)" style="fill: none; stroke: #222222; stroke-width: 2; stroke-linecap: round"/>
   </g>
   <g id="line2d_67">
    <path d="M 378.017304 402.56663 
L 366.614371 390.613325 
" clip-path="url(#pa37cfca93c)" style="fill: none; stroke: #222222; stroke-width: 2; stroke-linecap: round"/>
   </g>
   <g id="line2d_68">
    <path d="M 394.070636 398.668053 
L 378.017304 402.56663 
" clip-path="url(#pa37cfca93c)" style="fill: none; stroke: #222222; stroke-width: 2; stroke-linecap: round"/>
   </g>
   <g id="line2d_69">
    <path d="M 402.07873 383.801204 
L 397.42833 399.653085 
" clip-path="url(#pa37cfca93c)" style="fill: none; stroke: #222222; stroke-width: 2; stroke-linecap: round"/>
   </g>
   <g id="line2d_70">
    <path d="M 395.363341 381.831138 
L 390.712942 397.68302 
" clip-path="url(#pa37cfca93c)" style="fill: none; stroke: #222222; stroke-width: 2; stroke-linecap: round"/>
   </g>
   <g id="line2d_71">
    <path d="M 405.473569 410.621358 
L 394.070636 398.668053 
" clip-path="url(#pa37cfca93c)" style="fill: none; stroke: #222222; stroke-width: 2; stroke-linecap: round"/>
   </g>
   <g id="line2d_72">
    <path d="M 421.526901 406.722781 
L 405.473569 410.621358 
" clip-path="url(#pa37cfca93c)" style="fill: none; stroke: #222222; stroke-width: 2; stroke-linecap: round"/>
   </g>
   <g id="line2d_73">
    <path d="M 428.415763 391.527587 
L 423.765364 407.379469 
" clip-path="url(#pa37cfca93c)" style="fill: none; stroke: #222222; stroke-width: 2; stroke-linecap: round"/>
   </g>
   <g id="line2d_74">
    <path d="M 423.938837 390.214211 
L 419.288438 406.066092 
" clip-path="url(#pa37cfca93c)" style="fill: none; stroke-dasharray: 3,2; stroke-dashoffset: 0; stroke: #222222"/>
   </g>
   <g id="line2d_75">
    <path d="M 442.781155 389.239232 
L 426.727823 393.137809 
" clip-path="url(#pa37cfca93c)" style="fill: none; stroke: #222222; stroke-width: 2; stroke-linecap: round"/>
   </g>
   <g id="line2d_76">
    <path d="M 441.68011 384.705412 
L 425.626778 388.603989 
" clip-path="url(#pa37cfca93c)" style="fill: none; stroke-dasharray: 3,2; stroke-dashoffset: 0; stroke: #222222"/>
   </g>
   <g id="line2d_77">
    <path d="M 451.945625 400.535848 
L 440.542692 388.582543 
" clip-path="url(#pa37cfca93c)" style="fill: none; stroke: #222222; stroke-width: 2; stroke-linecap: round"/>
   </g>
   <g id="line2d_78">
    <path d="M 455.321505 397.315405 
L 443.918573 385.3621 
" clip-path="url(#pa37cfca93c)" style="fill: none; stroke-dasharray: 3,2; stroke-dashoffset: 0; stroke: #222222"/>
   </g>
   <g id="line2d_79">
    <path d="M 446.744703 414.12082 
L 451.395102 398.268938 
" clip-path="url(#pa37cfca93c)" style="fill: none; stroke: #222222; stroke-width: 2; stroke-linecap: round"/>
   </g>
   <g id="line2d_80">
    <path d="M 451.221629 415.434197 
L 455.872028 399.582315 
" clip-path="url(#pa37cfca93c)" style="fill: none; stroke-dasharray: 3,2; stroke-dashoffset: 0; stroke: #222222"/>
   </g>
   <g id="line2d_81">
    <path d="M 432.379311 416.409176 
L 448.432643 412.510599 
" clip-path="url(#pa37cfca93c)" style="fill: none; stroke: #222222; stroke-width: 2; stroke-linecap: round"/>
   </g>
   <g id="line2d_82">
    <path d="M 433.480356 420.942996 
L 449.533688 417.044419 
" clip-path="url(#pa37cfca93c)" style="fill: none; stroke-dasharray: 3,2; stroke-dashoffset: 0; stroke: #222222"/>
   </g>
   <g id="line2d_83">
    <path d="M 431.241893 420.286307 
L 419.838961 408.333002 
" clip-path="url(#pa37cfca93c)" style="fill: none; stroke: #222222; stroke-width: 2; stroke-linecap: round"/>
   </g>
   <g id="line2d_84">
    <path d="M 434.617774 417.065864 
L 423.214841 405.112559 
" clip-path="url(#pa37cfca93c)" style="fill: none; stroke-dasharray: 3,2; stroke-dashoffset: 0; stroke: #222222"/>
   </g>
   <g id="line2d_85">
    <path d="M 428.279434 434.527968 
L 432.929834 418.676086 
" clip-path="url(#pa37cfca93c)" style="fill: none; stroke: #222222; stroke-width: 2; stroke-linecap: round"/>
   </g>
   <g id="line2d_86">
    <path d="M 469.686897 395.02705 
L 453.633565 398.925627 
" clip-path="url(#pa37cfca93c)" style="fill: none; stroke: #222222; stroke-width: 2; stroke-linecap: round"/>
   </g>
   <g id="line2d_87">
    <path d="M 485.740229 391.128473 
L 469.686897 395.02705 
" clip-path="url(#pa37cfca93c)" style="fill: none; stroke: #222222; stroke-width: 2; stroke-linecap: round"/>
   </g>
   <g id="line2d_88">
    <path d="M 465.78832 378.973718 
L 469.686897 395.02705 
" clip-path="url(#pa37cfca93c)" style="fill: none; stroke: #222222; stroke-width: 2; stroke-linecap: round"/>
   </g>
   <g id="line2d_89">
    <path d="M 473.585474 411.080382 
L 469.686897 395.02705 
" clip-path="url(#pa37cfca93c)" style="fill: none; stroke: #222222; stroke-width: 2; stroke-linecap: round"/>
   </g>
   <g id="text_1">
    <g id="patch_6">
     <path d="M 327.064635 360.99341 
L 337.74651 360.99341 
L 337.74651 348.51341 
L 327.064635 348.51341 
z
" style="fill: #ffffff"/>
    </g>
    <!-- O -->
    <g style="fill: #d40000" transform="translate(327.304635 357.870598) scale(0.12 -0.12)">
     <defs>
      <path id="DejaVuSans-Bold-32" d="M 2719 3878 
Q 2169 3878 1866 3472 
Q 1563 3066 1563 2328 
Q 1563 1594 1866 1187 
Q 2169 781 2719 781 
Q 3272 781 3575 1187 
Q 3878 1594 3878 2328 
Q 3878 3066 3575 3472 
Q 3272 3878 2719 3878 
z
M 2719 4750 
Q 3844 4750 4481 4106 
Q 5119 3463 5119 2328 
Q 5119 1197 4481 553 
Q 3844 -91 2719 -91 
Q 1597 -91 958 553 
Q 319 1197 319 2328 
Q 319 3463 958 4106 
Q 1597 4750 2719 4750 
z
" transform="scale(0.015625)"/>
     </defs>
     <use xlink:href="#DejaVuSans-Bold-32"/>
    </g>
   </g>
   <g id="text_2">
    <g id="patch_7">
     <path d="M 354.600588 369.048138 
L 365.123088 369.048138 
L 365.123088 356.568138 
L 354.600588 356.568138 
z
" style="fill: #ffffff"/>
    </g>
    <!-- N -->
    <g style="fill: #0879c0" transform="translate(354.840588 365.925326) scale(0.12 -0.12)">
     <defs>
      <path id="DejaVuSans-Bold-31" d="M 588 4666 
L 1931 4666 
L 3628 1466 
L 3628 4666 
L 4769 4666 
L 4769 0 
L 3425 0 
L 1728 3200 
L 1728 0 
L 588 0 
L 588 4666 
z
" transform="scale(0.015625)"/>
     </defs>
     <use xlink:href="#DejaVuSans-Bold-31"/>
    </g>
   </g>
   <g id="text_3">
    <g id="patch_8">
     <path d="M 362.445156 354.50953 
L 372.967656 354.50953 
L 372.967656 342.02953 
L 362.445156 342.02953 
z
" style="fill: #ffffff"/>
    </g>
    <!-- N -->
    <g style="fill: #0879c0" transform="translate(362.685156 351.386718) scale(0.12 -0.12)">
     <use xlink:href="#DejaVuSans-Bold-31"/>
    </g>
   </g>
   <g id="text_4">
    <g id="patch_9">
     <path d="M 380.895489 373.850384 
L 391.417989 373.850384 
L 391.417989 361.370384 
L 380.895489 361.370384 
z
" style="fill: #ffffff"/>
    </g>
    <!-- N -->
    <g style="fill: #0879c0" transform="translate(381.135489 370.727571) scale(0.12 -0.12)">
     <use xlink:href="#DejaVuSans-Bold-31"/>
    </g>
   </g>
   <g id="text_5">
    <g id="patch_10">
     <path d="M 361.353121 396.853325 
L 371.875621 396.853325 
L 371.875621 384.373325 
L 361.353121 384.373325 
z
" style="fill: #ffffff"/>
    </g>
    <!-- N -->
    <g style="fill: #0879c0" transform="translate(361.593121 393.730513) scale(0.12 -0.12)">
     <use xlink:href="#DejaVuSans-Bold-31"/>
    </g>
   </g>
   <g id="text_6">
    <g id="patch_11">
     <path d="M 317.843524 392.697174 
L 328.366024 392.697174 
L 328.366024 380.217174 
L 317.843524 380.217174 
z
" style="fill: #ffffff"/>
    </g>
    <!-- N -->
    <g style="fill: #0879c0" transform="translate(318.083524 389.574362) scale(0.12 -0.12)">
     <use xlink:href="#DejaVuSans-Bold-31"/>
    </g>
   </g>
   <g id="text_7">
    <g id="patch_12">
     <path d="M 285.73686 400.494328 
L 296.25936 400.494328 
L 296.25936 388.014328 
L 285.73686 388.014328 
z
" style="fill: #ffffff"/>
    </g>
    <!-- N -->
    <g style="fill: #0879c0" transform="translate(285.97686 397.371516) scale(0.12 -0.12)">
     <use xlink:href="#DejaVuSans-Bold-31"/>
    </g>
   </g>
   <g id="text_8">
    <g id="patch_13">
     <path d="M 264.953441 420.244787 
L 275.635316 420.244787 
L 275.635316 407.764787 
L 264.953441 407.764787 
z
" style="fill: #ffffff"/>
    </g>
    <!-- O -->
    <g style="fill: #d40000" transform="translate(265.193441 417.121975) scale(0.12 -0.12)">
     <use xlink:href="#DejaVuSans-Bold-32"/>
    </g>
   </g>
   <g id="text_9">
    <g id="patch_14">
     <path d="M 262.930994 376.587718 
L 273.453494 376.587718 
L 273.453494 364.107718 
L 262.930994 364.107718 
z
" style="fill: #ffffff"/>
    </g>
    <!-- N -->
    <g style="fill: #0879c0" transform="translate(263.170994 373.464906) scale(0.12 -0.12)">
     <use xlink:href="#DejaVuSans-Bold-31"/>
    </g>
   </g>
   <g id="text_10">
    <g id="patch_15">
     <path d="M 235.474729 368.532991 
L 245.997229 368.532991 
L 245.997229 356.052991 
L 235.474729 356.052991 
z
" style="fill: #ffffff"/>
    </g>
    <!-- N -->
    <g style="fill: #0879c0" transform="translate(235.714729 365.410178) scale(0.12 -0.12)">
     <use xlink:href="#DejaVuSans-Bold-31"/>
    </g>
   </g>
   <g id="text_11">
    <g id="patch_16">
     <path d="M 237.497176 412.190059 
L 248.179051 412.190059 
L 248.179051 399.710059 
L 237.497176 399.710059 
z
" style="fill: #ffffff"/>
    </g>
    <!-- O -->
    <g style="fill: #d40000" transform="translate(237.737176 409.067247) scale(0.12 -0.12)">
     <use xlink:href="#DejaVuSans-Bold-32"/>
    </g>
   </g>
   <g id="text_12">
    <g id="patch_17">
     <path d="M 414.476526 323.268683 
L 425.158401 323.268683 
L 425.158401 310.788683 
L 414.476526 310.788683 
z
" style="fill: #ffffff"/>
    </g>
    <!-- O -->
    <g style="fill: #d40000" transform="translate(414.716526 320.14587) scale(0.12 -0.12)">
     <use xlink:href="#DejaVuSans-Bold-32"/>
    </g>
   </g>
   <g id="text_13">
    <g id="patch_18">
     <path d="M 393.380098 389.056171 
L 404.061973 389.056171 
L 404.061973 376.576171 
L 393.380098 376.576171 
z
" style="fill: #ffffff"/>
    </g>
    <!-- O -->
    <g style="fill: #d40000" transform="translate(393.620098 385.933358) scale(0.12 -0.12)">
     <use xlink:href="#DejaVuSans-Bold-32"/>
    </g>
   </g>
   <g id="text_14">
    <g id="patch_19">
     <path d="M 400.212319 416.861358 
L 410.734819 416.861358 
L 410.734819 404.381358 
L 400.212319 404.381358 
z
" style="fill: #ffffff"/>
    </g>
    <!-- N -->
    <g style="fill: #0879c0" transform="translate(400.452319 413.738545) scale(0.12 -0.12)">
     <use xlink:href="#DejaVuSans-Bold-31"/>
    </g>
   </g>
   <g id="text_15">
    <g id="patch_20">
     <path d="M 421.579122 440.768436 
L 434.979747 440.768436 
L 434.979747 428.287499 
L 421.579122 428.287499 
z
" style="fill: #ffffff"/>
    </g>
    <!-- Cl -->
    <g style="fill: #00a040" transform="translate(421.819122 437.645624) scale(0.12 -0.12)">
     <defs>
      <path id="DejaVuSans-Bold-26" d="M 4288 256 
Q 3956 84 3597 -3 
Q 3238 -91 2847 -91 
Q 1681 -91 1000 561 
Q 319 1213 319 2328 
Q 319 3447 1000 4098 
Q 1681 4750 2847 4750 
Q 3238 4750 3597 4662 
Q 3956 4575 4288 4403 
L 4288 3438 
Q 3953 3666 3628 3772 
Q 3303 3878 2944 3878 
Q 2300 3878 1931 3465 
Q 1563 3053 1563 2328 
Q 1563 1606 1931 1193 
Q 2300 781 2944 781 
Q 3303 781 3628 887 
Q 3953 994 4288 1222 
L 4288 256 
z
" transform="scale(0.015625)"/>
      <path id="DejaVuSans-Bold-4f" d="M 538 4863 
L 1656 4863 
L 1656 0 
L 538 0 
L 538 4863 
z
" transform="scale(0.015625)"/>
     </defs>
     <use xlink:href="#DejaVuSans-Bold-26"/>
     <use xlink:href="#DejaVuSans-Bold-4f" transform="translate(73.390625 0)"/>
    </g>
   </g>
   <g id="text_16">
    <g id="patch_21">
     <path d="M 481.401479 397.368473 
L 490.078979 397.368473 
L 490.078979 384.888473 
L 481.401479 384.888473 
z
" style="fill: #ffffff"/>
    </g>
    <!-- F -->
    <g style="fill: #00a040" transform="translate(481.641479 394.24566) scale(0.12 -0.12)">
     <defs>
      <path id="DejaVuSans-Bold-29" d="M 588 4666 
L 3834 4666 
L 3834 3756 
L 1791 3756 
L 1791 2888 
L 3713 2888 
L 3713 1978 
L 1791 1978 
L 1791 0 
L 588 0 
L 588 4666 
z
" transform="scale(0.015625)"/>
     </defs>
     <use xlink:href="#DejaVuSans-Bold-29"/>
    </g>
   </g>
   <g id="text_17">
    <g id="patch_22">
     <path d="M 461.44957 385.213718 
L 470.12707 385.213718 
L 470.12707 372.733718 
L 461.44957 372.733718 
z
" style="fill: #ffffff"/>
    </g>
    <!-- F -->
    <g style="fill: #00a040" transform="translate(461.68957 382.090905) scale(0.12 -0.12)">
     <use xlink:href="#DejaVuSans-Bold-29"/>
    </g>
   </g>
   <g id="text_18">
    <g id="patch_23">
     <path d="M 469.246724 417.320382 
L 477.924224 417.320382 
L 477.924224 404.840382 
L 469.246724 404.840382 
z
" style="fill: #ffffff"/>
    </g>
    <!-- F -->
    <g style="fill: #00a040" transform="translate(469.486724 414.197569) scale(0.12 -0.12)">
     <use xlink:href="#DejaVuSans-Bold-29"/>
    </g>
   </g>
   <g id="patch_24">
    <path d="M 481.899479 187.837358 
C 487.699471 187.837358 493.262691 185.532997 497.363905 181.431783 
C 501.465118 177.33057 503.769479 171.76735 503.769479 165.967358 
C 503.769479 160.167366 501.465118 154.604146 497.363905 150.502933 
C 493.262691 146.401719 487.699471 144.097358 481.899479 144.097358 
C 476.099488 144.097358 470.536268 146.401719 466.435054 150.502933 
C 462.333841 154.604146 460.029479 160.167366 460.029479 165.967358 
C 460.029479 171.76735 462.333841 177.33057 466.435054 181.431783 
C 470.536268 185.532997 476.099488 187.837358 481.899479 187.837358 
z
" clip-path="url(#pa37cfca93c)" style="fill: #8bc34a; stroke: #222222; stroke-width: 1.2; stroke-linejoin: miter"/>
   </g>
   <g id="patch_25">
    <path d="M 367.114889 155.892138 
C 372.91488 155.892138 378.4781 153.587777 382.579314 149.486564 
C 386.680528 145.38535 388.984889 139.82213 388.984889 134.022138 
C 388.984889 128.222147 386.680528 122.658927 382.579314 118.557713 
C 378.4781 114.4565 372.91488 112.152138 367.114889 112.152138 
C 361.314897 112.152138 355.751677 114.4565 351.650463 118.557713 
C 347.54925 122.658927 345.244889 128.222147 345.244889 134.022138 
C 345.244889 139.82213 347.54925 145.38535 351.650463 149.486564 
C 355.751677 153.587777 361.314897 155.892138 367.114889 155.892138 
z
" clip-path="url(#pa37cfca93c)" style="fill: #8bc34a; stroke: #222222; stroke-width: 1.2; stroke-linejoin: miter"/>
   </g>
   <g id="patch_26">
    <path d="M 606.94874 382.415602 
C 612.748731 382.415602 618.311951 380.111241 622.413165 376.010027 
C 626.514378 371.908814 628.81874 366.345594 628.81874 360.545602 
C 628.81874 354.74561 626.514378 349.18239 622.413165 345.081177 
C 618.311951 340.979963 612.748731 338.675602 606.94874 338.675602 
C 601.148748 338.675602 595.585528 340.979963 591.484314 345.081177 
C 587.383101 349.18239 585.07874 354.74561 585.07874 360.545602 
C 585.07874 366.345594 587.383101 371.908814 591.484314 376.010027 
C 595.585528 380.111241 601.148748 382.415602 606.94874 382.415602 
z
" clip-path="url(#pa37cfca93c)" style="fill: #8bc34a; stroke: #222222; stroke-width: 1.2; stroke-linejoin: miter"/>
   </g>
   <g id="patch_27">
    <path d="M 290.25908 641.496135 
C 296.059072 641.496135 301.622292 639.191773 305.723506 635.09056 
C 309.824719 630.989346 312.12908 625.426126 312.12908 619.626135 
C 312.12908 613.826143 309.824719 608.262923 305.723506 604.161709 
C 301.622292 600.060496 296.059072 597.756135 290.25908 597.756135 
C 284.459088 597.756135 278.895868 600.060496 274.794655 604.161709 
C 270.693441 608.262923 268.38908 613.826143 268.38908 619.626135 
C 268.38908 625.426126 270.693441 630.989346 274.794655 635.09056 
C 278.895868 639.191773 284.459088 641.496135 290.25908 641.496135 
z
" clip-path="url(#pa37cfca93c)" style="fill: #f5a623; stroke: #222222; stroke-width: 1.2; stroke-linejoin: miter"/>
   </g>
   <g id="patch_28">
    <path d="M 568.513194 269.646913 
C 574.313186 269.646913 579.876406 267.342552 583.97762 263.241338 
C 588.078833 259.140125 590.383194 253.576905 590.383194 247.776913 
C 590.383194 241.976921 588.078833 236.413701 583.97762 232.312488 
C 579.876406 228.211274 574.313186 225.906913 568.513194 225.906913 
C 562.713203 225.906913 557.149983 228.211274 553.048769 232.312488 
C 548.947556 236.413701 546.643194 241.976921 546.643194 247.776913 
C 546.643194 253.576905 548.947556 259.140125 553.048769 263.241338 
C 557.149983 267.342552 562.713203 269.646913 568.513194 269.646913 
z
" clip-path="url(#pa37cfca93c)" style="fill: #8bc34a; stroke: #222222; stroke-width: 1.2; stroke-linejoin: miter"/>
   </g>
   <g id="patch_29">
    <path d="M 250.679636 181.20082 
C 256.479628 181.20082 262.042848 178.896459 266.144061 174.795245 
C 270.245275 170.694032 272.549636 165.130812 272.549636 159.33082 
C 272.549636 153.530828 270.245275 147.967608 266.144061 143.866395 
C 262.042848 139.765181 256.479628 137.46082 250.679636 137.46082 
C 244.879644 137.46082 239.316424 139.765181 235.215211 143.866395 
C 231.113997 147.967608 228.809636 153.530828 228.809636 159.33082 
C 228.809636 165.130812 231.113997 170.694032 235.215211 174.795245 
C 239.316424 178.896459 244.879644 181.20082 250.679636 181.20082 
z
" clip-path="url(#pa37cfca93c)" style="fill: #5087c5; stroke: #222222; stroke-width: 1.2; stroke-linejoin: miter"/>
   </g>
   <g id="patch_30">
    <path d="M 588.328351 500.090364 
C 594.128343 500.090364 599.691563 497.786002 603.792776 493.684789 
C 607.89399 489.583575 610.198351 484.020355 610.198351 478.220364 
C 610.198351 472.420372 607.89399 466.857152 603.792776 462.755938 
C 599.691563 458.654725 594.128343 456.350364 588.328351 456.350364 
C 582.528359 456.350364 576.965139 458.654725 572.863926 462.755938 
C 568.762712 466.857152 566.458351 472.420372 566.458351 478.220364 
C 566.458351 484.020355 568.762712 489.583575 572.863926 493.684789 
C 576.965139 497.786002 582.528359 500.090364 588.328351 500.090364 
z
" clip-path="url(#pa37cfca93c)" style="fill: #8bc34a; stroke: #222222; stroke-width: 1.2; stroke-linejoin: miter"/>
   </g>
   <g id="patch_31">
    <path d="M 516.951907 595.485029 
C 522.751899 595.485029 528.315119 593.180668 532.416332 589.079455 
C 536.517546 584.978241 538.821907 579.415021 538.821907 573.615029 
C 538.821907 567.815037 536.517546 562.251817 532.416332 558.150604 
C 528.315119 554.04939 522.751899 551.745029 516.951907 551.745029 
C 511.151915 551.745029 505.588695 554.04939 501.487482 558.150604 
C 497.386268 562.251817 495.081907 567.815037 495.081907 573.615029 
C 495.081907 579.415021 497.386268 584.978241 501.487482 589.079455 
C 505.588695 593.180668 511.151915 595.485029 516.951907 595.485029 
z
" clip-path="url(#pa37cfca93c)" style="fill: #8bc34a; stroke: #222222; stroke-width: 1.2; stroke-linejoin: miter"/>
   </g>
   <g id="patch_32">
    <path d="M 114.304928 370.961912 
C 120.10492 370.961912 125.66814 368.657551 129.769353 364.556338 
C 133.870567 360.455124 136.174928 354.891904 136.174928 349.091912 
C 136.174928 343.29192 133.870567 337.7287 129.769353 333.627487 
C 125.66814 329.526273 120.10492 327.221912 114.304928 327.221912 
C 108.504936 327.221912 102.941716 329.526273 98.840502 333.627487 
C 94.739289 337.7287 92.434928 343.29192 92.434928 349.091912 
C 92.434928 354.891904 94.739289 360.455124 98.840502 364.556338 
C 102.941716 368.657551 108.504936 370.961912 114.304928 370.961912 
z
" clip-path="url(#pa37cfca93c)" style="fill: #8bc34a; stroke: #222222; stroke-width: 1.2; stroke-linejoin: miter"/>
   </g>
   <g id="patch_33">
    <path d="M 127.444725 489.39744 
C 133.244717 489.39744 138.807936 487.093079 142.90915 482.991866 
C 147.010364 478.890652 149.314725 473.327432 149.314725 467.52744 
C 149.314725 461.727449 147.010364 456.164229 142.90915 452.063015 
C 138.807936 447.961802 133.244717 445.65744 127.444725 445.65744 
C 121.644733 445.65744 116.081513 447.961802 111.980299 452.063015 
C 107.879086 456.164229 105.574725 461.727449 105.574725 467.52744 
C 105.574725 473.327432 107.879086 478.890652 111.980299 482.991866 
C 116.081513 487.093079 121.644733 489.39744 127.444725 489.39744 
z
" clip-path="url(#pa37cfca93c)" style="fill: #5087c5; stroke: #222222; stroke-width: 1.2; stroke-linejoin: miter"/>
   </g>
   <g id="patch_34">
    <path d="M 409.305672 646.556423 
C 415.105663 646.556423 420.668883 644.252062 424.770097 640.150848 
C 428.87131 636.049635 431.175672 630.486415 431.175672 624.686423 
C 431.175672 618.886431 428.87131 613.323211 424.770097 609.221998 
C 420.668883 605.120784 415.105663 602.816423 409.305672 602.816423 
C 403.50568 602.816423 397.94246 605.120784 393.841246 609.221998 
C 389.740033 613.323211 387.435672 618.886431 387.435672 624.686423 
C 387.435672 630.486415 389.740033 636.049635 393.841246 640.150848 
C 397.94246 644.252062 403.50568 646.556423 409.305672 646.556423 
z
" clip-path="url(#pa37cfca93c)" style="fill: #d9584c; stroke: #222222; stroke-width: 1.2; stroke-linejoin: miter"/>
   </g>
   <g id="text_19">
    <!-- A706 -->
    <g style="fill: #222222" transform="translate(471.169792 167.9156) scale(0.075 -0.075)">
     <defs>
      <path id="DejaVuSans-Bold-24" d="M 3419 850 
L 1538 850 
L 1241 0 
L 31 0 
L 1759 4666 
L 3194 4666 
L 4922 0 
L 3713 0 
L 3419 850 
z
M 1838 1716 
L 3116 1716 
L 2478 3572 
L 1838 1716 
z
" transform="scale(0.015625)"/>
      <path id="DejaVuSans-Bold-1a" d="M 428 4666 
L 3944 4666 
L 3944 3988 
L 2125 0 
L 953 0 
L 2675 3781 
L 428 3781 
L 428 4666 
z
" transform="scale(0.015625)"/>
      <path id="DejaVuSans-Bold-13" d="M 2944 2338 
Q 2944 3213 2780 3570 
Q 2616 3928 2228 3928 
Q 1841 3928 1675 3570 
Q 1509 3213 1509 2338 
Q 1509 1453 1675 1090 
Q 1841 728 2228 728 
Q 2613 728 2778 1090 
Q 2944 1453 2944 2338 
z
M 4147 2328 
Q 4147 1169 3647 539 
Q 3147 -91 2228 -91 
Q 1306 -91 806 539 
Q 306 1169 306 2328 
Q 306 3491 806 4120 
Q 1306 4750 2228 4750 
Q 3147 4750 3647 4120 
Q 4147 3491 4147 2328 
z
" transform="scale(0.015625)"/>
      <path id="DejaVuSans-Bold-19" d="M 2316 2303 
Q 2000 2303 1842 2098 
Q 1684 1894 1684 1484 
Q 1684 1075 1842 870 
Q 2000 666 2316 666 
Q 2634 666 2792 870 
Q 2950 1075 2950 1484 
Q 2950 1894 2792 2098 
Q 2634 2303 2316 2303 
z
M 3803 4544 
L 3803 3681 
Q 3506 3822 3243 3889 
Q 2981 3956 2731 3956 
Q 2194 3956 1894 3657 
Q 1594 3359 1544 2772 
Q 1750 2925 1990 3001 
Q 2231 3078 2516 3078 
Q 3231 3078 3670 2659 
Q 4109 2241 4109 1563 
Q 4109 813 3618 361 
Q 3128 -91 2303 -91 
Q 1394 -91 895 523 
Q 397 1138 397 2266 
Q 397 3422 980 4083 
Q 1563 4744 2578 4744 
Q 2900 4744 3203 4694 
Q 3506 4644 3803 4544 
z
" transform="scale(0.015625)"/>
     </defs>
     <use xlink:href="#DejaVuSans-Bold-24"/>
     <use xlink:href="#DejaVuSans-Bold-1a" transform="translate(77.390625 0)"/>
     <use xlink:href="#DejaVuSans-Bold-13" transform="translate(146.96875 0)"/>
     <use xlink:href="#DejaVuSans-Bold-19" transform="translate(216.546875 0)"/>
    </g>
   </g>
   <g id="text_20">
    <!-- F730 -->
    <g style="fill: #222222" transform="translate(356.725631 135.970381) scale(0.075 -0.075)">
     <defs>
      <path id="DejaVuSans-Bold-16" d="M 2981 2516 
Q 3453 2394 3698 2092 
Q 3944 1791 3944 1325 
Q 3944 631 3412 270 
Q 2881 -91 1863 -91 
Q 1503 -91 1142 -33 
Q 781 25 428 141 
L 428 1069 
Q 766 900 1098 814 
Q 1431 728 1753 728 
Q 2231 728 2486 893 
Q 2741 1059 2741 1369 
Q 2741 1688 2480 1852 
Q 2219 2016 1709 2016 
L 1228 2016 
L 1228 2791 
L 1734 2791 
Q 2188 2791 2409 2933 
Q 2631 3075 2631 3366 
Q 2631 3634 2415 3781 
Q 2200 3928 1806 3928 
Q 1516 3928 1219 3862 
Q 922 3797 628 3669 
L 628 4550 
Q 984 4650 1334 4700 
Q 1684 4750 2022 4750 
Q 2931 4750 3382 4451 
Q 3834 4153 3834 3553 
Q 3834 3144 3618 2883 
Q 3403 2622 2981 2516 
z
" transform="scale(0.015625)"/>
     </defs>
     <use xlink:href="#DejaVuSans-Bold-29"/>
     <use xlink:href="#DejaVuSans-Bold-1a" transform="translate(68.3125 0)"/>
     <use xlink:href="#DejaVuSans-Bold-16" transform="translate(137.890625 0)"/>
     <use xlink:href="#DejaVuSans-Bold-13" transform="translate(207.46875 0)"/>
    </g>
   </g>
   <g id="text_21">
    <!-- L735 -->
    <g style="fill: #222222" transform="translate(596.731747 362.493844) scale(0.075 -0.075)">
     <defs>
      <path id="DejaVuSans-Bold-2f" d="M 588 4666 
L 1791 4666 
L 1791 909 
L 3903 909 
L 3903 0 
L 588 0 
L 588 4666 
z
" transform="scale(0.015625)"/>
      <path id="DejaVuSans-Bold-18" d="M 678 4666 
L 3669 4666 
L 3669 3781 
L 1638 3781 
L 1638 3059 
Q 1775 3097 1914 3117 
Q 2053 3138 2203 3138 
Q 3056 3138 3531 2711 
Q 4006 2284 4006 1522 
Q 4006 766 3489 337 
Q 2972 -91 2053 -91 
Q 1656 -91 1267 -14 
Q 878 63 494 219 
L 494 1166 
Q 875 947 1217 837 
Q 1559 728 1863 728 
Q 2300 728 2551 942 
Q 2803 1156 2803 1522 
Q 2803 1891 2551 2103 
Q 2300 2316 1863 2316 
Q 1603 2316 1309 2248 
Q 1016 2181 678 2041 
L 678 4666 
z
" transform="scale(0.015625)"/>
     </defs>
     <use xlink:href="#DejaVuSans-Bold-2f"/>
     <use xlink:href="#DejaVuSans-Bold-1a" transform="translate(63.71875 0)"/>
     <use xlink:href="#DejaVuSans-Bold-16" transform="translate(133.296875 0)"/>
     <use xlink:href="#DejaVuSans-Bold-18" transform="translate(202.875 0)"/>
    </g>
   </g>
   <g id="text_22">
    <!-- Y849 -->
    <g style="fill: #222222" transform="translate(279.716307 621.574377) scale(0.075 -0.075)">
     <defs>
      <path id="DejaVuSans-Bold-3c" d="M -63 4666 
L 1253 4666 
L 2316 3003 
L 3378 4666 
L 4697 4666 
L 2919 1966 
L 2919 0 
L 1716 0 
L 1716 1966 
L -63 4666 
z
" transform="scale(0.015625)"/>
      <path id="DejaVuSans-Bold-1b" d="M 2228 2088 
Q 1891 2088 1709 1903 
Q 1528 1719 1528 1375 
Q 1528 1031 1709 848 
Q 1891 666 2228 666 
Q 2563 666 2741 848 
Q 2919 1031 2919 1375 
Q 2919 1722 2741 1905 
Q 2563 2088 2228 2088 
z
M 1350 2484 
Q 925 2613 709 2878 
Q 494 3144 494 3541 
Q 494 4131 934 4440 
Q 1375 4750 2228 4750 
Q 3075 4750 3515 4442 
Q 3956 4134 3956 3541 
Q 3956 3144 3739 2878 
Q 3522 2613 3097 2484 
Q 3572 2353 3814 2058 
Q 4056 1763 4056 1313 
Q 4056 619 3595 264 
Q 3134 -91 2228 -91 
Q 1319 -91 855 264 
Q 391 619 391 1313 
Q 391 1763 633 2058 
Q 875 2353 1350 2484 
z
M 1631 3419 
Q 1631 3141 1786 2991 
Q 1941 2841 2228 2841 
Q 2509 2841 2662 2991 
Q 2816 3141 2816 3419 
Q 2816 3697 2662 3845 
Q 2509 3994 2228 3994 
Q 1941 3994 1786 3844 
Q 1631 3694 1631 3419 
z
" transform="scale(0.015625)"/>
      <path id="DejaVuSans-Bold-17" d="M 2356 3675 
L 1038 1722 
L 2356 1722 
L 2356 3675 
z
M 2156 4666 
L 3494 4666 
L 3494 1722 
L 4159 1722 
L 4159 850 
L 3494 850 
L 3494 0 
L 2356 0 
L 2356 850 
L 288 850 
L 288 1881 
L 2156 4666 
z
" transform="scale(0.015625)"/>
      <path id="DejaVuSans-Bold-1c" d="M 641 103 
L 641 966 
Q 928 831 1190 764 
Q 1453 697 1709 697 
Q 2247 697 2547 995 
Q 2847 1294 2900 1881 
Q 2688 1725 2447 1647 
Q 2206 1569 1925 1569 
Q 1209 1569 770 1986 
Q 331 2403 331 3084 
Q 331 3838 820 4291 
Q 1309 4744 2131 4744 
Q 3044 4744 3544 4128 
Q 4044 3513 4044 2388 
Q 4044 1231 3459 570 
Q 2875 -91 1856 -91 
Q 1528 -91 1228 -42 
Q 928 6 641 103 
z
M 2125 2350 
Q 2441 2350 2600 2554 
Q 2759 2759 2759 3169 
Q 2759 3575 2600 3781 
Q 2441 3988 2125 3988 
Q 1809 3988 1650 3781 
Q 1491 3575 1491 3169 
Q 1491 2759 1650 2554 
Q 1809 2350 2125 2350 
z
" transform="scale(0.015625)"/>
     </defs>
     <use xlink:href="#DejaVuSans-Bold-3c"/>
     <use xlink:href="#DejaVuSans-Bold-1b" transform="translate(72.40625 0)"/>
     <use xlink:href="#DejaVuSans-Bold-17" transform="translate(141.984375 0)"/>
     <use xlink:href="#DejaVuSans-Bold-1c" transform="translate(211.5625 0)"/>
    </g>
   </g>
   <g id="text_23">
    <!-- I852 -->
    <g style="fill: #222222" transform="translate(559.290538 249.725155) scale(0.075 -0.075)">
     <defs>
      <path id="DejaVuSans-Bold-2c" d="M 588 4666 
L 1791 4666 
L 1791 0 
L 588 0 
L 588 4666 
z
" transform="scale(0.015625)"/>
      <path id="DejaVuSans-Bold-15" d="M 1844 884 
L 3897 884 
L 3897 0 
L 506 0 
L 506 884 
L 2209 2388 
Q 2438 2594 2547 2791 
Q 2656 2988 2656 3200 
Q 2656 3528 2436 3728 
Q 2216 3928 1850 3928 
Q 1569 3928 1234 3808 
Q 900 3688 519 3450 
L 519 4475 
Q 925 4609 1322 4679 
Q 1719 4750 2100 4750 
Q 2938 4750 3402 4381 
Q 3866 4013 3866 3353 
Q 3866 2972 3669 2642 
Q 3472 2313 2841 1759 
L 1844 884 
z
" transform="scale(0.015625)"/>
     </defs>
     <use xlink:href="#DejaVuSans-Bold-2c"/>
     <use xlink:href="#DejaVuSans-Bold-1b" transform="translate(37.203125 0)"/>
     <use xlink:href="#DejaVuSans-Bold-18" transform="translate(106.78125 0)"/>
     <use xlink:href="#DejaVuSans-Bold-15" transform="translate(176.359375 0)"/>
    </g>
   </g>
   <g id="text_24">
    <!-- R857 -->
    <g style="fill: #ffffff" transform="translate(239.964597 161.279062) scale(0.075 -0.075)">
     <defs>
      <path id="DejaVuSans-Bold-35" d="M 2297 2597 
Q 2675 2597 2839 2737 
Q 3003 2878 3003 3200 
Q 3003 3519 2839 3656 
Q 2675 3794 2297 3794 
L 1791 3794 
L 1791 2597 
L 2297 2597 
z
M 1791 1766 
L 1791 0 
L 588 0 
L 588 4666 
L 2425 4666 
Q 3347 4666 3776 4356 
Q 4206 4047 4206 3378 
Q 4206 2916 3982 2619 
Q 3759 2322 3309 2181 
Q 3556 2125 3751 1926 
Q 3947 1728 4147 1325 
L 4800 0 
L 3519 0 
L 2950 1159 
Q 2778 1509 2601 1637 
Q 2425 1766 2131 1766 
L 1791 1766 
z
" transform="scale(0.015625)"/>
     </defs>
     <use xlink:href="#DejaVuSans-Bold-35"/>
     <use xlink:href="#DejaVuSans-Bold-1b" transform="translate(77 0)"/>
     <use xlink:href="#DejaVuSans-Bold-18" transform="translate(146.578125 0)"/>
     <use xlink:href="#DejaVuSans-Bold-1a" transform="translate(216.15625 0)"/>
    </g>
   </g>
   <g id="text_25">
    <!-- I913 -->
    <g style="fill: #222222" transform="translate(579.105695 480.168606) scale(0.075 -0.075)">
     <defs>
      <path id="DejaVuSans-Bold-14" d="M 750 831 
L 1813 831 
L 1813 3847 
L 722 3622 
L 722 4441 
L 1806 4666 
L 2950 4666 
L 2950 831 
L 4013 831 
L 4013 0 
L 750 0 
L 750 831 
z
" transform="scale(0.015625)"/>
     </defs>
     <use xlink:href="#DejaVuSans-Bold-2c"/>
     <use xlink:href="#DejaVuSans-Bold-1c" transform="translate(37.203125 0)"/>
     <use xlink:href="#DejaVuSans-Bold-14" transform="translate(106.78125 0)"/>
     <use xlink:href="#DejaVuSans-Bold-16" transform="translate(176.359375 0)"/>
    </g>
   </g>
   <g id="text_26">
    <!-- L914 -->
    <g style="fill: #222222" transform="translate(506.734915 575.563271) scale(0.075 -0.075)">
     <use xlink:href="#DejaVuSans-Bold-2f"/>
     <use xlink:href="#DejaVuSans-Bold-1c" transform="translate(63.71875 0)"/>
     <use xlink:href="#DejaVuSans-Bold-14" transform="translate(133.296875 0)"/>
     <use xlink:href="#DejaVuSans-Bold-17" transform="translate(202.875 0)"/>
    </g>
   </g>
   <g id="text_27">
    <!-- G827 -->
    <g style="fill: #222222" transform="translate(103.399459 351.040154) scale(0.075 -0.075)">
     <defs>
      <path id="DejaVuSans-Bold-2a" d="M 4781 347 
Q 4331 128 3847 18 
Q 3363 -91 2847 -91 
Q 1681 -91 1000 561 
Q 319 1213 319 2328 
Q 319 3456 1012 4103 
Q 1706 4750 2913 4750 
Q 3378 4750 3804 4662 
Q 4231 4575 4609 4403 
L 4609 3438 
Q 4219 3659 3833 3768 
Q 3447 3878 3059 3878 
Q 2341 3878 1952 3476 
Q 1563 3075 1563 2328 
Q 1563 1588 1938 1184 
Q 2313 781 3003 781 
Q 3191 781 3352 804 
Q 3513 828 3641 878 
L 3641 1784 
L 2906 1784 
L 2906 2591 
L 4781 2591 
L 4781 347 
z
" transform="scale(0.015625)"/>
     </defs>
     <use xlink:href="#DejaVuSans-Bold-2a"/>
     <use xlink:href="#DejaVuSans-Bold-1b" transform="translate(82.078125 0)"/>
     <use xlink:href="#DejaVuSans-Bold-15" transform="translate(151.65625 0)"/>
     <use xlink:href="#DejaVuSans-Bold-1a" transform="translate(221.234375 0)"/>
    </g>
   </g>
   <g id="text_28">
    <!-- R854 -->
    <g style="fill: #ffffff" transform="translate(116.729686 469.475683) scale(0.075 -0.075)">
     <use xlink:href="#DejaVuSans-Bold-35"/>
     <use xlink:href="#DejaVuSans-Bold-1b" transform="translate(77 0)"/>
     <use xlink:href="#DejaVuSans-Bold-18" transform="translate(146.578125 0)"/>
     <use xlink:href="#DejaVuSans-Bold-17" transform="translate(216.15625 0)"/>
    </g>
   </g>
   <g id="text_29">
    <!-- E918 -->
    <g style="fill: #ffffff" transform="translate(398.916414 626.634665) scale(0.075 -0.075)">
     <defs>
      <path id="DejaVuSans-Bold-28" d="M 588 4666 
L 3834 4666 
L 3834 3756 
L 1791 3756 
L 1791 2888 
L 3713 2888 
L 3713 1978 
L 1791 1978 
L 1791 909 
L 3903 909 
L 3903 0 
L 588 0 
L 588 4666 
z
" transform="scale(0.015625)"/>
     </defs>
     <use xlink:href="#DejaVuSans-Bold-28"/>
     <use xlink:href="#DejaVuSans-Bold-1c" transform="translate(68.3125 0)"/>
     <use xlink:href="#DejaVuSans-Bold-14" transform="translate(137.890625 0)"/>
     <use xlink:href="#DejaVuSans-Bold-1b" transform="translate(207.46875 0)"/>
    </g>
   </g>
  </g>
  <g id="patch_35">
   <path d="M 130.640391 714.42 
Q 135.83969 714.42 138.914724 714.42 
" style="fill: none; stroke: #0279ee; stroke-width: 1.9; stroke-linecap: round"/>
   <path d="M 134.114724 712.02 
L 138.914724 714.42 
L 134.114724 716.82 
" style="fill: none; stroke: #0279ee; stroke-width: 1.9; stroke-linecap: round"/>
  </g>
  <g id="patch_36">
   <path d="M 92.16 743.148 
C 93.68757 743.148 95.15278 742.510745 96.232935 741.376582 
C 97.31309 740.242419 97.92 738.703948 97.92 737.1 
C 97.92 735.496052 97.31309 733.957581 96.232935 732.823418 
C 95.15278 731.689255 93.68757 731.052 92.16 731.052 
C 90.63243 731.052 89.16722 731.689255 88.087065 732.823418 
C 87.00691 733.957581 86.4 735.496052 86.4 737.1 
C 86.4 738.703948 87.00691 740.242419 88.087065 741.376582 
C 89.16722 742.510745 90.63243 743.148 92.16 743.148 
z
" style="fill: #5087c5; stroke: #222222; stroke-width: 0.8; stroke-linejoin: miter"/>
  </g>
  <g id="patch_37">
   <path d="M 218.88 743.148 
C 220.40757 743.148 221.87278 742.510745 222.952935 741.376582 
C 224.03309 740.242419 224.64 738.703948 224.64 737.1 
C 224.64 735.496052 224.03309 733.957581 222.952935 732.823418 
C 221.87278 731.689255 220.40757 731.052 218.88 731.052 
C 217.35243 731.052 215.88722 731.689255 214.807065 732.823418 
C 213.72691 733.957581 213.12 735.496052 213.12 737.1 
C 213.12 738.703948 213.72691 740.242419 214.807065 741.376582 
C 215.88722 742.510745 217.35243 743.148 218.88 743.148 
z
" style="fill: #d9584c; stroke: #222222; stroke-width: 0.8; stroke-linejoin: miter"/>
  </g>
  <g id="patch_38">
   <path d="M 345.6 743.148 
C 347.12757 743.148 348.59278 742.510745 349.672935 741.376582 
C 350.75309 740.242419 351.36 738.703948 351.36 737.1 
C 351.36 735.496052 350.75309 733.957581 349.672935 732.823418 
C 348.59278 731.689255 347.12757 731.052 345.6 731.052 
C 344.07243 731.052 342.60722 731.689255 341.527065 732.823418 
C 340.44691 733.957581 339.84 735.496052 339.84 737.1 
C 339.84 738.703948 340.44691 740.242419 341.527065 741.376582 
C 342.60722 742.510745 344.07243 743.148 345.6 743.148 
z
" style="fill: #f5a623; stroke: #222222; stroke-width: 0.8; stroke-linejoin: miter"/>
  </g>
  <g id="patch_39">
   <path d="M 472.32 743.148 
C 473.84757 743.148 475.31278 742.510745 476.392935 741.376582 
C 477.47309 740.242419 478.08 738.703948 478.08 737.1 
C 478.08 735.496052 477.47309 733.957581 476.392935 732.823418 
C 475.31278 731.689255 473.84757 731.052 472.32 731.052 
C 470.79243 731.052 469.32722 731.689255 468.247065 732.823418 
C 467.16691 733.957581 466.56 735.496052 466.56 737.1 
C 466.56 738.703948 467.16691 740.242419 468.247065 741.376582 
C 469.32722 742.510745 470.79243 743.148 472.32 743.148 
z
" style="fill: #8bc34a; stroke: #222222; stroke-width: 0.8; stroke-linejoin: miter"/>
  </g>
  <g id="patch_40">
   <path d="M 599.04 743.148 
C 600.56757 743.148 602.03278 742.510745 603.112935 741.376582 
C 604.19309 740.242419 604.8 738.703948 604.8 737.1 
C 604.8 735.496052 604.19309 733.957581 603.112935 732.823418 
C 602.03278 731.689255 600.56757 731.052 599.04 731.052 
C 597.51243 731.052 596.04722 731.689255 594.967065 732.823418 
C 593.88691 733.957581 593.28 735.496052 593.28 737.1 
C 593.28 738.703948 593.88691 740.242419 594.967065 741.376582 
C 596.04722 742.510745 597.51243 743.148 599.04 743.148 
z
" style="fill: #ffffff; stroke: #dc3912; stroke-width: 2.5; stroke-linejoin: miter"/>
  </g>
  <g id="line2d_90">
   <path d="M 339.84 714.42 
L 354.24 714.42 
" style="fill: none; stroke: #75a025; stroke-opacity: 0.4; stroke-width: 4; stroke-linecap: square"/>
  </g>
  <g id="line2d_91">
   <path d="M 551.04 714.42 
L 565.44 714.42 
" style="fill: none; stroke: #8b4513; stroke-width: 2.2; stroke-linecap: square"/>
  </g>
  <g id="text_30">
   <!-- WT × 9S18 · HRO761 — REFERENCE WT -->
   <g transform="translate(205.277031 21.976719) scale(0.14 -0.14)">
    <defs>
     <path id="DejaVuSans-Bold-3a" d="M 191 4666 
L 1344 4666 
L 2150 1275 
L 2950 4666 
L 4109 4666 
L 4909 1275 
L 5716 4666 
L 6859 4666 
L 5759 0 
L 4372 0 
L 3525 3547 
L 2688 0 
L 1300 0 
L 191 4666 
z
" transform="scale(0.015625)"/>
     <path id="DejaVuSans-Bold-37" d="M 31 4666 
L 4331 4666 
L 4331 3756 
L 2784 3756 
L 2784 0 
L 1581 0 
L 1581 3756 
L 31 3756 
L 31 4666 
z
" transform="scale(0.015625)"/>
     <path id="DejaVuSans-Bold-3" transform="scale(0.015625)"/>
     <path id="DejaVuSans-Bold-99" d="M 4563 3359 
L 3206 2003 
L 4563 653 
L 4038 128 
L 2681 1478 
L 1325 128 
L 800 653 
L 2156 2003 
L 800 3359 
L 1325 3884 
L 2681 2528 
L 4038 3884 
L 4563 3359 
z
" transform="scale(0.015625)"/>
     <path id="DejaVuSans-Bold-36" d="M 3834 4519 
L 3834 3531 
Q 3450 3703 3084 3790 
Q 2719 3878 2394 3878 
Q 1963 3878 1756 3759 
Q 1550 3641 1550 3391 
Q 1550 3203 1689 3098 
Q 1828 2994 2194 2919 
L 2706 2816 
Q 3484 2659 3812 2340 
Q 4141 2022 4141 1434 
Q 4141 663 3683 286 
Q 3225 -91 2284 -91 
Q 1841 -91 1394 -6 
Q 947 78 500 244 
L 500 1259 
Q 947 1022 1364 901 
Q 1781 781 2169 781 
Q 2563 781 2772 912 
Q 2981 1044 2981 1288 
Q 2981 1506 2839 1625 
Q 2697 1744 2272 1838 
L 1806 1941 
Q 1106 2091 782 2419 
Q 459 2747 459 3303 
Q 459 4000 909 4375 
Q 1359 4750 2203 4750 
Q 2588 4750 2994 4692 
Q 3400 4634 3834 4519 
z
" transform="scale(0.015625)"/>
     <path id="DejaVuSans-Bold-79" d="M 653 2828 
L 1778 2828 
L 1778 1619 
L 653 1619 
L 653 2828 
z
" transform="scale(0.015625)"/>
     <path id="DejaVuSans-Bold-2b" d="M 588 4666 
L 1791 4666 
L 1791 2888 
L 3566 2888 
L 3566 4666 
L 4769 4666 
L 4769 0 
L 3566 0 
L 3566 1978 
L 1791 1978 
L 1791 0 
L 588 0 
L 588 4666 
z
" transform="scale(0.015625)"/>
     <path id="DejaVuSans-Bold-af6" d="M 344 2156 
L 6056 2156 
L 6056 1350 
L 344 1350 
L 344 2156 
z
" transform="scale(0.015625)"/>
    </defs>
    <use xlink:href="#DejaVuSans-Bold-3a"/>
    <use xlink:href="#DejaVuSans-Bold-37" transform="translate(110.296875 0)"/>
    <use xlink:href="#DejaVuSans-Bold-3" transform="translate(178.515625 0)"/>
    <use xlink:href="#DejaVuSans-Bold-99" transform="translate(213.328125 0)"/>
    <use xlink:href="#DejaVuSans-Bold-3" transform="translate(297.125 0)"/>
    <use xlink:href="#DejaVuSans-Bold-1c" transform="translate(331.9375 0)"/>
    <use xlink:href="#DejaVuSans-Bold-36" transform="translate(401.515625 0)"/>
    <use xlink:href="#DejaVuSans-Bold-14" transform="translate(473.53125 0)"/>
    <use xlink:href="#DejaVuSans-Bold-1b" transform="translate(543.109375 0)"/>
    <use xlink:href="#DejaVuSans-Bold-3" transform="translate(612.6875 0)"/>
    <use xlink:href="#DejaVuSans-Bold-79" transform="translate(647.5 0)"/>
    <use xlink:href="#DejaVuSans-Bold-3" transform="translate(685.484375 0)"/>
    <use xlink:href="#DejaVuSans-Bold-2b" transform="translate(720.296875 0)"/>
    <use xlink:href="#DejaVuSans-Bold-35" transform="translate(803.984375 0)"/>
    <use xlink:href="#DejaVuSans-Bold-32" transform="translate(880.984375 0)"/>
    <use xlink:href="#DejaVuSans-Bold-1a" transform="translate(966 0)"/>
    <use xlink:href="#DejaVuSans-Bold-19" transform="translate(1035.578125 0)"/>
    <use xlink:href="#DejaVuSans-Bold-14" transform="translate(1105.15625 0)"/>
    <use xlink:href="#DejaVuSans-Bold-3" transform="translate(1174.734375 0)"/>
    <use xlink:href="#DejaVuSans-Bold-af6" transform="translate(1209.546875 0)"/>
    <use xlink:href="#DejaVuSans-Bold-3" transform="translate(1309.546875 0)"/>
    <use xlink:href="#DejaVuSans-Bold-35" transform="translate(1344.359375 0)"/>
    <use xlink:href="#DejaVuSans-Bold-28" transform="translate(1421.359375 0)"/>
    <use xlink:href="#DejaVuSans-Bold-29" transform="translate(1489.671875 0)"/>
    <use xlink:href="#DejaVuSans-Bold-28" transform="translate(1557.984375 0)"/>
    <use xlink:href="#DejaVuSans-Bold-35" transform="translate(1626.296875 0)"/>
    <use xlink:href="#DejaVuSans-Bold-28" transform="translate(1703.296875 0)"/>
    <use xlink:href="#DejaVuSans-Bold-31" transform="translate(1771.609375 0)"/>
    <use xlink:href="#DejaVuSans-Bold-26" transform="translate(1855.296875 0)"/>
    <use xlink:href="#DejaVuSans-Bold-28" transform="translate(1928.6875 0)"/>
    <use xlink:href="#DejaVuSans-Bold-3" transform="translate(1997 0)"/>
    <use xlink:href="#DejaVuSans-Bold-3a" transform="translate(2031.8125 0)"/>
    <use xlink:href="#DejaVuSans-Bold-37" transform="translate(2142.109375 0)"/>
   </g>
  </g>
  <g id="text_31">
   <!-- (no comparative metrics — WT reference) -->
   <g transform="translate(249.67125 40.486359) scale(0.105 -0.105)">
    <defs>
     <path id="DejaVuSans-b" d="M 1984 4856 
Q 1566 4138 1362 3434 
Q 1159 2731 1159 2009 
Q 1159 1288 1364 580 
Q 1569 -128 1984 -844 
L 1484 -844 
Q 1016 -109 783 600 
Q 550 1309 550 2009 
Q 550 2706 781 3412 
Q 1013 4119 1484 4856 
L 1984 4856 
z
" transform="scale(0.015625)"/>
     <path id="DejaVuSans-51" d="M 3513 2113 
L 3513 0 
L 2938 0 
L 2938 2094 
Q 2938 2591 2744 2837 
Q 2550 3084 2163 3084 
Q 1697 3084 1428 2787 
Q 1159 2491 1159 1978 
L 1159 0 
L 581 0 
L 581 3500 
L 1159 3500 
L 1159 2956 
Q 1366 3272 1645 3428 
Q 1925 3584 2291 3584 
Q 2894 3584 3203 3211 
Q 3513 2838 3513 2113 
z
" transform="scale(0.015625)"/>
     <path id="DejaVuSans-52" d="M 1959 3097 
Q 1497 3097 1228 2736 
Q 959 2375 959 1747 
Q 959 1119 1226 758 
Q 1494 397 1959 397 
Q 2419 397 2687 759 
Q 2956 1122 2956 1747 
Q 2956 2369 2687 2733 
Q 2419 3097 1959 3097 
z
M 1959 3584 
Q 2709 3584 3137 3096 
Q 3566 2609 3566 1747 
Q 3566 888 3137 398 
Q 2709 -91 1959 -91 
Q 1206 -91 779 398 
Q 353 888 353 1747 
Q 353 2609 779 3096 
Q 1206 3584 1959 3584 
z
" transform="scale(0.015625)"/>
     <path id="DejaVuSans-3" transform="scale(0.015625)"/>
     <path id="DejaVuSans-46" d="M 3122 3366 
L 3122 2828 
Q 2878 2963 2633 3030 
Q 2388 3097 2138 3097 
Q 1578 3097 1268 2742 
Q 959 2388 959 1747 
Q 959 1106 1268 751 
Q 1578 397 2138 397 
Q 2388 397 2633 464 
Q 2878 531 3122 666 
L 3122 134 
Q 2881 22 2623 -34 
Q 2366 -91 2075 -91 
Q 1284 -91 818 406 
Q 353 903 353 1747 
Q 353 2603 823 3093 
Q 1294 3584 2113 3584 
Q 2378 3584 2631 3529 
Q 2884 3475 3122 3366 
z
" transform="scale(0.015625)"/>
     <path id="DejaVuSans-50" d="M 3328 2828 
Q 3544 3216 3844 3400 
Q 4144 3584 4550 3584 
Q 5097 3584 5394 3201 
Q 5691 2819 5691 2113 
L 5691 0 
L 5113 0 
L 5113 2094 
Q 5113 2597 4934 2840 
Q 4756 3084 4391 3084 
Q 3944 3084 3684 2787 
Q 3425 2491 3425 1978 
L 3425 0 
L 2847 0 
L 2847 2094 
Q 2847 2600 2669 2842 
Q 2491 3084 2119 3084 
Q 1678 3084 1418 2786 
Q 1159 2488 1159 1978 
L 1159 0 
L 581 0 
L 581 3500 
L 1159 3500 
L 1159 2956 
Q 1356 3278 1631 3431 
Q 1906 3584 2284 3584 
Q 2666 3584 2933 3390 
Q 3200 3197 3328 2828 
z
" transform="scale(0.015625)"/>
     <path id="DejaVuSans-53" d="M 1159 525 
L 1159 -1331 
L 581 -1331 
L 581 3500 
L 1159 3500 
L 1159 2969 
Q 1341 3281 1617 3432 
Q 1894 3584 2278 3584 
Q 2916 3584 3314 3078 
Q 3713 2572 3713 1747 
Q 3713 922 3314 415 
Q 2916 -91 2278 -91 
Q 1894 -91 1617 61 
Q 1341 213 1159 525 
z
M 3116 1747 
Q 3116 2381 2855 2742 
Q 2594 3103 2138 3103 
Q 1681 3103 1420 2742 
Q 1159 2381 1159 1747 
Q 1159 1113 1420 752 
Q 1681 391 2138 391 
Q 2594 391 2855 752 
Q 3116 1113 3116 1747 
z
" transform="scale(0.015625)"/>
     <path id="DejaVuSans-44" d="M 2194 1759 
Q 1497 1759 1228 1600 
Q 959 1441 959 1056 
Q 959 750 1161 570 
Q 1363 391 1709 391 
Q 2188 391 2477 730 
Q 2766 1069 2766 1631 
L 2766 1759 
L 2194 1759 
z
M 3341 1997 
L 3341 0 
L 2766 0 
L 2766 531 
Q 2569 213 2275 61 
Q 1981 -91 1556 -91 
Q 1019 -91 701 211 
Q 384 513 384 1019 
Q 384 1609 779 1909 
Q 1175 2209 1959 2209 
L 2766 2209 
L 2766 2266 
Q 2766 2663 2505 2880 
Q 2244 3097 1772 3097 
Q 1472 3097 1187 3025 
Q 903 2953 641 2809 
L 641 3341 
Q 956 3463 1253 3523 
Q 1550 3584 1831 3584 
Q 2591 3584 2966 3190 
Q 3341 2797 3341 1997 
z
" transform="scale(0.015625)"/>
     <path id="DejaVuSans-55" d="M 2631 2963 
Q 2534 3019 2420 3045 
Q 2306 3072 2169 3072 
Q 1681 3072 1420 2755 
Q 1159 2438 1159 1844 
L 1159 0 
L 581 0 
L 581 3500 
L 1159 3500 
L 1159 2956 
Q 1341 3275 1631 3429 
Q 1922 3584 2338 3584 
Q 2397 3584 2469 3576 
Q 2541 3569 2628 3553 
L 2631 2963 
z
" transform="scale(0.015625)"/>
     <path id="DejaVuSans-57" d="M 1172 4494 
L 1172 3500 
L 2356 3500 
L 2356 3053 
L 1172 3053 
L 1172 1153 
Q 1172 725 1289 603 
Q 1406 481 1766 481 
L 2356 481 
L 2356 0 
L 1766 0 
Q 1100 0 847 248 
Q 594 497 594 1153 
L 594 3053 
L 172 3053 
L 172 3500 
L 594 3500 
L 594 4494 
L 1172 4494 
z
" transform="scale(0.015625)"/>
     <path id="DejaVuSans-4c" d="M 603 3500 
L 1178 3500 
L 1178 0 
L 603 0 
L 603 3500 
z
M 603 4863 
L 1178 4863 
L 1178 4134 
L 603 4134 
L 603 4863 
z
" transform="scale(0.015625)"/>
     <path id="DejaVuSans-59" d="M 191 3500 
L 800 3500 
L 1894 563 
L 2988 3500 
L 3597 3500 
L 2284 0 
L 1503 0 
L 191 3500 
z
" transform="scale(0.015625)"/>
     <path id="DejaVuSans-48" d="M 3597 1894 
L 3597 1613 
L 953 1613 
Q 991 1019 1311 708 
Q 1631 397 2203 397 
Q 2534 397 2845 478 
Q 3156 559 3463 722 
L 3463 178 
Q 3153 47 2828 -22 
Q 2503 -91 2169 -91 
Q 1331 -91 842 396 
Q 353 884 353 1716 
Q 353 2575 817 3079 
Q 1281 3584 2069 3584 
Q 2775 3584 3186 3129 
Q 3597 2675 3597 1894 
z
M 3022 2063 
Q 3016 2534 2758 2815 
Q 2500 3097 2075 3097 
Q 1594 3097 1305 2825 
Q 1016 2553 972 2059 
L 3022 2063 
z
" transform="scale(0.015625)"/>
     <path id="DejaVuSans-56" d="M 2834 3397 
L 2834 2853 
Q 2591 2978 2328 3040 
Q 2066 3103 1784 3103 
Q 1356 3103 1142 2972 
Q 928 2841 928 2578 
Q 928 2378 1081 2264 
Q 1234 2150 1697 2047 
L 1894 2003 
Q 2506 1872 2764 1633 
Q 3022 1394 3022 966 
Q 3022 478 2636 193 
Q 2250 -91 1575 -91 
Q 1294 -91 989 -36 
Q 684 19 347 128 
L 347 722 
Q 666 556 975 473 
Q 1284 391 1588 391 
Q 1994 391 2212 530 
Q 2431 669 2431 922 
Q 2431 1156 2273 1281 
Q 2116 1406 1581 1522 
L 1381 1569 
Q 847 1681 609 1914 
Q 372 2147 372 2553 
Q 372 3047 722 3315 
Q 1072 3584 1716 3584 
Q 2034 3584 2315 3537 
Q 2597 3491 2834 3397 
z
" transform="scale(0.015625)"/>
     <path id="DejaVuSans-af6" d="M 313 1978 
L 6088 1978 
L 6088 1528 
L 313 1528 
L 313 1978 
z
" transform="scale(0.015625)"/>
     <path id="DejaVuSans-3a" d="M 213 4666 
L 850 4666 
L 1831 722 
L 2809 4666 
L 3519 4666 
L 4500 722 
L 5478 4666 
L 6119 4666 
L 4947 0 
L 4153 0 
L 3169 4050 
L 2175 0 
L 1381 0 
L 213 4666 
z
" transform="scale(0.015625)"/>
     <path id="DejaVuSans-37" d="M -19 4666 
L 3928 4666 
L 3928 4134 
L 2272 4134 
L 2272 0 
L 1638 0 
L 1638 4134 
L -19 4134 
L -19 4666 
z
" transform="scale(0.015625)"/>
     <path id="DejaVuSans-49" d="M 2375 4863 
L 2375 4384 
L 1825 4384 
Q 1516 4384 1395 4259 
Q 1275 4134 1275 3809 
L 1275 3500 
L 2222 3500 
L 2222 3053 
L 1275 3053 
L 1275 0 
L 697 0 
L 697 3053 
L 147 3053 
L 147 3500 
L 697 3500 
L 697 3744 
Q 697 4328 969 4595 
Q 1241 4863 1831 4863 
L 2375 4863 
z
" transform="scale(0.015625)"/>
     <path id="DejaVuSans-c" d="M 513 4856 
L 1013 4856 
Q 1481 4119 1714 3412 
Q 1947 2706 1947 2009 
Q 1947 1309 1714 600 
Q 1481 -109 1013 -844 
L 513 -844 
Q 928 -128 1133 580 
Q 1338 1288 1338 2009 
Q 1338 2731 1133 3434 
Q 928 4138 513 4856 
z
" transform="scale(0.015625)"/>
    </defs>
    <use xlink:href="#DejaVuSans-b"/>
    <use xlink:href="#DejaVuSans-51" transform="translate(39.015625 0)"/>
    <use xlink:href="#DejaVuSans-52" transform="translate(102.390625 0)"/>
    <use xlink:href="#DejaVuSans-3" transform="translate(163.578125 0)"/>
    <use xlink:href="#DejaVuSans-46" transform="translate(195.359375 0)"/>
    <use xlink:href="#DejaVuSans-52" transform="translate(250.34375 0)"/>
    <use xlink:href="#DejaVuSans-50" transform="translate(311.53125 0)"/>
    <use xlink:href="#DejaVuSans-53" transform="translate(408.9375 0)"/>
    <use xlink:href="#DejaVuSans-44" transform="translate(472.421875 0)"/>
    <use xlink:href="#DejaVuSans-55" transform="translate(533.703125 0)"/>
    <use xlink:href="#DejaVuSans-44" transform="translate(574.8125 0)"/>
    <use xlink:href="#DejaVuSans-57" transform="translate(636.09375 0)"/>
    <use xlink:href="#DejaVuSans-4c" transform="translate(675.296875 0)"/>
    <use xlink:href="#DejaVuSans-59" transform="translate(703.078125 0)"/>
    <use xlink:href="#DejaVuSans-48" transform="translate(762.265625 0)"/>
    <use xlink:href="#DejaVuSans-3" transform="translate(823.796875 0)"/>
    <use xlink:href="#DejaVuSans-50" transform="translate(855.578125 0)"/>
    <use xlink:href="#DejaVuSans-48" transform="translate(952.984375 0)"/>
    <use xlink:href="#DejaVuSans-57" transform="translate(1014.515625 0)"/>
    <use xlink:href="#DejaVuSans-55" transform="translate(1053.71875 0)"/>
    <use xlink:href="#DejaVuSans-4c" transform="translate(1094.828125 0)"/>
    <use xlink:href="#DejaVuSans-46" transform="translate(1122.609375 0)"/>
    <use xlink:href="#DejaVuSans-56" transform="translate(1177.59375 0)"/>
    <use xlink:href="#DejaVuSans-3" transform="translate(1229.6875 0)"/>
    <use xlink:href="#DejaVuSans-af6" transform="translate(1261.46875 0)"/>
    <use xlink:href="#DejaVuSans-3" transform="translate(1361.46875 0)"/>
    <use xlink:href="#DejaVuSans-3a" transform="translate(1393.25 0)"/>
    <use xlink:href="#DejaVuSans-37" transform="translate(1492.125 0)"/>
    <use xlink:href="#DejaVuSans-3" transform="translate(1553.203125 0)"/>
    <use xlink:href="#DejaVuSans-55" transform="translate(1584.984375 0)"/>
    <use xlink:href="#DejaVuSans-48" transform="translate(1623.890625 0)"/>
    <use xlink:href="#DejaVuSans-49" transform="translate(1685.421875 0)"/>
    <use xlink:href="#DejaVuSans-48" transform="translate(1720.625 0)"/>
    <use xlink:href="#DejaVuSans-55" transform="translate(1782.15625 0)"/>
    <use xlink:href="#DejaVuSans-48" transform="translate(1821.0625 0)"/>
    <use xlink:href="#DejaVuSans-51" transform="translate(1882.59375 0)"/>
    <use xlink:href="#DejaVuSans-46" transform="translate(1945.96875 0)"/>
    <use xlink:href="#DejaVuSans-48" transform="translate(2000.953125 0)"/>
    <use xlink:href="#DejaVuSans-c" transform="translate(2062.484375 0)"/>
   </g>
  </g>
  <g id="text_32">
   <!-- PLIP: 8 hydrophobic · 4 H-bond · 1 halogen -->
   <g transform="translate(247.993711 61.654359) scale(0.105 -0.105)">
    <defs>
     <path id="DejaVuSans-33" d="M 1259 4147 
L 1259 2394 
L 2053 2394 
Q 2494 2394 2734 2622 
Q 2975 2850 2975 3272 
Q 2975 3691 2734 3919 
Q 2494 4147 2053 4147 
L 1259 4147 
z
M 628 4666 
L 2053 4666 
Q 2838 4666 3239 4311 
Q 3641 3956 3641 3272 
Q 3641 2581 3239 2228 
Q 2838 1875 2053 1875 
L 1259 1875 
L 1259 0 
L 628 0 
L 628 4666 
z
" transform="scale(0.015625)"/>
     <path id="DejaVuSans-2f" d="M 628 4666 
L 1259 4666 
L 1259 531 
L 3531 531 
L 3531 0 
L 628 0 
L 628 4666 
z
" transform="scale(0.015625)"/>
     <path id="DejaVuSans-2c" d="M 628 4666 
L 1259 4666 
L 1259 0 
L 628 0 
L 628 4666 
z
" transform="scale(0.015625)"/>
     <path id="DejaVuSans-1d" d="M 750 794 
L 1409 794 
L 1409 0 
L 750 0 
L 750 794 
z
M 750 3309 
L 1409 3309 
L 1409 2516 
L 750 2516 
L 750 3309 
z
" transform="scale(0.015625)"/>
     <path id="DejaVuSans-1b" d="M 2034 2216 
Q 1584 2216 1326 1975 
Q 1069 1734 1069 1313 
Q 1069 891 1326 650 
Q 1584 409 2034 409 
Q 2484 409 2743 651 
Q 3003 894 3003 1313 
Q 3003 1734 2745 1975 
Q 2488 2216 2034 2216 
z
M 1403 2484 
Q 997 2584 770 2862 
Q 544 3141 544 3541 
Q 544 4100 942 4425 
Q 1341 4750 2034 4750 
Q 2731 4750 3128 4425 
Q 3525 4100 3525 3541 
Q 3525 3141 3298 2862 
Q 3072 2584 2669 2484 
Q 3125 2378 3379 2068 
Q 3634 1759 3634 1313 
Q 3634 634 3220 271 
Q 2806 -91 2034 -91 
Q 1263 -91 848 271 
Q 434 634 434 1313 
Q 434 1759 690 2068 
Q 947 2378 1403 2484 
z
M 1172 3481 
Q 1172 3119 1398 2916 
Q 1625 2713 2034 2713 
Q 2441 2713 2670 2916 
Q 2900 3119 2900 3481 
Q 2900 3844 2670 4047 
Q 2441 4250 2034 4250 
Q 1625 4250 1398 4047 
Q 1172 3844 1172 3481 
z
" transform="scale(0.015625)"/>
     <path id="DejaVuSans-4b" d="M 3513 2113 
L 3513 0 
L 2938 0 
L 2938 2094 
Q 2938 2591 2744 2837 
Q 2550 3084 2163 3084 
Q 1697 3084 1428 2787 
Q 1159 2491 1159 1978 
L 1159 0 
L 581 0 
L 581 4863 
L 1159 4863 
L 1159 2956 
Q 1366 3272 1645 3428 
Q 1925 3584 2291 3584 
Q 2894 3584 3203 3211 
Q 3513 2838 3513 2113 
z
" transform="scale(0.015625)"/>
     <path id="DejaVuSans-5c" d="M 2059 -325 
Q 1816 -950 1584 -1140 
Q 1353 -1331 966 -1331 
L 506 -1331 
L 506 -850 
L 844 -850 
Q 1081 -850 1212 -737 
Q 1344 -625 1503 -206 
L 1606 56 
L 191 3500 
L 800 3500 
L 1894 763 
L 2988 3500 
L 3597 3500 
L 2059 -325 
z
" transform="scale(0.015625)"/>
     <path id="DejaVuSans-47" d="M 2906 2969 
L 2906 4863 
L 3481 4863 
L 3481 0 
L 2906 0 
L 2906 525 
Q 2725 213 2448 61 
Q 2172 -91 1784 -91 
Q 1150 -91 751 415 
Q 353 922 353 1747 
Q 353 2572 751 3078 
Q 1150 3584 1784 3584 
Q 2172 3584 2448 3432 
Q 2725 3281 2906 2969 
z
M 947 1747 
Q 947 1113 1208 752 
Q 1469 391 1925 391 
Q 2381 391 2643 752 
Q 2906 1113 2906 1747 
Q 2906 2381 2643 2742 
Q 2381 3103 1925 3103 
Q 1469 3103 1208 2742 
Q 947 2381 947 1747 
z
" transform="scale(0.015625)"/>
     <path id="DejaVuSans-45" d="M 3116 1747 
Q 3116 2381 2855 2742 
Q 2594 3103 2138 3103 
Q 1681 3103 1420 2742 
Q 1159 2381 1159 1747 
Q 1159 1113 1420 752 
Q 1681 391 2138 391 
Q 2594 391 2855 752 
Q 3116 1113 3116 1747 
z
M 1159 2969 
Q 1341 3281 1617 3432 
Q 1894 3584 2278 3584 
Q 2916 3584 3314 3078 
Q 3713 2572 3713 1747 
Q 3713 922 3314 415 
Q 2916 -91 2278 -91 
Q 1894 -91 1617 61 
Q 1341 213 1159 525 
L 1159 0 
L 581 0 
L 581 4863 
L 1159 4863 
L 1159 2969 
z
" transform="scale(0.015625)"/>
     <path id="DejaVuSans-79" d="M 684 2619 
L 1344 2619 
L 1344 1825 
L 684 1825 
L 684 2619 
z
" transform="scale(0.015625)"/>
     <path id="DejaVuSans-17" d="M 2419 4116 
L 825 1625 
L 2419 1625 
L 2419 4116 
z
M 2253 4666 
L 3047 4666 
L 3047 1625 
L 3713 1625 
L 3713 1100 
L 3047 1100 
L 3047 0 
L 2419 0 
L 2419 1100 
L 313 1100 
L 313 1709 
L 2253 4666 
z
" transform="scale(0.015625)"/>
     <path id="DejaVuSans-2b" d="M 628 4666 
L 1259 4666 
L 1259 2753 
L 3553 2753 
L 3553 4666 
L 4184 4666 
L 4184 0 
L 3553 0 
L 3553 2222 
L 1259 2222 
L 1259 0 
L 628 0 
L 628 4666 
z
" transform="scale(0.015625)"/>
     <path id="DejaVuSans-10" d="M 313 2009 
L 1997 2009 
L 1997 1497 
L 313 1497 
L 313 2009 
z
" transform="scale(0.015625)"/>
     <path id="DejaVuSans-14" d="M 794 531 
L 1825 531 
L 1825 4091 
L 703 3866 
L 703 4441 
L 1819 4666 
L 2450 4666 
L 2450 531 
L 3481 531 
L 3481 0 
L 794 0 
L 794 531 
z
" transform="scale(0.015625)"/>
     <path id="DejaVuSans-4f" d="M 603 4863 
L 1178 4863 
L 1178 0 
L 603 0 
L 603 4863 
z
" transform="scale(0.015625)"/>
     <path id="DejaVuSans-4a" d="M 2906 1791 
Q 2906 2416 2648 2759 
Q 2391 3103 1925 3103 
Q 1463 3103 1205 2759 
Q 947 2416 947 1791 
Q 947 1169 1205 825 
Q 1463 481 1925 481 
Q 2391 481 2648 825 
Q 2906 1169 2906 1791 
z
M 3481 434 
Q 3481 -459 3084 -895 
Q 2688 -1331 1869 -1331 
Q 1566 -1331 1297 -1286 
Q 1028 -1241 775 -1147 
L 775 -588 
Q 1028 -725 1275 -790 
Q 1522 -856 1778 -856 
Q 2344 -856 2625 -561 
Q 2906 -266 2906 331 
L 2906 616 
Q 2728 306 2450 153 
Q 2172 0 1784 0 
Q 1141 0 747 490 
Q 353 981 353 1791 
Q 353 2603 747 3093 
Q 1141 3584 1784 3584 
Q 2172 3584 2450 3431 
Q 2728 3278 2906 2969 
L 2906 3500 
L 3481 3500 
L 3481 434 
z
" transform="scale(0.015625)"/>
    </defs>
    <use xlink:href="#DejaVuSans-33"/>
    <use xlink:href="#DejaVuSans-2f" transform="translate(60.296875 0)"/>
    <use xlink:href="#DejaVuSans-2c" transform="translate(116.015625 0)"/>
    <use xlink:href="#DejaVuSans-33" transform="translate(145.515625 0)"/>
    <use xlink:href="#DejaVuSans-1d" transform="translate(205.8125 0)"/>
    <use xlink:href="#DejaVuSans-3" transform="translate(239.5 0)"/>
    <use xlink:href="#DejaVuSans-1b" transform="translate(271.28125 0)"/>
    <use xlink:href="#DejaVuSans-3" transform="translate(334.90625 0)"/>
    <use xlink:href="#DejaVuSans-4b" transform="translate(366.6875 0)"/>
    <use xlink:href="#DejaVuSans-5c" transform="translate(430.0625 0)"/>
    <use xlink:href="#DejaVuSans-47" transform="translate(489.25 0)"/>
    <use xlink:href="#DejaVuSans-55" transform="translate(552.734375 0)"/>
    <use xlink:href="#DejaVuSans-52" transform="translate(591.640625 0)"/>
    <use xlink:href="#DejaVuSans-53" transform="translate(652.828125 0)"/>
    <use xlink:href="#DejaVuSans-4b" transform="translate(716.3125 0)"/>
    <use xlink:href="#DejaVuSans-52" transform="translate(779.6875 0)"/>
    <use xlink:href="#DejaVuSans-45" transform="translate(840.875 0)"/>
    <use xlink:href="#DejaVuSans-4c" transform="translate(904.359375 0)"/>
    <use xlink:href="#DejaVuSans-46" transform="translate(932.140625 0)"/>
    <use xlink:href="#DejaVuSans-3" transform="translate(987.125 0)"/>
    <use xlink:href="#DejaVuSans-79" transform="translate(1018.90625 0)"/>
    <use xlink:href="#DejaVuSans-3" transform="translate(1050.6875 0)"/>
    <use xlink:href="#DejaVuSans-17" transform="translate(1082.46875 0)"/>
    <use xlink:href="#DejaVuSans-3" transform="translate(1146.09375 0)"/>
    <use xlink:href="#DejaVuSans-2b" transform="translate(1177.875 0)"/>
    <use xlink:href="#DejaVuSans-10" transform="translate(1253.078125 0)"/>
    <use xlink:href="#DejaVuSans-45" transform="translate(1289.15625 0)"/>
    <use xlink:href="#DejaVuSans-52" transform="translate(1352.640625 0)"/>
    <use xlink:href="#DejaVuSans-51" transform="translate(1413.828125 0)"/>
    <use xlink:href="#DejaVuSans-47" transform="translate(1477.203125 0)"/>
    <use xlink:href="#DejaVuSans-3" transform="translate(1540.6875 0)"/>
    <use xlink:href="#DejaVuSans-79" transform="translate(1572.46875 0)"/>
    <use xlink:href="#DejaVuSans-3" transform="translate(1604.25 0)"/>
    <use xlink:href="#DejaVuSans-14" transform="translate(1636.03125 0)"/>
    <use xlink:href="#DejaVuSans-3" transform="translate(1699.65625 0)"/>
    <use xlink:href="#DejaVuSans-4b" transform="translate(1731.4375 0)"/>
    <use xlink:href="#DejaVuSans-44" transform="translate(1794.8125 0)"/>
    <use xlink:href="#DejaVuSans-4f" transform="translate(1856.09375 0)"/>
    <use xlink:href="#DejaVuSans-52" transform="translate(1883.875 0)"/>
    <use xlink:href="#DejaVuSans-4a" transform="translate(1945.0625 0)"/>
    <use xlink:href="#DejaVuSans-48" transform="translate(2008.546875 0)"/>
    <use xlink:href="#DejaVuSans-51" transform="translate(2070.078125 0)"/>
   </g>
  </g>
  <g id="text_33">
   <!-- H-bond -->
   <g transform="translate(146.64 716.62834) scale(0.085 -0.085)">
    <use xlink:href="#DejaVuSans-2b"/>
    <use xlink:href="#DejaVuSans-10" transform="translate(75.203125 0)"/>
    <use xlink:href="#DejaVuSans-45" transform="translate(111.28125 0)"/>
    <use xlink:href="#DejaVuSans-52" transform="translate(174.765625 0)"/>
    <use xlink:href="#DejaVuSans-51" transform="translate(235.953125 0)"/>
    <use xlink:href="#DejaVuSans-47" transform="translate(299.328125 0)"/>
   </g>
  </g>
  <g id="text_34">
   <!-- Hydrophobic -->
   <g transform="translate(357.84 716.62834) scale(0.085 -0.085)">
    <use xlink:href="#DejaVuSans-2b"/>
    <use xlink:href="#DejaVuSans-5c" transform="translate(75.203125 0)"/>
    <use xlink:href="#DejaVuSans-47" transform="translate(134.390625 0)"/>
    <use xlink:href="#DejaVuSans-55" transform="translate(197.875 0)"/>
    <use xlink:href="#DejaVuSans-52" transform="translate(236.78125 0)"/>
    <use xlink:href="#DejaVuSans-53" transform="translate(297.96875 0)"/>
    <use xlink:href="#DejaVuSans-4b" transform="translate(361.453125 0)"/>
    <use xlink:href="#DejaVuSans-52" transform="translate(424.828125 0)"/>
    <use xlink:href="#DejaVuSans-45" transform="translate(486.015625 0)"/>
    <use xlink:href="#DejaVuSans-4c" transform="translate(549.5 0)"/>
    <use xlink:href="#DejaVuSans-46" transform="translate(577.28125 0)"/>
   </g>
  </g>
  <g id="text_35">
   <!-- Halogen -->
   <g transform="translate(569.04 716.62834) scale(0.085 -0.085)">
    <use xlink:href="#DejaVuSans-2b"/>
    <use xlink:href="#DejaVuSans-44" transform="translate(75.203125 0)"/>
    <use xlink:href="#DejaVuSans-4f" transform="translate(136.484375 0)"/>
    <use xlink:href="#DejaVuSans-52" transform="translate(164.265625 0)"/>
    <use xlink:href="#DejaVuSans-4a" transform="translate(225.453125 0)"/>
    <use xlink:href="#DejaVuSans-48" transform="translate(288.9375 0)"/>
    <use xlink:href="#DejaVuSans-51" transform="translate(350.46875 0)"/>
   </g>
  </g>
  <g id="text_36">
   <!-- Basic -->
   <g transform="translate(100.8 739.178437) scale(0.08 -0.08)">
    <defs>
     <path id="DejaVuSans-25" d="M 1259 2228 
L 1259 519 
L 2272 519 
Q 2781 519 3026 730 
Q 3272 941 3272 1375 
Q 3272 1813 3026 2020 
Q 2781 2228 2272 2228 
L 1259 2228 
z
M 1259 4147 
L 1259 2741 
L 2194 2741 
Q 2656 2741 2882 2914 
Q 3109 3088 3109 3444 
Q 3109 3797 2882 3972 
Q 2656 4147 2194 4147 
L 1259 4147 
z
M 628 4666 
L 2241 4666 
Q 2963 4666 3353 4366 
Q 3744 4066 3744 3513 
Q 3744 3084 3544 2831 
Q 3344 2578 2956 2516 
Q 3422 2416 3680 2098 
Q 3938 1781 3938 1306 
Q 3938 681 3513 340 
Q 3088 0 2303 0 
L 628 0 
L 628 4666 
z
" transform="scale(0.015625)"/>
    </defs>
    <use xlink:href="#DejaVuSans-25"/>
    <use xlink:href="#DejaVuSans-44" transform="translate(68.609375 0)"/>
    <use xlink:href="#DejaVuSans-56" transform="translate(129.890625 0)"/>
    <use xlink:href="#DejaVuSans-4c" transform="translate(181.984375 0)"/>
    <use xlink:href="#DejaVuSans-46" transform="translate(209.765625 0)"/>
   </g>
  </g>
  <g id="text_37">
   <!-- Acidic -->
   <g transform="translate(227.52 739.178437) scale(0.08 -0.08)">
    <defs>
     <path id="DejaVuSans-24" d="M 2188 4044 
L 1331 1722 
L 3047 1722 
L 2188 4044 
z
M 1831 4666 
L 2547 4666 
L 4325 0 
L 3669 0 
L 3244 1197 
L 1141 1197 
L 716 0 
L 50 0 
L 1831 4666 
z
" transform="scale(0.015625)"/>
    </defs>
    <use xlink:href="#DejaVuSans-24"/>
    <use xlink:href="#DejaVuSans-46" transform="translate(66.65625 0)"/>
    <use xlink:href="#DejaVuSans-4c" transform="translate(121.640625 0)"/>
    <use xlink:href="#DejaVuSans-47" transform="translate(149.421875 0)"/>
    <use xlink:href="#DejaVuSans-4c" transform="translate(212.90625 0)"/>
    <use xlink:href="#DejaVuSans-46" transform="translate(240.6875 0)"/>
   </g>
  </g>
  <g id="text_38">
   <!-- Polar -->
   <g transform="translate(354.24 739.178437) scale(0.08 -0.08)">
    <use xlink:href="#DejaVuSans-33"/>
    <use xlink:href="#DejaVuSans-52" transform="translate(56.734375 0)"/>
    <use xlink:href="#DejaVuSans-4f" transform="translate(117.921875 0)"/>
    <use xlink:href="#DejaVuSans-44" transform="translate(145.703125 0)"/>
    <use xlink:href="#DejaVuSans-55" transform="translate(206.984375 0)"/>
   </g>
  </g>
  <g id="text_39">
   <!-- Hydrophobic -->
   <g transform="translate(480.96 739.178437) scale(0.08 -0.08)">
    <use xlink:href="#DejaVuSans-2b"/>
    <use xlink:href="#DejaVuSans-5c" transform="translate(75.203125 0)"/>
    <use xlink:href="#DejaVuSans-47" transform="translate(134.390625 0)"/>
    <use xlink:href="#DejaVuSans-55" transform="translate(197.875 0)"/>
    <use xlink:href="#DejaVuSans-52" transform="translate(236.78125 0)"/>
    <use xlink:href="#DejaVuSans-53" transform="translate(297.96875 0)"/>
    <use xlink:href="#DejaVuSans-4b" transform="translate(361.453125 0)"/>
    <use xlink:href="#DejaVuSans-52" transform="translate(424.828125 0)"/>
    <use xlink:href="#DejaVuSans-45" transform="translate(486.015625 0)"/>
    <use xlink:href="#DejaVuSans-4c" transform="translate(549.5 0)"/>
    <use xlink:href="#DejaVuSans-46" transform="translate(577.28125 0)"/>
   </g>
  </g>
  <g id="text_40">
   <!-- Mutation site -->
   <g transform="translate(607.68 739.178437) scale(0.08 -0.08)">
    <defs>
     <path id="DejaVuSans-30" d="M 628 4666 
L 1569 4666 
L 2759 1491 
L 3956 4666 
L 4897 4666 
L 4897 0 
L 4281 0 
L 4281 4097 
L 3078 897 
L 2444 897 
L 1241 4097 
L 1241 0 
L 628 0 
L 628 4666 
z
" transform="scale(0.015625)"/>
     <path id="DejaVuSans-58" d="M 544 1381 
L 544 3500 
L 1119 3500 
L 1119 1403 
Q 1119 906 1312 657 
Q 1506 409 1894 409 
Q 2359 409 2629 706 
Q 2900 1003 2900 1516 
L 2900 3500 
L 3475 3500 
L 3475 0 
L 2900 0 
L 2900 538 
Q 2691 219 2414 64 
Q 2138 -91 1772 -91 
Q 1169 -91 856 284 
Q 544 659 544 1381 
z
M 1991 3584 
L 1991 3584 
z
" transform="scale(0.015625)"/>
    </defs>
    <use xlink:href="#DejaVuSans-30"/>
    <use xlink:href="#DejaVuSans-58" transform="translate(86.28125 0)"/>
    <use xlink:href="#DejaVuSans-57" transform="translate(149.65625 0)"/>
    <use xlink:href="#DejaVuSans-44" transform="translate(188.859375 0)"/>
    <use xlink:href="#DejaVuSans-57" transform="translate(250.140625 0)"/>
    <use xlink:href="#DejaVuSans-4c" transform="translate(289.34375 0)"/>
    <use xlink:href="#DejaVuSans-52" transform="translate(317.125 0)"/>
    <use xlink:href="#DejaVuSans-51" transform="translate(378.3125 0)"/>
    <use xlink:href="#DejaVuSans-3" transform="translate(441.6875 0)"/>
    <use xlink:href="#DejaVuSans-56" transform="translate(473.46875 0)"/>
    <use xlink:href="#DejaVuSans-4c" transform="translate(525.5625 0)"/>
    <use xlink:href="#DejaVuSans-57" transform="translate(553.34375 0)"/>
    <use xlink:href="#DejaVuSans-48" transform="translate(592.546875 0)"/>
   </g>
  </g>
 </g>
 <defs>
  <clipPath id="pa37cfca93c">
   <rect x="53.82" y="75.6" width="612.36" height="612.36"/>
  </clipPath>
 </defs>
</svg>
